#N canvas 239 253 970 355 10;
#X obj 452 91 snapshot~;
#X obj 244 127 - 100;
#X obj 452 67 abs~;
#X obj 452 113 rmstodb;
#X obj 452 177 t f f b;
#X obj 452 199 - 100;
#X obj 452 155 change;
#X obj 244 215 t f f b;
#X obj 244 193 change;
#X obj 302 232 del 1000;
#X obj 510 194 del 1000;
#X floatatom 178 102 5 0 0 0 - #0-refresh_in #0-refresh, f 5;
#X text 86 101 REFRESH TIME;
#X obj 244 105 env~ 1024;
#X msg 510 116 -99;
#X obj 494 67 metro 1.333;
#X obj 494 23 loadbang;
#X msg 494 45 1;
#X obj 452 133 max -99;
#X obj 244 171 max -99;
#X msg 302 171 -99;
#X obj 364 285 pack f f;
#X obj 244 238 + 100;
#X floatatom 136 57 6 0 0 0 - #0-PK_PD none, f 6;
#X obj 551 238 + 100;
#X floatatom 64 57 6 0 0 0 - #0-PK_DB none, f 6;
#X text 108 57 dB;
#X text 180 57 dB/Pd;
#X obj 244 149 t f f;
#X obj 364 307 outlet VU;
#X obj 245 23 inlet~;
#X obj 452 221 t b f f;
#X obj 471 270 s \$0-PK_DB;
#X obj 551 270 s \$0-PK_PD;
#X text 30 57 PEAK;
#X obj 154 270 s \$0-RMS_DB;
#X obj 244 270 s \$0-RMS_PD;
#X floatatom 136 77 6 0 0 0 - #0-RMS_PD none, f 6;
#X floatatom 64 77 6 0 0 0 - #0-RMS_DB none, f 6;
#X text 108 77 dB;
#X text 180 77 dB/Pd;
#X text 36 77 RMS;
#X obj 355 207 r \$0-refresh;
#X obj 563 172 r \$0-refresh;
#X obj 581 106 s \$0-refresh_in;
#X text 262 85 RMS;
#X text 411 85 PEAK;
#X obj 581 23 inlet refresh_rate;
#X obj 722 23 loadbang;
#X obj 722 45 f \$1;
#X obj 722 67 sel 0;
#X msg 722 89 500;
#X obj 801 45 sel 0 1;
#X msg 528 45 0;
#X msg 801 131 0;
#X obj 801 153 switch~;
#X msg 871 131 1;
#X obj 871 110 loadbang;
#X obj 871 67 t b b;
#X obj 801 67 t b b b;
#X obj 801 23 inlet analyse;
#X msg 364 260 -100 -100;
#X connect 0 0 3 0;
#X connect 1 0 28 0;
#X connect 2 0 0 0;
#X connect 3 0 18 0;
#X connect 4 0 5 0;
#X connect 4 1 18 1;
#X connect 4 2 10 0;
#X connect 5 0 31 0;
#X connect 6 0 4 0;
#X connect 7 0 22 0;
#X connect 7 0 35 0;
#X connect 7 1 19 1;
#X connect 7 2 9 0;
#X connect 8 0 7 0;
#X connect 9 0 20 0;
#X connect 10 0 14 0;
#X connect 13 0 1 0;
#X connect 14 0 18 1;
#X connect 15 0 0 0;
#X connect 16 0 17 0;
#X connect 17 0 15 0;
#X connect 18 0 6 0;
#X connect 19 0 8 0;
#X connect 20 0 19 1;
#X connect 21 0 29 0;
#X connect 22 0 36 0;
#X connect 24 0 33 0;
#X connect 28 0 19 0;
#X connect 28 1 21 0;
#X connect 30 0 2 0;
#X connect 30 0 13 0;
#X connect 31 0 21 0;
#X connect 31 1 21 1;
#X connect 31 1 24 0;
#X connect 31 1 32 0;
#X connect 42 0 9 1;
#X connect 43 0 10 1;
#X connect 47 0 44 0;
#X connect 48 0 49 0;
#X connect 49 0 50 0;
#X connect 50 0 51 0;
#X connect 50 1 44 0;
#X connect 51 0 44 0;
#X connect 52 0 59 0;
#X connect 52 1 58 0;
#X connect 53 0 15 0;
#X connect 54 0 55 0;
#X connect 56 0 55 0;
#X connect 57 0 56 0;
#X connect 58 0 56 0;
#X connect 58 1 17 0;
#X connect 59 0 54 0;
#X connect 59 1 53 0;
#X connect 59 2 61 0;
#X connect 60 0 52 0;
#X connect 61 0 21 0;
#X coords 0 355 1 354 180 90 0;
