#N canvas 57 108 1356 692 10;
#X obj 32 40 inlet~ TRACK_0;
#X obj 261 367 catch~ \$0-FILTER;
#X obj 411 367 catch~ \$0-BITCRUSH;
#X obj 731 367 catch~ \$0-REVERB;
#X obj 32 117 throw~ \$0-FILTER;
#X obj 519 143 hsl 70 15 0 1 0 0 \$0-fx_0_0_gui \$0-fx_0_0_gui_set
FILT 76 8 0 10 -262144 -1 -1 0 1;
#N canvas 2 81 223 230 RAMP 0;
#X obj 60 131 *~;
#X obj 110 93 pack f 50;
#X obj 110 112 line~;
#X obj 60 45 inlet~;
#X obj 110 45 inlet;
#X obj 110 74 clip 0 1;
#X obj 60 160 outlet~;
#X connect 0 0 6 0;
#X connect 1 0 2 0;
#X connect 2 0 0 1;
#X connect 3 0 0 0;
#X connect 4 0 5 0;
#X connect 5 0 1 0;
#X restore 32 98 pd RAMP;
#X obj 71 79 r \$0-fx_0_0;
#X obj 519 159 hsl 70 15 0 1 0 0 \$0-fx_0_1_gui \$0-fx_0_1_gui_set
BITCR 76 8 0 10 -262144 -1 -1 0 1;
#X obj 519 175 hsl 70 15 0 1 0 0 \$0-fx_0_2_gui \$0-fx_0_2_gui_set
DEL 76 8 0 10 -262144 -1 -1 0 1;
#X obj 519 191 hsl 70 15 0 1 0 0 \$0-fx_0_3_gui \$0-fx_0_3_gui_set
REV 76 8 0 10 -262144 -1 -1 0 1;
#N canvas 2 81 223 230 RAMP 0;
#X obj 60 131 *~;
#X obj 110 93 pack f 50;
#X obj 110 112 line~;
#X obj 60 45 inlet~;
#X obj 110 45 inlet;
#X obj 110 74 clip 0 1;
#X obj 60 160 outlet~;
#X connect 0 0 6 0;
#X connect 1 0 2 0;
#X connect 2 0 0 1;
#X connect 3 0 0 0;
#X connect 4 0 5 0;
#X connect 5 0 1 0;
#X restore 32 165 pd RAMP;
#N canvas 2 81 223 230 RAMP 0;
#X obj 60 131 *~;
#X obj 110 93 pack f 50;
#X obj 110 112 line~;
#X obj 60 45 inlet~;
#X obj 110 45 inlet;
#X obj 110 74 clip 0 1;
#X obj 60 160 outlet~;
#X connect 0 0 6 0;
#X connect 1 0 2 0;
#X connect 2 0 0 1;
#X connect 3 0 0 0;
#X connect 4 0 5 0;
#X connect 5 0 1 0;
#X restore 32 232 pd RAMP;
#N canvas 2 81 223 230 RAMP 0;
#X obj 60 131 *~;
#X obj 110 93 pack f 50;
#X obj 110 112 line~;
#X obj 60 45 inlet~;
#X obj 110 45 inlet;
#X obj 110 74 clip 0 1;
#X obj 60 160 outlet~;
#X connect 0 0 6 0;
#X connect 1 0 2 0;
#X connect 2 0 0 1;
#X connect 3 0 0 0;
#X connect 4 0 5 0;
#X connect 5 0 1 0;
#X restore 32 299 pd RAMP;
#X obj 32 184 throw~ \$0-BITCRUSH;
#X obj 32 318 throw~ \$0-REVERB;
#X obj 71 146 r \$0-fx_0_1;
#X obj 71 213 r \$0-fx_0_2;
#X obj 71 280 r \$0-fx_0_3;
#X obj 183 117 throw~ \$0-FILTER;
#X obj 659 143 hsl 70 15 0 1 0 0 \$0-fx_1_0_gui \$0-fx_1_0_gui_set
FILT 76 8 0 10 -262144 -1 -1 0 1;
#N canvas 2 81 223 230 RAMP 0;
#X obj 60 131 *~;
#X obj 110 93 pack f 50;
#X obj 110 112 line~;
#X obj 60 45 inlet~;
#X obj 110 45 inlet;
#X obj 110 74 clip 0 1;
#X obj 60 160 outlet~;
#X connect 0 0 6 0;
#X connect 1 0 2 0;
#X connect 2 0 0 1;
#X connect 3 0 0 0;
#X connect 4 0 5 0;
#X connect 5 0 1 0;
#X restore 183 98 pd RAMP;
#X obj 659 159 hsl 70 15 0 1 0 0 \$0-fx_1_1_gui \$0-fx_1_1_gui_set
BITCR 76 8 0 10 -262144 -1 -1 0 1;
#X obj 659 175 hsl 70 15 0 1 0 0 \$0-fx_1_2_gui \$0-fx_1_2_gui_set
DEL 76 8 0 10 -262144 -1 -1 0 1;
#X obj 659 191 hsl 70 15 0 1 0 0 \$0-fx_1_3_gui \$0-fx_1_3_gui_set
REV 76 8 0 10 -262144 -1 -1 0 1;
#N canvas 2 81 223 230 RAMP 0;
#X obj 60 131 *~;
#X obj 110 93 pack f 50;
#X obj 110 112 line~;
#X obj 60 45 inlet~;
#X obj 110 45 inlet;
#X obj 110 74 clip 0 1;
#X obj 60 160 outlet~;
#X connect 0 0 6 0;
#X connect 1 0 2 0;
#X connect 2 0 0 1;
#X connect 3 0 0 0;
#X connect 4 0 5 0;
#X connect 5 0 1 0;
#X restore 183 165 pd RAMP;
#N canvas 2 81 223 230 RAMP 0;
#X obj 60 131 *~;
#X obj 110 93 pack f 50;
#X obj 110 112 line~;
#X obj 60 45 inlet~;
#X obj 110 45 inlet;
#X obj 110 74 clip 0 1;
#X obj 60 160 outlet~;
#X connect 0 0 6 0;
#X connect 1 0 2 0;
#X connect 2 0 0 1;
#X connect 3 0 0 0;
#X connect 4 0 5 0;
#X connect 5 0 1 0;
#X restore 183 232 pd RAMP;
#N canvas 2 81 223 230 RAMP 0;
#X obj 60 131 *~;
#X obj 110 93 pack f 50;
#X obj 110 112 line~;
#X obj 60 45 inlet~;
#X obj 110 45 inlet;
#X obj 110 74 clip 0 1;
#X obj 60 160 outlet~;
#X connect 0 0 6 0;
#X connect 1 0 2 0;
#X connect 2 0 0 1;
#X connect 3 0 0 0;
#X connect 4 0 5 0;
#X connect 5 0 1 0;
#X restore 183 299 pd RAMP;
#X obj 183 184 throw~ \$0-BITCRUSH;
#X obj 183 318 throw~ \$0-REVERB;
#X obj 333 117 throw~ \$0-FILTER;
#X obj 799 143 hsl 70 15 0 1 0 0 \$0-fx_2_0_gui \$0-fx_2_0_gui_set
FILT 76 8 0 10 -262144 -1 -1 0 1;
#N canvas 2 81 223 230 RAMP 0;
#X obj 60 131 *~;
#X obj 110 93 pack f 50;
#X obj 110 112 line~;
#X obj 60 45 inlet~;
#X obj 110 45 inlet;
#X obj 110 74 clip 0 1;
#X obj 60 160 outlet~;
#X connect 0 0 6 0;
#X connect 1 0 2 0;
#X connect 2 0 0 1;
#X connect 3 0 0 0;
#X connect 4 0 5 0;
#X connect 5 0 1 0;
#X restore 333 98 pd RAMP;
#X obj 799 159 hsl 70 15 0 1 0 0 \$0-fx_2_1_gui \$0-fx_2_1_gui_set
BITCR 76 8 0 10 -262144 -1 -1 0 1;
#X obj 799 175 hsl 70 15 0 1 0 0 \$0-fx_2_2_gui \$0-fx_2_2_gui_set
DEL 76 8 0 10 -262144 -1 -1 0 1;
#X obj 799 191 hsl 70 15 0 1 0 0 \$0-fx_2_3_gui \$0-fx_2_3_gui_set
REV 76 8 0 10 -262144 -1 -1 0 1;
#N canvas 2 81 223 230 RAMP 0;
#X obj 60 131 *~;
#X obj 110 93 pack f 50;
#X obj 110 112 line~;
#X obj 60 45 inlet~;
#X obj 110 45 inlet;
#X obj 110 74 clip 0 1;
#X obj 60 160 outlet~;
#X connect 0 0 6 0;
#X connect 1 0 2 0;
#X connect 2 0 0 1;
#X connect 3 0 0 0;
#X connect 4 0 5 0;
#X connect 5 0 1 0;
#X restore 333 165 pd RAMP;
#N canvas 2 81 223 230 RAMP 0;
#X obj 60 131 *~;
#X obj 110 93 pack f 50;
#X obj 110 112 line~;
#X obj 60 45 inlet~;
#X obj 110 45 inlet;
#X obj 110 74 clip 0 1;
#X obj 60 160 outlet~;
#X connect 0 0 6 0;
#X connect 1 0 2 0;
#X connect 2 0 0 1;
#X connect 3 0 0 0;
#X connect 4 0 5 0;
#X connect 5 0 1 0;
#X restore 333 232 pd RAMP;
#N canvas 2 81 223 230 RAMP 0;
#X obj 60 131 *~;
#X obj 110 93 pack f 50;
#X obj 110 112 line~;
#X obj 60 45 inlet~;
#X obj 110 45 inlet;
#X obj 110 74 clip 0 1;
#X obj 60 160 outlet~;
#X connect 0 0 6 0;
#X connect 1 0 2 0;
#X connect 2 0 0 1;
#X connect 3 0 0 0;
#X connect 4 0 5 0;
#X connect 5 0 1 0;
#X restore 333 299 pd RAMP;
#X obj 333 184 throw~ \$0-BITCRUSH;
#X obj 333 318 throw~ \$0-REVERB;
#X obj 182 40 inlet~ TRACK_1;
#X obj 332 40 inlet~ TRACK_2;
#X obj 222 79 r \$0-fx_1_0;
#X obj 222 146 r \$0-fx_1_1;
#X obj 222 213 r \$0-fx_1_2;
#X obj 222 280 r \$0-fx_1_3;
#X obj 372 79 r \$0-fx_2_0;
#X obj 372 146 r \$0-fx_2_1;
#X obj 372 213 r \$0-fx_2_2;
#X obj 372 280 r \$0-fx_2_3;
#X text 531 123 TRACK_0;
#X text 671 123 TRACK_1;
#X text 811 123 TRACK_2;
#N canvas 377 206 257 296 FILTER~ 0;
#X obj 54 44 inlet~;
#X obj 54 209 outlet~;
#X obj 117 44 r \$0-filtOn;
#X obj 117 63 t f f;
#N canvas 2 221 223 230 CUTOFF 0;
#X obj 60 131 *~;
#X obj 110 112 line~;
#X obj 60 45 inlet~;
#X obj 110 45 inlet;
#X obj 110 74 clip 0 1;
#X obj 60 160 outlet~;
#X obj 110 93 pack f 5;
#X connect 0 0 5 0;
#X connect 1 0 0 1;
#X connect 2 0 0 0;
#X connect 3 0 4 0;
#X connect 4 0 6 0;
#X connect 6 0 1 0;
#X restore 54 170 pd CUTOFF;
#X obj 117 82 pipe 5;
#N canvas 256 248 371 566 PROCESS~ 0;
#X obj 52 34 inlet~;
#X obj 202 34 inlet;
#X obj 202 63 switch~;
#X text 254 63 DESLIGA DSP;
#X obj 52 514 outlet~;
#X obj 52 305 e_beequad;
#X msg 103 119 interp \$1;
#X msg 103 138 clear;
#X obj 142 287 u_lowpassq;
#X floatatom 222 269 5 0 0 0 - - -, f 5;
#X obj 142 203 * 22000;
#X obj 142 447 u_highpassq;
#X obj 52 465 e_beequad;
#X floatatom 171 382 8 0 0 0 - - -, f 8;
#X floatatom 228 429 5 0 0 0 - - -, f 5;
#X obj 142 363 * 22000;
#X obj 142 344 pow 3;
#X obj 142 184 pow 3;
#X floatatom 171 222 8 0 0 0 - - -, f 8;
#X obj 199 268 * 5;
#X obj 205 428 * 5;
#X obj 142 222 + 20;
#X obj 142 382 + 10;
#X obj 103 81 loadbang;
#X msg 103 100 10;
#X text 132 100 Interpolation time (ms);
#X text 226 222 LP FREQ;
#X text 259 269 LP Q;
#X text 226 382 HP FREQ;
#X text 265 429 HP Q;
#X obj 142 165 r \$0-lpF;
#X obj 199 249 r \$0-lpQ;
#X obj 142 325 r \$0-hpF;
#X obj 205 409 r \$0-hpQ;
#X connect 0 0 5 0;
#X connect 1 0 2 0;
#X connect 5 0 12 0;
#X connect 6 0 5 1;
#X connect 6 0 12 1;
#X connect 7 0 5 1;
#X connect 7 0 12 1;
#X connect 8 0 5 1;
#X connect 10 0 21 0;
#X connect 11 0 12 1;
#X connect 12 0 4 0;
#X connect 15 0 22 0;
#X connect 16 0 15 0;
#X connect 17 0 10 0;
#X connect 19 0 9 0;
#X connect 19 0 8 1;
#X connect 20 0 14 0;
#X connect 20 0 11 1;
#X connect 21 0 8 0;
#X connect 21 0 18 0;
#X connect 22 0 13 0;
#X connect 22 0 11 0;
#X connect 23 0 24 0;
#X connect 24 0 6 0;
#X connect 30 0 17 0;
#X connect 31 0 19 0;
#X connect 32 0 16 0;
#X connect 33 0 20 0;
#X restore 54 111 pd PROCESS~;
#X text 130 111 FILTER;
#X connect 0 0 6 0;
#X connect 2 0 3 0;
#X connect 3 0 5 0;
#X connect 3 1 4 1;
#X connect 4 0 1 0;
#X connect 5 0 6 1;
#X connect 6 0 4 0;
#X restore 261 396 pd FILTER~;
#N canvas 2 81 223 230 RAMP 0;
#X obj 60 131 *~;
#X obj 110 93 pack f 50;
#X obj 110 112 line~;
#X obj 60 45 inlet~;
#X obj 110 45 inlet;
#X obj 110 74 clip 0 1;
#X obj 60 160 outlet~;
#X connect 0 0 6 0;
#X connect 1 0 2 0;
#X connect 2 0 0 1;
#X connect 3 0 0 0;
#X connect 4 0 5 0;
#X connect 5 0 1 0;
#X restore 274 454 pd RAMP;
#N canvas 2 81 223 230 RAMP 0;
#X obj 60 131 *~;
#X obj 110 93 pack f 50;
#X obj 110 112 line~;
#X obj 60 45 inlet~;
#X obj 110 45 inlet;
#X obj 110 74 clip 0 1;
#X obj 60 160 outlet~;
#X connect 0 0 6 0;
#X connect 1 0 2 0;
#X connect 2 0 0 1;
#X connect 3 0 0 0;
#X connect 4 0 5 0;
#X connect 5 0 1 0;
#X restore 274 521 pd RAMP;
#N canvas 2 81 223 230 RAMP 0;
#X obj 60 131 *~;
#X obj 110 93 pack f 50;
#X obj 110 112 line~;
#X obj 60 45 inlet~;
#X obj 110 45 inlet;
#X obj 110 74 clip 0 1;
#X obj 60 160 outlet~;
#X connect 0 0 6 0;
#X connect 1 0 2 0;
#X connect 2 0 0 1;
#X connect 3 0 0 0;
#X connect 4 0 5 0;
#X connect 5 0 1 0;
#X restore 274 588 pd RAMP;
#X obj 274 473 throw~ \$0-BITCRUSH;
#X obj 274 607 throw~ \$0-REVERB;
#X obj 274 425 +~;
#X obj 313 435 r \$0-fxfb_0_1;
#X obj 313 502 r \$0-fxfb_0_2;
#X obj 313 569 r \$0-fxfb_0_3;
#X obj 261 646 outlet~ FILTER;
#X obj 519 247 hsl 50 12 0 1 0 0 \$0-fxfb_0_1_gui \$0-fxfb_0_1_gui_set
BITCR 56 6 0 10 -262144 -1 -1 0 1;
#X obj 519 260 hsl 50 12 0 1 0 0 \$0-fxfb_0_2_gui \$0-fxfb_0_2_gui_set
DEL 56 6 0 10 -262144 -1 -1 0 1;
#X obj 519 273 hsl 50 12 0 1 0 0 \$0-fxfb_0_3_gui \$0-fxfb_0_3_gui_set
REV 56 6 0 10 -262144 -1 -1 0 1;
#X obj 516 227 tgl 15 0 \$0-filtOn_gui \$0-filtOn_gui_set empty 17
7 0 10 -262144 -1 -1 1 1;
#X obj 619 247 hsl 50 12 0 1 0 0 \$0-fxfb_1_0_gui \$0-fxfb_1_0_gui_set
FILT 56 6 0 10 -262144 -1 -1 0 1;
#X obj 619 260 hsl 50 12 0 1 0 0 \$0-fxfb_1_2_gui \$0-fxfb_1_2_gui_set
DEL 56 6 0 10 -262144 -1 -1 0 1;
#X obj 619 273 hsl 50 12 0 1 0 0 \$0-fxfb_1_3_gui \$0-fxfb_1_3_gui_set
REV 56 6 0 10 -262144 -1 -1 0 1;
#X obj 616 227 tgl 15 0 \$0-bitcrOn_gui \$0-bitcrOn_gui_set empty 17
7 0 10 -262144 -1 -1 1 1;
#X obj 719 247 hsl 50 12 0 1 0 0 \$0-fxfb_2_0_gui \$0-fxfb_2_0_gui_set
FILT 56 6 0 10 -262144 -1 -1 0 1;
#X obj 719 260 hsl 50 12 0 1 0 0 \$0-fxfb_2_1_gui \$0-fxfb_2_1_gui_set
BITCR 56 6 0 10 -262144 -1 -1 0 1;
#X obj 719 273 hsl 50 12 0 1 0 0 \$0-fxfb_2_3_gui \$0-fxfb_2_3_gui_set
REV 56 6 0 10 -262144 -1 -1 0 1;
#X obj 716 227 tgl 15 0 \$0-delOn_gui \$0-delOn_gui_set empty 17 7
0 10 -262144 -1 -1 1 1;
#X obj 819 260 hsl 50 12 0 1 0 0 \$0-fxfb_3_1_gui \$0-fxfb_3_1_gui_set
BITCR 56 6 0 10 -262144 -1 -1 0 1;
#X obj 819 273 hsl 50 12 0 1 0 0 \$0-fxfb_3_2_gui \$0-fxfb_3_2_gui_set
DEL 56 6 0 10 -262144 -1 -1 0 1;
#X obj 816 227 tgl 15 0 \$0-revOn_gui \$0-revOn_gui_set empty 17 7
0 10 -262144 -1 -1 1 1;
#X text 635 226 BITCR;
#X text 535 226 FILT;
#X text 835 226 REV;
#X obj 819 247 hsl 50 12 0 1 0 0 \$0-fxfb_3_0_gui \$0-fxfb_3_0_gui_set
FILT 56 6 0 10 -262144 -1 -1 0 1;
#N canvas 2 81 223 230 RAMP 0;
#X obj 60 131 *~;
#X obj 110 93 pack f 50;
#X obj 110 112 line~;
#X obj 60 45 inlet~;
#X obj 110 45 inlet;
#X obj 110 74 clip 0 1;
#X obj 60 160 outlet~;
#X connect 0 0 6 0;
#X connect 1 0 2 0;
#X connect 2 0 0 1;
#X connect 3 0 0 0;
#X connect 4 0 5 0;
#X connect 5 0 1 0;
#X restore 424 454 pd RAMP;
#N canvas 2 81 223 230 RAMP 0;
#X obj 60 131 *~;
#X obj 110 93 pack f 50;
#X obj 110 112 line~;
#X obj 60 45 inlet~;
#X obj 110 45 inlet;
#X obj 110 74 clip 0 1;
#X obj 60 160 outlet~;
#X connect 0 0 6 0;
#X connect 1 0 2 0;
#X connect 2 0 0 1;
#X connect 3 0 0 0;
#X connect 4 0 5 0;
#X connect 5 0 1 0;
#X restore 424 521 pd RAMP;
#N canvas 2 81 223 230 RAMP 0;
#X obj 60 131 *~;
#X obj 110 93 pack f 50;
#X obj 110 112 line~;
#X obj 60 45 inlet~;
#X obj 110 45 inlet;
#X obj 110 74 clip 0 1;
#X obj 60 160 outlet~;
#X connect 0 0 6 0;
#X connect 1 0 2 0;
#X connect 2 0 0 1;
#X connect 3 0 0 0;
#X connect 4 0 5 0;
#X connect 5 0 1 0;
#X restore 424 588 pd RAMP;
#X obj 424 607 throw~ \$0-REVERB;
#X obj 424 425 +~;
#N canvas 2 81 223 230 RAMP 0;
#X obj 60 131 *~;
#X obj 110 93 pack f 50;
#X obj 110 112 line~;
#X obj 60 45 inlet~;
#X obj 110 45 inlet;
#X obj 110 74 clip 0 1;
#X obj 60 160 outlet~;
#X connect 0 0 6 0;
#X connect 1 0 2 0;
#X connect 2 0 0 1;
#X connect 3 0 0 0;
#X connect 4 0 5 0;
#X connect 5 0 1 0;
#X restore 584 454 pd RAMP;
#N canvas 2 81 223 230 RAMP 0;
#X obj 60 131 *~;
#X obj 110 93 pack f 50;
#X obj 110 112 line~;
#X obj 60 45 inlet~;
#X obj 110 45 inlet;
#X obj 110 74 clip 0 1;
#X obj 60 160 outlet~;
#X connect 0 0 6 0;
#X connect 1 0 2 0;
#X connect 2 0 0 1;
#X connect 3 0 0 0;
#X connect 4 0 5 0;
#X connect 5 0 1 0;
#X restore 584 521 pd RAMP;
#N canvas 2 81 223 230 RAMP 0;
#X obj 60 131 *~;
#X obj 110 93 pack f 50;
#X obj 110 112 line~;
#X obj 60 45 inlet~;
#X obj 110 45 inlet;
#X obj 110 74 clip 0 1;
#X obj 60 160 outlet~;
#X connect 0 0 6 0;
#X connect 1 0 2 0;
#X connect 2 0 0 1;
#X connect 3 0 0 0;
#X connect 4 0 5 0;
#X connect 5 0 1 0;
#X restore 584 588 pd RAMP;
#X obj 584 607 throw~ \$0-REVERB;
#X obj 584 425 +~;
#N canvas 2 81 223 230 RAMP 0;
#X obj 60 131 *~;
#X obj 110 93 pack f 50;
#X obj 110 112 line~;
#X obj 60 45 inlet~;
#X obj 110 45 inlet;
#X obj 110 74 clip 0 1;
#X obj 60 160 outlet~;
#X connect 0 0 6 0;
#X connect 1 0 2 0;
#X connect 2 0 0 1;
#X connect 3 0 0 0;
#X connect 4 0 5 0;
#X connect 5 0 1 0;
#X restore 744 454 pd RAMP;
#N canvas 2 81 223 230 RAMP 0;
#X obj 60 131 *~;
#X obj 110 93 pack f 50;
#X obj 110 112 line~;
#X obj 60 45 inlet~;
#X obj 110 45 inlet;
#X obj 110 74 clip 0 1;
#X obj 60 160 outlet~;
#X connect 0 0 6 0;
#X connect 1 0 2 0;
#X connect 2 0 0 1;
#X connect 3 0 0 0;
#X connect 4 0 5 0;
#X connect 5 0 1 0;
#X restore 744 521 pd RAMP;
#N canvas 2 81 223 230 RAMP 0;
#X obj 60 131 *~;
#X obj 110 93 pack f 50;
#X obj 110 112 line~;
#X obj 60 45 inlet~;
#X obj 110 45 inlet;
#X obj 110 74 clip 0 1;
#X obj 60 160 outlet~;
#X connect 0 0 6 0;
#X connect 1 0 2 0;
#X connect 2 0 0 1;
#X connect 3 0 0 0;
#X connect 4 0 5 0;
#X connect 5 0 1 0;
#X restore 744 588 pd RAMP;
#X obj 744 425 +~;
#N canvas 879 593 240 234 BITCRUSH~ 0;
#X obj 54 44 inlet~;
#X obj 54 179 outlet~;
#X obj 117 63 t f f;
#N canvas 2 165 223 230 CUTOFF 0;
#X obj 60 131 *~;
#X obj 110 112 line~;
#X obj 60 45 inlet~;
#X obj 110 45 inlet;
#X obj 110 74 clip 0 1;
#X obj 60 160 outlet~;
#X obj 110 93 pack f 5;
#X connect 0 0 5 0;
#X connect 1 0 0 1;
#X connect 2 0 0 0;
#X connect 3 0 4 0;
#X connect 4 0 6 0;
#X connect 6 0 1 0;
#X restore 54 140 pd CUTOFF;
#X obj 117 82 pipe 5;
#N canvas 171 387 380 408 PROCESS~ 0;
#X obj 48 34 inlet~;
#X obj 208 34 inlet;
#X obj 208 63 switch~;
#X text 260 63 DESLIGA DSP;
#X obj 48 361 outlet~;
#X obj 134 258 /;
#X msg 134 239 1 \$1;
#X obj 48 227 *~;
#X obj 107 208 line~;
#X obj 48 314 *~;
#X obj 63 254 wrap~;
#X obj 48 273 -~;
#X obj 107 189 pack 0 20;
#X obj 134 296 line~;
#X obj 134 277 pack 0 20;
#X obj 107 151 max 1;
#X obj 107 56 r \$0-bitcr;
#X obj 107 170 t f f;
#X obj 107 94 - 1;
#X obj 107 113 abs;
#X obj 107 75 pow 0.25;
#X obj 107 132 * 50;
#X connect 0 0 7 0;
#X connect 1 0 2 0;
#X connect 5 0 14 0;
#X connect 6 0 5 0;
#X connect 7 0 10 0;
#X connect 7 0 11 0;
#X connect 8 0 7 1;
#X connect 9 0 4 0;
#X connect 10 0 11 1;
#X connect 11 0 9 0;
#X connect 12 0 8 0;
#X connect 13 0 9 1;
#X connect 14 0 13 0;
#X connect 15 0 17 0;
#X connect 16 0 20 0;
#X connect 17 0 12 0;
#X connect 17 1 6 0;
#X connect 18 0 19 0;
#X connect 19 0 21 0;
#X connect 20 0 18 0;
#X connect 21 0 15 0;
#X restore 54 111 pd PROCESS~;
#X obj 117 44 r \$0-bitcrOn;
#X text 130 111 BITCRUSHER;
#X connect 0 0 5 0;
#X connect 2 0 4 0;
#X connect 2 1 3 1;
#X connect 3 0 1 0;
#X connect 4 0 5 1;
#X connect 5 0 3 0;
#X connect 6 0 2 0;
#X restore 411 396 pd BITCRUSH~;
#N canvas 394 338 240 234 REVERB~ 0;
#X obj 54 44 inlet~;
#X obj 54 179 outlet~;
#X obj 117 63 t f f;
#N canvas 2 165 223 230 CUTOFF 0;
#X obj 60 131 *~;
#X obj 110 112 line~;
#X obj 60 45 inlet~;
#X obj 110 45 inlet;
#X obj 110 74 clip 0 1;
#X obj 60 160 outlet~;
#X obj 110 93 pack f 5;
#X connect 0 0 5 0;
#X connect 1 0 0 1;
#X connect 2 0 0 0;
#X connect 3 0 4 0;
#X connect 4 0 6 0;
#X connect 6 0 1 0;
#X restore 54 140 pd CUTOFF;
#X obj 117 82 pipe 5;
#N canvas 122 423 357 305 PROCESS~ 0;
#X obj 48 34 inlet~;
#X obj 188 34 inlet;
#X obj 188 63 switch~;
#X text 240 63 DESLIGA DSP;
#X obj 48 257 outlet~;
#X obj 48 208 dattorroplate;
#X obj 66 92 * 200;
#X obj 85 121 r \$0-revBW;
#X obj 104 150 r \$0-revDamp;
#X obj 123 179 r \$0-revFB;
#X obj 66 73 r \$0-revPreDel;
#X connect 0 0 5 0;
#X connect 1 0 2 0;
#X connect 5 0 4 0;
#X connect 6 0 5 1;
#X connect 7 0 5 2;
#X connect 8 0 5 3;
#X connect 9 0 5 4;
#X connect 10 0 6 0;
#X restore 54 111 pd PROCESS~;
#X obj 117 44 r \$0-revOn;
#X text 130 111 REVERB;
#X connect 0 0 5 0;
#X connect 2 0 4 0;
#X connect 2 1 3 1;
#X connect 3 0 1 0;
#X connect 4 0 5 1;
#X connect 5 0 3 0;
#X connect 6 0 2 0;
#X restore 731 396 pd REVERB~;
#X obj 463 435 r \$0-fxfb_1_0;
#X obj 463 502 r \$0-fxfb_1_2;
#X obj 463 569 r \$0-fxfb_1_3;
#X obj 424 473 throw~ \$0-FILTER;
#X obj 623 435 r \$0-fxfb_2_0;
#X obj 623 502 r \$0-fxfb_2_1;
#X obj 623 569 r \$0-fxfb_2_3;
#X obj 584 540 throw~ \$0-BITCRUSH;
#X obj 584 473 throw~ \$0-FILTER;
#X obj 783 435 r \$0-fxfb_3_0;
#X obj 783 502 r \$0-fxfb_3_1;
#X obj 783 569 r \$0-fxfb_3_2;
#X obj 744 473 throw~ \$0-FILTER;
#X obj 744 540 throw~ \$0-BITCRUSH;
#X obj 411 646 outlet~ BITCRUSH;
#X obj 731 646 outlet~ REVERB;
#X obj 571 367 catch~ \$0-DELAY;
#N canvas 380 638 240 234 DELAY~ 0;
#X obj 54 44 inlet~;
#X obj 54 179 outlet~;
#X obj 117 63 t f f;
#N canvas 2 165 223 230 CUTOFF 0;
#X obj 60 131 *~;
#X obj 110 112 line~;
#X obj 60 45 inlet~;
#X obj 110 45 inlet;
#X obj 110 74 clip 0 1;
#X obj 60 160 outlet~;
#X obj 110 93 pack f 5;
#X connect 0 0 5 0;
#X connect 1 0 0 1;
#X connect 2 0 0 0;
#X connect 3 0 4 0;
#X connect 4 0 6 0;
#X connect 6 0 1 0;
#X restore 54 140 pd CUTOFF;
#X obj 117 82 pipe 5;
#N canvas 1037 489 378 388 PROCESS~ 0;
#X obj 58 34 inlet~;
#X obj 195 34 inlet;
#X obj 195 63 switch~;
#X text 247 63 DESLIGA DSP;
#X obj 58 333 outlet~;
#X obj 58 198 e_noclickdel \$0-del1;
#X floatatom 58 180 5 1 2000 0 - - -, f 5;
#X obj 133 294 *~;
#X obj 148 275 line~;
#X obj 148 256 pack f 50;
#N canvas 211 240 665 656 COMPRESSOR 0;
#N canvas 2 53 450 300 dw 0;
#X obj 100 85 inlet~;
#X obj 98 189 outlet~;
#X obj 137 124 delwrite~ \$0-x 100;
#X connect 0 0 2 0;
#X restore 56 143 pd dw;
#N canvas 2 53 673 467 dr 0;
#X obj 114 49 inlet~;
#X obj 170 332 outlet~;
#X obj 171 145 samplerate~;
#X msg 171 177 1000 \$1;
#X obj 171 204 /;
#X msg 179 119 bang;
#X obj 171 98 loadbang;
#X floatatom 181 264 5 0 0 0 - - -, f 5;
#X obj 171 297 delread~ \$0-x 12;
#X msg 261 178 256;
#X msg 294 178 512;
#X msg 331 177 64;
#X obj 260 200 t b a;
#X msg 364 179 32;
#X text 206 228 256;
#X obj 171 229 * 64;
#X connect 2 0 3 0;
#X connect 3 0 4 0;
#X connect 4 0 15 0;
#X connect 5 0 2 0;
#X connect 6 0 2 0;
#X connect 8 0 1 0;
#X connect 9 0 12 0;
#X connect 10 0 12 0;
#X connect 11 0 12 0;
#X connect 12 0 15 0;
#X connect 12 1 15 1;
#X connect 13 0 12 0;
#X connect 15 0 7 0;
#X connect 15 0 8 0;
#X restore 56 172 pd dr;
#X obj 56 47 inlet~;
#X obj 55 609 outlet~;
#X obj 56 427 *~;
#X obj 165 141 dbtorms;
#X obj 96 332 loadbang;
#X msg 96 351 1;
#X obj 165 118 + 3;
#N canvas 0 0 450 300 (subpatch) 0;
#X array \$0-scope 512 float 2;
#X coords 0 1.1 511 -0.1 200 140 1;
#X restore 396 294 graph;
#X obj 225 213 spigot;
#X obj 272 198 tgl 15 0 empty empty empty 17 7 0 10 -262144 -1 -1 0
1;
#N canvas 2 53 453 353 to-table 0;
#X obj 159 114 f 0;
#X obj 187 114 + 1;
#X obj 159 140 mod 512;
#X obj 159 80 t b a;
#X obj 159 168 pack 0 0;
#X obj 159 194 s \$0-scope;
#X obj 159 48 inlet;
#X connect 0 0 2 0;
#X connect 1 0 0 1;
#X connect 2 0 1 0;
#X connect 2 0 4 0;
#X connect 3 0 0 0;
#X connect 3 1 4 1;
#X connect 4 0 5 0;
#X connect 6 0 3 0;
#X restore 225 232 pd to-table;
#X obj 396 455 table \$0-curve 1027;
#N canvas 402 130 654 642 make-curve 0;
#X obj 179 329 samplerate~;
#X msg 179 361 1000 \$1;
#X obj 179 388 /;
#X msg 187 303 bang;
#X obj 179 282 loadbang;
#X obj 161 413 *;
#X text 133 24 f6 2 1025 7 - 1 128 1 128 0.4 256 0.2 256 0.1 257 0.01
;
#X obj 161 435 t a a;
#X obj 136 305 swap;
#X obj 347 331 delay;
#X obj 136 190 list;
#X obj 136 235 list split 2;
#X obj 308 574 tabwrite~ \$0-curve;
#X msg 136 91 0 1 128 1 128 0.4 256 0.2 256 0.1 257 0.01;
#X obj 136 45 loadbang;
#X obj 136 119 t a b b b b b b b b b b b;
#X obj 136 495 vline~;
#X text 170 67 GEN 6 curve: pairs of <sample-pos value> \, no commas!
;
#X connect 0 0 1 0;
#X connect 1 0 2 0;
#X connect 2 0 5 1;
#X connect 3 0 0 0;
#X connect 4 0 0 0;
#X connect 5 0 7 0;
#X connect 7 0 16 1;
#X connect 7 1 9 0;
#X connect 8 0 16 0;
#X connect 8 1 5 0;
#X connect 9 0 10 0;
#X connect 10 0 11 0;
#X connect 11 0 8 0;
#X connect 11 1 10 1;
#X connect 13 0 15 0;
#X connect 14 0 13 0;
#X connect 15 0 10 0;
#X connect 15 11 12 0;
#X connect 16 0 12 0;
#X restore 525 455 pd make-curve;
#X text 327 118 threshold;
#N canvas 312 148 648 448 compress 0;
#X obj 204 62 inlet;
#X obj 204 137 moses 0.5;
#X obj 285 69 inlet;
#X text 282 47 threshold;
#X obj 204 345 outlet;
#X obj 286 188 -;
#X text 323 192 power - thres;
#X text 320 221 * comp1;
#X obj 286 252 +;
#X text 325 254 + thres;
#X obj 401 74 inlet;
#X text 401 52 comp1;
#X obj 204 320 / 1;
#X text 234 321 / power;
#X obj 204 94 t a a;
#X obj 471 74 inlet;
#X text 471 52 comp2;
#X obj 471 124 /;
#X msg 471 102 1 \$1;
#X text 19 380 thresh * pow(power/thresh \, 1/comp2);
#X obj 204 265 *;
#X obj 285 95 t a a a a a;
#X obj 204 187 / 1;
#X obj 204 237 pow 1;
#X obj 286 219 * 1;
#X connect 0 0 14 0;
#X connect 1 0 22 0;
#X connect 1 1 5 0;
#X connect 2 0 21 0;
#X connect 5 0 24 0;
#X connect 8 0 12 0;
#X connect 10 0 24 1;
#X connect 12 0 4 0;
#X connect 14 0 1 0;
#X connect 14 1 12 1;
#X connect 15 0 18 0;
#X connect 17 0 23 1;
#X connect 18 0 17 0;
#X connect 20 0 12 0;
#X connect 21 0 1 1;
#X connect 21 1 22 1;
#X connect 21 2 20 1;
#X connect 21 3 5 1;
#X connect 21 4 8 1;
#X connect 22 0 23 0;
#X connect 23 0 20 0;
#X connect 24 0 8 0;
#X restore 165 172 pd compress;
#X obj 165 285 pack 0 50;
#X text 399 119 comp1;
#X text 444 119 comp2;
#N canvas 2 53 450 300 t 0;
#X obj 134 69 loadbang;
#X obj 98 155 select 0;
#X obj 98 46 inlet;
#X obj 98 240 outlet;
#X msg 98 186 1;
#X obj 98 128 dbtorms;
#X obj 98 109 f 100;
#X connect 0 0 6 0;
#X connect 1 0 4 0;
#X connect 1 1 3 0;
#X connect 2 0 6 0;
#X connect 4 0 3 0;
#X connect 5 0 1 0;
#X connect 6 0 5 0;
#X restore 329 138 pd t;
#N canvas 0 0 550 434 c1 0;
#X obj 134 69 loadbang;
#X obj 98 185 select 0;
#X obj 98 46 inlet;
#X obj 98 270 outlet;
#X msg 98 216 1;
#X obj 98 109 f 1;
#X msg 98 132 1 \$1;
#X obj 98 155 /;
#X connect 0 0 5 0;
#X connect 1 0 4 0;
#X connect 1 1 3 0;
#X connect 2 0 5 0;
#X connect 4 0 3 0;
#X connect 5 0 6 0;
#X connect 6 0 7 0;
#X connect 7 0 1 0;
#X restore 398 138 pd c1;
#N canvas 0 0 450 300 c2 0;
#X obj 134 69 loadbang;
#X obj 98 185 select 0;
#X obj 98 46 inlet;
#X obj 98 270 outlet;
#X msg 98 216 1;
#X obj 98 109 f 1;
#X msg 98 132 1 \$1;
#X obj 98 155 /;
#X connect 0 0 5 0;
#X connect 1 0 4 0;
#X connect 1 1 3 0;
#X connect 2 0 5 0;
#X connect 4 0 3 0;
#X connect 5 0 6 0;
#X connect 6 0 7 0;
#X connect 7 0 1 0;
#X restore 443 138 pd c2;
#N canvas 0 0 617 441 attack-release 0;
#X obj 156 286 f 50;
#X obj 194 286 f 50;
#X text 100 285 attack;
#X text 237 287 release;
#X obj 156 321 outlet;
#X obj 156 76 inlet;
#X obj 365 80 inlet;
#X obj 426 78 inlet;
#X text 361 55 attack;
#X text 427 55 release;
#X obj 247 73 inlet;
#X text 243 51 current gain;
#X obj 156 221 > 1;
#X obj 156 246 select 0 1;
#X text 154 50 target gain;
#X connect 0 0 4 0;
#X connect 1 0 4 0;
#X connect 5 0 12 0;
#X connect 6 0 0 1;
#X connect 7 0 1 1;
#X connect 10 0 12 1;
#X connect 12 0 13 0;
#X connect 13 0 0 0;
#X connect 13 1 1 0;
#X restore 216 266 pd attack-release;
#X obj 165 195 t a a a;
#X text 492 119 att;
#X text 530 119 rel;
#N canvas 0 0 450 300 a 0;
#X obj 134 69 loadbang;
#X obj 98 145 select 0;
#X obj 98 46 inlet;
#X obj 98 230 outlet;
#X msg 98 176 50;
#X obj 98 109 f 50;
#X connect 0 0 5 0;
#X connect 1 0 4 0;
#X connect 1 1 3 0;
#X connect 2 0 5 0;
#X connect 4 0 3 0;
#X connect 5 0 1 0;
#X restore 488 138 pd a;
#N canvas 0 0 450 300 r 0;
#X obj 134 69 loadbang;
#X obj 98 145 select 0;
#X obj 98 46 inlet;
#X obj 98 230 outlet;
#X msg 98 176 50;
#X obj 98 109 f 50;
#X connect 0 0 5 0;
#X connect 1 0 4 0;
#X connect 1 1 3 0;
#X connect 2 0 5 0;
#X connect 4 0 3 0;
#X connect 5 0 1 0;
#X restore 527 138 pd r;
#X obj 165 605 outlet~;
#X obj 165 95 t a b;
#X obj 196 329 snapshot~;
#X obj 165 369 line~;
#X floatatom 224 402 5 0 0 0 - - -, f 5;
#X obj 165 402 lop~ 1000;
#X obj 164 47 inlet~;
#X obj 88 514 line~;
#X obj 55 548 *~;
#X obj 88 495 pack 0 50;
#X obj 88 457 r \$0-makeup;
#X obj 181 458 loadbang;
#X msg 181 477 1;
#X obj 88 476 * 0.01;
#X obj 165 72 env~ 64;
#X obj 329 85 unpack f f f f f;
#X obj 329 47 loadbang;
#N canvas 2 109 270 227 XFADE 0;
#X obj 52 54 inlet~;
#X obj 118 54 inlet~;
#X obj 53 165 outlet~;
#X obj 177 54 inlet;
#X obj 177 94 vline~;
#X obj 117 103 -~;
#X obj 117 123 *~;
#X connect 0 0 5 1;
#X connect 0 0 2 0;
#X connect 1 0 5 0;
#X connect 3 0 4 0;
#X connect 4 0 6 1;
#X connect 5 0 6 0;
#X connect 6 0 2 0;
#X restore 55 577 pd XFADE;
#X msg 207 477 0;
#X text 440 35 rjdj - e_dynproc;
#X msg 329 66 75 1.2 1 3 50;
#X obj 245 47 inlet DRY;
#X obj 245 70 clip 0 1;
#X connect 0 0 1 0;
#X connect 1 0 4 0;
#X connect 1 0 46 1;
#X connect 2 0 0 0;
#X connect 4 0 37 0;
#X connect 5 0 16 0;
#X connect 6 0 7 0;
#X connect 7 0 32 0;
#X connect 8 0 5 0;
#X connect 10 0 12 0;
#X connect 11 0 10 1;
#X connect 16 0 24 0;
#X connect 17 0 32 0;
#X connect 20 0 16 1;
#X connect 21 0 16 2;
#X connect 22 0 16 3;
#X connect 23 0 17 1;
#X connect 24 0 17 0;
#X connect 24 1 23 0;
#X connect 24 2 10 0;
#X connect 27 0 23 2;
#X connect 28 0 23 3;
#X connect 30 0 8 0;
#X connect 30 1 31 0;
#X connect 31 0 23 1;
#X connect 32 0 31 0;
#X connect 32 0 34 0;
#X connect 33 0 34 1;
#X connect 34 0 29 0;
#X connect 34 0 4 1;
#X connect 35 0 43 0;
#X connect 36 0 37 1;
#X connect 37 0 46 0;
#X connect 38 0 36 0;
#X connect 39 0 42 0;
#X connect 40 0 41 0;
#X connect 40 0 47 0;
#X connect 41 0 38 0;
#X connect 42 0 38 0;
#X connect 43 0 30 0;
#X connect 44 0 20 0;
#X connect 44 1 21 0;
#X connect 44 2 22 0;
#X connect 44 3 27 0;
#X connect 44 4 28 0;
#X connect 45 0 49 0;
#X connect 46 0 3 0;
#X connect 47 0 46 2;
#X connect 49 0 44 0;
#X connect 50 0 51 0;
#X connect 51 0 46 2;
#X restore 133 313 pd COMPRESSOR;
#X obj 208 275 - 1;
#X obj 208 294 abs;
#X text 236 277 QUANTO MAIS FB MAIS COMRESSÃO, f 14;
#N canvas 416 332 340 518 PRE_FILTER 0;
#X obj 52 34 inlet~;
#X obj 52 478 outlet~;
#X obj 52 305 e_beequad;
#X msg 103 119 interp \$1;
#X msg 103 138 clear;
#X obj 142 287 u_lowpassq;
#X obj 142 203 * 22000;
#X obj 142 411 u_highpassq;
#X obj 52 429 e_beequad;
#X floatatom 171 382 8 0 0 0 - - -, f 8;
#X obj 142 363 * 22000;
#X obj 142 344 pow 3;
#X obj 142 184 pow 3;
#X floatatom 171 222 8 0 0 0 - - -, f 8;
#X obj 142 222 + 20;
#X obj 142 382 + 10;
#X obj 103 81 loadbang;
#X msg 103 100 10;
#X text 132 100 Interpolation time (ms);
#X text 226 222 LP FREQ;
#X text 226 382 HP FREQ;
#X msg 199 268 2;
#X obj 199 249 loadbang;
#X obj 142 165 r \$0-delLP;
#X obj 142 325 r \$0-delHP;
#X connect 0 0 2 0;
#X connect 2 0 8 0;
#X connect 3 0 2 1;
#X connect 3 0 8 1;
#X connect 4 0 2 1;
#X connect 4 0 8 1;
#X connect 5 0 2 1;
#X connect 6 0 14 0;
#X connect 7 0 8 1;
#X connect 8 0 1 0;
#X connect 10 0 15 0;
#X connect 11 0 10 0;
#X connect 12 0 6 0;
#X connect 14 0 5 0;
#X connect 14 0 13 0;
#X connect 15 0 9 0;
#X connect 15 0 7 0;
#X connect 16 0 17 0;
#X connect 17 0 3 0;
#X connect 21 0 5 1;
#X connect 21 0 7 1;
#X connect 22 0 21 0;
#X connect 23 0 12 0;
#X connect 24 0 11 0;
#X restore 58 63 pd PRE_FILTER;
#X obj 148 237 r \$0-delFB;
#X msg 156 94 clear;
#N canvas 818 548 244 348 DEL_TIME 0;
#X obj 61 153 * 4;
#X obj 61 184 moses 0.01;
#X msg 61 203 0.01;
#X obj 61 97 f;
#N canvas 98 339 199 268 SYNC 0;
#X obj 55 45 inlet;
#X obj 55 208 outlet;
#X obj 55 131 moses 0.0625;
#X text 98 46 0 - 1;
#X obj 55 74 * 16;
#X obj 55 93 int;
#X obj 55 112 * 0.0625;
#X msg 55 150 0.03125;
#X obj 55 169 f;
#X text 114 111 1 / 16;
#X connect 0 0 4 0;
#X connect 2 0 7 0;
#X connect 2 1 8 0;
#X connect 4 0 5 0;
#X connect 5 0 6 0;
#X connect 6 0 2 0;
#X connect 7 0 8 0;
#X connect 8 0 1 0;
#X restore 106 135 pd SYNC;
#N canvas 7 165 254 230 CHAVE 0;
#X obj 157 39 inlet;
#X obj 31 131 spigot 1;
#X obj 136 131 spigot 0;
#X obj 84 93 == 0;
#X obj 189 93 == 1;
#X obj 84 113 tgl 15 0 empty empty empty 17 7 0 10 -262144 -1 -1 1
1;
#X obj 189 113 tgl 15 0 empty empty empty 17 7 0 10 -262144 -1 -1 0
1;
#X obj 31 39 inlet;
#X obj 31 61 t a a;
#X obj 157 61 t f f;
#X obj 31 173 outlet;
#X obj 136 173 outlet;
#X connect 0 0 9 0;
#X connect 1 0 10 0;
#X connect 2 0 11 0;
#X connect 3 0 5 0;
#X connect 4 0 6 0;
#X connect 5 0 1 1;
#X connect 6 0 2 1;
#X connect 7 0 8 0;
#X connect 8 0 1 0;
#X connect 8 1 2 0;
#X connect 9 0 3 0;
#X connect 9 1 4 0;
#X restore 61 116 pd CHAVE;
#X obj 89 79 t b f;
#X obj 61 222 f;
#X obj 61 32 r \$0-delTime;
#X obj 89 60 r \$0-delSync;
#X obj 61 280 *;
#X obj 61 309 outlet;
#X obj 76 261 r \$1-beatMs;
#X text 74 243 DURAÇÃO DE 1 BEAT EM MS;
#X floatatom 20 240 5 0 0 0 - - -, f 5;
#X connect 0 0 1 0;
#X connect 1 0 2 0;
#X connect 1 1 7 0;
#X connect 2 0 7 0;
#X connect 3 0 5 0;
#X connect 4 0 0 0;
#X connect 5 0 0 0;
#X connect 5 1 4 0;
#X connect 6 0 3 0;
#X connect 6 1 5 1;
#X connect 7 0 10 0;
#X connect 7 0 14 0;
#X connect 8 0 3 0;
#X connect 9 0 6 0;
#X connect 10 0 11 0;
#X connect 12 0 10 1;
#X restore 58 161 pd DEL_TIME;
#X obj 58 112 delwrite~ \$0-del1 5000;
#X connect 0 0 14 0;
#X connect 1 0 2 0;
#X connect 5 0 7 0;
#X connect 5 0 4 0;
#X connect 6 0 5 0;
#X connect 7 0 10 0;
#X connect 8 0 7 1;
#X connect 9 0 8 0;
#X connect 10 0 18 0;
#X connect 11 0 12 0;
#X connect 12 0 10 2;
#X connect 14 0 10 1;
#X connect 14 0 18 0;
#X connect 15 0 11 0;
#X connect 15 0 9 0;
#X connect 16 0 18 0;
#X connect 17 0 6 0;
#X restore 54 111 pd PROCESS~;
#X obj 117 44 r \$0-delOn;
#X text 130 111 DELAY;
#X connect 0 0 5 0;
#X connect 2 0 4 0;
#X connect 2 1 3 1;
#X connect 3 0 1 0;
#X connect 4 0 5 1;
#X connect 5 0 3 0;
#X connect 6 0 2 0;
#X restore 571 396 pd DELAY~;
#X obj 274 540 throw~ \$0-DELAY;
#X obj 424 540 throw~ \$0-DELAY;
#X obj 744 607 throw~ \$0-DELAY;
#X obj 571 646 outlet~ DELAY;
#X obj 32 251 throw~ \$0-DELAY;
#X obj 183 251 throw~ \$0-DELAY;
#X obj 333 251 throw~ \$0-DELAY;
#X text 735 226 DEL;
#X obj 31 646 outlet~ A;
#X obj 101 646 outlet~ B;
#X obj 171 646 outlet~ C;
#X text 515 309 ** INCLUIR LIMITER NOS SENDS ENTRE OS EFEITOS PARA
CONTROLAR OS FEEDBACKS LOCOS - E TAMBÉM NAS SAÍDAS DIRETAS DOS EFEITOS
, f 63;
#X obj 919 101 cnv 15 400 198 empty empty empty 20 12 0 14 -232576
-66577 0;
#X obj 939 143 hsl 70 15 0 1 0 0 \$0-lpF_gui \$0-lpF_gui_set LP_F 76
8 0 10 -262144 -1 -1 6900 1;
#X obj 939 159 hsl 70 15 0 1 0 0 \$0-lpQ_gui \$0-lpQ_gui_set LP_Q 76
8 0 10 -262144 -1 -1 0 1;
#X obj 939 175 hsl 70 15 0 1 0 0 \$0-hpF_gui \$0-hpF_gui_set HP_F 76
8 0 10 -262144 -1 -1 0 1;
#X obj 939 191 hsl 70 15 0 1 0 0 \$0-hpQ_gui \$0-hpQ_gui_set HP_Q 76
8 0 10 -262144 -1 -1 0 1;
#X text 951 123 FILTERS;
#X obj 1059 159 hsl 70 15 0 1 0 0 \$0-delTime_gui \$0-delTime_gui_set
TIME 76 8 0 10 -262144 -1 -1 3450 1;
#X obj 1059 175 hsl 70 15 0 1 0 0 \$0-delFB_gui \$0-delFB_gui_set FB
76 8 0 10 -262144 -1 -1 0 1;
#X obj 1059 191 hsl 70 15 0 1 0 0 \$0-delLP_gui \$0-delLP_gui_set LP_F
76 8 0 10 -262144 -1 -1 6900 1;
#X obj 1059 207 hsl 70 15 0 1 0 0 \$0-delHP_gui \$0-delHP_gui_set HP_F
76 8 0 10 -262144 -1 -1 0 1;
#X obj 939 243 hsl 70 15 0 1 0 0 \$0-bitcr_gui \$0-bitcr_gui_set LVL
76 8 0 10 -262144 -1 -1 0 1;
#X text 942 223 BITCRUSHER;
#X text 1077 123 DELAY;
#X obj 1056 143 tgl 15 0 \$0-delSync_gui \$0-delSync_gui_set SYNC 20
7 0 10 -262144 -1 -1 0 1;
#X obj 1179 143 hsl 70 15 0 1 0 0 \$0-revPreDel_gui \$0-revPreDel_gui_set
PRE_DEL 76 8 0 10 -262144 -1 -1 0 1;
#X obj 1179 159 hsl 70 15 0 1 0 0 \$0-revBW_gui \$0-revBW_gui_set BW
76 8 0 10 -262144 -1 -1 3450 1;
#X obj 1179 175 hsl 70 15 0 1 0 0 \$0-revDamp_gui \$0-revDamp_gui_set
DAMP 76 8 0 10 -262144 -1 -1 3450 1;
#X obj 1179 191 hsl 70 15 0 1 0 0 \$0-revFB_gui \$0-revFB_gui_set FB
76 8 0 10 -262144 -1 -1 3450 1;
#X text 1193 123 REVERB;
#N canvas 45 103 1081 688 CONTROL_MEMORY 0;
#X obj 51 32 inlet EXTERNAL_CONTROL;
#X obj 51 231 route fx_0_0 fx_0_1 fx_0_2 fx_0_3;
#X obj 51 250 clip 0 1;
#X obj 111 250 clip 0 1;
#X obj 171 250 clip 0 1;
#X obj 231 250 clip 0 1;
#X obj 301 250 clip 0 1;
#X obj 361 250 clip 0 1;
#X obj 421 250 clip 0 1;
#X obj 481 250 clip 0 1;
#X obj 551 250 clip 0 1;
#X obj 611 250 clip 0 1;
#X obj 671 250 clip 0 1;
#X obj 731 250 clip 0 1;
#X obj 801 250 clip 0 1;
#X obj 861 250 clip 0 1;
#X obj 921 250 clip 0 1;
#X obj 981 250 clip 0 1;
#X obj 301 231 route fx_1_0 fx_1_1 fx_1_2 fx_1_3;
#X obj 551 231 route fx_2_0 fx_2_1 fx_2_2 fx_2_3;
#X obj 801 231 route fx_3_0 fx_3_1 fx_3_2 fx_3_3;
#X obj 51 394 clip 0 1;
#X obj 111 394 clip 0 1;
#X obj 171 394 clip 0 1;
#X obj 301 394 clip 0 1;
#X obj 361 394 clip 0 1;
#X obj 421 394 clip 0 1;
#X obj 551 394 clip 0 1;
#X obj 611 394 clip 0 1;
#X obj 671 394 clip 0 1;
#X obj 801 394 clip 0 1;
#X obj 861 394 clip 0 1;
#X obj 921 394 clip 0 1;
#X obj 51 375 route fxfb_0_1 fxfb_0_2 fxfb_0_3;
#X obj 301 375 route fxfb_1_0 fxfb_1_2 fxfb_1_3;
#X obj 551 375 route fxfb_2_0 fxfb_2_1 fxfb_2_3;
#X obj 801 375 route fxfb_3_0 fxfb_3_1 fxfb_3_2;
#X obj 51 519 clip 0 1;
#X obj 111 519 clip 0 1;
#X obj 171 519 clip 0 1;
#X obj 231 519 clip 0 1;
#X obj 51 500 route filtOn bitcrOn delOn revOn;
#X obj 51 538 int;
#X obj 111 538 int;
#X obj 171 538 int;
#X obj 231 538 int;
#X obj 466 557 loadbang;
#X obj 466 576 f \$0;
#X msg 466 595 \$1-memo;
#X obj 552 563 s \$0-memo-load;
#X obj 436 557 t b;
#X obj 552 544 r \$1-memo-load;
#X obj 436 538 r \$1-memo-get;
#X obj 466 614 s \$1-memo-arrays;
#X text 550 583 ATUALIZA COM VALORES DA MEMÓRIA;
#X text 464 634 ENVIA NOME DO ARRAY LOCAL PARA GERENCIADOR NO PAI;
#X text 549 519 ARRAY DE MEMÓRIA LOCAL;
#X obj 51 80 clip 0 1;
#X obj 104 80 clip 0 1;
#X obj 157 80 clip 0 1;
#X obj 210 80 clip 0 1;
#X obj 51 61 route lpF lpQ hpF hpQ;
#X obj 501 80 clip 0 1;
#X obj 554 80 clip 0 1;
#X obj 607 80 clip 0 1;
#X obj 660 80 clip 0 1;
#X obj 281 80 clip 0 1;
#X obj 281 61 route bitcr;
#X obj 501 61 route delSync delTime delFB delLP delHP;
#X obj 713 80 clip 0 1;
#X obj 501 99 int;
#X obj 791 80 clip 0 1;
#X obj 844 80 clip 0 1;
#X obj 897 80 clip 0 1;
#X obj 950 80 clip 0 1;
#X obj 791 61 route revPreDel revBW revDamp revFB;
#X obj 551 499 array define \$0-memo 46;
#X obj 51 109 bit_param \$0 lpF \$0-memo 0 1 \$2;
#X obj 281 109 bit_param \$0 bitcr \$0-memo 4 0 \$2;
#X obj 501 118 bit_param \$0 delSync \$0-memo 5 0 \$2;
#X obj 501 137 bit_param \$0 delTime \$0-memo 6 0.5 \$2;
#X obj 501 156 bit_param \$0 delFB \$0-memo 7 0 \$2;
#X obj 501 194 bit_param \$0 delHP \$0-memo 9 0 \$2;
#X obj 501 175 bit_param \$0 delLP \$0-memo 8 1 \$2;
#X obj 791 109 bit_param \$0 revPreDel \$0-memo 10 0 \$2;
#X obj 791 128 bit_param \$0 revBW \$0-memo 11 0.5 \$2;
#X obj 791 147 bit_param \$0 revDamp \$0-memo 12 0.5 \$2;
#X obj 791 166 bit_param \$0 revFB \$0-memo 13 0.5 \$2;
#X obj 51 279 bit_param \$0 fx_0_0 \$0-memo 14 0 \$2;
#X obj 51 298 bit_param \$0 fx_0_1 \$0-memo 15 0 \$2;
#X obj 51 317 bit_param \$0 fx_0_2 \$0-memo 16 0 \$2;
#X obj 51 336 bit_param \$0 fx_0_3 \$0-memo 17 0 \$2;
#X obj 301 279 bit_param \$0 fx_1_0 \$0-memo 18 0 \$2;
#X obj 301 298 bit_param \$0 fx_1_1 \$0-memo 19 0 \$2;
#X obj 301 317 bit_param \$0 fx_1_2 \$0-memo 20 0 \$2;
#X obj 301 336 bit_param \$0 fx_1_3 \$0-memo 21 0 \$2;
#X obj 551 279 bit_param \$0 fx_2_0 \$0-memo 22 0 \$2;
#X obj 551 298 bit_param \$0 fx_2_1 \$0-memo 23 0 \$2;
#X obj 551 317 bit_param \$0 fx_2_2 \$0-memo 24 0 \$2;
#X obj 551 336 bit_param \$0 fx_2_3 \$0-memo 25 0 \$2;
#X obj 801 279 bit_param \$0 fx_3_0 \$0-memo 26 0 \$2;
#X obj 801 298 bit_param \$0 fx_3_1 \$0-memo 27 0 \$2;
#X obj 801 317 bit_param \$0 fx_3_2 \$0-memo 28 0 \$2;
#X obj 801 336 bit_param \$0 fx_3_3 \$0-memo 29 0 \$2;
#X obj 51 423 bit_param \$0 fxfb_0_1 \$0-memo 30 0 \$2;
#X obj 51 442 bit_param \$0 fxfb_0_2 \$0-memo 31 0 \$2;
#X obj 51 461 bit_param \$0 fxfb_0_3 \$0-memo 32 0 \$2;
#X obj 301 423 bit_param \$0 fxfb_1_0 \$0-memo 33 0 \$2;
#X obj 301 442 bit_param \$0 fxfb_1_2 \$0-memo 34 0 \$2;
#X obj 301 461 bit_param \$0 fxfb_1_3 \$0-memo 35 0 \$2;
#X obj 551 423 bit_param \$0 fxfb_2_0 \$0-memo 36 0 \$2;
#X obj 551 442 bit_param \$0 fxfb_2_1 \$0-memo 37 0 \$2;
#X obj 551 460 bit_param \$0 fxfb_2_3 \$0-memo 38 0 \$2;
#X obj 801 423 bit_param \$0 fxfb_3_0 \$0-memo 39 0 \$2;
#X obj 801 442 bit_param \$0 fxfb_3_1 \$0-memo 40 0 \$2;
#X obj 801 461 bit_param \$0 fxfb_3_2 \$0-memo 41 0 \$2;
#X obj 51 567 bit_param \$0 filtOn \$0-memo 42 1 \$2;
#X obj 51 586 bit_param \$0 bitcrOn \$0-memo 43 1 \$2;
#X obj 51 605 bit_param \$0 delOn \$0-memo 44 1 \$2;
#X obj 51 624 bit_param \$0 revOn \$0-memo 45 1 \$2;
#X obj 51 128 bit_param \$0 lpQ \$0-memo 1 0 \$2;
#X obj 51 147 bit_param \$0 hpF \$0-memo 2 0 \$2;
#X obj 51 166 bit_param \$0 hpQ \$0-memo 3 0 \$2;
#X connect 0 0 61 0;
#X connect 1 0 2 0;
#X connect 1 1 3 0;
#X connect 1 2 4 0;
#X connect 1 3 5 0;
#X connect 1 4 18 0;
#X connect 2 0 88 0;
#X connect 3 0 89 0;
#X connect 4 0 90 0;
#X connect 5 0 91 0;
#X connect 6 0 92 0;
#X connect 7 0 93 0;
#X connect 8 0 94 0;
#X connect 9 0 95 0;
#X connect 10 0 96 0;
#X connect 11 0 97 0;
#X connect 12 0 98 0;
#X connect 13 0 99 0;
#X connect 14 0 100 0;
#X connect 15 0 101 0;
#X connect 16 0 102 0;
#X connect 17 0 103 0;
#X connect 18 0 6 0;
#X connect 18 1 7 0;
#X connect 18 2 8 0;
#X connect 18 3 9 0;
#X connect 18 4 19 0;
#X connect 19 0 10 0;
#X connect 19 1 11 0;
#X connect 19 2 12 0;
#X connect 19 3 13 0;
#X connect 19 4 20 0;
#X connect 20 0 14 0;
#X connect 20 1 15 0;
#X connect 20 2 16 0;
#X connect 20 3 17 0;
#X connect 20 4 33 0;
#X connect 21 0 104 0;
#X connect 22 0 105 0;
#X connect 23 0 106 0;
#X connect 24 0 107 0;
#X connect 25 0 108 0;
#X connect 26 0 109 0;
#X connect 27 0 110 0;
#X connect 28 0 111 0;
#X connect 29 0 112 0;
#X connect 30 0 113 0;
#X connect 31 0 114 0;
#X connect 32 0 115 0;
#X connect 33 0 21 0;
#X connect 33 1 22 0;
#X connect 33 2 23 0;
#X connect 33 3 34 0;
#X connect 34 0 24 0;
#X connect 34 1 25 0;
#X connect 34 2 26 0;
#X connect 34 3 35 0;
#X connect 35 0 27 0;
#X connect 35 1 28 0;
#X connect 35 2 29 0;
#X connect 35 3 36 0;
#X connect 36 0 30 0;
#X connect 36 1 31 0;
#X connect 36 2 32 0;
#X connect 36 3 41 0;
#X connect 37 0 42 0;
#X connect 38 0 43 0;
#X connect 39 0 44 0;
#X connect 40 0 45 0;
#X connect 41 0 37 0;
#X connect 41 1 38 0;
#X connect 41 2 39 0;
#X connect 41 3 40 0;
#X connect 42 0 116 0;
#X connect 43 0 117 0;
#X connect 44 0 118 0;
#X connect 45 0 119 0;
#X connect 46 0 47 0;
#X connect 47 0 48 0;
#X connect 48 0 53 0;
#X connect 50 0 47 0;
#X connect 51 0 49 0;
#X connect 52 0 50 0;
#X connect 57 0 77 0;
#X connect 58 0 120 0;
#X connect 59 0 121 0;
#X connect 60 0 122 0;
#X connect 61 0 57 0;
#X connect 61 1 58 0;
#X connect 61 2 59 0;
#X connect 61 3 60 0;
#X connect 61 4 67 0;
#X connect 62 0 70 0;
#X connect 63 0 80 0;
#X connect 64 0 81 0;
#X connect 65 0 83 0;
#X connect 66 0 78 0;
#X connect 67 0 66 0;
#X connect 67 1 68 0;
#X connect 68 0 62 0;
#X connect 68 1 63 0;
#X connect 68 2 64 0;
#X connect 68 3 65 0;
#X connect 68 4 69 0;
#X connect 68 5 75 0;
#X connect 69 0 82 0;
#X connect 70 0 79 0;
#X connect 71 0 84 0;
#X connect 72 0 85 0;
#X connect 73 0 86 0;
#X connect 74 0 87 0;
#X connect 75 0 71 0;
#X connect 75 1 72 0;
#X connect 75 2 73 0;
#X connect 75 3 74 0;
#X connect 75 4 1 0;
#X restore 500 69 pd CONTROL_MEMORY;
#X obj 500 40 inlet EXTERNAL_CONTROL;
#X obj 709 69 switch~ 64 1 1;
#X obj 709 31 loadbang;
#X msg 709 50 1;
#X text 737 50 FORÇA BLOCO;
#X connect 0 0 6 0;
#X connect 0 0 11 0;
#X connect 0 0 12 0;
#X connect 0 0 13 0;
#X connect 0 0 126 0;
#X connect 1 0 54 0;
#X connect 2 0 98 0;
#X connect 3 0 99 0;
#X connect 6 0 4 0;
#X connect 7 0 6 1;
#X connect 11 0 14 0;
#X connect 12 0 122 0;
#X connect 13 0 15 0;
#X connect 16 0 11 1;
#X connect 17 0 12 1;
#X connect 18 0 13 1;
#X connect 21 0 19 0;
#X connect 25 0 28 0;
#X connect 26 0 123 0;
#X connect 27 0 29 0;
#X connect 32 0 30 0;
#X connect 36 0 39 0;
#X connect 37 0 124 0;
#X connect 38 0 40 0;
#X connect 41 0 21 0;
#X connect 41 0 25 0;
#X connect 41 0 26 0;
#X connect 41 0 27 0;
#X connect 41 0 127 0;
#X connect 42 0 32 0;
#X connect 42 0 36 0;
#X connect 42 0 37 0;
#X connect 42 0 38 0;
#X connect 42 0 128 0;
#X connect 43 0 21 1;
#X connect 44 0 25 1;
#X connect 45 0 26 1;
#X connect 46 0 27 1;
#X connect 47 0 32 1;
#X connect 48 0 36 1;
#X connect 49 0 37 1;
#X connect 50 0 38 1;
#X connect 54 0 60 0;
#X connect 54 0 64 0;
#X connect 55 0 58 0;
#X connect 56 0 118 0;
#X connect 57 0 59 0;
#X connect 60 0 55 0;
#X connect 60 0 56 0;
#X connect 60 0 57 0;
#X connect 61 0 55 1;
#X connect 62 0 56 1;
#X connect 63 0 57 1;
#X connect 84 0 103 0;
#X connect 85 0 119 0;
#X connect 86 0 87 0;
#X connect 88 0 84 0;
#X connect 88 0 85 0;
#X connect 88 0 86 0;
#X connect 89 0 108 0;
#X connect 90 0 107 0;
#X connect 91 0 92 0;
#X connect 93 0 89 0;
#X connect 93 0 90 0;
#X connect 93 0 91 0;
#X connect 94 0 112 0;
#X connect 95 0 113 0;
#X connect 96 0 120 0;
#X connect 97 0 94 0;
#X connect 97 0 95 0;
#X connect 97 0 96 0;
#X connect 98 0 88 0;
#X connect 98 0 114 0;
#X connect 99 0 97 0;
#X connect 99 0 115 0;
#X connect 100 0 84 1;
#X connect 101 0 85 1;
#X connect 102 0 86 1;
#X connect 104 0 89 1;
#X connect 105 0 90 1;
#X connect 106 0 91 1;
#X connect 109 0 94 1;
#X connect 110 0 95 1;
#X connect 111 0 96 1;
#X connect 116 0 117 0;
#X connect 117 0 93 0;
#X connect 117 0 121 0;
#X connect 150 0 149 0;
#X connect 152 0 153 0;
#X connect 153 0 151 0;
#X coords 0 -1 1 1 820 200 1 500 100;
