#N canvas 2 350 1424 467 10;
#X obj 32 30 inlet RENDER_CHAIN;
#X obj 152 243 loadbang;
#N canvas 2 133 466 243 POS_SIZE 0;
#X msg 40 143 posX \$1;
#X msg 163 143 posY \$1;
#X msg 286 143 sizeX \$1;
#X msg 359 143 sizeY \$1;
#X obj 40 182 outlet CONTROLS;
#X obj 286 105 r \$0-h_button;
#X obj 331 41 inlet ID;
#X obj 331 60 t f;
#X obj 163 124 r \$0-h_offset;
#X obj 125 41 r \$0-w_offset;
#X obj 125 96 +;
#X obj 228 78 *;
#X obj 40 41 r \$1-width;
#X obj 40 60 * 0.125;
#X obj 40 114 +;
#X obj 228 41 r \$0-w_main/6;
#X obj 286 124 t f f;
#X connect 0 0 4 0;
#X connect 1 0 4 0;
#X connect 2 0 4 0;
#X connect 3 0 4 0;
#X connect 5 0 16 0;
#X connect 6 0 7 0;
#X connect 7 0 11 1;
#X connect 8 0 1 0;
#X connect 9 0 10 0;
#X connect 10 0 14 1;
#X connect 11 0 10 1;
#X connect 12 0 13 0;
#X connect 13 0 14 0;
#X connect 14 0 0 0;
#X connect 15 0 11 0;
#X connect 16 0 2 0;
#X connect 16 1 3 0;
#X restore 152 299 pd POS_SIZE;
#X msg 152 280 0;
#X obj 175 30 r \$1-h_tracks;
#X text 266 30 RECEBE ALTURA DAS TRACKS;
#X obj 495 30 r \$1-w_main;
#X text 574 30 RECEBE LARGURA DA ÁREA PRINCIPAL;
#X text 311 106 ENVIA LOCALMENTE;
#X obj 495 105 -;
#X obj 495 124 / 2;
#X text 586 143 DESLOCAMENTO X RELATIVO À SUB-ÁREA;
#X text 643 97 TAMANHO DA SUB-ÁREA;
#X obj 495 143 s \$0-w_offset;
#X obj 221 106 s \$0-h_button;
#X obj 175 49 t f f;
#X obj 175 105 -;
#X obj 175 124 / 2;
#X obj 175 143 s \$0-h_offset;
#X text 266 143 DESLOCAMENTO Y RELATIVO À PISTA;
#X msg 1303 281 touch \$1;
#X obj 495 59 / 6;
#X text 525 59 6 SUB-ÁREAS;
#X obj 552 97 s \$0-w_main/6;
#X obj 1303 300 t a a a a a a;
#X obj 32 200 t b b b b b b;
#N canvas 621 188 567 300 INTERACTION 0;
#X obj 45 42 inlet TOUCH_RELEASE;
#X obj 199 186 f 0;
#X obj 199 205 == 0;
#X obj 45 243 outlet VALUE;
#X obj 214 42 inlet COLD_VALUE;
#X text 230 186 ARMAZENA VALOR ATUAL;
#X text 130 243 ATUALIZA VALOR DO OBJETO;
#X obj 199 167 sel 1;
#X obj 45 108 spigot 1;
#X obj 90 89 == 0;
#X obj 199 108 spigot;
#X obj 45 71 t f f;
#X text 57 129 MODO MOMENTÂNEO - FUNCIONA ENQUANTO PRESSIONADO, f
17;
#X text 235 205 INVERTE VALOR;
#X text 210 129 MODO CHAVE - ALTERNA ENTRE LIGADO E DESLIGADO, f 24
;
#X obj 354 42 r \$0-mode;
#X text 352 19 MODO MOMENTÂNEO / CHAVE;
#X msg 393 225 0;
#X text 403 172 DESLIGA QUANDO MUDA PARA MOMENTÂNEO, f 19;
#X obj 354 71 t f f f;
#X obj 393 206 sel 0;
#X connect 0 0 11 0;
#X connect 1 0 2 0;
#X connect 2 0 3 0;
#X connect 4 0 1 1;
#X connect 7 0 1 0;
#X connect 8 0 3 0;
#X connect 9 0 8 1;
#X connect 10 0 7 0;
#X connect 11 0 8 0;
#X connect 11 1 10 0;
#X connect 15 0 19 0;
#X connect 17 0 3 0;
#X connect 19 0 9 0;
#X connect 19 1 10 1;
#X connect 19 2 20 0;
#X connect 20 0 17 0;
#X restore 279 337 pd INTERACTION;
#N canvas 621 188 366 297 INTERACTION_MODE 0;
#X obj 45 35 inlet TOUCH_RELEASE;
#X obj 45 126 f 0;
#X obj 45 145 == 0;
#X obj 214 35 inlet COLD_VALUE;
#X text 76 126 ARMAZENA VALOR ATUAL;
#X obj 45 107 sel 1;
#X text 81 145 INVERTE VALOR;
#X text 56 69 MODO CHAVE - ALTERNA ENTRE LIGADO E DESLIGADO, f 24
;
#X obj 72 193 s \$0-mode;
#X text 138 193 ENVIA MODO (MOMENTÂNEO / CHAVE) PARA DEMAIS SELETORES
, f 31;
#X obj 45 164 t f f;
#X obj 45 242 outlet VALUE;
#X text 130 243 ATUALIZA VALOR DO OBJETO;
#X connect 0 0 5 0;
#X connect 1 0 2 0;
#X connect 2 0 10 0;
#X connect 3 0 1 1;
#X connect 5 0 1 0;
#X connect 10 0 11 0;
#X connect 10 1 8 0;
#X restore 1136 337 pd INTERACTION_MODE;
#N canvas 621 188 567 300 INTERACTION 0;
#X obj 45 42 inlet TOUCH_RELEASE;
#X obj 199 186 f 0;
#X obj 199 205 == 0;
#X obj 45 243 outlet VALUE;
#X obj 214 42 inlet COLD_VALUE;
#X text 230 186 ARMAZENA VALOR ATUAL;
#X text 130 243 ATUALIZA VALOR DO OBJETO;
#X obj 199 167 sel 1;
#X obj 45 108 spigot 1;
#X obj 90 89 == 0;
#X obj 199 108 spigot;
#X obj 45 71 t f f;
#X text 57 129 MODO MOMENTÂNEO - FUNCIONA ENQUANTO PRESSIONADO, f
17;
#X text 235 205 INVERTE VALOR;
#X text 210 129 MODO CHAVE - ALTERNA ENTRE LIGADO E DESLIGADO, f 24
;
#X obj 354 42 r \$0-mode;
#X text 352 19 MODO MOMENTÂNEO / CHAVE;
#X msg 393 225 0;
#X text 403 172 DESLIGA QUANDO MUDA PARA MOMENTÂNEO, f 19;
#X obj 354 71 t f f f;
#X obj 393 206 sel 0;
#X connect 0 0 11 0;
#X connect 1 0 2 0;
#X connect 2 0 3 0;
#X connect 4 0 1 1;
#X connect 7 0 1 0;
#X connect 8 0 3 0;
#X connect 9 0 8 1;
#X connect 10 0 7 0;
#X connect 11 0 8 0;
#X connect 11 1 10 0;
#X connect 15 0 19 0;
#X connect 17 0 3 0;
#X connect 19 0 9 0;
#X connect 19 1 10 1;
#X connect 19 2 20 0;
#X connect 20 0 17 0;
#X restore 490 337 pd INTERACTION;
#N canvas 621 188 567 300 INTERACTION 0;
#X obj 45 42 inlet TOUCH_RELEASE;
#X obj 199 186 f 0;
#X obj 199 205 == 0;
#X obj 45 243 outlet VALUE;
#X obj 214 42 inlet COLD_VALUE;
#X text 230 186 ARMAZENA VALOR ATUAL;
#X text 130 243 ATUALIZA VALOR DO OBJETO;
#X obj 199 167 sel 1;
#X obj 45 108 spigot 1;
#X obj 90 89 == 0;
#X obj 199 108 spigot;
#X obj 45 71 t f f;
#X text 57 129 MODO MOMENTÂNEO - FUNCIONA ENQUANTO PRESSIONADO, f
17;
#X text 235 205 INVERTE VALOR;
#X text 210 129 MODO CHAVE - ALTERNA ENTRE LIGADO E DESLIGADO, f 24
;
#X obj 354 42 r \$0-mode;
#X text 352 19 MODO MOMENTÂNEO / CHAVE;
#X msg 393 225 0;
#X text 403 172 DESLIGA QUANDO MUDA PARA MOMENTÂNEO, f 19;
#X obj 354 71 t f f f;
#X obj 393 206 sel 0;
#X connect 0 0 11 0;
#X connect 1 0 2 0;
#X connect 2 0 3 0;
#X connect 4 0 1 1;
#X connect 7 0 1 0;
#X connect 8 0 3 0;
#X connect 9 0 8 1;
#X connect 10 0 7 0;
#X connect 11 0 8 0;
#X connect 11 1 10 0;
#X connect 15 0 19 0;
#X connect 17 0 3 0;
#X connect 19 0 9 0;
#X connect 19 1 10 1;
#X connect 19 2 20 0;
#X connect 20 0 17 0;
#X restore 702 337 pd INTERACTION;
#N canvas 621 188 567 300 INTERACTION 0;
#X obj 45 42 inlet TOUCH_RELEASE;
#X obj 199 186 f 0;
#X obj 199 205 == 0;
#X obj 45 243 outlet VALUE;
#X obj 214 42 inlet COLD_VALUE;
#X text 230 186 ARMAZENA VALOR ATUAL;
#X text 130 243 ATUALIZA VALOR DO OBJETO;
#X obj 199 167 sel 1;
#X obj 45 108 spigot 1;
#X obj 90 89 == 0;
#X obj 199 108 spigot;
#X obj 45 71 t f f;
#X text 57 129 MODO MOMENTÂNEO - FUNCIONA ENQUANTO PRESSIONADO, f
17;
#X text 235 205 INVERTE VALOR;
#X text 210 129 MODO CHAVE - ALTERNA ENTRE LIGADO E DESLIGADO, f 24
;
#X obj 354 42 r \$0-mode;
#X text 352 19 MODO MOMENTÂNEO / CHAVE;
#X msg 393 225 0;
#X text 403 172 DESLIGA QUANDO MUDA PARA MOMENTÂNEO, f 19;
#X obj 354 71 t f f f;
#X obj 393 206 sel 0;
#X connect 0 0 11 0;
#X connect 1 0 2 0;
#X connect 2 0 3 0;
#X connect 4 0 1 1;
#X connect 7 0 1 0;
#X connect 8 0 3 0;
#X connect 9 0 8 1;
#X connect 10 0 7 0;
#X connect 11 0 8 0;
#X connect 11 1 10 0;
#X connect 15 0 19 0;
#X connect 17 0 3 0;
#X connect 19 0 9 0;
#X connect 19 1 10 1;
#X connect 19 2 20 0;
#X connect 20 0 17 0;
#X restore 919 337 pd INTERACTION;
#N canvas 621 188 567 300 INTERACTION 0;
#X obj 45 42 inlet TOUCH_RELEASE;
#X obj 199 186 f 0;
#X obj 199 205 == 0;
#X obj 45 243 outlet VALUE;
#X obj 214 42 inlet COLD_VALUE;
#X text 230 186 ARMAZENA VALOR ATUAL;
#X text 130 243 ATUALIZA VALOR DO OBJETO;
#X obj 199 167 sel 1;
#X obj 45 108 spigot 1;
#X obj 90 89 == 0;
#X obj 199 108 spigot;
#X obj 45 71 t f f;
#X text 57 129 MODO MOMENTÂNEO - FUNCIONA ENQUANTO PRESSIONADO, f
17;
#X text 235 205 INVERTE VALOR;
#X text 210 129 MODO CHAVE - ALTERNA ENTRE LIGADO E DESLIGADO, f 24
;
#X obj 354 42 r \$0-mode;
#X text 352 19 MODO MOMENTÂNEO / CHAVE;
#X msg 393 225 0;
#X text 403 172 DESLIGA QUANDO MUDA PARA MOMENTÂNEO, f 19;
#X obj 354 71 t f f f;
#X obj 393 206 sel 0;
#X connect 0 0 11 0;
#X connect 1 0 2 0;
#X connect 2 0 3 0;
#X connect 4 0 1 1;
#X connect 7 0 1 0;
#X connect 8 0 3 0;
#X connect 9 0 8 1;
#X connect 10 0 7 0;
#X connect 11 0 8 0;
#X connect 11 1 10 0;
#X connect 15 0 19 0;
#X connect 17 0 3 0;
#X connect 19 0 9 0;
#X connect 19 1 10 1;
#X connect 19 2 20 0;
#X connect 20 0 17 0;
#X restore 68 337 pd INTERACTION;
#N canvas 2 133 466 243 POS_SIZE 0;
#X msg 40 143 posX \$1;
#X msg 163 143 posY \$1;
#X msg 286 143 sizeX \$1;
#X msg 359 143 sizeY \$1;
#X obj 40 182 outlet CONTROLS;
#X obj 286 105 r \$0-h_button;
#X obj 331 41 inlet ID;
#X obj 331 60 t f;
#X obj 163 124 r \$0-h_offset;
#X obj 125 41 r \$0-w_offset;
#X obj 125 96 +;
#X obj 228 78 *;
#X obj 40 41 r \$1-width;
#X obj 40 60 * 0.125;
#X obj 40 114 +;
#X obj 228 41 r \$0-w_main/6;
#X obj 286 124 t f f;
#X connect 0 0 4 0;
#X connect 1 0 4 0;
#X connect 2 0 4 0;
#X connect 3 0 4 0;
#X connect 5 0 16 0;
#X connect 6 0 7 0;
#X connect 7 0 11 1;
#X connect 8 0 1 0;
#X connect 9 0 10 0;
#X connect 10 0 14 1;
#X connect 11 0 10 1;
#X connect 12 0 13 0;
#X connect 13 0 14 0;
#X connect 14 0 0 0;
#X connect 15 0 11 0;
#X connect 16 0 2 0;
#X connect 16 1 3 0;
#X restore 363 299 pd POS_SIZE;
#N canvas 2 133 466 243 POS_SIZE 0;
#X msg 40 143 posX \$1;
#X msg 163 143 posY \$1;
#X msg 286 143 sizeX \$1;
#X msg 359 143 sizeY \$1;
#X obj 40 182 outlet CONTROLS;
#X obj 286 105 r \$0-h_button;
#X obj 331 41 inlet ID;
#X obj 331 60 t f;
#X obj 163 124 r \$0-h_offset;
#X obj 125 41 r \$0-w_offset;
#X obj 125 96 +;
#X obj 228 78 *;
#X obj 40 41 r \$1-width;
#X obj 40 60 * 0.125;
#X obj 40 114 +;
#X obj 228 41 r \$0-w_main/6;
#X obj 286 124 t f f;
#X connect 0 0 4 0;
#X connect 1 0 4 0;
#X connect 2 0 4 0;
#X connect 3 0 4 0;
#X connect 5 0 16 0;
#X connect 6 0 7 0;
#X connect 7 0 11 1;
#X connect 8 0 1 0;
#X connect 9 0 10 0;
#X connect 10 0 14 1;
#X connect 11 0 10 1;
#X connect 12 0 13 0;
#X connect 13 0 14 0;
#X connect 14 0 0 0;
#X connect 15 0 11 0;
#X connect 16 0 2 0;
#X connect 16 1 3 0;
#X restore 574 299 pd POS_SIZE;
#N canvas 2 133 466 243 POS_SIZE 0;
#X msg 40 143 posX \$1;
#X msg 163 143 posY \$1;
#X msg 286 143 sizeX \$1;
#X msg 359 143 sizeY \$1;
#X obj 40 182 outlet CONTROLS;
#X obj 286 105 r \$0-h_button;
#X obj 331 41 inlet ID;
#X obj 331 60 t f;
#X obj 163 124 r \$0-h_offset;
#X obj 125 41 r \$0-w_offset;
#X obj 125 96 +;
#X obj 228 78 *;
#X obj 40 41 r \$1-width;
#X obj 40 60 * 0.125;
#X obj 40 114 +;
#X obj 228 41 r \$0-w_main/6;
#X obj 286 124 t f f;
#X connect 0 0 4 0;
#X connect 1 0 4 0;
#X connect 2 0 4 0;
#X connect 3 0 4 0;
#X connect 5 0 16 0;
#X connect 6 0 7 0;
#X connect 7 0 11 1;
#X connect 8 0 1 0;
#X connect 9 0 10 0;
#X connect 10 0 14 1;
#X connect 11 0 10 1;
#X connect 12 0 13 0;
#X connect 13 0 14 0;
#X connect 14 0 0 0;
#X connect 15 0 11 0;
#X connect 16 0 2 0;
#X connect 16 1 3 0;
#X restore 791 299 pd POS_SIZE;
#N canvas 2 133 466 243 POS_SIZE 0;
#X msg 40 143 posX \$1;
#X msg 163 143 posY \$1;
#X msg 286 143 sizeX \$1;
#X msg 359 143 sizeY \$1;
#X obj 40 182 outlet CONTROLS;
#X obj 286 105 r \$0-h_button;
#X obj 331 41 inlet ID;
#X obj 331 60 t f;
#X obj 163 124 r \$0-h_offset;
#X obj 125 41 r \$0-w_offset;
#X obj 125 96 +;
#X obj 228 78 *;
#X obj 40 41 r \$1-width;
#X obj 40 60 * 0.125;
#X obj 40 114 +;
#X obj 228 41 r \$0-w_main/6;
#X obj 286 124 t f f;
#X connect 0 0 4 0;
#X connect 1 0 4 0;
#X connect 2 0 4 0;
#X connect 3 0 4 0;
#X connect 5 0 16 0;
#X connect 6 0 7 0;
#X connect 7 0 11 1;
#X connect 8 0 1 0;
#X connect 9 0 10 0;
#X connect 10 0 14 1;
#X connect 11 0 10 1;
#X connect 12 0 13 0;
#X connect 13 0 14 0;
#X connect 14 0 0 0;
#X connect 15 0 11 0;
#X connect 16 0 2 0;
#X connect 16 1 3 0;
#X restore 1008 299 pd POS_SIZE;
#N canvas 2 133 466 243 POS_SIZE 0;
#X msg 40 143 posX \$1;
#X msg 163 143 posY \$1;
#X msg 286 143 sizeX \$1;
#X msg 359 143 sizeY \$1;
#X obj 40 182 outlet CONTROLS;
#X obj 286 105 r \$0-h_button;
#X obj 331 41 inlet ID;
#X obj 331 60 t f;
#X obj 163 124 r \$0-h_offset;
#X obj 125 41 r \$0-w_offset;
#X obj 125 96 +;
#X obj 228 78 *;
#X obj 40 41 r \$1-width;
#X obj 40 60 * 0.125;
#X obj 40 114 +;
#X obj 228 41 r \$0-w_main/6;
#X obj 286 124 t f f;
#X connect 0 0 4 0;
#X connect 1 0 4 0;
#X connect 2 0 4 0;
#X connect 3 0 4 0;
#X connect 5 0 16 0;
#X connect 6 0 7 0;
#X connect 7 0 11 1;
#X connect 8 0 1 0;
#X connect 9 0 10 0;
#X connect 10 0 14 1;
#X connect 11 0 10 1;
#X connect 12 0 13 0;
#X connect 13 0 14 0;
#X connect 14 0 0 0;
#X connect 15 0 11 0;
#X connect 16 0 2 0;
#X connect 16 1 3 0;
#X restore 1219 299 pd POS_SIZE;
#X msg 363 280 1;
#X msg 574 280 2;
#X msg 791 280 3;
#X msg 1008 280 4;
#X msg 1219 280 5;
#X obj 152 262 t b b b b b b;
#X obj 202 87 t f f f;
#X obj 495 78 t f f;
#X obj 202 68 * 0.65;
#X text 251 68 ALTURA DOS BOTÕES OPERADORES;
#X obj 524 202 inlet RANDOM;
#X obj 611 202 inlet PATTERN;
#X obj 704 202 inlet FREEZE;
#X obj 791 202 inlet INVERT_RANGE;
#X obj 914 202 inlet INVERT_SLICE;
#X obj 1037 202 inlet TOGGLE;
#X obj 524 412 outlet RANDOM;
#X obj 611 412 outlet PATTERN;
#X obj 704 412 outlet FREEZE;
#X obj 791 412 outlet INVERT_RANGE;
#X obj 914 412 outlet INVERT_SLICE;
#X obj 1037 412 outlet TOGGLE;
#X obj 32 318 gui_button \$1 0 0 1 1 0 0 1 4 0;
#X obj 243 318 gui_button \$1 0 0 1 1 0 0 1 6 0;
#X obj 665 318 gui_button \$1 0 0 1 1 0 0 1 10 0;
#X obj 882 318 gui_button \$1 0 0 1 1 0 0 1 12 0;
#X obj 1099 318 gui_button \$1 0 0 1 1 0 0 1 14 0;
#X obj 454 318 gui_button \$1 0 0 1 1 0 0 1 8 0;
#X obj 215 337 t f f;
#X obj 426 337 t f f;
#X obj 637 337 t f f;
#X obj 854 337 t f f;
#X obj 1071 337 t f f;
#X obj 1288 337 t f f;
#X obj 1189 43 r \$1-mainState;
#X text 1186 20 CONTROLE DE TOQUE;
#X obj 1313 53 t b f;
#X obj 1189 72 &&;
#X obj 1313 30 inlet TOUCH;
#X connect 0 0 25 0;
#X connect 1 0 42 0;
#X connect 2 0 59 3;
#X connect 3 0 2 0;
#X connect 4 0 15 0;
#X connect 6 0 21 0;
#X connect 9 0 10 0;
#X connect 10 0 13 0;
#X connect 15 0 16 0;
#X connect 15 1 45 0;
#X connect 16 0 17 0;
#X connect 17 0 18 0;
#X connect 20 0 24 0;
#X connect 21 0 44 0;
#X connect 24 0 59 3;
#X connect 24 1 60 3;
#X connect 24 2 64 3;
#X connect 24 3 61 3;
#X connect 24 4 62 3;
#X connect 24 5 63 3;
#X connect 25 0 59 0;
#X connect 25 1 60 0;
#X connect 25 2 64 0;
#X connect 25 3 61 0;
#X connect 25 4 62 0;
#X connect 25 5 63 0;
#X connect 26 0 60 2;
#X connect 27 0 63 2;
#X connect 28 0 64 2;
#X connect 29 0 61 2;
#X connect 30 0 62 2;
#X connect 31 0 59 2;
#X connect 32 0 60 3;
#X connect 33 0 64 3;
#X connect 34 0 61 3;
#X connect 35 0 62 3;
#X connect 36 0 63 3;
#X connect 37 0 32 0;
#X connect 38 0 33 0;
#X connect 39 0 34 0;
#X connect 40 0 35 0;
#X connect 41 0 36 0;
#X connect 42 0 3 0;
#X connect 42 1 37 0;
#X connect 42 2 38 0;
#X connect 42 3 39 0;
#X connect 42 4 40 0;
#X connect 42 5 41 0;
#X connect 43 0 16 1;
#X connect 43 1 14 0;
#X connect 43 2 9 1;
#X connect 44 0 9 0;
#X connect 44 1 23 0;
#X connect 45 0 43 0;
#X connect 47 0 59 2;
#X connect 48 0 60 2;
#X connect 49 0 64 2;
#X connect 50 0 61 2;
#X connect 51 0 62 2;
#X connect 52 0 63 2;
#X connect 59 1 31 0;
#X connect 59 5 65 0;
#X connect 60 1 26 0;
#X connect 60 5 66 0;
#X connect 61 1 29 0;
#X connect 61 5 68 0;
#X connect 62 1 30 0;
#X connect 62 5 69 0;
#X connect 63 1 27 0;
#X connect 63 5 70 0;
#X connect 64 1 28 0;
#X connect 64 5 67 0;
#X connect 65 0 31 1;
#X connect 65 1 53 0;
#X connect 66 0 26 1;
#X connect 66 1 54 0;
#X connect 67 0 28 1;
#X connect 67 1 55 0;
#X connect 68 0 29 1;
#X connect 68 1 56 0;
#X connect 69 0 30 1;
#X connect 69 1 57 0;
#X connect 70 0 27 1;
#X connect 70 1 58 0;
#X connect 71 0 74 0;
#X connect 73 0 74 0;
#X connect 73 1 74 1;
#X connect 74 0 20 0;
#X connect 75 0 73 0;
