#N canvas 394 111 486 430 10;
#X obj 51 200 ofTranslate;
#X obj 51 50 inlet RENDER_CHAIN;
#X obj 51 369 outlet RENDER_CHAIN;
#X obj 158 113 r \$0-refresh;
#N canvas 272 190 517 331 CONTROLS 0;
#X obj 50 227 s \$0-refresh;
#X obj 50 208 bang;
#X text 304 228 DEFINE VARIÁVEIS DO SISTEMA OFELIA, f 19;
#X text 47 251 ATUALIZA GRÁFICOS QUANDO MUDA PARÂMETROS VISUAIS,
f 24;
#X obj 50 25 inlet;
#X text 384 93 MEMÓRIA LOCAL;
#X obj 237 208 ofDefine \; @posX \; @posY \; @sizeX \; @sizeY \;;
#X obj 50 54 route posX posY sizeX sizeY pngOffset;
#X obj 50 169 bit_param v\$0_pngOffset \$0-memo 4 \$2;
#X obj 257 93 bit_memo \$0-memo 5;
#X obj 50 93 bit_param v\$0_posX \$0-memo 0 0;
#X obj 50 112 bit_param v\$0_posY \$0-memo 1 0;
#X obj 50 150 bit_param v\$0_sizeY \$0-memo 3 10;
#X obj 50 131 bit_param v\$0_sizeX \$0-memo 2 1;
#X connect 1 0 0 0;
#X connect 4 0 7 0;
#X connect 7 0 10 0;
#X connect 7 1 11 0;
#X connect 7 2 13 0;
#X connect 7 3 12 0;
#X connect 7 4 8 0;
#X connect 8 0 1 0;
#X connect 10 0 1 0;
#X connect 11 0 1 0;
#X connect 12 0 1 0;
#X connect 13 0 1 0;
#X restore 294 79 pd CONTROLS;
#X obj 51 311 ofPopMatrix;
#X obj 51 330 ofPopStyle;
#X text 279 145 POS. X;
#X text 279 158 POS. Y;
#X obj 51 89 ofPushStyle;
#X obj 51 108 ofPushMatrix;
#X obj 294 50 inlet EXTERNAL_CONTROL;
#X obj 51 229 t b b;
#X text 145 14 ** SEPARADOR PARA CABEÇALHO;
#X obj 132 249 ofRcv @pngOffset;
#X text 271 268 DESENHA PNG;
#X obj 78 268 ofDrawImage \$1-pngBank[0] 1 10;
#X obj 158 132 ofExpr \; $o1 = int(@posX) \; $o2 = int(@posY) \; $o3
= int(@sizeX) \; $o4 = int(@sizeY) \;;
#X text 278 184 ALTURA;
#X text 278 171 LARGURA;
#X connect 0 0 12 0;
#X connect 1 0 9 0;
#X connect 3 0 17 0;
#X connect 5 0 6 0;
#X connect 6 0 2 0;
#X connect 9 0 10 0;
#X connect 10 0 0 0;
#X connect 11 0 4 0;
#X connect 12 0 5 0;
#X connect 12 1 16 0;
#X connect 14 0 16 0;
#X connect 17 0 0 1;
#X connect 17 1 0 2;
#X connect 17 2 16 1;
#X connect 17 3 16 2;
