#N canvas 475 203 731 651 10;
#X obj 51 202 ofTranslate;
#X obj 51 50 inlet RENDER_CHAIN;
#X obj 51 593 outlet RENDER_CHAIN;
#X text 262 142 ALTURA;
#X obj 141 84 r \$0-refresh;
#X obj 571 593 outlet VALUE;
#X obj 354 477 ofSetColor 213 220 230 255;
#X obj 78 288 ofGetTranslate;
#N canvas 272 190 658 455 CONTROLS 0;
#X obj 307 227 loadbang;
#X obj 50 371 s \$0-refresh;
#X obj 50 352 bang;
#X text 304 372 DEFINE VARIÁVEIS DO SISTEMA OFELIA, f 19;
#X text 47 395 ATUALIZA GRÁFICOS QUANDO MUDA PARÂMETROS VISUAIS,
f 24;
#X obj 237 342 ofDefine \; @posX \; @posY \; @sizeX \; @sizeY \; @value
\;;
#X msg 307 265 110 107 175 255;
#X msg 307 284 62 75 86 255;
#X obj 50 25 inlet;
#X obj 307 133 bit_memo \$0-memo 12;
#X obj 50 54 route posX posY sizeX sizeY value drawPath drawPNG pngOffset
touch bgColor actColor actColor2, f 93;
#X text 434 133 MEMÓRIA LOCAL;
#X msg 307 246 118 126 133 255;
#X obj 50 93 bit_param v\$0_posX \$0-memo 0 \$2;
#X obj 50 112 bit_param v\$0_posY \$0-memo 1 \$3;
#X obj 50 131 bit_param v\$0_sizeX \$0-memo 2 \$4;
#X obj 50 150 bit_param v\$0_sizeY \$0-memo 3 \$5;
#X obj 50 169 bit_param v\$0_value \$0-memo 4 \$6;
#X obj 50 188 bit_param v\$0_drawPath \$0-memo 5 \$7;
#X obj 50 207 bit_param v\$0_drawPNG \$0-memo 6 \$8;
#X obj 50 226 bit_param v\$0_pngOffset \$0-memo 7 \$9;
#X obj 50 245 bit_param v\$0_touch \$0-memo 8 \$10;
#X obj 50 264 bit_param v\$0_bgColor \$0-memo 9;
#X obj 50 283 bit_param v\$0_actColor \$0-memo 10;
#X obj 50 302 bit_param v\$0_actColor2 \$0-memo 11;
#X connect 0 0 6 0;
#X connect 0 0 7 0;
#X connect 0 0 12 0;
#X connect 2 0 1 0;
#X connect 6 0 23 0;
#X connect 7 0 24 0;
#X connect 8 0 10 0;
#X connect 10 0 13 0;
#X connect 10 1 14 0;
#X connect 10 2 15 0;
#X connect 10 3 16 0;
#X connect 10 4 17 0;
#X connect 10 5 18 0;
#X connect 10 6 19 0;
#X connect 10 7 20 0;
#X connect 10 8 21 0;
#X connect 10 9 22 0;
#X connect 10 10 23 0;
#X connect 10 11 24 0;
#X connect 12 0 22 0;
#X connect 13 0 2 0;
#X connect 14 0 2 0;
#X connect 15 0 2 0;
#X connect 16 0 2 0;
#X connect 22 0 2 0;
#X connect 23 0 2 0;
#X connect 24 0 2 0;
#X restore 554 79 pd CONTROLS;
#N canvas 368 391 439 249 COLOR 0;
#X msg 38 139 set \$1 \$2 \$3 \$4;
#X obj 38 178 outlet;
#X obj 38 110 list;
#X obj 158 110 list;
#X obj 59 91 ofRcv @bgColor;
#X obj 179 91 ofRcv @actColor;
#X obj 38 43 inlet VALUE;
#X obj 288 110 list;
#X obj 38 62 sel 0 1 2;
#X obj 309 91 ofRcv @actColor2;
#X connect 0 0 1 0;
#X connect 2 0 0 0;
#X connect 3 0 0 0;
#X connect 4 0 2 1;
#X connect 5 0 3 1;
#X connect 6 0 8 0;
#X connect 7 0 0 0;
#X connect 8 0 2 0;
#X connect 8 1 3 0;
#X connect 8 2 7 0;
#X connect 9 0 7 1;
#X restore 462 458 pd COLOR;
#X obj 230 241 ofLoadPath2d \; @button \;;
#X obj 354 496 ofDrawPath2d @button;
#X text 261 155 LARGURA;
#X obj 354 458 ofSetFillMode 1;
#X obj 141 184 t b f;
#X obj 185 184 t b f;
#X obj 78 307 s \$0-getTranslate;
#X obj 51 221 t b b;
#X obj 78 250 spigot;
#X obj 78 269 t b b;
#X msg 111 231 0;
#X msg 141 231 1;
#X text 76 331 OBTÉM POSIÇÃO LOCAL CADA VEZ QUE É ATUALIZADA,
f 24;
#X obj 51 535 ofPopMatrix;
#X obj 51 554 ofPopStyle;
#X text 486 496 DESENHA PATH;
#X obj 532 324 ofRcv @value;
#X obj 532 343 t f f f;
#X obj 230 203 pack f f;
#X obj 230 184 t f f;
#X text 262 116 POS. X;
#X text 262 129 POS. Y;
#X obj 70 458 ofSetColor 255 255 255 255;
#X obj 51 89 ofPushStyle;
#X obj 51 108 ofPushMatrix;
#X obj 190 593 outlet TOUCH_RELEASE;
#X obj 426 593 outlet EXTERNAL_MOVE;
#X obj 335 593 outlet MOVE;
#X text 529 301 GESTÃO DO VALOR;
#X obj 554 50 inlet EXTERNAL_CONTROL;
#X obj 295 50 inlet EXT_INTERACTION;
#N canvas 187 158 864 694 INTERACTION 0;
#X obj 49 30 r \$1-touchDown;
#X obj 49 171 unpack f f f;
#X obj 267 30 r \$1-touchMove;
#X obj 537 30 r \$1-touchUp;
#X obj 290 134 r \$0-getTranslate;
#X obj 290 153 unpack f f;
#X obj 83 209 pack f f;
#X obj 83 190 -;
#X obj 128 190 -;
#X obj 83 228 ofIsPointInsidePath2d @button;
#X text 269 228 INDENTIFICA TOQUE LOCAL;
#X obj 267 332 route -1;
#X obj 537 332 route -1;
#X msg 537 351 -1;
#X text 604 351 REINICIA SISTEMA LOCAL QUANDO LIBERA TOQUE, f 22;
#X text 405 134 RECEBE POSIÇÃO LOCAL;
#X obj 267 351 t a a;
#X obj 342 407 pack f f;
#X obj 342 388 -;
#X obj 387 388 -;
#X obj 342 426 ofIsPointInsidePath2d @button;
#X obj 342 369 unpack f f;
#X obj 342 445 change;
#X text 390 446 FILTRA REPETIÇÃO;
#X obj 49 636 outlet TOUCH_RELEASE;
#X msg 49 607 1;
#X msg 79 607 0;
#X text 387 30 INTERAÇÕES GLOBAIS;
#X obj 471 636 outlet EXTERNAL_MOVE;
#X obj 471 492 inlet EXTERNAL_MOVE;
#X obj 471 559 pack f f;
#X obj 471 540 -;
#X obj 516 540 -;
#X obj 471 578 ofIsPointInsidePath2d @button;
#X obj 471 521 unpack f f;
#X obj 471 597 change;
#X obj 290 172 t f f f;
#X obj 347 172 t f f f;
#X text 530 426 INDENTIFICA MOVIMENTO LOCAL SOBRE O BOTÃO;
#X text 657 578 INDENTIFICA MOVIMENTO EXTERNO SOBRE O BOTÃO, f 21
;
#X text 598 492 ENTRADA PARA MOVIMENTO EXTERNO;
#X obj 267 464 list append 0;
#X obj 267 636 outlet MOVE;
#X text 280 607 X / Y / 0-1 (DENTRO/FORA);
#X obj 49 105 spigot;
#X obj 267 105 spigot;
#X obj 537 105 spigot;
#X obj 651 30 ofRcv @touch;
#X text 736 30 TOUCH ON/OFF;
#X obj 49 247 spigot;
#X obj 49 314 t b f f;
#X obj 49 276 spigot 1;
#X msg 94 257 0;
#X msg 124 257 1;
#X obj 49 295 t f b;
#X text 110 276 GARANTE APENAS 1 TOQUE LOCAL;
#X obj 537 370 t b b f f;
#X text 114 607 TOUCH / RELEASE;
#X obj 651 87 t f f f;
#X obj 651 49 moses 1;
#X obj 690 68 pipe 2;
#X connect 0 0 44 0;
#X connect 1 0 49 0;
#X connect 1 1 7 0;
#X connect 1 2 8 0;
#X connect 2 0 45 0;
#X connect 3 0 46 0;
#X connect 4 0 5 0;
#X connect 5 0 36 0;
#X connect 5 1 37 0;
#X connect 6 0 9 0;
#X connect 7 0 6 0;
#X connect 8 0 6 1;
#X connect 9 0 49 1;
#X connect 11 0 16 0;
#X connect 12 0 13 0;
#X connect 13 0 56 0;
#X connect 16 0 41 0;
#X connect 16 1 21 0;
#X connect 17 0 20 0;
#X connect 18 0 17 0;
#X connect 19 0 17 1;
#X connect 20 0 22 0;
#X connect 21 0 18 0;
#X connect 21 1 19 0;
#X connect 22 0 41 1;
#X connect 25 0 24 0;
#X connect 26 0 24 0;
#X connect 29 0 34 0;
#X connect 30 0 33 0;
#X connect 31 0 30 0;
#X connect 32 0 30 1;
#X connect 33 0 35 0;
#X connect 34 0 31 0;
#X connect 34 1 32 0;
#X connect 35 0 28 0;
#X connect 36 0 7 1;
#X connect 36 1 18 1;
#X connect 36 2 31 1;
#X connect 37 0 8 1;
#X connect 37 1 19 1;
#X connect 37 2 32 1;
#X connect 41 0 42 0;
#X connect 44 0 1 0;
#X connect 45 0 11 0;
#X connect 46 0 12 0;
#X connect 47 0 59 0;
#X connect 49 0 51 0;
#X connect 50 0 25 0;
#X connect 50 1 11 1;
#X connect 50 2 12 1;
#X connect 51 0 54 0;
#X connect 52 0 51 1;
#X connect 53 0 51 1;
#X connect 54 0 50 0;
#X connect 54 1 52 0;
#X connect 56 0 26 0;
#X connect 56 1 53 0;
#X connect 56 2 11 1;
#X connect 56 3 12 1;
#X connect 58 0 44 1;
#X connect 58 1 45 1;
#X connect 58 2 46 1;
#X connect 59 0 58 0;
#X connect 59 1 60 0;
#X connect 60 0 58 0;
#X restore 295 337 pd INTERACTION;
#X text 309 301 GESTÃO DE INTERAÇÕES COM OBJETO, f 20;
#X obj 354 429 spigot;
#X obj 387 410 ofRcv @drawPath;
#X obj 70 429 spigot;
#X obj 103 410 ofRcv @drawPNG;
#X obj 51 376 t b b b;
#X text 321 246 CARREGA PATH;
#X text 245 14 ** BOTÃO COM GESTÃO DE INTERAÇÕES;
#X obj 446 50 inlet VALUE;
#X obj 446 79 ofSnd @value-;
#X text 253 498 DESENHA PNG;
#N canvas 2 193 322 205 PNG_READ 0;
#X obj 52 97 +;
#X text 83 97 9 ARGUMENTO (PNG OFFSET) DEFINE QUAL IMAGENS LER DO BANCO
, f 31;
#X obj 52 39 inlet VALUE;
#X obj 52 146 outlet PNG_INDEX;
#X obj 67 78 ofRcv @pngOffset;
#X connect 0 0 3 0;
#X connect 2 0 0 0;
#X connect 4 0 0 1;
#X restore 90 477 pd PNG_READ;
#X msg 230 222 load rect \$1 \$2;
#X obj 70 496 ofDrawImage \$1-pngBank[0] 1 0;
#X obj 275 184 t f f;
#X obj 141 103 ofExpr \; $o1 = int(@posX) \; $o2 = int(@posY) \; $o3
= int(@sizeX) \; $o4 = int(@sizeY) \;;
#X connect 0 0 17 0;
#X connect 1 0 33 0;
#X connect 4 0 57 0;
#X connect 6 0 11 0;
#X connect 7 0 16 0;
#X connect 9 0 6 0;
#X connect 13 0 6 0;
#X connect 14 0 21 0;
#X connect 14 1 0 1;
#X connect 15 0 21 0;
#X connect 15 1 0 2;
#X connect 17 0 47 0;
#X connect 17 1 18 0;
#X connect 18 0 19 0;
#X connect 19 0 7 0;
#X connect 19 1 20 0;
#X connect 20 0 18 1;
#X connect 21 0 18 1;
#X connect 23 0 24 0;
#X connect 24 0 2 0;
#X connect 26 0 27 0;
#X connect 27 0 53 0;
#X connect 27 1 9 0;
#X connect 27 2 5 0;
#X connect 28 0 54 0;
#X connect 29 0 28 0;
#X connect 29 1 55 1;
#X connect 32 0 55 0;
#X connect 33 0 34 0;
#X connect 34 0 0 0;
#X connect 39 0 8 0;
#X connect 40 0 41 0;
#X connect 41 0 35 0;
#X connect 41 1 37 0;
#X connect 41 2 36 0;
#X connect 43 0 13 0;
#X connect 44 0 43 1;
#X connect 45 0 32 0;
#X connect 46 0 45 1;
#X connect 47 0 23 0;
#X connect 47 1 45 0;
#X connect 47 2 43 0;
#X connect 50 0 51 0;
#X connect 53 0 55 0;
#X connect 54 0 10 0;
#X connect 56 0 28 1;
#X connect 56 1 55 2;
#X connect 57 0 14 0;
#X connect 57 1 15 0;
#X connect 57 2 29 0;
#X connect 57 3 56 0;
