#N canvas 554 128 623 713 10;
#X obj 51 255 ofTranslate;
#X obj 51 30 inlet RENDER_CHAIN;
#X obj 51 646 outlet RENDER_CHAIN;
#X obj 141 69 r \$0-refresh;
#X obj 78 341 ofGetTranslate;
#N canvas 66 271 619 441 CONTROLS 0;
#X obj 307 245 loadbang;
#X obj 50 351 s \$0-refresh;
#X obj 50 332 bang;
#X text 304 352 DEFINE VARIÁVEIS DO SISTEMA OFELIA, f 19;
#X text 47 375 ATUALIZA GRÁFICOS QUANDO MUDA PARÂMETROS VISUAIS,
f 24;
#X obj 50 25 inlet;
#X text 434 133 MEMÓRIA LOCAL;
#X obj 50 93 bit_param v\$0_posX \$0-memo 0 \$2;
#X obj 50 112 bit_param v\$0_posY \$0-memo 1 \$3;
#X obj 50 131 bit_param v\$0_sizeX \$0-memo 2 \$4;
#X obj 50 150 bit_param v\$0_sizeY \$0-memo 3 \$5;
#X obj 50 169 bit_param v\$0_index \$0-memo 4 \$6;
#X obj 237 322 ofDefine \; @posX \; @posY \; @sizeX \; @sizeY \; @index
\;;
#X msg 307 264 118 126 133 255;
#X obj 50 207 bit_param v\$0_drawPath \$0-memo 6 0;
#X obj 50 226 bit_param v\$0_drawPNG \$0-memo 7 1;
#X obj 50 245 bit_param v\$0_pngOffset \$0-memo 8 0;
#X obj 50 264 bit_param v\$0_touch \$0-memo 9 0;
#X obj 50 283 bit_param v\$0_bgColor \$0-memo 10;
#X obj 50 188 bit_param v\$0_sceneState \$0-memo 5;
#X obj 50 54 route posX posY sizeX sizeY index sceneState drawPath
drawPNG pngOffset touch bgColor, f 85;
#X obj 307 133 bit_memo \$0-memo 11;
#X connect 0 0 13 0;
#X connect 2 0 1 0;
#X connect 5 0 20 0;
#X connect 7 0 2 0;
#X connect 8 0 2 0;
#X connect 9 0 2 0;
#X connect 10 0 2 0;
#X connect 11 0 2 0;
#X connect 13 0 18 0;
#X connect 18 0 2 0;
#X connect 20 0 7 0;
#X connect 20 1 8 0;
#X connect 20 2 9 0;
#X connect 20 3 10 0;
#X connect 20 4 11 0;
#X connect 20 5 19 0;
#X connect 20 6 14 0;
#X connect 20 7 15 0;
#X connect 20 8 16 0;
#X connect 20 9 17 0;
#X connect 20 10 18 0;
#X restore 434 59 pd CONTROLS;
#N canvas 368 419 180 177 COLOR 0;
#X msg 38 69 set \$1 \$2 \$3 \$4;
#X obj 38 108 outlet;
#X obj 38 40 ofRcv @bgColor;
#X connect 0 0 1 0;
#X connect 2 0 0 0;
#X restore 319 507 pd COLOR;
#X obj 250 347 ofLoadPath2d \; @button \;;
#X obj 211 545 ofDrawPath2d @button;
#X obj 211 507 ofSetFillMode 1;
#X obj 186 182 t b f;
#X obj 78 360 s \$0-getTranslate;
#X obj 51 274 t b b;
#X obj 78 303 spigot;
#X obj 78 322 t b b;
#X msg 111 284 0;
#X msg 141 284 1;
#X text 76 384 OBTÉM POSIÇÃO LOCAL CADA VEZ QUE É ATUALIZADA,
f 24;
#X obj 51 588 ofPopMatrix;
#X obj 51 607 ofPopStyle;
#X text 209 569 DESENHA PATH;
#X obj 250 261 pack f f;
#X obj 250 182 t f f;
#X text 262 101 POS. X;
#X text 262 114 POS. Y;
#X obj 51 69 ofPushStyle;
#X obj 51 88 ofPushMatrix;
#X obj 434 30 inlet EXTERNAL_CONTROL;
#X obj 211 478 spigot;
#X obj 244 459 ofRcv @drawPath;
#X text 341 352 CARREGA PATH;
#X msg 250 328 load rect \$1 \$2;
#X obj 211 526 ofSetColor 118 126 133 255;
#X obj 141 88 ofExpr \; $o1 = int(@posX) \; $o2 = int(@posY) \; $o3
= int(@sizeX) \; $o4 = int(@sizeY) \; $o5 = int(@index) \;;
#X text 261 153 ÍNDICE FIXO;
#X obj 307 230 +;
#X text 338 230 DESLOCAMENTO DO ÍNDICE FIXO;
#X obj 322 211 *;
#X obj 364 459 sel -1 0 1;
#N canvas 26 383 1375 513 DRAW_SCENES 0;
#X obj 56 43 inlet RENDER_CHAIN;
#X obj 839 43 loadbang;
#X obj 839 81 f \$1;
#X msg 839 100 pngBank \$1-pngBankScenes;
#X obj 839 129 s \$0-global;
#X text 917 129 ENVIA CONTROLES PARA OS 6 SLOTS DA PÁGINA;
#X text 1002 100 NOME DO BANCO DE PNG DAS CAPAS;
#X text 306 43 TAMANHO DA PÁGINA;
#X obj 239 43 r \$0-size;
#X obj 239 62 unpack f f;
#X obj 519 120 / 2;
#X obj 519 139 s \$0-h_line;
#X text 597 139 ALTURA POR LINHA;
#X obj 239 138 -;
#X obj 239 81 t f f;
#X obj 56 430 ofPopMatrix;
#X obj 56 101 ofPushMatrix;
#X obj 56 176 ofTranslate;
#X obj 202 245 loadbang;
#X obj 184 248 bng 15 250 50 0 empty empty empty 17 7 0 10 -262144
-1 -1;
#X obj 266 119 t f f;
#X obj 293 138 / 3;
#X obj 293 157 s \$0-w_row;
#X msg 202 293 0;
#X obj 56 82 ofPushStyle;
#X obj 56 449 ofPopStyle;
#X text 550 120 DIVIDE POR 2 LINHAS;
#X text 324 138 DIVIDE POR 3 COLUNAS;
#X text 365 157 LARGURA POR COLUNA;
#N canvas 818 369 353 357 CORRECT_POSITION 0;
#X obj 64 81 r \$1-ratio;
#X text 136 81 RECEBE PROPORÇÃO DA TELA;
#X obj 64 100 sel 0 1;
#X obj 116 129 r \$0-h_line;
#X obj 197 129 r \$0-buttonSize;
#X obj 116 186 -;
#X obj 116 148 t f f;
#X msg 64 224 0;
#X obj 43 253 ofTranslate;
#X obj 43 42 inlet RENDER_CHAIN;
#X obj 43 292 outlet RENDER_CHAIN;
#X obj 143 167 * 0.9;
#X obj 101 224 f;
#X obj 116 205 * 0.67;
#X connect 0 0 2 0;
#X connect 2 0 7 0;
#X connect 2 1 12 0;
#X connect 3 0 6 0;
#X connect 4 0 11 1;
#X connect 5 0 13 0;
#X connect 6 0 5 0;
#X connect 6 1 11 0;
#X connect 7 0 8 1;
#X connect 8 0 10 0;
#X connect 9 0 8 0;
#X connect 11 0 5 1;
#X connect 12 0 8 1;
#X connect 13 0 12 1;
#X restore 56 214 pd CORRECT_POSITION;
#X text 182 214 CORRIGE POSIÇÃO DE ACORDO COM DISPOSITIVO;
#X obj 839 62 del 5;
#X obj 202 264 del 10;
#X obj 70 331 gui_button \$1 0 0 1 1 0 0 1 0 1;
#X obj 239 157 / 2;
#X text 568 81 PORCENTAGEM DA ALTURA DA PÁGINA OCUPADA, f 21;
#X text 309 100 PORCENTAGEM DA LARGURA DA PÁGINA OCUPADA, f 22;
#X obj 519 81 * 0.9;
#X obj 266 100 * 0.8;
#X obj 280 331 gui_button \$1 0 0 1 1 0 0 1 0 1;
#X obj 490 331 gui_button \$1 0 0 1 1 0 0 1 0 1;
#X obj 700 331 gui_button \$1 0 0 1 1 0 0 1 0 1;
#X obj 910 331 gui_button \$1 0 0 1 1 0 0 1 0 1;
#X obj 1120 331 gui_button \$1 0 0 1 1 0 0 1 0 1;
#X obj 56 272 t b b b b b b b;
#X obj 56 195 t b b;
#N canvas 152 366 1286 461 PARAMS 0;
#X obj 154 272 *;
#X obj 71 272 *;
#X obj 306 83 inlet ID;
#X msg 71 342 posX \$1;
#X msg 154 342 posY \$1;
#X msg 236 342 sizeX \$1;
#X msg 316 342 sizeY \$1;
#X obj 41 406 outlet CONTROLS;
#X obj 86 83 r \$0-h_line;
#X obj 41 34 r \$0-global;
#X text 119 34 CONTROLES GLOBAIS DA PÁGINA;
#X obj 351 237 div 3;
#X obj 306 237 mod 3;
#X obj 71 253 r \$0-w_row;
#X obj 181 83 r \$0-buttonSize;
#X obj 86 158 -;
#X obj 169 196 / 2;
#X obj 71 291 +;
#X obj 154 310 +;
#X obj 86 102 t f f;
#X obj 154 139 t f f f f;
#X obj 187 272 *;
#X obj 154 291 +;
#X obj 351 256 t f f;
#X msg 652 342 drawPath \$1;
#X msg 542 342 drawPNG \$1;
#X msg 432 342 pngOffset \$1;
#X obj 432 205 +;
#X obj 447 186 t b f;
#X msg 1014 342 pngAlpha \$1;
#X msg 1014 323 0.4;
#X msg 1044 323 1;
#X obj 432 138 * 2;
#X obj 447 167 ofRcv @pngOffset;
#X text 556 167 OFFSET LOCAL DAS CAPAS;
#X obj 542 214 ofRcv @drawPNG;
#X obj 652 323 ofRcv @drawPath;
#X text 463 138 TOMA IMAGENS AOS PARES (P/B / COR);
#X obj 154 120 * 0.9;
#X obj 86 177 t f f f;
#X obj 86 196 * 1.4;
#X obj 71 310 + 1;
#X obj 782 214 ofRcv @touch;
#X msg 782 342 touch \$1;
#X text 866 214 CONTROLE GLOBAL DO TOQUE, f 15;
#X obj 941 100 ofRcv @sceneState;
#X obj 975 148 list split 1;
#X obj 941 129 list split 0;
#X msg 1109 342 value \$1;
#X obj 975 167 moses 1;
#X obj 1014 274 t f f;
#X obj 1014 255 - 1;
#X text 1044 255 CORRIGE PARA 0 - 1;
#X obj 1014 293 sel 0 1;
#X obj 542 262 &&;
#X text 639 214 CONTROLE GLOBAL DE DESENHO, f 15;
#X obj 975 186 t f f;
#X obj 1014 186 t f b;
#X msg 1041 205 1;
#X obj 557 243 t b f;
#X text 1055 100 LISTA DE ESTADOS DAS CENAS;
#X obj 782 262 &&;
#X obj 797 243 t b f;
#X obj 1041 224 t f f;
#X text 1026 129 FILTRO POR CENA;
#X obj 306 102 t f f f f;
#X connect 0 0 22 0;
#X connect 1 0 17 0;
#X connect 2 0 65 0;
#X connect 3 0 7 0;
#X connect 4 0 7 0;
#X connect 5 0 7 0;
#X connect 6 0 7 0;
#X connect 8 0 19 0;
#X connect 9 0 7 0;
#X connect 11 0 23 0;
#X connect 12 0 1 1;
#X connect 13 0 1 0;
#X connect 14 0 38 1;
#X connect 15 0 39 0;
#X connect 16 0 18 1;
#X connect 17 0 41 0;
#X connect 18 0 4 0;
#X connect 19 0 15 0;
#X connect 19 1 38 0;
#X connect 20 0 0 0;
#X connect 20 1 15 1;
#X connect 20 2 5 0;
#X connect 20 3 6 0;
#X connect 21 0 22 1;
#X connect 22 0 18 0;
#X connect 23 0 0 1;
#X connect 23 1 21 1;
#X connect 24 0 7 0;
#X connect 25 0 7 0;
#X connect 26 0 7 0;
#X connect 27 0 26 0;
#X connect 28 0 27 0;
#X connect 28 1 27 1;
#X connect 29 0 7 0;
#X connect 30 0 29 0;
#X connect 31 0 29 0;
#X connect 32 0 27 0;
#X connect 33 0 28 0;
#X connect 35 0 54 0;
#X connect 36 0 24 0;
#X connect 38 0 20 0;
#X connect 39 0 40 0;
#X connect 39 1 16 0;
#X connect 39 2 21 0;
#X connect 40 0 17 1;
#X connect 41 0 3 0;
#X connect 42 0 61 0;
#X connect 43 0 7 0;
#X connect 45 0 47 0;
#X connect 46 0 49 0;
#X connect 47 1 46 0;
#X connect 48 0 7 0;
#X connect 49 0 56 0;
#X connect 49 1 57 0;
#X connect 50 0 53 0;
#X connect 50 1 48 0;
#X connect 51 0 50 0;
#X connect 53 0 30 0;
#X connect 53 1 31 0;
#X connect 54 0 25 0;
#X connect 56 0 59 0;
#X connect 56 1 62 0;
#X connect 57 0 51 0;
#X connect 57 1 58 0;
#X connect 58 0 63 0;
#X connect 59 0 54 0;
#X connect 59 1 54 1;
#X connect 61 0 43 0;
#X connect 62 0 61 0;
#X connect 62 1 61 1;
#X connect 63 0 59 0;
#X connect 63 1 62 0;
#X connect 65 0 12 0;
#X connect 65 1 11 0;
#X connect 65 2 32 0;
#X connect 65 3 47 1;
#X restore 202 312 pd PARAMS;
#N canvas 42 199 1286 461 PARAMS 0;
#X obj 154 272 *;
#X obj 71 272 *;
#X obj 306 83 inlet ID;
#X msg 71 342 posX \$1;
#X msg 154 342 posY \$1;
#X msg 236 342 sizeX \$1;
#X msg 316 342 sizeY \$1;
#X obj 41 406 outlet CONTROLS;
#X obj 86 83 r \$0-h_line;
#X obj 41 34 r \$0-global;
#X text 119 34 CONTROLES GLOBAIS DA PÁGINA;
#X obj 351 237 div 3;
#X obj 306 237 mod 3;
#X obj 71 253 r \$0-w_row;
#X obj 181 83 r \$0-buttonSize;
#X obj 86 158 -;
#X obj 169 196 / 2;
#X obj 71 291 +;
#X obj 154 310 +;
#X obj 86 102 t f f;
#X obj 154 139 t f f f f;
#X obj 187 272 *;
#X obj 154 291 +;
#X obj 351 256 t f f;
#X msg 652 342 drawPath \$1;
#X msg 542 342 drawPNG \$1;
#X msg 432 342 pngOffset \$1;
#X obj 432 205 +;
#X obj 447 186 t b f;
#X msg 1014 342 pngAlpha \$1;
#X msg 1014 323 0.4;
#X msg 1044 323 1;
#X obj 432 138 * 2;
#X obj 447 167 ofRcv @pngOffset;
#X text 556 167 OFFSET LOCAL DAS CAPAS;
#X obj 542 214 ofRcv @drawPNG;
#X obj 652 323 ofRcv @drawPath;
#X text 463 138 TOMA IMAGENS AOS PARES (P/B / COR);
#X obj 154 120 * 0.9;
#X obj 86 177 t f f f;
#X obj 86 196 * 1.4;
#X obj 71 310 + 1;
#X obj 782 214 ofRcv @touch;
#X msg 782 342 touch \$1;
#X text 866 214 CONTROLE GLOBAL DO TOQUE, f 15;
#X obj 941 100 ofRcv @sceneState;
#X obj 975 148 list split 1;
#X obj 941 129 list split 0;
#X msg 1109 342 value \$1;
#X obj 975 167 moses 1;
#X obj 1014 274 t f f;
#X obj 1014 255 - 1;
#X text 1044 255 CORRIGE PARA 0 - 1;
#X obj 1014 293 sel 0 1;
#X obj 542 262 &&;
#X text 639 214 CONTROLE GLOBAL DE DESENHO, f 15;
#X obj 975 186 t f f;
#X obj 1014 186 t f b;
#X msg 1041 205 1;
#X obj 557 243 t b f;
#X text 1055 100 LISTA DE ESTADOS DAS CENAS;
#X obj 782 262 &&;
#X obj 797 243 t b f;
#X obj 1041 224 t f f;
#X text 1026 129 FILTRO POR CENA;
#X obj 306 102 t f f f f;
#X connect 0 0 22 0;
#X connect 1 0 17 0;
#X connect 2 0 65 0;
#X connect 3 0 7 0;
#X connect 4 0 7 0;
#X connect 5 0 7 0;
#X connect 6 0 7 0;
#X connect 8 0 19 0;
#X connect 9 0 7 0;
#X connect 11 0 23 0;
#X connect 12 0 1 1;
#X connect 13 0 1 0;
#X connect 14 0 38 1;
#X connect 15 0 39 0;
#X connect 16 0 18 1;
#X connect 17 0 41 0;
#X connect 18 0 4 0;
#X connect 19 0 15 0;
#X connect 19 1 38 0;
#X connect 20 0 0 0;
#X connect 20 1 15 1;
#X connect 20 2 5 0;
#X connect 20 3 6 0;
#X connect 21 0 22 1;
#X connect 22 0 18 0;
#X connect 23 0 0 1;
#X connect 23 1 21 1;
#X connect 24 0 7 0;
#X connect 25 0 7 0;
#X connect 26 0 7 0;
#X connect 27 0 26 0;
#X connect 28 0 27 0;
#X connect 28 1 27 1;
#X connect 29 0 7 0;
#X connect 30 0 29 0;
#X connect 31 0 29 0;
#X connect 32 0 27 0;
#X connect 33 0 28 0;
#X connect 35 0 54 0;
#X connect 36 0 24 0;
#X connect 38 0 20 0;
#X connect 39 0 40 0;
#X connect 39 1 16 0;
#X connect 39 2 21 0;
#X connect 40 0 17 1;
#X connect 41 0 3 0;
#X connect 42 0 61 0;
#X connect 43 0 7 0;
#X connect 45 0 47 0;
#X connect 46 0 49 0;
#X connect 47 1 46 0;
#X connect 48 0 7 0;
#X connect 49 0 56 0;
#X connect 49 1 57 0;
#X connect 50 0 53 0;
#X connect 50 1 48 0;
#X connect 51 0 50 0;
#X connect 53 0 30 0;
#X connect 53 1 31 0;
#X connect 54 0 25 0;
#X connect 56 0 59 0;
#X connect 56 1 62 0;
#X connect 57 0 51 0;
#X connect 57 1 58 0;
#X connect 58 0 63 0;
#X connect 59 0 54 0;
#X connect 59 1 54 1;
#X connect 61 0 43 0;
#X connect 62 0 61 0;
#X connect 62 1 61 1;
#X connect 63 0 59 0;
#X connect 63 1 62 0;
#X connect 65 0 12 0;
#X connect 65 1 11 0;
#X connect 65 2 32 0;
#X connect 65 3 47 1;
#X restore 412 312 pd PARAMS;
#N canvas 42 199 1286 461 PARAMS 0;
#X obj 154 272 *;
#X obj 71 272 *;
#X obj 306 83 inlet ID;
#X msg 71 342 posX \$1;
#X msg 154 342 posY \$1;
#X msg 236 342 sizeX \$1;
#X msg 316 342 sizeY \$1;
#X obj 41 406 outlet CONTROLS;
#X obj 86 83 r \$0-h_line;
#X obj 41 34 r \$0-global;
#X text 119 34 CONTROLES GLOBAIS DA PÁGINA;
#X obj 351 237 div 3;
#X obj 306 237 mod 3;
#X obj 71 253 r \$0-w_row;
#X obj 181 83 r \$0-buttonSize;
#X obj 86 158 -;
#X obj 169 196 / 2;
#X obj 71 291 +;
#X obj 154 310 +;
#X obj 86 102 t f f;
#X obj 154 139 t f f f f;
#X obj 187 272 *;
#X obj 154 291 +;
#X obj 351 256 t f f;
#X msg 652 342 drawPath \$1;
#X msg 542 342 drawPNG \$1;
#X msg 432 342 pngOffset \$1;
#X obj 432 205 +;
#X obj 447 186 t b f;
#X msg 1014 342 pngAlpha \$1;
#X msg 1014 323 0.4;
#X msg 1044 323 1;
#X obj 432 138 * 2;
#X obj 447 167 ofRcv @pngOffset;
#X text 556 167 OFFSET LOCAL DAS CAPAS;
#X obj 542 214 ofRcv @drawPNG;
#X obj 652 323 ofRcv @drawPath;
#X text 463 138 TOMA IMAGENS AOS PARES (P/B / COR);
#X obj 154 120 * 0.9;
#X obj 86 177 t f f f;
#X obj 86 196 * 1.4;
#X obj 71 310 + 1;
#X obj 782 214 ofRcv @touch;
#X msg 782 342 touch \$1;
#X text 866 214 CONTROLE GLOBAL DO TOQUE, f 15;
#X obj 941 100 ofRcv @sceneState;
#X obj 975 148 list split 1;
#X obj 941 129 list split 0;
#X msg 1109 342 value \$1;
#X obj 975 167 moses 1;
#X obj 1014 274 t f f;
#X obj 1014 255 - 1;
#X text 1044 255 CORRIGE PARA 0 - 1;
#X obj 1014 293 sel 0 1;
#X obj 542 262 &&;
#X text 639 214 CONTROLE GLOBAL DE DESENHO, f 15;
#X obj 975 186 t f f;
#X obj 1014 186 t f b;
#X msg 1041 205 1;
#X obj 557 243 t b f;
#X text 1055 100 LISTA DE ESTADOS DAS CENAS;
#X obj 782 262 &&;
#X obj 797 243 t b f;
#X obj 1041 224 t f f;
#X text 1026 129 FILTRO POR CENA;
#X obj 306 102 t f f f f;
#X connect 0 0 22 0;
#X connect 1 0 17 0;
#X connect 2 0 65 0;
#X connect 3 0 7 0;
#X connect 4 0 7 0;
#X connect 5 0 7 0;
#X connect 6 0 7 0;
#X connect 8 0 19 0;
#X connect 9 0 7 0;
#X connect 11 0 23 0;
#X connect 12 0 1 1;
#X connect 13 0 1 0;
#X connect 14 0 38 1;
#X connect 15 0 39 0;
#X connect 16 0 18 1;
#X connect 17 0 41 0;
#X connect 18 0 4 0;
#X connect 19 0 15 0;
#X connect 19 1 38 0;
#X connect 20 0 0 0;
#X connect 20 1 15 1;
#X connect 20 2 5 0;
#X connect 20 3 6 0;
#X connect 21 0 22 1;
#X connect 22 0 18 0;
#X connect 23 0 0 1;
#X connect 23 1 21 1;
#X connect 24 0 7 0;
#X connect 25 0 7 0;
#X connect 26 0 7 0;
#X connect 27 0 26 0;
#X connect 28 0 27 0;
#X connect 28 1 27 1;
#X connect 29 0 7 0;
#X connect 30 0 29 0;
#X connect 31 0 29 0;
#X connect 32 0 27 0;
#X connect 33 0 28 0;
#X connect 35 0 54 0;
#X connect 36 0 24 0;
#X connect 38 0 20 0;
#X connect 39 0 40 0;
#X connect 39 1 16 0;
#X connect 39 2 21 0;
#X connect 40 0 17 1;
#X connect 41 0 3 0;
#X connect 42 0 61 0;
#X connect 43 0 7 0;
#X connect 45 0 47 0;
#X connect 46 0 49 0;
#X connect 47 1 46 0;
#X connect 48 0 7 0;
#X connect 49 0 56 0;
#X connect 49 1 57 0;
#X connect 50 0 53 0;
#X connect 50 1 48 0;
#X connect 51 0 50 0;
#X connect 53 0 30 0;
#X connect 53 1 31 0;
#X connect 54 0 25 0;
#X connect 56 0 59 0;
#X connect 56 1 62 0;
#X connect 57 0 51 0;
#X connect 57 1 58 0;
#X connect 58 0 63 0;
#X connect 59 0 54 0;
#X connect 59 1 54 1;
#X connect 61 0 43 0;
#X connect 62 0 61 0;
#X connect 62 1 61 1;
#X connect 63 0 59 0;
#X connect 63 1 62 0;
#X connect 65 0 12 0;
#X connect 65 1 11 0;
#X connect 65 2 32 0;
#X connect 65 3 47 1;
#X restore 622 312 pd PARAMS;
#N canvas 42 199 1286 461 PARAMS 0;
#X obj 154 272 *;
#X obj 71 272 *;
#X obj 306 83 inlet ID;
#X msg 71 342 posX \$1;
#X msg 154 342 posY \$1;
#X msg 236 342 sizeX \$1;
#X msg 316 342 sizeY \$1;
#X obj 41 406 outlet CONTROLS;
#X obj 86 83 r \$0-h_line;
#X obj 41 34 r \$0-global;
#X text 119 34 CONTROLES GLOBAIS DA PÁGINA;
#X obj 351 237 div 3;
#X obj 306 237 mod 3;
#X obj 71 253 r \$0-w_row;
#X obj 181 83 r \$0-buttonSize;
#X obj 86 158 -;
#X obj 169 196 / 2;
#X obj 71 291 +;
#X obj 154 310 +;
#X obj 86 102 t f f;
#X obj 154 139 t f f f f;
#X obj 187 272 *;
#X obj 154 291 +;
#X obj 351 256 t f f;
#X msg 652 342 drawPath \$1;
#X msg 542 342 drawPNG \$1;
#X msg 432 342 pngOffset \$1;
#X obj 432 205 +;
#X obj 447 186 t b f;
#X msg 1014 342 pngAlpha \$1;
#X msg 1014 323 0.4;
#X msg 1044 323 1;
#X obj 432 138 * 2;
#X obj 447 167 ofRcv @pngOffset;
#X text 556 167 OFFSET LOCAL DAS CAPAS;
#X obj 542 214 ofRcv @drawPNG;
#X obj 652 323 ofRcv @drawPath;
#X text 463 138 TOMA IMAGENS AOS PARES (P/B / COR);
#X obj 154 120 * 0.9;
#X obj 86 177 t f f f;
#X obj 86 196 * 1.4;
#X obj 71 310 + 1;
#X obj 782 214 ofRcv @touch;
#X msg 782 342 touch \$1;
#X text 866 214 CONTROLE GLOBAL DO TOQUE, f 15;
#X obj 941 100 ofRcv @sceneState;
#X obj 975 148 list split 1;
#X obj 941 129 list split 0;
#X msg 1109 342 value \$1;
#X obj 975 167 moses 1;
#X obj 1014 274 t f f;
#X obj 1014 255 - 1;
#X text 1044 255 CORRIGE PARA 0 - 1;
#X obj 1014 293 sel 0 1;
#X obj 542 262 &&;
#X text 639 214 CONTROLE GLOBAL DE DESENHO, f 15;
#X obj 975 186 t f f;
#X obj 1014 186 t f b;
#X msg 1041 205 1;
#X obj 557 243 t b f;
#X text 1055 100 LISTA DE ESTADOS DAS CENAS;
#X obj 782 262 &&;
#X obj 797 243 t b f;
#X obj 1041 224 t f f;
#X text 1026 129 FILTRO POR CENA;
#X obj 306 102 t f f f f;
#X connect 0 0 22 0;
#X connect 1 0 17 0;
#X connect 2 0 65 0;
#X connect 3 0 7 0;
#X connect 4 0 7 0;
#X connect 5 0 7 0;
#X connect 6 0 7 0;
#X connect 8 0 19 0;
#X connect 9 0 7 0;
#X connect 11 0 23 0;
#X connect 12 0 1 1;
#X connect 13 0 1 0;
#X connect 14 0 38 1;
#X connect 15 0 39 0;
#X connect 16 0 18 1;
#X connect 17 0 41 0;
#X connect 18 0 4 0;
#X connect 19 0 15 0;
#X connect 19 1 38 0;
#X connect 20 0 0 0;
#X connect 20 1 15 1;
#X connect 20 2 5 0;
#X connect 20 3 6 0;
#X connect 21 0 22 1;
#X connect 22 0 18 0;
#X connect 23 0 0 1;
#X connect 23 1 21 1;
#X connect 24 0 7 0;
#X connect 25 0 7 0;
#X connect 26 0 7 0;
#X connect 27 0 26 0;
#X connect 28 0 27 0;
#X connect 28 1 27 1;
#X connect 29 0 7 0;
#X connect 30 0 29 0;
#X connect 31 0 29 0;
#X connect 32 0 27 0;
#X connect 33 0 28 0;
#X connect 35 0 54 0;
#X connect 36 0 24 0;
#X connect 38 0 20 0;
#X connect 39 0 40 0;
#X connect 39 1 16 0;
#X connect 39 2 21 0;
#X connect 40 0 17 1;
#X connect 41 0 3 0;
#X connect 42 0 61 0;
#X connect 43 0 7 0;
#X connect 45 0 47 0;
#X connect 46 0 49 0;
#X connect 47 1 46 0;
#X connect 48 0 7 0;
#X connect 49 0 56 0;
#X connect 49 1 57 0;
#X connect 50 0 53 0;
#X connect 50 1 48 0;
#X connect 51 0 50 0;
#X connect 53 0 30 0;
#X connect 53 1 31 0;
#X connect 54 0 25 0;
#X connect 56 0 59 0;
#X connect 56 1 62 0;
#X connect 57 0 51 0;
#X connect 57 1 58 0;
#X connect 58 0 63 0;
#X connect 59 0 54 0;
#X connect 59 1 54 1;
#X connect 61 0 43 0;
#X connect 62 0 61 0;
#X connect 62 1 61 1;
#X connect 63 0 59 0;
#X connect 63 1 62 0;
#X connect 65 0 12 0;
#X connect 65 1 11 0;
#X connect 65 2 32 0;
#X connect 65 3 47 1;
#X restore 832 312 pd PARAMS;
#N canvas 42 199 1286 461 PARAMS 0;
#X obj 154 272 *;
#X obj 71 272 *;
#X obj 306 83 inlet ID;
#X msg 71 342 posX \$1;
#X msg 154 342 posY \$1;
#X msg 236 342 sizeX \$1;
#X msg 316 342 sizeY \$1;
#X obj 41 406 outlet CONTROLS;
#X obj 86 83 r \$0-h_line;
#X obj 41 34 r \$0-global;
#X text 119 34 CONTROLES GLOBAIS DA PÁGINA;
#X obj 351 237 div 3;
#X obj 306 237 mod 3;
#X obj 71 253 r \$0-w_row;
#X obj 181 83 r \$0-buttonSize;
#X obj 86 158 -;
#X obj 169 196 / 2;
#X obj 71 291 +;
#X obj 154 310 +;
#X obj 86 102 t f f;
#X obj 154 139 t f f f f;
#X obj 187 272 *;
#X obj 154 291 +;
#X obj 351 256 t f f;
#X msg 652 342 drawPath \$1;
#X msg 542 342 drawPNG \$1;
#X msg 432 342 pngOffset \$1;
#X obj 432 205 +;
#X obj 447 186 t b f;
#X msg 1014 342 pngAlpha \$1;
#X msg 1014 323 0.4;
#X msg 1044 323 1;
#X obj 432 138 * 2;
#X obj 447 167 ofRcv @pngOffset;
#X text 556 167 OFFSET LOCAL DAS CAPAS;
#X obj 542 214 ofRcv @drawPNG;
#X obj 652 323 ofRcv @drawPath;
#X text 463 138 TOMA IMAGENS AOS PARES (P/B / COR);
#X obj 154 120 * 0.9;
#X obj 86 177 t f f f;
#X obj 86 196 * 1.4;
#X obj 71 310 + 1;
#X obj 782 214 ofRcv @touch;
#X msg 782 342 touch \$1;
#X text 866 214 CONTROLE GLOBAL DO TOQUE, f 15;
#X obj 941 100 ofRcv @sceneState;
#X obj 975 148 list split 1;
#X obj 941 129 list split 0;
#X msg 1109 342 value \$1;
#X obj 975 167 moses 1;
#X obj 1014 274 t f f;
#X obj 1014 255 - 1;
#X text 1044 255 CORRIGE PARA 0 - 1;
#X obj 1014 293 sel 0 1;
#X obj 542 262 &&;
#X text 639 214 CONTROLE GLOBAL DE DESENHO, f 15;
#X obj 975 186 t f f;
#X obj 1014 186 t f b;
#X msg 1041 205 1;
#X obj 557 243 t b f;
#X text 1055 100 LISTA DE ESTADOS DAS CENAS;
#X obj 782 262 &&;
#X obj 797 243 t b f;
#X obj 1041 224 t f f;
#X text 1026 129 FILTRO POR CENA;
#X obj 306 102 t f f f f;
#X connect 0 0 22 0;
#X connect 1 0 17 0;
#X connect 2 0 65 0;
#X connect 3 0 7 0;
#X connect 4 0 7 0;
#X connect 5 0 7 0;
#X connect 6 0 7 0;
#X connect 8 0 19 0;
#X connect 9 0 7 0;
#X connect 11 0 23 0;
#X connect 12 0 1 1;
#X connect 13 0 1 0;
#X connect 14 0 38 1;
#X connect 15 0 39 0;
#X connect 16 0 18 1;
#X connect 17 0 41 0;
#X connect 18 0 4 0;
#X connect 19 0 15 0;
#X connect 19 1 38 0;
#X connect 20 0 0 0;
#X connect 20 1 15 1;
#X connect 20 2 5 0;
#X connect 20 3 6 0;
#X connect 21 0 22 1;
#X connect 22 0 18 0;
#X connect 23 0 0 1;
#X connect 23 1 21 1;
#X connect 24 0 7 0;
#X connect 25 0 7 0;
#X connect 26 0 7 0;
#X connect 27 0 26 0;
#X connect 28 0 27 0;
#X connect 28 1 27 1;
#X connect 29 0 7 0;
#X connect 30 0 29 0;
#X connect 31 0 29 0;
#X connect 32 0 27 0;
#X connect 33 0 28 0;
#X connect 35 0 54 0;
#X connect 36 0 24 0;
#X connect 38 0 20 0;
#X connect 39 0 40 0;
#X connect 39 1 16 0;
#X connect 39 2 21 0;
#X connect 40 0 17 1;
#X connect 41 0 3 0;
#X connect 42 0 61 0;
#X connect 43 0 7 0;
#X connect 45 0 47 0;
#X connect 46 0 49 0;
#X connect 47 1 46 0;
#X connect 48 0 7 0;
#X connect 49 0 56 0;
#X connect 49 1 57 0;
#X connect 50 0 53 0;
#X connect 50 1 48 0;
#X connect 51 0 50 0;
#X connect 53 0 30 0;
#X connect 53 1 31 0;
#X connect 54 0 25 0;
#X connect 56 0 59 0;
#X connect 56 1 62 0;
#X connect 57 0 51 0;
#X connect 57 1 58 0;
#X connect 58 0 63 0;
#X connect 59 0 54 0;
#X connect 59 1 54 1;
#X connect 61 0 43 0;
#X connect 62 0 61 0;
#X connect 62 1 61 1;
#X connect 63 0 59 0;
#X connect 63 1 62 0;
#X connect 65 0 12 0;
#X connect 65 1 11 0;
#X connect 65 2 32 0;
#X connect 65 3 47 1;
#X restore 1042 312 pd PARAMS;
#N canvas 42 199 1286 461 PARAMS 0;
#X obj 154 272 *;
#X obj 71 272 *;
#X obj 306 83 inlet ID;
#X msg 71 342 posX \$1;
#X msg 154 342 posY \$1;
#X msg 236 342 sizeX \$1;
#X msg 316 342 sizeY \$1;
#X obj 41 406 outlet CONTROLS;
#X obj 86 83 r \$0-h_line;
#X obj 41 34 r \$0-global;
#X text 119 34 CONTROLES GLOBAIS DA PÁGINA;
#X obj 351 237 div 3;
#X obj 306 237 mod 3;
#X obj 71 253 r \$0-w_row;
#X obj 181 83 r \$0-buttonSize;
#X obj 86 158 -;
#X obj 169 196 / 2;
#X obj 71 291 +;
#X obj 154 310 +;
#X obj 86 102 t f f;
#X obj 154 139 t f f f f;
#X obj 187 272 *;
#X obj 154 291 +;
#X obj 351 256 t f f;
#X msg 652 342 drawPath \$1;
#X msg 542 342 drawPNG \$1;
#X msg 432 342 pngOffset \$1;
#X obj 432 205 +;
#X obj 447 186 t b f;
#X msg 1014 342 pngAlpha \$1;
#X msg 1014 323 0.4;
#X msg 1044 323 1;
#X obj 432 138 * 2;
#X obj 447 167 ofRcv @pngOffset;
#X text 556 167 OFFSET LOCAL DAS CAPAS;
#X obj 542 214 ofRcv @drawPNG;
#X obj 652 323 ofRcv @drawPath;
#X text 463 138 TOMA IMAGENS AOS PARES (P/B / COR);
#X obj 154 120 * 0.9;
#X obj 86 177 t f f f;
#X obj 86 196 * 1.4;
#X obj 71 310 + 1;
#X obj 782 214 ofRcv @touch;
#X msg 782 342 touch \$1;
#X text 866 214 CONTROLE GLOBAL DO TOQUE, f 15;
#X obj 941 100 ofRcv @sceneState;
#X obj 975 148 list split 1;
#X obj 941 129 list split 0;
#X msg 1109 342 value \$1;
#X obj 975 167 moses 1;
#X obj 1014 274 t f f;
#X obj 1014 255 - 1;
#X text 1044 255 CORRIGE PARA 0 - 1;
#X obj 1014 293 sel 0 1;
#X obj 542 262 &&;
#X text 639 214 CONTROLE GLOBAL DE DESENHO, f 15;
#X obj 975 186 t f f;
#X obj 1014 186 t f b;
#X msg 1041 205 1;
#X obj 557 243 t b f;
#X text 1055 100 LISTA DE ESTADOS DAS CENAS;
#X obj 782 262 &&;
#X obj 797 243 t b f;
#X obj 1041 224 t f f;
#X text 1026 129 FILTRO POR CENA;
#X obj 306 102 t f f f f;
#X connect 0 0 22 0;
#X connect 1 0 17 0;
#X connect 2 0 65 0;
#X connect 3 0 7 0;
#X connect 4 0 7 0;
#X connect 5 0 7 0;
#X connect 6 0 7 0;
#X connect 8 0 19 0;
#X connect 9 0 7 0;
#X connect 11 0 23 0;
#X connect 12 0 1 1;
#X connect 13 0 1 0;
#X connect 14 0 38 1;
#X connect 15 0 39 0;
#X connect 16 0 18 1;
#X connect 17 0 41 0;
#X connect 18 0 4 0;
#X connect 19 0 15 0;
#X connect 19 1 38 0;
#X connect 20 0 0 0;
#X connect 20 1 15 1;
#X connect 20 2 5 0;
#X connect 20 3 6 0;
#X connect 21 0 22 1;
#X connect 22 0 18 0;
#X connect 23 0 0 1;
#X connect 23 1 21 1;
#X connect 24 0 7 0;
#X connect 25 0 7 0;
#X connect 26 0 7 0;
#X connect 27 0 26 0;
#X connect 28 0 27 0;
#X connect 28 1 27 1;
#X connect 29 0 7 0;
#X connect 30 0 29 0;
#X connect 31 0 29 0;
#X connect 32 0 27 0;
#X connect 33 0 28 0;
#X connect 35 0 54 0;
#X connect 36 0 24 0;
#X connect 38 0 20 0;
#X connect 39 0 40 0;
#X connect 39 1 16 0;
#X connect 39 2 21 0;
#X connect 40 0 17 1;
#X connect 41 0 3 0;
#X connect 42 0 61 0;
#X connect 43 0 7 0;
#X connect 45 0 47 0;
#X connect 46 0 49 0;
#X connect 47 1 46 0;
#X connect 48 0 7 0;
#X connect 49 0 56 0;
#X connect 49 1 57 0;
#X connect 50 0 53 0;
#X connect 50 1 48 0;
#X connect 51 0 50 0;
#X connect 53 0 30 0;
#X connect 53 1 31 0;
#X connect 54 0 25 0;
#X connect 56 0 59 0;
#X connect 56 1 62 0;
#X connect 57 0 51 0;
#X connect 57 1 58 0;
#X connect 58 0 63 0;
#X connect 59 0 54 0;
#X connect 59 1 54 1;
#X connect 61 0 43 0;
#X connect 62 0 61 0;
#X connect 62 1 61 1;
#X connect 63 0 59 0;
#X connect 63 1 62 0;
#X connect 65 0 12 0;
#X connect 65 1 11 0;
#X connect 65 2 32 0;
#X connect 65 3 47 1;
#X restore 1252 312 pd PARAMS;
#X msg 412 293 1;
#X msg 622 293 2;
#X msg 832 293 3;
#X msg 1042 293 4;
#X msg 1252 293 5;
#X msg 106 369 0;
#X msg 316 369 1;
#X msg 526 369 2;
#X msg 736 369 3;
#X msg 946 369 4;
#X msg 1156 369 5;
#X obj 526 427 ofSnd @selected;
#X obj 526 388 t f;
#X text 628 427 ENVIA CENA SELECIONADA PARA SAÍDA;
#X obj 106 350 sel 0;
#X obj 316 350 sel 0;
#X obj 526 350 sel 0;
#X obj 736 350 sel 0;
#X obj 946 350 sel 0;
#X obj 1156 350 sel 0;
#X connect 0 0 24 0;
#X connect 1 0 31 0;
#X connect 2 0 3 0;
#X connect 3 0 4 0;
#X connect 8 0 9 0;
#X connect 9 0 14 0;
#X connect 9 1 37 0;
#X connect 10 0 11 0;
#X connect 13 0 34 0;
#X connect 14 0 13 0;
#X connect 14 1 38 0;
#X connect 15 0 25 0;
#X connect 16 0 17 0;
#X connect 17 0 45 0;
#X connect 18 0 32 0;
#X connect 19 0 32 0;
#X connect 20 0 13 1;
#X connect 20 1 21 0;
#X connect 21 0 22 0;
#X connect 23 0 46 0;
#X connect 24 0 16 0;
#X connect 29 0 44 0;
#X connect 31 0 2 0;
#X connect 32 0 23 0;
#X connect 32 0 52 0;
#X connect 32 0 56 0;
#X connect 32 0 55 0;
#X connect 32 0 54 0;
#X connect 32 0 53 0;
#X connect 33 1 66 0;
#X connect 34 0 17 1;
#X connect 37 0 10 0;
#X connect 38 0 20 0;
#X connect 39 1 67 0;
#X connect 40 1 68 0;
#X connect 41 1 69 0;
#X connect 42 1 70 0;
#X connect 43 1 71 0;
#X connect 44 0 15 0;
#X connect 44 1 33 0;
#X connect 44 2 39 0;
#X connect 44 3 40 0;
#X connect 44 4 41 0;
#X connect 44 5 42 0;
#X connect 44 6 43 0;
#X connect 45 0 29 0;
#X connect 46 0 33 3;
#X connect 47 0 39 3;
#X connect 48 0 40 3;
#X connect 49 0 41 3;
#X connect 50 0 42 3;
#X connect 51 0 43 3;
#X connect 52 0 47 0;
#X connect 53 0 48 0;
#X connect 54 0 49 0;
#X connect 55 0 50 0;
#X connect 56 0 51 0;
#X connect 57 0 64 0;
#X connect 58 0 64 0;
#X connect 59 0 64 0;
#X connect 60 0 64 0;
#X connect 61 0 64 0;
#X connect 62 0 64 0;
#X connect 64 0 63 0;
#X connect 66 0 57 0;
#X connect 67 0 58 0;
#X connect 68 0 59 0;
#X connect 69 0 60 0;
#X connect 70 0 61 0;
#X connect 71 0 62 0;
#X restore 70 478 pd DRAW_SCENES;
#X text 68 502 DESENHA CAPAS;
#X obj 250 280 t a a;
#X obj 277 299 s \$0-size;
#X text 344 299 ENVIA TAMANHO DA PÁGINA LOCALMENTE;
#X msg 364 478 60;
#X msg 394 478 120;
#X msg 426 478 180;
#X obj 337 182 t f f;
#X text 262 127 LARGURA;
#X text 262 140 ALTURA;
#X obj 295 182 t f;
#X obj 141 182 t b;
#X obj 363 607 ofRcv @selected;
#X obj 51 429 t b b b;
#X obj 363 646 outlet SELECTED_SCENE;
#X text 465 607 CENA SELECIONADA;
#X connect 0 0 12 0;
#X connect 1 0 25 0;
#X connect 3 0 33 0;
#X connect 4 0 11 0;
#X connect 6 0 32 0;
#X connect 9 0 32 0;
#X connect 10 0 16 0;
#X connect 10 1 35 0;
#X connect 12 0 53 0;
#X connect 12 1 13 0;
#X connect 13 0 14 0;
#X connect 14 0 4 0;
#X connect 14 1 15 0;
#X connect 15 0 13 1;
#X connect 16 0 13 1;
#X connect 18 0 19 0;
#X connect 19 0 2 0;
#X connect 21 0 41 0;
#X connect 22 0 21 0;
#X connect 22 1 37 0;
#X connect 25 0 26 0;
#X connect 26 0 0 0;
#X connect 27 0 5 0;
#X connect 28 0 9 0;
#X connect 29 0 28 1;
#X connect 31 0 7 0;
#X connect 32 0 8 0;
#X connect 33 0 51 0;
#X connect 33 1 10 0;
#X connect 33 2 22 0;
#X connect 33 3 50 0;
#X connect 33 4 47 0;
#X connect 35 0 0 1;
#X connect 37 0 35 1;
#X connect 38 0 44 0;
#X connect 38 1 45 0;
#X connect 38 2 46 0;
#X connect 41 0 31 0;
#X connect 41 1 42 0;
#X connect 44 0 32 4;
#X connect 45 0 32 4;
#X connect 46 0 32 4;
#X connect 47 0 37 1;
#X connect 47 1 38 0;
#X connect 50 0 21 1;
#X connect 51 0 16 0;
#X connect 52 0 54 0;
#X connect 53 0 18 0;
#X connect 53 1 39 0;
#X connect 53 2 28 0;
