#N canvas 16 242 1395 508 10;
#X obj 32 30 inlet RENDER_CHAIN;
#X obj 158 243 loadbang;
#N canvas 2 133 463 250 POS_SIZE 0;
#X msg 40 143 posX \$1;
#X msg 133 143 posY \$1;
#X msg 266 143 sizeX \$1;
#X msg 339 143 sizeY \$1;
#X obj 40 182 outlet CONTROLS;
#X obj 266 105 r \$0-h_button;
#X obj 331 41 inlet ID;
#X obj 331 60 t f;
#X obj 133 124 r \$0-h_offset;
#X obj 228 41 r \$0-w_main/8;
#X obj 125 41 r \$0-w_offset;
#X obj 125 96 +;
#X obj 228 78 *;
#X obj 40 41 r \$1-width;
#X obj 40 60 * 0.125;
#X obj 40 114 +;
#X obj 266 124 t f f;
#X connect 0 0 4 0;
#X connect 1 0 4 0;
#X connect 2 0 4 0;
#X connect 3 0 4 0;
#X connect 5 0 16 0;
#X connect 6 0 7 0;
#X connect 7 0 12 1;
#X connect 8 0 1 0;
#X connect 9 0 12 0;
#X connect 10 0 11 0;
#X connect 11 0 15 1;
#X connect 12 0 11 1;
#X connect 13 0 14 0;
#X connect 14 0 15 0;
#X connect 15 0 0 0;
#X connect 16 0 2 0;
#X connect 16 1 3 0;
#X restore 158 299 pd POS_SIZE;
#X msg 158 280 0;
#X obj 32 180 t b b b b b b b b;
#X obj 190 30 r \$1-h_tracks;
#X text 281 30 RECEBE ALTURA DAS TRACKS;
#X obj 510 30 r \$1-w_main;
#X text 589 30 RECEBE LARGURA DA ÁREA PRINCIPAL;
#X obj 510 59 / 8;
#X text 540 59 8 SUB-ÁREAS;
#X text 266 68 ALTURA DOS BOTÕES DE ÁUDIO;
#X text 326 106 ENVIA LOCALMENTE;
#X obj 510 105 -;
#X obj 510 124 / 2;
#X text 601 143 DESLOCAMENTO X RELATIVO À SUB-ÁREA;
#X obj 510 78 t f f f;
#X obj 549 97 s \$0-w_main/8;
#X text 640 97 TAMANHO DA SUB-ÁREA;
#X obj 510 143 s \$0-w_offset;
#X obj 236 106 s \$0-h_button;
#X obj 190 49 t f f;
#X obj 190 105 -;
#X obj 190 124 / 2;
#X obj 190 143 s \$0-h_offset;
#X text 281 143 DESLOCAMENTO Y RELATIVO À PISTA;
#X obj 158 262 t b b b b b b b b;
#X msg 1768 281 touch \$1;
#X obj 1768 300 t a a a a a a a a;
#X msg 69 373 0;
#X msg 159 373 3;
#X msg 99 373 1;
#X msg 129 373 2;
#N canvas 276 97 871 667 INTERACTION 0;
#X obj 45 36 inlet TOUCH_RELEASE;
#X obj 224 36 inlet MOVE;
#X obj 389 36 inlet EXTERNAL_MOVE;
#X obj 195 609 outlet VALUE;
#X obj 224 65 unpack f f f;
#X obj 224 140 spigot;
#X obj 257 121 == 0;
#X text 273 140 SÓ PASSA MOVIMENTO QUANDO SAI DO OBJETO, f 20;
#X obj 224 84 pack f f;
#X obj 377 561 == 0;
#X text 222 476 ENVIA MOVIMENTO DO TOQUE LOCAL PARA SISTEMA REMOTO
, f 25;
#X obj 224 379 spigot 1;
#X text 285 380 BLOQUEIA ENVIO LOCAL QUANDO SISTEMA FOR ATIVADO POR
OUTRO BOTÃO, f 20;
#X obj 269 341 t f f;
#X obj 45 85 t f f;
#X obj 45 104 sel 1 0;
#X msg 525 453 0;
#X obj 525 434 spigot;
#X obj 389 65 sel 1;
#X obj 332 609 outlet EXTERNAL_MOVE;
#X text 449 264 SISTEMA QUE PERMITE MOVIMENTO APENAS DO PRIMEIRO TOQUE
NO CONJUNTO, f 36;
#X text 392 580 IMPEDE LOOP LOCAL;
#X text 203 573 ATUALIZA VALOR DO OBJETO, f 14;
#X obj 269 322 spigot 1;
#X msg 314 303 0;
#X msg 344 303 1;
#X obj 458 359 f;
#X text 501 378 SE SISTEMA ESTIVER INATIVO \, REGISTRA ATIVIDADE;
#X obj 458 378 sel 0;
#X msg 458 397 1;
#X obj 269 360 == 0;
#X text 375 304 IMPEDE LOOP LOCAL;
#X text 571 453 DESLIGA REGISTRO NO RELEASE DO TOQUE LOCAL;
#X text 432 65 MOVIMENTO EXTERNO FUNCIONA COMO TOUCH;
#X obj 632 415 loadbang;
#X obj 293 84 change -1;
#X obj 458 169 t b b b;
#X obj 458 150 sel 0 1;
#X obj 293 103 t f f;
#X obj 477 229 spigot;
#X obj 525 472 t f f f b;
#X text 692 415 INICIALIZA SISTEMA;
#X msg 541 210 1;
#X msg 510 210 0;
#X text 516 150 QUANDO MOVIMENTO SAI DO OBJETO ATIVA SISTEMA DE INTERAÇÃO
DO CONJUNTO - QUANDO RETORNA MOVIMENTO PARA OBJETO ATUA NOVAMENTE COMO
TOUCH LOCAL, f 36;
#X obj 64 123 t b b;
#X obj 332 580 spigot 1;
#X text 465 609 PASSA MOVIMENTO DO SISTEMA REMOTO PARA OBJETO LOCAL
;
#X obj 99 306 s \$0-allOff;
#X obj 99 335 r \$0-allOff;
#X msg 99 402 0;
#X msg 65 402 1;
#X obj 269 264 r \$0-AUDIO_SLIDE_SYSTEM;
#X obj 458 491 s \$0-AUDIO_SLIDE_SYSTEM;
#X obj 224 452 s \$0-AUDIO_SLIDE;
#X obj 332 532 r \$0-AUDIO_SLIDE;
#X text 124 247 SISTEMA "RADIO";
#X obj 99 383 spigot 1;
#X msg 174 364 0;
#X msg 144 364 1;
#X obj 458 416 t f f;
#X obj 45 247 t b b b b b;
#X obj 45 609 outlet BANG;
#X text 54 573 ATUALIZA SISTEMA "RADIO" EXTERNAMENTE, f 20;
#X connect 0 0 14 0;
#X connect 1 0 4 0;
#X connect 2 0 18 0;
#X connect 4 0 8 0;
#X connect 4 1 8 1;
#X connect 4 2 35 0;
#X connect 5 0 11 0;
#X connect 6 0 5 1;
#X connect 8 0 5 0;
#X connect 9 0 46 1;
#X connect 11 0 54 0;
#X connect 13 0 30 0;
#X connect 13 1 26 1;
#X connect 14 0 15 0;
#X connect 14 1 9 0;
#X connect 15 0 61 0;
#X connect 15 1 45 0;
#X connect 16 0 40 0;
#X connect 17 0 16 0;
#X connect 18 0 61 0;
#X connect 23 0 13 0;
#X connect 24 0 23 1;
#X connect 25 0 23 1;
#X connect 26 0 28 0;
#X connect 28 0 29 0;
#X connect 29 0 60 0;
#X connect 30 0 11 1;
#X connect 34 0 16 0;
#X connect 35 0 38 0;
#X connect 36 0 26 0;
#X connect 36 1 24 0;
#X connect 36 2 42 0;
#X connect 37 0 36 0;
#X connect 37 1 39 0;
#X connect 38 0 6 0;
#X connect 38 1 37 0;
#X connect 39 0 61 0;
#X connect 40 0 53 0;
#X connect 40 1 17 1;
#X connect 40 3 25 0;
#X connect 42 0 39 1;
#X connect 43 0 39 1;
#X connect 45 0 17 0;
#X connect 45 1 43 0;
#X connect 46 0 19 0;
#X connect 49 0 57 0;
#X connect 50 0 3 0;
#X connect 51 0 3 0;
#X connect 52 0 23 0;
#X connect 55 0 46 0;
#X connect 57 0 50 0;
#X connect 58 0 57 1;
#X connect 59 0 57 1;
#X connect 60 0 53 0;
#X connect 60 1 17 1;
#X connect 61 0 62 0;
#X connect 61 1 51 0;
#X connect 61 2 59 0;
#X connect 61 3 48 0;
#X connect 61 4 58 0;
#X restore 69 337 pd INTERACTION;
#N canvas 276 97 871 667 INTERACTION 0;
#X obj 45 36 inlet TOUCH_RELEASE;
#X obj 224 36 inlet MOVE;
#X obj 389 36 inlet EXTERNAL_MOVE;
#X obj 195 609 outlet VALUE;
#X obj 224 65 unpack f f f;
#X obj 224 140 spigot;
#X obj 257 121 == 0;
#X text 273 140 SÓ PASSA MOVIMENTO QUANDO SAI DO OBJETO, f 20;
#X obj 224 84 pack f f;
#X obj 377 561 == 0;
#X text 222 476 ENVIA MOVIMENTO DO TOQUE LOCAL PARA SISTEMA REMOTO
, f 25;
#X obj 224 379 spigot 1;
#X text 285 380 BLOQUEIA ENVIO LOCAL QUANDO SISTEMA FOR ATIVADO POR
OUTRO BOTÃO, f 20;
#X obj 269 341 t f f;
#X obj 45 85 t f f;
#X obj 45 104 sel 1 0;
#X msg 525 453 0;
#X obj 525 434 spigot;
#X obj 389 65 sel 1;
#X obj 332 609 outlet EXTERNAL_MOVE;
#X text 449 264 SISTEMA QUE PERMITE MOVIMENTO APENAS DO PRIMEIRO TOQUE
NO CONJUNTO, f 36;
#X text 392 580 IMPEDE LOOP LOCAL;
#X text 203 573 ATUALIZA VALOR DO OBJETO, f 14;
#X obj 269 322 spigot 1;
#X msg 314 303 0;
#X msg 344 303 1;
#X obj 458 359 f;
#X text 501 378 SE SISTEMA ESTIVER INATIVO \, REGISTRA ATIVIDADE;
#X obj 458 378 sel 0;
#X msg 458 397 1;
#X obj 269 360 == 0;
#X text 375 304 IMPEDE LOOP LOCAL;
#X text 571 453 DESLIGA REGISTRO NO RELEASE DO TOQUE LOCAL;
#X text 432 65 MOVIMENTO EXTERNO FUNCIONA COMO TOUCH;
#X obj 632 415 loadbang;
#X obj 293 84 change -1;
#X obj 458 169 t b b b;
#X obj 458 150 sel 0 1;
#X obj 293 103 t f f;
#X obj 477 229 spigot;
#X obj 525 472 t f f f b;
#X text 692 415 INICIALIZA SISTEMA;
#X msg 541 210 1;
#X msg 510 210 0;
#X text 516 150 QUANDO MOVIMENTO SAI DO OBJETO ATIVA SISTEMA DE INTERAÇÃO
DO CONJUNTO - QUANDO RETORNA MOVIMENTO PARA OBJETO ATUA NOVAMENTE COMO
TOUCH LOCAL, f 36;
#X obj 64 123 t b b;
#X obj 332 580 spigot 1;
#X text 465 609 PASSA MOVIMENTO DO SISTEMA REMOTO PARA OBJETO LOCAL
;
#X obj 99 306 s \$0-allOff;
#X obj 99 335 r \$0-allOff;
#X msg 99 402 0;
#X msg 65 402 1;
#X obj 269 264 r \$0-AUDIO_SLIDE_SYSTEM;
#X obj 458 491 s \$0-AUDIO_SLIDE_SYSTEM;
#X obj 224 452 s \$0-AUDIO_SLIDE;
#X obj 332 532 r \$0-AUDIO_SLIDE;
#X text 124 247 SISTEMA "RADIO";
#X obj 99 383 spigot 1;
#X msg 174 364 0;
#X msg 144 364 1;
#X obj 458 416 t f f;
#X obj 45 247 t b b b b b;
#X obj 45 609 outlet BANG;
#X text 54 573 ATUALIZA SISTEMA "RADIO" EXTERNAMENTE, f 20;
#X connect 0 0 14 0;
#X connect 1 0 4 0;
#X connect 2 0 18 0;
#X connect 4 0 8 0;
#X connect 4 1 8 1;
#X connect 4 2 35 0;
#X connect 5 0 11 0;
#X connect 6 0 5 1;
#X connect 8 0 5 0;
#X connect 9 0 46 1;
#X connect 11 0 54 0;
#X connect 13 0 30 0;
#X connect 13 1 26 1;
#X connect 14 0 15 0;
#X connect 14 1 9 0;
#X connect 15 0 61 0;
#X connect 15 1 45 0;
#X connect 16 0 40 0;
#X connect 17 0 16 0;
#X connect 18 0 61 0;
#X connect 23 0 13 0;
#X connect 24 0 23 1;
#X connect 25 0 23 1;
#X connect 26 0 28 0;
#X connect 28 0 29 0;
#X connect 29 0 60 0;
#X connect 30 0 11 1;
#X connect 34 0 16 0;
#X connect 35 0 38 0;
#X connect 36 0 26 0;
#X connect 36 1 24 0;
#X connect 36 2 42 0;
#X connect 37 0 36 0;
#X connect 37 1 39 0;
#X connect 38 0 6 0;
#X connect 38 1 37 0;
#X connect 39 0 61 0;
#X connect 40 0 53 0;
#X connect 40 1 17 1;
#X connect 40 3 25 0;
#X connect 42 0 39 1;
#X connect 43 0 39 1;
#X connect 45 0 17 0;
#X connect 45 1 43 0;
#X connect 46 0 19 0;
#X connect 49 0 57 0;
#X connect 50 0 3 0;
#X connect 51 0 3 0;
#X connect 52 0 23 0;
#X connect 55 0 46 0;
#X connect 57 0 50 0;
#X connect 58 0 57 1;
#X connect 59 0 57 1;
#X connect 60 0 53 0;
#X connect 60 1 17 1;
#X connect 61 0 62 0;
#X connect 61 1 51 0;
#X connect 61 2 59 0;
#X connect 61 3 48 0;
#X connect 61 4 58 0;
#X restore 286 337 pd INTERACTION;
#N canvas 276 97 871 667 INTERACTION 0;
#X obj 45 36 inlet TOUCH_RELEASE;
#X obj 224 36 inlet MOVE;
#X obj 389 36 inlet EXTERNAL_MOVE;
#X obj 195 609 outlet VALUE;
#X obj 224 65 unpack f f f;
#X obj 224 140 spigot;
#X obj 257 121 == 0;
#X text 273 140 SÓ PASSA MOVIMENTO QUANDO SAI DO OBJETO, f 20;
#X obj 224 84 pack f f;
#X obj 377 561 == 0;
#X text 222 476 ENVIA MOVIMENTO DO TOQUE LOCAL PARA SISTEMA REMOTO
, f 25;
#X obj 224 379 spigot 1;
#X text 285 380 BLOQUEIA ENVIO LOCAL QUANDO SISTEMA FOR ATIVADO POR
OUTRO BOTÃO, f 20;
#X obj 269 341 t f f;
#X obj 45 85 t f f;
#X obj 45 104 sel 1 0;
#X msg 525 453 0;
#X obj 525 434 spigot;
#X obj 389 65 sel 1;
#X obj 332 609 outlet EXTERNAL_MOVE;
#X text 449 264 SISTEMA QUE PERMITE MOVIMENTO APENAS DO PRIMEIRO TOQUE
NO CONJUNTO, f 36;
#X text 392 580 IMPEDE LOOP LOCAL;
#X text 203 573 ATUALIZA VALOR DO OBJETO, f 14;
#X obj 269 322 spigot 1;
#X msg 314 303 0;
#X msg 344 303 1;
#X obj 458 359 f;
#X text 501 378 SE SISTEMA ESTIVER INATIVO \, REGISTRA ATIVIDADE;
#X obj 458 378 sel 0;
#X msg 458 397 1;
#X obj 269 360 == 0;
#X text 375 304 IMPEDE LOOP LOCAL;
#X text 571 453 DESLIGA REGISTRO NO RELEASE DO TOQUE LOCAL;
#X text 432 65 MOVIMENTO EXTERNO FUNCIONA COMO TOUCH;
#X obj 632 415 loadbang;
#X obj 293 84 change -1;
#X obj 458 169 t b b b;
#X obj 458 150 sel 0 1;
#X obj 293 103 t f f;
#X obj 477 229 spigot;
#X obj 525 472 t f f f b;
#X text 692 415 INICIALIZA SISTEMA;
#X msg 541 210 1;
#X msg 510 210 0;
#X text 516 150 QUANDO MOVIMENTO SAI DO OBJETO ATIVA SISTEMA DE INTERAÇÃO
DO CONJUNTO - QUANDO RETORNA MOVIMENTO PARA OBJETO ATUA NOVAMENTE COMO
TOUCH LOCAL, f 36;
#X obj 64 123 t b b;
#X obj 332 580 spigot 1;
#X text 465 609 PASSA MOVIMENTO DO SISTEMA REMOTO PARA OBJETO LOCAL
;
#X obj 99 306 s \$0-allOff;
#X obj 99 335 r \$0-allOff;
#X msg 99 402 0;
#X msg 65 402 1;
#X obj 269 264 r \$0-AUDIO_SLIDE_SYSTEM;
#X obj 458 491 s \$0-AUDIO_SLIDE_SYSTEM;
#X obj 224 452 s \$0-AUDIO_SLIDE;
#X obj 332 532 r \$0-AUDIO_SLIDE;
#X text 124 247 SISTEMA "RADIO";
#X obj 99 383 spigot 1;
#X msg 174 364 0;
#X msg 144 364 1;
#X obj 458 416 t f f;
#X obj 45 247 t b b b b b;
#X obj 45 609 outlet BANG;
#X text 54 573 ATUALIZA SISTEMA "RADIO" EXTERNAMENTE, f 20;
#X connect 0 0 14 0;
#X connect 1 0 4 0;
#X connect 2 0 18 0;
#X connect 4 0 8 0;
#X connect 4 1 8 1;
#X connect 4 2 35 0;
#X connect 5 0 11 0;
#X connect 6 0 5 1;
#X connect 8 0 5 0;
#X connect 9 0 46 1;
#X connect 11 0 54 0;
#X connect 13 0 30 0;
#X connect 13 1 26 1;
#X connect 14 0 15 0;
#X connect 14 1 9 0;
#X connect 15 0 61 0;
#X connect 15 1 45 0;
#X connect 16 0 40 0;
#X connect 17 0 16 0;
#X connect 18 0 61 0;
#X connect 23 0 13 0;
#X connect 24 0 23 1;
#X connect 25 0 23 1;
#X connect 26 0 28 0;
#X connect 28 0 29 0;
#X connect 29 0 60 0;
#X connect 30 0 11 1;
#X connect 34 0 16 0;
#X connect 35 0 38 0;
#X connect 36 0 26 0;
#X connect 36 1 24 0;
#X connect 36 2 42 0;
#X connect 37 0 36 0;
#X connect 37 1 39 0;
#X connect 38 0 6 0;
#X connect 38 1 37 0;
#X connect 39 0 61 0;
#X connect 40 0 53 0;
#X connect 40 1 17 1;
#X connect 40 3 25 0;
#X connect 42 0 39 1;
#X connect 43 0 39 1;
#X connect 45 0 17 0;
#X connect 45 1 43 0;
#X connect 46 0 19 0;
#X connect 49 0 57 0;
#X connect 50 0 3 0;
#X connect 51 0 3 0;
#X connect 52 0 23 0;
#X connect 55 0 46 0;
#X connect 57 0 50 0;
#X connect 58 0 57 1;
#X connect 59 0 57 1;
#X connect 60 0 53 0;
#X connect 60 1 17 1;
#X connect 61 0 62 0;
#X connect 61 1 51 0;
#X connect 61 2 59 0;
#X connect 61 3 48 0;
#X connect 61 4 58 0;
#X restore 503 337 pd INTERACTION;
#N canvas 276 97 871 667 INTERACTION 0;
#X obj 45 36 inlet TOUCH_RELEASE;
#X obj 224 36 inlet MOVE;
#X obj 389 36 inlet EXTERNAL_MOVE;
#X obj 195 609 outlet VALUE;
#X obj 224 65 unpack f f f;
#X obj 224 140 spigot;
#X obj 257 121 == 0;
#X text 273 140 SÓ PASSA MOVIMENTO QUANDO SAI DO OBJETO, f 20;
#X obj 224 84 pack f f;
#X obj 377 561 == 0;
#X text 222 476 ENVIA MOVIMENTO DO TOQUE LOCAL PARA SISTEMA REMOTO
, f 25;
#X obj 224 379 spigot 1;
#X text 285 380 BLOQUEIA ENVIO LOCAL QUANDO SISTEMA FOR ATIVADO POR
OUTRO BOTÃO, f 20;
#X obj 269 341 t f f;
#X obj 45 85 t f f;
#X obj 45 104 sel 1 0;
#X msg 525 453 0;
#X obj 525 434 spigot;
#X obj 389 65 sel 1;
#X obj 332 609 outlet EXTERNAL_MOVE;
#X text 449 264 SISTEMA QUE PERMITE MOVIMENTO APENAS DO PRIMEIRO TOQUE
NO CONJUNTO, f 36;
#X text 392 580 IMPEDE LOOP LOCAL;
#X text 203 573 ATUALIZA VALOR DO OBJETO, f 14;
#X obj 269 322 spigot 1;
#X msg 314 303 0;
#X msg 344 303 1;
#X obj 458 359 f;
#X text 501 378 SE SISTEMA ESTIVER INATIVO \, REGISTRA ATIVIDADE;
#X obj 458 378 sel 0;
#X msg 458 397 1;
#X obj 269 360 == 0;
#X text 375 304 IMPEDE LOOP LOCAL;
#X text 571 453 DESLIGA REGISTRO NO RELEASE DO TOQUE LOCAL;
#X text 432 65 MOVIMENTO EXTERNO FUNCIONA COMO TOUCH;
#X obj 632 415 loadbang;
#X obj 293 84 change -1;
#X obj 458 169 t b b b;
#X obj 458 150 sel 0 1;
#X obj 293 103 t f f;
#X obj 477 229 spigot;
#X obj 525 472 t f f f b;
#X text 692 415 INICIALIZA SISTEMA;
#X msg 541 210 1;
#X msg 510 210 0;
#X text 516 150 QUANDO MOVIMENTO SAI DO OBJETO ATIVA SISTEMA DE INTERAÇÃO
DO CONJUNTO - QUANDO RETORNA MOVIMENTO PARA OBJETO ATUA NOVAMENTE COMO
TOUCH LOCAL, f 36;
#X obj 64 123 t b b;
#X obj 332 580 spigot 1;
#X text 465 609 PASSA MOVIMENTO DO SISTEMA REMOTO PARA OBJETO LOCAL
;
#X obj 99 306 s \$0-allOff;
#X obj 99 335 r \$0-allOff;
#X msg 99 402 0;
#X msg 65 402 1;
#X obj 269 264 r \$0-AUDIO_SLIDE_SYSTEM;
#X obj 458 491 s \$0-AUDIO_SLIDE_SYSTEM;
#X obj 224 452 s \$0-AUDIO_SLIDE;
#X obj 332 532 r \$0-AUDIO_SLIDE;
#X text 124 247 SISTEMA "RADIO";
#X obj 99 383 spigot 1;
#X msg 174 364 0;
#X msg 144 364 1;
#X obj 458 416 t f f;
#X obj 45 247 t b b b b b;
#X obj 45 609 outlet BANG;
#X text 54 573 ATUALIZA SISTEMA "RADIO" EXTERNAMENTE, f 20;
#X connect 0 0 14 0;
#X connect 1 0 4 0;
#X connect 2 0 18 0;
#X connect 4 0 8 0;
#X connect 4 1 8 1;
#X connect 4 2 35 0;
#X connect 5 0 11 0;
#X connect 6 0 5 1;
#X connect 8 0 5 0;
#X connect 9 0 46 1;
#X connect 11 0 54 0;
#X connect 13 0 30 0;
#X connect 13 1 26 1;
#X connect 14 0 15 0;
#X connect 14 1 9 0;
#X connect 15 0 61 0;
#X connect 15 1 45 0;
#X connect 16 0 40 0;
#X connect 17 0 16 0;
#X connect 18 0 61 0;
#X connect 23 0 13 0;
#X connect 24 0 23 1;
#X connect 25 0 23 1;
#X connect 26 0 28 0;
#X connect 28 0 29 0;
#X connect 29 0 60 0;
#X connect 30 0 11 1;
#X connect 34 0 16 0;
#X connect 35 0 38 0;
#X connect 36 0 26 0;
#X connect 36 1 24 0;
#X connect 36 2 42 0;
#X connect 37 0 36 0;
#X connect 37 1 39 0;
#X connect 38 0 6 0;
#X connect 38 1 37 0;
#X connect 39 0 61 0;
#X connect 40 0 53 0;
#X connect 40 1 17 1;
#X connect 40 3 25 0;
#X connect 42 0 39 1;
#X connect 43 0 39 1;
#X connect 45 0 17 0;
#X connect 45 1 43 0;
#X connect 46 0 19 0;
#X connect 49 0 57 0;
#X connect 50 0 3 0;
#X connect 51 0 3 0;
#X connect 52 0 23 0;
#X connect 55 0 46 0;
#X connect 57 0 50 0;
#X connect 58 0 57 1;
#X connect 59 0 57 1;
#X connect 60 0 53 0;
#X connect 60 1 17 1;
#X connect 61 0 62 0;
#X connect 61 1 51 0;
#X connect 61 2 59 0;
#X connect 61 3 48 0;
#X connect 61 4 58 0;
#X restore 720 337 pd INTERACTION;
#N canvas 276 97 871 667 INTERACTION 0;
#X obj 45 36 inlet TOUCH_RELEASE;
#X obj 224 36 inlet MOVE;
#X obj 389 36 inlet EXTERNAL_MOVE;
#X obj 195 609 outlet VALUE;
#X obj 224 65 unpack f f f;
#X obj 224 140 spigot;
#X obj 257 121 == 0;
#X text 273 140 SÓ PASSA MOVIMENTO QUANDO SAI DO OBJETO, f 20;
#X obj 224 84 pack f f;
#X obj 377 561 == 0;
#X text 222 476 ENVIA MOVIMENTO DO TOQUE LOCAL PARA SISTEMA REMOTO
, f 25;
#X obj 224 379 spigot 1;
#X text 285 380 BLOQUEIA ENVIO LOCAL QUANDO SISTEMA FOR ATIVADO POR
OUTRO BOTÃO, f 20;
#X obj 269 341 t f f;
#X obj 45 85 t f f;
#X obj 45 104 sel 1 0;
#X msg 525 453 0;
#X obj 525 434 spigot;
#X obj 389 65 sel 1;
#X obj 332 609 outlet EXTERNAL_MOVE;
#X text 449 264 SISTEMA QUE PERMITE MOVIMENTO APENAS DO PRIMEIRO TOQUE
NO CONJUNTO, f 36;
#X text 392 580 IMPEDE LOOP LOCAL;
#X text 203 573 ATUALIZA VALOR DO OBJETO, f 14;
#X obj 269 322 spigot 1;
#X msg 314 303 0;
#X msg 344 303 1;
#X obj 458 359 f;
#X text 501 378 SE SISTEMA ESTIVER INATIVO \, REGISTRA ATIVIDADE;
#X obj 458 378 sel 0;
#X msg 458 397 1;
#X obj 269 360 == 0;
#X text 375 304 IMPEDE LOOP LOCAL;
#X text 571 453 DESLIGA REGISTRO NO RELEASE DO TOQUE LOCAL;
#X text 432 65 MOVIMENTO EXTERNO FUNCIONA COMO TOUCH;
#X obj 632 415 loadbang;
#X obj 293 84 change -1;
#X obj 458 169 t b b b;
#X obj 458 150 sel 0 1;
#X obj 293 103 t f f;
#X obj 477 229 spigot;
#X obj 525 472 t f f f b;
#X text 692 415 INICIALIZA SISTEMA;
#X msg 541 210 1;
#X msg 510 210 0;
#X text 516 150 QUANDO MOVIMENTO SAI DO OBJETO ATIVA SISTEMA DE INTERAÇÃO
DO CONJUNTO - QUANDO RETORNA MOVIMENTO PARA OBJETO ATUA NOVAMENTE COMO
TOUCH LOCAL, f 36;
#X obj 64 123 t b b;
#X obj 332 580 spigot 1;
#X text 465 609 PASSA MOVIMENTO DO SISTEMA REMOTO PARA OBJETO LOCAL
;
#X obj 99 306 s \$0-allOff;
#X obj 99 335 r \$0-allOff;
#X msg 99 402 0;
#X msg 65 402 1;
#X obj 269 264 r \$0-AUDIO_SLIDE_SYSTEM;
#X obj 458 491 s \$0-AUDIO_SLIDE_SYSTEM;
#X obj 224 452 s \$0-AUDIO_SLIDE;
#X obj 332 532 r \$0-AUDIO_SLIDE;
#X text 124 247 SISTEMA "RADIO";
#X obj 99 383 spigot 1;
#X msg 174 364 0;
#X msg 144 364 1;
#X obj 458 416 t f f;
#X obj 45 247 t b b b b b;
#X obj 45 609 outlet BANG;
#X text 54 573 ATUALIZA SISTEMA "RADIO" EXTERNAMENTE, f 20;
#X connect 0 0 14 0;
#X connect 1 0 4 0;
#X connect 2 0 18 0;
#X connect 4 0 8 0;
#X connect 4 1 8 1;
#X connect 4 2 35 0;
#X connect 5 0 11 0;
#X connect 6 0 5 1;
#X connect 8 0 5 0;
#X connect 9 0 46 1;
#X connect 11 0 54 0;
#X connect 13 0 30 0;
#X connect 13 1 26 1;
#X connect 14 0 15 0;
#X connect 14 1 9 0;
#X connect 15 0 61 0;
#X connect 15 1 45 0;
#X connect 16 0 40 0;
#X connect 17 0 16 0;
#X connect 18 0 61 0;
#X connect 23 0 13 0;
#X connect 24 0 23 1;
#X connect 25 0 23 1;
#X connect 26 0 28 0;
#X connect 28 0 29 0;
#X connect 29 0 60 0;
#X connect 30 0 11 1;
#X connect 34 0 16 0;
#X connect 35 0 38 0;
#X connect 36 0 26 0;
#X connect 36 1 24 0;
#X connect 36 2 42 0;
#X connect 37 0 36 0;
#X connect 37 1 39 0;
#X connect 38 0 6 0;
#X connect 38 1 37 0;
#X connect 39 0 61 0;
#X connect 40 0 53 0;
#X connect 40 1 17 1;
#X connect 40 3 25 0;
#X connect 42 0 39 1;
#X connect 43 0 39 1;
#X connect 45 0 17 0;
#X connect 45 1 43 0;
#X connect 46 0 19 0;
#X connect 49 0 57 0;
#X connect 50 0 3 0;
#X connect 51 0 3 0;
#X connect 52 0 23 0;
#X connect 55 0 46 0;
#X connect 57 0 50 0;
#X connect 58 0 57 1;
#X connect 59 0 57 1;
#X connect 60 0 53 0;
#X connect 60 1 17 1;
#X connect 61 0 62 0;
#X connect 61 1 51 0;
#X connect 61 2 59 0;
#X connect 61 3 48 0;
#X connect 61 4 58 0;
#X restore 937 337 pd INTERACTION;
#N canvas 276 97 871 667 INTERACTION 0;
#X obj 45 36 inlet TOUCH_RELEASE;
#X obj 224 36 inlet MOVE;
#X obj 389 36 inlet EXTERNAL_MOVE;
#X obj 195 609 outlet VALUE;
#X obj 224 65 unpack f f f;
#X obj 224 140 spigot;
#X obj 257 121 == 0;
#X text 273 140 SÓ PASSA MOVIMENTO QUANDO SAI DO OBJETO, f 20;
#X obj 224 84 pack f f;
#X obj 377 561 == 0;
#X text 222 476 ENVIA MOVIMENTO DO TOQUE LOCAL PARA SISTEMA REMOTO
, f 25;
#X obj 224 379 spigot 1;
#X text 285 380 BLOQUEIA ENVIO LOCAL QUANDO SISTEMA FOR ATIVADO POR
OUTRO BOTÃO, f 20;
#X obj 269 341 t f f;
#X obj 45 85 t f f;
#X obj 45 104 sel 1 0;
#X msg 525 453 0;
#X obj 525 434 spigot;
#X obj 389 65 sel 1;
#X obj 332 609 outlet EXTERNAL_MOVE;
#X text 449 264 SISTEMA QUE PERMITE MOVIMENTO APENAS DO PRIMEIRO TOQUE
NO CONJUNTO, f 36;
#X text 392 580 IMPEDE LOOP LOCAL;
#X text 203 573 ATUALIZA VALOR DO OBJETO, f 14;
#X obj 269 322 spigot 1;
#X msg 314 303 0;
#X msg 344 303 1;
#X obj 458 359 f;
#X text 501 378 SE SISTEMA ESTIVER INATIVO \, REGISTRA ATIVIDADE;
#X obj 458 378 sel 0;
#X msg 458 397 1;
#X obj 269 360 == 0;
#X text 375 304 IMPEDE LOOP LOCAL;
#X text 571 453 DESLIGA REGISTRO NO RELEASE DO TOQUE LOCAL;
#X text 432 65 MOVIMENTO EXTERNO FUNCIONA COMO TOUCH;
#X obj 632 415 loadbang;
#X obj 293 84 change -1;
#X obj 458 169 t b b b;
#X obj 458 150 sel 0 1;
#X obj 293 103 t f f;
#X obj 477 229 spigot;
#X obj 525 472 t f f f b;
#X text 692 415 INICIALIZA SISTEMA;
#X msg 541 210 1;
#X msg 510 210 0;
#X text 516 150 QUANDO MOVIMENTO SAI DO OBJETO ATIVA SISTEMA DE INTERAÇÃO
DO CONJUNTO - QUANDO RETORNA MOVIMENTO PARA OBJETO ATUA NOVAMENTE COMO
TOUCH LOCAL, f 36;
#X obj 64 123 t b b;
#X obj 332 580 spigot 1;
#X text 465 609 PASSA MOVIMENTO DO SISTEMA REMOTO PARA OBJETO LOCAL
;
#X obj 99 306 s \$0-allOff;
#X obj 99 335 r \$0-allOff;
#X msg 99 402 0;
#X msg 65 402 1;
#X obj 269 264 r \$0-AUDIO_SLIDE_SYSTEM;
#X obj 458 491 s \$0-AUDIO_SLIDE_SYSTEM;
#X obj 224 452 s \$0-AUDIO_SLIDE;
#X obj 332 532 r \$0-AUDIO_SLIDE;
#X text 124 247 SISTEMA "RADIO";
#X obj 99 383 spigot 1;
#X msg 174 364 0;
#X msg 144 364 1;
#X obj 458 416 t f f;
#X obj 45 247 t b b b b b;
#X obj 45 609 outlet BANG;
#X text 54 573 ATUALIZA SISTEMA "RADIO" EXTERNAMENTE, f 20;
#X connect 0 0 14 0;
#X connect 1 0 4 0;
#X connect 2 0 18 0;
#X connect 4 0 8 0;
#X connect 4 1 8 1;
#X connect 4 2 35 0;
#X connect 5 0 11 0;
#X connect 6 0 5 1;
#X connect 8 0 5 0;
#X connect 9 0 46 1;
#X connect 11 0 54 0;
#X connect 13 0 30 0;
#X connect 13 1 26 1;
#X connect 14 0 15 0;
#X connect 14 1 9 0;
#X connect 15 0 61 0;
#X connect 15 1 45 0;
#X connect 16 0 40 0;
#X connect 17 0 16 0;
#X connect 18 0 61 0;
#X connect 23 0 13 0;
#X connect 24 0 23 1;
#X connect 25 0 23 1;
#X connect 26 0 28 0;
#X connect 28 0 29 0;
#X connect 29 0 60 0;
#X connect 30 0 11 1;
#X connect 34 0 16 0;
#X connect 35 0 38 0;
#X connect 36 0 26 0;
#X connect 36 1 24 0;
#X connect 36 2 42 0;
#X connect 37 0 36 0;
#X connect 37 1 39 0;
#X connect 38 0 6 0;
#X connect 38 1 37 0;
#X connect 39 0 61 0;
#X connect 40 0 53 0;
#X connect 40 1 17 1;
#X connect 40 3 25 0;
#X connect 42 0 39 1;
#X connect 43 0 39 1;
#X connect 45 0 17 0;
#X connect 45 1 43 0;
#X connect 46 0 19 0;
#X connect 49 0 57 0;
#X connect 50 0 3 0;
#X connect 51 0 3 0;
#X connect 52 0 23 0;
#X connect 55 0 46 0;
#X connect 57 0 50 0;
#X connect 58 0 57 1;
#X connect 59 0 57 1;
#X connect 60 0 53 0;
#X connect 60 1 17 1;
#X connect 61 0 62 0;
#X connect 61 1 51 0;
#X connect 61 2 59 0;
#X connect 61 3 48 0;
#X connect 61 4 58 0;
#X restore 1154 337 pd INTERACTION;
#N canvas 276 97 871 667 INTERACTION 0;
#X obj 45 36 inlet TOUCH_RELEASE;
#X obj 224 36 inlet MOVE;
#X obj 389 36 inlet EXTERNAL_MOVE;
#X obj 195 609 outlet VALUE;
#X obj 224 65 unpack f f f;
#X obj 224 140 spigot;
#X obj 257 121 == 0;
#X text 273 140 SÓ PASSA MOVIMENTO QUANDO SAI DO OBJETO, f 20;
#X obj 224 84 pack f f;
#X obj 377 561 == 0;
#X text 222 476 ENVIA MOVIMENTO DO TOQUE LOCAL PARA SISTEMA REMOTO
, f 25;
#X obj 224 379 spigot 1;
#X text 285 380 BLOQUEIA ENVIO LOCAL QUANDO SISTEMA FOR ATIVADO POR
OUTRO BOTÃO, f 20;
#X obj 269 341 t f f;
#X obj 45 85 t f f;
#X obj 45 104 sel 1 0;
#X msg 525 453 0;
#X obj 525 434 spigot;
#X obj 389 65 sel 1;
#X obj 332 609 outlet EXTERNAL_MOVE;
#X text 449 264 SISTEMA QUE PERMITE MOVIMENTO APENAS DO PRIMEIRO TOQUE
NO CONJUNTO, f 36;
#X text 392 580 IMPEDE LOOP LOCAL;
#X text 203 573 ATUALIZA VALOR DO OBJETO, f 14;
#X obj 269 322 spigot 1;
#X msg 314 303 0;
#X msg 344 303 1;
#X obj 458 359 f;
#X text 501 378 SE SISTEMA ESTIVER INATIVO \, REGISTRA ATIVIDADE;
#X obj 458 378 sel 0;
#X msg 458 397 1;
#X obj 269 360 == 0;
#X text 375 304 IMPEDE LOOP LOCAL;
#X text 571 453 DESLIGA REGISTRO NO RELEASE DO TOQUE LOCAL;
#X text 432 65 MOVIMENTO EXTERNO FUNCIONA COMO TOUCH;
#X obj 632 415 loadbang;
#X obj 293 84 change -1;
#X obj 458 169 t b b b;
#X obj 458 150 sel 0 1;
#X obj 293 103 t f f;
#X obj 477 229 spigot;
#X obj 525 472 t f f f b;
#X text 692 415 INICIALIZA SISTEMA;
#X msg 541 210 1;
#X msg 510 210 0;
#X text 516 150 QUANDO MOVIMENTO SAI DO OBJETO ATIVA SISTEMA DE INTERAÇÃO
DO CONJUNTO - QUANDO RETORNA MOVIMENTO PARA OBJETO ATUA NOVAMENTE COMO
TOUCH LOCAL, f 36;
#X obj 64 123 t b b;
#X obj 332 580 spigot 1;
#X text 465 609 PASSA MOVIMENTO DO SISTEMA REMOTO PARA OBJETO LOCAL
;
#X obj 99 306 s \$0-allOff;
#X obj 99 335 r \$0-allOff;
#X msg 99 402 0;
#X msg 65 402 1;
#X obj 269 264 r \$0-AUDIO_SLIDE_SYSTEM;
#X obj 458 491 s \$0-AUDIO_SLIDE_SYSTEM;
#X obj 224 452 s \$0-AUDIO_SLIDE;
#X obj 332 532 r \$0-AUDIO_SLIDE;
#X text 124 247 SISTEMA "RADIO";
#X obj 99 383 spigot 1;
#X msg 174 364 0;
#X msg 144 364 1;
#X obj 458 416 t f f;
#X obj 45 247 t b b b b b;
#X obj 45 609 outlet BANG;
#X text 54 573 ATUALIZA SISTEMA "RADIO" EXTERNAMENTE, f 20;
#X connect 0 0 14 0;
#X connect 1 0 4 0;
#X connect 2 0 18 0;
#X connect 4 0 8 0;
#X connect 4 1 8 1;
#X connect 4 2 35 0;
#X connect 5 0 11 0;
#X connect 6 0 5 1;
#X connect 8 0 5 0;
#X connect 9 0 46 1;
#X connect 11 0 54 0;
#X connect 13 0 30 0;
#X connect 13 1 26 1;
#X connect 14 0 15 0;
#X connect 14 1 9 0;
#X connect 15 0 61 0;
#X connect 15 1 45 0;
#X connect 16 0 40 0;
#X connect 17 0 16 0;
#X connect 18 0 61 0;
#X connect 23 0 13 0;
#X connect 24 0 23 1;
#X connect 25 0 23 1;
#X connect 26 0 28 0;
#X connect 28 0 29 0;
#X connect 29 0 60 0;
#X connect 30 0 11 1;
#X connect 34 0 16 0;
#X connect 35 0 38 0;
#X connect 36 0 26 0;
#X connect 36 1 24 0;
#X connect 36 2 42 0;
#X connect 37 0 36 0;
#X connect 37 1 39 0;
#X connect 38 0 6 0;
#X connect 38 1 37 0;
#X connect 39 0 61 0;
#X connect 40 0 53 0;
#X connect 40 1 17 1;
#X connect 40 3 25 0;
#X connect 42 0 39 1;
#X connect 43 0 39 1;
#X connect 45 0 17 0;
#X connect 45 1 43 0;
#X connect 46 0 19 0;
#X connect 49 0 57 0;
#X connect 50 0 3 0;
#X connect 51 0 3 0;
#X connect 52 0 23 0;
#X connect 55 0 46 0;
#X connect 57 0 50 0;
#X connect 58 0 57 1;
#X connect 59 0 57 1;
#X connect 60 0 53 0;
#X connect 60 1 17 1;
#X connect 61 0 62 0;
#X connect 61 1 51 0;
#X connect 61 2 59 0;
#X connect 61 3 48 0;
#X connect 61 4 58 0;
#X restore 1371 337 pd INTERACTION;
#N canvas 276 97 871 667 INTERACTION 0;
#X obj 45 36 inlet TOUCH_RELEASE;
#X obj 224 36 inlet MOVE;
#X obj 389 36 inlet EXTERNAL_MOVE;
#X obj 195 609 outlet VALUE;
#X obj 224 65 unpack f f f;
#X obj 224 140 spigot;
#X obj 257 121 == 0;
#X text 273 140 SÓ PASSA MOVIMENTO QUANDO SAI DO OBJETO, f 20;
#X obj 224 84 pack f f;
#X obj 377 561 == 0;
#X text 222 476 ENVIA MOVIMENTO DO TOQUE LOCAL PARA SISTEMA REMOTO
, f 25;
#X obj 224 379 spigot 1;
#X text 285 380 BLOQUEIA ENVIO LOCAL QUANDO SISTEMA FOR ATIVADO POR
OUTRO BOTÃO, f 20;
#X obj 269 341 t f f;
#X obj 45 85 t f f;
#X obj 45 104 sel 1 0;
#X msg 525 453 0;
#X obj 525 434 spigot;
#X obj 389 65 sel 1;
#X obj 332 609 outlet EXTERNAL_MOVE;
#X text 449 264 SISTEMA QUE PERMITE MOVIMENTO APENAS DO PRIMEIRO TOQUE
NO CONJUNTO, f 36;
#X text 392 580 IMPEDE LOOP LOCAL;
#X text 203 573 ATUALIZA VALOR DO OBJETO, f 14;
#X obj 269 322 spigot 1;
#X msg 314 303 0;
#X msg 344 303 1;
#X obj 458 359 f;
#X text 501 378 SE SISTEMA ESTIVER INATIVO \, REGISTRA ATIVIDADE;
#X obj 458 378 sel 0;
#X msg 458 397 1;
#X obj 269 360 == 0;
#X text 375 304 IMPEDE LOOP LOCAL;
#X text 571 453 DESLIGA REGISTRO NO RELEASE DO TOQUE LOCAL;
#X text 432 65 MOVIMENTO EXTERNO FUNCIONA COMO TOUCH;
#X obj 632 415 loadbang;
#X obj 293 84 change -1;
#X obj 458 169 t b b b;
#X obj 458 150 sel 0 1;
#X obj 293 103 t f f;
#X obj 477 229 spigot;
#X obj 525 472 t f f f b;
#X text 692 415 INICIALIZA SISTEMA;
#X msg 541 210 1;
#X msg 510 210 0;
#X text 516 150 QUANDO MOVIMENTO SAI DO OBJETO ATIVA SISTEMA DE INTERAÇÃO
DO CONJUNTO - QUANDO RETORNA MOVIMENTO PARA OBJETO ATUA NOVAMENTE COMO
TOUCH LOCAL, f 36;
#X obj 64 123 t b b;
#X obj 332 580 spigot 1;
#X text 465 609 PASSA MOVIMENTO DO SISTEMA REMOTO PARA OBJETO LOCAL
;
#X obj 99 306 s \$0-allOff;
#X obj 99 335 r \$0-allOff;
#X msg 99 402 0;
#X msg 65 402 1;
#X obj 269 264 r \$0-AUDIO_SLIDE_SYSTEM;
#X obj 458 491 s \$0-AUDIO_SLIDE_SYSTEM;
#X obj 224 452 s \$0-AUDIO_SLIDE;
#X obj 332 532 r \$0-AUDIO_SLIDE;
#X text 124 247 SISTEMA "RADIO";
#X obj 99 383 spigot 1;
#X msg 174 364 0;
#X msg 144 364 1;
#X obj 458 416 t f f;
#X obj 45 247 t b b b b b;
#X obj 45 609 outlet BANG;
#X text 54 573 ATUALIZA SISTEMA "RADIO" EXTERNAMENTE, f 20;
#X connect 0 0 14 0;
#X connect 1 0 4 0;
#X connect 2 0 18 0;
#X connect 4 0 8 0;
#X connect 4 1 8 1;
#X connect 4 2 35 0;
#X connect 5 0 11 0;
#X connect 6 0 5 1;
#X connect 8 0 5 0;
#X connect 9 0 46 1;
#X connect 11 0 54 0;
#X connect 13 0 30 0;
#X connect 13 1 26 1;
#X connect 14 0 15 0;
#X connect 14 1 9 0;
#X connect 15 0 61 0;
#X connect 15 1 45 0;
#X connect 16 0 40 0;
#X connect 17 0 16 0;
#X connect 18 0 61 0;
#X connect 23 0 13 0;
#X connect 24 0 23 1;
#X connect 25 0 23 1;
#X connect 26 0 28 0;
#X connect 28 0 29 0;
#X connect 29 0 60 0;
#X connect 30 0 11 1;
#X connect 34 0 16 0;
#X connect 35 0 38 0;
#X connect 36 0 26 0;
#X connect 36 1 24 0;
#X connect 36 2 42 0;
#X connect 37 0 36 0;
#X connect 37 1 39 0;
#X connect 38 0 6 0;
#X connect 38 1 37 0;
#X connect 39 0 61 0;
#X connect 40 0 53 0;
#X connect 40 1 17 1;
#X connect 40 3 25 0;
#X connect 42 0 39 1;
#X connect 43 0 39 1;
#X connect 45 0 17 0;
#X connect 45 1 43 0;
#X connect 46 0 19 0;
#X connect 49 0 57 0;
#X connect 50 0 3 0;
#X connect 51 0 3 0;
#X connect 52 0 23 0;
#X connect 55 0 46 0;
#X connect 57 0 50 0;
#X connect 58 0 57 1;
#X connect 59 0 57 1;
#X connect 60 0 53 0;
#X connect 60 1 17 1;
#X connect 61 0 62 0;
#X connect 61 1 51 0;
#X connect 61 2 59 0;
#X connect 61 3 48 0;
#X connect 61 4 58 0;
#X restore 1588 337 pd INTERACTION;
#X msg 189 373 4;
#X msg 219 373 5;
#X msg 249 373 6;
#X msg 279 373 7;
#X obj 69 392 t f;
#X obj 69 431 outlet AUDIO;
#X text 153 431 ENVIA ÁUDIO ATIVO PARA CIMA;
#X obj 922 30 inlet VALUE_SET;
#X obj 922 209 sel 0 1 2 3 4 5 6 7;
#X msg 922 238 1;
#X msg 952 238 1;
#X msg 982 238 1;
#X msg 1012 238 1;
#X msg 1042 238 1;
#X msg 1072 238 1;
#X msg 1102 238 1;
#X msg 1132 238 1;
#N canvas 2 133 463 250 POS_SIZE 0;
#X msg 40 143 posX \$1;
#X msg 133 143 posY \$1;
#X msg 266 143 sizeX \$1;
#X msg 339 143 sizeY \$1;
#X obj 40 182 outlet CONTROLS;
#X obj 266 105 r \$0-h_button;
#X obj 331 41 inlet ID;
#X obj 331 60 t f;
#X obj 133 124 r \$0-h_offset;
#X obj 228 41 r \$0-w_main/8;
#X obj 125 41 r \$0-w_offset;
#X obj 125 96 +;
#X obj 228 78 *;
#X obj 40 41 r \$1-width;
#X obj 40 60 * 0.125;
#X obj 40 114 +;
#X obj 266 124 t f f;
#X connect 0 0 4 0;
#X connect 1 0 4 0;
#X connect 2 0 4 0;
#X connect 3 0 4 0;
#X connect 5 0 16 0;
#X connect 6 0 7 0;
#X connect 7 0 12 1;
#X connect 8 0 1 0;
#X connect 9 0 12 0;
#X connect 10 0 11 0;
#X connect 11 0 15 1;
#X connect 12 0 11 1;
#X connect 13 0 14 0;
#X connect 14 0 15 0;
#X connect 15 0 0 0;
#X connect 16 0 2 0;
#X connect 16 1 3 0;
#X restore 375 299 pd POS_SIZE;
#N canvas 2 133 463 250 POS_SIZE 0;
#X msg 40 143 posX \$1;
#X msg 133 143 posY \$1;
#X msg 266 143 sizeX \$1;
#X msg 339 143 sizeY \$1;
#X obj 40 182 outlet CONTROLS;
#X obj 266 105 r \$0-h_button;
#X obj 331 41 inlet ID;
#X obj 331 60 t f;
#X obj 133 124 r \$0-h_offset;
#X obj 228 41 r \$0-w_main/8;
#X obj 125 41 r \$0-w_offset;
#X obj 125 96 +;
#X obj 228 78 *;
#X obj 40 41 r \$1-width;
#X obj 40 60 * 0.125;
#X obj 40 114 +;
#X obj 266 124 t f f;
#X connect 0 0 4 0;
#X connect 1 0 4 0;
#X connect 2 0 4 0;
#X connect 3 0 4 0;
#X connect 5 0 16 0;
#X connect 6 0 7 0;
#X connect 7 0 12 1;
#X connect 8 0 1 0;
#X connect 9 0 12 0;
#X connect 10 0 11 0;
#X connect 11 0 15 1;
#X connect 12 0 11 1;
#X connect 13 0 14 0;
#X connect 14 0 15 0;
#X connect 15 0 0 0;
#X connect 16 0 2 0;
#X connect 16 1 3 0;
#X restore 592 299 pd POS_SIZE;
#N canvas 2 133 463 250 POS_SIZE 0;
#X msg 40 143 posX \$1;
#X msg 133 143 posY \$1;
#X msg 266 143 sizeX \$1;
#X msg 339 143 sizeY \$1;
#X obj 40 182 outlet CONTROLS;
#X obj 266 105 r \$0-h_button;
#X obj 331 41 inlet ID;
#X obj 331 60 t f;
#X obj 133 124 r \$0-h_offset;
#X obj 228 41 r \$0-w_main/8;
#X obj 125 41 r \$0-w_offset;
#X obj 125 96 +;
#X obj 228 78 *;
#X obj 40 41 r \$1-width;
#X obj 40 60 * 0.125;
#X obj 40 114 +;
#X obj 266 124 t f f;
#X connect 0 0 4 0;
#X connect 1 0 4 0;
#X connect 2 0 4 0;
#X connect 3 0 4 0;
#X connect 5 0 16 0;
#X connect 6 0 7 0;
#X connect 7 0 12 1;
#X connect 8 0 1 0;
#X connect 9 0 12 0;
#X connect 10 0 11 0;
#X connect 11 0 15 1;
#X connect 12 0 11 1;
#X connect 13 0 14 0;
#X connect 14 0 15 0;
#X connect 15 0 0 0;
#X connect 16 0 2 0;
#X connect 16 1 3 0;
#X restore 809 299 pd POS_SIZE;
#N canvas 2 133 463 250 POS_SIZE 0;
#X msg 40 143 posX \$1;
#X msg 133 143 posY \$1;
#X msg 266 143 sizeX \$1;
#X msg 339 143 sizeY \$1;
#X obj 40 182 outlet CONTROLS;
#X obj 266 105 r \$0-h_button;
#X obj 331 41 inlet ID;
#X obj 331 60 t f;
#X obj 133 124 r \$0-h_offset;
#X obj 228 41 r \$0-w_main/8;
#X obj 125 41 r \$0-w_offset;
#X obj 125 96 +;
#X obj 228 78 *;
#X obj 40 41 r \$1-width;
#X obj 40 60 * 0.125;
#X obj 40 114 +;
#X obj 266 124 t f f;
#X connect 0 0 4 0;
#X connect 1 0 4 0;
#X connect 2 0 4 0;
#X connect 3 0 4 0;
#X connect 5 0 16 0;
#X connect 6 0 7 0;
#X connect 7 0 12 1;
#X connect 8 0 1 0;
#X connect 9 0 12 0;
#X connect 10 0 11 0;
#X connect 11 0 15 1;
#X connect 12 0 11 1;
#X connect 13 0 14 0;
#X connect 14 0 15 0;
#X connect 15 0 0 0;
#X connect 16 0 2 0;
#X connect 16 1 3 0;
#X restore 1026 299 pd POS_SIZE;
#N canvas 2 133 463 250 POS_SIZE 0;
#X msg 40 143 posX \$1;
#X msg 133 143 posY \$1;
#X msg 266 143 sizeX \$1;
#X msg 339 143 sizeY \$1;
#X obj 40 182 outlet CONTROLS;
#X obj 266 105 r \$0-h_button;
#X obj 331 41 inlet ID;
#X obj 331 60 t f;
#X obj 133 124 r \$0-h_offset;
#X obj 228 41 r \$0-w_main/8;
#X obj 125 41 r \$0-w_offset;
#X obj 125 96 +;
#X obj 228 78 *;
#X obj 40 41 r \$1-width;
#X obj 40 60 * 0.125;
#X obj 40 114 +;
#X obj 266 124 t f f;
#X connect 0 0 4 0;
#X connect 1 0 4 0;
#X connect 2 0 4 0;
#X connect 3 0 4 0;
#X connect 5 0 16 0;
#X connect 6 0 7 0;
#X connect 7 0 12 1;
#X connect 8 0 1 0;
#X connect 9 0 12 0;
#X connect 10 0 11 0;
#X connect 11 0 15 1;
#X connect 12 0 11 1;
#X connect 13 0 14 0;
#X connect 14 0 15 0;
#X connect 15 0 0 0;
#X connect 16 0 2 0;
#X connect 16 1 3 0;
#X restore 1243 299 pd POS_SIZE;
#N canvas 2 133 463 250 POS_SIZE 0;
#X msg 40 143 posX \$1;
#X msg 133 143 posY \$1;
#X msg 266 143 sizeX \$1;
#X msg 339 143 sizeY \$1;
#X obj 40 182 outlet CONTROLS;
#X obj 266 105 r \$0-h_button;
#X obj 331 41 inlet ID;
#X obj 331 60 t f;
#X obj 133 124 r \$0-h_offset;
#X obj 228 41 r \$0-w_main/8;
#X obj 125 41 r \$0-w_offset;
#X obj 125 96 +;
#X obj 228 78 *;
#X obj 40 41 r \$1-width;
#X obj 40 60 * 0.125;
#X obj 40 114 +;
#X obj 266 124 t f f;
#X connect 0 0 4 0;
#X connect 1 0 4 0;
#X connect 2 0 4 0;
#X connect 3 0 4 0;
#X connect 5 0 16 0;
#X connect 6 0 7 0;
#X connect 7 0 12 1;
#X connect 8 0 1 0;
#X connect 9 0 12 0;
#X connect 10 0 11 0;
#X connect 11 0 15 1;
#X connect 12 0 11 1;
#X connect 13 0 14 0;
#X connect 14 0 15 0;
#X connect 15 0 0 0;
#X connect 16 0 2 0;
#X connect 16 1 3 0;
#X restore 1460 299 pd POS_SIZE;
#N canvas 2 133 463 250 POS_SIZE 0;
#X msg 40 143 posX \$1;
#X msg 133 143 posY \$1;
#X msg 266 143 sizeX \$1;
#X msg 339 143 sizeY \$1;
#X obj 40 182 outlet CONTROLS;
#X obj 266 105 r \$0-h_button;
#X obj 331 41 inlet ID;
#X obj 331 60 t f;
#X obj 133 124 r \$0-h_offset;
#X obj 228 41 r \$0-w_main/8;
#X obj 125 41 r \$0-w_offset;
#X obj 125 96 +;
#X obj 228 78 *;
#X obj 40 41 r \$1-width;
#X obj 40 60 * 0.125;
#X obj 40 114 +;
#X obj 266 124 t f f;
#X connect 0 0 4 0;
#X connect 1 0 4 0;
#X connect 2 0 4 0;
#X connect 3 0 4 0;
#X connect 5 0 16 0;
#X connect 6 0 7 0;
#X connect 7 0 12 1;
#X connect 8 0 1 0;
#X connect 9 0 12 0;
#X connect 10 0 11 0;
#X connect 11 0 15 1;
#X connect 12 0 11 1;
#X connect 13 0 14 0;
#X connect 14 0 15 0;
#X connect 15 0 0 0;
#X connect 16 0 2 0;
#X connect 16 1 3 0;
#X restore 1677 299 pd POS_SIZE;
#X msg 375 280 1;
#X msg 592 280 2;
#X msg 809 280 3;
#X msg 1026 280 4;
#X msg 1243 280 5;
#X msg 1460 280 6;
#X msg 1677 280 7;
#X obj 217 68 * 0.55;
#X obj 217 87 t f f f;
#X obj 32 318 gui_button \$1 0 0 1 1 1 0 1 24 0;
#X obj 249 318 gui_button \$1 0 0 1 1 0 0 1 24 0;
#X obj 466 318 gui_button \$1 0 0 1 1 0 0 1 24 0;
#X obj 683 318 gui_button \$1 0 0 1 1 0 0 1 24 0;
#X obj 900 318 gui_button \$1 0 0 1 1 0 0 1 24 0;
#X obj 1117 318 gui_button \$1 0 0 1 1 0 0 1 24 0;
#X obj 1334 318 gui_button \$1 0 0 1 1 0 0 1 24 0;
#X obj 1551 318 gui_button \$1 0 0 1 1 0 0 1 24 0;
#X obj 1159 43 r \$1-mainState;
#X text 1156 20 CONTROLE DE TOQUE;
#X obj 1283 53 t b f;
#X obj 1159 72 &&;
#X obj 1283 30 inlet TOUCH;
#X connect 0 0 4 0;
#X connect 1 0 26 0;
#X connect 2 0 74 3;
#X connect 3 0 2 0;
#X connect 4 0 74 0;
#X connect 4 1 75 0;
#X connect 4 2 76 0;
#X connect 4 3 77 0;
#X connect 4 4 78 0;
#X connect 4 5 79 0;
#X connect 4 6 80 0;
#X connect 4 7 81 0;
#X connect 5 0 21 0;
#X connect 7 0 9 0;
#X connect 9 0 16 0;
#X connect 13 0 14 0;
#X connect 14 0 19 0;
#X connect 16 0 13 0;
#X connect 16 2 17 0;
#X connect 21 0 22 0;
#X connect 21 1 72 0;
#X connect 22 0 23 0;
#X connect 23 0 24 0;
#X connect 26 0 3 0;
#X connect 26 1 65 0;
#X connect 26 2 66 0;
#X connect 26 3 67 0;
#X connect 26 4 68 0;
#X connect 26 5 69 0;
#X connect 26 6 70 0;
#X connect 26 7 71 0;
#X connect 27 0 28 0;
#X connect 28 0 74 3;
#X connect 28 1 75 3;
#X connect 28 2 76 3;
#X connect 28 3 77 3;
#X connect 28 4 78 3;
#X connect 28 5 79 3;
#X connect 28 6 80 3;
#X connect 28 7 81 3;
#X connect 29 0 45 0;
#X connect 30 0 45 0;
#X connect 31 0 45 0;
#X connect 32 0 45 0;
#X connect 33 0 29 0;
#X connect 33 1 74 2;
#X connect 33 2 74 1;
#X connect 34 0 31 0;
#X connect 34 1 75 2;
#X connect 34 2 75 1;
#X connect 35 0 32 0;
#X connect 35 1 76 2;
#X connect 35 2 76 1;
#X connect 36 0 30 0;
#X connect 36 1 77 2;
#X connect 36 2 77 1;
#X connect 37 0 41 0;
#X connect 37 1 78 2;
#X connect 37 2 78 1;
#X connect 38 0 42 0;
#X connect 38 1 79 2;
#X connect 38 2 79 1;
#X connect 39 0 43 0;
#X connect 39 1 80 2;
#X connect 39 2 80 1;
#X connect 40 0 44 0;
#X connect 40 1 81 2;
#X connect 40 2 81 1;
#X connect 41 0 45 0;
#X connect 42 0 45 0;
#X connect 43 0 45 0;
#X connect 44 0 45 0;
#X connect 45 0 46 0;
#X connect 48 0 49 0;
#X connect 49 0 50 0;
#X connect 49 1 51 0;
#X connect 49 2 52 0;
#X connect 49 3 53 0;
#X connect 49 4 54 0;
#X connect 49 5 55 0;
#X connect 49 6 56 0;
#X connect 49 7 57 0;
#X connect 50 0 33 2;
#X connect 51 0 34 2;
#X connect 52 0 35 2;
#X connect 53 0 36 2;
#X connect 54 0 37 2;
#X connect 55 0 38 2;
#X connect 56 0 39 2;
#X connect 57 0 40 2;
#X connect 58 0 75 3;
#X connect 59 0 76 3;
#X connect 60 0 77 3;
#X connect 61 0 78 3;
#X connect 62 0 79 3;
#X connect 63 0 80 3;
#X connect 64 0 81 3;
#X connect 65 0 58 0;
#X connect 66 0 59 0;
#X connect 67 0 60 0;
#X connect 68 0 61 0;
#X connect 69 0 62 0;
#X connect 70 0 63 0;
#X connect 71 0 64 0;
#X connect 72 0 73 0;
#X connect 73 0 22 1;
#X connect 73 1 20 0;
#X connect 73 2 13 1;
#X connect 74 1 33 0;
#X connect 74 3 33 1;
#X connect 74 4 33 2;
#X connect 75 1 34 0;
#X connect 75 3 34 1;
#X connect 75 4 34 2;
#X connect 76 1 35 0;
#X connect 76 3 35 1;
#X connect 76 4 35 2;
#X connect 77 1 36 0;
#X connect 77 3 36 1;
#X connect 77 4 36 2;
#X connect 78 1 37 0;
#X connect 78 3 37 1;
#X connect 78 4 37 2;
#X connect 79 1 38 0;
#X connect 79 3 38 1;
#X connect 79 4 38 2;
#X connect 80 1 39 0;
#X connect 80 3 39 1;
#X connect 80 4 39 2;
#X connect 81 1 40 0;
#X connect 81 3 40 1;
#X connect 81 4 40 2;
#X connect 82 0 85 0;
#X connect 84 0 85 0;
#X connect 84 1 85 1;
#X connect 85 0 27 0;
#X connect 86 0 84 0;
