#N canvas 85 165 680 717 10;
#X obj 51 275 ofTranslate;
#X obj 51 50 inlet RENDER_CHAIN;
#X obj 51 662 outlet RENDER_CHAIN;
#X obj 141 89 r \$0-refresh;
#X obj 78 361 ofGetTranslate;
#N canvas 374 164 624 449 CONTROLS 0;
#X obj 307 246 loadbang;
#X obj 50 351 s \$0-refresh;
#X obj 50 332 bang;
#X text 304 352 DEFINE VARIÁVEIS DO SISTEMA OFELIA, f 19;
#X text 47 375 ATUALIZA GRÁFICOS QUANDO MUDA PARÂMETROS VISUAIS,
f 24;
#X obj 50 25 inlet;
#X text 434 133 MEMÓRIA LOCAL;
#X obj 50 93 bit_param v\$0_posX \$0-memo 0 \$2;
#X obj 50 112 bit_param v\$0_posY \$0-memo 1 \$3;
#X obj 50 131 bit_param v\$0_sizeX \$0-memo 2 \$4;
#X obj 50 150 bit_param v\$0_sizeY \$0-memo 3 \$5;
#X obj 50 169 bit_param v\$0_index \$0-memo 4 \$6;
#X obj 237 322 ofDefine \; @posX \; @posY \; @sizeX \; @sizeY \; @index
\;;
#X msg 307 265 118 126 133 255;
#X obj 307 133 bit_memo \$0-memo 11;
#X obj 50 207 bit_param v\$0_drawPath \$0-memo 6 0;
#X obj 50 226 bit_param v\$0_drawPNG \$0-memo 7 1;
#X obj 50 245 bit_param v\$0_pngOffset \$0-memo 8 0;
#X obj 50 264 bit_param v\$0_touch \$0-memo 9 0;
#X obj 50 283 bit_param v\$0_bgColor \$0-memo 10;
#X obj 50 188 bit_param v\$0_sceneState \$0-memo 5 \$6;
#X obj 50 54 route posX posY sizeX sizeY index sceneState drawPath
drawPNG pngOffset touch bgColor, f 85;
#X connect 0 0 13 0;
#X connect 2 0 1 0;
#X connect 5 0 21 0;
#X connect 7 0 2 0;
#X connect 8 0 2 0;
#X connect 9 0 2 0;
#X connect 10 0 2 0;
#X connect 11 0 2 0;
#X connect 13 0 19 0;
#X connect 19 0 2 0;
#X connect 21 0 7 0;
#X connect 21 1 8 0;
#X connect 21 2 9 0;
#X connect 21 3 10 0;
#X connect 21 4 11 0;
#X connect 21 5 20 0;
#X connect 21 6 15 0;
#X connect 21 7 16 0;
#X connect 21 8 17 0;
#X connect 21 9 18 0;
#X connect 21 10 19 0;
#X restore 394 79 pd CONTROLS;
#N canvas 368 419 180 177 COLOR 0;
#X msg 38 69 set \$1 \$2 \$3 \$4;
#X obj 38 108 outlet;
#X obj 38 40 ofRcv @bgColor;
#X connect 0 0 1 0;
#X connect 2 0 0 0;
#X restore 499 494 pd COLOR;
#X obj 250 367 ofLoadPath2d \; @button \;;
#X obj 391 532 ofDrawPath2d @button;
#X obj 391 494 ofSetFillMode 1;
#X obj 186 202 t b f;
#X obj 78 380 s \$0-getTranslate;
#X obj 51 294 t b b;
#X obj 78 323 spigot;
#X obj 78 342 t b b;
#X msg 111 304 0;
#X msg 141 304 1;
#X text 76 404 OBTÉM POSIÇÃO LOCAL CADA VEZ QUE É ATUALIZADA,
f 24;
#X obj 51 604 ofPopMatrix;
#X obj 51 623 ofPopStyle;
#X text 389 556 DESENHA PATH;
#X obj 250 281 pack f f;
#X obj 250 202 t f f;
#X text 262 121 POS. X;
#X text 262 134 POS. Y;
#X obj 51 89 ofPushStyle;
#X obj 51 108 ofPushMatrix;
#X obj 394 50 inlet EXTERNAL_CONTROL;
#X obj 391 465 spigot;
#X obj 424 446 ofRcv @drawPath;
#X text 341 372 CARREGA PATH;
#X msg 250 348 load rect \$1 \$2;
#X obj 391 513 ofSetColor 118 126 133 255;
#X obj 141 108 ofExpr \; $o1 = int(@posX) \; $o2 = int(@posY) \; $o3
= int(@sizeX) \; $o4 = int(@sizeY) \; $o5 = int(@index) \;;
#X text 261 173 ÍNDICE FIXO;
#X obj 307 250 +;
#X text 338 250 DESLOCAMENTO DO ÍNDICE FIXO;
#X obj 322 231 *;
#X obj 544 446 sel -1 0 1;
#X obj 250 300 t a a;
#X obj 277 319 s \$0-size;
#X text 344 319 ENVIA TAMANHO DA PÁGINA LOCALMENTE;
#X msg 544 465 60;
#X msg 574 465 120;
#X msg 606 465 180;
#X obj 337 202 t f f;
#X text 262 147 LARGURA;
#X text 262 160 ALTURA;
#X obj 295 202 t f;
#X obj 141 202 t b;
#X obj 106 557 sel 1;
#X obj 70 538 gui_button \$1 0 0 1 1 0 0 1 0 1;
#N canvas -346 245 1312 315 PARAMS 0;
#X msg 169 212 sizeX \$1;
#X msg 236 212 sizeY \$1;
#X msg 657 212 drawPath \$1;
#X msg 547 212 drawPNG \$1;
#X msg 427 212 pngOffset \$1;
#X obj 547 193 ofRcv @drawPNG;
#X obj 657 193 ofRcv @drawPath;
#X obj 889 155 loadbang;
#X obj 889 193 f \$1;
#X msg 889 212 pngBank \$1-pngBankScenes;
#X text 942 176 NOME DO BANCO DE PNG DAS CAPAS, f 16;
#X obj 889 174 del 5;
#X text 118 35 TAMANHO DA PÁGINA;
#X obj 51 35 r \$0-size;
#X obj 51 54 unpack f f;
#X obj 108 130 -;
#X obj 108 73 t f f;
#X obj 108 149 / 2;
#X text 177 92 TAMANHO DA CAPA EM RELAÇÃO À ÁREA;
#X obj 51 130 / 2;
#X obj 51 149 -;
#X obj 152 130 / 2;
#X obj 135 111 t f f f f;
#X msg 51 212 posX \$1;
#X msg 108 212 posY \$1;
#X obj 135 92 * 0.9;
#X obj 427 193 ofRcv @pngOffset;
#X obj 772 193 ofRcv @touch;
#X msg 772 212 touch \$1;
#X msg 1077 212 pngAlpha \$1;
#X msg 1077 193 0.4;
#X msg 1107 193 1;
#X msg 1172 212 value \$1;
#X obj 1058 66 - 1;
#X obj 1019 47 moses 1;
#X obj 1019 28 ofRcv @sceneState;
#X msg 316 212 value \$1;
#X obj 427 261 outlet PARAMS_BUTTON;
#X obj 51 261 outlet PARAMS_WAIT;
#X msg 316 193 0;
#X msg 346 193 1;
#X text 1134 28 ESTADO DA CENA 0 - 3;
#X text 1088 66 CORRIGE PARA 0 - 2;
#X obj 1058 85 sel 0 1 2;
#X msg 1172 193 0;
#X msg 1202 193 1;
#X obj 1115 114 t b b b;
#X obj 1058 114 t b b b;
#X obj 1172 114 t b b b;
#X connect 0 0 37 0;
#X connect 0 0 38 0;
#X connect 1 0 37 0;
#X connect 1 0 38 0;
#X connect 2 0 37 0;
#X connect 3 0 37 0;
#X connect 4 0 37 0;
#X connect 5 0 3 0;
#X connect 6 0 2 0;
#X connect 7 0 11 0;
#X connect 8 0 9 0;
#X connect 9 0 37 0;
#X connect 11 0 8 0;
#X connect 13 0 14 0;
#X connect 14 0 19 0;
#X connect 14 1 16 0;
#X connect 15 0 17 0;
#X connect 16 0 15 0;
#X connect 16 1 25 0;
#X connect 17 0 24 0;
#X connect 19 0 20 0;
#X connect 20 0 23 0;
#X connect 21 0 20 1;
#X connect 22 0 15 1;
#X connect 22 1 21 0;
#X connect 22 2 0 0;
#X connect 22 3 1 0;
#X connect 23 0 37 0;
#X connect 23 0 38 0;
#X connect 24 0 37 0;
#X connect 24 0 38 0;
#X connect 25 0 22 0;
#X connect 26 0 4 0;
#X connect 27 0 28 0;
#X connect 28 0 37 0;
#X connect 29 0 37 0;
#X connect 30 0 29 0;
#X connect 31 0 29 0;
#X connect 32 0 37 0;
#X connect 33 0 43 0;
#X connect 34 1 33 0;
#X connect 35 0 34 0;
#X connect 36 0 38 0;
#X connect 39 0 36 0;
#X connect 40 0 36 0;
#X connect 43 0 47 0;
#X connect 43 1 46 0;
#X connect 43 2 48 0;
#X connect 44 0 32 0;
#X connect 45 0 32 0;
#X connect 46 0 39 0;
#X connect 46 1 31 0;
#X connect 46 2 45 0;
#X connect 47 0 39 0;
#X connect 47 1 30 0;
#X connect 47 2 44 0;
#X connect 48 0 40 0;
#X connect 48 1 30 0;
#X connect 48 2 44 0;
#X restore 202 519 pd PARAMS;
#X text 269 538 BOTÃO / CAPA;
#X obj 51 449 t b b b;
#X obj 70 519 gui_wait \$1;
#X connect 0 0 12 0;
#X connect 1 0 25 0;
#X connect 3 0 33 0;
#X connect 4 0 11 0;
#X connect 6 0 32 0;
#X connect 9 0 32 0;
#X connect 10 0 16 0;
#X connect 10 1 35 0;
#X connect 12 0 54 0;
#X connect 12 1 13 0;
#X connect 13 0 14 0;
#X connect 14 0 4 0;
#X connect 14 1 15 0;
#X connect 15 0 13 1;
#X connect 16 0 13 1;
#X connect 18 0 19 0;
#X connect 19 0 2 0;
#X connect 21 0 39 0;
#X connect 22 0 21 0;
#X connect 22 1 37 0;
#X connect 25 0 26 0;
#X connect 26 0 0 0;
#X connect 27 0 5 0;
#X connect 28 0 9 0;
#X connect 29 0 28 1;
#X connect 31 0 7 0;
#X connect 32 0 8 0;
#X connect 33 0 49 0;
#X connect 33 1 10 0;
#X connect 33 2 22 0;
#X connect 33 3 48 0;
#X connect 33 4 45 0;
#X connect 35 0 0 1;
#X connect 37 0 35 1;
#X connect 38 0 42 0;
#X connect 38 1 43 0;
#X connect 38 2 44 0;
#X connect 39 0 31 0;
#X connect 39 1 40 0;
#X connect 42 0 32 4;
#X connect 43 0 32 4;
#X connect 44 0 32 4;
#X connect 45 0 37 1;
#X connect 45 1 38 0;
#X connect 48 0 21 1;
#X connect 49 0 16 0;
#X connect 51 1 50 0;
#X connect 52 0 55 1;
#X connect 52 1 51 3;
#X connect 54 0 18 0;
#X connect 54 1 55 0;
#X connect 54 2 28 0;
#X connect 55 0 51 0;
