#N canvas 46 270 1096 626 10;
#X obj 52 210 ofTranslate 0 0 0;
#X obj 52 30 inlet RENDER_CHAIN;
#X obj 190 60 r \$1-h_tracks;
#X obj 190 135 -;
#X obj 190 79 t f f;
#X obj 190 154 / 2;
#X obj 190 173 t f f;
#X text 281 60 RECEBE ALTURA DAS TRACKS;
#X text 266 97 CÁLCULOS DOS VALORES LOCAIS;
#X text 326 155 ENVIA VALOR PARA SELETORES;
#X obj 236 136 / 2;
#X obj 99 397 sel 1;
#X obj 178 303 loadbang;
#X text 847 422 RELAÇÃO ENTRE OS 4 SELETORES - APENAS 1 LIGADO POR
VEZ, f 31;
#X msg 99 493 0;
#X msg 189 493 3;
#X msg 129 493 1;
#X msg 159 493 2;
#X obj 236 155 s \$0-h_tracks;
#X msg 145 435 0;
#X obj 145 454 t f f f;
#X obj 99 416 t b b b;
#X msg 118 435 1;
#X obj 310 397 sel 1;
#X msg 356 435 0;
#X obj 356 454 t f f f;
#X obj 310 416 t b b b;
#X msg 329 435 1;
#X obj 521 397 sel 1;
#X msg 567 435 0;
#X obj 567 454 t f f f;
#X obj 521 416 t b b b;
#X msg 540 435 1;
#X obj 732 397 sel 1;
#X msg 778 435 0;
#X obj 778 454 t f f f;
#X obj 732 416 t b b b;
#X msg 751 435 1;
#X obj 52 239 t b b b b b;
#N canvas 286 53 924 716 INTERACTION 0;
#X obj 45 36 inlet TOUCH_RELEASE;
#X obj 224 36 inlet MOVE;
#X obj 389 36 inlet EXTERNAL_MOVE;
#X obj 81 621 f 0;
#X obj 81 669 outlet VALUE;
#X obj 224 65 unpack f f f;
#X obj 224 140 spigot;
#X obj 257 121 == 0;
#X text 273 140 SÓ PASSA MOVIMENTO QUANDO SAI DO OBJETO, f 20;
#X obj 224 84 pack f f;
#X obj 72 545 == 0;
#X obj 224 323 spigot 1;
#X text 285 324 BLOQUEIA ENVIO LOCAL QUANDO SISTEMA FOR ATIVADO POR
OUTRO BOTÃO, f 20;
#X obj 269 285 t f f;
#X obj 45 65 t f f;
#X msg 585 397 0;
#X obj 585 378 spigot;
#X obj 389 65 sel 1;
#X obj 378 669 outlet EXTERNAL_MOVE;
#X text 474 208 SISTEMA QUE PERMITE MOVIMENTO APENAS DO PRIMEIRO TOQUE
NO CONJUNTO, f 36;
#X text 87 564 IMPEDE LOOP LOCAL;
#X text 166 669 ATUALIZA VALOR DO OBJETO;
#X obj 269 266 spigot 1;
#X msg 314 247 0;
#X msg 344 247 1;
#X obj 518 303 f;
#X text 561 322 SE SISTEMA ESTIVER INATIVO \, REGISTRA ATIVIDADE;
#X obj 518 322 sel 0;
#X msg 518 341 1;
#X obj 269 304 == 0;
#X text 375 248 IMPEDE LOOP LOCAL;
#X text 631 397 DESLIGA REGISTRO NO RELEASE DO TOQUE LOCAL;
#X obj 652 359 loadbang;
#X obj 293 84 change -1;
#X obj 293 103 t f f;
#X obj 585 416 t f f f b;
#X text 712 359 INICIALIZA SISTEMA;
#X obj 27 564 spigot 1;
#X text 511 669 PASSA MOVIMENTO DO SISTEMA REMOTO PARA OBJETO LOCAL
;
#X obj 224 412 list append 0;
#X obj 299 393 r \$0-ACTIVE_FUNCTION;
#X text 311 412 INCLUI FUNÇÃO ATIVA LOCAL;
#X text 222 475 ENVIA PACOTE LOCAL PARA SISTEMA REMOTO;
#X obj 27 593 unpack f f f;
#X obj 518 169 t b b;
#X obj 518 150 sel 0;
#X text 561 150 QUANDO MOVIMENTO SAI DO OBJETO ATIVA SISTEMA DE INTERAÇÃO
DO CONJUNTO, f 36;
#X obj 45 84 sel 0;
#X obj 378 611 pack f f;
#X text 112 621 ARMAZENA FUNÇÃO ATIVA NO SISTEMA;
#X text 432 65 ENVIA FUNÇÃO ATIVA NO SISTEMA LOCALMENTE QUANDO HÁ
MOVIMENTO EXTERNO NO OBJETO, f 40;
#X text 190 516 RECEBE SISTEMA REMOTO;
#X obj 269 208 r \$1-TRACK_FUNCTION_SLIDE_SYSTEM;
#X obj 518 435 s \$1-TRACK_FUNCTION_SLIDE_SYSTEM;
#X obj 224 451 s \$1-TRACK_FUNCTION_SLIDE;
#X obj 27 516 r \$1-TRACK_FUNCTION_SLIDE;
#X obj 518 360 t f f;
#X connect 0 0 14 0;
#X connect 1 0 5 0;
#X connect 2 0 17 0;
#X connect 3 0 4 0;
#X connect 5 0 9 0;
#X connect 5 1 9 1;
#X connect 5 2 33 0;
#X connect 6 0 11 0;
#X connect 7 0 6 1;
#X connect 9 0 6 0;
#X connect 10 0 37 1;
#X connect 11 0 39 0;
#X connect 13 0 29 0;
#X connect 13 1 25 1;
#X connect 14 0 47 0;
#X connect 14 1 10 0;
#X connect 15 0 35 0;
#X connect 16 0 15 0;
#X connect 17 0 3 0;
#X connect 22 0 13 0;
#X connect 23 0 22 1;
#X connect 24 0 22 1;
#X connect 25 0 27 0;
#X connect 27 0 28 0;
#X connect 28 0 56 0;
#X connect 29 0 11 1;
#X connect 32 0 15 0;
#X connect 33 0 34 0;
#X connect 34 0 7 0;
#X connect 34 1 45 0;
#X connect 35 0 53 0;
#X connect 35 1 16 1;
#X connect 35 3 24 0;
#X connect 37 0 43 0;
#X connect 39 0 54 0;
#X connect 40 0 39 1;
#X connect 43 0 48 0;
#X connect 43 1 48 1;
#X connect 43 2 3 1;
#X connect 44 0 25 0;
#X connect 44 1 23 0;
#X connect 45 0 44 0;
#X connect 47 0 16 0;
#X connect 48 0 18 0;
#X connect 52 0 22 0;
#X connect 55 0 37 0;
#X connect 56 0 53 0;
#X connect 56 1 16 1;
#X restore 685 276 pd INTERACTION;
#X obj 178 322 t b b b b;
#N canvas 790 516 234 198 SIZE 0;
#X msg 134 107 sizeX \$1;
#X msg 44 107 sizeY \$1;
#X obj 44 146 outlet CONTROLS;
#X obj 44 58 inlet H_BUTTON;
#X text 42 35 RECEBE ALTURA DO BOTÃO;
#X obj 44 77 t f f;
#X connect 0 0 2 0;
#X connect 1 0 2 0;
#X connect 3 0 5 0;
#X connect 5 0 1 0;
#X connect 5 1 0 0;
#X restore 784 238 pd SIZE;
#X obj 217 117 t f f f;
#X obj 99 561 outlet SELECT;
#X obj 126 531 s \$0-ACTIVE_FUNCTION;
#X text 258 531 ENVIA FUNÇÃO ATIVA PARA SISTEMA DE INTERAÇÃO EM
CONJUNTO;
#X obj 685 295 sel 0 1 2 3;
#X text 839 257 BOTÃO INVISÍVEL PARA INTERAÇÃO NO CONJUNTO DAS
TRACKS, f 30;
#X obj 99 512 t f f;
#X obj 640 257 gui_button \$1 0 0 1 1 0 0 0 0 1;
#X text 190 561 ENVIA FUNÇÃO ATIVA PARA CIMA;
#X text 267 136 DIVIDE POR 2 LINHAS/COLUNAS;
#N canvas 2 137 429 339 POS_SIZE 0;
#X obj 277 123 t f f;
#X obj 134 179 *;
#X obj 51 179 *;
#X obj 322 142 mod 2;
#X obj 277 142 div 2;
#X obj 277 104 inlet ID;
#X obj 277 161 t b f;
#X obj 322 161 t b f;
#X msg 51 227 posX \$1;
#X msg 134 227 posY \$1;
#X msg 217 227 sizeX \$1;
#X msg 297 227 sizeY \$1;
#X obj 51 266 outlet CONTROLS;
#X obj 122 117 -;
#X obj 122 136 / 2;
#X obj 51 43 r \$0-h_tracks;
#X obj 149 99 t f f f;
#X obj 122 155 t f f;
#X obj 51 62 t f f f f;
#X obj 134 198 +;
#X obj 51 198 +;
#X obj 149 80 * 0.95;
#X connect 0 0 4 0;
#X connect 0 1 3 0;
#X connect 1 0 19 0;
#X connect 2 0 20 0;
#X connect 3 0 7 0;
#X connect 4 0 6 0;
#X connect 5 0 0 0;
#X connect 6 0 2 0;
#X connect 6 1 2 1;
#X connect 7 0 1 0;
#X connect 7 1 1 1;
#X connect 8 0 12 0;
#X connect 9 0 12 0;
#X connect 10 0 12 0;
#X connect 11 0 12 0;
#X connect 13 0 14 0;
#X connect 14 0 17 0;
#X connect 15 0 18 0;
#X connect 16 0 13 1;
#X connect 16 1 10 0;
#X connect 16 2 11 0;
#X connect 17 0 20 1;
#X connect 17 1 19 1;
#X connect 18 0 2 0;
#X connect 18 1 1 0;
#X connect 18 2 13 0;
#X connect 18 3 21 0;
#X connect 19 0 9 0;
#X connect 20 0 8 0;
#X connect 21 0 16 0;
#X restore 178 359 pd POS_SIZE;
#X msg 178 340 0;
#X text 188 216 ALTERA POSIÇÃO LOCAL DE ACORDO COM DISPOSITIVO,
f 15;
#N canvas 937 129 453 213 CORRECT_POSITION 0;
#X obj 58 63 r \$1-ratio;
#X text 130 63 RECEBE PROPORÇÃO DA TELA;
#X obj 43 120 * 1;
#X msg 58 101 1;
#X obj 58 82 sel 0 1;
#X obj 43 34 inlet;
#X obj 43 149 outlet;
#X text 113 82 ALTERA POSIÇÃO LOCAL DE ACORDO COM DISPOSITIVO;
#X msg 88 101 2.5;
#X connect 0 0 4 0;
#X connect 2 0 6 0;
#X connect 3 0 2 1;
#X connect 4 0 3 0;
#X connect 4 1 8 0;
#X connect 5 0 2 0;
#X connect 8 0 2 1;
#X restore 190 192 pd CORRECT_POSITION;
#N canvas 2 137 429 339 POS_SIZE 0;
#X obj 277 123 t f f;
#X obj 134 179 *;
#X obj 51 179 *;
#X obj 322 142 mod 2;
#X obj 277 142 div 2;
#X obj 277 104 inlet ID;
#X obj 277 161 t b f;
#X obj 322 161 t b f;
#X msg 51 227 posX \$1;
#X msg 134 227 posY \$1;
#X msg 217 227 sizeX \$1;
#X msg 297 227 sizeY \$1;
#X obj 51 266 outlet CONTROLS;
#X obj 122 117 -;
#X obj 122 136 / 2;
#X obj 51 43 r \$0-h_tracks;
#X obj 149 99 t f f f;
#X obj 122 155 t f f;
#X obj 51 62 t f f f f;
#X obj 134 198 +;
#X obj 51 198 +;
#X obj 149 80 * 0.95;
#X connect 0 0 4 0;
#X connect 0 1 3 0;
#X connect 1 0 19 0;
#X connect 2 0 20 0;
#X connect 3 0 7 0;
#X connect 4 0 6 0;
#X connect 5 0 0 0;
#X connect 6 0 2 0;
#X connect 6 1 2 1;
#X connect 7 0 1 0;
#X connect 7 1 1 1;
#X connect 8 0 12 0;
#X connect 9 0 12 0;
#X connect 10 0 12 0;
#X connect 11 0 12 0;
#X connect 13 0 14 0;
#X connect 14 0 17 0;
#X connect 15 0 18 0;
#X connect 16 0 13 1;
#X connect 16 1 10 0;
#X connect 16 2 11 0;
#X connect 17 0 20 1;
#X connect 17 1 19 1;
#X connect 18 0 2 0;
#X connect 18 1 1 0;
#X connect 18 2 13 0;
#X connect 18 3 21 0;
#X connect 19 0 9 0;
#X connect 20 0 8 0;
#X connect 21 0 16 0;
#X restore 389 359 pd POS_SIZE;
#N canvas 2 137 429 339 POS_SIZE 0;
#X obj 277 123 t f f;
#X obj 134 179 *;
#X obj 51 179 *;
#X obj 322 142 mod 2;
#X obj 277 142 div 2;
#X obj 277 104 inlet ID;
#X obj 277 161 t b f;
#X obj 322 161 t b f;
#X msg 51 227 posX \$1;
#X msg 134 227 posY \$1;
#X msg 217 227 sizeX \$1;
#X msg 297 227 sizeY \$1;
#X obj 51 266 outlet CONTROLS;
#X obj 122 117 -;
#X obj 122 136 / 2;
#X obj 51 43 r \$0-h_tracks;
#X obj 149 99 t f f f;
#X obj 122 155 t f f;
#X obj 51 62 t f f f f;
#X obj 134 198 +;
#X obj 51 198 +;
#X obj 149 80 * 0.95;
#X connect 0 0 4 0;
#X connect 0 1 3 0;
#X connect 1 0 19 0;
#X connect 2 0 20 0;
#X connect 3 0 7 0;
#X connect 4 0 6 0;
#X connect 5 0 0 0;
#X connect 6 0 2 0;
#X connect 6 1 2 1;
#X connect 7 0 1 0;
#X connect 7 1 1 1;
#X connect 8 0 12 0;
#X connect 9 0 12 0;
#X connect 10 0 12 0;
#X connect 11 0 12 0;
#X connect 13 0 14 0;
#X connect 14 0 17 0;
#X connect 15 0 18 0;
#X connect 16 0 13 1;
#X connect 16 1 10 0;
#X connect 16 2 11 0;
#X connect 17 0 20 1;
#X connect 17 1 19 1;
#X connect 18 0 2 0;
#X connect 18 1 1 0;
#X connect 18 2 13 0;
#X connect 18 3 21 0;
#X connect 19 0 9 0;
#X connect 20 0 8 0;
#X connect 21 0 16 0;
#X restore 600 359 pd POS_SIZE;
#N canvas 2 137 429 339 POS_SIZE 0;
#X obj 277 123 t f f;
#X obj 134 179 *;
#X obj 51 179 *;
#X obj 322 142 mod 2;
#X obj 277 142 div 2;
#X obj 277 104 inlet ID;
#X obj 277 161 t b f;
#X obj 322 161 t b f;
#X msg 51 227 posX \$1;
#X msg 134 227 posY \$1;
#X msg 217 227 sizeX \$1;
#X msg 297 227 sizeY \$1;
#X obj 51 266 outlet CONTROLS;
#X obj 122 117 -;
#X obj 122 136 / 2;
#X obj 51 43 r \$0-h_tracks;
#X obj 149 99 t f f f;
#X obj 122 155 t f f;
#X obj 51 62 t f f f f;
#X obj 134 198 +;
#X obj 51 198 +;
#X obj 149 80 * 0.95;
#X connect 0 0 4 0;
#X connect 0 1 3 0;
#X connect 1 0 19 0;
#X connect 2 0 20 0;
#X connect 3 0 7 0;
#X connect 4 0 6 0;
#X connect 5 0 0 0;
#X connect 6 0 2 0;
#X connect 6 1 2 1;
#X connect 7 0 1 0;
#X connect 7 1 1 1;
#X connect 8 0 12 0;
#X connect 9 0 12 0;
#X connect 10 0 12 0;
#X connect 11 0 12 0;
#X connect 13 0 14 0;
#X connect 14 0 17 0;
#X connect 15 0 18 0;
#X connect 16 0 13 1;
#X connect 16 1 10 0;
#X connect 16 2 11 0;
#X connect 17 0 20 1;
#X connect 17 1 19 1;
#X connect 18 0 2 0;
#X connect 18 1 1 0;
#X connect 18 2 13 0;
#X connect 18 3 21 0;
#X connect 19 0 9 0;
#X connect 20 0 8 0;
#X connect 21 0 16 0;
#X restore 811 359 pd POS_SIZE;
#X msg 389 340 1;
#X msg 600 340 2;
#X msg 811 340 3;
#X obj 217 98 * 0.92;
#X obj 52 378 gui_button \$1 0 0 1 1 1 0 1 17 1;
#X obj 263 378 gui_button \$1 0 0 1 1 0 0 1 19 1;
#X obj 474 378 gui_button \$1 0 0 1 1 0 0 1 21 1;
#X obj 685 378 gui_button \$1 0 0 1 1 0 0 1 23 1;
#X connect 0 0 38 0;
#X connect 1 0 0 0;
#X connect 2 0 4 0;
#X connect 3 0 5 0;
#X connect 4 0 3 0;
#X connect 4 1 62 0;
#X connect 5 0 6 0;
#X connect 6 0 55 0;
#X connect 6 1 0 2;
#X connect 10 0 18 0;
#X connect 11 0 21 0;
#X connect 12 0 40 0;
#X connect 14 0 48 0;
#X connect 15 0 48 0;
#X connect 16 0 48 0;
#X connect 17 0 48 0;
#X connect 19 0 20 0;
#X connect 20 0 64 2;
#X connect 20 1 65 2;
#X connect 20 2 66 2;
#X connect 21 0 14 0;
#X connect 21 1 22 0;
#X connect 21 2 19 0;
#X connect 22 0 63 2;
#X connect 23 0 26 0;
#X connect 24 0 25 0;
#X connect 25 0 63 2;
#X connect 25 1 65 2;
#X connect 25 2 66 2;
#X connect 26 0 16 0;
#X connect 26 1 27 0;
#X connect 26 2 24 0;
#X connect 27 0 64 2;
#X connect 28 0 31 0;
#X connect 29 0 30 0;
#X connect 30 0 63 2;
#X connect 30 1 64 2;
#X connect 30 2 66 2;
#X connect 31 0 17 0;
#X connect 31 1 32 0;
#X connect 31 2 29 0;
#X connect 32 0 65 2;
#X connect 33 0 36 0;
#X connect 34 0 35 0;
#X connect 35 0 63 2;
#X connect 35 1 64 2;
#X connect 35 2 65 2;
#X connect 36 0 15 0;
#X connect 36 1 37 0;
#X connect 36 2 34 0;
#X connect 37 0 66 2;
#X connect 38 0 63 0;
#X connect 38 1 64 0;
#X connect 38 2 65 0;
#X connect 38 3 66 0;
#X connect 38 4 49 0;
#X connect 39 0 46 0;
#X connect 39 1 49 1;
#X connect 40 0 53 0;
#X connect 40 1 59 0;
#X connect 40 2 60 0;
#X connect 40 3 61 0;
#X connect 41 0 49 3;
#X connect 42 0 3 1;
#X connect 42 1 10 0;
#X connect 42 2 41 0;
#X connect 46 0 21 0;
#X connect 46 1 26 0;
#X connect 46 2 31 0;
#X connect 46 3 36 0;
#X connect 48 0 43 0;
#X connect 48 1 44 0;
#X connect 49 1 39 0;
#X connect 49 2 39 1;
#X connect 49 3 39 2;
#X connect 52 0 63 3;
#X connect 53 0 52 0;
#X connect 55 0 0 1;
#X connect 56 0 64 3;
#X connect 57 0 65 3;
#X connect 58 0 66 3;
#X connect 59 0 56 0;
#X connect 60 0 57 0;
#X connect 61 0 58 0;
#X connect 62 0 42 0;
#X connect 63 1 11 0;
#X connect 64 1 23 0;
#X connect 65 1 28 0;
#X connect 66 1 33 0;
