#N canvas 72 348 975 406 10;
#X declare -lib ofelia;
#X declare -path data -path data/bit_abs -path data/gui_abs -path data/memo
-path data/fonts -path data/png;
#X obj 570 29 declare -lib ofelia;
#X obj 58 167 tgl 15 0 empty empty empty 17 7 0 10 -262144 -1 -1 1
1;
#X obj 570 103 r \$0-0-sample_set;
#X obj 570 138 s \$0-0-sample;
#X obj 570 122 hradio 15 1 0 8 empty empty empty 0 -8 0 10 -262144
-1 -1 0;
#X text 700 98 EXEMPLO DE LINK ENTRE INTERFACE E DADOS DO PATCH, f
26;
#X text 55 87 TESTE GUI;
#X obj 58 29 bit_cpu;
#X msg 58 148 1;
#N canvas 131 144 483 314 PRINT_CPU 0;
#X obj 56 44 inlet;
#X floatatom 209 228 0 0 0 0 - - -;
#X obj 209 171 cputime;
#X obj 209 96 loadbang;
#X obj 209 134 metro 1000;
#X msg 209 115 1;
#X obj 209 153 t b b;
#X obj 209 209 * 0.1;
#X obj 209 190 int;
#X obj 56 72 tgl 15 0 empty empty empty 17 7 0 10 -262144 -1 -1 1 1
;
#X msg 209 247 text \$1;
#X obj 56 227 ofTranslate 0 0;
#X obj 85 170 r \$0-screenDimen;
#X obj 85 189 unpack f f;
#X obj 56 246 ofSetColor 255 255 255;
#X obj 56 88 ofHead 200;
#X obj 85 208 / 19;
#X obj 142 208 / 12.5;
#X obj 56 265 ofDrawText @myFont[1] CPU;
#X obj 209 44 ofLoadFont \; @myFont data/fonts/Sansation.ttf 15 \;
;
#X connect 0 0 9 0;
#X connect 1 0 10 0;
#X connect 2 0 8 0;
#X connect 3 0 5 0;
#X connect 4 0 6 0;
#X connect 5 0 4 0;
#X connect 6 0 2 0;
#X connect 6 1 2 1;
#X connect 7 0 1 0;
#X connect 8 0 7 0;
#X connect 9 0 15 0;
#X connect 10 0 18 0;
#X connect 11 0 14 0;
#X connect 12 0 13 0;
#X connect 13 0 16 0;
#X connect 13 1 17 0;
#X connect 14 0 18 0;
#X connect 15 0 11 0;
#X connect 16 0 11 1;
#X connect 17 0 11 2;
#X restore 58 183 pd PRINT_CPU;
#X obj 421 177 gui_track \$0 0;
#N canvas 55 625 1184 471 WINDOW_TOUCHS 0;
#N canvas 561 275 428 224 TAMANHOS_COMUNS 0;
#X msg 91 99 1334 750;
#X msg 159 99 1920 1080;
#X obj 91 122 /;
#X floatatom 91 144 8 0 0 0 - - -, f 8;
#X msg 91 72 1280 720;
#X floatatom 265 75 5 0 0 0 - - -, f 5;
#X obj 265 97 t f f;
#X floatatom 265 142 5 0 0 0 - - -, f 5;
#X floatatom 303 142 5 0 0 0 - - -, f 5;
#X msg 54 34 2560 1600;
#X text 120 34 TABLET;
#X text 153 73 CEL. BRASIL;
#X obj 323 43 / 1.77778;
#X obj 318 68 * 1.77778;
#X obj 303 119 / 1.77778;
#X connect 0 0 2 0;
#X connect 1 0 2 0;
#X connect 2 0 3 0;
#X connect 3 0 14 1;
#X connect 4 0 2 0;
#X connect 5 0 6 0;
#X connect 6 0 7 0;
#X connect 6 1 14 0;
#X connect 9 0 2 0;
#X connect 14 0 8 0;
#X restore 38 410 pd TAMANHOS_COMUNS;
#X obj 38 321 ofWindow 800 450 LEFT TOP;
#X obj 82 225 pack f f;
#X msg 101 292 dimen \$1 \$2;
#X obj 82 111 ofGetScreenDimen;
#X obj 82 95 bng 15 250 50 0 empty empty empty 17 7 0 10 -262144 -1
-1;
#X obj 82 263 s \$0-screenDimen;
#X obj 382 46 unpack f f;
#X floatatom 382 65 5 0 0 0 - - -, f 5;
#X floatatom 692 75 5 0 0 0 - - -, f 5;
#X text 488 25 DIMENSÃO DA TELA;
#X text 812 119 CABEÇALHO;
#X text 812 106 TRACKS;
#X text 502 83 LARGURA;
#X text 812 93 LARGURA;
#X obj 382 141 s \$0-width;
#X obj 692 138 s \$0-height;
#X obj 744 157 s \$0-h_tracks;
#X obj 382 27 r \$0-screenDimen;
#X obj 905 93 expr int($f1 * 1) \; int(0.25 * ($f1 - ($f1 * 0.15)))
\; int($f1 * 0.15) \;;
#X obj 692 93 expr int($f1 * 1) \; int($f1 * 0.2) \; int($f1 * 0.2)
\;;
#X text 903 70 MODELO COM CABEÇALHO MENOR QUE TRACKS;
#X obj 692 278 ofTouchListener;
#X obj 692 307 s \$0-touchDown;
#X obj 791 307 s \$0-touchMove;
#X obj 890 307 s \$0-touchUp;
#X text 794 278 ENTRADA GLOBAL DE TOQUES;
#X obj 82 76 inlet;
#X obj 38 23 ofWindowLoadBang;
#X obj 417 160 s \$0-w_button;
#X text 502 96 LARGURA BOTÕES LATERAIS;
#X obj 452 179 s \$0-w_main;
#X text 502 109 LARGURA ÁREA PRINCIPAL;
#X obj 82 130 /;
#X msg 82 168 800;
#X obj 82 187 t f f;
#X text 117 168 DIMENSÃO X FIXA;
#X text 152 206 DIMENSÃO Y RELATIVA AO DISPOSITIVO;
#X obj 109 206 / 1.6;
#X obj 38 350 spigot 1;
#X obj 38 369 s \$0-renderBang;
#X obj 91 350 tgl 15 0 empty empty empty 17 7 0 10 -262144 -1 -1 0
1;
#X msg 201 303 destroy \, create;
#X msg 38 42 bgColor 80 80 80 \, frameRate 20;
#X obj 487 198 s \$0-w_headNumber;
#X text 502 122 LARGURA NÚMEROS CABEÇALHO;
#X obj 211 391 ofHead 10 1;
#X obj 82 244 t a a a;
#X obj 301 391 unpack f f;
#X text 374 410 DESENHA PNG DO FUNDO DO APP;
#X obj 797 176 s \$0-h_head;
#X obj 211 410 ofDrawImage \$0-pngBank[1];
#X obj 185 395 tgl 15 0 empty empty empty 17 7 0 10 -262144 -1 -1 0
1;
#X obj 382 83 expr int($f1 * 1) \; int($f1 * 0.11) \; int($f1 * 0.75)
\; int($f1 * 0.18) \;;
#X msg 244 112 1.77778;
#X obj 222 244 > 1.65;
#X obj 82 149 t b f f;
#X obj 222 263 s \$0-ratio;
#X text 294 263 ENVIA PROPORÇÃO DA TELA PARA CORRETORES NOS OBJETOS
(0 = TABLET / 1 = CELULAR), f 39;
#X text 299 112 DEBUG;
#X msg 244 131 1.6;
#X obj 244 150 t b f f;
#X obj 738 15 inlet;
#X connect 1 0 39 0;
#X connect 2 0 47 0;
#X connect 3 0 1 0;
#X connect 4 0 33 0;
#X connect 5 0 4 0;
#X connect 7 0 8 0;
#X connect 7 1 9 0;
#X connect 8 0 53 0;
#X connect 9 0 20 0;
#X connect 18 0 7 0;
#X connect 20 0 16 0;
#X connect 20 1 17 0;
#X connect 20 2 50 0;
#X connect 22 0 23 0;
#X connect 22 1 24 0;
#X connect 22 2 25 0;
#X connect 27 0 5 0;
#X connect 28 0 43 0;
#X connect 33 0 56 0;
#X connect 34 0 35 0;
#X connect 35 0 2 0;
#X connect 35 1 38 0;
#X connect 38 0 2 1;
#X connect 39 0 40 0;
#X connect 41 0 39 1;
#X connect 42 0 1 0;
#X connect 43 0 1 0;
#X connect 43 0 1 0;
#X connect 46 0 51 0;
#X connect 47 0 6 0;
#X connect 47 1 3 0;
#X connect 47 2 48 0;
#X connect 48 0 51 1;
#X connect 48 1 51 2;
#X connect 52 0 51 0;
#X connect 53 0 15 0;
#X connect 53 1 29 0;
#X connect 53 2 31 0;
#X connect 53 3 44 0;
#X connect 54 0 61 0;
#X connect 55 0 57 0;
#X connect 56 0 34 0;
#X connect 56 1 38 1;
#X connect 56 2 55 0;
#X connect 60 0 61 0;
#X connect 61 0 34 0;
#X connect 61 1 38 1;
#X connect 61 2 55 0;
#X connect 62 0 52 0;
#X restore 176 195 pd WINDOW_TOUCHS;
#X obj 421 196 gui_track \$0 1;
#X obj 421 215 gui_track \$0 2;
#X obj 421 234 gui_track \$0 3;
#X obj 58 129 t b b;
#X obj 58 110 ofWindowLoadBang;
#N canvas 2 109 279 153 TIME_NOTES 0;
#X text 44 27 1 block = 1.45125 msec;
#X text 44 46 1 frame/20 fps = 50 msec;
#X text 44 66 1 frame/30 fps = 33.3333 msec;
#X text 44 86 1 frame/60 fps = 16.6667 msec;
#X restore 159 29 pd TIME_NOTES;
#N canvas 2 53 382 280 INIT_SYSTEM 0;
#X obj 75 71 inlet TRIGGER;
#X obj 75 119 f 10;
#X obj 75 138 until;
#X obj 75 176 f;
#X obj 98 176 + 1;
#X msg 90 157 0;
#X obj 75 100 t b b;
#X obj 75 195 t f f;
#X obj 75 224 s \$0-LB;
#X text 53 25 ** ENVIA 10 BANGS ORDENADOS PARA SISTEMA DE INICIALIZAÇÃO
, f 32;
#X connect 0 0 6 0;
#X connect 1 0 2 0;
#X connect 2 0 3 0;
#X connect 3 0 7 0;
#X connect 4 0 3 1;
#X connect 5 0 3 1;
#X connect 6 0 1 0;
#X connect 6 1 5 0;
#X connect 7 0 8 0;
#X connect 7 1 4 0;
#X restore 149 243 pd INIT_SYSTEM;
#X obj 149 131 bng 15 250 50 0 empty empty empty 17 7 0 10 -262144
-1 -1;
#X obj 354 32 ESMERIL \$0;
#X obj 570 48 declare -path data -path data/bit_abs -path data/gui_abs
-path data/memo -path data/fonts -path data/png;
#X msg 335 159 0;
#X msg 365 159 1;
#X msg 335 178 0;
#X msg 365 178 1;
#X msg 335 197 0;
#X msg 365 197 1;
#X msg 335 216 0;
#X msg 365 216 1;
#X text 439 61 PNG / FONTES;
#N canvas 344 307 749 489 RESOURCES 0;
#X text 329 55 -- NAS ABSTRAÇÕES USA COMO ARGUMENTO UM OFFSET NO
BANCO DE IMAGENS \, E DENTRO DELAS FAZ UM LEITOR QUE LÊ O NÚMERO
NECESSÁRIO DE IMAGENS A PARTIR DO OFFSET;
#X obj 376 209 r \$0-height;
#X obj 376 228 change;
#X obj 376 247 / 10;
#X obj 376 266 int;
#X text 452 343 CARREGA FONTE COM 1/10 ALTURA DA TELA;
#X text 41 26 ** BANCO DE PNG'S;
#X text 374 176 ** BANCO DE FONTES;
#X obj 376 337 ofLoadFont \; \$0-font \;;
#X text 23 85 0;
#X text 23 98 1;
#X text 23 111 2;
#X text 23 124 3;
#X text 23 137 4;
#X text 23 150 5;
#X text 23 163 6;
#X text 23 176 7;
#X text 23 189 8;
#X text 23 202 9;
#X text 17 215 10;
#X text 17 228 11;
#X text 17 241 12;
#X text 17 254 13;
#X text 17 267 14;
#X text 17 279 15;
#X text 17 293 16;
#X text 17 306 17;
#X text 17 319 18;
#X text 17 332 19;
#X text 17 345 20;
#X text 17 358 21;
#X text 17 371 22;
#X text 17 384 23;
#X text 17 397 24;
#X text 17 410 25;
#X text 17 423 26;
#X obj 43 59 ofLoadImage \; \$0-pngBank \; data/png/_app.png \; data/png/bg_app.png
\; data/png/btn_functions_freeze_off.png \; data/png/btn_functions_freeze_on.png
\; data/png/btn_functions_pattern_off.png \; data/png/btn_functions_pattern_on.png
\; data/png/btn_functions_pin_off.png \; data/png/btn_functions_pin_on.png
\; data/png/btn_functions_random_off.png \; data/png/btn_functions_random_on.png
\; data/png/btn_functions_reverse_off.png \; data/png/btn_functions_reverse_on.png
\; data/png/btn_functions_reverseSlice_off.png \; data/png/btn_functions_reverseSlice_on.png
\; data/png/btn_nav_audio_off.png \; data/png/btn_nav_audio_on.png
\; data/png/btn_nav_functions_off.png \; data/png/btn_nav_functions_on.png
\; data/png/btn_nav_slicer_off.png \; data/png/btn_nav_slicer_on.png
\; data/png/btn_nav_waveform_off.png \; data/png/btn_nav_waveform_on.png
\; data/png/btn_select_audio_off.png \; data/png/btn_select_audio_on.png
\; data/png/btn_track_multigranular_off.png \; data/png/btn_track_beatslicer_on.png
\; data/png/btn_track_multigranular_on.png \;;
#X msg 376 285 load data/fonts/DINEngschriftStd.otf \$1;
#X connect 1 0 2 0;
#X connect 2 0 3 0;
#X connect 3 0 4 0;
#X connect 4 0 37 0;
#X connect 37 0 8 0;
#X restore 354 61 pd RESOURCES;
#X obj 149 147 t b b;
#X text 569 191 - IMPLEMENTAR MANIPULADORES - E JÁ REFORMAR o [bit_track]
DE ACORDO \, INCLUSIVE ALTERAR INTERFACE E PARÂMETROS DA MEMÓRIA
PARA FICAREM DE ACORDO COM A INTERFACE PRINCIPAL, f 57;
#X text 569 281 - IMPLEMENTAR MODO GRANULAR;
#X text 569 301 - MENU DE CENAS;
#X text 569 241 - REVISAR MECANISMO DA REPRODUÇÃO DAS CENAS;
#X text 569 261 - INTERAÇÕES NA FORMA DE ONDA;
#N canvas 63 258 440 325 HEADER 0;
#N canvas 66 346 705 270 SCENE 0;
#X obj 269 163 sel 1;
#X obj 269 198 s \$0-cena0;
#X obj 269 182 bng 15 250 50 0 empty empty empty 17 7 0 10 -262144
-1 -1;
#X obj 549 163 sel 1;
#X obj 549 182 bng 15 250 50 0 empty empty empty 17 7 0 10 -262144
-1 -1;
#X obj 549 198 s \$0-cena1;
#X obj 198 87 r \$0-done;
#X obj 198 106 sel 0 1;
#X msg 198 125 0;
#X msg 228 125 0;
#X obj 389 163 sel 0;
#X obj 109 163 sel 0;
#X obj 56 144 gui_button \$0 300 20 50 50 0 1 0 0 1;
#X obj 336 144 gui_button \$0 380 20 50 50 0 1 0 0 1;
#X obj 56 45 inlet RENDER_CHAIN;
#X obj 56 104 t b b;
#X obj 549 45 inlet TOUCH;
#X obj 549 74 == 0;
#X msg 549 93 touch \$1;
#X connect 0 0 2 0;
#X connect 2 0 1 0;
#X connect 3 0 4 0;
#X connect 4 0 5 0;
#X connect 6 0 7 0;
#X connect 7 0 8 0;
#X connect 7 1 9 0;
#X connect 8 0 12 2;
#X connect 9 0 13 2;
#X connect 10 1 13 2;
#X connect 11 1 12 2;
#X connect 12 1 11 0;
#X connect 12 4 0 0;
#X connect 13 1 10 0;
#X connect 13 4 3 0;
#X connect 14 0 15 0;
#X connect 15 0 12 0;
#X connect 15 1 13 0;
#X connect 16 0 17 0;
#X connect 17 0 18 0;
#X connect 18 0 12 3;
#X connect 18 0 13 3;
#X restore 56 261 pd SCENE;
#N canvas 195 415 1198 369 TRANSPORT 0;
#X msg 947 186 value \$1;
#X obj 46 35 inlet RENDER_CHAIN;
#X obj 866 205 gui_hslider \$0;
#X obj 947 273 s \$0-speed;
#X obj 928 148 r \$0-speed_set;
#X obj 46 84 t b b b b;
#N canvas 137 559 823 239 POS_SIZE 0;
#X msg 40 145 posX \$1;
#X msg 392 145 posY \$1;
#X msg 175 145 sizeX \$1;
#X msg 448 145 sizeY \$1;
#X obj 40 184 outlet CONTROLS;
#X obj 175 31 r \$0-w_headNumber;
#X obj 40 31 r \$0-width;
#X obj 392 107 -;
#X obj 392 50 t f f;
#X obj 419 88 t f f;
#X obj 392 126 / 2;
#X text 468 69 CÁLCULOS DOS VALORES Y LOCAIS;
#X text 471 31 ALTURA DO CABEÇALHO;
#X obj 392 31 r \$0-h_head;
#X text 291 31 LARGURA DOS NÚMEROS DO CABEÇALHO, f 11;
#X msg 564 145 limit 0 \$1;
#X obj 564 126 * 2;
#X text 640 145 LIMITE DINÂMICO ENTRE 0 - 2xBPM ORIGINAL, f 21;
#X text 648 107 RECEBE BPM DO PROJETO;
#X text 111 31 LARGURA TOTAL, f 7;
#X obj 564 107 r \$0-rootBPM;
#X obj 419 69 * 0.66;
#X obj 40 50 * 0.5;
#X connect 0 0 4 0;
#X connect 1 0 4 0;
#X connect 2 0 4 0;
#X connect 3 0 4 0;
#X connect 5 0 2 0;
#X connect 6 0 22 0;
#X connect 7 0 10 0;
#X connect 8 0 7 0;
#X connect 8 1 21 0;
#X connect 9 0 7 1;
#X connect 9 1 3 0;
#X connect 10 0 1 0;
#X connect 13 0 8 0;
#X connect 15 0 4 0;
#X connect 16 0 15 0;
#X connect 20 0 16 0;
#X connect 21 0 9 0;
#X connect 22 0 0 0;
#X restore 605 186 pd POS_SIZE;
#X obj 1049 35 inlet TOUCH;
#X msg 1049 187 touch \$1;
#N canvas 433 150 622 252 POS_SIZE 0;
#X msg 50 149 posX \$1;
#X msg 302 149 posY \$1;
#X msg 365 149 sizeX \$1;
#X msg 428 149 sizeY \$1;
#X obj 50 188 outlet CONTROLS;
#X obj 50 35 r \$0-width;
#X obj 302 111 -;
#X obj 302 54 t f f;
#X obj 302 130 / 2;
#X text 381 35 ALTURA DO CABEÇALHO;
#X obj 302 35 r \$0-h_head;
#X text 121 35 LARGURA TOTAL, f 7;
#X obj 329 73 * 0.66;
#X obj 329 92 t f f f;
#X text 378 73 CÁLCULOS DOS VALORES X Y LOCAIS;
#X obj 50 54 * 0.145;
#X text 177 73 ALTERA POSIÇÃO LOCAL DE ACORDO COM DISPOSITIVO, f
15;
#N canvas 648 145 462 230 CORRECT_POSITION 0;
#X text 130 63 RECEBE PROPORÇÃO DA TELA;
#X obj 43 120 * 1;
#X msg 58 101 1;
#X obj 58 82 sel 0 1;
#X obj 43 34 inlet;
#X obj 43 149 outlet;
#X text 113 82 ALTERA POSIÇÃO LOCAL DE ACORDO COM DISPOSITIVO;
#X obj 58 63 r \$0-ratio;
#X msg 88 101 1.04;
#X connect 1 0 5 0;
#X connect 2 0 1 1;
#X connect 3 0 2 0;
#X connect 3 1 8 0;
#X connect 4 0 1 0;
#X connect 7 0 3 0;
#X connect 8 0 1 1;
#X restore 50 73 pd CORRECT_POSITION;
#X connect 0 0 4 0;
#X connect 1 0 4 0;
#X connect 2 0 4 0;
#X connect 3 0 4 0;
#X connect 5 0 15 0;
#X connect 6 0 8 0;
#X connect 7 0 6 0;
#X connect 7 1 12 0;
#X connect 8 0 1 0;
#X connect 10 0 7 0;
#X connect 12 0 13 0;
#X connect 13 0 6 1;
#X connect 13 1 2 0;
#X connect 13 2 3 0;
#X connect 15 0 17 0;
#X connect 17 0 0 0;
#X restore 96 186 pd POS_SIZE;
#X obj 91 243 f 0;
#X obj 91 262 == 0;
#X obj 91 224 sel 1;
#X obj 229 224 t f f;
#X msg 718 186 value \$1;
#X obj 718 234 spigot 1;
#X msg 793 215 0;
#X msg 763 215 1;
#X text 778 234 EVITA LOOP;
#X text 784 148 RECEBE BPM;
#X text 1025 148 RECEBE DESVIO DE BPM;
#X text 1019 273 ENVIA DESVIO DE BPM;
#X text 778 273 ENVIA BPM;
#X obj 699 148 r \$0-bpm_set;
#X obj 718 273 s \$0-bpm;
#X obj 947 234 spigot 1;
#X msg 1022 215 0;
#X msg 992 215 1;
#X text 1007 234 EVITA LOOP;
#X obj 699 167 t b f b;
#X obj 928 167 t b f b;
#N canvas 137 559 823 239 POS_SIZE 0;
#X msg 40 145 posX \$1;
#X msg 392 145 posY \$1;
#X msg 175 145 sizeX \$1;
#X msg 448 145 sizeY \$1;
#X obj 40 184 outlet CONTROLS;
#X obj 175 31 r \$0-w_headNumber;
#X obj 40 31 r \$0-width;
#X obj 392 107 -;
#X obj 392 50 t f f;
#X obj 419 88 t f f;
#X obj 392 126 / 2;
#X text 467 69 CÁLCULOS DOS VALORES Y LOCAIS;
#X text 471 31 ALTURA DO CABEÇALHO;
#X obj 392 31 r \$0-h_head;
#X text 291 31 LARGURA DOS NÚMEROS DO CABEÇALHO, f 11;
#X msg 564 145 limit 0 \$1;
#X obj 564 126 * 2;
#X text 640 145 LIMITE DINÂMICO ENTRE 0 - 2xBPM ORIGINAL, f 21;
#X text 648 107 RECEBE BPM DO PROJETO;
#X text 111 31 LARGURA TOTAL, f 7;
#X obj 564 107 r \$0-rootBPM;
#X obj 40 50 * 0.275;
#X obj 419 69 * 0.66;
#X connect 0 0 4 0;
#X connect 1 0 4 0;
#X connect 2 0 4 0;
#X connect 3 0 4 0;
#X connect 5 0 2 0;
#X connect 6 0 21 0;
#X connect 7 0 10 0;
#X connect 8 0 7 0;
#X connect 8 1 22 0;
#X connect 9 0 7 1;
#X connect 9 1 3 0;
#X connect 10 0 1 0;
#X connect 13 0 8 0;
#X connect 15 0 4 0;
#X connect 16 0 15 0;
#X connect 20 0 16 0;
#X connect 21 0 0 0;
#X connect 22 0 9 0;
#X restore 345 186 pd POS_SIZE;
#X obj 46 205 gui_button \$0 0 0 1 1 0 0 1 2 0;
#X obj 295 205 gui_number \$0 0 0 1 1 1 1 1 0;
#X obj 535 205 gui_number \$0 0 0 1 1 140 1 1 0;
#X connect 0 0 2 1;
#X connect 1 0 5 0;
#X connect 2 1 25 0;
#X connect 4 0 30 0;
#X connect 5 0 32 0;
#X connect 5 1 33 0;
#X connect 5 2 34 0;
#X connect 5 3 2 0;
#X connect 6 0 34 1;
#X connect 7 0 8 0;
#X connect 8 0 2 1;
#X connect 8 0 33 1;
#X connect 8 0 34 1;
#X connect 8 0 32 3;
#X connect 9 0 32 3;
#X connect 10 0 11 0;
#X connect 11 0 32 2;
#X connect 12 0 10 0;
#X connect 13 0 10 1;
#X connect 14 0 34 1;
#X connect 15 0 24 0;
#X connect 16 0 15 1;
#X connect 17 0 15 1;
#X connect 23 0 29 0;
#X connect 25 0 3 0;
#X connect 26 0 25 1;
#X connect 27 0 25 1;
#X connect 29 0 17 0;
#X connect 29 1 14 0;
#X connect 29 2 16 0;
#X connect 30 0 27 0;
#X connect 30 1 0 0;
#X connect 30 2 26 0;
#X connect 31 0 33 1;
#X connect 32 1 12 0;
#X connect 32 4 13 0;
#X connect 34 1 15 0;
#X restore 237 261 pd TRANSPORT;
#X obj 56 65 ofHead 100 1;
#X obj 237 232 spigot;
#X obj 56 232 spigot 1;
#X obj 101 213 == 0;
#X obj 56 123 t b b;
#X text 255 104 SELETOR DO CABEÇALHO;
#X obj 56 26 inlet ON/OFF;
#N canvas 223 112 616 273 POS_SIZE 0;
#X obj 291 113 -;
#X obj 291 132 / 2;
#X msg 45 171 posX \$1;
#X msg 291 171 posY \$1;
#X msg 361 171 sizeX \$1;
#X msg 441 171 sizeY \$1;
#X obj 45 210 outlet CONTROLS;
#X obj 291 38 r \$0-h_head;
#X text 361 76 PORCENTAGEM DA ALTURA DO CABEÇALHO;
#X text 370 38 RECEBE ALTURA DO CABEÇALHO;
#X obj 318 95 t f f f;
#X obj 291 57 t f f;
#X obj 45 38 r \$0-width;
#X text 118 38 RECEBE LARGURA TOTAL;
#X obj 45 57 * 0.02;
#X obj 318 76 * 0.66;
#X text 172 76 ALTERA POSIÇÃO LOCAL DE ACORDO COM DISPOSITIVO, f
15;
#N canvas 648 145 462 230 CORRECT_POSITION 0;
#X text 130 63 RECEBE PROPORÇÃO DA TELA;
#X obj 43 120 * 1;
#X msg 58 101 1;
#X obj 58 82 sel 0 1;
#X obj 43 34 inlet;
#X obj 43 149 outlet;
#X text 113 82 ALTERA POSIÇÃO LOCAL DE ACORDO COM DISPOSITIVO;
#X obj 58 63 r \$0-ratio;
#X msg 88 101 1.3;
#X connect 1 0 5 0;
#X connect 2 0 1 1;
#X connect 3 0 2 0;
#X connect 3 1 8 0;
#X connect 4 0 1 0;
#X connect 7 0 3 0;
#X connect 8 0 1 1;
#X restore 45 76 pd CORRECT_POSITION;
#X connect 0 0 1 0;
#X connect 1 0 3 0;
#X connect 2 0 6 0;
#X connect 3 0 6 0;
#X connect 4 0 6 0;
#X connect 5 0 6 0;
#X connect 7 0 11 0;
#X connect 10 0 0 1;
#X connect 10 1 4 0;
#X connect 10 2 5 0;
#X connect 11 0 0 0;
#X connect 11 1 15 0;
#X connect 12 0 14 0;
#X connect 14 0 17 0;
#X connect 15 0 10 0;
#X connect 17 0 2 0;
#X restore 176 85 pd POS_SIZE;
#X obj 101 142 f 0;
#X obj 101 161 == 0;
#X text 132 142 ARMAZENA VALOR ATUAL;
#X text 137 161 INVERTE VALOR (MODO TOGGLE), f 13;
#X obj 101 123 sel 1;
#X obj 239 123 t f f f f f;
#X obj 56 104 gui_button \$0 0 0 1 1 0 0 1 4 1;
#X connect 2 0 16 0;
#X connect 3 0 1 0;
#X connect 4 0 0 0;
#X connect 5 0 4 1;
#X connect 6 0 4 0;
#X connect 6 1 3 0;
#X connect 8 0 2 0;
#X connect 9 0 16 3;
#X connect 10 0 11 0;
#X connect 11 0 16 2;
#X connect 14 0 10 0;
#X connect 15 0 10 1;
#X connect 15 1 5 0;
#X connect 15 2 3 1;
#X connect 15 3 0 1;
#X connect 15 4 1 1;
#X connect 16 0 6 0;
#X connect 16 1 14 0;
#X connect 16 4 15 0;
#X restore 421 148 pd HEADER;
#X msg 335 130 0;
#X msg 365 130 1;
#X obj 176 176 del 500;
#X obj 149 224 del 1000;
#X connect 1 0 9 0;
#X connect 2 0 4 0;
#X connect 4 0 3 0;
#X connect 8 0 1 0;
#X connect 15 0 8 0;
#X connect 15 1 32 0;
#X connect 16 0 15 0;
#X connect 19 0 32 0;
#X connect 22 0 10 0;
#X connect 23 0 10 0;
#X connect 24 0 12 0;
#X connect 25 0 12 0;
#X connect 26 0 13 0;
#X connect 27 0 13 0;
#X connect 28 0 14 0;
#X connect 29 0 14 0;
#X connect 32 0 42 0;
#X connect 32 1 41 0;
#X connect 39 0 38 0;
#X connect 40 0 38 0;
#X connect 41 0 11 0;
#X connect 42 0 18 0;
