#N canvas 476 506 962 390 10;
#X declare -lib ofelia;
#X declare -path data -path data/bit_abs -path data/gui_abs -path data/memo
-path data/fonts -path data/png;
#X obj 570 29 declare -lib ofelia;
#X obj 58 167 tgl 15 0 empty empty empty 17 7 0 10 -262144 -1 -1 1
1;
#X obj 570 103 r \$0-0-sample_set;
#X obj 570 138 s \$0-0-sample;
#X obj 570 122 hradio 15 1 0 8 empty empty empty 0 -8 0 10 -262144
-1 -1 3;
#X text 700 98 EXEMPLO DE LINK ENTRE INTERFACE E DADOS DO PATCH, f
26;
#X text 55 87 TESTE GUI;
#X obj 58 29 bit_cpu;
#X msg 58 148 1;
#N canvas 60 130 483 314 PRINT_CPU 0;
#X obj 56 44 inlet;
#X floatatom 209 228 0 0 0 0 - - -;
#X obj 209 171 cputime;
#X obj 209 96 loadbang;
#X obj 209 134 metro 1000;
#X msg 209 115 1;
#X obj 209 153 t b b;
#X obj 209 209 * 0.1;
#X obj 209 190 int;
#X obj 56 72 tgl 15 0 empty empty empty 17 7 0 10 -262144 -1 -1 1 1
;
#X obj 56 265 ofDrawText @myFont[0] CPU;
#X msg 209 247 text \$1;
#X obj 209 44 ofLoadFont \; @myFont data/fonts/Sansation.ttf 15 \;
;
#X obj 56 88 ofHead 10;
#X obj 56 227 ofTranslate 0 0;
#X obj 85 170 r \$0-screenDimen;
#X obj 85 189 unpack f f;
#X obj 142 208 / 20;
#X obj 85 208 / 30;
#X obj 56 246 ofSetColor 255 255 255;
#X connect 0 0 9 0;
#X connect 1 0 11 0;
#X connect 2 0 8 0;
#X connect 3 0 5 0;
#X connect 4 0 6 0;
#X connect 5 0 4 0;
#X connect 6 0 2 0;
#X connect 6 1 2 1;
#X connect 7 0 1 0;
#X connect 8 0 7 0;
#X connect 9 0 13 0;
#X connect 11 0 10 0;
#X connect 13 0 14 0;
#X connect 14 0 19 0;
#X connect 15 0 16 0;
#X connect 16 0 18 0;
#X connect 16 1 17 0;
#X connect 17 0 14 2;
#X connect 18 0 14 1;
#X connect 19 0 10 0;
#X restore 58 183 pd PRINT_CPU;
#X obj 421 207 gui_track \$0 0;
#N canvas 125 143 1169 495 WINDOW_TOUCHS 0;
#N canvas 561 275 428 224 TAMANHOS_COMUNS 0;
#X msg 91 99 1334 750;
#X msg 159 99 1920 1080;
#X obj 91 122 /;
#X floatatom 91 144 8 0 0 0 - - -, f 8;
#X msg 91 72 1280 720;
#X floatatom 265 75 5 0 0 0 - - -, f 5;
#X obj 265 97 t f f;
#X floatatom 265 142 5 0 0 0 - - -, f 5;
#X floatatom 303 142 5 0 0 0 - - -, f 5;
#X msg 54 34 2560 1600;
#X text 120 34 TABLET;
#X text 153 73 CEL. BRASIL;
#X obj 323 43 / 1.77778;
#X obj 318 68 * 1.77778;
#X obj 303 119 / 1.77778;
#X connect 0 0 2 0;
#X connect 1 0 2 0;
#X connect 2 0 3 0;
#X connect 3 0 14 1;
#X connect 4 0 2 0;
#X connect 5 0 6 0;
#X connect 6 0 7 0;
#X connect 6 1 14 0;
#X connect 9 0 2 0;
#X connect 14 0 8 0;
#X restore 38 410 pd TAMANHOS_COMUNS;
#X obj 38 321 ofWindow 800 450 LEFT TOP;
#X obj 82 225 pack f f;
#X msg 109 292 dimen \$1 \$2;
#X obj 82 244 t a a;
#X obj 82 111 ofGetScreenDimen;
#X obj 82 95 bng 15 250 50 0 empty empty empty 17 7 0 10 -262144 -1
-1;
#X obj 82 263 s \$0-screenDimen;
#X obj 412 46 unpack f f;
#X floatatom 412 65 5 0 0 0 - - -, f 5;
#X floatatom 692 75 5 0 0 0 - - -, f 5;
#X text 518 25 DIMENSÃO DA TELA;
#X text 812 119 CABEÇALHO;
#X text 812 106 TRACKS;
#X text 532 83 LARGURA;
#X text 812 93 LARGURA;
#X obj 412 128 s \$0-width;
#X obj 692 138 s \$0-height;
#X obj 797 176 s \$0-h_head;
#X obj 744 157 s \$0-h_tracks;
#X obj 412 27 r \$0-screenDimen;
#X obj 905 93 expr int($f1 * 1) \; int(0.25 * ($f1 - ($f1 * 0.15)))
\; int($f1 * 0.15) \;;
#X obj 692 93 expr int($f1 * 1) \; int($f1 * 0.2) \; int($f1 * 0.2)
\;;
#X text 903 70 MODELO COM CABEÇALHO MENOR QUE TRACKS;
#X obj 412 258 ofTouchListener;
#X obj 412 287 s \$0-touchDown;
#X obj 511 287 s \$0-touchMove;
#X obj 610 287 s \$0-touchUp;
#X text 514 258 ENTRADA GLOBAL DE TOQUES;
#X obj 82 76 inlet;
#X obj 38 23 ofWindowLoadBang;
#X msg 38 42 bgColor 0 0 0 \, frameRate 20;
#X obj 464 147 s \$0-w_button;
#X obj 412 83 expr int($f1 * 1) \; int($f1 * 0.1) \; int($f1 * 0.755)
\;;
#X text 532 96 LARGURA BOTÕES LATERAIS;
#X obj 517 166 s \$0-w_main;
#X text 532 109 LARGURA ÁREA PRINCIPAL;
#X obj 82 130 /;
#X msg 82 168 800;
#X obj 82 187 t f f;
#X obj 82 149 t b f;
#X text 117 168 DIMENSÃO X FIXA;
#X text 152 206 DIMENSÃO Y RELATIVA AO DISPOSITIVO;
#X obj 109 206 / 1.6;
#X obj 38 350 spigot 1;
#X obj 38 369 s \$0-renderBang;
#X obj 91 350 tgl 15 0 empty empty empty 17 7 0 10 -262144 -1 -1 0
1;
#X msg 201 303 destroy \, create;
#X connect 1 0 44 0;
#X connect 2 0 4 0;
#X connect 3 0 1 0;
#X connect 4 0 7 0;
#X connect 4 1 3 0;
#X connect 5 0 37 0;
#X connect 6 0 5 0;
#X connect 8 0 9 0;
#X connect 8 1 10 0;
#X connect 9 0 33 0;
#X connect 10 0 22 0;
#X connect 20 0 8 0;
#X connect 22 0 17 0;
#X connect 22 1 19 0;
#X connect 22 2 18 0;
#X connect 24 0 25 0;
#X connect 24 1 26 0;
#X connect 24 2 27 0;
#X connect 29 0 6 0;
#X connect 30 0 31 0;
#X connect 31 0 1 0;
#X connect 31 0 1 0;
#X connect 33 0 16 0;
#X connect 33 1 32 0;
#X connect 33 2 35 0;
#X connect 37 0 40 0;
#X connect 38 0 39 0;
#X connect 39 0 2 0;
#X connect 39 1 43 0;
#X connect 40 0 38 0;
#X connect 40 1 43 1;
#X connect 43 0 2 1;
#X connect 44 0 45 0;
#X connect 46 0 44 1;
#X connect 47 0 1 0;
#X restore 176 195 pd WINDOW_TOUCHS;
#X obj 421 226 gui_track \$0 1;
#X obj 421 245 gui_track \$0 2;
#X obj 421 264 gui_track \$0 3;
#X obj 58 129 t b b;
#X obj 58 110 ofWindowLoadBang;
#N canvas 2 109 279 153 TIME_NOTES 0;
#X text 44 27 1 block = 1.45125 msec;
#X text 44 46 1 frame/20 fps = 50 msec;
#X text 44 66 1 frame/30 fps = 33.3333 msec;
#X text 44 86 1 frame/60 fps = 16.6667 msec;
#X restore 159 29 pd TIME_NOTES;
#N canvas 2 53 382 280 INIT_SYSTEM 0;
#X obj 75 71 inlet TRIGGER;
#X obj 75 119 f 10;
#X obj 75 138 until;
#X obj 75 176 f;
#X obj 98 176 + 1;
#X msg 90 157 0;
#X obj 75 100 t b b;
#X obj 75 195 t f f;
#X obj 75 224 s \$0-LB;
#X text 53 25 ** ENVIA 10 BANGS ORDENADOS PARA SISTEMA DE INICIALIZAÇÃO
, f 32;
#X connect 0 0 6 0;
#X connect 1 0 2 0;
#X connect 2 0 3 0;
#X connect 3 0 7 0;
#X connect 4 0 3 1;
#X connect 5 0 3 1;
#X connect 6 0 1 0;
#X connect 6 1 5 0;
#X connect 7 0 8 0;
#X connect 7 1 4 0;
#X restore 149 243 pd INIT_SYSTEM;
#X obj 149 131 bng 15 250 50 0 empty empty empty 17 7 0 10 -262144
-1 -1;
#X obj 176 176 del 1000;
#X obj 149 224 del 2000;
#X obj 354 32 ESMERIL \$0;
#X obj 570 48 declare -path data -path data/bit_abs -path data/gui_abs
-path data/memo -path data/fonts -path data/png;
#X msg 355 189 0;
#X msg 385 189 1;
#X msg 355 208 0;
#X msg 385 208 1;
#X msg 355 227 0;
#X msg 385 227 1;
#X msg 355 246 0;
#X msg 385 246 1;
#X text 439 61 PNG / FONTES;
#N canvas 184 77 597 343 RESOURCES 0;
#X text 206 55 -- NAS ABSTRAÇÕES USA COMO ARGUMENTO UM OFFSET NO
BANCO DE IMAGENS \, E DENTRO DELAS FAZ UM LEITOR QUE LÊ O NÚMERO
NECESSÁRIO DE IMAGENS A PARTIR DO OFFSET;
#X obj 43 59 ofLoadImage \; \$0-pngBank \; data/png/button0.png \;
data/png/button1.png \;;
#X obj 43 179 r \$0-height;
#X obj 43 198 change;
#X obj 43 217 / 10;
#X obj 43 236 int;
#X text 119 280 CARREGA FONTE COM 1/10 ALTURA DA TELA;
#X text 41 26 ** BANCO DE PNG'S;
#X text 41 146 ** BANCO DE FONTES;
#X msg 43 255 load data/fonts/Sansation.ttf \$1;
#X obj 43 274 ofLoadFont \; \$0-font \;;
#X connect 2 0 3 0;
#X connect 3 0 4 0;
#X connect 4 0 5 0;
#X connect 5 0 9 0;
#X connect 9 0 10 0;
#X restore 354 61 pd RESOURCES;
#X obj 149 147 t b b;
#X text 579 191 - QUANDO CARREGA ÁUDIO NUMA CAMADA \, RESETA O NÚMERO
DE DIVISÕES DA PISTA PARA NÚMERO DE BEATS NO ÁUDIO = DIVISÃO DO
COMPASSO NO PROJETO x NÚMERO DE COMPASSOS NO ÁUDIO, f 51;
#X text 579 251 - POSSO DIVIDIR ASSIM: 1 CLIQUE OU SLIDE ABRE ÁUDIO
COM DADOS DE SLICE \, RANGE E OFFSET COMO ESTIVER \, COM 2 CLIQUES
ABRE ÁUDIO E RESETA COMO DITO ACIMA, f 52;
#X text 579 301 - DESENHAR CABEÇALHO! - 1 COM TRANSPORTE \, E OUTRO
TEMPORÁRIO PARA CARREGAR CENAS, f 49;
#N canvas 2 53 957 231 HEADER_TEMP 0;
#X obj 36 74 ofHead 100 1;
#X obj 89 131 f;
#X obj 89 150 == 0;
#X obj 249 112 t f f;
#X obj 89 112 sel 1;
#X obj 276 131 tgl 15 0 empty empty empty 17 7 0 10 -262144 -1 -1 1
1;
#X obj 276 147 s \$0-masterPhase;
#X obj 356 74 ofHead 101 1;
#X obj 569 112 sel 1;
#X obj 569 147 s \$0-cena0;
#X obj 569 131 bng 15 250 50 0 empty empty empty 17 7 0 10 -262144
-1 -1;
#X obj 849 112 sel 1;
#X obj 849 131 bng 15 250 50 0 empty empty empty 17 7 0 10 -262144
-1 -1;
#X obj 636 74 ofHead 102 1;
#X obj 849 147 s \$0-cena1;
#X obj 498 26 r \$0-done;
#X obj 498 45 sel 0 1;
#X msg 498 64 0;
#X msg 528 64 0;
#X obj 689 112 sel 0;
#X obj 409 112 sel 0;
#X obj 356 93 gui_button \$0 500 20 50 50 0 1 0 0 1;
#X obj 636 93 gui_button \$0 580 20 50 50 0 1 0 0 1;
#X obj 36 93 gui_button \$0 95 20 50 50 0 1 0 0 1;
#X connect 0 0 23 0;
#X connect 1 0 2 0;
#X connect 2 0 23 2;
#X connect 3 0 1 1;
#X connect 3 1 5 0;
#X connect 4 0 1 0;
#X connect 5 0 6 0;
#X connect 7 0 21 0;
#X connect 8 0 10 0;
#X connect 10 0 9 0;
#X connect 11 0 12 0;
#X connect 12 0 14 0;
#X connect 13 0 22 0;
#X connect 15 0 16 0;
#X connect 16 0 17 0;
#X connect 16 1 18 0;
#X connect 17 0 21 2;
#X connect 18 0 22 2;
#X connect 19 1 22 2;
#X connect 20 1 21 2;
#X connect 21 1 20 0;
#X connect 21 4 8 0;
#X connect 22 1 19 0;
#X connect 22 4 11 0;
#X connect 23 1 4 0;
#X connect 23 4 3 0;
#X restore 421 143 pd HEADER_TEMP;
#X connect 1 0 9 0;
#X connect 2 0 4 0;
#X connect 4 0 3 0;
#X connect 8 0 1 0;
#X connect 15 0 8 0;
#X connect 15 1 34 0;
#X connect 16 0 15 0;
#X connect 19 0 34 0;
#X connect 20 0 11 0;
#X connect 21 0 18 0;
#X connect 24 0 10 0;
#X connect 25 0 10 0;
#X connect 26 0 12 0;
#X connect 27 0 12 0;
#X connect 28 0 13 0;
#X connect 29 0 13 0;
#X connect 30 0 14 0;
#X connect 31 0 14 0;
#X connect 34 0 21 0;
#X connect 34 1 20 0;
