#N canvas 45 307 975 426 10;
#X declare -lib ofelia;
#X declare -path data -path data/bit_abs -path data/gui_abs -path data/memo
-path data/fonts -path data/png;
#X obj 570 29 declare -lib ofelia;
#X obj 58 167 tgl 15 0 empty empty empty 17 7 0 10 -262144 -1 -1 1
1;
#X obj 570 103 r \$0-0-sample_set;
#X obj 570 138 s \$0-0-sample;
#X obj 570 122 hradio 15 1 0 8 empty empty empty 0 -8 0 10 -262144
-1 -1 4;
#X text 700 98 EXEMPLO DE LINK ENTRE INTERFACE E DADOS DO PATCH, f
26;
#X text 55 87 TESTE GUI;
#X obj 58 29 bit_cpu;
#X msg 58 148 1;
#N canvas 131 144 483 314 PRINT_CPU 0;
#X obj 56 44 inlet;
#X floatatom 209 228 0 0 0 0 - - -;
#X obj 209 171 cputime;
#X obj 209 96 loadbang;
#X obj 209 134 metro 1000;
#X msg 209 115 1;
#X obj 209 153 t b b;
#X obj 209 209 * 0.1;
#X obj 209 190 int;
#X obj 56 72 tgl 15 0 empty empty empty 17 7 0 10 -262144 -1 -1 1 1
;
#X obj 56 265 ofDrawText @myFont[0] CPU;
#X msg 209 247 text \$1;
#X obj 209 44 ofLoadFont \; @myFont data/fonts/Sansation.ttf 15 \;
;
#X obj 56 227 ofTranslate 0 0;
#X obj 85 170 r \$0-screenDimen;
#X obj 85 189 unpack f f;
#X obj 56 246 ofSetColor 255 255 255;
#X obj 56 88 ofHead 200;
#X obj 85 208 / 19;
#X obj 142 208 / 12.5;
#X connect 0 0 9 0;
#X connect 1 0 11 0;
#X connect 2 0 8 0;
#X connect 3 0 5 0;
#X connect 4 0 6 0;
#X connect 5 0 4 0;
#X connect 6 0 2 0;
#X connect 6 1 2 1;
#X connect 7 0 1 0;
#X connect 8 0 7 0;
#X connect 9 0 17 0;
#X connect 11 0 10 0;
#X connect 13 0 16 0;
#X connect 14 0 15 0;
#X connect 15 0 18 0;
#X connect 15 1 19 0;
#X connect 16 0 10 0;
#X connect 17 0 13 0;
#X connect 18 0 13 1;
#X connect 19 0 13 2;
#X restore 58 183 pd PRINT_CPU;
#X obj 421 177 gui_track \$0 0;
#N canvas 254 431 1169 465 WINDOW_TOUCHS 0;
#N canvas 561 275 428 224 TAMANHOS_COMUNS 0;
#X msg 91 99 1334 750;
#X msg 159 99 1920 1080;
#X obj 91 122 /;
#X floatatom 91 144 8 0 0 0 - - -, f 8;
#X msg 91 72 1280 720;
#X floatatom 265 75 5 0 0 0 - - -, f 5;
#X obj 265 97 t f f;
#X floatatom 265 142 5 0 0 0 - - -, f 5;
#X floatatom 303 142 5 0 0 0 - - -, f 5;
#X msg 54 34 2560 1600;
#X text 120 34 TABLET;
#X text 153 73 CEL. BRASIL;
#X obj 323 43 / 1.77778;
#X obj 318 68 * 1.77778;
#X obj 303 119 / 1.77778;
#X connect 0 0 2 0;
#X connect 1 0 2 0;
#X connect 2 0 3 0;
#X connect 3 0 14 1;
#X connect 4 0 2 0;
#X connect 5 0 6 0;
#X connect 6 0 7 0;
#X connect 6 1 14 0;
#X connect 9 0 2 0;
#X connect 14 0 8 0;
#X restore 38 410 pd TAMANHOS_COMUNS;
#X obj 38 321 ofWindow 800 450 LEFT TOP;
#X obj 82 225 pack f f;
#X msg 109 292 dimen \$1 \$2;
#X obj 82 244 t a a;
#X obj 82 111 ofGetScreenDimen;
#X obj 82 95 bng 15 250 50 0 empty empty empty 17 7 0 10 -262144 -1
-1;
#X obj 82 263 s \$0-screenDimen;
#X obj 382 46 unpack f f;
#X floatatom 382 65 5 0 0 0 - - -, f 5;
#X floatatom 692 75 5 0 0 0 - - -, f 5;
#X text 488 25 DIMENSÃO DA TELA;
#X text 812 119 CABEÇALHO;
#X text 812 106 TRACKS;
#X text 502 83 LARGURA;
#X text 812 93 LARGURA;
#X obj 382 168 s \$0-width;
#X obj 692 138 s \$0-height;
#X obj 797 176 s \$0-h_head;
#X obj 744 157 s \$0-h_tracks;
#X obj 382 27 r \$0-screenDimen;
#X obj 905 93 expr int($f1 * 1) \; int(0.25 * ($f1 - ($f1 * 0.15)))
\; int($f1 * 0.15) \;;
#X obj 692 93 expr int($f1 * 1) \; int($f1 * 0.2) \; int($f1 * 0.2)
\;;
#X text 903 70 MODELO COM CABEÇALHO MENOR QUE TRACKS;
#X obj 412 288 ofTouchListener;
#X obj 412 317 s \$0-touchDown;
#X obj 511 317 s \$0-touchMove;
#X obj 610 317 s \$0-touchUp;
#X text 514 288 ENTRADA GLOBAL DE TOQUES;
#X obj 82 76 inlet;
#X obj 38 23 ofWindowLoadBang;
#X obj 408 187 s \$0-w_button;
#X text 502 96 LARGURA BOTÕES LATERAIS;
#X obj 434 206 s \$0-w_main;
#X text 502 109 LARGURA ÁREA PRINCIPAL;
#X obj 82 130 /;
#X msg 82 168 800;
#X obj 82 187 t f f;
#X obj 82 149 t b f;
#X text 117 168 DIMENSÃO X FIXA;
#X text 152 206 DIMENSÃO Y RELATIVA AO DISPOSITIVO;
#X obj 109 206 / 1.6;
#X obj 38 350 spigot 1;
#X obj 38 369 s \$0-renderBang;
#X obj 91 350 tgl 15 0 empty empty empty 17 7 0 10 -262144 -1 -1 0
1;
#X msg 201 303 destroy \, create;
#X msg 38 42 bgColor 80 80 80 \, frameRate 20;
#X obj 460 225 s \$0-w_headNumber;
#X text 502 122 LARGURA NÚMEROS CABEÇALHO;
#X text 502 135 LARGURA BOTÕES CABEÇALHO;
#X obj 487 244 s \$0-w_headButton;
#X obj 382 83 expr int($f1 * 1) \; int($f1 * 0.1) \; int($f1 * 0.75)
\; int($f1 * 0.15) \; int($f1 * 0.075) \;;
#X connect 1 0 42 0;
#X connect 2 0 4 0;
#X connect 3 0 1 0;
#X connect 4 0 7 0;
#X connect 4 1 3 0;
#X connect 5 0 35 0;
#X connect 6 0 5 0;
#X connect 8 0 9 0;
#X connect 8 1 10 0;
#X connect 9 0 51 0;
#X connect 10 0 22 0;
#X connect 20 0 8 0;
#X connect 22 0 17 0;
#X connect 22 1 19 0;
#X connect 22 2 18 0;
#X connect 24 0 25 0;
#X connect 24 1 26 0;
#X connect 24 2 27 0;
#X connect 29 0 6 0;
#X connect 30 0 46 0;
#X connect 35 0 38 0;
#X connect 36 0 37 0;
#X connect 37 0 2 0;
#X connect 37 1 41 0;
#X connect 38 0 36 0;
#X connect 38 1 41 1;
#X connect 41 0 2 1;
#X connect 42 0 43 0;
#X connect 44 0 42 1;
#X connect 45 0 1 0;
#X connect 46 0 1 0;
#X connect 46 0 1 0;
#X connect 51 0 16 0;
#X connect 51 1 31 0;
#X connect 51 2 33 0;
#X connect 51 3 47 0;
#X connect 51 4 50 0;
#X restore 176 195 pd WINDOW_TOUCHS;
#X obj 421 196 gui_track \$0 1;
#X obj 421 215 gui_track \$0 2;
#X obj 421 234 gui_track \$0 3;
#X obj 58 129 t b b;
#X obj 58 110 ofWindowLoadBang;
#N canvas 2 109 279 153 TIME_NOTES 0;
#X text 44 27 1 block = 1.45125 msec;
#X text 44 46 1 frame/20 fps = 50 msec;
#X text 44 66 1 frame/30 fps = 33.3333 msec;
#X text 44 86 1 frame/60 fps = 16.6667 msec;
#X restore 159 29 pd TIME_NOTES;
#N canvas 2 53 382 280 INIT_SYSTEM 0;
#X obj 75 71 inlet TRIGGER;
#X obj 75 119 f 10;
#X obj 75 138 until;
#X obj 75 176 f;
#X obj 98 176 + 1;
#X msg 90 157 0;
#X obj 75 100 t b b;
#X obj 75 195 t f f;
#X obj 75 224 s \$0-LB;
#X text 53 25 ** ENVIA 10 BANGS ORDENADOS PARA SISTEMA DE INICIALIZAÇÃO
, f 32;
#X connect 0 0 6 0;
#X connect 1 0 2 0;
#X connect 2 0 3 0;
#X connect 3 0 7 0;
#X connect 4 0 3 1;
#X connect 5 0 3 1;
#X connect 6 0 1 0;
#X connect 6 1 5 0;
#X connect 7 0 8 0;
#X connect 7 1 4 0;
#X restore 149 243 pd INIT_SYSTEM;
#X obj 149 131 bng 15 250 50 0 empty empty empty 17 7 0 10 -262144
-1 -1;
#X obj 354 32 ESMERIL \$0;
#X obj 570 48 declare -path data -path data/bit_abs -path data/gui_abs
-path data/memo -path data/fonts -path data/png;
#X msg 335 159 0;
#X msg 365 159 1;
#X msg 335 178 0;
#X msg 365 178 1;
#X msg 335 197 0;
#X msg 365 197 1;
#X msg 335 216 0;
#X msg 365 216 1;
#X text 439 61 PNG / FONTES;
#N canvas 184 77 597 343 RESOURCES 0;
#X text 206 55 -- NAS ABSTRAÇÕES USA COMO ARGUMENTO UM OFFSET NO
BANCO DE IMAGENS \, E DENTRO DELAS FAZ UM LEITOR QUE LÊ O NÚMERO
NECESSÁRIO DE IMAGENS A PARTIR DO OFFSET;
#X obj 43 59 ofLoadImage \; \$0-pngBank \; data/png/button0.png \;
data/png/button1.png \;;
#X obj 43 179 r \$0-height;
#X obj 43 198 change;
#X obj 43 217 / 10;
#X obj 43 236 int;
#X text 119 280 CARREGA FONTE COM 1/10 ALTURA DA TELA;
#X text 41 26 ** BANCO DE PNG'S;
#X text 41 146 ** BANCO DE FONTES;
#X msg 43 255 load data/fonts/Sansation.ttf \$1;
#X obj 43 274 ofLoadFont \; \$0-font \;;
#X connect 2 0 3 0;
#X connect 3 0 4 0;
#X connect 4 0 5 0;
#X connect 5 0 9 0;
#X connect 9 0 10 0;
#X restore 354 61 pd RESOURCES;
#X obj 149 147 t b b;
#X text 569 221 - IMPLEMENTAR MANIPULADORES - E JÁ REFORMAR o [bit_track]
DE ACORDO \, INCLUSIVE ALTERAR INTERFACE E PARÂMETROS DA MEMÓRIA
PARA FICAREM DE ACORDO COM A INTERFACE PRINCIPAL, f 57;
#X text 569 331 - IMPLEMENTAR MODO GRANULAR;
#X text 569 351 - MENU DE CENAS;
#X text 569 271 - REVISAR MECANISMO DA REPRODUÇÃO DAS CENAS;
#X text 569 311 - INTERAÇÕES NA FORMA DE ONDA;
#N canvas 823 80 440 325 HEADER 0;
#N canvas 66 346 705 270 SCENE 0;
#X obj 269 163 sel 1;
#X obj 269 198 s \$0-cena0;
#X obj 269 182 bng 15 250 50 0 empty empty empty 17 7 0 10 -262144
-1 -1;
#X obj 549 163 sel 1;
#X obj 549 182 bng 15 250 50 0 empty empty empty 17 7 0 10 -262144
-1 -1;
#X obj 549 198 s \$0-cena1;
#X obj 198 87 r \$0-done;
#X obj 198 106 sel 0 1;
#X msg 198 125 0;
#X msg 228 125 0;
#X obj 389 163 sel 0;
#X obj 109 163 sel 0;
#X obj 56 144 gui_button \$0 300 20 50 50 0 1 0 0 1;
#X obj 336 144 gui_button \$0 380 20 50 50 0 1 0 0 1;
#X obj 56 45 inlet RENDER_CHAIN;
#X obj 56 104 t b b;
#X obj 549 45 inlet TOUCH;
#X obj 549 74 == 0;
#X msg 549 93 touch \$1;
#X connect 0 0 2 0;
#X connect 2 0 1 0;
#X connect 3 0 4 0;
#X connect 4 0 5 0;
#X connect 6 0 7 0;
#X connect 7 0 8 0;
#X connect 7 1 9 0;
#X connect 8 0 12 2;
#X connect 9 0 13 2;
#X connect 10 1 13 2;
#X connect 11 1 12 2;
#X connect 12 1 11 0;
#X connect 12 4 0 0;
#X connect 13 1 10 0;
#X connect 13 4 3 0;
#X connect 14 0 15 0;
#X connect 15 0 12 0;
#X connect 15 1 13 0;
#X connect 16 0 17 0;
#X connect 17 0 18 0;
#X connect 18 0 12 3;
#X connect 18 0 13 3;
#X restore 56 261 pd SCENE;
#N canvas 118 298 1224 381 TRANSPORT 0;
#X msg 847 196 value \$1;
#X obj 56 45 inlet RENDER_CHAIN;
#X obj 766 215 gui_hslider \$0;
#X obj 847 273 s \$0-speed;
#X text 919 273 ENVIA DESVIO DE BPM PARA [ESMERIL];
#X obj 847 244 spigot 1;
#X msg 922 225 0;
#X msg 892 225 1;
#X obj 828 158 r \$0-speed_set;
#X text 925 158 RECEBE DESVIO DE BPM DO [ESMERIL];
#X obj 828 177 t b f b;
#X text 907 244 EVITA LOOP;
#X obj 56 94 t b b b b;
#X obj 525 215 gui_number \$0 0 0 1 1 140 1 0 1;
#N canvas 127 203 823 239 POS_SIZE 0;
#X msg 40 145 posX \$1;
#X msg 392 145 posY \$1;
#X msg 175 145 sizeX \$1;
#X msg 448 145 sizeY \$1;
#X obj 40 184 outlet CONTROLS;
#X obj 175 31 r \$0-w_headNumber;
#X obj 40 31 r \$0-width;
#X obj 392 107 -;
#X obj 392 50 t f f;
#X obj 419 88 t f f;
#X obj 392 126 / 2;
#X text 461 78 CÁLCULOS DOS VALORES Y LOCAIS;
#X text 471 31 ALTURA DO CABEÇALHO;
#X obj 419 69 * 0.6;
#X obj 392 31 r \$0-h_head;
#X text 291 31 LARGURA DOS NÚMEROS DO CABEÇALHO, f 11;
#X obj 564 107 r \$0-bpm;
#X msg 564 145 limit 0 \$1;
#X obj 564 126 * 2;
#X text 640 145 LIMITE DINÂMICO ENTRE 0 - 2xBPM ORIGINAL, f 21;
#X text 625 107 RECEBE BPM DO PROJETO;
#X text 111 31 LARGURA TOTAL, f 7;
#X obj 40 50 * 0.525;
#X connect 0 0 4 0;
#X connect 1 0 4 0;
#X connect 2 0 4 0;
#X connect 3 0 4 0;
#X connect 5 0 2 0;
#X connect 6 0 22 0;
#X connect 7 0 10 0;
#X connect 8 0 7 0;
#X connect 8 1 13 0;
#X connect 9 0 7 1;
#X connect 9 1 3 0;
#X connect 10 0 1 0;
#X connect 13 0 9 0;
#X connect 14 0 8 0;
#X connect 16 0 18 0;
#X connect 17 0 4 0;
#X connect 18 0 17 0;
#X connect 22 0 0 0;
#X restore 645 196 pd POS_SIZE;
#X obj 989 65 inlet TOUCH;
#X msg 989 196 touch \$1;
#N canvas 127 203 899 231 POS_SIZE 0;
#X msg 40 145 posX \$1;
#X msg 392 145 posY \$1;
#X msg 175 145 sizeX \$1;
#X msg 448 145 sizeY \$1;
#X obj 40 184 outlet CONTROLS;
#X obj 175 31 r \$0-w_headNumber;
#X obj 40 31 r \$0-width;
#X obj 392 107 -;
#X obj 392 50 t f f;
#X obj 419 88 t f f;
#X obj 392 126 / 2;
#X text 461 78 CÁLCULOS DOS VALORES Y LOCAIS;
#X text 471 31 ALTURA DO CABEÇALHO;
#X obj 419 69 * 0.6;
#X obj 392 31 r \$0-h_head;
#X text 291 31 LARGURA DOS NÚMEROS DO CABEÇALHO, f 11;
#X msg 564 145 limit 0 \$1;
#X text 640 145 LIMITE DINÂMICO ENTRE 0 - 2xBPM ORIGINAL, f 21;
#X text 111 31 LARGURA TOTAL, f 7;
#X text 661 107 RECEBE NÚMERO DE MOMENTOS NA CENA;
#X obj 564 107 r \$0-sceneSize;
#X obj 40 50 * 0.275;
#X connect 0 0 4 0;
#X connect 1 0 4 0;
#X connect 2 0 4 0;
#X connect 3 0 4 0;
#X connect 5 0 2 0;
#X connect 6 0 21 0;
#X connect 7 0 10 0;
#X connect 8 0 7 0;
#X connect 8 1 13 0;
#X connect 9 0 7 1;
#X connect 9 1 3 0;
#X connect 10 0 1 0;
#X connect 13 0 9 0;
#X connect 14 0 8 0;
#X connect 16 0 4 0;
#X connect 20 0 16 0;
#X connect 21 0 0 0;
#X restore 413 196 pd POS_SIZE;
#N canvas 433 150 605 291 POS_SIZE 0;
#X obj 200 118 -;
#X obj 227 100 t f f;
#X obj 200 137 / 2;
#X msg 54 176 posX \$1;
#X msg 200 176 posY \$1;
#X msg 310 176 sizeX \$1;
#X msg 390 176 sizeY \$1;
#X obj 54 215 outlet CONTROLS;
#X obj 200 43 r \$0-h_head;
#X text 270 81 PORCENTAGEM DA ALTURA DO CABEÇALHO;
#X obj 200 62 t f f;
#X text 279 43 RECEBE ALTURA DO CABEÇALHO;
#X obj 54 43 r \$0-width;
#X text 125 43 LARGURA TOTAL, f 7;
#X obj 227 81 * 0.6;
#X obj 310 137 r \$0-w_headButton;
#X text 425 137 RECEBE LARGURA DO BOTÃO DE CABEÇALHO, f 18;
#X obj 54 62 * 0.175;
#X connect 0 0 2 0;
#X connect 1 0 0 1;
#X connect 1 1 6 0;
#X connect 2 0 4 0;
#X connect 3 0 7 0;
#X connect 4 0 7 0;
#X connect 5 0 7 0;
#X connect 6 0 7 0;
#X connect 8 0 10 0;
#X connect 10 0 0 0;
#X connect 10 1 14 0;
#X connect 12 0 17 0;
#X connect 14 0 1 0;
#X connect 15 0 5 0;
#X connect 17 0 3 0;
#X restore 176 196 pd POS_SIZE;
#X obj 101 253 f 0;
#X obj 101 272 == 0;
#X obj 101 234 sel 1;
#X obj 239 234 t f f;
#X obj 56 215 gui_button \$0 0 0 1 1 0 1 1 0 1;
#X obj 305 215 gui_number \$0 0 0 1 1 1 1 0 1;
#X connect 0 0 2 1;
#X connect 1 0 12 0;
#X connect 2 1 5 0;
#X connect 5 0 3 0;
#X connect 6 0 5 1;
#X connect 7 0 5 1;
#X connect 8 0 10 0;
#X connect 10 0 7 0;
#X connect 10 1 0 0;
#X connect 10 2 6 0;
#X connect 12 0 23 0;
#X connect 12 1 24 0;
#X connect 12 2 13 0;
#X connect 12 3 2 0;
#X connect 14 0 13 1;
#X connect 15 0 16 0;
#X connect 16 0 2 1;
#X connect 16 0 13 1;
#X connect 16 0 24 1;
#X connect 16 0 23 3;
#X connect 17 0 24 1;
#X connect 18 0 23 3;
#X connect 19 0 20 0;
#X connect 20 0 23 2;
#X connect 21 0 19 0;
#X connect 22 0 19 1;
#X connect 23 1 21 0;
#X connect 23 4 22 0;
#X restore 237 261 pd TRANSPORT;
#X obj 56 104 gui_button \$0 0 0 1 1 0 1 1 0 1;
#X obj 56 65 ofHead 100 1;
#X obj 237 232 spigot;
#X obj 56 232 spigot 1;
#X obj 101 213 == 0;
#X obj 56 123 t b b;
#X text 255 104 SELETOR DO CABEÇALHO;
#X obj 56 26 inlet ON/OFF;
#N canvas 223 112 549 275 POS_SIZE 0;
#X obj 150 118 -;
#X obj 177 100 t f f;
#X obj 150 137 / 2;
#X text 351 137 RECEBE LARGURA DO BOTÃO;
#X msg 54 176 posX \$1;
#X msg 150 176 posY \$1;
#X msg 260 176 sizeX \$1;
#X msg 340 176 sizeY \$1;
#X obj 54 215 outlet CONTROLS;
#X obj 54 44 r \$0-h_head;
#X obj 260 137 r \$0-w_button;
#X obj 54 118 -;
#X obj 54 137 / 2;
#X obj 54 63 t f f f f;
#X text 220 81 PORCENTAGEM DA ALTURA DO CABEÇALHO;
#X obj 69 99 * 0.8;
#X obj 177 81 * 0.8;
#X text 133 44 RECEBE ALTURA DO CABEÇALHO;
#X connect 0 0 2 0;
#X connect 1 0 0 1;
#X connect 1 1 7 0;
#X connect 2 0 5 0;
#X connect 4 0 8 0;
#X connect 5 0 8 0;
#X connect 6 0 8 0;
#X connect 7 0 8 0;
#X connect 9 0 13 0;
#X connect 10 0 6 0;
#X connect 11 0 12 0;
#X connect 12 0 4 0;
#X connect 13 0 11 0;
#X connect 13 1 15 0;
#X connect 13 2 0 0;
#X connect 13 3 16 0;
#X connect 15 0 11 1;
#X connect 16 0 1 0;
#X restore 176 85 pd POS_SIZE;
#X obj 101 142 f 0;
#X obj 101 161 == 0;
#X text 132 142 ARMAZENA VALOR ATUAL;
#X text 137 161 INVERTE VALOR (MODO TOGGLE), f 13;
#X obj 101 123 sel 1;
#X obj 239 123 t f f f f f;
#X connect 2 0 7 0;
#X connect 2 1 15 0;
#X connect 2 4 16 0;
#X connect 3 0 2 0;
#X connect 4 0 1 0;
#X connect 5 0 0 0;
#X connect 6 0 5 1;
#X connect 7 0 5 0;
#X connect 7 1 4 0;
#X connect 9 0 3 0;
#X connect 10 0 2 3;
#X connect 11 0 12 0;
#X connect 12 0 2 2;
#X connect 15 0 11 0;
#X connect 16 0 11 1;
#X connect 16 1 6 0;
#X connect 16 2 4 1;
#X connect 16 3 0 1;
#X connect 16 4 1 1;
#X restore 421 148 pd HEADER;
#X msg 335 130 0;
#X msg 365 130 1;
#X obj 176 176 del 500;
#X obj 149 224 del 1000;
#X text 569 181 - LIGAR INTERFACE DO BPM NO CABEÇALHO - A PARTE DE
TRANSPORTE DA CENA FICA PRA DEPOIS, f 61;
#X connect 1 0 9 0;
#X connect 2 0 4 0;
#X connect 4 0 3 0;
#X connect 8 0 1 0;
#X connect 15 0 8 0;
#X connect 15 1 32 0;
#X connect 16 0 15 0;
#X connect 19 0 32 0;
#X connect 22 0 10 0;
#X connect 23 0 10 0;
#X connect 24 0 12 0;
#X connect 25 0 12 0;
#X connect 26 0 13 0;
#X connect 27 0 13 0;
#X connect 28 0 14 0;
#X connect 29 0 14 0;
#X connect 32 0 42 0;
#X connect 32 1 41 0;
#X connect 39 0 38 0;
#X connect 40 0 38 0;
#X connect 41 0 11 0;
#X connect 42 0 18 0;
