#N canvas 2 580 975 295 10;
#X declare -lib ofelia;
#X declare -path data -path data/bit_abs -path data/gui_abs -path data/memo
-path data/fonts -path data/png;
#X obj 570 29 declare -lib ofelia;
#X obj 58 167 tgl 15 0 empty empty empty 17 7 0 10 -262144 -1 -1 1
1;
#X text 55 87 TESTE GUI;
#X obj 58 29 bit_cpu;
#X msg 58 148 1;
#N canvas 131 144 483 314 PRINT_CPU 0;
#X obj 56 44 inlet;
#X floatatom 209 228 0 0 0 0 - - -;
#X obj 209 171 cputime;
#X obj 209 96 loadbang;
#X obj 209 134 metro 1000;
#X msg 209 115 1;
#X obj 209 153 t b b;
#X obj 209 209 * 0.1;
#X obj 209 190 int;
#X obj 56 72 tgl 15 0 empty empty empty 17 7 0 10 -262144 -1 -1 1 1
;
#X msg 209 247 text \$1;
#X obj 56 227 ofTranslate 0 0;
#X obj 85 170 r \$0-screenDimen;
#X obj 85 189 unpack f f;
#X obj 56 246 ofSetColor 255 255 255;
#X obj 56 88 ofHead 200;
#X obj 85 208 / 19;
#X obj 142 208 / 12.5;
#X obj 56 265 ofDrawText @myFont[1] CPU;
#X obj 209 44 ofLoadFont \; @myFont data/fonts/Sansation.ttf 15 \;
;
#X connect 0 0 9 0;
#X connect 1 0 10 0;
#X connect 2 0 8 0;
#X connect 3 0 5 0;
#X connect 4 0 6 0;
#X connect 5 0 4 0;
#X connect 6 0 2 0;
#X connect 6 1 2 1;
#X connect 7 0 1 0;
#X connect 8 0 7 0;
#X connect 9 0 15 0;
#X connect 10 0 18 0;
#X connect 11 0 14 0;
#X connect 12 0 13 0;
#X connect 13 0 16 0;
#X connect 13 1 17 0;
#X connect 14 0 18 0;
#X connect 15 0 11 0;
#X connect 16 0 11 1;
#X connect 17 0 11 2;
#X restore 58 183 pd PRINT_CPU;
#X obj 401 155 gui_track \$0 0;
#N canvas 2 223 1331 552 WINDOW_TOUCHS 0;
#N canvas 561 275 428 224 TAMANHOS_COMUNS 0;
#X msg 91 99 1334 750;
#X msg 159 99 1920 1080;
#X obj 91 122 /;
#X floatatom 91 144 8 0 0 0 - - -;
#X msg 91 72 1280 720;
#X floatatom 265 75 5 0 0 0 - - -;
#X obj 265 97 t f f;
#X floatatom 265 142 5 0 0 0 - - -;
#X floatatom 303 142 5 0 0 0 - - -;
#X msg 54 34 2560 1600;
#X text 120 34 TABLET;
#X text 153 73 CEL. BRASIL;
#X obj 323 43 / 1.77778;
#X obj 318 68 * 1.77778;
#X obj 303 119 / 1.77778;
#X connect 0 0 2 0;
#X connect 1 0 2 0;
#X connect 2 0 3 0;
#X connect 3 0 14 1;
#X connect 4 0 2 0;
#X connect 5 0 6 0;
#X connect 6 0 7 0;
#X connect 6 1 14 0;
#X connect 9 0 2 0;
#X connect 14 0 8 0;
#X restore 38 460 pd TAMANHOS_COMUNS;
#X obj 38 321 ofWindow 800 450 LEFT TOP;
#X obj 82 225 pack f f;
#X msg 101 292 dimen \$1 \$2;
#X obj 82 111 ofGetScreenDimen;
#X obj 82 95 bng 15 250 50 0 empty empty empty 17 7 0 10 -262144 -1
-1;
#X obj 82 263 s \$0-screenDimen;
#X obj 492 46 unpack f f;
#X floatatom 492 65 5 0 0 0 - - -;
#X floatatom 782 75 5 0 0 0 - - -;
#X text 598 25 DIMENSÃO DA TELA;
#X text 902 119 CABEÇALHO;
#X text 902 106 TRACKS;
#X text 612 83 LARGURA;
#X text 902 93 LARGURA;
#X obj 492 128 s \$0-width;
#X obj 782 138 s \$0-height;
#X obj 834 176 s \$0-h_tracks;
#X obj 492 27 r \$0-screenDimen;
#X obj 782 93 expr int($f1 * 1) \; int($f1 * 0.2) \; int($f1 * 0.2)
\;;
#X obj 692 468 ofTouchListener;
#X obj 692 497 s \$0-touchDown;
#X obj 791 497 s \$0-touchMove;
#X obj 890 497 s \$0-touchUp;
#X text 794 468 ENTRADA GLOBAL DE TOQUES;
#X obj 82 76 inlet;
#X obj 38 23 ofWindowLoadBang;
#X obj 544 147 s \$0-w_button;
#X text 612 96 LARGURA BOTÕES LATERAIS;
#X obj 597 185 s \$0-w_main;
#X text 612 109 LARGURA ÁREA PRINCIPAL;
#X obj 82 130 /;
#X obj 82 187 t f f;
#X text 117 168 DIMENSÃO X FIXA;
#X text 152 206 DIMENSÃO Y RELATIVA AO DISPOSITIVO;
#X obj 109 206 / 1.6;
#X obj 38 350 spigot 1;
#X obj 91 350 tgl 15 0 empty empty empty 17 7 0 10 -262144 -1 -1 0
1;
#X msg 201 303 destroy \, create;
#X msg 38 42 bgColor 80 80 80 \, frameRate 20;
#X obj 211 441 ofHead 10 1;
#X obj 82 244 t a a a;
#X obj 301 441 unpack f f;
#X text 374 460 DESENHA PNG DO FUNDO DO APP;
#X obj 887 138 s \$0-h_head;
#X obj 211 460 ofDrawImage \$0-pngBank[1];
#X obj 185 445 tgl 15 0 empty empty empty 17 7 0 10 -262144 -1 -1 0
1;
#X msg 244 112 1.77778;
#X obj 222 244 > 1.65;
#X obj 82 149 t b f f;
#X obj 222 263 s \$0-ratio;
#X text 294 263 ENVIA PROPORÇÃO DA TELA PARA CORRETORES NOS OBJETOS
(0 = TABLET / 1 = CELULAR), f 39;
#X text 299 112 DEBUG;
#X msg 244 131 1.6;
#X obj 244 150 t b f f;
#X obj 185 76 inlet;
#X msg 82 168 800;
#X msg 313 303 destroy;
#X obj 492 83 expr int($f1 * 1) \; int($f1 * 0.11) \; int($f1 * 0.75)
\;;
#X obj 902 331 hsl 128 15 0 1 0 0 empty empty empty -2 -8 0 10 -262144
-1 -1 0 1;
#X obj 827 369 tgl 15 0 empty empty empty 17 7 0 10 -262144 -1 -1 0
1;
#X obj 827 385 sel 1 0;
#X obj 899 404 t f f;
#X obj 827 404 f;
#X msg 960 423 3 400 150;
#X msg 899 423 3 \$1 150;
#X msg 827 423 3 \$1 150;
#X obj 899 385 int;
#X obj 1132 331 hsl 128 15 0 1 0 0 empty empty empty -2 -8 0 10 -262144
-1 -1 0 1;
#X obj 1057 385 sel 1 0;
#X obj 1129 404 t f f;
#X obj 1057 404 f;
#X obj 1129 385 int;
#X obj 1057 369 tgl 15 0 empty empty empty 17 7 0 10 -262144 -1 -1
0 1;
#X msg 1057 423 6 \$1 150;
#X msg 1129 423 6 \$1 150;
#X msg 1190 423 6 400 150;
#X obj 662 331 hsl 128 15 0 1 0 0 empty empty empty -2 -8 0 10 -262144
-1 -1 0 1;
#X obj 587 369 tgl 15 0 empty empty empty 17 7 0 10 -262144 -1 -1 0
1;
#X obj 587 385 sel 1 0;
#X obj 659 404 t f f;
#X obj 587 404 f;
#X obj 659 385 int;
#X msg 587 423 1 \$1 150;
#X msg 659 423 1 \$1 150;
#X msg 720 423 1 400 150;
#X text 1186 363 SIMULADOR DE TOQUES NA 1 CAMADA, f 12;
#X obj 659 347 * 599;
#X obj 659 366 + 101;
#X obj 899 347 * 599;
#X obj 899 366 + 101;
#X obj 1129 347 * 599;
#X obj 1129 366 + 101;
#X msg 587 331 1;
#X obj 587 350 t f f f;
#X msg 614 331 0;
#X obj 624 214 list prepend w_main;
#X obj 624 233 list trim;
#X obj 624 252 s \$0-dataBus;
#X obj 597 166 t f f;
#X obj 834 157 t f f;
#X obj 861 214 list prepend h_tracks;
#X msg 38 369 renderBang;
#X obj 38 388 s \$0-dataBus;
#X text 122 369 ENVIA BANG NA TAXA DE RENDER PARA MECANISMO DE ÁUDIO
, f 28;
#X connect 1 0 36 0;
#X connect 2 0 41 0;
#X connect 3 0 1 0;
#X connect 4 0 31 0;
#X connect 5 0 4 0;
#X connect 7 0 8 0;
#X connect 7 1 9 0;
#X connect 8 0 58 0;
#X connect 9 0 19 0;
#X connect 18 0 7 0;
#X connect 19 0 16 0;
#X connect 19 1 100 0;
#X connect 19 2 44 0;
#X connect 20 0 21 0;
#X connect 20 1 22 0;
#X connect 20 2 23 0;
#X connect 25 0 5 0;
#X connect 26 0 39 0;
#X connect 31 0 49 0;
#X connect 32 0 2 0;
#X connect 32 1 35 0;
#X connect 35 0 2 1;
#X connect 36 0 102 0;
#X connect 37 0 36 1;
#X connect 38 0 1 0;
#X connect 39 0 1 0;
#X connect 39 0 1 0;
#X connect 40 0 45 0;
#X connect 41 0 6 0;
#X connect 41 1 3 0;
#X connect 41 2 42 0;
#X connect 42 0 45 1;
#X connect 42 1 45 2;
#X connect 46 0 45 0;
#X connect 47 0 54 0;
#X connect 48 0 50 0;
#X connect 49 0 56 0;
#X connect 49 1 35 1;
#X connect 49 2 48 0;
#X connect 53 0 54 0;
#X connect 54 0 56 0;
#X connect 54 1 35 1;
#X connect 54 2 48 0;
#X connect 55 0 46 0;
#X connect 56 0 32 0;
#X connect 57 0 1 0;
#X connect 58 0 15 0;
#X connect 58 1 27 0;
#X connect 58 2 99 0;
#X connect 59 0 89 0;
#X connect 60 0 61 0;
#X connect 61 0 63 0;
#X connect 61 1 64 0;
#X connect 62 0 65 0;
#X connect 62 1 63 1;
#X connect 63 0 66 0;
#X connect 64 0 23 0;
#X connect 65 0 22 0;
#X connect 66 0 21 0;
#X connect 67 0 62 0;
#X connect 68 0 91 0;
#X connect 69 0 71 0;
#X connect 69 1 76 0;
#X connect 70 0 75 0;
#X connect 70 1 71 1;
#X connect 71 0 74 0;
#X connect 72 0 70 0;
#X connect 73 0 69 0;
#X connect 74 0 21 0;
#X connect 75 0 22 0;
#X connect 76 0 23 0;
#X connect 77 0 87 0;
#X connect 78 0 79 0;
#X connect 79 0 81 0;
#X connect 79 1 85 0;
#X connect 80 0 84 0;
#X connect 80 1 81 1;
#X connect 81 0 83 0;
#X connect 82 0 80 0;
#X connect 83 0 21 0;
#X connect 84 0 22 0;
#X connect 85 0 23 0;
#X connect 87 0 88 0;
#X connect 88 0 82 0;
#X connect 89 0 90 0;
#X connect 90 0 67 0;
#X connect 91 0 92 0;
#X connect 92 0 72 0;
#X connect 93 0 94 0;
#X connect 94 0 78 0;
#X connect 94 1 60 0;
#X connect 94 2 73 0;
#X connect 95 0 94 0;
#X connect 96 0 97 0;
#X connect 97 0 98 0;
#X connect 99 0 29 0;
#X connect 99 1 96 0;
#X connect 100 0 17 0;
#X connect 100 1 101 0;
#X connect 101 0 97 0;
#X connect 102 0 103 0;
#X restore 176 185 pd WINDOW_TOUCHS;
#X obj 401 174 gui_track \$0 1;
#X obj 401 193 gui_track \$0 2;
#X obj 401 212 gui_track \$0 3;
#X obj 58 129 t b b;
#X obj 58 110 ofWindowLoadBang;
#N canvas 2 137 279 153 TIME_NOTES 0;
#X text 44 27 1 block = 1.45125 msec;
#X text 44 46 1 frame/20 fps = 50 msec;
#X text 44 66 1 frame/30 fps = 33.3333 msec;
#X text 44 86 1 frame/60 fps = 16.6667 msec;
#X restore 159 29 pd TIME_NOTES;
#N canvas 2 53 382 280 INIT_SYSTEM 0;
#X obj 75 71 inlet TRIGGER;
#X obj 75 119 f 10;
#X obj 75 138 until;
#X obj 75 176 f;
#X obj 98 176 + 1;
#X msg 90 157 0;
#X obj 75 100 t b b;
#X obj 75 195 t f f;
#X obj 75 224 s \$0-LB;
#X text 53 25 ** ENVIA 10 BANGS ORDENADOS PARA SISTEMA DE INICIALIZAÇÃO
, f 32;
#X connect 0 0 6 0;
#X connect 1 0 2 0;
#X connect 2 0 3 0;
#X connect 3 0 7 0;
#X connect 4 0 3 1;
#X connect 5 0 3 1;
#X connect 6 0 1 0;
#X connect 6 1 5 0;
#X connect 7 0 8 0;
#X connect 7 1 4 0;
#X restore 149 233 pd INIT_SYSTEM;
#X obj 149 131 bng 15 250 50 0 empty empty empty 17 7 0 10 -262144
-1 -1;
#X obj 354 32 ESMERIL \$0;
#X obj 570 48 declare -path data -path data/bit_abs -path data/gui_abs
-path data/memo -path data/fonts -path data/png;
#X msg 335 139 0;
#X msg 365 139 1;
#X msg 335 158 0;
#X msg 365 158 1;
#X msg 335 177 0;
#X msg 365 177 1;
#X msg 335 196 0;
#X msg 365 196 1;
#X text 439 61 PNG / FONTES;
#N canvas 249 53 820 843 RESOURCES 0;
#X text 341 65 -- NAS ABSTRAÇÕES USA COMO ARGUMENTO UM OFFSET NO
BANCO DE IMAGENS \, E DENTRO DELAS FAZ UM LEITOR QUE LÊ O NÚMERO
NECESSÁRIO DE IMAGENS A PARTIR DO OFFSET;
#X obj 366 199 r \$0-height;
#X obj 366 218 change;
#X obj 366 237 / 10;
#X obj 366 256 int;
#X text 442 320 CARREGA FONTE COM 1/10 ALTURA DA TELA;
#X text 41 26 ** BANCO DE PNG'S;
#X text 364 166 ** BANCO DE FONTES;
#X obj 366 314 ofLoadFont \; \$0-font \;;
#X text 23 85 0;
#X text 23 98 1;
#X text 23 111 2;
#X text 23 124 3;
#X text 23 137 4;
#X text 23 150 5;
#X text 23 163 6;
#X text 23 176 7;
#X text 23 189 8;
#X text 23 202 9;
#X text 17 215 10;
#X text 17 228 11;
#X text 17 241 12;
#X text 17 254 13;
#X text 17 267 14;
#X text 17 279 15;
#X text 17 293 16;
#X text 17 306 17;
#X text 17 319 18;
#X text 17 332 19;
#X text 17 345 20;
#X text 17 358 21;
#X text 17 371 22;
#X text 17 384 23;
#X text 17 397 24;
#X text 17 410 25;
#X text 17 423 26;
#X msg 366 275 load data/fonts/DINEngschriftStd.otf \$1;
#X text 17 436 27;
#X text 17 449 28;
#X text 17 462 29;
#X text 17 475 30;
#X text 17 488 31;
#X text 17 500 32;
#X text 17 514 33;
#X text 17 527 34;
#X text 17 540 35;
#X text 17 553 36;
#X text 17 566 37;
#X text 17 579 38;
#X text 17 592 39;
#X text 17 605 40;
#X text 17 618 41;
#X text 17 631 42;
#X text 17 644 43;
#X text 17 657 44;
#X text 17 669 45;
#X text 17 683 46;
#X text 17 696 47;
#X text 17 709 48;
#X text 17 722 49;
#X text 17 735 50;
#X text 17 748 51;
#X text 17 760 52;
#X text 17 774 53;
#X text 17 787 54;
#X text 17 800 55;
#X text 17 814 56;
#X text 17 827 57;
#X text 17 839 58;
#X text 17 852 59;
#X text 17 865 60;
#X text 17 878 61;
#X text 17 891 62;
#X text 17 904 63;
#X text 17 916 64;
#X text 17 930 65;
#X text 17 943 66;
#X text 17 956 67;
#X text 17 969 68;
#X text 17 982 69;
#X text 17 995 70;
#X text 17 1007 71;
#X text 17 1021 72;
#X text 17 1034 73;
#X obj 366 375 ofEditFont \$0-font[0];
#X text 485 356 ALTERA ESPAÇAMENTO ENTRE CARACTERES;
#X obj 43 59 ofLoadImage \; \$0-pngBank \; data/png/_app.png \; data/png/bg_app.png
\; data/png/btn_multigranular_off.png \; data/png/btn_beatslicer_on.png
\; data/png/btn_multigranular_on.png \; data/png/btn_functions_random_off.png
\; data/png/btn_functions_random_on.png \; data/png/btn_functions_pattern_off.png
\; data/png/btn_functions_pattern_on.png \; data/png/btn_functions_freeze_off.png
\; data/png/btn_functions_freeze_on.png \; data/png/btn_functions_reverse_off.png
\; data/png/btn_functions_reverse_on.png \; data/png/btn_functions_reverseSlice_off.png
\; data/png/btn_functions_reverseSlice_on.png \; data/png/btn_functions_pin_off.png
\; data/png/btn_functions_pin_on.png \; data/png/btn_nav_waveform_off.png
\; data/png/btn_nav_waveform_on.png \; data/png/btn_nav_slicer_off.png
\; data/png/btn_nav_slicer_on.png \; data/png/btn_nav_audio_off.png
\; data/png/btn_nav_audio_on.png \; data/png/btn_nav_functions_off.png
\; data/png/btn_nav_functions_on.png \; data/png/btn_select_audio_off.png
\; data/png/btn_select_audio_on.png \; data/png/btn_top_menu_off.png
\; data/png/btn_top_menu_on.png \; data/png/btn_top_loop.png \; data/png/btn_top_play.png
\; data/png/help_slices.png \; data/png/help_range.png \; data/png/help_offset.png
\; data/png/btn_numbers_setaesq_off.png \; data/png/btn_numbers_setaesq_on.png
\; data/png/btn_numbers_setaesq_on2_vermelha.png \; data/png/btn_slices_number_off.png
\; data/png/btn_slices_number_on_vermelho.png \; data/png/btn_numbers_setadir_off.png
\; data/png/btn_numbers_setadir_on.png \; data/png/btn_numbers_setadir_on2_vermelha.png
\; data/png/btn_numbers_setaesq_off.png \; data/png/btn_numbers_setaesq_on.png
\; data/png/btn_numbers_setaesq_on2_roxa.png \; data/png/btn_slices_number_off.png
\; data/png/btn_slices_number_on_roxo.png \; data/png/btn_numbers_setadir_off.png
\; data/png/btn_numbers_setadir_on.png \; data/png/btn_numbers_setadir_on2_roxa.png
\; data/png/btn_numbers_setaesq_off.png \; data/png/btn_numbers_setaesq_on.png
\; data/png/btn_numbers_setaesq_on2_laranja.png \; data/png/btn_slices_number_off.png
\; data/png/btn_slices_number_on_laranja.png \; data/png/btn_numbers_setadir_off.png
\; data/png/btn_numbers_setadir_on.png \; data/png/btn_numbers_setadir_on2_laranja.png
\; data/png/btn_numbers_setaesq_off.png \; data/png/btn_numbers_setaesq_on.png
\; data/png/btn_numbers_setaesq_on2_roxa.png \; data/png/btn_top_bpm_off.png
\; data/png/btn_top_cena_on.png \; data/png/btn_numbers_setadir_off.png
\; data/png/btn_numbers_setadir_on.png \; data/png/btn_numbers_setadir_on2_roxa.png
\; data/png/btn_numbers_setaesq_off.png \; data/png/btn_numbers_setaesq_on.png
\; data/png/btn_numbers_setaesq_on2_laranja.png \; data/png/btn_top_cena_off.png
\; data/png/btn_top_cena_on.png \; data/png/btn_numbers_setadir_off.png
\; data/png/btn_numbers_setadir_on.png \; data/png/btn_numbers_setadir_on2_laranja.png
\;;
#X msg 366 356 letterSpacing 0.9;
#X connect 1 0 2 0;
#X connect 2 0 3 0;
#X connect 3 0 4 0;
#X connect 4 0 36 0;
#X connect 8 0 87 0;
#X connect 36 0 8 0;
#X connect 87 0 84 0;
#X restore 354 61 pd RESOURCES;
#X obj 149 147 t b b;
#X text 569 179 - MENU DE CENAS;
#N canvas 342 240 440 325 HEADER 0;
#N canvas 47 475 1214 353 SCENE 0;
#X obj 262 190 sel 1;
#X obj 562 190 sel 1;
#X obj 402 190 sel 0;
#X obj 102 190 sel 0;
#X obj 49 171 gui_button \$0 300 20 50 50 0 1 0 0 1;
#X obj 349 171 gui_button \$0 380 20 50 50 0 1 0 0 1;
#X obj 49 32 inlet RENDER_CHAIN;
#X obj 49 131 t b b;
#X obj 562 32 inlet TOUCH;
#X obj 562 61 == 0;
#X msg 562 80 touch \$1;
#X msg 191 133 0;
#X obj 191 152 t f f;
#X msg 262 219 symbol AUDIOS0;
#X msg 562 219 symbol AUDIOS1;
#X obj 262 248 list prepend scene;
#X obj 262 267 list trim;
#X obj 191 32 r \$0-sceneBus_set;
#X obj 191 51 route done;
#X obj 262 286 s \$0-sceneBus;
#X obj 191 70 t b b;
#X obj 218 89 s \$0-changeReset;
#X text 326 89 ENVIA RESET PARA [change] NAS [gui_track] QUANDO CARREGA
A CENA, f 33;
#X obj 741 85 ofGetDate;
#X obj 741 69 bng 15 250 50 0 empty empty empty 17 7 0 10 -262144 -1
-1;
#X obj 773 125 print;
#X obj 811 69 bng 15 250 50 0 empty empty empty 17 7 0 10 -262144 -1
-1;
#X obj 811 85 ofGetTime;
#X text 878 85 PARA MONTAR NOME NO SISTEMA DE GRAVAÇÃO;
#X connect 0 0 13 0;
#X connect 1 0 14 0;
#X connect 2 1 5 2;
#X connect 3 1 4 2;
#X connect 4 1 3 0;
#X connect 4 4 0 0;
#X connect 5 1 2 0;
#X connect 5 4 1 0;
#X connect 6 0 7 0;
#X connect 7 0 4 0;
#X connect 7 1 5 0;
#X connect 8 0 9 0;
#X connect 9 0 10 0;
#X connect 10 0 4 3;
#X connect 10 0 5 3;
#X connect 11 0 12 0;
#X connect 12 0 4 2;
#X connect 12 1 5 2;
#X connect 13 0 15 0;
#X connect 14 0 15 0;
#X connect 15 0 16 0;
#X connect 16 0 19 0;
#X connect 17 0 18 0;
#X connect 18 0 20 0;
#X connect 20 0 11 0;
#X connect 20 1 21 0;
#X connect 23 0 25 0;
#X connect 24 0 23 0;
#X connect 26 0 27 0;
#X connect 27 0 25 0;
#X restore 56 261 pd SCENE;
#N canvas 22 560 1201 343 TRANSPORT 0;
#X obj 46 35 inlet RENDER_CHAIN;
#X obj 896 165 gui_hslider \$0;
#X obj 46 64 t b b b b;
#N canvas 372 165 724 239 POS_SIZE 0;
#X msg 48 155 posX \$1;
#X msg 300 155 posY \$1;
#X msg 356 155 sizeY \$1;
#X obj 48 194 outlet CONTROLS;
#X obj 48 31 r \$0-width;
#X obj 300 107 -;
#X obj 300 50 t f f;
#X obj 300 126 / 2;
#X text 376 69 CÁLCULOS DOS VALORES Y LOCAIS;
#X text 379 31 ALTURA DO CABEÇALHO;
#X obj 300 31 r \$0-h_head;
#X msg 462 155 limit 0 \$1;
#X obj 462 136 * 2;
#X text 538 155 LIMITE DINÂMICO ENTRE 0 - 2xBPM ORIGINAL, f 21;
#X text 119 31 LARGURA TOTAL, f 7;
#X obj 48 50 * 0.5;
#X obj 327 88 t f f f;
#X msg 143 155 sizeX \$1;
#X obj 327 69 * 0.65;
#X obj 143 136 * 2.25;
#X text 175 79 ALTERA POSIÇÃO LOCAL DE ACORDO COM DISPOSITIVO, f
15;
#N canvas 648 145 462 230 CORRECT_POSITION 0;
#X text 130 63 RECEBE PROPORÇÃO DA TELA;
#X obj 43 120 * 1;
#X msg 58 101 1;
#X obj 58 82 sel 0 1;
#X obj 43 34 inlet;
#X obj 43 149 outlet;
#X text 113 82 ALTERA POSIÇÃO LOCAL DE ACORDO COM DISPOSITIVO;
#X obj 58 63 r \$0-ratio;
#X msg 88 101 1.025;
#X connect 1 0 5 0;
#X connect 2 0 1 1;
#X connect 3 0 2 0;
#X connect 3 1 8 0;
#X connect 4 0 1 0;
#X connect 7 0 3 0;
#X connect 8 0 1 1;
#X restore 48 79 pd CORRECT_POSITION;
#X obj 462 117 inlet ROOT_BPM;
#X text 559 117 BPM DO PROJETO;
#X connect 0 0 3 0;
#X connect 1 0 3 0;
#X connect 2 0 3 0;
#X connect 4 0 15 0;
#X connect 5 0 7 0;
#X connect 6 0 5 0;
#X connect 6 1 18 0;
#X connect 7 0 1 0;
#X connect 10 0 6 0;
#X connect 11 0 3 0;
#X connect 12 0 11 0;
#X connect 15 0 21 0;
#X connect 16 0 5 1;
#X connect 16 1 2 0;
#X connect 16 2 19 0;
#X connect 17 0 3 0;
#X connect 18 0 16 0;
#X connect 19 0 17 0;
#X connect 21 0 0 0;
#X connect 22 0 12 0;
#X restore 675 146 pd POS_SIZE;
#X obj 1069 35 inlet TOUCH;
#X msg 1069 149 touch \$1;
#N canvas 433 150 622 252 POS_SIZE 0;
#X msg 50 149 posX \$1;
#X msg 302 149 posY \$1;
#X msg 365 149 sizeX \$1;
#X msg 428 149 sizeY \$1;
#X obj 50 188 outlet CONTROLS;
#X obj 50 35 r \$0-width;
#X obj 302 111 -;
#X obj 302 54 t f f;
#X obj 302 130 / 2;
#X text 381 35 ALTURA DO CABEÇALHO;
#X obj 302 35 r \$0-h_head;
#X text 121 35 LARGURA TOTAL, f 7;
#X obj 329 92 t f f f;
#X text 378 73 CÁLCULOS DOS VALORES X Y LOCAIS;
#X obj 50 54 * 0.145;
#X text 177 73 ALTERA POSIÇÃO LOCAL DE ACORDO COM DISPOSITIVO, f
15;
#N canvas 648 145 462 230 CORRECT_POSITION 0;
#X text 130 63 RECEBE PROPORÇÃO DA TELA;
#X obj 43 120 * 1;
#X msg 58 101 1;
#X obj 58 82 sel 0 1;
#X obj 43 34 inlet;
#X obj 43 149 outlet;
#X text 113 82 ALTERA POSIÇÃO LOCAL DE ACORDO COM DISPOSITIVO;
#X obj 58 63 r \$0-ratio;
#X msg 88 101 1.06;
#X connect 1 0 5 0;
#X connect 2 0 1 1;
#X connect 3 0 2 0;
#X connect 3 1 8 0;
#X connect 4 0 1 0;
#X connect 7 0 3 0;
#X connect 8 0 1 1;
#X restore 50 73 pd CORRECT_POSITION;
#X obj 329 73 * 0.65;
#X connect 0 0 4 0;
#X connect 1 0 4 0;
#X connect 2 0 4 0;
#X connect 3 0 4 0;
#X connect 5 0 14 0;
#X connect 6 0 8 0;
#X connect 7 0 6 0;
#X connect 7 1 17 0;
#X connect 8 0 1 0;
#X connect 10 0 7 0;
#X connect 12 0 6 1;
#X connect 12 1 2 0;
#X connect 12 2 3 0;
#X connect 14 0 16 0;
#X connect 16 0 0 0;
#X connect 17 0 12 0;
#X restore 96 146 pd POS_SIZE;
#X obj 91 203 f 0;
#X obj 91 222 == 0;
#X obj 91 184 sel 1;
#X obj 235 184 t f f;
#X obj 806 214 spigot 1;
#X msg 881 195 0;
#X msg 851 195 1;
#X text 866 214 EVITA LOOP;
#X obj 977 214 spigot 1;
#X msg 1052 195 0;
#X msg 1022 195 1;
#X text 1037 214 EVITA LOOP;
#X obj 767 146 t b f b;
#X obj 958 146 t b f b;
#N canvas 461 196 714 274 POS_SIZE 0;
#X msg 40 175 posX \$1;
#X msg 292 175 posY \$1;
#X msg 135 175 sizeX \$1;
#X msg 348 175 sizeY \$1;
#X obj 40 214 outlet CONTROLS;
#X obj 40 31 r \$0-width;
#X obj 292 107 -;
#X obj 292 50 t f f;
#X obj 292 126 / 2;
#X text 367 69 CÁLCULOS DOS VALORES Y LOCAIS;
#X text 371 31 ALTURA DO CABEÇALHO;
#X obj 292 31 r \$0-h_head;
#X msg 444 175 limit 0 \$1;
#X obj 444 156 * 2;
#X text 520 175 LIMITE DINÂMICO ENTRE 0 - 2xBPM ORIGINAL, f 21;
#X text 528 137 RECEBE BPM DO PROJETO;
#X text 111 31 LARGURA TOTAL, f 7;
#X obj 444 137 r \$0-rootBPM;
#X obj 40 50 * 0.275;
#X obj 319 88 t f f f;
#X obj 319 69 * 0.65;
#X obj 135 156 * 2.25;
#X text 167 79 ALTERA POSIÇÃO LOCAL DE ACORDO COM DISPOSITIVO, f
15;
#N canvas 648 145 462 230 CORRECT_POSITION 0;
#X text 130 63 RECEBE PROPORÇÃO DA TELA;
#X obj 43 120 * 1;
#X msg 58 101 1;
#X obj 58 82 sel 0 1;
#X obj 43 34 inlet;
#X obj 43 149 outlet;
#X text 113 82 ALTERA POSIÇÃO LOCAL DE ACORDO COM DISPOSITIVO;
#X obj 58 63 r \$0-ratio;
#X msg 88 101 1.04;
#X connect 1 0 5 0;
#X connect 2 0 1 1;
#X connect 3 0 2 0;
#X connect 3 1 8 0;
#X connect 4 0 1 0;
#X connect 7 0 3 0;
#X connect 8 0 1 1;
#X restore 40 79 pd CORRECT_POSITION;
#X connect 0 0 4 0;
#X connect 1 0 4 0;
#X connect 2 0 4 0;
#X connect 3 0 4 0;
#X connect 5 0 18 0;
#X connect 6 0 8 0;
#X connect 7 0 6 0;
#X connect 7 1 20 0;
#X connect 8 0 1 0;
#X connect 11 0 7 0;
#X connect 12 0 4 0;
#X connect 13 0 12 0;
#X connect 17 0 13 0;
#X connect 18 0 23 0;
#X connect 19 0 6 1;
#X connect 19 1 3 0;
#X connect 19 2 21 0;
#X connect 20 0 19 0;
#X connect 21 0 2 0;
#X connect 23 0 0 0;
#X restore 375 146 pd POS_SIZE;
#X obj 46 165 gui_button \$0 0 0 1 1 0 0 1 29 0;
#X obj 325 165 gui_number \$0 0 0 1 1 1 0 1 66 0;
#X obj 605 165 gui_number \$0 0 0 1 1 140 0 1 58 0;
#X text 94 113 SEQUENCIADOR DA CENA;
#X text 362 113 MOMENTOS DA CENA;
#X text 662 113 BPM - NÚMEROS;
#X text 942 122 BPM - SLIDER;
#X obj 514 194 int;
#X obj 448 35 r \$0-headerBus_set;
#X text 569 35 RECEBE CONTROLES DO MECANISMO DE ÁUDIO;
#X obj 514 213 spigot 1;
#X msg 589 194 0;
#X msg 559 194 1;
#X text 574 213 EVITA LOOP;
#X obj 495 146 t b f b;
#X obj 262 213 spigot 1;
#X msg 337 194 0;
#X msg 307 194 1;
#X text 322 213 EVITA LOOP;
#X obj 216 146 t b f b;
#X obj 806 233 list prepend bpm;
#X obj 262 271 list trim;
#X obj 262 290 s \$0-headerBus;
#X obj 977 233 list prepend speed;
#X obj 514 232 list prepend moment;
#X obj 262 232 list prepend scenePlay;
#X text 359 290 ENVIA CONTROLES PARA MECANISMO DE ÁUDIO E REPRODUÇÃO
DA CENA;
#X obj 448 54 route scenePlay moment bpm rootBpm speed;
#X obj 590 73 t f f;
#X connect 0 0 2 0;
#X connect 1 1 15 0;
#X connect 2 0 22 0;
#X connect 2 1 23 0;
#X connect 2 2 24 0;
#X connect 2 3 1 0;
#X connect 3 0 24 1;
#X connect 4 0 5 0;
#X connect 5 0 1 1;
#X connect 5 0 24 1;
#X connect 5 0 23 1;
#X connect 5 0 22 3;
#X connect 6 0 22 3;
#X connect 7 0 8 0;
#X connect 8 0 22 2;
#X connect 9 0 7 0;
#X connect 10 0 7 1;
#X connect 10 1 37 0;
#X connect 11 0 42 0;
#X connect 12 0 11 1;
#X connect 13 0 11 1;
#X connect 15 0 45 0;
#X connect 16 0 15 1;
#X connect 17 0 15 1;
#X connect 19 0 13 0;
#X connect 19 1 24 1;
#X connect 19 2 12 0;
#X connect 20 0 17 0;
#X connect 20 1 1 1;
#X connect 20 2 16 0;
#X connect 21 0 23 1;
#X connect 22 1 9 0;
#X connect 22 4 10 0;
#X connect 23 1 29 0;
#X connect 24 1 11 0;
#X connect 29 0 32 0;
#X connect 30 0 49 0;
#X connect 32 0 46 0;
#X connect 33 0 32 1;
#X connect 34 0 32 1;
#X connect 36 0 34 0;
#X connect 36 1 23 1;
#X connect 36 2 33 0;
#X connect 37 0 47 0;
#X connect 38 0 37 1;
#X connect 39 0 37 1;
#X connect 41 0 39 0;
#X connect 41 1 22 2;
#X connect 41 2 38 0;
#X connect 42 0 43 0;
#X connect 43 0 44 0;
#X connect 45 0 43 0;
#X connect 46 0 43 0;
#X connect 47 0 43 0;
#X connect 49 0 41 0;
#X connect 49 1 36 0;
#X connect 49 2 19 0;
#X connect 49 3 50 0;
#X connect 49 4 20 0;
#X connect 50 0 3 0;
#X connect 50 1 19 0;
#X restore 239 261 pd TRANSPORT;
#X obj 56 65 ofHead 100 1;
#X obj 239 232 spigot;
#X obj 56 232 spigot 1;
#X obj 101 213 == 0;
#X obj 56 123 t b b;
#X text 261 104 SELETOR DO CABEÇALHO;
#X obj 56 26 inlet ON/OFF;
#N canvas 223 112 616 273 POS_SIZE 0;
#X obj 291 113 -;
#X obj 291 132 / 2;
#X msg 45 171 posX \$1;
#X msg 291 171 posY \$1;
#X msg 361 171 sizeX \$1;
#X msg 441 171 sizeY \$1;
#X obj 45 210 outlet CONTROLS;
#X obj 291 38 r \$0-h_head;
#X text 361 76 PORCENTAGEM DA ALTURA DO CABEÇALHO;
#X text 370 38 RECEBE ALTURA DO CABEÇALHO;
#X obj 318 95 t f f f;
#X obj 291 57 t f f;
#X obj 45 38 r \$0-width;
#X text 118 38 RECEBE LARGURA TOTAL;
#X obj 45 57 * 0.02;
#X text 172 76 ALTERA POSIÇÃO LOCAL DE ACORDO COM DISPOSITIVO, f
15;
#N canvas 648 145 462 230 CORRECT_POSITION 0;
#X text 130 63 RECEBE PROPORÇÃO DA TELA;
#X obj 43 120 * 1;
#X msg 58 101 1;
#X obj 58 82 sel 0 1;
#X obj 43 34 inlet;
#X obj 43 149 outlet;
#X text 113 82 ALTERA POSIÇÃO LOCAL DE ACORDO COM DISPOSITIVO;
#X obj 58 63 r \$0-ratio;
#X msg 88 101 1.4;
#X connect 1 0 5 0;
#X connect 2 0 1 1;
#X connect 3 0 2 0;
#X connect 3 1 8 0;
#X connect 4 0 1 0;
#X connect 7 0 3 0;
#X connect 8 0 1 1;
#X restore 45 76 pd CORRECT_POSITION;
#X obj 318 76 * 0.65;
#X connect 0 0 1 0;
#X connect 1 0 3 0;
#X connect 2 0 6 0;
#X connect 3 0 6 0;
#X connect 4 0 6 0;
#X connect 5 0 6 0;
#X connect 7 0 11 0;
#X connect 10 0 0 1;
#X connect 10 1 4 0;
#X connect 10 2 5 0;
#X connect 11 0 0 0;
#X connect 11 1 17 0;
#X connect 12 0 14 0;
#X connect 14 0 16 0;
#X connect 16 0 2 0;
#X connect 17 0 10 0;
#X restore 182 85 pd POS_SIZE;
#X obj 101 142 f 0;
#X obj 101 161 == 0;
#X text 132 142 ARMAZENA VALOR ATUAL;
#X text 137 161 INVERTE VALOR (MODO TOGGLE), f 13;
#X obj 101 123 sel 1;
#X obj 245 123 t f f f f f;
#X obj 56 104 gui_button \$0 0 0 1 1 0 0 1 27 1;
#X connect 2 0 16 0;
#X connect 3 0 1 0;
#X connect 4 0 0 0;
#X connect 5 0 4 1;
#X connect 6 0 4 0;
#X connect 6 1 3 0;
#X connect 8 0 2 0;
#X connect 9 0 16 3;
#X connect 10 0 11 0;
#X connect 11 0 16 2;
#X connect 14 0 10 0;
#X connect 15 0 10 1;
#X connect 15 1 5 0;
#X connect 15 2 3 1;
#X connect 15 3 0 1;
#X connect 15 4 1 1;
#X connect 16 0 6 0;
#X connect 16 1 14 0;
#X connect 16 4 15 0;
#X restore 401 126 pd HEADER;
#X msg 335 110 0;
#X msg 365 110 1;
#X text 569 199 - VERSÃO COMPUTADOR RODANDO ÁUDIO EM [pd~];
#X obj 261 169 tgl 15 0 empty empty empty 17 7 0 10 -262144 -1 -1 0
1;
#X obj 149 214 del 100;
#X obj 176 166 del 50;
#X text 569 139 - LIMITER NOS CANAIS;
#X text 569 159 - 2 CABEÇALHO - SISTEMA DE GRAVAÇÃO;
#X text 569 119 - LIGAR SISTEMA DE REPRODUÇÃO DA CENA;
#X connect 1 0 5 0;
#X connect 4 0 1 0;
#X connect 11 0 4 0;
#X connect 11 1 28 0;
#X connect 12 0 11 0;
#X connect 15 0 28 0;
#X connect 18 0 6 0;
#X connect 19 0 6 0;
#X connect 20 0 8 0;
#X connect 21 0 8 0;
#X connect 22 0 9 0;
#X connect 23 0 9 0;
#X connect 24 0 10 0;
#X connect 25 0 10 0;
#X connect 28 0 35 0;
#X connect 28 1 36 0;
#X connect 31 0 30 0;
#X connect 32 0 30 0;
#X connect 34 0 7 1;
#X connect 35 0 14 0;
#X connect 36 0 7 0;
