#N canvas 61 499 985 367 10;
#X declare -lib ofelia -lib zexy;
#X declare -path data -path data/abs -path data/scenes -path data/fonts
-path data/png;
#X obj 58 167 tgl 15 0 empty empty empty 17 7 0 10 -262144 -1 -1 1
1;
#X text 55 87 TESTE GUI;
#X obj 58 29 bit_cpu;
#X msg 58 148 1;
#N canvas 131 200 357 281 PRINT_CPU 0;
#X obj 56 44 inlet;
#X floatatom 209 168 0 0 0 0 - - -;
#X obj 209 111 cputime;
#X obj 209 36 loadbang;
#X obj 209 74 metro 1000;
#X msg 209 55 1;
#X obj 209 93 t b b;
#X obj 209 149 * 0.1;
#X obj 209 130 int;
#X obj 56 72 tgl 15 0 empty empty empty 17 7 0 10 -262144 -1 -1 1 1
;
#X msg 209 187 text \$1;
#X obj 56 88 ofHead 200;
#X obj 56 186 ofSetColor gray;
#X obj 56 167 ofTranslate 10 10 0;
#X obj 56 205 ofDrawTextAsShapes \$0-font[0] 15;
#X connect 0 0 9 0;
#X connect 1 0 10 0;
#X connect 2 0 8 0;
#X connect 3 0 5 0;
#X connect 4 0 6 0;
#X connect 5 0 4 0;
#X connect 6 0 2 0;
#X connect 6 1 2 1;
#X connect 7 0 1 0;
#X connect 8 0 7 0;
#X connect 9 0 11 0;
#X connect 10 0 14 0;
#X connect 11 0 13 0;
#X connect 12 0 14 0;
#X connect 13 0 12 0;
#X restore 58 183 pd PRINT_CPU;
#X obj 381 225 gui_track \$0 0;
#N canvas 2 344 1331 552 WINDOW_TOUCHS 0;
#N canvas 561 275 428 224 TAMANHOS_COMUNS 0;
#X msg 91 99 1334 750;
#X msg 159 99 1920 1080;
#X obj 91 122 /;
#X floatatom 91 144 8 0 0 0 - - -;
#X msg 91 72 1280 720;
#X floatatom 265 75 5 0 0 0 - - -;
#X obj 265 97 t f f;
#X floatatom 265 142 5 0 0 0 - - -;
#X floatatom 303 142 5 0 0 0 - - -;
#X msg 54 34 2560 1600;
#X text 120 34 TABLET;
#X text 153 73 CEL. BRASIL;
#X obj 323 43 / 1.77778;
#X obj 318 68 * 1.77778;
#X obj 303 119 / 1.77778;
#X connect 0 0 2 0;
#X connect 1 0 2 0;
#X connect 2 0 3 0;
#X connect 3 0 14 1;
#X connect 4 0 2 0;
#X connect 5 0 6 0;
#X connect 6 0 7 0;
#X connect 6 1 14 0;
#X connect 9 0 2 0;
#X connect 14 0 8 0;
#X restore 38 460 pd TAMANHOS_COMUNS;
#X obj 38 321 ofWindow 800 450 LEFT TOP;
#X obj 82 225 pack f f;
#X msg 101 292 dimen \$1 \$2;
#X obj 82 111 ofGetScreenDimen;
#X obj 82 95 bng 15 250 50 0 empty empty empty 17 7 0 10 -262144 -1
-1;
#X obj 82 263 s \$0-screenDimen;
#X obj 492 46 unpack f f;
#X floatatom 492 65 5 0 0 0 - - -;
#X floatatom 782 75 5 0 0 0 - - -;
#X text 598 25 DIMENSÃO DA TELA;
#X text 902 119 CABEÇALHO;
#X text 902 106 TRACKS;
#X text 612 83 LARGURA;
#X text 902 93 LARGURA;
#X obj 492 128 s \$0-width;
#X obj 782 138 s \$0-height;
#X obj 834 176 s \$0-h_tracks;
#X obj 492 27 r \$0-screenDimen;
#X obj 782 93 expr int($f1 * 1) \; int($f1 * 0.2) \; int($f1 * 0.2)
\;;
#X obj 692 468 ofTouchListener;
#X obj 692 497 s \$0-touchDown;
#X obj 791 497 s \$0-touchMove;
#X obj 890 497 s \$0-touchUp;
#X text 794 468 ENTRADA GLOBAL DE TOQUES;
#X obj 82 76 inlet;
#X obj 38 23 ofWindowLoadBang;
#X obj 544 147 s \$0-w_button;
#X text 612 96 LARGURA BOTÕES LATERAIS;
#X obj 597 185 s \$0-w_main;
#X text 612 109 LARGURA ÁREA PRINCIPAL;
#X obj 82 130 /;
#X obj 82 187 t f f;
#X text 117 168 DIMENSÃO X FIXA;
#X text 152 206 DIMENSÃO Y RELATIVA AO DISPOSITIVO;
#X obj 109 206 / 1.6;
#X obj 38 350 spigot 1;
#X obj 91 350 tgl 15 0 empty empty empty 17 7 0 10 -262144 -1 -1 0
1;
#X msg 201 303 destroy \, create;
#X msg 38 42 bgColor 80 80 80 \, frameRate 20;
#X obj 211 441 ofHead 10 1;
#X obj 82 244 t a a a;
#X obj 301 441 unpack f f;
#X text 374 460 DESENHA PNG DO FUNDO DO APP;
#X obj 887 138 s \$0-h_head;
#X obj 211 460 ofDrawImage \$0-pngBank[1];
#X obj 185 445 tgl 15 0 empty empty empty 17 7 0 10 -262144 -1 -1 0
1;
#X msg 244 114 1.77778;
#X obj 222 244 > 1.65;
#X obj 82 149 t b f f;
#X obj 222 263 s \$0-ratio;
#X text 294 263 ENVIA PROPORÇÃO DA TELA PARA CORRETORES NOS OBJETOS
(0 = TABLET / 1 = CELULAR), f 39;
#X text 309 124 DEBUG;
#X msg 244 133 1.6;
#X obj 244 152 t b f f;
#X obj 185 76 inlet;
#X msg 82 168 800;
#X msg 313 303 destroy;
#X obj 492 83 expr int($f1 * 1) \; int($f1 * 0.11) \; int($f1 * 0.75)
\;;
#X obj 902 331 hsl 128 15 0 1 0 0 empty empty empty -2 -8 0 10 -262144
-1 -1 0 1;
#X obj 827 369 tgl 15 0 empty empty empty 17 7 0 10 -262144 -1 -1 0
1;
#X obj 827 385 sel 1 0;
#X obj 899 404 t f f;
#X obj 827 404 f;
#X msg 960 423 3 400 150;
#X msg 899 423 3 \$1 150;
#X msg 827 423 3 \$1 150;
#X obj 899 385 int;
#X obj 1132 331 hsl 128 15 0 1 0 0 empty empty empty -2 -8 0 10 -262144
-1 -1 0 1;
#X obj 1057 385 sel 1 0;
#X obj 1129 404 t f f;
#X obj 1057 404 f;
#X obj 1129 385 int;
#X obj 1057 369 tgl 15 0 empty empty empty 17 7 0 10 -262144 -1 -1
0 1;
#X msg 1057 423 6 \$1 150;
#X msg 1129 423 6 \$1 150;
#X msg 1190 423 6 400 150;
#X obj 662 331 hsl 128 15 0 1 0 0 empty empty empty -2 -8 0 10 -262144
-1 -1 0 1;
#X obj 587 369 tgl 15 0 empty empty empty 17 7 0 10 -262144 -1 -1 0
1;
#X obj 587 385 sel 1 0;
#X obj 659 404 t f f;
#X obj 587 404 f;
#X obj 659 385 int;
#X msg 587 423 1 \$1 150;
#X msg 659 423 1 \$1 150;
#X msg 720 423 1 400 150;
#X text 1186 363 SIMULADOR DE TOQUES NA 1 CAMADA, f 12;
#X obj 659 347 * 599;
#X obj 659 366 + 101;
#X obj 899 347 * 599;
#X obj 899 366 + 101;
#X obj 1129 347 * 599;
#X obj 1129 366 + 101;
#X msg 587 331 1;
#X obj 587 350 t f f f;
#X msg 614 331 0;
#X obj 624 214 list prepend w_main;
#X obj 624 233 list trim;
#X obj 624 252 s \$0-dataBus;
#X obj 597 166 t f f;
#X obj 834 157 t f f;
#X obj 861 214 list prepend h_tracks;
#X msg 38 369 renderBang;
#X obj 38 388 s \$0-dataBus;
#X text 122 369 ENVIA BANG NA TAXA DE RENDER PARA MECANISMO DE ÁUDIO
, f 28;
#X obj 244 76 inlet;
#X obj 244 95 sel 0 1;
#X connect 1 0 36 0;
#X connect 2 0 41 0;
#X connect 3 0 1 0;
#X connect 4 0 31 0;
#X connect 5 0 4 0;
#X connect 7 0 8 0;
#X connect 7 1 9 0;
#X connect 8 0 58 0;
#X connect 9 0 19 0;
#X connect 18 0 7 0;
#X connect 19 0 16 0;
#X connect 19 1 100 0;
#X connect 19 2 44 0;
#X connect 20 0 21 0;
#X connect 20 1 22 0;
#X connect 20 2 23 0;
#X connect 25 0 5 0;
#X connect 26 0 39 0;
#X connect 31 0 49 0;
#X connect 32 0 2 0;
#X connect 32 1 35 0;
#X connect 35 0 2 1;
#X connect 36 0 102 0;
#X connect 37 0 36 1;
#X connect 38 0 1 0;
#X connect 39 0 1 0;
#X connect 39 0 1 0;
#X connect 40 0 45 0;
#X connect 41 0 6 0;
#X connect 41 1 3 0;
#X connect 41 2 42 0;
#X connect 42 0 45 1;
#X connect 42 1 45 2;
#X connect 46 0 45 0;
#X connect 47 0 54 0;
#X connect 48 0 50 0;
#X connect 49 0 56 0;
#X connect 49 1 35 1;
#X connect 49 2 48 0;
#X connect 53 0 54 0;
#X connect 54 0 56 0;
#X connect 54 1 35 1;
#X connect 54 2 48 0;
#X connect 55 0 46 0;
#X connect 56 0 32 0;
#X connect 57 0 1 0;
#X connect 58 0 15 0;
#X connect 58 1 27 0;
#X connect 58 2 99 0;
#X connect 59 0 89 0;
#X connect 60 0 61 0;
#X connect 61 0 63 0;
#X connect 61 1 64 0;
#X connect 62 0 65 0;
#X connect 62 1 63 1;
#X connect 63 0 66 0;
#X connect 64 0 23 0;
#X connect 65 0 22 0;
#X connect 66 0 21 0;
#X connect 67 0 62 0;
#X connect 68 0 91 0;
#X connect 69 0 71 0;
#X connect 69 1 76 0;
#X connect 70 0 75 0;
#X connect 70 1 71 1;
#X connect 71 0 74 0;
#X connect 72 0 70 0;
#X connect 73 0 69 0;
#X connect 74 0 21 0;
#X connect 75 0 22 0;
#X connect 76 0 23 0;
#X connect 77 0 87 0;
#X connect 78 0 79 0;
#X connect 79 0 81 0;
#X connect 79 1 85 0;
#X connect 80 0 84 0;
#X connect 80 1 81 1;
#X connect 81 0 83 0;
#X connect 82 0 80 0;
#X connect 83 0 21 0;
#X connect 84 0 22 0;
#X connect 85 0 23 0;
#X connect 87 0 88 0;
#X connect 88 0 82 0;
#X connect 89 0 90 0;
#X connect 90 0 67 0;
#X connect 91 0 92 0;
#X connect 92 0 72 0;
#X connect 93 0 94 0;
#X connect 94 0 78 0;
#X connect 94 1 60 0;
#X connect 94 2 73 0;
#X connect 95 0 94 0;
#X connect 96 0 97 0;
#X connect 97 0 98 0;
#X connect 99 0 29 0;
#X connect 99 1 96 0;
#X connect 100 0 17 0;
#X connect 100 1 101 0;
#X connect 101 0 97 0;
#X connect 102 0 103 0;
#X connect 105 0 106 0;
#X connect 106 0 53 0;
#X connect 106 1 47 0;
#X restore 176 185 pd WINDOW_TOUCHS;
#X obj 381 244 gui_track \$0 1;
#X obj 381 263 gui_track \$0 2;
#X obj 381 282 gui_track \$0 3;
#X obj 58 129 t b b;
#X obj 58 110 ofWindowLoadBang;
#N canvas 2 53 382 280 INIT_SYSTEM 0;
#X obj 75 71 inlet TRIGGER;
#X obj 75 119 f 10;
#X obj 75 138 until;
#X obj 75 176 f;
#X obj 98 176 + 1;
#X msg 90 157 0;
#X obj 75 100 t b b;
#X obj 75 195 t f f;
#X obj 75 224 s \$0-LB;
#X text 53 25 ** ENVIA 10 BANGS ORDENADOS PARA SISTEMA DE INICIALIZAÇÃO
, f 32;
#X connect 0 0 6 0;
#X connect 1 0 2 0;
#X connect 2 0 3 0;
#X connect 3 0 7 0;
#X connect 4 0 3 1;
#X connect 5 0 3 1;
#X connect 6 0 1 0;
#X connect 6 1 5 0;
#X connect 7 0 8 0;
#X connect 7 1 4 0;
#X restore 149 233 pd INIT_SYSTEM;
#X obj 149 131 bng 15 250 50 0 empty empty empty 17 7 0 10 -262144
-1 -1;
#X obj 354 32 ESMERIL \$0;
#X msg 315 209 0;
#X msg 345 209 1;
#X msg 315 228 0;
#X msg 345 228 1;
#X msg 315 247 0;
#X msg 345 247 1;
#X msg 315 266 0;
#X msg 345 266 1;
#X text 439 61 PNG / FONTES;
#N canvas 618 53 820 843 RESOURCES 0;
#X text 341 65 -- NAS ABSTRAÇÕES USA COMO ARGUMENTO UM OFFSET NO
BANCO DE IMAGENS \, E DENTRO DELAS FAZ UM LEITOR QUE LÊ O NÚMERO
NECESSÁRIO DE IMAGENS A PARTIR DO OFFSET;
#X obj 366 199 r \$0-height;
#X obj 366 218 change;
#X obj 366 256 / 10;
#X obj 366 275 int;
#X text 442 362 CARREGA FONTE COM 1/10 ALTURA DA TELA;
#X text 41 26 ** BANCO DE PNG'S;
#X text 364 166 ** BANCO DE FONTES;
#X obj 366 356 ofLoadFont \; \$0-font \;;
#X text 23 85 0;
#X text 23 98 1;
#X text 23 111 2;
#X text 23 124 3;
#X text 23 137 4;
#X text 23 150 5;
#X text 23 163 6;
#X text 23 176 7;
#X text 23 189 8;
#X text 23 202 9;
#X text 17 215 10;
#X text 17 228 11;
#X text 17 241 12;
#X text 17 254 13;
#X text 17 267 14;
#X text 17 279 15;
#X text 17 293 16;
#X text 17 306 17;
#X text 17 319 18;
#X text 17 332 19;
#X text 17 345 20;
#X text 17 358 21;
#X text 17 371 22;
#X text 17 384 23;
#X text 17 397 24;
#X text 17 410 25;
#X text 17 423 26;
#X text 17 436 27;
#X text 17 449 28;
#X text 17 462 29;
#X text 17 475 30;
#X text 17 488 31;
#X text 17 500 32;
#X text 17 514 33;
#X text 17 527 34;
#X text 17 540 35;
#X text 17 553 36;
#X text 17 566 37;
#X text 17 579 38;
#X text 17 592 39;
#X text 17 605 40;
#X text 17 618 41;
#X text 17 631 42;
#X text 17 644 43;
#X text 17 657 44;
#X text 17 669 45;
#X text 17 683 46;
#X text 17 696 47;
#X text 17 709 48;
#X text 17 722 49;
#X text 17 735 50;
#X text 17 748 51;
#X text 17 760 52;
#X text 17 774 53;
#X text 17 787 54;
#X text 17 800 55;
#X text 17 814 56;
#X text 17 827 57;
#X text 17 839 58;
#X text 17 852 59;
#X text 17 865 60;
#X text 17 878 61;
#X text 17 891 62;
#X text 17 904 63;
#X text 17 916 64;
#X text 17 930 65;
#X text 17 943 66;
#X text 17 956 67;
#X text 17 969 68;
#X text 17 982 69;
#X text 17 995 70;
#X text 17 1007 71;
#X text 17 1021 72;
#X text 17 1034 73;
#X obj 366 493 ofEditFont \$0-font[0];
#X msg 366 474 letterSpacing 0.9;
#X text 17 1047 74;
#X text 17 1060 75;
#X text 17 1073 76;
#X text 17 1085 77;
#X text 17 1099 78;
#X text 17 1112 79;
#X msg 366 294 load data/fonts/DINEngschriftStd.otf \$1 data/fonts/DINEngschriftStd.otf
\$1 data/fonts/FuturaStd-CondensedLightObl.otf \$1;
#X text 505 474 ALTERA ESPAÇAMENTO ENTRE CARACTERES NAS CAIXAS DE
NÚMEROS, f 24;
#X obj 366 388 t b b;
#X text 532 426 ALTERA ESPAÇAMENTO ENTRE LINHAS NO VISOR DE NOME DA
CENA, f 31;
#X obj 393 445 ofEditFont \$0-font[1];
#X obj 366 237 t f f;
#X obj 405 275 int;
#X obj 405 256 / 7;
#X msg 393 426 lineHeight \$1;
#X obj 393 407 f;
#X text 17 1125 80;
#X obj 43 59 ofLoadImage \; \$0-pngBank \; data/png/_app.png \; data/png/bg_app.png
\; data/png/btn_multigranular_off.png \; data/png/btn_beatslicer_on.png
\; data/png/btn_multigranular_on.png \; data/png/btn_functions_random_off.png
\; data/png/btn_functions_random_on.png \; data/png/btn_functions_pattern_off.png
\; data/png/btn_functions_pattern_on.png \; data/png/btn_functions_freeze_off.png
\; data/png/btn_functions_freeze_on.png \; data/png/btn_functions_reverse_off.png
\; data/png/btn_functions_reverse_on.png \; data/png/btn_functions_reverseSlice_off.png
\; data/png/btn_functions_reverseSlice_on.png \; data/png/btn_functions_pin_off.png
\; data/png/btn_functions_pin_on.png \; data/png/btn_nav_waveform_off.png
\; data/png/btn_nav_waveform_on.png \; data/png/btn_nav_slicer_off.png
\; data/png/btn_nav_slicer_on.png \; data/png/btn_nav_audio_off.png
\; data/png/btn_nav_audio_on.png \; data/png/btn_nav_functions_off.png
\; data/png/btn_nav_functions_on.png \; data/png/btn_select_audio_off.png
\; data/png/btn_select_audio_on.png \; data/png/btn_top_menu_off.png
\; data/png/btn_top_menu_on.png \; data/png/btn_top_loop.png \; data/png/btn_top_play.png
\; data/png/help_slices.png \; data/png/help_range.png \; data/png/help_offset.png
\; data/png/btn_numbers_setaesq_off.png \; data/png/btn_numbers_setaesq_on.png
\; data/png/btn_numbers_setaesq_on2_vermelha.png \; data/png/btn_slices_number_off.png
\; data/png/btn_slices_number_on_vermelho.png \; data/png/btn_numbers_setadir_off.png
\; data/png/btn_numbers_setadir_on.png \; data/png/btn_numbers_setadir_on2_vermelha.png
\; data/png/btn_numbers_setaesq_off.png \; data/png/btn_numbers_setaesq_on.png
\; data/png/btn_numbers_setaesq_on2_roxa.png \; data/png/btn_slices_number_off.png
\; data/png/btn_slices_number_on_roxo.png \; data/png/btn_numbers_setadir_off.png
\; data/png/btn_numbers_setadir_on.png \; data/png/btn_numbers_setadir_on2_roxa.png
\; data/png/btn_numbers_setaesq_off.png \; data/png/btn_numbers_setaesq_on.png
\; data/png/btn_numbers_setaesq_on2_laranja.png \; data/png/btn_slices_number_off.png
\; data/png/btn_slices_number_on_laranja.png \; data/png/btn_numbers_setadir_off.png
\; data/png/btn_numbers_setadir_on.png \; data/png/btn_numbers_setadir_on2_laranja.png
\; data/png/btn_numbers_setaesq_off.png \; data/png/btn_numbers_setaesq_on.png
\; data/png/btn_numbers_setaesq_on2_roxa.png \; data/png/btn_top_bpm_off.png
\; data/png/btn_top_cena_on.png \; data/png/btn_numbers_setadir_off.png
\; data/png/btn_numbers_setadir_on.png \; data/png/btn_numbers_setadir_on2_roxa.png
\; data/png/btn_numbers_setaesq_off.png \; data/png/btn_numbers_setaesq_on.png
\; data/png/btn_numbers_setaesq_on2_laranja.png \; data/png/btn_top_cena_off.png
\; data/png/btn_top_cena_on.png \; data/png/btn_numbers_setadir_off.png
\; data/png/btn_numbers_setadir_on.png \; data/png/btn_numbers_setadir_on2_laranja.png
\; data/png/btn_top_gridcenas_off.png \; data/png/btn_top_gridcenas_on.png
\; data/png/btn_top_rec_off.png \; data/png/btn_top_rec_on.png \; data/png/btn_top_link_off.png
\; data/png/btn_top_link_on.png \; data/png/btn_top_separator.png \;
;
#X connect 1 0 2 0;
#X connect 2 0 96 0;
#X connect 3 0 4 0;
#X connect 4 0 91 0;
#X connect 8 0 93 0;
#X connect 84 0 83 0;
#X connect 91 0 8 0;
#X connect 93 0 84 0;
#X connect 93 1 100 0;
#X connect 96 0 3 0;
#X connect 96 1 98 0;
#X connect 97 0 100 1;
#X connect 98 0 97 0;
#X connect 99 0 95 0;
#X connect 100 0 99 0;
#X restore 354 61 pd RESOURCES;
#X obj 149 147 t b b;
#N canvas 339 253 445 356 HEADER 0;
#N canvas 81 226 1295 505 SCENE 0;
#X obj 1143 32 inlet TOUCH;
#X msg 1182 199 touch \$1;
#X obj 373 35 r \$0-sceneBus_set;
#X obj 373 73 t b b;
#X obj 400 92 s \$0-changeReset;
#X text 508 92 ENVIA RESET PARA [change] NAS [gui_track] QUANDO CARREGA
A CENA, f 33;
#X msg 48 383 symbol AUDIOS0;
#X msg 156 383 symbol AUDIOS1;
#X obj 48 412 list prepend scene;
#X obj 48 431 list trim;
#X obj 48 450 s \$0-sceneBus;
#X obj 46 35 inlet RENDER_CHAIN;
#N canvas 433 150 622 252 POS_SIZE 0;
#X msg 50 149 posX \$1;
#X msg 302 149 posY \$1;
#X msg 365 149 sizeX \$1;
#X msg 428 149 sizeY \$1;
#X obj 50 188 outlet CONTROLS;
#X obj 50 35 r \$0-width;
#X obj 302 111 -;
#X obj 302 54 t f f;
#X obj 302 130 / 2;
#X text 381 35 ALTURA DO CABEÇALHO;
#X obj 302 35 r \$0-h_head;
#X text 121 35 LARGURA TOTAL, f 7;
#X obj 329 92 t f f f;
#X text 378 73 CÁLCULOS DOS VALORES X Y LOCAIS;
#X text 177 73 ALTERA POSIÇÃO LOCAL DE ACORDO COM DISPOSITIVO, f
15;
#N canvas 648 145 462 230 CORRECT_POSITION 0;
#X text 130 63 RECEBE PROPORÇÃO DA TELA;
#X obj 43 120 * 1;
#X msg 58 101 1;
#X obj 58 82 sel 0 1;
#X obj 43 34 inlet;
#X obj 43 149 outlet;
#X text 113 82 ALTERA POSIÇÃO LOCAL DE ACORDO COM DISPOSITIVO;
#X obj 58 63 r \$0-ratio;
#X msg 88 101 1.035;
#X connect 1 0 5 0;
#X connect 2 0 1 1;
#X connect 3 0 2 0;
#X connect 3 1 8 0;
#X connect 4 0 1 0;
#X connect 7 0 3 0;
#X connect 8 0 1 1;
#X restore 50 73 pd CORRECT_POSITION;
#X obj 329 73 * 0.65;
#X obj 50 54 * 0.148;
#X connect 0 0 4 0;
#X connect 1 0 4 0;
#X connect 2 0 4 0;
#X connect 3 0 4 0;
#X connect 5 0 17 0;
#X connect 6 0 8 0;
#X connect 7 0 6 0;
#X connect 7 1 16 0;
#X connect 8 0 1 0;
#X connect 10 0 7 0;
#X connect 12 0 6 1;
#X connect 12 1 2 0;
#X connect 12 2 3 0;
#X connect 15 0 0 0;
#X connect 16 0 12 0;
#X connect 17 0 15 0;
#X restore 96 196 pd POS_SIZE;
#X obj 91 253 f 0;
#X obj 91 272 == 0;
#X obj 91 234 sel 1;
#X obj 235 234 t f f;
#X obj 262 253 spigot 1;
#X msg 337 234 0;
#X msg 307 234 1;
#X text 322 253 EVITA LOOP;
#X obj 216 196 t b f b;
#N canvas 589 263 622 252 POS_SIZE 0;
#X msg 50 149 posX \$1;
#X msg 302 149 posY \$1;
#X msg 365 149 sizeX \$1;
#X msg 428 149 sizeY \$1;
#X obj 50 188 outlet CONTROLS;
#X obj 50 35 r \$0-width;
#X obj 302 111 -;
#X obj 302 54 t f f;
#X obj 302 130 / 2;
#X text 381 35 ALTURA DO CABEÇALHO;
#X obj 302 35 r \$0-h_head;
#X text 121 35 LARGURA TOTAL, f 7;
#X obj 329 92 t f f f;
#X text 378 73 CÁLCULOS DOS VALORES X Y LOCAIS;
#X text 177 73 ALTERA POSIÇÃO LOCAL DE ACORDO COM DISPOSITIVO, f
15;
#N canvas 852 129 462 230 CORRECT_POSITION 0;
#X text 130 63 RECEBE PROPORÇÃO DA TELA;
#X obj 43 120 * 1;
#X msg 58 101 1;
#X obj 58 82 sel 0 1;
#X obj 43 34 inlet;
#X obj 43 149 outlet;
#X text 113 82 ALTERA POSIÇÃO LOCAL DE ACORDO COM DISPOSITIVO;
#X obj 58 63 r \$0-ratio;
#X msg 88 101 1.007;
#X connect 1 0 5 0;
#X connect 2 0 1 1;
#X connect 3 0 2 0;
#X connect 3 1 8 0;
#X connect 4 0 1 0;
#X connect 7 0 3 0;
#X connect 8 0 1 1;
#X restore 50 73 pd CORRECT_POSITION;
#X obj 329 73 * 0.65;
#X obj 50 54 * 0.772;
#X connect 0 0 4 0;
#X connect 1 0 4 0;
#X connect 2 0 4 0;
#X connect 3 0 4 0;
#X connect 5 0 17 0;
#X connect 6 0 8 0;
#X connect 7 0 6 0;
#X connect 7 1 16 0;
#X connect 8 0 1 0;
#X connect 10 0 7 0;
#X connect 12 0 6 1;
#X connect 12 1 2 0;
#X connect 12 2 3 0;
#X connect 15 0 0 0;
#X connect 16 0 12 0;
#X connect 17 0 15 0;
#X restore 556 196 pd POS_SIZE;
#X obj 551 253 f 0;
#X obj 551 234 sel 1;
#X obj 695 234 t f f;
#X obj 722 253 spigot 1;
#X msg 797 234 0;
#X msg 767 234 1;
#X text 782 253 EVITA LOOP;
#X obj 676 196 t b f b;
#N canvas 588 350 622 252 POS_SIZE 0;
#X msg 50 149 posX \$1;
#X msg 302 149 posY \$1;
#X msg 365 149 sizeX \$1;
#X msg 428 149 sizeY \$1;
#X obj 50 188 outlet CONTROLS;
#X obj 50 35 r \$0-width;
#X obj 302 111 -;
#X obj 302 54 t f f;
#X obj 302 130 / 2;
#X text 381 35 ALTURA DO CABEÇALHO;
#X obj 302 35 r \$0-h_head;
#X text 121 35 LARGURA TOTAL, f 7;
#X obj 329 92 t f f f;
#X text 378 73 CÁLCULOS DOS VALORES X Y LOCAIS;
#X text 177 73 ALTERA POSIÇÃO LOCAL DE ACORDO COM DISPOSITIVO, f
15;
#N canvas 926 167 462 230 CORRECT_POSITION 0;
#X text 130 63 RECEBE PROPORÇÃO DA TELA;
#X obj 43 120 * 1;
#X msg 58 101 1;
#X obj 58 82 sel 0 1;
#X obj 43 34 inlet;
#X obj 43 149 outlet;
#X text 113 82 ALTERA POSIÇÃO LOCAL DE ACORDO COM DISPOSITIVO;
#X obj 58 63 r \$0-ratio;
#X msg 88 101 1.006;
#X connect 1 0 5 0;
#X connect 2 0 1 1;
#X connect 3 0 2 0;
#X connect 3 1 8 0;
#X connect 4 0 1 0;
#X connect 7 0 3 0;
#X connect 8 0 1 1;
#X restore 50 73 pd CORRECT_POSITION;
#X obj 329 73 * 0.65;
#X obj 50 54 * 0.898;
#X connect 0 0 4 0;
#X connect 1 0 4 0;
#X connect 2 0 4 0;
#X connect 3 0 4 0;
#X connect 5 0 17 0;
#X connect 6 0 8 0;
#X connect 7 0 6 0;
#X connect 7 1 16 0;
#X connect 8 0 1 0;
#X connect 10 0 7 0;
#X connect 12 0 6 1;
#X connect 12 1 2 0;
#X connect 12 2 3 0;
#X connect 15 0 0 0;
#X connect 16 0 12 0;
#X connect 17 0 15 0;
#X restore 906 196 pd POS_SIZE;
#X obj 901 253 f 0;
#X obj 901 272 == 0;
#X obj 901 234 sel 1;
#X obj 1045 234 t f f;
#X obj 1072 253 spigot 1;
#X msg 1147 234 0;
#X msg 1117 234 1;
#X text 1132 253 EVITA LOOP;
#X obj 1026 196 t b f b;
#N canvas 89 53 1129 820 SCENE_INFO 0;
#N canvas 231 306 828 256 POS_SIZE 0;
#X obj 50 35 r \$0-width;
#X text 381 35 ALTURA DO CABEÇALHO;
#X obj 302 35 r \$0-h_head;
#X text 121 35 LARGURA TOTAL, f 7;
#X text 177 73 ALTERA POSIÇÃO LOCAL DE ACORDO COM DISPOSITIVO, f
15;
#N canvas 852 129 462 230 CORRECT_POSITION 0;
#X text 130 63 RECEBE PROPORÇÃO DA TELA;
#X obj 43 120 * 1;
#X msg 58 101 1;
#X obj 58 82 sel 0 1;
#X obj 43 34 inlet;
#X obj 43 149 outlet;
#X text 113 82 ALTERA POSIÇÃO LOCAL DE ACORDO COM DISPOSITIVO;
#X obj 58 63 r \$0-ratio;
#X msg 88 101 1.007;
#X connect 1 0 5 0;
#X connect 2 0 1 1;
#X connect 3 0 2 0;
#X connect 3 1 8 0;
#X connect 4 0 1 0;
#X connect 7 0 3 0;
#X connect 8 0 1 1;
#X restore 50 73 pd CORRECT_POSITION;
#X obj 50 188 outlet POS_X;
#X obj 302 188 outlet POS_Y;
#X obj 302 54 t f f;
#X obj 432 188 outlet FONT_SIZE;
#X obj 302 120 * 0.25;
#X obj 432 159 * 0.131;
#X obj 50 54 * 0.276;
#X obj 531 37 r \$0-displayPosition;
#X obj 531 56 sel 0 1;
#X msg 571 85 0.25;
#X obj 531 104 t b f;
#X msg 531 85 0.35;
#X text 613 85 CORRIGE POSIÇÃO DE ACORDO COM NÚMERO DE LINHAS,
f 25;
#X connect 0 0 12 0;
#X connect 2 0 8 0;
#X connect 5 0 6 0;
#X connect 8 0 10 0;
#X connect 8 1 11 0;
#X connect 10 0 7 0;
#X connect 11 0 9 0;
#X connect 12 0 5 0;
#X connect 13 0 14 0;
#X connect 14 0 17 0;
#X connect 14 1 15 0;
#X connect 15 0 16 0;
#X connect 16 0 10 0;
#X connect 16 1 10 1;
#X connect 17 0 16 0;
#X restore 65 128 pd POS_SIZE;
#X obj 44 147 ofTranslate;
#X obj 44 31 inlet RENDER_CHAIN;
#X obj 44 351 ofPopMatrix;
#X obj 44 370 ofPopStyle;
#X obj 44 70 ofPushStyle;
#X obj 44 89 ofPushMatrix;
#X obj 44 176 ofSetTextMode LEFT TOP;
#X obj 44 195 ofDrawTextAsShapes \$0-font[1] 14;
#X obj 239 160 list prepend text;
#X obj 239 179 list trim;
#X obj 455 50 list;
#X obj 565 183 list fromsymbol;
#X obj 565 221 list split 1;
#X obj 557 278 list;
#X obj 557 259 del 0;
#X obj 592 259 sel 195;
#X obj 631 316 f;
#X obj 654 316 + 1;
#X msg 646 297 1;
#X obj 565 240 t b f;
#X obj 631 278 bang;
#X text 647 259 FILTRA CARACTERES ESPECIAIS NO CÁLCULO;
#X obj 526 107 list split 1;
#X obj 486 123 list;
#X obj 643 652 list;
#X obj 526 164 t b a a;
#X obj 565 202 t a b;
#X text 646 335 CARACTERES POR PALAVRA;
#X obj 616 335 f;
#X obj 718 123 value \$0-count;
#X obj 616 373 t b f;
#X obj 616 354 + 1;
#X text 647 354 SOMA 1 ESPAÇO;
#X obj 616 392 value \$0-count;
#X msg 718 104 0;
#X obj 616 411 +;
#X obj 643 449 value \$0-count;
#X obj 616 430 t f f;
#X text 658 478 LIMITE DE CARACTERES NUMA LINHA;
#X obj 670 747 list;
#X obj 643 728 t l l;
#X obj 622 747 list;
#X obj 643 671 list fromsymbol;
#X obj 616 497 sel 0 1;
#X text 712 392 CARACTERES AO TODO;
#X obj 616 593 t b b;
#X text 737 652 ADICIONA QUEBRA DE LINHA;
#X obj 622 766 list tosymbol;
#X obj 643 709 list prepend;
#X text 647 411 SOMA PALAVRA ATUAL;
#X text 740 449 ATUALIZA SOMA;
#X msg 702 652 10;
#X obj 616 478 >= 55;
#X text 754 104 RESETA CONTAGEM;
#X text 745 690 ESPAÇO ENTRE CADA PALAVRA;
#X obj 526 183 del 2;
#X obj 671 526 f;
#X obj 694 526 + 1;
#X msg 686 507 1;
#X obj 526 88 t a b b b;
#X obj 671 545 sel 1 2;
#X text 772 564 ADICIONA 3 PONTOS NO FIM SE FOREM MAIS DE 2 LINHAS
DE NOME, f 30;
#X obj 455 88 del 50;
#X msg 690 564 32 46 46 46;
#X obj 239 277 list prepend text;
#X obj 239 296 list trim;
#X obj 44 312 ofDrawTextAsShapes \$0-font[2] 10;
#N canvas 654 276 581 227 POS_SIZE 0;
#X text 129 32 ALTURA DO CABEÇALHO;
#X obj 50 32 r \$0-h_head;
#X obj 50 159 outlet POS_Y;
#X obj 50 51 t f f;
#X obj 191 159 outlet FONT_SIZE;
#X obj 50 115 * 0.38;
#X obj 191 130 * 0.1;
#X obj 291 32 r \$0-displayPosition;
#X obj 291 51 sel 0 1;
#X obj 291 99 t b f;
#X text 373 80 CORRIGE POSIÇÃO DE ACORDO COM NÚMERO DE LINHAS,
f 25;
#X msg 331 80 0.38;
#X msg 291 80 0.2;
#X connect 1 0 3 0;
#X connect 3 0 5 0;
#X connect 3 1 6 0;
#X connect 5 0 2 0;
#X connect 6 0 4 0;
#X connect 7 0 8 0;
#X connect 8 0 12 0;
#X connect 8 1 11 0;
#X connect 9 0 5 0;
#X connect 9 1 5 1;
#X connect 11 0 9 0;
#X connect 12 0 9 0;
#X restore 86 274 pd POS_SIZE;
#X obj 44 293 ofTranslate;
#X obj 643 690 list append 32;
#X obj 858 424 r \$0-ratio;
#X obj 858 443 sel 0 1;
#X text 856 401 RECEBE PROPORÇÃO DA TELA;
#X obj 755 630 s \$0-displayPosition;
#X msg 785 611 0;
#X msg 755 611 1;
#X obj 671 593 t b b b b b;
#X text 821 611 CORRIGE POSIÇÕES;
#X obj 526 145 makefilename %s;
#X obj 526 126 route float symbol;
#X text 629 145 CONVERTE FLOAT EM SYMBOL;
#X obj 823 534 print;
#X text 534 31 RECEBE NOME DA CENA DO MECANISMO DE ABERTURA;
#X text 304 31 RECEBE NOME DO ARTISTA, f 11;
#X obj 219 31 inlet ARTIST;
#X obj 455 31 inlet TITLE;
#X obj 455 69 t b a b a;
#X obj 1302 -175;
#X msg 858 462 50;
#X msg 888 462 60;
#N canvas 246 243 436 411 SHORT_TITLE 0;
#X obj 48 36 inlet TITLE;
#X obj 93 171 makefilename %s;
#X obj 93 152 route float symbol;
#X obj 93 94 list split 2;
#X text 178 94 TOMA 2 PRIMEIRAS PALAVRAS;
#X text 213 152 CONVERTE FLOAT EM SYMBOL;
#X obj 93 190 list;
#X obj 93 123 list split 1;
#X obj 120 285 list;
#X obj 93 266 t l l;
#X obj 72 285 list;
#X obj 93 209 list fromsymbol;
#X obj 93 228 list append 95;
#X text 190 228 UNDERLINE;
#X obj 48 94 del 0;
#X obj 72 304 list tosymbol;
#X obj 93 247 list append;
#X obj 48 75 t b a b;
#X obj 72 343 s \$0-shortTitle;
#X text 174 343 ENVIA NOME DA CENA REDUZIDO PARA MONTAGEM DA BASE DAS
GRAVAÇÕES, f 32;
#X connect 0 0 17 0;
#X connect 1 0 6 0;
#X connect 2 0 1 0;
#X connect 2 1 6 0;
#X connect 3 0 7 0;
#X connect 3 2 7 0;
#X connect 6 0 11 0;
#X connect 7 0 2 0;
#X connect 7 1 2 0;
#X connect 8 0 16 1;
#X connect 9 0 10 1;
#X connect 9 1 8 0;
#X connect 10 0 15 0;
#X connect 11 0 12 0;
#X connect 12 0 16 0;
#X connect 14 0 10 0;
#X connect 15 0 18 0;
#X connect 16 0 9 0;
#X connect 17 0 14 0;
#X connect 17 1 3 0;
#X connect 17 2 16 1;
#X restore 892 85 pd SHORT_TITLE;
#X text 890 109 NOME DA CENA REDUZIDO PARA MONTAGEM DA BASE DAS GRAVAÇÕES
, f 30;
#X text 244 103 NOME DO ARTISTA REDUZIDO PARA MONTAGEM DA BASE DAS
GRAVAÇÕES, f 30;
#X obj 219 50 t a a;
#N canvas 246 243 436 411 SHORT_ARTIST 0;
#X obj 93 171 makefilename %s;
#X obj 93 152 route float symbol;
#X obj 93 94 list split 2;
#X text 178 94 TOMA 2 PRIMEIRAS PALAVRAS;
#X text 213 152 CONVERTE FLOAT EM SYMBOL;
#X obj 93 190 list;
#X obj 93 123 list split 1;
#X obj 120 285 list;
#X obj 93 266 t l l;
#X obj 72 285 list;
#X obj 93 209 list fromsymbol;
#X obj 93 228 list append 95;
#X text 190 228 UNDERLINE;
#X obj 48 94 del 0;
#X obj 72 304 list tosymbol;
#X obj 93 247 list append;
#X obj 48 75 t b a b;
#X text 181 343 ENVIA NOME DO ARTISTA REDUZIDO PARA MONTAGEM DA BASE
DAS GRAVAÇÕES, f 35;
#X obj 72 343 s \$0-shortArtist;
#X obj 48 36 inlet ARTIST;
#X connect 0 0 5 0;
#X connect 1 0 0 0;
#X connect 1 1 5 0;
#X connect 2 0 6 0;
#X connect 2 2 6 0;
#X connect 5 0 10 0;
#X connect 6 0 1 0;
#X connect 6 1 1 0;
#X connect 7 0 15 1;
#X connect 8 0 9 1;
#X connect 8 1 7 0;
#X connect 9 0 14 0;
#X connect 10 0 11 0;
#X connect 11 0 15 0;
#X connect 13 0 9 0;
#X connect 14 0 18 0;
#X connect 15 0 8 0;
#X connect 16 0 13 0;
#X connect 16 1 2 0;
#X connect 16 2 15 1;
#X connect 19 0 16 0;
#X restore 246 79 pd SHORT_ARTIST;
#X connect 0 0 1 1;
#X connect 0 1 1 2;
#X connect 0 2 8 1;
#X connect 1 0 7 0;
#X connect 2 0 5 0;
#X connect 3 0 4 0;
#X connect 5 0 6 0;
#X connect 6 0 1 0;
#X connect 7 0 8 0;
#X connect 8 0 69 0;
#X connect 9 0 10 0;
#X connect 10 0 8 0;
#X connect 11 0 87 0;
#X connect 12 0 27 0;
#X connect 13 0 20 0;
#X connect 13 1 14 1;
#X connect 14 0 13 0;
#X connect 15 0 14 0;
#X connect 16 1 21 0;
#X connect 17 0 18 0;
#X connect 17 0 29 1;
#X connect 18 0 17 1;
#X connect 19 0 17 1;
#X connect 20 0 15 0;
#X connect 20 1 16 0;
#X connect 21 0 17 0;
#X connect 23 0 80 0;
#X connect 23 1 24 1;
#X connect 24 0 23 0;
#X connect 25 0 43 0;
#X connect 26 0 56 0;
#X connect 26 1 25 1;
#X connect 26 2 12 0;
#X connect 27 0 13 0;
#X connect 27 1 19 0;
#X connect 29 0 32 0;
#X connect 31 0 34 0;
#X connect 31 1 36 1;
#X connect 32 0 31 0;
#X connect 34 0 36 0;
#X connect 35 0 30 0;
#X connect 36 0 38 0;
#X connect 38 0 53 0;
#X connect 38 1 37 0;
#X connect 40 0 49 1;
#X connect 41 0 42 1;
#X connect 41 1 40 0;
#X connect 42 0 48 0;
#X connect 43 0 70 0;
#X connect 44 0 46 0;
#X connect 44 1 57 0;
#X connect 46 0 24 0;
#X connect 46 1 25 0;
#X connect 48 0 9 0;
#X connect 49 0 41 0;
#X connect 52 0 49 0;
#X connect 53 0 44 0;
#X connect 56 0 29 0;
#X connect 57 0 58 0;
#X connect 57 0 61 0;
#X connect 58 0 57 1;
#X connect 59 0 57 1;
#X connect 60 0 23 0;
#X connect 60 1 49 1;
#X connect 60 2 59 0;
#X connect 60 3 35 0;
#X connect 61 0 77 0;
#X connect 61 1 64 0;
#X connect 63 0 42 0;
#X connect 64 0 49 0;
#X connect 65 0 66 0;
#X connect 66 0 67 0;
#X connect 67 0 3 0;
#X connect 68 0 69 2;
#X connect 68 1 67 1;
#X connect 69 0 67 0;
#X connect 70 0 49 0;
#X connect 71 0 72 0;
#X connect 72 0 89 0;
#X connect 72 1 90 0;
#X connect 75 0 74 0;
#X connect 76 0 74 0;
#X connect 77 0 24 0;
#X connect 77 1 25 0;
#X connect 77 2 52 0;
#X connect 77 3 35 0;
#X connect 77 4 76 0;
#X connect 79 0 26 0;
#X connect 80 0 79 0;
#X connect 80 1 26 0;
#X connect 85 0 94 0;
#X connect 86 0 11 0;
#X connect 87 0 63 0;
#X connect 87 1 60 0;
#X connect 87 2 75 0;
#X connect 87 3 91 0;
#X connect 89 0 53 1;
#X connect 90 0 53 1;
#X connect 94 0 65 0;
#X connect 94 1 95 0;
#X restore 383 217 pd SCENE_INFO;
#X obj 46 215 gui_button \$0 0 0 1 1 0 0 1 74 0;
#X obj 506 215 gui_button \$0 0 0 1 1 0 0 1 76 0;
#X obj 856 215 gui_button \$0 0 0 1 1 0 0 1 78 0;
#N canvas 2 53 679 451 MAKE_REC_NAME 0;
#X obj 93 261 r \$0-shortArtist;
#X obj 243 261 r \$0-shortTitle;
#X obj 60 280 symbol;
#X obj 210 280 symbol;
#X obj 466 232 del 0;
#N canvas 2 53 387 514 GET_TIME 0;
#X obj 75 138 list split 1;
#X obj 88 157 list;
#X obj 75 176 makefilename %s;
#X obj 75 195 list fromsymbol;
#X obj 75 214 list append 95;
#X obj 75 252 del 0;
#X obj 75 300 list;
#X obj 54 319 list;
#X obj 54 100 t b a b;
#X obj 75 233 t b a;
#X obj 54 42 inlet BANG;
#X text 178 176 CONVERTE FLOAT EM SYMBOL;
#X text 172 214 UNDERLINE;
#X obj 54 81 ofGetTime;
#X text 121 81 MONTA SYMBOL COM HORÁRIO;
#X obj 75 281 list append;
#X obj 54 411 list tosymbol;
#X obj 123 354 list length;
#X obj 54 338 t l l;
#X obj 123 373 - 1;
#X obj 54 392 list split 1;
#X obj 54 450 outlet SYMBOL;
#X obj 54 119 del 0;
#X connect 0 0 2 0;
#X connect 0 1 1 1;
#X connect 1 0 0 0;
#X connect 2 0 3 0;
#X connect 3 0 4 0;
#X connect 4 0 9 0;
#X connect 5 0 1 0;
#X connect 6 0 7 1;
#X connect 6 0 15 1;
#X connect 7 0 18 0;
#X connect 8 0 22 0;
#X connect 8 1 0 0;
#X connect 8 2 15 1;
#X connect 9 0 5 0;
#X connect 9 1 15 0;
#X connect 10 0 13 0;
#X connect 13 0 8 0;
#X connect 15 0 6 0;
#X connect 16 0 21 0;
#X connect 17 0 19 0;
#X connect 18 0 20 0;
#X connect 18 1 17 0;
#X connect 19 0 20 1;
#X connect 20 0 16 0;
#X connect 22 0 7 0;
#X restore 466 261 pd GET_TIME;
#N canvas 2 53 389 443 GET_DATE 0;
#X obj 75 138 list split 1;
#X obj 88 157 list;
#X obj 75 176 makefilename %s;
#X text 178 176 CONVERTE FLOAT EM SYMBOL;
#X obj 75 195 list fromsymbol;
#X obj 75 214 list append 95;
#X text 172 214 UNDERLINE;
#X obj 75 252 del 0;
#X obj 75 300 list;
#X obj 54 319 list;
#X obj 54 100 t b a b;
#X obj 75 233 t b a;
#X obj 54 42 inlet BANG;
#X obj 54 81 ofGetDate;
#X text 121 81 MONTA SYMBOL COM DATA;
#X obj 75 281 list prepend;
#X obj 54 338 list tosymbol;
#X obj 54 377 outlet SYMBOL;
#X obj 54 119 del 0;
#X connect 0 0 2 0;
#X connect 0 1 1 1;
#X connect 1 0 0 0;
#X connect 2 0 4 0;
#X connect 4 0 5 0;
#X connect 5 0 11 0;
#X connect 7 0 1 0;
#X connect 8 0 9 1;
#X connect 8 0 15 1;
#X connect 9 0 16 0;
#X connect 10 0 18 0;
#X connect 10 1 0 0;
#X connect 10 2 15 1;
#X connect 11 0 7 0;
#X connect 11 1 15 0;
#X connect 12 0 13 0;
#X connect 13 0 10 0;
#X connect 15 0 8 0;
#X connect 16 0 17 0;
#X connect 18 0 9 0;
#X restore 365 261 pd GET_DATE;
#X obj 60 319 pack s s s s;
#X obj 60 39 inlet BANG;
#X obj 60 387 outlet;
#X text 342 348 MONTA NOME PARA GRAVAÇÃO;
#X obj 60 97 ofDoesDirectoryExist;
#X msg 60 78 symbol /storage/emulated/0/ESMERIL_REC/;
#X obj 60 154 ofDirectory;
#X obj 60 116 sel 0;
#X msg 60 135 create /storage/emulated/0/ESMERIL_REC/;
#X text 312 78 VERIFICA SE EXISTE DIRETÓRIO DE GRAVAÇÃO NA PASTA
BASE DO ANDROID - SE NÃO EXISTIR \, CRIA A PASTA, f 49;
#X obj 60 193 t b b b b;
#X msg 60 348 /storage/emulated/0/ESMERIL_REC/\$1\$2\$3\$4.wav;
#X obj 365 232 del 2;
#X obj 210 232 del 4;
#X obj 60 232 del 6;
#X text 180 33 - PREPARAR 2 VERSÕES \, ESSA PARA ANDROID \, E OUTRA
PARA DESKTOP, f 61;
#X connect 0 0 2 1;
#X connect 1 0 3 1;
#X connect 2 0 7 0;
#X connect 3 0 7 1;
#X connect 4 0 5 0;
#X connect 5 0 7 3;
#X connect 6 0 7 2;
#X connect 7 0 18 0;
#X connect 8 0 12 0;
#X connect 11 0 14 0;
#X connect 12 0 11 0;
#X connect 13 0 17 0;
#X connect 14 0 15 0;
#X connect 14 1 17 0;
#X connect 15 0 13 0;
#X connect 17 0 21 0;
#X connect 17 1 20 0;
#X connect 17 2 19 0;
#X connect 17 3 4 0;
#X connect 18 0 9 0;
#X connect 19 0 6 0;
#X connect 20 0 3 0;
#X connect 21 0 2 0;
#X restore 851 339 pd MAKE_REC_NAME;
#X obj 722 358 list prepend armRec;
#X obj 722 272 sel 1;
#X obj 851 358 list prepend recFile;
#X obj 722 446 s \$0-sceneBus;
#X obj 722 387 list trim;
#X text 94 163 MENU DE CENAS;
#X text 554 163 REC;
#X text 904 163 ABLETON LINK;
#X text 382 163 CENA / ARTISTA;
#X obj 1072 272 sel 1;
#X obj 373 54 route done artist title recState;
#X obj 676 158 sel 1;
#X msg 676 177 2;
#X msg 703 177 0;
#X obj 722 320 del 10;
#X msg 722 339 1;
#X obj 722 301 t b b;
#X text 771 320 AGUARDA MONTAR NOME;
#X obj 551 272 == 0;
#X msg 1026 177 0;
#X obj 48 364 spigot;
#X obj 46 114 t b b b b b;
#N canvas 545 270 656 207 SEPARATORS 0;
#X obj 52 37 inlet RENDER_CHAIN;
#X obj 52 66 t b b b b;
#N canvas 433 150 529 252 POS_SIZE 0;
#X msg 50 149 posX \$1;
#X msg 212 149 posY \$1;
#X msg 298 149 sizeY \$1;
#X obj 50 188 outlet CONTROLS;
#X obj 50 35 r \$0-width;
#X obj 212 111 -;
#X obj 212 54 t f f;
#X obj 212 130 / 2;
#X text 291 35 ALTURA DO CABEÇALHO;
#X obj 212 35 r \$0-h_head;
#X text 121 35 LARGURA TOTAL, f 7;
#X text 288 73 CÁLCULOS DOS VALORES X Y LOCAIS;
#X obj 239 92 t f f;
#X obj 239 73 * 0.62;
#X obj 50 54 * 0.125;
#X connect 0 0 3 0;
#X connect 1 0 3 0;
#X connect 2 0 3 0;
#X connect 4 0 14 0;
#X connect 5 0 7 0;
#X connect 6 0 5 0;
#X connect 6 1 13 0;
#X connect 7 0 1 0;
#X connect 9 0 6 0;
#X connect 12 0 5 1;
#X connect 12 1 2 0;
#X connect 13 0 12 0;
#X connect 14 0 0 0;
#X restore 100 106 pd POS_SIZE;
#X obj 52 125 gui_separator \$0 80;
#N canvas 433 150 529 252 POS_SIZE 0;
#X msg 50 149 posX \$1;
#X msg 212 149 posY \$1;
#X msg 298 149 sizeY \$1;
#X obj 50 188 outlet CONTROLS;
#X obj 50 35 r \$0-width;
#X obj 212 111 -;
#X obj 212 54 t f f;
#X obj 212 130 / 2;
#X text 291 35 ALTURA DO CABEÇALHO;
#X obj 212 35 r \$0-h_head;
#X text 121 35 LARGURA TOTAL, f 7;
#X text 288 73 CÁLCULOS DOS VALORES X Y LOCAIS;
#X obj 239 92 t f f;
#X obj 239 73 * 0.62;
#X obj 50 54 * 0.25;
#X connect 0 0 3 0;
#X connect 1 0 3 0;
#X connect 2 0 3 0;
#X connect 4 0 14 0;
#X connect 5 0 7 0;
#X connect 6 0 5 0;
#X connect 6 1 13 0;
#X connect 7 0 1 0;
#X connect 9 0 6 0;
#X connect 12 0 5 1;
#X connect 12 1 2 0;
#X connect 13 0 12 0;
#X connect 14 0 0 0;
#X restore 239 106 pd POS_SIZE;
#X obj 191 125 gui_separator \$0 80;
#N canvas 388 293 529 252 POS_SIZE 0;
#X msg 50 149 posX \$1;
#X msg 212 149 posY \$1;
#X msg 298 149 sizeY \$1;
#X obj 50 188 outlet CONTROLS;
#X obj 50 35 r \$0-width;
#X obj 212 111 -;
#X obj 212 54 t f f;
#X obj 212 130 / 2;
#X text 291 35 ALTURA DO CABEÇALHO;
#X obj 212 35 r \$0-h_head;
#X text 121 35 LARGURA TOTAL, f 7;
#X text 288 73 CÁLCULOS DOS VALORES X Y LOCAIS;
#X obj 239 92 t f f;
#X obj 239 73 * 0.62;
#X obj 50 54 * 0.75;
#X connect 0 0 3 0;
#X connect 1 0 3 0;
#X connect 2 0 3 0;
#X connect 4 0 14 0;
#X connect 5 0 7 0;
#X connect 6 0 5 0;
#X connect 6 1 13 0;
#X connect 7 0 1 0;
#X connect 9 0 6 0;
#X connect 12 0 5 1;
#X connect 12 1 2 0;
#X connect 13 0 12 0;
#X connect 14 0 0 0;
#X restore 378 106 pd POS_SIZE;
#X obj 330 125 gui_separator \$0 80;
#N canvas 503 339 529 252 POS_SIZE 0;
#X msg 50 149 posX \$1;
#X msg 212 149 posY \$1;
#X msg 298 149 sizeY \$1;
#X obj 50 188 outlet CONTROLS;
#X obj 50 35 r \$0-width;
#X obj 212 111 -;
#X obj 212 54 t f f;
#X obj 212 130 / 2;
#X text 291 35 ALTURA DO CABEÇALHO;
#X obj 212 35 r \$0-h_head;
#X text 121 35 LARGURA TOTAL, f 7;
#X text 288 73 CÁLCULOS DOS VALORES X Y LOCAIS;
#X obj 239 92 t f f;
#X obj 239 73 * 0.62;
#X obj 50 54 * 0.875;
#X connect 0 0 3 0;
#X connect 1 0 3 0;
#X connect 2 0 3 0;
#X connect 4 0 14 0;
#X connect 5 0 7 0;
#X connect 6 0 5 0;
#X connect 6 1 13 0;
#X connect 7 0 1 0;
#X connect 9 0 6 0;
#X connect 12 0 5 1;
#X connect 12 1 2 0;
#X connect 13 0 12 0;
#X connect 14 0 0 0;
#X restore 517 106 pd POS_SIZE;
#X obj 469 125 gui_separator \$0 80;
#X connect 0 0 1 0;
#X connect 1 0 3 0;
#X connect 1 1 5 0;
#X connect 1 2 7 0;
#X connect 1 3 9 0;
#X connect 2 0 3 1;
#X connect 4 0 5 1;
#X connect 6 0 7 1;
#X connect 8 0 9 1;
#X restore 109 133 pd SEPARATORS;
#X obj 1162 161 t b b b;
#X msg 246 177 1;
#X msg 216 177 0;
#N canvas 2 109 250 227 ONCE 0;
#X obj 47 37 inlet BANG;
#X obj 47 96 spigot 1;
#X msg 92 77 0;
#X msg 122 77 1;
#X obj 47 115 t b b;
#X obj 47 154 outlet BANG_ONCE;
#X obj 122 37 inlet RESET;
#X connect 0 0 1 0;
#X connect 1 0 4 0;
#X connect 2 0 1 1;
#X connect 3 0 1 1;
#X connect 4 0 5 0;
#X connect 4 1 2 0;
#X connect 6 0 3 0;
#X restore 1162 142 pd ONCE;
#X text 1048 119 GARANTE INICIALIZAÇÃO EM 0;
#X msg 1056 177 1;
#X obj 1143 51 t f f f;
#X obj 1162 70 sel 1;
#X obj 1162 89 del 10;
#X obj 1095 89 pipe 20;
#X connect 0 0 75 0;
#X connect 1 0 42 3;
#X connect 1 0 44 3;
#X connect 1 0 43 3;
#X connect 2 0 56 0;
#X connect 3 0 71 0;
#X connect 3 1 4 0;
#X connect 6 0 8 0;
#X connect 7 0 8 0;
#X connect 8 0 9 0;
#X connect 9 0 10 0;
#X connect 11 0 67 0;
#X connect 12 0 42 3;
#X connect 13 0 14 0;
#X connect 14 0 42 2;
#X connect 15 0 13 0;
#X connect 16 0 13 1;
#X connect 16 1 17 0;
#X connect 17 0 66 0;
#X connect 18 0 17 1;
#X connect 19 0 17 1;
#X connect 21 0 19 0;
#X connect 21 1 42 2;
#X connect 21 2 18 0;
#X connect 22 0 43 3;
#X connect 23 0 64 0;
#X connect 24 0 23 0;
#X connect 25 0 23 1;
#X connect 25 1 26 0;
#X connect 26 0 47 0;
#X connect 27 0 26 1;
#X connect 28 0 26 1;
#X connect 30 0 28 0;
#X connect 30 1 43 2;
#X connect 30 2 27 0;
#X connect 31 0 44 3;
#X connect 32 0 33 0;
#X connect 33 0 44 2;
#X connect 34 0 32 0;
#X connect 35 0 32 1;
#X connect 35 1 36 0;
#X connect 36 0 55 0;
#X connect 37 0 36 1;
#X connect 38 0 36 1;
#X connect 40 0 38 0;
#X connect 40 1 44 2;
#X connect 40 2 37 0;
#X connect 42 1 15 0;
#X connect 42 4 16 0;
#X connect 43 1 24 0;
#X connect 43 4 25 0;
#X connect 44 1 34 0;
#X connect 44 4 35 0;
#X connect 45 0 48 0;
#X connect 46 0 50 0;
#X connect 48 0 50 0;
#X connect 50 0 49 0;
#X connect 56 0 3 0;
#X connect 56 1 41 1;
#X connect 56 2 41 2;
#X connect 57 0 58 0;
#X connect 57 1 59 0;
#X connect 58 0 30 0;
#X connect 59 0 30 0;
#X connect 60 0 61 0;
#X connect 61 0 46 0;
#X connect 62 0 60 0;
#X connect 62 1 45 0;
#X connect 64 0 43 2;
#X connect 65 0 40 0;
#X connect 66 0 6 0;
#X connect 67 0 42 0;
#X connect 67 1 41 0;
#X connect 67 2 43 0;
#X connect 67 3 44 0;
#X connect 67 4 68 0;
#X connect 69 0 71 0;
#X connect 69 1 59 0;
#X connect 69 2 65 0;
#X connect 70 0 21 0;
#X connect 71 0 21 0;
#X connect 72 0 69 0;
#X connect 74 0 40 0;
#X connect 75 0 78 0;
#X connect 75 1 76 0;
#X connect 75 2 1 0;
#X connect 76 0 77 0;
#X connect 77 0 72 0;
#X connect 78 0 66 1;
#X restore 238 274 pd SCENE;
#N canvas 55 373 1201 358 TRANSPORT 0;
#X obj 46 35 inlet RENDER_CHAIN;
#X obj 896 175 gui_hslider \$0;
#N canvas 372 165 724 239 POS_SIZE 0;
#X msg 48 155 posX \$1;
#X msg 300 155 posY \$1;
#X msg 356 155 sizeY \$1;
#X obj 48 194 outlet CONTROLS;
#X obj 48 31 r \$0-width;
#X obj 300 107 -;
#X obj 300 50 t f f;
#X obj 300 126 / 2;
#X text 376 69 CÁLCULOS DOS VALORES Y LOCAIS;
#X text 379 31 ALTURA DO CABEÇALHO;
#X obj 300 31 r \$0-h_head;
#X msg 462 155 limit 0 \$1;
#X obj 462 136 * 2;
#X text 538 155 LIMITE DINÂMICO ENTRE 0 - 2xBPM ORIGINAL, f 21;
#X text 119 31 LARGURA TOTAL, f 7;
#X obj 327 88 t f f f;
#X msg 143 155 sizeX \$1;
#X obj 327 69 * 0.65;
#X obj 143 136 * 2.25;
#X text 175 79 ALTERA POSIÇÃO LOCAL DE ACORDO COM DISPOSITIVO, f
15;
#N canvas 648 145 462 230 CORRECT_POSITION 0;
#X text 130 63 RECEBE PROPORÇÃO DA TELA;
#X obj 43 120 * 1;
#X msg 58 101 1;
#X obj 58 82 sel 0 1;
#X obj 43 34 inlet;
#X obj 43 149 outlet;
#X text 113 82 ALTERA POSIÇÃO LOCAL DE ACORDO COM DISPOSITIVO;
#X obj 58 63 r \$0-ratio;
#X msg 88 101 1.015;
#X connect 1 0 5 0;
#X connect 2 0 1 1;
#X connect 3 0 2 0;
#X connect 3 1 8 0;
#X connect 4 0 1 0;
#X connect 7 0 3 0;
#X connect 8 0 1 1;
#X restore 48 79 pd CORRECT_POSITION;
#X obj 462 117 inlet ROOT_BPM;
#X text 559 117 BPM DO PROJETO;
#X obj 48 50 * 0.505;
#X connect 0 0 3 0;
#X connect 1 0 3 0;
#X connect 2 0 3 0;
#X connect 4 0 23 0;
#X connect 5 0 7 0;
#X connect 6 0 5 0;
#X connect 6 1 17 0;
#X connect 7 0 1 0;
#X connect 10 0 6 0;
#X connect 11 0 3 0;
#X connect 12 0 11 0;
#X connect 15 0 5 1;
#X connect 15 1 2 0;
#X connect 15 2 18 0;
#X connect 16 0 3 0;
#X connect 17 0 15 0;
#X connect 18 0 16 0;
#X connect 20 0 0 0;
#X connect 21 0 12 0;
#X connect 23 0 20 0;
#X restore 675 156 pd POS_SIZE;
#X obj 1069 35 inlet TOUCH;
#X msg 1069 159 touch \$1;
#N canvas 433 150 622 252 POS_SIZE 0;
#X msg 50 149 posX \$1;
#X msg 302 149 posY \$1;
#X msg 365 149 sizeX \$1;
#X msg 428 149 sizeY \$1;
#X obj 50 188 outlet CONTROLS;
#X obj 302 111 -;
#X obj 302 54 t f f;
#X obj 302 130 / 2;
#X text 381 35 ALTURA DO CABEÇALHO;
#X obj 302 35 r \$0-h_head;
#X obj 329 92 t f f f;
#X text 378 73 CÁLCULOS DOS VALORES X Y LOCAIS;
#X obj 329 73 * 0.65;
#X obj 50 35 r \$0-width;
#X text 121 35 LARGURA TOTAL, f 7;
#X text 177 73 ALTERA POSIÇÃO LOCAL DE ACORDO COM DISPOSITIVO, f
15;
#N canvas 648 145 462 230 CORRECT_POSITION 0;
#X text 130 63 RECEBE PROPORÇÃO DA TELA;
#X obj 43 120 * 1;
#X msg 58 101 1;
#X obj 58 82 sel 0 1;
#X obj 43 34 inlet;
#X obj 43 149 outlet;
#X text 113 82 ALTERA POSIÇÃO LOCAL DE ACORDO COM DISPOSITIVO;
#X obj 58 63 r \$0-ratio;
#X msg 88 101 1.035;
#X connect 1 0 5 0;
#X connect 2 0 1 1;
#X connect 3 0 2 0;
#X connect 3 1 8 0;
#X connect 4 0 1 0;
#X connect 7 0 3 0;
#X connect 8 0 1 1;
#X restore 50 73 pd CORRECT_POSITION;
#X obj 50 54 * 0.148;
#X connect 0 0 4 0;
#X connect 1 0 4 0;
#X connect 2 0 4 0;
#X connect 3 0 4 0;
#X connect 5 0 7 0;
#X connect 6 0 5 0;
#X connect 6 1 12 0;
#X connect 7 0 1 0;
#X connect 9 0 6 0;
#X connect 10 0 5 1;
#X connect 10 1 2 0;
#X connect 10 2 3 0;
#X connect 12 0 10 0;
#X connect 13 0 17 0;
#X connect 16 0 0 0;
#X connect 17 0 16 0;
#X restore 96 156 pd POS_SIZE;
#X obj 91 213 f 0;
#X obj 91 232 == 0;
#X obj 91 194 sel 1;
#X obj 235 194 t f f;
#X obj 806 224 spigot 1;
#X msg 881 205 0;
#X msg 851 205 1;
#X text 866 224 EVITA LOOP;
#X obj 977 224 spigot 1;
#X msg 1052 205 0;
#X msg 1022 205 1;
#X text 1037 224 EVITA LOOP;
#X obj 767 156 t b f b;
#X obj 958 156 t b f b;
#N canvas 461 196 714 274 POS_SIZE 0;
#X msg 40 175 posX \$1;
#X msg 292 175 posY \$1;
#X msg 135 175 sizeX \$1;
#X msg 348 175 sizeY \$1;
#X obj 40 214 outlet CONTROLS;
#X obj 40 31 r \$0-width;
#X obj 292 107 -;
#X obj 292 50 t f f;
#X obj 292 126 / 2;
#X text 367 69 CÁLCULOS DOS VALORES Y LOCAIS;
#X text 371 31 ALTURA DO CABEÇALHO;
#X obj 292 31 r \$0-h_head;
#X msg 444 175 limit 0 \$1;
#X obj 444 156 * 2;
#X text 520 175 LIMITE DINÂMICO ENTRE 0 - 2xBPM ORIGINAL, f 21;
#X text 528 137 RECEBE BPM DO PROJETO;
#X text 111 31 LARGURA TOTAL, f 7;
#X obj 444 137 r \$0-rootBPM;
#X obj 40 50 * 0.275;
#X obj 319 88 t f f f;
#X obj 319 69 * 0.65;
#X obj 135 156 * 2.25;
#X text 167 79 ALTERA POSIÇÃO LOCAL DE ACORDO COM DISPOSITIVO, f
15;
#N canvas 648 145 462 230 CORRECT_POSITION 0;
#X text 130 63 RECEBE PROPORÇÃO DA TELA;
#X obj 43 120 * 1;
#X msg 58 101 1;
#X obj 58 82 sel 0 1;
#X obj 43 34 inlet;
#X obj 43 149 outlet;
#X text 113 82 ALTERA POSIÇÃO LOCAL DE ACORDO COM DISPOSITIVO;
#X obj 58 63 r \$0-ratio;
#X msg 88 101 1.04;
#X connect 1 0 5 0;
#X connect 2 0 1 1;
#X connect 3 0 2 0;
#X connect 3 1 8 0;
#X connect 4 0 1 0;
#X connect 7 0 3 0;
#X connect 8 0 1 1;
#X restore 40 79 pd CORRECT_POSITION;
#X connect 0 0 4 0;
#X connect 1 0 4 0;
#X connect 2 0 4 0;
#X connect 3 0 4 0;
#X connect 5 0 18 0;
#X connect 6 0 8 0;
#X connect 7 0 6 0;
#X connect 7 1 20 0;
#X connect 8 0 1 0;
#X connect 11 0 7 0;
#X connect 12 0 4 0;
#X connect 13 0 12 0;
#X connect 17 0 13 0;
#X connect 18 0 23 0;
#X connect 19 0 6 1;
#X connect 19 1 3 0;
#X connect 19 2 21 0;
#X connect 20 0 19 0;
#X connect 21 0 2 0;
#X connect 23 0 0 0;
#X restore 375 156 pd POS_SIZE;
#X obj 46 175 gui_button \$0 0 0 1 1 0 0 1 29 0;
#X obj 325 175 gui_number \$0 0 0 1 1 1 0 1 66 0;
#X obj 605 175 gui_number \$0 0 0 1 1 140 0 1 58 0;
#X text 94 123 SEQUENCIADOR DA CENA;
#X text 362 123 MOMENTOS DA CENA;
#X text 662 123 BPM - NÚMEROS;
#X text 942 132 BPM - SLIDER;
#X obj 514 204 int;
#X obj 448 35 r \$0-headerBus_set;
#X text 569 35 RECEBE CONTROLES DO MECANISMO DE ÁUDIO;
#X obj 514 223 spigot 1;
#X msg 589 204 0;
#X msg 559 204 1;
#X text 574 223 EVITA LOOP;
#X obj 495 156 t b f b;
#X obj 262 223 spigot 1;
#X msg 337 204 0;
#X msg 307 204 1;
#X text 322 223 EVITA LOOP;
#X obj 216 156 t b f b;
#X obj 806 243 list prepend bpm;
#X obj 262 281 list trim;
#X obj 262 300 s \$0-headerBus;
#X obj 977 243 list prepend speed;
#X obj 514 242 list prepend moment;
#X obj 262 242 list prepend scenePlay;
#X text 359 300 ENVIA CONTROLES PARA MECANISMO DE ÁUDIO E REPRODUÇÃO
DA CENA;
#X obj 448 54 route scenePlay moment bpm rootBpm speed;
#X obj 590 73 t f f;
#X obj 1069 64 == 0;
#X obj 46 64 t b b b b b;
#N canvas 545 270 504 195 SEPARATORS 0;
#X obj 52 37 inlet RENDER_CHAIN;
#N canvas 433 150 529 252 POS_SIZE 0;
#X msg 50 149 posX \$1;
#X msg 212 149 posY \$1;
#X msg 298 149 sizeY \$1;
#X obj 50 188 outlet CONTROLS;
#X obj 50 35 r \$0-width;
#X obj 212 111 -;
#X obj 212 54 t f f;
#X obj 212 130 / 2;
#X text 291 35 ALTURA DO CABEÇALHO;
#X obj 212 35 r \$0-h_head;
#X text 121 35 LARGURA TOTAL, f 7;
#X text 288 73 CÁLCULOS DOS VALORES X Y LOCAIS;
#X obj 239 92 t f f;
#X obj 239 73 * 0.62;
#X obj 50 54 * 0.125;
#X connect 0 0 3 0;
#X connect 1 0 3 0;
#X connect 2 0 3 0;
#X connect 4 0 14 0;
#X connect 5 0 7 0;
#X connect 6 0 5 0;
#X connect 6 1 13 0;
#X connect 7 0 1 0;
#X connect 9 0 6 0;
#X connect 12 0 5 1;
#X connect 12 1 2 0;
#X connect 13 0 12 0;
#X connect 14 0 0 0;
#X restore 100 106 pd POS_SIZE;
#X obj 52 125 gui_separator \$0 80;
#N canvas 433 150 529 252 POS_SIZE 0;
#X msg 50 149 posX \$1;
#X msg 212 149 posY \$1;
#X msg 298 149 sizeY \$1;
#X obj 50 188 outlet CONTROLS;
#X obj 50 35 r \$0-width;
#X obj 212 111 -;
#X obj 212 54 t f f;
#X obj 212 130 / 2;
#X text 291 35 ALTURA DO CABEÇALHO;
#X obj 212 35 r \$0-h_head;
#X text 121 35 LARGURA TOTAL, f 7;
#X text 288 73 CÁLCULOS DOS VALORES X Y LOCAIS;
#X obj 239 92 t f f;
#X obj 239 73 * 0.62;
#X obj 50 54 * 0.25;
#X connect 0 0 3 0;
#X connect 1 0 3 0;
#X connect 2 0 3 0;
#X connect 4 0 14 0;
#X connect 5 0 7 0;
#X connect 6 0 5 0;
#X connect 6 1 13 0;
#X connect 7 0 1 0;
#X connect 9 0 6 0;
#X connect 12 0 5 1;
#X connect 12 1 2 0;
#X connect 13 0 12 0;
#X connect 14 0 0 0;
#X restore 239 106 pd POS_SIZE;
#X obj 191 125 gui_separator \$0 80;
#N canvas 388 293 529 252 POS_SIZE 0;
#X msg 50 149 posX \$1;
#X msg 212 149 posY \$1;
#X msg 298 149 sizeY \$1;
#X obj 50 188 outlet CONTROLS;
#X obj 50 35 r \$0-width;
#X obj 212 111 -;
#X obj 212 54 t f f;
#X obj 212 130 / 2;
#X text 291 35 ALTURA DO CABEÇALHO;
#X obj 212 35 r \$0-h_head;
#X text 121 35 LARGURA TOTAL, f 7;
#X text 288 73 CÁLCULOS DOS VALORES X Y LOCAIS;
#X obj 239 92 t f f;
#X obj 239 73 * 0.62;
#X obj 50 54 * 0.48;
#X connect 0 0 3 0;
#X connect 1 0 3 0;
#X connect 2 0 3 0;
#X connect 4 0 14 0;
#X connect 5 0 7 0;
#X connect 6 0 5 0;
#X connect 6 1 13 0;
#X connect 7 0 1 0;
#X connect 9 0 6 0;
#X connect 12 0 5 1;
#X connect 12 1 2 0;
#X connect 13 0 12 0;
#X connect 14 0 0 0;
#X restore 378 106 pd POS_SIZE;
#X obj 330 125 gui_separator \$0 80;
#X obj 52 66 t b b b;
#X connect 0 0 7 0;
#X connect 1 0 2 1;
#X connect 3 0 4 1;
#X connect 5 0 6 1;
#X connect 7 0 2 0;
#X connect 7 1 4 0;
#X connect 7 2 6 0;
#X restore 109 83 pd SEPARATORS;
#X connect 0 0 51 0;
#X connect 1 1 14 0;
#X connect 2 0 23 1;
#X connect 3 0 50 0;
#X connect 4 0 1 1;
#X connect 4 0 23 1;
#X connect 4 0 22 1;
#X connect 4 0 21 3;
#X connect 5 0 21 3;
#X connect 6 0 7 0;
#X connect 7 0 21 2;
#X connect 8 0 6 0;
#X connect 9 0 6 1;
#X connect 9 1 36 0;
#X connect 10 0 41 0;
#X connect 11 0 10 1;
#X connect 12 0 10 1;
#X connect 14 0 44 0;
#X connect 15 0 14 1;
#X connect 16 0 14 1;
#X connect 18 0 12 0;
#X connect 18 1 23 1;
#X connect 18 2 11 0;
#X connect 19 0 16 0;
#X connect 19 1 1 1;
#X connect 19 2 15 0;
#X connect 20 0 22 1;
#X connect 21 1 8 0;
#X connect 21 4 9 0;
#X connect 22 1 28 0;
#X connect 23 1 10 0;
#X connect 28 0 31 0;
#X connect 29 0 48 0;
#X connect 31 0 45 0;
#X connect 32 0 31 1;
#X connect 33 0 31 1;
#X connect 35 0 33 0;
#X connect 35 1 22 1;
#X connect 35 2 32 0;
#X connect 36 0 46 0;
#X connect 37 0 36 1;
#X connect 38 0 36 1;
#X connect 40 0 38 0;
#X connect 40 1 21 2;
#X connect 40 2 37 0;
#X connect 41 0 42 0;
#X connect 42 0 43 0;
#X connect 44 0 42 0;
#X connect 45 0 42 0;
#X connect 46 0 42 0;
#X connect 48 0 40 0;
#X connect 48 1 35 0;
#X connect 48 2 18 0;
#X connect 48 3 49 0;
#X connect 48 4 19 0;
#X connect 49 0 2 0;
#X connect 49 1 18 0;
#X connect 50 0 4 0;
#X connect 51 0 21 0;
#X connect 51 1 22 0;
#X connect 51 2 23 0;
#X connect 51 3 1 0;
#X connect 51 4 52 0;
#X restore 55 274 pd TRANSPORT;
#X obj 55 78 ofHead 100 1;
#X obj 55 245 spigot 1;
#X obj 100 226 == 0;
#X obj 55 136 t b b;
#X text 260 117 SELETOR DO CABEÇALHO;
#X obj 55 39 inlet ON/OFF;
#N canvas 223 112 616 273 POS_SIZE 0;
#X obj 291 113 -;
#X obj 291 132 / 2;
#X msg 45 171 posX \$1;
#X msg 291 171 posY \$1;
#X msg 361 171 sizeX \$1;
#X msg 441 171 sizeY \$1;
#X obj 45 210 outlet CONTROLS;
#X obj 291 38 r \$0-h_head;
#X text 361 76 PORCENTAGEM DA ALTURA DO CABEÇALHO;
#X text 370 38 RECEBE ALTURA DO CABEÇALHO;
#X obj 318 95 t f f f;
#X obj 291 57 t f f;
#X obj 45 38 r \$0-width;
#X text 118 38 RECEBE LARGURA TOTAL;
#X text 172 76 ALTERA POSIÇÃO LOCAL DE ACORDO COM DISPOSITIVO, f
15;
#N canvas 648 145 462 230 CORRECT_POSITION 0;
#X text 130 63 RECEBE PROPORÇÃO DA TELA;
#X obj 43 120 * 1;
#X msg 58 101 1;
#X obj 58 82 sel 0 1;
#X obj 43 34 inlet;
#X obj 43 149 outlet;
#X text 113 82 ALTERA POSIÇÃO LOCAL DE ACORDO COM DISPOSITIVO;
#X obj 58 63 r \$0-ratio;
#X msg 88 101 1.18;
#X connect 1 0 5 0;
#X connect 2 0 1 1;
#X connect 3 0 2 0;
#X connect 3 1 8 0;
#X connect 4 0 1 0;
#X connect 7 0 3 0;
#X connect 8 0 1 1;
#X restore 45 76 pd CORRECT_POSITION;
#X obj 318 76 * 0.65;
#X obj 45 57 * 0.024;
#X connect 0 0 1 0;
#X connect 1 0 3 0;
#X connect 2 0 6 0;
#X connect 3 0 6 0;
#X connect 4 0 6 0;
#X connect 5 0 6 0;
#X connect 7 0 11 0;
#X connect 10 0 0 1;
#X connect 10 1 4 0;
#X connect 10 2 5 0;
#X connect 11 0 0 0;
#X connect 11 1 16 0;
#X connect 12 0 17 0;
#X connect 15 0 2 0;
#X connect 16 0 10 0;
#X connect 17 0 15 0;
#X restore 181 98 pd POS_SIZE;
#X obj 100 155 f 0;
#X obj 100 174 == 0;
#X text 131 155 ARMAZENA VALOR ATUAL;
#X text 136 174 INVERTE VALOR (MODO TOGGLE), f 13;
#X obj 100 136 sel 1;
#X obj 244 136 t f f f f f;
#X obj 55 117 gui_button \$0 0 0 1 1 0 0 1 27 1;
#X obj 238 245 spigot;
#X connect 2 0 15 0;
#X connect 3 0 1 0;
#X connect 4 0 3 1;
#X connect 5 0 3 0;
#X connect 5 1 16 0;
#X connect 7 0 2 0;
#X connect 8 0 15 3;
#X connect 9 0 10 0;
#X connect 10 0 15 2;
#X connect 13 0 9 0;
#X connect 14 0 9 1;
#X connect 14 1 4 0;
#X connect 14 2 1 1;
#X connect 14 3 16 1;
#X connect 14 4 0 1;
#X connect 15 0 5 0;
#X connect 15 1 13 0;
#X connect 15 4 14 0;
#X connect 16 0 0 0;
#X restore 381 196 pd HEADER;
#X msg 315 180 0;
#X msg 345 180 1;
#X text 569 279 - VERSÃO COMPUTADOR RODANDO ÁUDIO EM [pd~];
#X obj 222 169 tgl 15 0 empty empty empty 17 7 0 10 -262144 -1 -1 0
1;
#X obj 149 214 del 100;
#X obj 176 166 del 50;
#X obj 570 29 declare -lib ofelia -lib zexy;
#X obj 261 169 tgl 15 0 empty empty empty 17 7 0 10 -262144 -1 -1 0
1;
#X obj 222 143 tgl 15 0 empty empty empty 17 7 0 10 -262144 -1 -1 0
1;
#X text 569 209 - DESLIGAR RENDERIZAÇÂO DO MEDIDOR DE CPU;
#X text 569 309 - COMPILAR APP JÁ COM CENA PADRÃO - VERSÃO DEBUG/BETA
;
#X text 569 159 - GRAU FINAL NO PATCH - REDUZIR MEMÓRIA PRA 1 LISTBOX
;
#X text 569 139 - MENU DE CENAS \, TELA/PROCESSO DE ABERTURA \, POPUP
CRÉDITOS;
#X text 569 229 - CRÉDITOS NO PATCH - MENÇÃO A ZACK (INCLUINDO O
USO DO EXEMPLO DE APK COMO BASE) \, ED KELLY (ARTIGO) \, ANTOINE (INSPIRAÇÕES
PARA INTERFACE) MILLER E COMUNIDADE;
#X obj 570 48 declare -path data -path data/abs -path data/scenes -path
data/fonts -path data/png, f 43;
#X text 569 179 - RESET BPM E MOMENTO COM 2 TOQUES;
#X text 569 109 - SISTEMA DE GRAVAÇÃO - LIGAR/TESTAR;
#X obj 381 119 r \$0-sceneBus_set;
#X obj 381 138 route render;
#X obj 381 157 t f f f f;
#X connect 0 0 4 0;
#X connect 3 0 0 0;
#X connect 10 0 3 0;
#X connect 10 1 25 0;
#X connect 11 0 10 0;
#X connect 13 0 25 0;
#X connect 15 0 5 0;
#X connect 16 0 5 0;
#X connect 17 0 7 0;
#X connect 18 0 7 0;
#X connect 19 0 8 0;
#X connect 20 0 8 0;
#X connect 21 0 9 0;
#X connect 22 0 9 0;
#X connect 25 0 31 0;
#X connect 25 1 32 0;
#X connect 27 0 26 0;
#X connect 28 0 26 0;
#X connect 30 0 6 1;
#X connect 31 0 12 0;
#X connect 32 0 6 0;
#X connect 34 0 6 2;
#X connect 35 0 30 0;
#X connect 35 0 26 0;
#X connect 44 0 45 0;
#X connect 45 0 46 0;
#X connect 46 0 5 0;
#X connect 46 1 7 0;
#X connect 46 2 8 0;
#X connect 46 3 9 0;
