#N canvas 403 60 732 836 10;
#X obj 180 147 wrap~;
#X obj 44 632 *~ 1;
#X obj 180 128 *~;
#X obj 180 298 *~;
#X obj 180 346 +~;
#X obj 320 164 wrap~;
#X obj 297 164 -~;
#X obj 518 145 noise~;
#X obj 541 270 wrap~;
#X obj 518 270 -~;
#X obj 518 183 *~ 0.5;
#X obj 518 202 +~ 0.5;
#X obj 297 308 *~;
#X obj 518 308 *~;
#X obj 598 164 samphold~;
#X obj 598 145 sig~;
#X obj 461 424 tgl 15 0 \$0-random_gui \$0-random_gui_set empty 17
7 0 10 -262144 -1 -1 0 1;
#X text 481 423 RANDOM;
#X obj 312 270 -~ 1;
#X obj 312 289 abs~;
#X text 140 299 CHUNK;
#X obj 297 221 samphold~;
#X obj 366 164 *~;
#X obj 297 202 /~;
#X obj 518 289 /~;
#X obj 518 251 *~;
#X text 401 382 SLICES;
#X obj 45 785 hip~ 5;
#X obj 45 728 *~;
#N canvas 64 306 425 406 ENVELOPE_GENERATOR 0;
#X obj 53 305 min~;
#X obj 53 324 clip~ 0 1;
#X obj 53 363 outlet~;
#X obj 53 267 -~ 1;
#X text 52 41 * BASEADO EM J06.enveloping.pd;
#X floatatom 138 250 5 0 0 0 - - -, f 5;
#X obj 92 267 * -1;
#X obj 53 248 +~;
#X msg 351 195 20;
#X msg 261 176 100;
#X msg 222 157 500;
#X obj 53 77 inlet~ PHASE;
#X obj 53 286 *~ -20;
#X obj 111 286 *~ 20;
#X text 51 23 ** ENVELOPE COM RAMPAS VARIÁVEIS;
#X obj 222 119 r \$0-slcs;
#X obj 138 156 r \$0-md;
#X obj 222 138 moses 8;
#X obj 261 157 moses 16;
#X obj 306 176 moses 32;
#X msg 306 195 50;
#X obj 222 213 f;
#X obj 138 175 sel 0 1;
#X msg 138 213 500;
#X obj 138 194 t b b;
#X obj 222 232 spigot;
#X msg 255 213 1;
#X msg 282 213 0;
#X obj 173 194 t b b;
#X connect 0 0 1 0;
#X connect 1 0 2 0;
#X connect 3 0 12 0;
#X connect 5 0 6 0;
#X connect 5 0 13 1;
#X connect 6 0 12 1;
#X connect 7 0 3 0;
#X connect 7 0 13 0;
#X connect 8 0 21 0;
#X connect 9 0 21 0;
#X connect 10 0 21 0;
#X connect 11 0 7 0;
#X connect 12 0 0 0;
#X connect 13 0 0 1;
#X connect 15 0 17 0;
#X connect 16 0 22 0;
#X connect 17 0 10 0;
#X connect 17 1 18 0;
#X connect 18 0 9 0;
#X connect 18 1 19 0;
#X connect 19 0 20 0;
#X connect 19 1 8 0;
#X connect 20 0 21 0;
#X connect 21 0 25 0;
#X connect 22 0 24 0;
#X connect 22 1 28 0;
#X connect 23 0 5 0;
#X connect 24 0 23 0;
#X connect 24 1 27 0;
#X connect 25 0 5 0;
#X connect 26 0 25 1;
#X connect 27 0 25 1;
#X connect 28 0 21 0;
#X connect 28 1 26 0;
#X restore 60 709 pd ENVELOPE_GENERATOR;
#X obj 461 384 hradio 15 1 0 8 \$0-sample_gui \$0-sample_gui_set empty
0 -8 0 10 -262144 -1 -1 0;
#X obj 44 109 wrap~;
#X text 585 382 SAMPLE;
#X obj 195 327 samphold~;
#X text 134 346 OFFSET;
#X obj 518 164 samphold~;
#X obj 44 90 *~ 1;
#N canvas 833 483 255 208 LOOP/BARS 0;
#X obj 53 69 pack f f;
#X obj 53 88 swap;
#X obj 53 107 /;
#X floatatom 53 126 5 0 0 0 - - -, f 5;
#X obj 53 154 outlet;
#X obj 122 51 t b f;
#X obj 53 32 r \$0-bars;
#X obj 122 32 r \$1-loopBars;
#X connect 0 0 1 0;
#X connect 1 0 2 0;
#X connect 1 1 2 1;
#X connect 2 0 3 0;
#X connect 3 0 4 0;
#X connect 5 0 0 0;
#X connect 5 1 0 1;
#X connect 6 0 0 0;
#X connect 7 0 5 0;
#X restore 65 52 pd LOOP/BARS;
#N canvas 2 687 245 209 TOTAL_SAMPLES 0;
#X obj 71 99 *;
#X obj 71 136 outlet;
#X floatatom 71 118 8 0 0 0 - - -, f 8;
#X obj 86 80 t b f;
#X obj 71 42 r \$0-bars;
#X obj 86 61 r \$1-barSamples;
#X connect 0 0 2 0;
#X connect 2 0 1 0;
#X connect 3 0 0 0;
#X connect 3 1 0 1;
#X connect 4 0 0 0;
#X connect 5 0 3 0;
#X restore 65 613 pd TOTAL_SAMPLES;
#X obj 461 404 hradio 15 1 0 2 \$0-mode_gui \$0-mode_gui_set empty
0 -8 0 10 -232576 -1 -1 1;
#X floatatom 371 382 4 1 128 0 - #0-slices_gui_set #0-slices_gui,
f 4;
#X obj 44 508 *~;
#X obj 44 565 +~;
#X obj 44 527 wrap~;
#X obj 44 546 /~;
#X obj 44 584 wrap~;
#X obj 180 216 -~;
#X obj 180 235 abs~;
#N canvas 16 641 304 242 CUTOFF 0;
#X obj 49 156 *~;
#X obj 102 137 vline~;
#X obj 102 99 f;
#X obj 102 80 t b;
#X obj 49 31 inlet~ SIGNAL;
#X obj 49 195 outlet~;
#X obj 76 84 bng 15 250 50 0 empty empty empty 17 7 0 10 -262144 -1
-1;
#X obj 102 61 r \$0-cutoff;
#X obj 183 61 r \$1-blockMs;
#X msg 102 118 0 \$1 \, 1 \$1 \$1;
#X connect 0 0 5 0;
#X connect 1 0 0 1;
#X connect 2 0 9 0;
#X connect 3 0 2 0;
#X connect 4 0 0 0;
#X connect 6 0 2 0;
#X connect 7 0 3 0;
#X connect 8 0 2 1;
#X connect 9 0 1 0;
#X restore 45 747 pd CUTOFF;
#X obj 196 510 expr 1/$f1;
#X obj 195 279 expr 1/$f1;
#X obj 213 750 bng 15 250 50 0 empty empty empty 17 7 0 10 -262144
-1 -1;
#X obj 213 766 tabplay~;
#X obj 213 785 dac~;
#X obj 258 785 spigot;
#X obj 291 769 tgl 15 0 empty empty empty 17 7 0 10 -262144 -1 -1 0
1;
#X obj 195 197 samphold~;
#X obj 44 216 -~;
#X obj 44 235 abs~;
#X obj 59 197 samphold~;
#X obj 59 178 sig~;
#X obj 181 547 *;
#X obj 59 489 /;
#X obj 59 451 t b f;
#X obj 196 529 t b f;
#X obj 44 22 inlet~ PHASE;
#X obj 45 804 outlet~;
#X obj 44 661 tabread4~ \$1-audio_0_0;
#N canvas 217 455 226 206 RELATIVE_SPEED 0;
#X obj 60 36 inlet;
#X obj 60 121 * 1;
#X obj 60 150 outlet;
#X obj 95 103 t b f;
#X obj 95 65 r \$0-speed;
#N canvas 461 245 289 278 QUANTIZE 0;
#X obj 96 76 inlet;
#X obj 41 229 outlet;
#X obj 41 94 f;
#X obj 41 55 bang;
#X text 139 76 ENTRADA DO VALOR;
#X text 132 36 SISTEMA LOCAL DE QUANTIZAÇÃO NO BEAT, f 19;
#X obj 41 161 change -1;
#X msg 55 142 set -1;
#X obj 55 123 r \$1-changeReset;
#X text 107 142 SISTEMA PARA RESETAR FILTROS DE REPETIÇÃO, f 20
;
#N canvas 444 275 191 230 CUTOFF_NOW 0;
#X obj 47 47 inlet;
#X obj 47 162 outlet;
#X obj 74 95 s \$0-cutoff;
#X obj 68 114 r \$1-blockMs;
#X obj 47 76 t f b;
#X obj 47 133 pipe;
#X connect 0 0 4 0;
#X connect 3 0 5 1;
#X connect 4 0 5 0;
#X connect 4 1 2 0;
#X connect 5 0 1 0;
#X restore 41 190 pd CUTOFF_NOW;
#X text 132 190 DESLIGA ÁUDIO PARA ATUALIZAR VALOR, f 18;
#X obj 41 36 r \$3-beatBang;
#X connect 0 0 2 1;
#X connect 2 0 6 0;
#X connect 3 0 2 0;
#X connect 6 0 10 0;
#X connect 7 0 6 0;
#X connect 8 0 7 0;
#X connect 10 0 1 0;
#X connect 12 0 3 0;
#X restore 95 84 pd QUANTIZE;
#X connect 0 0 1 0;
#X connect 1 0 2 0;
#X connect 3 0 1 0;
#X connect 3 1 1 1;
#X connect 4 0 5 0;
#X connect 5 0 3 0;
#X restore 65 71 pd RELATIVE_SPEED;
#X obj 545 785 outlet CURRENT_SLICE;
#X text 233 748 DEBUG AUDIO;
#X obj 545 746 r \$0-currentSlice;
#N canvas 244 686 343 210 PHASE_MODE 0;
#X obj 175 127 *~;
#X obj 46 127 *~;
#X obj 175 61 inlet~ PHASE_SLICER;
#X obj 46 61 inlet~ PHASE_LINEAR;
#X obj 46 166 outlet~;
#X text 42 21 ** DEIXA PASSAR A FASE LINEAR OU RECORTADA;
#X obj 61 108 == 0;
#X obj 190 90 r \$0-md;
#X connect 0 0 4 0;
#X connect 1 0 4 0;
#X connect 2 0 0 0;
#X connect 3 0 1 0;
#X connect 6 0 1 1;
#X connect 7 0 0 1;
#X connect 7 0 6 0;
#X restore 44 365 pd PHASE_MODE;
#N canvas 244 686 343 210 PHASE_MODE 0;
#X obj 175 127 *~;
#X obj 46 127 *~;
#X obj 175 61 inlet~ PHASE_SLICER;
#X obj 46 61 inlet~ PHASE_LINEAR;
#X obj 46 166 outlet~;
#X text 42 21 ** DEIXA PASSAR A FASE LINEAR OU RECORTADA;
#X obj 61 108 == 0;
#X obj 190 90 r \$0-md;
#X connect 0 0 4 0;
#X connect 1 0 4 0;
#X connect 2 0 0 0;
#X connect 3 0 1 0;
#X connect 6 0 1 1;
#X connect 7 0 0 1;
#X connect 7 0 6 0;
#X restore 60 690 pd PHASE_MODE;
#N canvas 553 153 723 380 CONTROL_MEMORY 0;
#X obj 58 31 inlet EXTERNAL_CONTROL;
#X obj 58 102 clip 0 7;
#X obj 121 102 f;
#X obj 154 102 clip 0 1;
#X obj 58 121 int;
#X obj 154 121 int;
#X obj 217 121 int;
#X obj 217 102 clip 1 128;
#X obj 292 121 int;
#X obj 292 102 clip 1 128;
#X obj 367 121 int;
#X obj 367 102 clip 0 127;
#X obj 442 102 clip 0 1;
#X obj 442 121 int;
#X obj 505 102 clip 0 1;
#X obj 505 121 int;
#X obj 568 102 clip 0 1;
#X obj 568 121 int;
#X obj 381 239 loadbang;
#X obj 381 258 f \$0;
#X msg 381 277 \$1-memo;
#X obj 467 245 s \$0-memo-load;
#X obj 351 239 t b;
#X obj 467 226 r \$1-memo-load;
#X obj 351 220 r \$1-memo-get;
#X obj 381 296 s \$1-memo-arrays;
#X text 465 265 ATUALIZA COM VALORES DA MEMÓRIA;
#X text 379 316 ENVIA NOME DO ARRAY LOCAL PARA GERENCIADOR NO PAI;
#X text 464 201 ARRAY DE MEMÓRIA LOCAL;
#X msg 517 22 bang;
#X obj 517 45 s \$0-memo-reset;
#X obj 58 150 bit_param \$0 sample \$0-memo 0 0 \$3-\$2;
#X obj 58 169 bit_param \$0 speed \$0-memo 1 1 \$3-\$2;
#X obj 58 207 bit_param \$0 slices \$0-memo 3 8 \$3-\$2;
#X obj 58 226 bit_param \$0 range \$0-memo 4 8 \$3-\$2;
#X obj 58 245 bit_param \$0 offset \$0-memo 5 0 \$3-\$2;
#X obj 58 283 bit_param \$0 random \$0-memo 7 0 \$3-\$2;
#X obj 58 302 bit_param \$0 invert \$0-memo 8 0 \$3-\$2;
#X obj 58 188 bit_param \$0 mode \$0-memo 2 1 \$3-\$2;
#X obj 58 264 bit_param \$0 flow \$0-memo 6 1 \$3-\$2;
#X obj 628 102 clip 0 1;
#X obj 628 121 int;
#X obj 465 181 array define \$0-memo 10;
#X obj 58 70 route sample speed mode slices range offset flow random
invert on;
#X obj 58 321 bit_param \$0 on \$0-memo 9 1 \$3-\$2;
#X connect 0 0 43 0;
#X connect 1 0 4 0;
#X connect 2 0 32 0;
#X connect 3 0 5 0;
#X connect 4 0 31 0;
#X connect 5 0 38 0;
#X connect 6 0 33 0;
#X connect 7 0 6 0;
#X connect 8 0 34 0;
#X connect 9 0 8 0;
#X connect 10 0 35 0;
#X connect 11 0 10 0;
#X connect 12 0 13 0;
#X connect 13 0 39 0;
#X connect 14 0 15 0;
#X connect 15 0 36 0;
#X connect 16 0 17 0;
#X connect 17 0 37 0;
#X connect 18 0 19 0;
#X connect 19 0 20 0;
#X connect 20 0 25 0;
#X connect 22 0 19 0;
#X connect 23 0 21 0;
#X connect 24 0 22 0;
#X connect 29 0 30 0;
#X connect 40 0 41 0;
#X connect 41 0 44 0;
#X connect 43 0 1 0;
#X connect 43 1 2 0;
#X connect 43 2 3 0;
#X connect 43 3 7 0;
#X connect 43 4 9 0;
#X connect 43 5 11 0;
#X connect 43 6 12 0;
#X connect 43 7 14 0;
#X connect 43 8 16 0;
#X connect 43 9 40 0;
#X restore 521 52 pd CONTROL_MEMORY;
#X obj 521 22 inlet EXTERNAL_CONTROL;
#X obj 59 432 clip 1 8;
#X obj 181 472 clip 0 7;
#X obj 234 472 - 1;
#X obj 368 528 s \$0-slcs;
#X obj 368 490 r \$0-slices;
#X obj 195 109 r \$0-slcs;
#X obj 195 260 r \$0-slcs;
#X obj 533 232 r \$0-slcs;
#X obj 312 183 r \$0-slcs;
#X obj 233 453 r \$0-slcs;
#X obj 196 491 r \$0-slcs;
#X obj 59 470 r \$0-slcs;
#X obj 478 490 r \$0-mode;
#X obj 478 528 s \$0-md;
#X floatatom 371 402 4 1 128 0 - #0-range_gui_set #0-range_gui, f
4;
#X text 402 402 RANGE;
#X text 401 422 OFFSET;
#X floatatom 371 422 4 0 127 0 - #0-offset_gui_set #0-offset_gui,
f 4;
#X obj 59 394 r \$0-range;
#X obj 112 432 r \$0-slcs;
#X obj 181 415 r \$0-offset;
#X obj 598 126 r \$0-random;
#X obj 531 424 tgl 15 0 \$0-flow_gui \$0-flow_gui_set empty 17 7 0
10 -262144 -1 -1 1 1;
#X text 551 423 FREEZE/FLOW;
#X obj 381 145 r \$0-flow;
#X text 264 110 FREEZE/FLOW SLICES;
#X text 506 110 RANDOM SLICES;
#X floatatom 371 442 4 0 0 0 - #0-speed_gui_set #0-speed_gui, f 4
;
#X obj 59 159 r \$0-invert;
#X obj 461 444 tgl 15 0 \$0-invert_gui \$0-invert_gui_set empty 17
7 0 10 -262144 -1 -1 0 1;
#X text 481 443 INVERT FASE/SLICE;
#X text 496 403 MODO;
#X text 401 443 SPEED;
#N canvas 236 195 443 415 ACTIVE_SLICE 0;
#X obj 110 112 snapshot~;
#X obj 49 56 inlet~;
#X obj 110 131 change;
#X obj 110 56 r \$3-renderBang;
#X text 213 56 BANG DA CADEIA DE RENDER \, NA MESMA FRAMERATE DO GUI
, f 25;
#X obj 110 75 bang;
#X text 39 20 ** CALCULA E ENVIA SLICE ATIVO NA TAXA DE MENSAGEM;
#X obj 110 372 s \$0-currentSlice;
#X obj 110 324 t f f;
#X obj 137 343 s \$3-\$2-activeSlice;
#X text 263 343 ENVIA PARA INTERFACE;
#X text 224 372 ENVIA LOCALMENTE;
#X obj 125 199 r \$0-slcs;
#X obj 125 266 r \$0-range;
#X obj 110 218 *;
#X text 141 218 MULTIPLICA PELO TOTAL DE SLICES;
#X text 176 112 CONVERTE OFFSET DA FASE EM MENSAGEM;
#X text 198 266 APLICA MÓDULO;
#X obj 110 285 mod;
#X obj 110 237 int;
#X obj 110 160 + 0.0001;
#X text 170 160 GARANTE NÚMEROS INTEIROS DEPOIS DE MULTIPLICAR POS
SLICES, f 31;
#X connect 0 0 2 0;
#X connect 1 0 0 0;
#X connect 2 0 20 0;
#X connect 3 0 5 0;
#X connect 5 0 0 0;
#X connect 8 0 7 0;
#X connect 8 1 9 0;
#X connect 12 0 14 1;
#X connect 13 0 18 1;
#X connect 14 0 19 0;
#X connect 18 0 8 0;
#X connect 19 0 18 0;
#X connect 20 0 14 0;
#X restore 223 366 pd ACTIVE_SLICE;
#N canvas 2 81 274 180 SNAPSHOT~ 0;
#X obj 126 60 bang~;
#X obj 126 79 snapshot~;
#X obj 126 98 change;
#X obj 55 21 inlet~;
#X obj 126 121 outlet;
#X connect 0 0 1 0;
#X connect 1 0 2 0;
#X connect 2 0 4 0;
#X connect 3 0 1 0;
#X restore 593 489 pd SNAPSHOT~;
#X obj 596 508 hsl 90 15 0 1 0 0 empty empty empty -2 -8 0 10 -262144
-1 -1 0 1;
#N canvas 2 81 274 180 SNAPSHOT~ 0;
#X obj 126 60 bang~;
#X obj 126 79 snapshot~;
#X obj 126 98 change;
#X obj 55 21 inlet~;
#X obj 126 121 outlet;
#X connect 0 0 1 0;
#X connect 1 0 2 0;
#X connect 2 0 4 0;
#X connect 3 0 1 0;
#X restore 593 539 pd SNAPSHOT~;
#X obj 596 558 hsl 90 15 0 1 0 0 empty empty empty -2 -8 0 10 -262144
-1 -1 0 1;
#N canvas 2 81 274 180 SNAPSHOT~ 0;
#X obj 126 60 bang~;
#X obj 126 79 snapshot~;
#X obj 126 98 change;
#X obj 55 21 inlet~;
#X obj 126 121 outlet;
#X connect 0 0 1 0;
#X connect 1 0 2 0;
#X connect 2 0 4 0;
#X connect 3 0 1 0;
#X restore 593 602 pd SNAPSHOT~;
#X obj 596 621 hsl 90 15 0 1 0 0 empty empty empty -2 -8 0 10 -262144
-1 -1 0 1;
#N canvas 461 245 289 278 QUANTIZE 0;
#X obj 96 76 inlet;
#X obj 41 229 outlet;
#X obj 41 94 f;
#X obj 41 55 bang;
#X text 139 76 ENTRADA DO VALOR;
#X text 132 36 SISTEMA LOCAL DE QUANTIZAÇÃO NO BEAT, f 19;
#X obj 41 161 change -1;
#X msg 55 142 set -1;
#X obj 55 123 r \$1-changeReset;
#X text 107 142 SISTEMA PARA RESETAR FILTROS DE REPETIÇÃO, f 20
;
#N canvas 444 275 191 230 CUTOFF_NOW 0;
#X obj 47 47 inlet;
#X obj 47 162 outlet;
#X obj 74 95 s \$0-cutoff;
#X obj 68 114 r \$1-blockMs;
#X obj 47 76 t f b;
#X obj 47 133 pipe;
#X connect 0 0 4 0;
#X connect 3 0 5 1;
#X connect 4 0 5 0;
#X connect 4 1 2 0;
#X connect 5 0 1 0;
#X restore 41 190 pd CUTOFF_NOW;
#X text 132 190 DESLIGA ÁUDIO PARA ATUALIZAR VALOR, f 18;
#X obj 41 36 r \$3-beatBang;
#X connect 0 0 2 1;
#X connect 2 0 6 0;
#X connect 3 0 2 0;
#X connect 6 0 10 0;
#X connect 7 0 6 0;
#X connect 8 0 7 0;
#X connect 10 0 1 0;
#X connect 12 0 3 0;
#X restore 59 413 pd QUANTIZE;
#N canvas 461 245 289 278 QUANTIZE 0;
#X obj 96 76 inlet;
#X obj 41 229 outlet;
#X obj 41 94 f;
#X obj 41 55 bang;
#X text 139 76 ENTRADA DO VALOR;
#X text 132 36 SISTEMA LOCAL DE QUANTIZAÇÃO NO BEAT, f 19;
#X obj 41 161 change -1;
#X msg 55 142 set -1;
#X obj 55 123 r \$1-changeReset;
#X text 107 142 SISTEMA PARA RESETAR FILTROS DE REPETIÇÃO, f 20
;
#N canvas 444 275 191 230 CUTOFF_NOW 0;
#X obj 47 47 inlet;
#X obj 47 162 outlet;
#X obj 74 95 s \$0-cutoff;
#X obj 68 114 r \$1-blockMs;
#X obj 47 76 t f b;
#X obj 47 133 pipe;
#X connect 0 0 4 0;
#X connect 3 0 5 1;
#X connect 4 0 5 0;
#X connect 4 1 2 0;
#X connect 5 0 1 0;
#X restore 41 190 pd CUTOFF_NOW;
#X text 132 190 DESLIGA ÁUDIO PARA ATUALIZAR VALOR, f 18;
#X obj 41 36 r \$3-beatBang;
#X connect 0 0 2 1;
#X connect 2 0 6 0;
#X connect 3 0 2 0;
#X connect 6 0 10 0;
#X connect 7 0 6 0;
#X connect 8 0 7 0;
#X connect 10 0 1 0;
#X connect 12 0 3 0;
#X restore 181 434 pd QUANTIZE;
#N canvas 461 273 289 278 QUANTIZE 0;
#X obj 96 76 inlet;
#X obj 41 229 outlet;
#X obj 41 94 f;
#X obj 41 55 bang;
#X text 139 76 ENTRADA DO VALOR;
#X text 132 36 SISTEMA LOCAL DE QUANTIZAÇÃO NO BEAT, f 19;
#X obj 41 161 change -1;
#X msg 55 142 set -1;
#X obj 55 123 r \$1-changeReset;
#X text 107 142 SISTEMA PARA RESETAR FILTROS DE REPETIÇÃO, f 20
;
#N canvas 444 303 191 230 CUTOFF_NOW 0;
#X obj 47 47 inlet;
#X obj 47 162 outlet;
#X obj 74 95 s \$0-cutoff;
#X obj 68 114 r \$1-blockMs;
#X obj 47 76 t f b;
#X obj 47 133 pipe;
#X connect 0 0 4 0;
#X connect 3 0 5 1;
#X connect 4 0 5 0;
#X connect 4 1 2 0;
#X connect 5 0 1 0;
#X restore 41 190 pd CUTOFF_NOW;
#X text 132 190 DESLIGA ÁUDIO PARA ATUALIZAR VALOR, f 18;
#X obj 41 36 r \$3-beatBang;
#X connect 0 0 2 1;
#X connect 2 0 6 0;
#X connect 3 0 2 0;
#X connect 6 0 10 0;
#X connect 7 0 6 0;
#X connect 8 0 7 0;
#X connect 10 0 1 0;
#X connect 12 0 3 0;
#X restore 368 509 pd QUANTIZE;
#N canvas 461 273 289 278 QUANTIZE 0;
#X obj 96 76 inlet;
#X obj 41 229 outlet;
#X obj 41 94 f;
#X obj 41 55 bang;
#X text 139 76 ENTRADA DO VALOR;
#X text 132 36 SISTEMA LOCAL DE QUANTIZAÇÃO NO BEAT, f 19;
#X obj 41 161 change -1;
#X msg 55 142 set -1;
#X obj 55 123 r \$1-changeReset;
#X text 107 142 SISTEMA PARA RESETAR FILTROS DE REPETIÇÃO, f 20
;
#N canvas 444 275 191 230 CUTOFF_NOW 0;
#X obj 47 47 inlet;
#X obj 47 162 outlet;
#X obj 74 95 s \$0-cutoff;
#X obj 68 114 r \$1-blockMs;
#X obj 47 76 t f b;
#X obj 47 133 pipe;
#X connect 0 0 4 0;
#X connect 3 0 5 1;
#X connect 4 0 5 0;
#X connect 4 1 2 0;
#X connect 5 0 1 0;
#X restore 41 190 pd CUTOFF_NOW;
#X text 132 190 DESLIGA ÁUDIO PARA ATUALIZAR VALOR, f 18;
#X obj 41 36 r \$3-beatBang;
#X connect 0 0 2 1;
#X connect 2 0 6 0;
#X connect 3 0 2 0;
#X connect 6 0 10 0;
#X connect 7 0 6 0;
#X connect 8 0 7 0;
#X connect 10 0 1 0;
#X connect 12 0 3 0;
#X restore 478 509 pd QUANTIZE;
#X obj 401 117 switch~;
#X text 322 22 DSP INTERNO;
#N canvas 305 360 207 223 DSP_CUTOFF 0;
#X obj 42 41 inlet~;
#X obj 42 118 *~;
#X obj 57 99 vline~;
#X obj 42 157 outlet~;
#X obj 103 41 inlet DSP;
#X msg 57 80 \$1 20;
#X connect 0 0 1 0;
#X connect 1 0 3 0;
#X connect 2 0 1 1;
#X connect 4 0 5 0;
#X connect 5 0 2 0;
#X restore 45 766 pd DSP_CUTOFF;
#X obj 401 22 r \$0-on;
#X obj 401 60 moses 1;
#X obj 401 79 t f f;
#X obj 440 79 t f f;
#X obj 467 98 f;
#N canvas 461 329 289 249 QUANTIZE 0;
#X obj 96 76 inlet;
#X obj 41 200 outlet;
#X obj 41 94 f;
#X obj 41 55 bang;
#X text 139 76 ENTRADA DO VALOR;
#X text 132 36 SISTEMA LOCAL DE QUANTIZAÇÃO NO BEAT, f 19;
#X obj 41 161 change -1;
#X msg 55 142 set -1;
#X obj 55 123 r \$1-changeReset;
#X text 107 142 SISTEMA PARA RESETAR FILTROS DE REPETIÇÃO, f 20
;
#X obj 41 36 r \$3-beatBang;
#X connect 0 0 2 1;
#X connect 2 0 6 0;
#X connect 3 0 2 0;
#X connect 6 0 1 0;
#X connect 7 0 6 0;
#X connect 8 0 7 0;
#X connect 10 0 3 0;
#X restore 401 41 pd QUANTIZE;
#X obj 401 98 pipe 20;
#N canvas 27 229 666 449 SAMPLE 0;
#X msg 39 115 set \$1-audio_\$2_\$3;
#X obj 39 77 t b f f;
#X obj 39 96 pack \$1 \$2 0;
#X obj 39 39 r \$0-sample;
#N canvas 461 301 289 278 QUANTIZE 0;
#X obj 96 76 inlet;
#X obj 41 229 outlet;
#X obj 41 94 f;
#X obj 41 55 bang;
#X text 139 76 ENTRADA DO VALOR;
#X text 132 36 SISTEMA LOCAL DE QUANTIZAÇÃO NO BEAT, f 19;
#X obj 41 161 change -1;
#X msg 55 142 set -1;
#X obj 55 123 r \$1-changeReset;
#X text 107 142 SISTEMA PARA RESETAR FILTROS DE REPETIÇÃO, f 20
;
#N canvas 444 275 191 230 CUTOFF_NOW 0;
#X obj 47 47 inlet;
#X obj 47 162 outlet;
#X obj 74 95 s \$0-cutoff;
#X obj 68 114 r \$1-blockMs;
#X obj 47 76 t f b;
#X obj 47 133 pipe;
#X connect 0 0 4 0;
#X connect 3 0 5 1;
#X connect 4 0 5 0;
#X connect 4 1 2 0;
#X connect 5 0 1 0;
#X restore 41 190 pd CUTOFF_NOW;
#X text 132 190 DESLIGA ÁUDIO PARA ATUALIZAR VALOR, f 18;
#X obj 41 36 r \$3-beatBang;
#X connect 0 0 2 1;
#X connect 2 0 6 0;
#X connect 3 0 2 0;
#X connect 6 0 10 0;
#X connect 7 0 6 0;
#X connect 8 0 7 0;
#X connect 10 0 1 0;
#X connect 12 0 3 0;
#X restore 39 58 pd QUANTIZE;
#X obj 39 154 outlet;
#X floatatom 178 132 5 0 0 0 - - -, f 5;
#X obj 218 95 + 0;
#X obj 233 38 loadbang;
#X obj 233 57 f \$2;
#X obj 218 114 array get \$1-barList 0 1;
#X obj 218 393 s \$0-bars;
#X obj 233 76 * 8;
#X text 375 113 OBTÉM NÚMERO DE COMPASSOS DA LISTA GERADA NA ABERTURA
DE UMA CENA, f 34;
#X text 269 57 INICIALIZA BANCO 0/1/2/3;
#X obj 218 153 t f f;
#X obj 300 243 r \$3-beats/bar;
#X text 397 243 RECEBE DIVISÃO DO COMPASSO NO PROJETO;
#X obj 285 262 * 4;
#X text 284 393 ENVIA NÚMERO DE COMPASSOS PARA [pd LOOP/BARS];
#X obj 285 281 t b f f;
#X obj 285 174 spigot;
#X obj 318 158 tgl 15 0 empty empty empty 17 7 0 10 -262144 -1 -1 0
1;
#X text 342 195 - BLOQUEAR QUANDO RECEBE PRESET DE UM MOMENTO;
#X obj 324 300 s \$0-slices_gui;
#X obj 304 319 s \$0-range_gui;
#X msg 285 300 0;
#X obj 285 338 s \$0-offset_gui;
#X text 342 155 - NOVO [param] sampleReset;
#X text 342 175 - ACIONADO COM 2 CLIQUES NO SELETOR;
#X connect 0 0 5 0;
#X connect 1 0 2 0;
#X connect 1 1 2 2;
#X connect 1 2 7 0;
#X connect 2 0 0 0;
#X connect 3 0 4 0;
#X connect 4 0 1 0;
#X connect 7 0 10 0;
#X connect 8 0 9 0;
#X connect 9 0 12 0;
#X connect 10 0 6 0;
#X connect 10 0 15 0;
#X connect 12 0 7 1;
#X connect 15 0 11 0;
#X connect 15 1 21 0;
#X connect 16 0 18 1;
#X connect 18 0 20 0;
#X connect 20 0 26 0;
#X connect 20 1 25 0;
#X connect 20 2 24 0;
#X connect 21 0 18 0;
#X connect 22 0 21 1;
#X connect 26 0 27 0;
#X restore 213 643 pd SAMPLE;
#X connect 0 0 14 1;
#X connect 0 0 22 0;
#X connect 0 0 33 1;
#X connect 0 0 35 1;
#X connect 0 0 46 0;
#X connect 0 0 56 1;
#X connect 0 0 73 1;
#X connect 1 0 67 0;
#X connect 2 0 0 0;
#X connect 2 0 6 0;
#X connect 2 0 5 0;
#X connect 3 0 4 0;
#X connect 4 0 72 1;
#X connect 5 0 6 1;
#X connect 6 0 23 0;
#X connect 7 0 35 0;
#X connect 8 0 9 1;
#X connect 9 0 24 0;
#X connect 10 0 11 0;
#X connect 11 0 25 0;
#X connect 12 0 33 0;
#X connect 13 0 33 0;
#X connect 14 0 18 0;
#X connect 14 0 13 1;
#X connect 15 0 14 0;
#X connect 18 0 19 0;
#X connect 19 0 12 1;
#X connect 21 0 12 0;
#X connect 22 0 21 1;
#X connect 23 0 21 0;
#X connect 24 0 13 0;
#X connect 25 0 8 0;
#X connect 25 0 9 0;
#X connect 27 0 66 0;
#X connect 28 0 48 0;
#X connect 29 0 28 1;
#X connect 31 0 2 0;
#X connect 31 0 57 0;
#X connect 31 0 59 1;
#X connect 33 0 4 1;
#X connect 33 0 109 0;
#X connect 35 0 10 0;
#X connect 36 0 31 0;
#X connect 37 0 68 0;
#X connect 38 0 1 1;
#X connect 41 0 43 0;
#X connect 42 0 45 0;
#X connect 43 0 44 0;
#X connect 43 0 73 0;
#X connect 44 0 42 0;
#X connect 45 0 1 0;
#X connect 45 0 114 0;
#X connect 46 0 47 0;
#X connect 47 0 3 0;
#X connect 48 0 122 0;
#X connect 49 0 64 0;
#X connect 50 0 3 1;
#X connect 51 0 52 0;
#X connect 52 0 53 0;
#X connect 52 0 53 1;
#X connect 52 1 54 0;
#X connect 54 0 51 0;
#X connect 55 0 54 1;
#X connect 56 0 46 1;
#X connect 57 0 58 0;
#X connect 58 0 72 0;
#X connect 58 0 110 0;
#X connect 59 0 57 1;
#X connect 60 0 59 0;
#X connect 60 0 56 0;
#X connect 61 0 42 1;
#X connect 62 0 41 1;
#X connect 62 0 44 1;
#X connect 63 0 62 0;
#X connect 63 1 62 1;
#X connect 64 0 61 0;
#X connect 64 1 61 1;
#X connect 65 0 36 0;
#X connect 67 0 28 0;
#X connect 68 0 36 1;
#X connect 71 0 69 0;
#X connect 72 0 41 0;
#X connect 72 0 112 0;
#X connect 73 0 29 0;
#X connect 75 0 74 0;
#X connect 76 0 63 0;
#X connect 77 0 61 0;
#X connect 78 0 77 2;
#X connect 80 0 118 0;
#X connect 81 0 2 1;
#X connect 82 0 50 0;
#X connect 83 0 25 1;
#X connect 83 0 24 1;
#X connect 84 0 23 1;
#X connect 85 0 78 0;
#X connect 86 0 49 0;
#X connect 87 0 62 0;
#X connect 88 0 119 0;
#X connect 94 0 116 0;
#X connect 95 0 76 2;
#X connect 96 0 117 0;
#X connect 97 0 15 0;
#X connect 100 0 22 1;
#X connect 104 0 60 0;
#X connect 110 0 111 0;
#X connect 112 0 113 0;
#X connect 114 0 115 0;
#X connect 116 0 76 0;
#X connect 117 0 77 0;
#X connect 118 0 79 0;
#X connect 119 0 89 0;
#X connect 122 0 27 0;
#X connect 123 0 128 0;
#X connect 124 0 125 0;
#X connect 124 1 126 0;
#X connect 125 0 129 0;
#X connect 125 1 127 0;
#X connect 126 0 127 0;
#X connect 126 1 120 0;
#X connect 127 0 122 1;
#X connect 128 0 124 0;
#X connect 129 0 120 0;
#X connect 130 0 67 0;
#X connect 130 0 52 0;
#X coords 0 -1 1 1 270 110 1 360 360;
