#N canvas 272 53 680 752 10;
#X obj 50 78 inlet VALUE;
#X obj 50 721 outlet VALUE;
#X text 151 158 RECEBE VALOR DO GUI;
#X text 101 682 ENVIA P/ PATCH;
#X text 165 615 ENVIA P/GUI;
#X text 157 215 BANG PARA REENVIAR VALOR;
#X text 478 78 REINICIA VALOR;
#X obj 90 157 r \$1_gui;
#X obj 90 215 r \$1_bang;
#X msg 90 234 bang;
#X obj 90 311 f \$3;
#X obj 65 682 s \$1;
#X obj 81 615 s \$1_gui_set;
#X msg 90 292 bang;
#X msg 405 97 bang;
#X text 187 530 ENVIA P/ MEMÓRIA;
#X obj 50 425 route float symbol list bang;
#X obj 81 558 list prepend set;
#X obj 81 577 list trim;
#X obj 90 330 text get \$2;
#X obj 342 96 loadbang;
#X obj 342 172 symbol \$4-;
#X obj 342 191 sel symbol;
#X msg 342 134 4;
#X obj 342 153 t b f;
#X obj 417 172 makefilename $%d-;
#X obj 399 210 bang;
#X obj 399 229 list append \$4;
#X text 496 221 INICIALIZA PARÂMETRO COM 4 ARGUMENTO SE EXISTIR,
f 24;
#X text 156 273 CARREGA VALOR DA MEMÓRIA;
#X text 108 31 ARGUMENTOS: NOME DO PARÂMETRO (SYMBOL) \, NOME DA MEMÓRIA
(SYMBOL) \, ÍNDICE NA MEMÓRIA \, VALOR DE INICIALIZAÇÃO, f 75
;
#X obj 97 510 list prepend \$3;
#X obj 90 273 r \$2_load;
#X obj 405 78 r \$2_reset;
#X obj 342 115 del 5;
#X text 107 13 ** GERENCIA PARÂMETROS NO PATCH \, NA INTERFACE (GUI)
E NUM GESTOR DE MEMÓRIA, f 75;
#X text 385 115 AGUARDA MEMÓRIA INICIALIZAR;
#X obj 166 472 list length;
#X obj 50 454 t a a a a a;
#X obj 97 491 list prepend;
#X text 245 472 NÚMERO DE ÍTENS (CASO SEJA LISTA);
#X obj 177 721 outlet SET_VALUE;
#X obj 81 596 t a a;
#X obj 90 196 r \$2_bang;
#X obj 50 406 list;
#X obj 107 388 t b a b;
#X obj 50 369 route bang;
#X obj 90 118 r \$1-;
#X text 133 118 RECEBE VALOR REMOTAMENTE;
#X text 199 511 LISTA COM ÍNDICE / NÚMERO DE ÍTENS / ÍTENS;
#X text 532 172 VERIFICA SE 4 ARGUMENTO EXISTE, f 16;
#X obj 97 529 s \$2_memo_set;
#X obj 131 454 t b b;
#X obj 255 332 r \$1_set;
#X obj 50 644 spigot 1;
#X obj 65 663 spigot 1;
#X obj 255 351 t b a b;
#X msg 285 370 0;
#X obj 255 389 t f f;
#X msg 255 370 1;
#X text 316 333 RECEBE VALOR FRIO;
#X connect 0 0 46 0;
#X connect 7 0 46 0;
#X connect 8 0 9 0;
#X connect 9 0 46 0;
#X connect 10 0 19 0;
#X connect 13 0 10 0;
#X connect 14 0 34 0;
#X connect 16 0 38 0;
#X connect 16 1 38 0;
#X connect 16 2 38 0;
#X connect 16 3 52 0;
#X connect 17 0 18 0;
#X connect 18 0 42 0;
#X connect 19 0 46 0;
#X connect 20 0 34 0;
#X connect 21 0 22 0;
#X connect 22 1 26 0;
#X connect 23 0 24 0;
#X connect 24 0 21 0;
#X connect 24 1 25 0;
#X connect 25 0 22 1;
#X connect 26 0 27 0;
#X connect 27 0 46 0;
#X connect 31 0 51 0;
#X connect 32 0 13 0;
#X connect 33 0 14 0;
#X connect 34 0 23 0;
#X connect 37 0 39 1;
#X connect 38 0 54 0;
#X connect 38 1 55 0;
#X connect 38 2 17 0;
#X connect 38 3 39 0;
#X connect 38 4 37 0;
#X connect 39 0 31 0;
#X connect 42 0 12 0;
#X connect 42 1 41 0;
#X connect 43 0 9 0;
#X connect 44 0 16 0;
#X connect 45 0 44 0;
#X connect 45 1 44 1;
#X connect 45 2 44 1;
#X connect 46 0 44 0;
#X connect 46 1 45 0;
#X connect 47 0 46 0;
#X connect 52 0 54 0;
#X connect 52 1 55 0;
#X connect 53 0 56 0;
#X connect 54 0 1 0;
#X connect 55 0 11 0;
#X connect 56 0 59 0;
#X connect 56 1 46 0;
#X connect 56 2 57 0;
#X connect 57 0 58 0;
#X connect 58 0 54 1;
#X connect 58 1 55 1;
#X connect 59 0 58 0;
