#N canvas 125 105 499 615 10;
#X obj 128 14 inlet~;
#X obj 129 571 outlet~;
#X obj 129 150 f;
#X obj 129 458 *~;
#X obj 158 457 line~;
#X obj 332 333 *~;
#X obj 347 311 line~;
#X obj 158 408 sel 1 0;
#X obj 165 191 t b f;
#X obj 158 361 r \$0-chave;
#X obj 129 528 *~;
#X obj 158 528 line~;
#X obj 129 100 r \$1-atrasador_master;
#X obj 129 124 t b f;
#X obj 128 60 delwrite~ \$0-delay 10000;
#X msg 347 286 \$1 100;
#X obj 335 136 s \$0-div_in;
#X obj 165 169 r \$0-div;
#X obj 158 487 r \$0-vol;
#N canvas 2 165 279 215 init 0;
#X obj 47 59 s \$0-div_in;
#X obj 47 105 s \$0-vol_in;
#X obj 47 155 s \$0-chavein;
#X obj 47 38 f \$2;
#X obj 47 84 f 1;
#X obj 47 11 loadbang;
#X obj 47 133 f 1;
#X connect 3 0 0 0;
#X connect 4 0 1 0;
#X connect 5 0 3 0;
#X connect 5 0 4 0;
#X connect 5 0 6 0;
#X connect 6 0 2 0;
#X restore 347 214 pd init;
#X obj 308 14 inlet controles;
#X obj 308 115 s \$0-fb_in;
#X obj 363 157 s \$0-vol_in;
#X obj 347 264 r \$0-fb;
#X msg 255 446 set \$1;
#X obj 255 467 s \$0-vol_in;
#X obj 270 403 r \$0-vol;
#X obj 255 425 f;
#X msg 281 425 0;
#X obj 129 231 t f f;
#X obj 209 248 s \$0-bpm_in;
#X obj 51 101 cnv 15 41 218 empty empty empty 20 12 0 14 -232576 -66577
0;
#X obj 63 172 vsl 17 70 0 1 0 0 \$0-fb \$0-fb_in empty 0 -9 0 10 -262144
-1 -1 0 1;
#X obj 63 295 tgl 17 0 \$0-chave \$0-chavein empty 17 7 0 10 -1 -262144
-1 1 1;
#X obj 63 254 vsl 17 30 0 1 0 0 \$0-vol \$0-vol_in empty 0 -9 0 10
-262144 -1 -1 2900 1;
#X obj 54 129 nbx 3 13 0 999 0 0 \$0-bpm \$0-bpm_in empty 42 9 0 10
-159808 -262144 -258113 0 256;
#X obj 54 111 nbx 3 13 0 999 0 0 \$0-div \$0-div_in empty 42 9 0 10
-1 -262144 -258113 1 256;
#X obj 51 101 cnv 2 10 2 empty empty empty 20 12 0 14 -128992 -66577
0;
#X obj 82 101 cnv 2 10 2 empty empty empty 20 12 0 14 -262144 -66577
0;
#X obj 51 317 cnv 2 10 2 empty empty empty 20 12 0 14 -128992 -66577
0;
#X obj 325 51 r \$1-atrasador;
#X obj 356 465 switch~;
#N canvas 2 193 238 216 bpm2ms 0;
#X obj 68 35 inlet;
#X obj 68 157 outlet;
#X obj 68 92 /;
#X obj 68 118 * 60;
#X msg 68 69 1000 \$1;
#X obj 128 135 / 1000;
#X obj 128 157 s \$0-secs_in;
#X connect 0 0 4 0;
#X connect 2 0 3 0;
#X connect 3 0 1 0;
#X connect 3 0 5 0;
#X connect 4 0 2 0;
#X connect 5 0 6 0;
#X restore 129 256 pd bpm2ms;
#X obj 158 384 t f f;
#X msg 158 432 1 10;
#X msg 198 432 0 10;
#X obj 356 444 f;
#X obj 356 401 t b f;
#X obj 356 423 del 10;
#X msg 158 508 \$1 50;
#X obj 308 87 route fb div vol tg;
#X obj 391 180 s \$0-chavein;
#X obj 129 208 / 1;
#X obj 129 316 noclickdel \$0-delay;
#X obj 54 147 nbx 3 13 0 999 0 0 \$0-secs \$0-secs_in empty 42 9 0
10 -232576 -1 -258113 0 256;
#X connect 0 0 14 0;
#X connect 2 0 52 0;
#X connect 3 0 10 0;
#X connect 4 0 3 1;
#X connect 5 0 14 0;
#X connect 6 0 5 1;
#X connect 7 0 44 0;
#X connect 7 0 27 0;
#X connect 7 1 45 0;
#X connect 7 1 28 0;
#X connect 8 0 2 0;
#X connect 8 1 52 1;
#X connect 9 0 43 0;
#X connect 10 0 1 0;
#X connect 11 0 10 1;
#X connect 12 0 13 0;
#X connect 13 0 2 0;
#X connect 13 1 2 1;
#X connect 15 0 6 0;
#X connect 17 0 8 0;
#X connect 18 0 49 0;
#X connect 20 0 50 0;
#X connect 23 0 15 0;
#X connect 24 0 25 0;
#X connect 26 0 27 1;
#X connect 27 0 24 0;
#X connect 28 0 24 0;
#X connect 29 0 42 0;
#X connect 29 1 30 0;
#X connect 40 0 50 0;
#X connect 42 0 53 0;
#X connect 43 0 47 0;
#X connect 43 1 7 0;
#X connect 44 0 4 0;
#X connect 45 0 4 0;
#X connect 46 0 41 0;
#X connect 47 0 48 0;
#X connect 47 1 46 1;
#X connect 48 0 46 0;
#X connect 49 0 11 0;
#X connect 50 0 21 0;
#X connect 50 1 16 0;
#X connect 50 2 22 0;
#X connect 50 3 51 0;
#X connect 52 0 29 0;
#X connect 53 0 3 0;
#X connect 53 0 5 0;
#X coords 0 -1 1 1 43 220 2 50 100;
