#N canvas 43 164 1195 594 16;
#X obj 687 487 s \$3;
#X obj 687 455 pack \$4 0;
#X msg 337 423 set \$1;
#X obj 79 487 s \$1-\$2;
#X obj 50 28 inlet VALUE;
#X obj 50 389 t f f f f;
#X obj 50 534 outlet VALUE;
#X obj 50 287 f;
#X obj 337 487 s \$1-\$2_gui_set;
#X obj 243 196 r \$1-\$2_gui;
#X obj 687 167 r \$3-load;
#X obj 687 199 t b;
#X obj 687 231 f \$4;
#X obj 687 263 array get \$3 \$4 1;
#X text 370 197 RECEBE VALOR DO GUI;
#X text 685 138 CARREGA VALOR DO ARRAY;
#X text 166 487 ENVIA P/ PATCH;
#X text 504 487 ENVIA P/GUI;
#X text 794 455 INDEX / VALOR;
#X text 747 488 ENVIA P/ ARRAY DE MEMÓRIA;
#X obj 243 263 t b;
#X obj 243 234 r \$1-\$2_bang;
#X text 378 235 BANG PARA REENVIAR VALOR;
#X obj 845 312 r \$3-reset;
#X text 958 313 REINICIA VALOR;
#X obj 194 28 inlet VALUE_SET;
#X obj 194 62 t f f f;
#X text 191 92 ENTRA VALOR PARA MEMÓRIA E SAÍDA LOCAL \, SEM ENVIAR
PARA PATCH E INTERFACE, f 22;
#X obj 687 423 t b f;
#X obj 687 336 loadbang;
#X obj 687 365 f \$5;
#X obj 845 341 t b;
#X text 740 367 INICIALIZA PARÂMETRO COM 5 ARGUMENTO;
#X text 441 24 ** GERENCIA PARÂMETROS NO PATCH \, NA INTERFACE (PD)
NUM ARRAY DE MEMÓRIA \, E NUMA INTERFACE EXTRA;
#X text 71 197 EXT. GUI;
#X text 459 522 EXT. GUI;
#X text 441 74 ARGUMENTOS: ID GERAL (\$0) \, NOME DO PARÂMETRO \,
ARRAY DE MEMÓRIA \, INDEX NO ARRAY \, VALOR DE INICIALIZAÇÃO \,
EXTRA GUI ID, f 69;
#X obj 337 522 s \$6-\$2_set;
#X obj 158 196 r \$6-\$2;
#X connect 1 0 0 0;
#X connect 2 0 8 0;
#X connect 2 0 37 0;
#X connect 4 0 7 0;
#X connect 5 0 6 0;
#X connect 5 1 3 0;
#X connect 5 2 2 0;
#X connect 5 3 28 0;
#X connect 7 0 5 0;
#X connect 9 0 7 0;
#X connect 10 0 11 0;
#X connect 11 0 12 0;
#X connect 12 0 13 0;
#X connect 13 0 7 0;
#X connect 20 0 7 0;
#X connect 21 0 20 0;
#X connect 23 0 31 0;
#X connect 25 0 26 0;
#X connect 26 0 7 1;
#X connect 26 1 6 0;
#X connect 26 2 28 0;
#X connect 28 0 1 0;
#X connect 28 1 1 1;
#X connect 29 0 30 0;
#X connect 30 0 5 0;
#X connect 31 0 30 0;
#X connect 38 0 7 0;
