#N canvas 186 192 1059 733 10;
#X obj 47 581 *~;
#X obj 62 562 line~;
#X obj 47 398 +~ 1;
#X obj 47 476 *~;
#X obj 47 427 +~;
#X obj 86 410 samphold~;
#X obj 47 326 samphold~;
#X obj 47 373 *~;
#X obj 237 421 -~ 0.5;
#X obj 237 440 *~ 0.5;
#X obj 237 459 cos~;
#X obj 47 495 +~;
#X floatatom 404 40 0 0 0 0 - - -;
#X obj 404 167 /;
#X obj 404 223 phasor~;
#X obj 481 240 +~ 0.5;
#X obj 481 259 wrap~;
#X obj 47 170 t f f;
#X obj 404 21 r \$0-lb;
#X obj 256 40 s \$0-lb;
#X obj 256 21 loadbang;
#X obj 404 278 s~ \$0-phase;
#X obj 481 278 s~ \$0-phase2;
#X obj 106 326 r~ \$0-phase;
#X obj 62 354 r~ \$0-phase;
#X obj 145 410 r~ \$0-phase;
#X obj 237 402 r~ \$0-phase;
#X obj 327 398 +~ 1;
#X obj 327 476 *~;
#X obj 327 427 +~;
#X obj 366 410 samphold~;
#X obj 327 326 samphold~;
#X obj 327 373 *~;
#X obj 517 421 -~ 0.5;
#X obj 517 440 *~ 0.5;
#X obj 517 459 cos~;
#X obj 386 326 r~ \$0-phase2;
#X obj 342 354 r~ \$0-phase2;
#X obj 517 402 r~ \$0-phase2;
#X obj 428 410 r~ \$0-phase2;
#X obj 50 87 hsl 100 15 0 1 0 0 empty empty empty -2 -8 0 10 -262144
-1 -1 619 1;
#X obj 74 189 / 44100;
#X obj 47 151 *;
#X obj 259 132 hsl 100 15 0 1 0 0 empty empty empty -2 -8 0 10 -262144
-1 -1 2112 0;
#X obj 256 148 *;
#X obj 147 530 hsl 128 15 0 1 0 0 empty empty empty -2 -8 0 10 -262144
-1 -1 11280 1;
#X obj 678 241 s \$0-point;
#X obj 705 193 s \$0-amp;
#X obj 144 511 r \$0-amp;
#X obj 256 113 r \$0-point;
#X obj 431 78 / 120;
#X obj 404 97 pow;
#X obj 404 59 t b f;
#X msg 404 78 2;
#X obj 62 543 pack 0 50;
#X obj 47 302 sig~;
#X text 434 40 TRANSPOSIÇÃO - SEMITONS/10;
#X text 459 223 GERADOR DAS 2 FASES DE LEITURA;
#X text 45 45 TAMANHO DO SLICE;
#X obj 113 151 r \$0-lb;
#X obj 113 170 samplerate~;
#X obj 74 227 s \$0-chunkSize;
#X obj 256 186 s~ \$0-readPoint;
#X obj 419 129 r \$0-chunkSize;
#X obj 86 391 r~ \$0-readPoint;
#X obj 366 391 r~ \$0-readPoint;
#N canvas 806 245 345 440 SAMPLE 0;
#X msg 51 258 set \$1-audio_\$2_\$3;
#X obj 51 379 outlet;
#X obj 51 162 change -1;
#X msg 65 143 set -1;
#X text 117 143 SISTEMA PARA RESETAR FILTROS DE REPETIÇÃO, f 20
;
#N canvas 444 331 191 230 CUTOFF_NOW 0;
#X obj 47 47 inlet;
#X obj 47 162 outlet;
#X obj 74 95 s \$0-cutoff;
#X obj 68 114 r \$1-blockMs;
#X obj 47 76 t f b;
#X obj 47 133 pipe;
#X connect 0 0 4 0;
#X connect 3 0 5 1;
#X connect 4 0 5 0;
#X connect 4 1 2 0;
#X connect 5 0 1 0;
#X restore 51 191 pd CUTOFF_NOW;
#X text 142 191 DESLIGA ÁUDIO PARA ATUALIZAR VALOR, f 18;
#X obj 51 220 t b f;
#X obj 118 350 array size;
#X obj 118 293 route set;
#X obj 51 277 t a a;
#X obj 118 312 symbol;
#X obj 118 331 t b s;
#X obj 118 379 s \$0-size;
#X text 191 350 OBTÉM TAMANHO DO ÁUDIO EM SAMPLES, f 16;
#X obj 51 85 route sample;
#X text 49 33 RECEBE COMANDOS DA [bit_track];
#X text 136 85 ROTEIA SAMPLE;
#X obj 51 56 r \$1-\$3-bus;
#X obj 51 239 pack \$2 \$3 0;
#X obj 65 124 r \$2-changeReset;
#X connect 0 0 10 0;
#X connect 2 0 5 0;
#X connect 3 0 2 0;
#X connect 5 0 7 0;
#X connect 7 0 19 0;
#X connect 7 1 19 2;
#X connect 8 0 13 0;
#X connect 9 0 11 0;
#X connect 10 0 1 0;
#X connect 10 1 9 0;
#X connect 11 0 12 0;
#X connect 12 0 8 0;
#X connect 12 1 8 1;
#X connect 15 0 2 0;
#X connect 18 0 15 0;
#X connect 19 0 0 0;
#X connect 20 0 3 0;
#X restore 125 433 pd SAMPLE;
#X obj 47 687 outlet~ GRAIN;
#X obj 678 31 r \$1-granularList;
#X text 739 50 ROTEIA POR CAMADA;
#X text 739 69 ROTEIA POR TOQUE;
#X obj 759 254 change -1;
#X obj 678 88 unpack f f f f;
#X obj 47 68 r \$0-chunk;
#X obj 62 113 r \$0-size;
#X text 129 113 TAMANHO DO ÁUDIO EM SAMPLES, f 16;
#X obj 62 132 t f f;
#X obj 732 126 s \$0-chunk;
#X obj 47 648 hip~ 5;
#N canvas 65 477 315 269 CUTOFF 0;
#X obj 49 175 *~;
#X obj 112 156 vline~;
#X obj 112 99 f;
#X obj 112 80 t b;
#X obj 49 31 inlet~ SIGNAL;
#X obj 49 214 outlet~;
#X obj 86 86 bng 15 250 50 0 empty empty empty 17 7 0 10 -262144 -1
-1;
#X obj 112 61 r \$0-cutoff;
#X obj 193 61 r \$1-blockMs;
#X obj 112 214 outlet BANG;
#X obj 112 118 pack f f;
#X obj 193 80 t f f;
#X obj 220 99 * 2;
#X msg 112 137 0 \$1 \, 1 \$1 \$2;
#X connect 0 0 5 0;
#X connect 1 0 0 1;
#X connect 2 0 10 0;
#X connect 3 0 2 0;
#X connect 3 0 9 0;
#X connect 4 0 0 0;
#X connect 6 0 2 0;
#X connect 7 0 3 0;
#X connect 8 0 11 0;
#X connect 10 0 13 0;
#X connect 11 0 2 1;
#X connect 11 1 12 0;
#X connect 12 0 10 1;
#X connect 13 0 1 0;
#X restore 47 610 pd CUTOFF;
#X obj 816 362 switch~;
#N canvas 305 584 207 223 DSP_CUTOFF 0;
#X obj 42 41 inlet~;
#X obj 42 118 *~;
#X obj 57 99 vline~;
#X obj 42 157 outlet~;
#X obj 103 41 inlet DSP;
#X msg 57 80 \$1 20;
#X connect 0 0 1 0;
#X connect 1 0 3 0;
#X connect 2 0 1 1;
#X connect 4 0 5 0;
#X connect 5 0 2 0;
#X restore 47 629 pd DSP_CUTOFF;
#X obj 816 289 moses 1;
#X obj 816 308 t f f;
#X obj 843 412 f;
#X obj 816 343 pipe 20;
#X obj 678 50 route \$3;
#X obj 678 69 route \$4;
#X text 771 235 ACTIVE;
#X text 735 362 DSP INTERNO;
#X text 254 90 PONTO DE LEITURA;
#X obj 47 452 tabread4~ \$2-audio_0_0;
#X obj 327 452 tabread4~ \$2-audio_0_0;
#X obj 759 273 t f f;
#X obj 47 514 *~ 1;
#X text 826 174 CURVA EXPONENCIAL;
#X obj 705 174 expr pow($f1 \, 0.5);
#X msg 888 72 set -1;
#X msg 889 327 clear;
#X floatatom 404 205 5 0 0 0 - - -;
#X obj 888 91 t a a a a;
#X obj 678 222 change -1;
#X obj 705 155 change -1;
#X obj 732 107 change -1;
#X text 925 396 AGUARDA ATÉ ATUALIZAR PONTO DE LEITURA, f 11;
#X text 489 175 ACELERA FASE PARA ATUALIZAR PONTO DE LEITURA, f 18
;
#X text 886 49 REINICIA [change];
#X obj 855 308 t f f b b;
#X msg 443 204 0;
#X obj 759 292 sel 0;
#X obj 419 148 t b f b;
#X obj 256 167 sig~;
#X msg 443 175 44100;
#X text 123 208 AGUARDA ATUALIZAÇÃO;
#X text 515 129 CALCULA FASE DO GRÃO;
#X obj 74 208 pipe 3;
#X obj 872 396 pipe 3;
#X connect 0 0 79 0;
#X connect 1 0 0 1;
#X connect 2 0 4 0;
#X connect 3 0 11 0;
#X connect 4 0 91 0;
#X connect 5 0 4 1;
#X connect 6 0 7 0;
#X connect 7 0 2 0;
#X connect 8 0 9 0;
#X connect 9 0 10 0;
#X connect 10 0 3 1;
#X connect 11 0 94 0;
#X connect 12 0 52 0;
#X connect 13 0 99 0;
#X connect 14 0 15 0;
#X connect 14 0 21 0;
#X connect 15 0 16 0;
#X connect 16 0 22 0;
#X connect 17 0 55 0;
#X connect 17 1 41 0;
#X connect 18 0 12 0;
#X connect 20 0 19 0;
#X connect 23 0 6 1;
#X connect 24 0 7 1;
#X connect 25 0 5 1;
#X connect 26 0 8 0;
#X connect 27 0 29 0;
#X connect 28 0 11 1;
#X connect 29 0 92 0;
#X connect 30 0 29 1;
#X connect 31 0 32 0;
#X connect 32 0 27 0;
#X connect 33 0 34 0;
#X connect 34 0 35 0;
#X connect 35 0 28 1;
#X connect 36 0 31 1;
#X connect 37 0 32 1;
#X connect 38 0 33 0;
#X connect 39 0 30 1;
#X connect 40 0 42 0;
#X connect 41 0 115 0;
#X connect 42 0 17 0;
#X connect 43 0 44 0;
#X connect 44 0 111 0;
#X connect 45 0 54 0;
#X connect 48 0 45 0;
#X connect 49 0 43 0;
#X connect 50 0 51 1;
#X connect 51 0 13 0;
#X connect 52 0 53 0;
#X connect 52 1 50 0;
#X connect 53 0 51 0;
#X connect 54 0 1 0;
#X connect 55 0 6 0;
#X connect 55 0 31 0;
#X connect 59 0 60 0;
#X connect 60 0 41 1;
#X connect 63 0 110 0;
#X connect 64 0 5 0;
#X connect 65 0 30 0;
#X connect 66 0 92 0;
#X connect 66 0 91 0;
#X connect 68 0 86 0;
#X connect 71 0 93 0;
#X connect 72 0 101 0;
#X connect 72 1 102 0;
#X connect 72 2 103 0;
#X connect 72 3 71 0;
#X connect 73 0 40 0;
#X connect 74 0 76 0;
#X connect 76 0 42 1;
#X connect 76 1 44 1;
#X connect 78 0 67 0;
#X connect 79 0 81 0;
#X connect 81 0 78 0;
#X connect 82 0 83 0;
#X connect 82 1 107 0;
#X connect 83 0 85 0;
#X connect 83 1 84 0;
#X connect 84 0 81 1;
#X connect 85 0 80 0;
#X connect 86 0 87 0;
#X connect 87 0 72 0;
#X connect 91 0 3 0;
#X connect 92 0 28 0;
#X connect 93 0 109 0;
#X connect 93 1 82 0;
#X connect 94 0 0 0;
#X connect 96 0 47 0;
#X connect 97 0 100 0;
#X connect 98 0 85 0;
#X connect 99 0 14 0;
#X connect 100 0 103 0;
#X connect 100 1 102 0;
#X connect 100 2 101 0;
#X connect 100 3 71 0;
#X connect 101 0 46 0;
#X connect 102 0 96 0;
#X connect 103 0 77 0;
#X connect 107 0 80 0;
#X connect 107 1 116 0;
#X connect 107 2 98 0;
#X connect 107 3 112 0;
#X connect 108 0 14 1;
#X connect 109 0 97 0;
#X connect 110 0 13 0;
#X connect 110 1 13 1;
#X connect 110 2 108 0;
#X connect 111 0 62 0;
#X connect 112 0 99 0;
#X connect 115 0 61 0;
#X connect 116 0 84 0;
