#N canvas 501 176 571 471 10;
#X obj 51 126 cnv 15 165 88 \$0-bg \$0-bg_set empty 20 12 0 14 -1 -66577
0;
#X obj 76 153 bng 15 250 50 0 \$0-click1 \$0-click1_set empty 17 7
0 10 -262144 -1 -1;
#X obj 96 153 bng 15 250 50 0 \$0-click2 \$0-click2_set empty 17 7
0 10 -262144 -1 -1;
#X obj 116 153 bng 15 250 50 0 \$0-click3 \$0-click3_set empty 17 7
0 10 -262144 -1 -1;
#X obj 136 153 bng 15 250 50 0 \$0-click4 \$0-click4_set empty 17 7
0 10 -262144 -1 -1;
#X obj 156 153 bng 15 250 50 0 \$0-click5 \$0-click5_set empty 17 7
0 10 -262144 -1 -1;
#X obj 176 153 bng 15 250 50 0 \$0-click6 \$0-click6_set empty 17 7
0 10 -262144 -1 -1;
#X obj 196 153 bng 15 250 50 0 \$0-click7 \$0-click7_set empty 17 7
0 10 -262144 -1 -1;
#X obj 56 153 bng 15 250 50 0 \$0-click0 \$0-click0_set empty 17 7
0 10 -262144 -1 -1;
#X obj 56 153 cnv 15 15 15 \$0-canvas0 \$0-canvas0_set 0 5 8 0 10 -262144
-66577 0;
#X obj 76 153 cnv 15 15 15 \$0-canvas1 \$0-canvas1_set 1 5 8 0 10 -262144
-66577 0;
#X obj 96 153 cnv 15 15 15 \$0-canvas2 \$0-canvas2_set 2 5 8 0 10 -262144
-66577 0;
#X obj 116 153 cnv 15 15 15 \$0-canvas3 \$0-canvas3_set 3 5 8 0 10
-262144 -66577 0;
#X obj 136 153 cnv 15 15 15 \$0-canvas4 \$0-canvas4_set 4 5 8 0 10
-262144 -66577 0;
#X obj 156 153 cnv 15 15 15 \$0-canvas5 \$0-canvas5_set 5 5 8 0 10
-262144 -66577 0;
#X obj 176 153 cnv 15 15 15 \$0-canvas6 \$0-canvas6_set 6 5 8 0 10
-262144 -66577 0;
#X obj 196 153 cnv 15 15 15 \$0-canvas7 \$0-canvas7_set 7 5 8 0 10
-262144 -66577 0;
#X obj 57 131 cnv 15 110 15 \$0-bg2 \$0-bg2_set empty 20 12 0 14 -191407
-66577 0;
#X symbolatom 57 131 18 0 0 0 - #0-fileName #0-dead, f 18;
#X obj 56 194 bng 15 250 50 0 \$0-load \$0-load_set L 5 8 0 10 -228856
-1 -1;
#X obj 76 194 bng 15 250 50 0 \$0-save \$0-save_set S 5 8 0 10 -228856
-1 -1;
#X obj 106 194 bng 15 250 50 0 \$0-clear \$0-clear_set C 5 8 0 10 -228856
-1 -1;
#X obj 126 194 bng 15 250 50 0 \$0-reset \$0-reset_set R 5 8 0 10 -128992
-1 -262144;
#X obj 176 194 bng 15 250 50 0 \$0-dump \$0-dump_set D 5 8 0 10 -228856
-1 -1;
#X obj 176 131 bng 15 250 50 0 \$0-read \$0-read_set L 5 8 0 10 -191407
-262144 -1;
#X obj 196 131 bng 15 250 50 0 \$0-write \$0-write_set S 5 8 0 10 -191407
-262144 -1;
#X obj 196 194 tgl 15 0 \$0-trim \$0-trim_set T 5 8 0 10 -228856 -1
-1 1 1;
#X obj 156 194 bng 15 250 50 0 \$0-edit \$0-edit_set E 5 8 0 10 -228856
-1 -1;
#X obj 51 325 r \$0-out;
#X obj 51 344 t a a;
#X obj 51 363 spigot 1;
#X obj 111 363 spigot 0;
#X obj 156 326 r \$0-trim;
#X obj 96 344 == 0;
#X obj 111 382 list trim;
#X obj 51 400 t a;
#N canvas 587 423 280 276 RESET 0;
#X obj 74 196 text set \$0-listBox;
#X obj 74 139 until;
#X obj 74 158 t b b;
#X obj 101 177 f;
#X obj 124 177 + 1;
#X msg 116 158 0;
#X obj 55 82 r \$0-reset;
#X obj 55 215 s \$0-setColor;
#X text 59 14 ** (RE)INICIALIZA [text];
#X obj 55 101 t b b b b;
#X obj 156 138 s \$0-fileName;
#X msg 156 119 set .;
#X obj 55 63 r \$0-lb;
#X msg 74 120 16;
#X connect 1 0 2 0;
#X connect 2 0 0 0;
#X connect 2 1 3 0;
#X connect 3 0 4 0;
#X connect 3 0 0 1;
#X connect 4 0 3 1;
#X connect 5 0 3 1;
#X connect 6 0 9 0;
#X connect 9 0 7 0;
#X connect 9 1 13 0;
#X connect 9 2 5 0;
#X connect 9 3 11 0;
#X connect 11 0 10 0;
#X connect 12 0 9 0;
#X connect 13 0 1 0;
#X restore 226 287 pd RESET;
#N canvas 386 333 349 306 DUMP 0;
#X obj 49 113 until;
#X obj 49 151 f;
#X obj 72 151 + 1;
#X msg 64 132 0;
#X obj 49 75 t b b;
#X obj 49 56 r \$0-dump;
#X obj 49 189 text get \$0-listBox;
#X obj 49 208 route bang;
#X obj 106 264 s \$0-out;
#X obj 169 264 s \$0-slotOut;
#X obj 49 170 t f f;
#X obj 169 245 f;
#X obj 106 227 t a b;
#X text 37 14 ** ENVIA TODO CONTEÚDO DO [text] PARA SAÍDA;
#X text 198 231 PRIMEIRO ENVIA SLOT RESPECTIVO, f 15;
#X msg 49 94 16;
#X connect 0 0 1 0;
#X connect 1 0 2 0;
#X connect 1 0 10 0;
#X connect 2 0 1 1;
#X connect 3 0 1 1;
#X connect 4 0 15 0;
#X connect 4 1 3 0;
#X connect 5 0 4 0;
#X connect 6 0 7 0;
#X connect 7 1 12 0;
#X connect 10 0 6 0;
#X connect 10 1 11 1;
#X connect 11 0 9 0;
#X connect 12 0 8 0;
#X connect 12 1 11 0;
#X connect 15 0 0 0;
#X restore 329 230 pd DUMP;
#X obj 341 400 r \$0-slotOut;
#X obj 51 419 outlet LIST;
#X obj 341 419 outlet SLOT;
#X obj 248 25 inlet SLOT;
#X obj 237 126 tgl 15 0 \$0-autoWrite \$0-autoWrite_set empty 17 7
0 10 -262144 -1 -1 1 1;
#X obj 237 146 tgl 15 0 \$0-autoRead \$0-autoRead_set empty 17 7 0
10 -262144 -1 -1 0 1;
#N canvas 106 240 430 547 COLORS 0;
#X obj 50 50 r \$0-setColor;
#X obj 50 107 until;
#X obj 50 145 f;
#X obj 73 145 + 1;
#X msg 65 126 0;
#X obj 50 69 t b b;
#X obj 50 193 text get \$0-listBox;
#X obj 50 212 route bang;
#X msg 120 378 \; \$1-canvas\$2_set color \$3;
#X obj 120 359 pack \$0 f -9.88184e+06;
#X text 262 359 RGB 150 200 240;
#X text 61 14 ** GERENCIA CORES DOS SLOTS - ATIVO \, VAZIO \, CHEIO
;
#X obj 179 193 array get \$0-activeSlot 0 1;
#X obj 120 249 f;
#X obj 120 230 bang;
#X obj 120 268 sel 0 1;
#X msg 139 327 \; \$1-canvas\$2_set color \$3;
#X obj 179 212 t f f;
#X obj 50 249 f;
#X obj 50 268 sel 0 1;
#X msg 50 481 \; \$1-canvas\$2_set color \$3;
#X obj 50 462 pack \$0 f 0;
#X msg 121 449 \; \$1-canvas\$2_set color \$3;
#X obj 50 164 t f f f f f f;
#X obj 121 430 pack \$0 f 1;
#X obj 139 308 pack \$0 f -3.96047e+06;
#X text 281 309 RGB 60 110 150;
#X msg 50 88 16;
#X connect 0 0 5 0;
#X connect 1 0 2 0;
#X connect 2 0 3 0;
#X connect 2 0 23 0;
#X connect 3 0 2 1;
#X connect 4 0 2 1;
#X connect 5 0 27 0;
#X connect 5 1 4 0;
#X connect 6 0 7 0;
#X connect 7 0 18 0;
#X connect 7 1 14 0;
#X connect 9 0 8 0;
#X connect 12 0 17 0;
#X connect 13 0 15 0;
#X connect 14 0 13 0;
#X connect 15 0 9 0;
#X connect 15 1 25 0;
#X connect 17 0 18 1;
#X connect 17 1 13 1;
#X connect 18 0 19 0;
#X connect 19 0 21 0;
#X connect 19 1 24 0;
#X connect 21 0 20 0;
#X connect 23 0 6 0;
#X connect 23 1 21 1;
#X connect 23 2 24 1;
#X connect 23 3 9 1;
#X connect 23 4 25 1;
#X connect 23 5 12 0;
#X connect 24 0 22 0;
#X connect 25 0 16 0;
#X connect 27 0 1 0;
#X restore 51 268 pd COLORS;
#N canvas 364 502 309 246 SLOT_SAVE 0;
#X obj 130 157 text set \$0-listBox;
#X obj 167 138 r \$0-slot;
#X obj 91 62 r \$0-list;
#X obj 91 119 list;
#X obj 91 100 spigot;
#X obj 136 82 r \$0-autoWrite;
#X obj 22 101 r \$0-save;
#X text 31 14 ** GERENCIA ESCRITA DE SLOTS NO [text];
#X obj 110 176 s \$0-setColor;
#X obj 91 81 t b a;
#X obj 91 138 t b b l;
#X obj 91 195 s \$0-next;
#X obj 136 101 r \$0-reset;
#X connect 1 0 0 1;
#X connect 2 0 9 0;
#X connect 3 0 10 0;
#X connect 4 0 3 0;
#X connect 5 0 4 1;
#X connect 6 0 3 0;
#X connect 9 0 4 0;
#X connect 9 1 3 1;
#X connect 10 0 11 0;
#X connect 10 1 8 0;
#X connect 10 2 0 0;
#X connect 12 0 3 1;
#X restore 226 230 pd SLOT_SAVE;
#N canvas 322 426 296 220 SLOT_LOAD 0;
#X obj 98 131 text get \$0-listBox;
#X obj 98 93 spigot;
#X obj 39 93 r \$0-load;
#X obj 98 55 r \$0-slot;
#X obj 98 74 t b f;
#X obj 98 112 f;
#X obj 143 74 r \$0-autoRead;
#X obj 155 169 s \$0-out;
#X obj 98 150 route bang;
#X text 31 14 ** GERENCIA LEITURA DE SLOTS DO [text];
#X connect 0 0 8 0;
#X connect 1 0 5 0;
#X connect 2 0 5 0;
#X connect 3 0 4 0;
#X connect 4 0 1 0;
#X connect 4 1 5 1;
#X connect 5 0 0 0;
#X connect 6 0 1 1;
#X connect 8 1 7 0;
#X restore 226 249 pd SLOT_LOAD;
#X obj 341 381 r \$0-slot;
#N canvas 354 460 285 162 SLOT_CLEAR 0;
#X obj 100 95 text set \$0-listBox;
#X obj 137 76 r \$0-slot;
#X text 46 14 ** APAGA SLOT ATIVO NO [text];
#X obj 73 57 r \$0-clear;
#X obj 73 114 s \$0-setColor;
#X obj 73 76 t b b;
#X connect 1 0 0 1;
#X connect 3 0 5 0;
#X connect 5 0 4 0;
#X connect 5 1 0 0;
#X restore 226 268 pd SLOT_CLEAR;
#X obj 176 419 send;
#X text 209 420 SAÍDA REMOTA;
#X obj 237 166 tgl 15 0 \$0-autoNext \$0-autoNext_set empty 17 7 0
10 -262144 -1 -1 1 1;
#N canvas 70 63 1203 742 SLOT_CLICK_SET_NEXT 0;
#X obj 50 79 r \$0-click0;
#X msg 145 135 const 0;
#X obj 145 154 s \$0-activeSlot;
#X obj 70 192 array set \$0-activeSlot;
#X obj 100 135 f 0;
#X msg 70 135 1;
#X obj 50 211 s \$0-setColor;
#X obj 100 154 t f f;
#X obj 127 173 s \$0-slot;
#X obj 870 79 r \$0-slotSet;
#X obj 870 117 pack f \$0;
#X msg 870 136 \; \$2-click\$1_set bang;
#X text 868 56 DEFINIÇÃO EXTERNA;
#X obj 870 219 r \$0-next;
#X obj 903 238 r \$0-autoNext;
#X obj 870 257 spigot;
#X obj 885 276 r \$0-slot;
#X obj 870 295 f;
#X obj 870 314 + 1;
#X obj 870 371 text get \$0-listBox;
#X obj 870 390 route bang;
#X obj 870 468 s \$0-slotSet;
#X text 896 315 LÊ PRÓXIMO SLOT PARA VER SE TEM CONTEÚDO;
#X obj 870 449 f;
#X text 896 450 SE ESTIVER VAZIO VIRA NOVO SLOT ATIVO;
#X obj 927 409 bang;
#X obj 870 352 t f f f;
#X obj 927 428 f;
#X text 954 429 SE TIVER CONTEÚDO VAI PRO PRÓXIMO;
#X text 48 56 CLIQUES NA INTERFACE;
#X text 381 14 ** GERENCIA CLIQUES \, DEFINIÇÃO EXTERNA E AUTO-AVANÇO
DO SLOT ATIVO, f 66;
#X text 868 196 AUTO-AVANÇO;
#X obj 870 333 moses 16;
#X obj 870 98 clip 0 15;
#X obj 50 20 array define \$0-activeSlot 16;
#N canvas 2 109 273 229 2_CLICK 0;
#X obj 103 71 inlet;
#X obj 103 100 t b b;
#X obj 103 119 timer;
#X obj 103 157 sel 1;
#X obj 103 138 < 200;
#X obj 103 176 s \$0-load;
#X text 36 16 ** LÊ SLOT ATUAL QUANDO RECEBE DUPLO CLIQUE (< 200ms)
, f 30;
#X connect 0 0 1 0;
#X connect 1 0 2 0;
#X connect 1 1 2 1;
#X connect 2 0 4 0;
#X connect 3 0 5 0;
#X connect 4 0 3 0;
#X restore 145 116 pd 2_CLICK;
#X obj 50 98 t b b b b b;
#X msg 345 135 const 0;
#X obj 345 154 s \$0-activeSlot;
#X obj 270 192 array set \$0-activeSlot;
#X msg 270 135 1;
#X obj 250 211 s \$0-setColor;
#X obj 300 154 t f f;
#X obj 327 173 s \$0-slot;
#N canvas 2 109 273 229 2_CLICK 0;
#X obj 103 71 inlet;
#X obj 103 100 t b b;
#X obj 103 119 timer;
#X obj 103 157 sel 1;
#X obj 103 138 < 200;
#X obj 103 176 s \$0-load;
#X text 36 16 ** LÊ SLOT ATUAL QUANDO RECEBE DUPLO CLIQUE (< 200ms)
, f 30;
#X connect 0 0 1 0;
#X connect 1 0 2 0;
#X connect 1 1 2 1;
#X connect 2 0 4 0;
#X connect 3 0 5 0;
#X connect 4 0 3 0;
#X restore 345 116 pd 2_CLICK;
#X obj 250 98 t b b b b b;
#X msg 545 135 const 0;
#X obj 545 154 s \$0-activeSlot;
#X obj 470 192 array set \$0-activeSlot;
#X msg 470 135 1;
#X obj 450 211 s \$0-setColor;
#X obj 500 154 t f f;
#X obj 527 173 s \$0-slot;
#N canvas 2 109 273 229 2_CLICK 0;
#X obj 103 71 inlet;
#X obj 103 100 t b b;
#X obj 103 119 timer;
#X obj 103 157 sel 1;
#X obj 103 138 < 200;
#X obj 103 176 s \$0-load;
#X text 36 16 ** LÊ SLOT ATUAL QUANDO RECEBE DUPLO CLIQUE (< 200ms)
, f 30;
#X connect 0 0 1 0;
#X connect 1 0 2 0;
#X connect 1 1 2 1;
#X connect 2 0 4 0;
#X connect 3 0 5 0;
#X connect 4 0 3 0;
#X restore 545 116 pd 2_CLICK;
#X obj 450 98 t b b b b b;
#X msg 745 135 const 0;
#X obj 745 154 s \$0-activeSlot;
#X obj 670 192 array set \$0-activeSlot;
#X msg 670 135 1;
#X obj 650 211 s \$0-setColor;
#X obj 700 154 t f f;
#X obj 727 173 s \$0-slot;
#N canvas 2 109 273 229 2_CLICK 0;
#X obj 103 71 inlet;
#X obj 103 100 t b b;
#X obj 103 119 timer;
#X obj 103 157 sel 1;
#X obj 103 138 < 200;
#X obj 103 176 s \$0-load;
#X text 36 16 ** LÊ SLOT ATUAL QUANDO RECEBE DUPLO CLIQUE (< 200ms)
, f 30;
#X connect 0 0 1 0;
#X connect 1 0 2 0;
#X connect 1 1 2 1;
#X connect 2 0 4 0;
#X connect 3 0 5 0;
#X connect 4 0 3 0;
#X restore 745 116 pd 2_CLICK;
#X obj 650 98 t b b b b b;
#X obj 250 79 r \$0-click1;
#X obj 450 79 r \$0-click2;
#X obj 650 79 r \$0-click3;
#X obj 300 135 f 1;
#X obj 500 135 f 2;
#X obj 700 135 f 3;
#X msg 145 295 const 0;
#X obj 145 314 s \$0-activeSlot;
#X obj 70 352 array set \$0-activeSlot;
#X msg 70 295 1;
#X obj 50 371 s \$0-setColor;
#X obj 100 314 t f f;
#X obj 127 333 s \$0-slot;
#N canvas 2 109 273 229 2_CLICK 0;
#X obj 103 71 inlet;
#X obj 103 100 t b b;
#X obj 103 119 timer;
#X obj 103 157 sel 1;
#X obj 103 138 < 200;
#X obj 103 176 s \$0-load;
#X text 36 16 ** LÊ SLOT ATUAL QUANDO RECEBE DUPLO CLIQUE (< 200ms)
, f 30;
#X connect 0 0 1 0;
#X connect 1 0 2 0;
#X connect 1 1 2 1;
#X connect 2 0 4 0;
#X connect 3 0 5 0;
#X connect 4 0 3 0;
#X restore 145 276 pd 2_CLICK;
#X obj 50 258 t b b b b b;
#X msg 345 295 const 0;
#X obj 345 314 s \$0-activeSlot;
#X obj 270 352 array set \$0-activeSlot;
#X msg 270 295 1;
#X obj 250 371 s \$0-setColor;
#X obj 300 314 t f f;
#X obj 327 333 s \$0-slot;
#N canvas 2 109 273 229 2_CLICK 0;
#X obj 103 71 inlet;
#X obj 103 100 t b b;
#X obj 103 119 timer;
#X obj 103 157 sel 1;
#X obj 103 138 < 200;
#X obj 103 176 s \$0-load;
#X text 36 16 ** LÊ SLOT ATUAL QUANDO RECEBE DUPLO CLIQUE (< 200ms)
, f 30;
#X connect 0 0 1 0;
#X connect 1 0 2 0;
#X connect 1 1 2 1;
#X connect 2 0 4 0;
#X connect 3 0 5 0;
#X connect 4 0 3 0;
#X restore 345 276 pd 2_CLICK;
#X obj 250 258 t b b b b b;
#X msg 545 295 const 0;
#X obj 545 314 s \$0-activeSlot;
#X obj 470 352 array set \$0-activeSlot;
#X msg 470 295 1;
#X obj 450 371 s \$0-setColor;
#X obj 500 314 t f f;
#X obj 527 333 s \$0-slot;
#N canvas 2 109 273 229 2_CLICK 0;
#X obj 103 71 inlet;
#X obj 103 100 t b b;
#X obj 103 119 timer;
#X obj 103 157 sel 1;
#X obj 103 138 < 200;
#X obj 103 176 s \$0-load;
#X text 36 16 ** LÊ SLOT ATUAL QUANDO RECEBE DUPLO CLIQUE (< 200ms)
, f 30;
#X connect 0 0 1 0;
#X connect 1 0 2 0;
#X connect 1 1 2 1;
#X connect 2 0 4 0;
#X connect 3 0 5 0;
#X connect 4 0 3 0;
#X restore 545 276 pd 2_CLICK;
#X obj 450 258 t b b b b b;
#X msg 745 295 const 0;
#X obj 745 314 s \$0-activeSlot;
#X obj 670 352 array set \$0-activeSlot;
#X msg 670 295 1;
#X obj 650 371 s \$0-setColor;
#X obj 700 314 t f f;
#X obj 727 333 s \$0-slot;
#N canvas 2 109 273 229 2_CLICK 0;
#X obj 103 71 inlet;
#X obj 103 100 t b b;
#X obj 103 119 timer;
#X obj 103 157 sel 1;
#X obj 103 138 < 200;
#X obj 103 176 s \$0-load;
#X text 36 16 ** LÊ SLOT ATUAL QUANDO RECEBE DUPLO CLIQUE (< 200ms)
, f 30;
#X connect 0 0 1 0;
#X connect 1 0 2 0;
#X connect 1 1 2 1;
#X connect 2 0 4 0;
#X connect 3 0 5 0;
#X connect 4 0 3 0;
#X restore 745 276 pd 2_CLICK;
#X obj 650 258 t b b b b b;
#X msg 145 455 const 0;
#X obj 145 474 s \$0-activeSlot;
#X obj 70 512 array set \$0-activeSlot;
#X msg 70 455 1;
#X obj 50 531 s \$0-setColor;
#X obj 100 474 t f f;
#X obj 127 493 s \$0-slot;
#N canvas 2 109 273 229 2_CLICK 0;
#X obj 103 71 inlet;
#X obj 103 100 t b b;
#X obj 103 119 timer;
#X obj 103 157 sel 1;
#X obj 103 138 < 200;
#X obj 103 176 s \$0-load;
#X text 36 16 ** LÊ SLOT ATUAL QUANDO RECEBE DUPLO CLIQUE (< 200ms)
, f 30;
#X connect 0 0 1 0;
#X connect 1 0 2 0;
#X connect 1 1 2 1;
#X connect 2 0 4 0;
#X connect 3 0 5 0;
#X connect 4 0 3 0;
#X restore 145 436 pd 2_CLICK;
#X obj 50 418 t b b b b b;
#X msg 345 455 const 0;
#X obj 345 474 s \$0-activeSlot;
#X obj 270 512 array set \$0-activeSlot;
#X msg 270 455 1;
#X obj 250 531 s \$0-setColor;
#X obj 300 474 t f f;
#X obj 327 493 s \$0-slot;
#N canvas 2 109 273 229 2_CLICK 0;
#X obj 103 71 inlet;
#X obj 103 100 t b b;
#X obj 103 119 timer;
#X obj 103 157 sel 1;
#X obj 103 138 < 200;
#X obj 103 176 s \$0-load;
#X text 36 16 ** LÊ SLOT ATUAL QUANDO RECEBE DUPLO CLIQUE (< 200ms)
, f 30;
#X connect 0 0 1 0;
#X connect 1 0 2 0;
#X connect 1 1 2 1;
#X connect 2 0 4 0;
#X connect 3 0 5 0;
#X connect 4 0 3 0;
#X restore 345 436 pd 2_CLICK;
#X obj 250 418 t b b b b b;
#X msg 545 455 const 0;
#X obj 545 474 s \$0-activeSlot;
#X obj 470 512 array set \$0-activeSlot;
#X msg 470 455 1;
#X obj 450 531 s \$0-setColor;
#X obj 500 474 t f f;
#X obj 527 493 s \$0-slot;
#N canvas 2 109 273 229 2_CLICK 0;
#X obj 103 71 inlet;
#X obj 103 100 t b b;
#X obj 103 119 timer;
#X obj 103 157 sel 1;
#X obj 103 138 < 200;
#X obj 103 176 s \$0-load;
#X text 36 16 ** LÊ SLOT ATUAL QUANDO RECEBE DUPLO CLIQUE (< 200ms)
, f 30;
#X connect 0 0 1 0;
#X connect 1 0 2 0;
#X connect 1 1 2 1;
#X connect 2 0 4 0;
#X connect 3 0 5 0;
#X connect 4 0 3 0;
#X restore 545 436 pd 2_CLICK;
#X obj 450 418 t b b b b b;
#X msg 745 455 const 0;
#X obj 745 474 s \$0-activeSlot;
#X obj 670 512 array set \$0-activeSlot;
#X msg 670 455 1;
#X obj 650 531 s \$0-setColor;
#X obj 700 474 t f f;
#X obj 727 493 s \$0-slot;
#N canvas 2 109 273 229 2_CLICK 0;
#X obj 103 71 inlet;
#X obj 103 100 t b b;
#X obj 103 119 timer;
#X obj 103 157 sel 1;
#X obj 103 138 < 200;
#X obj 103 176 s \$0-load;
#X text 36 16 ** LÊ SLOT ATUAL QUANDO RECEBE DUPLO CLIQUE (< 200ms)
, f 30;
#X connect 0 0 1 0;
#X connect 1 0 2 0;
#X connect 1 1 2 1;
#X connect 2 0 4 0;
#X connect 3 0 5 0;
#X connect 4 0 3 0;
#X restore 745 436 pd 2_CLICK;
#X obj 650 418 t b b b b b;
#X msg 145 615 const 0;
#X obj 145 634 s \$0-activeSlot;
#X obj 70 672 array set \$0-activeSlot;
#X msg 70 615 1;
#X obj 50 691 s \$0-setColor;
#X obj 100 634 t f f;
#X obj 127 653 s \$0-slot;
#N canvas 2 109 273 229 2_CLICK 0;
#X obj 103 71 inlet;
#X obj 103 100 t b b;
#X obj 103 119 timer;
#X obj 103 157 sel 1;
#X obj 103 138 < 200;
#X obj 103 176 s \$0-load;
#X text 36 16 ** LÊ SLOT ATUAL QUANDO RECEBE DUPLO CLIQUE (< 200ms)
, f 30;
#X connect 0 0 1 0;
#X connect 1 0 2 0;
#X connect 1 1 2 1;
#X connect 2 0 4 0;
#X connect 3 0 5 0;
#X connect 4 0 3 0;
#X restore 145 596 pd 2_CLICK;
#X obj 50 578 t b b b b b;
#X msg 345 615 const 0;
#X obj 345 634 s \$0-activeSlot;
#X obj 270 672 array set \$0-activeSlot;
#X msg 270 615 1;
#X obj 250 691 s \$0-setColor;
#X obj 300 634 t f f;
#X obj 327 653 s \$0-slot;
#N canvas 2 109 273 229 2_CLICK 0;
#X obj 103 71 inlet;
#X obj 103 100 t b b;
#X obj 103 119 timer;
#X obj 103 157 sel 1;
#X obj 103 138 < 200;
#X obj 103 176 s \$0-load;
#X text 36 16 ** LÊ SLOT ATUAL QUANDO RECEBE DUPLO CLIQUE (< 200ms)
, f 30;
#X connect 0 0 1 0;
#X connect 1 0 2 0;
#X connect 1 1 2 1;
#X connect 2 0 4 0;
#X connect 3 0 5 0;
#X connect 4 0 3 0;
#X restore 345 596 pd 2_CLICK;
#X obj 250 578 t b b b b b;
#X msg 545 615 const 0;
#X obj 545 634 s \$0-activeSlot;
#X obj 470 672 array set \$0-activeSlot;
#X msg 470 615 1;
#X obj 450 691 s \$0-setColor;
#X obj 500 634 t f f;
#X obj 527 653 s \$0-slot;
#N canvas 2 109 273 229 2_CLICK 0;
#X obj 103 71 inlet;
#X obj 103 100 t b b;
#X obj 103 119 timer;
#X obj 103 157 sel 1;
#X obj 103 138 < 200;
#X obj 103 176 s \$0-load;
#X text 36 16 ** LÊ SLOT ATUAL QUANDO RECEBE DUPLO CLIQUE (< 200ms)
, f 30;
#X connect 0 0 1 0;
#X connect 1 0 2 0;
#X connect 1 1 2 1;
#X connect 2 0 4 0;
#X connect 3 0 5 0;
#X connect 4 0 3 0;
#X restore 545 596 pd 2_CLICK;
#X obj 450 578 t b b b b b;
#X msg 745 615 const 0;
#X obj 745 634 s \$0-activeSlot;
#X obj 670 672 array set \$0-activeSlot;
#X msg 670 615 1;
#X obj 650 691 s \$0-setColor;
#X obj 700 634 t f f;
#X obj 727 653 s \$0-slot;
#N canvas 2 109 273 229 2_CLICK 0;
#X obj 103 71 inlet;
#X obj 103 100 t b b;
#X obj 103 119 timer;
#X obj 103 157 sel 1;
#X obj 103 138 < 200;
#X obj 103 176 s \$0-load;
#X text 36 16 ** LÊ SLOT ATUAL QUANDO RECEBE DUPLO CLIQUE (< 200ms)
, f 30;
#X connect 0 0 1 0;
#X connect 1 0 2 0;
#X connect 1 1 2 1;
#X connect 2 0 4 0;
#X connect 3 0 5 0;
#X connect 4 0 3 0;
#X restore 745 596 pd 2_CLICK;
#X obj 650 578 t b b b b b;
#X obj 50 239 r \$0-click4;
#X obj 250 239 r \$0-click5;
#X obj 450 239 r \$0-click6;
#X obj 650 239 r \$0-click7;
#X obj 50 399 r \$0-click8;
#X obj 250 399 r \$0-click9;
#X obj 450 399 r \$0-click10;
#X obj 650 399 r \$0-click11;
#X obj 50 559 r \$0-click12;
#X obj 250 559 r \$0-click13;
#X obj 450 559 r \$0-click14;
#X obj 650 559 r \$0-click15;
#X obj 100 295 f 4;
#X obj 300 295 f 5;
#X obj 500 295 f 6;
#X obj 700 295 f 7;
#X obj 100 455 f 8;
#X obj 300 455 f 9;
#X obj 500 455 f 10;
#X obj 700 455 f 11;
#X obj 100 615 f 12;
#X obj 300 615 f 13;
#X obj 500 615 f 14;
#X obj 700 615 f 15;
#X connect 0 0 36 0;
#X connect 1 0 2 0;
#X connect 4 0 7 0;
#X connect 5 0 3 0;
#X connect 7 0 3 1;
#X connect 7 1 8 0;
#X connect 9 0 33 0;
#X connect 10 0 11 0;
#X connect 13 0 15 0;
#X connect 14 0 15 1;
#X connect 15 0 17 0;
#X connect 16 0 17 1;
#X connect 17 0 18 0;
#X connect 18 0 32 0;
#X connect 19 0 20 0;
#X connect 20 0 23 0;
#X connect 20 1 25 0;
#X connect 23 0 21 0;
#X connect 25 0 27 0;
#X connect 26 0 19 0;
#X connect 26 1 23 1;
#X connect 26 2 27 1;
#X connect 27 0 18 0;
#X connect 32 0 26 0;
#X connect 33 0 10 0;
#X connect 36 0 6 0;
#X connect 36 1 5 0;
#X connect 36 2 4 0;
#X connect 36 3 1 0;
#X connect 36 4 35 0;
#X connect 37 0 38 0;
#X connect 40 0 39 0;
#X connect 42 0 39 1;
#X connect 42 1 43 0;
#X connect 45 0 41 0;
#X connect 45 1 40 0;
#X connect 45 2 67 0;
#X connect 45 3 37 0;
#X connect 45 4 44 0;
#X connect 46 0 47 0;
#X connect 49 0 48 0;
#X connect 51 0 48 1;
#X connect 51 1 52 0;
#X connect 54 0 50 0;
#X connect 54 1 49 0;
#X connect 54 2 68 0;
#X connect 54 3 46 0;
#X connect 54 4 53 0;
#X connect 55 0 56 0;
#X connect 58 0 57 0;
#X connect 60 0 57 1;
#X connect 60 1 61 0;
#X connect 63 0 59 0;
#X connect 63 1 58 0;
#X connect 63 2 69 0;
#X connect 63 3 55 0;
#X connect 63 4 62 0;
#X connect 64 0 45 0;
#X connect 65 0 54 0;
#X connect 66 0 63 0;
#X connect 67 0 42 0;
#X connect 68 0 51 0;
#X connect 69 0 60 0;
#X connect 70 0 71 0;
#X connect 73 0 72 0;
#X connect 75 0 72 1;
#X connect 75 1 76 0;
#X connect 78 0 74 0;
#X connect 78 1 73 0;
#X connect 78 2 190 0;
#X connect 78 3 70 0;
#X connect 78 4 77 0;
#X connect 79 0 80 0;
#X connect 82 0 81 0;
#X connect 84 0 81 1;
#X connect 84 1 85 0;
#X connect 87 0 83 0;
#X connect 87 1 82 0;
#X connect 87 2 191 0;
#X connect 87 3 79 0;
#X connect 87 4 86 0;
#X connect 88 0 89 0;
#X connect 91 0 90 0;
#X connect 93 0 90 1;
#X connect 93 1 94 0;
#X connect 96 0 92 0;
#X connect 96 1 91 0;
#X connect 96 2 192 0;
#X connect 96 3 88 0;
#X connect 96 4 95 0;
#X connect 97 0 98 0;
#X connect 100 0 99 0;
#X connect 102 0 99 1;
#X connect 102 1 103 0;
#X connect 105 0 101 0;
#X connect 105 1 100 0;
#X connect 105 2 193 0;
#X connect 105 3 97 0;
#X connect 105 4 104 0;
#X connect 106 0 107 0;
#X connect 109 0 108 0;
#X connect 111 0 108 1;
#X connect 111 1 112 0;
#X connect 114 0 110 0;
#X connect 114 1 109 0;
#X connect 114 2 194 0;
#X connect 114 3 106 0;
#X connect 114 4 113 0;
#X connect 115 0 116 0;
#X connect 118 0 117 0;
#X connect 120 0 117 1;
#X connect 120 1 121 0;
#X connect 123 0 119 0;
#X connect 123 1 118 0;
#X connect 123 2 195 0;
#X connect 123 3 115 0;
#X connect 123 4 122 0;
#X connect 124 0 125 0;
#X connect 127 0 126 0;
#X connect 129 0 126 1;
#X connect 129 1 130 0;
#X connect 132 0 128 0;
#X connect 132 1 127 0;
#X connect 132 2 196 0;
#X connect 132 3 124 0;
#X connect 132 4 131 0;
#X connect 133 0 134 0;
#X connect 136 0 135 0;
#X connect 138 0 135 1;
#X connect 138 1 139 0;
#X connect 141 0 137 0;
#X connect 141 1 136 0;
#X connect 141 2 197 0;
#X connect 141 3 133 0;
#X connect 141 4 140 0;
#X connect 142 0 143 0;
#X connect 145 0 144 0;
#X connect 147 0 144 1;
#X connect 147 1 148 0;
#X connect 150 0 146 0;
#X connect 150 1 145 0;
#X connect 150 2 198 0;
#X connect 150 3 142 0;
#X connect 150 4 149 0;
#X connect 151 0 152 0;
#X connect 154 0 153 0;
#X connect 156 0 153 1;
#X connect 156 1 157 0;
#X connect 159 0 155 0;
#X connect 159 1 154 0;
#X connect 159 2 199 0;
#X connect 159 3 151 0;
#X connect 159 4 158 0;
#X connect 160 0 161 0;
#X connect 163 0 162 0;
#X connect 165 0 162 1;
#X connect 165 1 166 0;
#X connect 168 0 164 0;
#X connect 168 1 163 0;
#X connect 168 2 200 0;
#X connect 168 3 160 0;
#X connect 168 4 167 0;
#X connect 169 0 170 0;
#X connect 172 0 171 0;
#X connect 174 0 171 1;
#X connect 174 1 175 0;
#X connect 177 0 173 0;
#X connect 177 1 172 0;
#X connect 177 2 201 0;
#X connect 177 3 169 0;
#X connect 177 4 176 0;
#X connect 178 0 78 0;
#X connect 179 0 87 0;
#X connect 180 0 96 0;
#X connect 181 0 105 0;
#X connect 182 0 114 0;
#X connect 183 0 123 0;
#X connect 184 0 132 0;
#X connect 185 0 141 0;
#X connect 186 0 150 0;
#X connect 187 0 159 0;
#X connect 188 0 168 0;
#X connect 189 0 177 0;
#X connect 190 0 75 0;
#X connect 191 0 84 0;
#X connect 192 0 93 0;
#X connect 193 0 102 0;
#X connect 194 0 111 0;
#X connect 195 0 120 0;
#X connect 196 0 129 0;
#X connect 197 0 138 0;
#X connect 198 0 147 0;
#X connect 199 0 156 0;
#X connect 200 0 165 0;
#X connect 201 0 174 0;
#X restore 51 249 pd SLOT_CLICK_SET_NEXT;
#N canvas 425 158 677 453 DEFINE_EDIT_READ_WRITE 0;
#X obj 40 166 text define \$0-listBox;
#X msg 40 77 click;
#X text 80 77 EDITAR;
#X obj 169 185 bang;
#X obj 169 204 s \$0-setColor;
#X obj 40 58 r \$0-edit;
#X obj 331 77 savepanel;
#X msg 331 115 write \$1;
#X obj 331 58 r \$0-write;
#X obj 396 58 r \$0-writeFile;
#X obj 169 77 openpanel;
#X msg 203 115 read \$1;
#X obj 169 58 r \$0-read;
#X obj 228 58 r \$0-readFile;
#X text 126 14 ** DEFINE [text] \, GERENCIA EDIÇÃO MANUAL E ESCRITA/LEITURA
EM ARQUIVO, f 69;
#N canvas 30 53 577 778 FILENAME 0;
#X obj 43 88 list fromsymbol;
#X obj 181 135 list split 1;
#X obj 215 154 list;
#X obj 196 298 f;
#X obj 219 298 + 1;
#X obj 43 363 list split;
#X obj 100 135 list length;
#X obj 100 335 -;
#X obj 43 40 inlet PATH;
#X obj 43 69 symbol;
#X msg 211 279 1;
#X obj 181 183 sel 47;
#X obj 196 260 spigot;
#X msg 256 241 0;
#X msg 229 241 1;
#X obj 181 202 t b b;
#X obj 181 317 f;
#X obj 216 202 t b;
#X obj 43 107 t l l l b b;
#X text 227 182 PROCURA PELO CARACTERE 47 "/";
#X text 247 299 CONTA QUANTOS CARACTERES ATÉ A PRIMEIRA "/";
#X text 263 135 DESEMPACOTA LISTA 1 POR 1;
#X text 128 336 DIMINUI DO TOTAL DE CARACTERES PARA DEFINIR PONTO DE
CORTE DO PATH, f 66;
#X text 112 364 SEPARA CONJUNTO DE CARACTERES ATÉ A PRIMEIRA "/" DO
PATH INTEIRO, f 64;
#X text 239 261 TERMINA CONTAGEM QUANDO ACHA A PRIMEIRA "/" DO FIM
PRO COMEÇO, f 43;
#X obj 71 738 outlet FILENAME;
#X text 142 88 CONVERTE PRA LISTA DE CARACTERES ASCII;
#X obj 128 410 list length;
#X obj 71 392 t l l;
#X obj 71 558 spigot;
#X obj 171 558 spigot;
#X obj 263 662 t l;
#X obj 192 662 list append;
#X obj 171 681 list;
#X obj 171 577 t b l b l b;
#X obj 128 522 <= 22;
#X obj 228 522 > 22;
#X obj 218 643 list split 7;
#X obj 192 605 list split 9;
#X text 204 411 TESTA POR NÚMERO DE CARACTERES;
#X obj 71 699 list tosymbol;
#X text 159 700 CONVERTE LISTA DE CARACTERES ASCII EM SYMBOL;
#X obj 128 429 t l l l;
#X obj 203 474 sel 0;
#X obj 230 493 t f f f;
#X text 325 517 CASO MAIS CARACTERES DO QUE PONTO DE CORTE \, SEPARA
EM INICIO...FIM DO NOME, f 27;
#X msg 202 624 46 46 46;
#X text 260 622 ... (ASCII);
#X text 154 16 ** SEPARA NOME DE ARQUIVO DO CAMINHO COMPLETO E CORTA
PARA EXIBIÇÃO SE NECESSÁRIO, f 47;
#X text 237 455 LIMITE;
#X obj 203 455 f 18;
#X obj 287 522 - 5;
#X obj 261 577 - 9;
#X obj 203 436 r \$0-lb;
#X connect 0 0 18 0;
#X connect 1 0 11 0;
#X connect 1 1 2 0;
#X connect 2 0 1 0;
#X connect 3 0 4 0;
#X connect 3 0 16 1;
#X connect 4 0 3 1;
#X connect 5 1 28 0;
#X connect 6 0 7 0;
#X connect 7 0 5 1;
#X connect 8 0 9 0;
#X connect 9 0 0 0;
#X connect 10 0 3 1;
#X connect 11 0 15 0;
#X connect 11 1 17 0;
#X connect 12 0 3 0;
#X connect 13 0 12 1;
#X connect 14 0 12 1;
#X connect 15 0 16 0;
#X connect 15 1 13 0;
#X connect 16 0 7 1;
#X connect 17 0 12 0;
#X connect 18 0 5 0;
#X connect 18 1 6 0;
#X connect 18 2 1 0;
#X connect 18 3 10 0;
#X connect 18 4 14 0;
#X connect 27 0 42 0;
#X connect 28 0 30 0;
#X connect 28 0 29 0;
#X connect 28 1 27 0;
#X connect 29 0 40 0;
#X connect 30 0 34 0;
#X connect 31 0 32 1;
#X connect 32 0 31 0;
#X connect 32 0 33 1;
#X connect 33 0 40 0;
#X connect 34 0 33 0;
#X connect 34 1 38 0;
#X connect 34 2 46 0;
#X connect 34 3 37 0;
#X connect 34 4 32 1;
#X connect 35 0 29 1;
#X connect 36 0 30 1;
#X connect 37 1 32 0;
#X connect 38 0 32 0;
#X connect 40 0 25 0;
#X connect 42 0 35 0;
#X connect 42 1 36 0;
#X connect 42 2 51 0;
#X connect 43 1 44 0;
#X connect 44 0 35 1;
#X connect 44 1 36 1;
#X connect 44 2 52 0;
#X connect 46 0 32 0;
#X connect 50 0 43 0;
#X connect 51 0 37 1;
#X connect 52 0 38 1;
#X connect 53 0 50 0;
#X restore 412 114 pd FILENAME;
#X obj 331 96 t s s;
#X obj 412 133 s \$0-fileName;
#X obj 169 96 t b b s s;
#X obj 186 243 text size \$0-listBox;
#X text 203 158 ATUALIZA CORES APÓS EDIÇÃO MANUAL E LEITURA DE ARQUIVO
, f 19;
#X obj 186 285 - 16;
#X obj 186 304 abs;
#X obj 186 323 until;
#X obj 186 266 moses 17;
#X obj 401 322 text delete \$0-listBox;
#X obj 374 284 t b b;
#X obj 374 341 text size \$0-listBox;
#X obj 374 360 > 16;
#X obj 374 379 sel 1;
#X obj 416 397 t b;
#X text 435 275 SE FOR MAIOR QUE NÚMERO DE SLOTS \, ENTRA EM LOOP
APAGANDO AS LINHAS EXCEDENTES, f 33;
#X obj 186 342 text insert \$0-listBox 100;
#X text 184 366 SE FOR MENOR QUE NÚMERO DE SLOTS \, INSERE LINHAS
VAZIAS NO FIM DO [text] ATÉ IGUALAR SLOTS, f 27;
#X msg 401 303 16;
#X connect 0 1 3 0;
#X connect 1 0 0 0;
#X connect 3 0 4 0;
#X connect 5 0 1 0;
#X connect 6 0 16 0;
#X connect 7 0 0 0;
#X connect 8 0 6 0;
#X connect 9 0 16 0;
#X connect 10 0 18 0;
#X connect 11 0 0 0;
#X connect 12 0 10 0;
#X connect 13 0 18 0;
#X connect 15 0 17 0;
#X connect 16 0 7 0;
#X connect 16 1 15 0;
#X connect 18 0 4 0;
#X connect 18 1 19 0;
#X connect 18 2 11 0;
#X connect 18 3 15 0;
#X connect 19 0 24 0;
#X connect 21 0 22 0;
#X connect 22 0 23 0;
#X connect 23 0 32 0;
#X connect 24 0 21 0;
#X connect 24 1 26 0;
#X connect 26 0 27 0;
#X connect 26 1 34 0;
#X connect 27 0 28 0;
#X connect 28 0 29 0;
#X connect 29 0 30 0;
#X connect 30 0 26 0;
#X connect 34 0 25 0;
#X restore 51 230 pd DEFINE_EDIT_READ_WRITE;
#N canvas 2 53 500 348 INFO 0;
#X text 50 43 RECURSOS;
#X text 50 73 - [list trim] interno ON/OFF - na saída da lista;
#X text 50 183 - DUMP - envia todas as listas existentes em sequência
;
#X text 50 93 - Auto-Write ON/OFF - escreve slot atual assim que entra
uma lista;
#X text 50 153 - Auto-Next ON/OFF - vai para próximo slot vazio assim
que escreve slot atual;
#X text 50 123 - Auto-Read ON/OFF - lê o slot assim que é selecionado
com clique \, se tiver conteúdo;
#X text 50 203 - [send] interno na saída - opcional \, declarável
como 5 argumento (symbol), f 65;
#X text 50 233 - Copy/Move - comando externo para copiar ou mover uma
lista entre os slots - Sintaxe: comando origem destino(s) - ex:;
#X msg 52 269 cp 2 4;
#X msg 102 269 cp 2 5 6 7;
#X msg 182 269 cp 0 all;
#X msg 262 269 mv 2 4;
#X msg 312 269 mv 2 5 6 7;
#X msg 392 269 mv 0 all;
#X restore 361 123 pd INFO;
#N canvas 2 53 1157 276 EXTERNAL_CONTROL 0;
#X obj 44 28 inlet;
#X obj 44 105 s \$0-write;
#X obj 44 86 route bang;
#X obj 109 86 symbol;
#X obj 208 86 route bang;
#X obj 273 86 symbol;
#X obj 208 105 s \$0-read;
#X obj 273 105 s \$0-readFile;
#X obj 109 105 s \$0-writeFile;
#X text 439 18 ** GERENCIA ENTRADA DE CONTROLES EXTERNOS;
#X obj 366 105 s \$0-slotSet;
#X obj 283 228 s \$0-autoNext_set;
#X obj 44 228 s \$0-autoWrite_set;
#X obj 167 228 s \$0-autoRead_set;
#X obj 44 67 route write read slot load save clear reset edit dump
trim;
#X obj 453 105 s \$0-load_set;
#X obj 546 105 s \$0-save_set;
#X obj 639 105 s \$0-clear_set;
#X obj 738 105 s \$0-reset_set;
#X obj 837 105 s \$0-edit_set;
#X obj 930 105 s \$0-dump_set;
#X obj 1023 124 s \$0-trim_set;
#X obj 1023 86 clip 0 1;
#X obj 800 22 loadbang;
#X obj 800 41 s \$0-lb;
#X obj 44 171 route autoWrite autoRead autoNext cp mv next;
#X obj 44 190 clip 0 1;
#X obj 167 190 clip 0 1;
#X obj 283 190 clip 0 1;
#X obj 1023 105 int;
#X obj 44 209 int;
#X obj 167 209 int;
#X obj 283 209 int;
#X obj 400 228 s \$0-cp;
#X obj 457 228 s \$0-mv;
#X obj 514 228 s \$0-next;
#X obj 373 134 r \$0-lb;
#X obj 373 153 pack \$2 \$3 \$4;
#X obj 373 172 unpack f f f;
#X obj 1023 38 r \$0-lb;
#X obj 1023 57 f \$1;
#X obj 366 28 inlet;
#X obj 608 189 s \$0-list;
#X text 673 189 O QUE NÃO FOR COMANDO INTERNO É LISTA PARA MEMÓRIA
;
#X obj 109 28 r \$5-;
#X text 150 28 ENTRADA REMOTA ( 5_ARG - );
#X connect 0 0 14 0;
#X connect 2 0 1 0;
#X connect 2 1 3 0;
#X connect 3 0 8 0;
#X connect 4 0 6 0;
#X connect 4 1 5 0;
#X connect 5 0 7 0;
#X connect 14 0 2 0;
#X connect 14 1 4 0;
#X connect 14 2 10 0;
#X connect 14 3 15 0;
#X connect 14 4 16 0;
#X connect 14 5 17 0;
#X connect 14 6 18 0;
#X connect 14 7 19 0;
#X connect 14 8 20 0;
#X connect 14 9 22 0;
#X connect 14 10 25 0;
#X connect 22 0 29 0;
#X connect 23 0 24 0;
#X connect 25 0 26 0;
#X connect 25 1 27 0;
#X connect 25 2 28 0;
#X connect 25 3 33 0;
#X connect 25 4 34 0;
#X connect 25 5 35 0;
#X connect 25 6 42 0;
#X connect 26 0 30 0;
#X connect 27 0 31 0;
#X connect 28 0 32 0;
#X connect 29 0 21 0;
#X connect 30 0 12 0;
#X connect 31 0 13 0;
#X connect 32 0 11 0;
#X connect 36 0 37 0;
#X connect 37 0 38 0;
#X connect 38 0 26 0;
#X connect 38 1 27 0;
#X connect 38 2 28 0;
#X connect 39 0 40 0;
#X connect 40 0 22 0;
#X connect 41 0 10 0;
#X connect 44 0 14 0;
#X restore 51 54 pd EXTERNAL_CONTROL;
#X text 256 125 AUTO WRITE;
#X text 256 145 AUTO READ;
#X text 256 165 AUTO NEXT;
#X obj 197 381 r \$0-lb;
#N canvas 282 184 422 441 COPY 0;
#X obj 106 256 text get \$0-listBox;
#X obj 106 275 route bang;
#X obj 226 369 text set \$0-listBox;
#X obj 199 388 s \$0-setColor;
#X obj 199 350 t b l;
#X obj 79 86 list split 1;
#X obj 142 199 list split 1;
#X text 62 22 ** MECANISMO PARA COPIAR UM SLOT PARA OUTRO(S);
#X obj 142 312 list;
#X obj 142 218 t b f b;
#X obj 181 237 list;
#X obj 142 161 route all;
#X obj 142 142 list trim;
#X obj 142 123 list;
#X obj 79 105 t b f;
#X obj 106 294 t b;
#X obj 142 331 route bang;
#X obj 79 67 r \$0-cp;
#X msg 142 180 0 1 2 3 4 5 6 7 8 9 10 11 12 13 14 15;
#X connect 0 0 1 0;
#X connect 1 0 15 0;
#X connect 1 1 8 1;
#X connect 4 0 3 0;
#X connect 4 1 2 0;
#X connect 5 0 14 0;
#X connect 5 1 13 1;
#X connect 6 0 9 0;
#X connect 6 1 10 1;
#X connect 8 0 16 0;
#X connect 9 0 8 0;
#X connect 9 1 2 1;
#X connect 9 2 10 0;
#X connect 10 0 6 0;
#X connect 11 0 18 0;
#X connect 11 1 6 0;
#X connect 12 0 11 0;
#X connect 13 0 12 0;
#X connect 14 0 13 0;
#X connect 14 1 0 0;
#X connect 15 0 8 1;
#X connect 16 1 4 0;
#X connect 17 0 5 0;
#X connect 18 0 6 0;
#X restore 329 249 pd COPY;
#N canvas 344 193 379 470 MOVE 0;
#X text 43 22 ** MECANISMO PARA MOVER UM SLOT (COPIA CONTEÚDO E APAGA
SLOT DE ORIGEM), f 47;
#X obj 78 263 text get \$0-listBox;
#X obj 78 282 route bang;
#X obj 59 93 list split 1;
#X obj 114 206 list split 1;
#X obj 114 319 list;
#X obj 114 225 t b f b;
#X obj 153 244 list;
#X obj 210 376 text set \$0-listBox;
#X obj 171 414 s \$0-setColor;
#X obj 171 357 t b b l;
#X obj 190 395 text set \$0-listBox;
#X obj 114 130 list;
#X obj 59 112 t b f f;
#X obj 78 301 t b;
#X obj 114 338 route bang;
#X obj 114 168 route all;
#X obj 114 149 list trim;
#X obj 59 74 r \$0-mv;
#X msg 114 187 0 1 2 3 4 5 6 7 8 9 10 11 12 13 14 15;
#X connect 1 0 2 0;
#X connect 2 0 14 0;
#X connect 2 1 5 1;
#X connect 3 0 13 0;
#X connect 3 1 12 1;
#X connect 4 0 6 0;
#X connect 4 1 7 1;
#X connect 5 0 15 0;
#X connect 6 0 5 0;
#X connect 6 1 8 1;
#X connect 6 2 7 0;
#X connect 7 0 4 0;
#X connect 10 0 9 0;
#X connect 10 1 11 0;
#X connect 10 2 8 0;
#X connect 12 0 17 0;
#X connect 13 0 12 0;
#X connect 13 1 1 0;
#X connect 13 2 11 1;
#X connect 14 0 5 1;
#X connect 15 1 10 0;
#X connect 16 0 19 0;
#X connect 16 1 4 0;
#X connect 17 0 16 0;
#X connect 18 0 3 0;
#X connect 19 0 4 0;
#X restore 329 268 pd MOVE;
#X text 359 21 ARGUMENTOS:;
#X text 359 51 2 - Auto-Write (0-1);
#X text 359 65 3 - Auto-Read (0-1);
#X text 359 79 4 - Auto-Next (0-1);
#X text 359 93 5 - Internal [send] (symbol);
#X obj 197 400 symbol \$5;
#X text 359 37 1 - [list trim] interno (0-1);
#X obj 51 25 inlet LIST_EXTERNAL_CONTROL;
#X obj 76 173 bng 15 250 50 0 \$0-click9 \$0-click9_set empty 17 7
0 10 -262144 -1 -1;
#X obj 96 173 bng 15 250 50 0 \$0-click10 \$0-click10_set empty 17
7 0 10 -262144 -1 -1;
#X obj 116 173 bng 15 250 50 0 \$0-click11 \$0-click11_set empty 17
7 0 10 -262144 -1 -1;
#X obj 136 173 bng 15 250 50 0 \$0-click12 \$0-click12_set empty 17
7 0 10 -262144 -1 -1;
#X obj 156 173 bng 15 250 50 0 \$0-click13 \$0-click13_set empty 17
7 0 10 -262144 -1 -1;
#X obj 176 173 bng 15 250 50 0 \$0-click14 \$0-click14_set empty 17
7 0 10 -262144 -1 -1;
#X obj 196 173 bng 15 250 50 0 \$0-click15 \$0-click15_set empty 17
7 0 10 -262144 -1 -1;
#X obj 56 173 bng 15 250 50 0 \$0-click8 \$0-click8_set empty 17 7
0 10 -262144 -1 -1;
#X obj 56 173 cnv 15 15 15 \$0-canvas8 \$0-canvas8_set 8 5 8 0 10 -262144
-66577 0;
#X obj 76 173 cnv 15 15 15 \$0-canvas9 \$0-canvas9_set 9 5 8 0 10 -262144
-66577 0;
#X obj 96 173 cnv 15 15 15 \$0-canvas10 \$0-canvas10_set 10 2 8 0 10
-262144 -66577 0;
#X obj 116 173 cnv 15 15 15 \$0-canvas11 \$0-canvas11_set 11 2 8 0
10 -262144 -66577 0;
#X obj 136 173 cnv 15 15 15 \$0-canvas12 \$0-canvas12_set 12 2 8 0
10 -262144 -66577 0;
#X obj 156 173 cnv 15 15 15 \$0-canvas13 \$0-canvas13_set 13 2 8 0
10 -262144 -66577 0;
#X obj 176 173 cnv 15 15 15 \$0-canvas14 \$0-canvas14_set 14 2 8 0
10 -262144 -66577 0;
#X obj 196 173 cnv 15 15 15 \$0-canvas15 \$0-canvas15_set 15 2 8 0
10 -262144 -66577 0;
#X connect 28 0 29 0;
#X connect 29 0 30 0;
#X connect 29 1 31 0;
#X connect 30 0 35 0;
#X connect 31 0 34 0;
#X connect 32 0 33 0;
#X connect 32 0 31 1;
#X connect 33 0 30 1;
#X connect 34 0 35 0;
#X connect 35 0 39 0;
#X connect 35 0 49 0;
#X connect 38 0 40 0;
#X connect 41 0 55 1;
#X connect 47 0 40 0;
#X connect 59 0 67 0;
#X connect 67 0 49 1;
#X connect 69 0 55 0;
#X coords 0 -1 1 1 167 105 1 50 110;
