#N canvas 402 148 679 442 10;
#X obj 94 131 vu 10 120 \$0-vu_r empty -1 -8 0 8 -66577 -1 1 0;
#X obj 62 131 vsl 12 119 0 1 0 0 \$0-vol_gui \$0-vol_gui_set empty
0 -9 0 10 -262144 -1 -1 11800 1;
#X obj 529 26 inlet;
#X obj 63 91 hsl 57 12 0 1 0 0 \$0-panL_gui \$0-panL_gui_set panL:-100
2 6 0 10 -262144 -1 -1 0 1;
#X obj 63 279 tgl 15 0 \$0-mute_gui \$0-mute_gui_set M 5 8 0 10 -262144
-262144 -258699 0 1;
#N canvas 2 109 600 293 vu_meter 0;
#X obj 43 138 *~ 0;
#X obj 153 138 *~ 1;
#X obj 174 90 r \$0-pre;
#X obj 174 112 == 0;
#X obj 43 42 catch~ \$0-prefL;
#X obj 98 229 s \$0-vu_l;
#X obj 153 42 catch~ \$0-posfL;
#X obj 273 138 *~ 0;
#X obj 383 138 *~ 1;
#X obj 404 90 r \$0-pre;
#X obj 404 112 == 0;
#X obj 273 42 catch~ \$0-prefR;
#X obj 383 42 catch~ \$0-posfR;
#X obj 328 229 s \$0-vu_r;
#X obj 98 194 bit_peaks~;
#X obj 328 194 bit_peaks~;
#X obj 450 157 r \$0-analyse;
#X obj 450 176 t f f;
#X connect 0 0 14 0;
#X connect 1 0 14 0;
#X connect 2 0 3 0;
#X connect 2 0 0 1;
#X connect 3 0 1 1;
#X connect 4 0 0 0;
#X connect 6 0 1 0;
#X connect 7 0 15 0;
#X connect 8 0 15 0;
#X connect 9 0 10 0;
#X connect 9 0 7 1;
#X connect 10 0 8 1;
#X connect 11 0 7 0;
#X connect 12 0 8 0;
#X connect 14 0 5 0;
#X connect 15 0 13 0;
#X connect 16 0 17 0;
#X connect 17 0 14 2;
#X connect 17 1 15 2;
#X restore 529 143 pd vu_meter;
#X obj 87 115 bng 8 250 50 0 \$0-resetPan_gui \$0-resetPan_gui_set
empty 17 7 0 10 -262144 -1 -1;
#X floatatom 63 259 5 0 0 0 - #0-db_gui_set #0-db_gui, f 5;
#X text 102 259 db;
#X obj 202 402 outlet~ L;
#X obj 282 402 outlet~ R;
#X obj 81 131 vu 10 120 \$0-vu_l empty -1 -8 0 8 -66577 -1 0 0;
#X obj 63 103 hsl 57 12 0 1 0 0 \$0-panR_gui \$0-panR_gui_set panR:100
2 6 0 10 -262144 -1 -1 5600 1;
#X obj 279 143 throw~ \$0-prefL;
#X obj 394 143 throw~ \$0-prefR;
#X obj 266 255 line~;
#X obj 346 255 line~;
#X obj 266 213 r \$0-panL;
#X obj 346 213 r \$0-panR;
#N canvas 275 539 244 252 mute 0;
#X obj 40 33 inlet~;
#X obj 40 204 outlet~;
#X obj 40 167 *~;
#X obj 130 33 inlet~;
#X obj 130 204 outlet~;
#X obj 146 70 r \$0-mute;
#X obj 146 92 == 0;
#X obj 130 167 *~;
#X obj 146 136 line~;
#X obj 146 114 pack 0 5;
#X connect 0 0 2 0;
#X connect 2 0 1 0;
#X connect 3 0 7 0;
#X connect 5 0 6 0;
#X connect 6 0 9 0;
#X connect 7 0 4 0;
#X connect 8 0 7 1;
#X connect 8 0 2 1;
#X connect 9 0 8 0;
#X restore 203 338 pd mute;
#X obj 279 354 throw~ \$0-posfL;
#X obj 394 354 throw~ \$0-posfR;
#N canvas 184 328 408 297 solo 0;
#X obj 99 178 + 1;
#X obj 49 61 t b b b;
#X obj 49 213 f;
#X msg 83 152 0;
#X obj 68 178 f 0;
#X obj 49 242 s \$1-mix_solo_state;
#X obj 49 30 r \$1-mix_solo_trig;
#X obj 68 92 s \$1-mix_solo_ping;
#X obj 68 119 r \$1-mix_solo_pong;
#X text 183 30 inspirado em [mixstrip1.mmb~];
#X connect 0 0 4 1;
#X connect 0 0 2 1;
#X connect 1 0 2 0;
#X connect 1 1 7 0;
#X connect 1 2 3 0;
#X connect 2 0 5 0;
#X connect 3 0 4 1;
#X connect 3 0 2 1;
#X connect 4 0 0 0;
#X connect 6 0 1 0;
#X connect 8 0 4 0;
#X restore 529 169 pd solo;
#X obj 202 26 inlet~;
#X obj 352 26 inlet~;
#X obj 202 86 *~ 1;
#X obj 352 86 *~ 1;
#X obj 212 60 catch~ \$1-mixmaster_L;
#X obj 367 60 catch~ \$1-mixmaster_R;
#X text 63 159 M;
#X text 63 169 A;
#X text 63 179 S;
#X text 63 189 T;
#X text 63 199 E;
#X text 63 209 R;
#N canvas 170 200 461 298 volume 0;
#X obj 113 32 inlet~;
#X obj 113 252 outlet~;
#X obj 43 32 inlet~;
#X obj 129 170 line~;
#X obj 43 192 *~;
#X obj 129 67 r \$0-vol;
#X msg 194 147 set \$1;
#X obj 194 126 - 100;
#X obj 194 105 rmstodb;
#X obj 314 89 + 100;
#X obj 43 252 outlet~;
#X obj 43 222 hip~ 5;
#X obj 314 111 dbtorms;
#X obj 314 133 sqrt;
#X obj 129 88 pow 2;
#X obj 113 192 *~;
#X obj 113 222 hip~ 5;
#X obj 194 170 s \$0-db_gui_set;
#X obj 314 170 s \$0-vol_gui_set;
#X obj 314 67 r \$0-db_gui;
#X msg 129 149 \$1 10;
#X connect 0 0 15 0;
#X connect 2 0 4 0;
#X connect 3 0 4 1;
#X connect 3 0 15 1;
#X connect 4 0 11 0;
#X connect 5 0 14 0;
#X connect 6 0 17 0;
#X connect 7 0 6 0;
#X connect 8 0 7 0;
#X connect 9 0 12 0;
#X connect 11 0 10 0;
#X connect 12 0 13 0;
#X connect 13 0 18 0;
#X connect 14 0 20 0;
#X connect 14 0 8 0;
#X connect 15 0 16 0;
#X connect 16 0 1 0;
#X connect 19 0 9 0;
#X connect 20 0 3 0;
#X restore 202 167 pd volume;
#X floatatom 66 71 3 0 12 0 - #0-gain_gui_set #0-gain_gui, f 3;
#X text 88 71 gain;
#N canvas 607 54 625 396 controles 0;
#X obj 41 31 inlet;
#X obj 318 141 > 0;
#X obj 382 141 > 0;
#X obj 115 141 clip 0 1;
#X obj 182 141 clip 0 1;
#X obj 350 141 > 0;
#X obj 421 141 t b;
#X obj 249 141 clip 0 1;
#X obj 41 141 clip 0 12;
#X obj 117 51 r \$1-mix_ctl;
#X text 393 220 array de memória local;
#X obj 421 162 s \$0-reset;
#X obj 117 75 route bus global;
#X obj 395 201 array define \$0-memo 7;
#X obj 41 105 route gain vol panL panR mute analyse pre reset;
#X obj 329 269 loadbang;
#X obj 329 291 f \$0;
#X msg 329 313 \$1-memo;
#X text 327 355 envia nome do array para [arraymemo];
#X obj 415 281 s \$0-memo-load;
#X text 413 300 atualiza com valores da memória;
#X obj 299 273 t b;
#X obj 415 259 r \$1-memo-load;
#X obj 299 250 r \$1-memo-get;
#X obj 329 335 s \$1-memo-arrays;
#X obj 41 181 bit_param \$0 gain \$0-memo 0 0 9 \$2;
#X obj 41 201 bit_param \$0 vol \$0-memo 1 1 9 \$2;
#X obj 41 221 bit_param \$0 panL \$0-memo 2 0 9 \$2;
#X obj 41 241 bit_param \$0 panR \$0-memo 3 1 9 \$2;
#X obj 41 261 bit_param \$0 mute \$0-memo 4 0 9 \$2;
#X obj 41 281 bit_param \$0 analyse \$0-memo 5 1 9 \$2;
#X obj 41 301 bit_param \$0 pre \$0-memo 6 0 9 \$2;
#X connect 0 0 14 0;
#X connect 1 0 29 0;
#X connect 2 0 31 0;
#X connect 3 0 26 0;
#X connect 4 0 27 0;
#X connect 5 0 30 0;
#X connect 6 0 11 0;
#X connect 7 0 28 0;
#X connect 8 0 25 0;
#X connect 9 0 12 0;
#X connect 12 0 14 0;
#X connect 12 1 14 0;
#X connect 14 0 8 0;
#X connect 14 1 3 0;
#X connect 14 2 4 0;
#X connect 14 3 7 0;
#X connect 14 4 1 0;
#X connect 14 5 5 0;
#X connect 14 6 2 0;
#X connect 14 7 6 0;
#X connect 15 0 16 0;
#X connect 16 0 17 0;
#X connect 17 0 24 0;
#X connect 21 0 16 0;
#X connect 22 0 19 0;
#X connect 23 0 21 0;
#X restore 529 54 pd controles;
#N canvas 790 503 272 316 ganho 0;
#X obj 62 41 inlet~;
#X obj 62 271 outlet~;
#X obj 62 233 *~;
#X obj 146 200 line~;
#X msg 146 179 \$1 10;
#X obj 146 78 r \$0-gain;
#X obj 132 41 inlet~;
#X obj 132 271 outlet~;
#X obj 132 233 *~;
#X obj 146 130 + 100;
#X obj 146 152 dbtorms;
#X obj 146 110 clip 0 12;
#X connect 0 0 2 0;
#X connect 2 0 1 0;
#X connect 3 0 2 1;
#X connect 3 0 8 1;
#X connect 4 0 3 0;
#X connect 5 0 11 0;
#X connect 6 0 8 0;
#X connect 8 0 7 0;
#X connect 9 0 10 0;
#X connect 10 0 4 0;
#X connect 11 0 9 0;
#X restore 202 127 pd ganho;
#X obj 114 282 tgl 12 0 \$0-pre_gui \$0-pre_gui_set P 4 7 0 8 -262144
-262144 -62784 0 1;
#X obj 99 282 tgl 12 0 \$0-analyse_gui \$0-analyse_gui_set A 4 7 0
8 -250685 -250685 -262144 1 1;
#N canvas 26 54 1128 384 gui_reset 0;
#X obj 302 71 sel 0 1;
#X msg 302 124 color 0 0 13;
#X obj 42 124 i;
#X obj 302 30 r \$0-mute;
#X obj 42 72 * 200;
#X obj 42 94 - 100;
#X obj 643 71 sel 0 1;
#X obj 643 30 r \$0-pre;
#X msg 643 124 color 0 0 18;
#X msg 366 159 color 13 13 0;
#X msg 707 159 color 18 18 0;
#X obj 172 124 i;
#X obj 172 72 * 200;
#X obj 172 94 - 100;
#X obj 42 30 r \$0-panL;
#X obj 172 30 r \$0-panR;
#X msg 42 152 label panL:\$1;
#X msg 172 152 label panR:\$1;
#X msg 828 82 1;
#X msg 958 82 0;
#X obj 475 71 sel 0 1;
#X obj 475 30 r \$0-analyse;
#X msg 475 124 color 0 0 19;
#X msg 539 159 color 19 19 0;
#X obj 828 104 s \$0-vol_gui_set;
#X obj 958 104 s \$0-gain_gui_set;
#X obj 828 344 s \$0-panL_gui_set;
#X obj 958 344 s \$0-panR_gui_set;
#X obj 42 202 s \$0-panL_gui_set;
#X obj 172 202 s \$0-panR_gui_set;
#X obj 302 202 s \$0-mute_gui_set;
#X obj 475 202 s \$0-analyse_gui_set;
#X obj 643 202 s \$0-pre_gui_set;
#X obj 828 300 r \$0-resetPan_gui;
#X obj 828 30 r \$0-reset;
#X obj 828 52 t b b b b b b b b;
#X obj 828 153 s \$0-panL_gui_set;
#X obj 958 153 s \$0-panR_gui_set;
#X msg 828 131 0;
#X msg 958 131 1;
#X msg 828 181 0;
#X obj 828 203 s \$0-solo_gui_set;
#X obj 958 203 s \$0-mute_gui_set;
#X msg 958 181 0;
#X msg 978 231 0;
#X obj 828 253 s \$0-analyse_gui_set;
#X msg 828 231 1;
#X obj 978 253 s \$0-pre_gui_set;
#X msg 828 322 0;
#X msg 958 322 1;
#X connect 0 0 1 0;
#X connect 0 1 9 0;
#X connect 1 0 30 0;
#X connect 2 0 16 0;
#X connect 3 0 0 0;
#X connect 4 0 5 0;
#X connect 5 0 2 0;
#X connect 6 0 8 0;
#X connect 6 1 10 0;
#X connect 7 0 6 0;
#X connect 8 0 32 0;
#X connect 9 0 30 0;
#X connect 10 0 32 0;
#X connect 11 0 17 0;
#X connect 12 0 13 0;
#X connect 13 0 11 0;
#X connect 14 0 4 0;
#X connect 15 0 12 0;
#X connect 16 0 28 0;
#X connect 17 0 29 0;
#X connect 18 0 24 0;
#X connect 19 0 25 0;
#X connect 20 0 22 0;
#X connect 20 1 23 0;
#X connect 21 0 20 0;
#X connect 22 0 31 0;
#X connect 23 0 31 0;
#X connect 33 0 48 0;
#X connect 33 0 49 0;
#X connect 34 0 35 0;
#X connect 35 0 18 0;
#X connect 35 1 19 0;
#X connect 35 2 38 0;
#X connect 35 3 39 0;
#X connect 35 4 40 0;
#X connect 35 5 43 0;
#X connect 35 6 46 0;
#X connect 35 7 44 0;
#X connect 38 0 36 0;
#X connect 39 0 37 0;
#X connect 40 0 41 0;
#X connect 43 0 42 0;
#X connect 44 0 47 0;
#X connect 46 0 45 0;
#X connect 48 0 26 0;
#X connect 49 0 27 0;
#X restore 529 116 pd gui_reset;
#X msg 266 234 \$1 10;
#X msg 346 234 \$1 10;
#X obj 203 283 bit_cospan~;
#X obj 283 283 bit_cospan~;
#X connect 2 0 38 0;
#X connect 15 0 45 1;
#X connect 16 0 46 1;
#X connect 17 0 43 0;
#X connect 18 0 44 0;
#X connect 19 0 9 0;
#X connect 19 0 20 0;
#X connect 19 1 10 0;
#X connect 19 1 21 0;
#X connect 23 0 25 0;
#X connect 24 0 26 0;
#X connect 25 0 39 0;
#X connect 26 0 39 1;
#X connect 27 0 25 0;
#X connect 28 0 26 0;
#X connect 35 0 45 0;
#X connect 35 1 46 0;
#X connect 39 0 35 0;
#X connect 39 0 13 0;
#X connect 39 1 35 1;
#X connect 39 1 14 0;
#X connect 43 0 15 0;
#X connect 44 0 16 0;
#X connect 45 0 19 0;
#X connect 45 1 19 1;
#X connect 46 0 19 0;
#X connect 46 1 19 1;
#X coords 0 -1 1 1 82 250 1 50 50;
