#N canvas 526 253 584 594 10;
#X obj 51 126 cnv 15 165 208 \$0-bg \$0-bg_set empty 20 12 0 14 -1
-66577 0;
#X obj 76 153 bng 15 250 50 0 \$0-click1 \$0-click1_set empty 17 7
0 10 -262144 -1 -1;
#X obj 96 153 bng 15 250 50 0 \$0-click2 \$0-click2_set empty 17 7
0 10 -262144 -1 -1;
#X obj 116 153 bng 15 250 50 0 \$0-click3 \$0-click3_set empty 17 7
0 10 -262144 -1 -1;
#X obj 136 153 bng 15 250 50 0 \$0-click4 \$0-click4_set empty 17 7
0 10 -262144 -1 -1;
#X obj 156 153 bng 15 250 50 0 \$0-click5 \$0-click5_set empty 17 7
0 10 -262144 -1 -1;
#X obj 176 153 bng 15 250 50 0 \$0-click6 \$0-click6_set empty 17 7
0 10 -262144 -1 -1;
#X obj 196 153 bng 15 250 50 0 \$0-click7 \$0-click7_set empty 17 7
0 10 -262144 -1 -1;
#X obj 56 153 bng 15 250 50 0 \$0-click0 \$0-click0_set empty 17 7
0 10 -262144 -1 -1;
#X obj 56 153 cnv 15 15 15 \$0-canvas0 \$0-canvas0_set 0 5 8 0 10 -262144
-66577 0;
#X obj 76 153 cnv 15 15 15 \$0-canvas1 \$0-canvas1_set 1 5 8 0 10 -262144
-66577 0;
#X obj 96 153 cnv 15 15 15 \$0-canvas2 \$0-canvas2_set 2 5 8 0 10 -262144
-66577 0;
#X obj 116 153 cnv 15 15 15 \$0-canvas3 \$0-canvas3_set 3 5 8 0 10
-262144 -66577 0;
#X obj 136 153 cnv 15 15 15 \$0-canvas4 \$0-canvas4_set 4 5 8 0 10
-262144 -66577 0;
#X obj 156 153 cnv 15 15 15 \$0-canvas5 \$0-canvas5_set 5 5 8 0 10
-262144 -66577 0;
#X obj 176 153 cnv 15 15 15 \$0-canvas6 \$0-canvas6_set 6 5 8 0 10
-262144 -66577 0;
#X obj 196 153 cnv 15 15 15 \$0-canvas7 \$0-canvas7_set 7 5 8 0 10
-262144 -66577 0;
#X obj 57 131 cnv 15 110 15 \$0-bg2 \$0-bg2_set empty 20 12 0 14 -191407
-66577 0;
#X symbolatom 57 131 18 0 0 0 - #0-fileName #0-dead;
#X obj 56 314 bng 15 250 50 0 \$0-load \$0-load_set L 5 8 0 10 -228856
-1 -1;
#X obj 76 314 bng 15 250 50 0 \$0-save \$0-save_set S 5 8 0 10 -228856
-1 -1;
#X obj 106 314 bng 15 250 50 0 \$0-clear \$0-clear_set C 5 8 0 10 -228856
-1 -1;
#X obj 126 314 bng 15 250 50 0 \$0-reset \$0-reset_set R 5 8 0 10 -128992
-1 -262144;
#X obj 176 314 bng 15 250 50 0 \$0-dump \$0-dump_set D 5 8 0 10 -228856
-1 -1;
#X obj 176 131 bng 15 250 50 0 \$0-read \$0-read_set L 5 8 0 10 -191407
-262144 -1;
#X obj 196 131 bng 15 250 50 0 \$0-write \$0-write_set S 5 8 0 10 -191407
-262144 -1;
#X obj 196 314 tgl 15 0 \$0-trim \$0-trim_set T 5 8 0 10 -228856 -1
-1 1 1;
#X obj 156 314 bng 15 250 50 0 \$0-edit \$0-edit_set E 5 8 0 10 -228856
-1 -1;
#X obj 51 455 r \$0-out;
#X obj 51 474 t a a;
#X obj 51 493 spigot 1;
#X obj 111 493 spigot 0;
#X obj 156 456 r \$0-trim;
#X obj 96 474 == 0;
#X obj 111 512 list trim;
#X obj 51 530 t a;
#N canvas 587 451 280 276 RESET 0;
#X obj 74 196 text set \$0-listBox;
#X obj 74 139 until;
#X obj 74 158 t b b;
#X obj 101 177 f;
#X obj 124 177 + 1;
#X msg 116 158 0;
#X obj 55 82 r \$0-reset;
#X obj 55 215 s \$0-setColor;
#X text 59 14 ** (RE)INICIALIZA [text];
#X obj 55 101 t b b b b;
#X obj 156 138 s \$0-fileName;
#X msg 156 119 set .;
#X obj 55 63 r \$0-lb;
#X msg 74 120 64;
#X connect 1 0 2 0;
#X connect 2 0 0 0;
#X connect 2 1 3 0;
#X connect 3 0 4 0;
#X connect 3 0 0 1;
#X connect 4 0 3 1;
#X connect 5 0 3 1;
#X connect 6 0 9 0;
#X connect 9 0 7 0;
#X connect 9 1 13 0;
#X connect 9 2 5 0;
#X connect 9 3 11 0;
#X connect 11 0 10 0;
#X connect 12 0 9 0;
#X connect 13 0 1 0;
#X restore 226 417 pd RESET;
#N canvas 386 361 349 306 DUMP 0;
#X obj 49 113 until;
#X obj 49 151 f;
#X obj 72 151 + 1;
#X msg 64 132 0;
#X obj 49 75 t b b;
#X obj 49 56 r \$0-dump;
#X obj 49 189 text get \$0-listBox;
#X obj 49 208 route bang;
#X obj 106 264 s \$0-out;
#X obj 169 264 s \$0-slotOut;
#X obj 49 170 t f f;
#X obj 169 245 f;
#X obj 106 227 t a b;
#X text 37 14 ** ENVIA TODO CONTEÚDO DO [text] PARA SAÍDA;
#X text 198 231 PRIMEIRO ENVIA SLOT RESPECTIVO, f 15;
#X msg 49 94 64;
#X connect 0 0 1 0;
#X connect 1 0 2 0;
#X connect 1 0 10 0;
#X connect 2 0 1 1;
#X connect 3 0 1 1;
#X connect 4 0 15 0;
#X connect 4 1 3 0;
#X connect 5 0 4 0;
#X connect 6 0 7 0;
#X connect 7 1 12 0;
#X connect 10 0 6 0;
#X connect 10 1 11 1;
#X connect 11 0 9 0;
#X connect 12 0 8 0;
#X connect 12 1 11 0;
#X connect 15 0 0 0;
#X restore 329 360 pd DUMP;
#X obj 341 530 r \$0-slotOut;
#X obj 51 549 outlet LIST;
#X obj 341 549 outlet SLOT;
#X obj 248 25 inlet SLOT;
#X obj 237 126 tgl 15 0 \$0-autoWrite \$0-autoWrite_set empty 17 7
0 10 -262144 -1 -1 1 1;
#X obj 237 146 tgl 15 0 \$0-autoRead \$0-autoRead_set empty 17 7 0
10 -262144 -1 -1 0 1;
#N canvas 311 284 430 547 COLORS 0;
#X obj 50 50 r \$0-setColor;
#X obj 50 107 until;
#X obj 50 145 f;
#X obj 73 145 + 1;
#X msg 65 126 0;
#X obj 50 69 t b b;
#X obj 50 193 text get \$0-listBox;
#X obj 50 212 route bang;
#X msg 120 378 \; \$1-canvas\$2_set color \$3;
#X obj 120 359 pack \$0 f -9.88184e+06;
#X text 262 359 RGB 150 200 240;
#X text 61 14 ** GERENCIA CORES DOS SLOTS - ATIVO \, VAZIO \, CHEIO
;
#X obj 179 193 array get \$0-activeSlot 0 1;
#X obj 120 249 f;
#X obj 120 230 bang;
#X obj 120 268 sel 0 1;
#X msg 139 327 \; \$1-canvas\$2_set color \$3;
#X obj 179 212 t f f;
#X obj 50 249 f;
#X obj 50 268 sel 0 1;
#X msg 50 481 \; \$1-canvas\$2_set color \$3;
#X obj 50 462 pack \$0 f 0;
#X msg 121 449 \; \$1-canvas\$2_set color \$3;
#X obj 50 164 t f f f f f f;
#X obj 121 430 pack \$0 f 1;
#X obj 139 308 pack \$0 f -3.96047e+06;
#X text 281 309 RGB 60 110 150;
#X msg 50 88 64;
#X connect 0 0 5 0;
#X connect 1 0 2 0;
#X connect 2 0 3 0;
#X connect 2 0 23 0;
#X connect 3 0 2 1;
#X connect 4 0 2 1;
#X connect 5 0 27 0;
#X connect 5 1 4 0;
#X connect 6 0 7 0;
#X connect 7 0 18 0;
#X connect 7 1 14 0;
#X connect 9 0 8 0;
#X connect 12 0 17 0;
#X connect 13 0 15 0;
#X connect 14 0 13 0;
#X connect 15 0 9 0;
#X connect 15 1 25 0;
#X connect 17 0 18 1;
#X connect 17 1 13 1;
#X connect 18 0 19 0;
#X connect 19 0 21 0;
#X connect 19 1 24 0;
#X connect 21 0 20 0;
#X connect 23 0 6 0;
#X connect 23 1 21 1;
#X connect 23 2 24 1;
#X connect 23 3 9 1;
#X connect 23 4 25 1;
#X connect 23 5 12 0;
#X connect 24 0 22 0;
#X connect 25 0 16 0;
#X connect 27 0 1 0;
#X restore 51 398 pd COLORS;
#N canvas 364 530 309 246 SLOT_SAVE 0;
#X obj 130 157 text set \$0-listBox;
#X obj 167 138 r \$0-slot;
#X obj 91 62 r \$0-list;
#X obj 91 119 list;
#X obj 91 100 spigot;
#X obj 136 82 r \$0-autoWrite;
#X obj 22 101 r \$0-save;
#X text 31 14 ** GERENCIA ESCRITA DE SLOTS NO [text];
#X obj 110 176 s \$0-setColor;
#X obj 91 81 t b a;
#X obj 91 138 t b b l;
#X obj 91 195 s \$0-next;
#X obj 136 101 r \$0-reset;
#X connect 1 0 0 1;
#X connect 2 0 9 0;
#X connect 3 0 10 0;
#X connect 4 0 3 0;
#X connect 5 0 4 1;
#X connect 6 0 3 0;
#X connect 9 0 4 0;
#X connect 9 1 3 1;
#X connect 10 0 11 0;
#X connect 10 1 8 0;
#X connect 10 2 0 0;
#X connect 12 0 3 1;
#X restore 226 360 pd SLOT_SAVE;
#N canvas 322 454 296 220 SLOT_LOAD 0;
#X obj 98 131 text get \$0-listBox;
#X obj 98 93 spigot;
#X obj 39 93 r \$0-load;
#X obj 98 55 r \$0-slot;
#X obj 98 74 t b f;
#X obj 98 112 f;
#X obj 143 74 r \$0-autoRead;
#X obj 155 169 s \$0-out;
#X obj 98 150 route bang;
#X text 31 14 ** GERENCIA LEITURA DE SLOTS DO [text];
#X connect 0 0 8 0;
#X connect 1 0 5 0;
#X connect 2 0 5 0;
#X connect 3 0 4 0;
#X connect 4 0 1 0;
#X connect 4 1 5 1;
#X connect 5 0 0 0;
#X connect 6 0 1 1;
#X connect 8 1 7 0;
#X restore 226 379 pd SLOT_LOAD;
#X obj 341 511 r \$0-slot;
#N canvas 354 516 285 162 SLOT_CLEAR 0;
#X obj 100 95 text set \$0-listBox;
#X obj 137 76 r \$0-slot;
#X text 46 14 ** APAGA SLOT ATIVO NO [text];
#X obj 73 57 r \$0-clear;
#X obj 73 114 s \$0-setColor;
#X obj 73 76 t b b;
#X connect 1 0 0 1;
#X connect 3 0 5 0;
#X connect 5 0 4 0;
#X connect 5 1 0 0;
#X restore 226 398 pd SLOT_CLEAR;
#X obj 176 549 send;
#X text 209 550 SAÍDA REMOTA;
#X obj 237 166 tgl 15 0 \$0-autoNext \$0-autoNext_set empty 17 7 0
10 -262144 -1 -1 1 1;
#N canvas 562 202 609 527 SLOT_CLICK_SET_NEXT 0;
#X obj 270 79 r \$0-slotSet;
#X obj 270 117 pack f \$0;
#X msg 270 136 \; \$2-click\$1_set bang;
#X text 268 56 DEFINIÇÃO EXTERNA;
#X obj 270 219 r \$0-next;
#X obj 303 238 r \$0-autoNext;
#X obj 270 257 spigot;
#X obj 285 276 r \$0-slot;
#X obj 270 295 f;
#X obj 270 314 + 1;
#X obj 270 371 text get \$0-listBox;
#X obj 270 390 route bang;
#X obj 270 468 s \$0-slotSet;
#X text 296 315 LÊ PRÓXIMO SLOT PARA VER SE TEM CONTEÚDO;
#X obj 270 449 f;
#X text 296 450 SE ESTIVER VAZIO VIRA NOVO SLOT ATIVO;
#X obj 327 409 bang;
#X obj 270 352 t f f f;
#X obj 327 428 f;
#X text 354 429 SE TIVER CONTEÚDO VAI PRO PRÓXIMO;
#X text 95 14 ** GERENCIA CLIQUES \, DEFINIÇÃO EXTERNA E AUTO-AVANÇO
DO SLOT ATIVO, f 66;
#X text 268 196 AUTO-AVANÇO;
#X obj 50 60 array define \$0-activeSlot 64;
#X obj 270 98 clip 0 63;
#X obj 270 333 moses 64;
#N canvas 2 53 895 725 SLOTS_0-15 0;
#X obj 45 52 r \$0-click0;
#X msg 140 108 const 0;
#X obj 140 127 s \$0-activeSlot;
#X obj 65 165 array set \$0-activeSlot;
#X obj 95 108 f 0;
#X msg 65 108 1;
#X obj 45 184 s \$0-setColor;
#X obj 95 127 t f f;
#X obj 122 146 s \$0-slot;
#X text 43 29 CLIQUES NA INTERFACE;
#N canvas 2 109 273 229 2_CLICK 0;
#X obj 103 71 inlet;
#X obj 103 100 t b b;
#X obj 103 119 timer;
#X obj 103 157 sel 1;
#X obj 103 138 < 200;
#X obj 103 176 s \$0-load;
#X text 36 16 ** LÊ SLOT ATUAL QUANDO RECEBE DUPLO CLIQUE (< 200ms)
, f 30;
#X connect 0 0 1 0;
#X connect 1 0 2 0;
#X connect 1 1 2 1;
#X connect 2 0 4 0;
#X connect 3 0 5 0;
#X connect 4 0 3 0;
#X restore 140 89 pd 2_CLICK;
#X obj 45 71 t b b b b b;
#X msg 340 108 const 0;
#X obj 340 127 s \$0-activeSlot;
#X obj 265 165 array set \$0-activeSlot;
#X msg 265 108 1;
#X obj 245 184 s \$0-setColor;
#X obj 295 127 t f f;
#X obj 322 146 s \$0-slot;
#N canvas 2 109 273 229 2_CLICK 0;
#X obj 103 71 inlet;
#X obj 103 100 t b b;
#X obj 103 119 timer;
#X obj 103 157 sel 1;
#X obj 103 138 < 200;
#X obj 103 176 s \$0-load;
#X text 36 16 ** LÊ SLOT ATUAL QUANDO RECEBE DUPLO CLIQUE (< 200ms)
, f 30;
#X connect 0 0 1 0;
#X connect 1 0 2 0;
#X connect 1 1 2 1;
#X connect 2 0 4 0;
#X connect 3 0 5 0;
#X connect 4 0 3 0;
#X restore 340 89 pd 2_CLICK;
#X obj 245 71 t b b b b b;
#X msg 540 108 const 0;
#X obj 540 127 s \$0-activeSlot;
#X obj 465 165 array set \$0-activeSlot;
#X msg 465 108 1;
#X obj 445 184 s \$0-setColor;
#X obj 495 127 t f f;
#X obj 522 146 s \$0-slot;
#N canvas 2 109 273 229 2_CLICK 0;
#X obj 103 71 inlet;
#X obj 103 100 t b b;
#X obj 103 119 timer;
#X obj 103 157 sel 1;
#X obj 103 138 < 200;
#X obj 103 176 s \$0-load;
#X text 36 16 ** LÊ SLOT ATUAL QUANDO RECEBE DUPLO CLIQUE (< 200ms)
, f 30;
#X connect 0 0 1 0;
#X connect 1 0 2 0;
#X connect 1 1 2 1;
#X connect 2 0 4 0;
#X connect 3 0 5 0;
#X connect 4 0 3 0;
#X restore 540 89 pd 2_CLICK;
#X obj 445 71 t b b b b b;
#X msg 740 108 const 0;
#X obj 740 127 s \$0-activeSlot;
#X obj 665 165 array set \$0-activeSlot;
#X msg 665 108 1;
#X obj 645 184 s \$0-setColor;
#X obj 695 127 t f f;
#X obj 722 146 s \$0-slot;
#N canvas 2 109 273 229 2_CLICK 0;
#X obj 103 71 inlet;
#X obj 103 100 t b b;
#X obj 103 119 timer;
#X obj 103 157 sel 1;
#X obj 103 138 < 200;
#X obj 103 176 s \$0-load;
#X text 36 16 ** LÊ SLOT ATUAL QUANDO RECEBE DUPLO CLIQUE (< 200ms)
, f 30;
#X connect 0 0 1 0;
#X connect 1 0 2 0;
#X connect 1 1 2 1;
#X connect 2 0 4 0;
#X connect 3 0 5 0;
#X connect 4 0 3 0;
#X restore 740 89 pd 2_CLICK;
#X obj 645 71 t b b b b b;
#X obj 245 52 r \$0-click1;
#X obj 445 52 r \$0-click2;
#X obj 645 52 r \$0-click3;
#X obj 295 108 f 1;
#X obj 495 108 f 2;
#X obj 695 108 f 3;
#X msg 140 268 const 0;
#X obj 140 287 s \$0-activeSlot;
#X obj 65 325 array set \$0-activeSlot;
#X msg 65 268 1;
#X obj 45 344 s \$0-setColor;
#X obj 95 287 t f f;
#X obj 122 306 s \$0-slot;
#N canvas 2 109 273 229 2_CLICK 0;
#X obj 103 71 inlet;
#X obj 103 100 t b b;
#X obj 103 119 timer;
#X obj 103 157 sel 1;
#X obj 103 138 < 200;
#X obj 103 176 s \$0-load;
#X text 36 16 ** LÊ SLOT ATUAL QUANDO RECEBE DUPLO CLIQUE (< 200ms)
, f 30;
#X connect 0 0 1 0;
#X connect 1 0 2 0;
#X connect 1 1 2 1;
#X connect 2 0 4 0;
#X connect 3 0 5 0;
#X connect 4 0 3 0;
#X restore 140 249 pd 2_CLICK;
#X obj 45 231 t b b b b b;
#X msg 340 268 const 0;
#X obj 340 287 s \$0-activeSlot;
#X obj 265 325 array set \$0-activeSlot;
#X msg 265 268 1;
#X obj 245 344 s \$0-setColor;
#X obj 295 287 t f f;
#X obj 322 306 s \$0-slot;
#N canvas 2 109 273 229 2_CLICK 0;
#X obj 103 71 inlet;
#X obj 103 100 t b b;
#X obj 103 119 timer;
#X obj 103 157 sel 1;
#X obj 103 138 < 200;
#X obj 103 176 s \$0-load;
#X text 36 16 ** LÊ SLOT ATUAL QUANDO RECEBE DUPLO CLIQUE (< 200ms)
, f 30;
#X connect 0 0 1 0;
#X connect 1 0 2 0;
#X connect 1 1 2 1;
#X connect 2 0 4 0;
#X connect 3 0 5 0;
#X connect 4 0 3 0;
#X restore 340 249 pd 2_CLICK;
#X obj 245 231 t b b b b b;
#X msg 540 268 const 0;
#X obj 540 287 s \$0-activeSlot;
#X obj 465 325 array set \$0-activeSlot;
#X msg 465 268 1;
#X obj 445 344 s \$0-setColor;
#X obj 495 287 t f f;
#X obj 522 306 s \$0-slot;
#N canvas 2 109 273 229 2_CLICK 0;
#X obj 103 71 inlet;
#X obj 103 100 t b b;
#X obj 103 119 timer;
#X obj 103 157 sel 1;
#X obj 103 138 < 200;
#X obj 103 176 s \$0-load;
#X text 36 16 ** LÊ SLOT ATUAL QUANDO RECEBE DUPLO CLIQUE (< 200ms)
, f 30;
#X connect 0 0 1 0;
#X connect 1 0 2 0;
#X connect 1 1 2 1;
#X connect 2 0 4 0;
#X connect 3 0 5 0;
#X connect 4 0 3 0;
#X restore 540 249 pd 2_CLICK;
#X obj 445 231 t b b b b b;
#X msg 740 268 const 0;
#X obj 740 287 s \$0-activeSlot;
#X obj 665 325 array set \$0-activeSlot;
#X msg 665 268 1;
#X obj 645 344 s \$0-setColor;
#X obj 695 287 t f f;
#X obj 722 306 s \$0-slot;
#N canvas 2 109 273 229 2_CLICK 0;
#X obj 103 71 inlet;
#X obj 103 100 t b b;
#X obj 103 119 timer;
#X obj 103 157 sel 1;
#X obj 103 138 < 200;
#X obj 103 176 s \$0-load;
#X text 36 16 ** LÊ SLOT ATUAL QUANDO RECEBE DUPLO CLIQUE (< 200ms)
, f 30;
#X connect 0 0 1 0;
#X connect 1 0 2 0;
#X connect 1 1 2 1;
#X connect 2 0 4 0;
#X connect 3 0 5 0;
#X connect 4 0 3 0;
#X restore 740 249 pd 2_CLICK;
#X obj 645 231 t b b b b b;
#X msg 140 428 const 0;
#X obj 140 447 s \$0-activeSlot;
#X obj 65 485 array set \$0-activeSlot;
#X msg 65 428 1;
#X obj 45 504 s \$0-setColor;
#X obj 95 447 t f f;
#X obj 122 466 s \$0-slot;
#N canvas 2 109 273 229 2_CLICK 0;
#X obj 103 71 inlet;
#X obj 103 100 t b b;
#X obj 103 119 timer;
#X obj 103 157 sel 1;
#X obj 103 138 < 200;
#X obj 103 176 s \$0-load;
#X text 36 16 ** LÊ SLOT ATUAL QUANDO RECEBE DUPLO CLIQUE (< 200ms)
, f 30;
#X connect 0 0 1 0;
#X connect 1 0 2 0;
#X connect 1 1 2 1;
#X connect 2 0 4 0;
#X connect 3 0 5 0;
#X connect 4 0 3 0;
#X restore 140 409 pd 2_CLICK;
#X obj 45 391 t b b b b b;
#X msg 340 428 const 0;
#X obj 340 447 s \$0-activeSlot;
#X obj 265 485 array set \$0-activeSlot;
#X msg 265 428 1;
#X obj 245 504 s \$0-setColor;
#X obj 295 447 t f f;
#X obj 322 466 s \$0-slot;
#N canvas 2 109 273 229 2_CLICK 0;
#X obj 103 71 inlet;
#X obj 103 100 t b b;
#X obj 103 119 timer;
#X obj 103 157 sel 1;
#X obj 103 138 < 200;
#X obj 103 176 s \$0-load;
#X text 36 16 ** LÊ SLOT ATUAL QUANDO RECEBE DUPLO CLIQUE (< 200ms)
, f 30;
#X connect 0 0 1 0;
#X connect 1 0 2 0;
#X connect 1 1 2 1;
#X connect 2 0 4 0;
#X connect 3 0 5 0;
#X connect 4 0 3 0;
#X restore 340 409 pd 2_CLICK;
#X obj 245 391 t b b b b b;
#X msg 540 428 const 0;
#X obj 540 447 s \$0-activeSlot;
#X obj 465 485 array set \$0-activeSlot;
#X msg 465 428 1;
#X obj 445 504 s \$0-setColor;
#X obj 495 447 t f f;
#X obj 522 466 s \$0-slot;
#N canvas 2 137 273 229 2_CLICK 0;
#X obj 103 71 inlet;
#X obj 103 100 t b b;
#X obj 103 119 timer;
#X obj 103 157 sel 1;
#X obj 103 138 < 200;
#X obj 103 176 s \$0-load;
#X text 36 16 ** LÊ SLOT ATUAL QUANDO RECEBE DUPLO CLIQUE (< 200ms)
, f 30;
#X connect 0 0 1 0;
#X connect 1 0 2 0;
#X connect 1 1 2 1;
#X connect 2 0 4 0;
#X connect 3 0 5 0;
#X connect 4 0 3 0;
#X restore 540 409 pd 2_CLICK;
#X obj 445 391 t b b b b b;
#X msg 740 428 const 0;
#X obj 740 447 s \$0-activeSlot;
#X obj 665 485 array set \$0-activeSlot;
#X msg 665 428 1;
#X obj 645 504 s \$0-setColor;
#X obj 695 447 t f f;
#X obj 722 466 s \$0-slot;
#N canvas 2 109 273 229 2_CLICK 0;
#X obj 103 71 inlet;
#X obj 103 100 t b b;
#X obj 103 119 timer;
#X obj 103 157 sel 1;
#X obj 103 138 < 200;
#X obj 103 176 s \$0-load;
#X text 36 16 ** LÊ SLOT ATUAL QUANDO RECEBE DUPLO CLIQUE (< 200ms)
, f 30;
#X connect 0 0 1 0;
#X connect 1 0 2 0;
#X connect 1 1 2 1;
#X connect 2 0 4 0;
#X connect 3 0 5 0;
#X connect 4 0 3 0;
#X restore 740 409 pd 2_CLICK;
#X obj 645 391 t b b b b b;
#X msg 140 588 const 0;
#X obj 140 607 s \$0-activeSlot;
#X obj 65 645 array set \$0-activeSlot;
#X msg 65 588 1;
#X obj 45 664 s \$0-setColor;
#X obj 95 607 t f f;
#X obj 122 626 s \$0-slot;
#N canvas 2 109 273 229 2_CLICK 0;
#X obj 103 71 inlet;
#X obj 103 100 t b b;
#X obj 103 119 timer;
#X obj 103 157 sel 1;
#X obj 103 138 < 200;
#X obj 103 176 s \$0-load;
#X text 36 16 ** LÊ SLOT ATUAL QUANDO RECEBE DUPLO CLIQUE (< 200ms)
, f 30;
#X connect 0 0 1 0;
#X connect 1 0 2 0;
#X connect 1 1 2 1;
#X connect 2 0 4 0;
#X connect 3 0 5 0;
#X connect 4 0 3 0;
#X restore 140 569 pd 2_CLICK;
#X obj 45 551 t b b b b b;
#X msg 340 588 const 0;
#X obj 340 607 s \$0-activeSlot;
#X obj 265 645 array set \$0-activeSlot;
#X msg 265 588 1;
#X obj 245 664 s \$0-setColor;
#X obj 295 607 t f f;
#X obj 322 626 s \$0-slot;
#N canvas 2 109 273 229 2_CLICK 0;
#X obj 103 71 inlet;
#X obj 103 100 t b b;
#X obj 103 119 timer;
#X obj 103 157 sel 1;
#X obj 103 138 < 200;
#X obj 103 176 s \$0-load;
#X text 36 16 ** LÊ SLOT ATUAL QUANDO RECEBE DUPLO CLIQUE (< 200ms)
, f 30;
#X connect 0 0 1 0;
#X connect 1 0 2 0;
#X connect 1 1 2 1;
#X connect 2 0 4 0;
#X connect 3 0 5 0;
#X connect 4 0 3 0;
#X restore 340 569 pd 2_CLICK;
#X obj 245 551 t b b b b b;
#X msg 540 588 const 0;
#X obj 540 607 s \$0-activeSlot;
#X obj 465 645 array set \$0-activeSlot;
#X msg 465 588 1;
#X obj 445 664 s \$0-setColor;
#X obj 495 607 t f f;
#X obj 522 626 s \$0-slot;
#N canvas 2 109 273 229 2_CLICK 0;
#X obj 103 71 inlet;
#X obj 103 100 t b b;
#X obj 103 119 timer;
#X obj 103 157 sel 1;
#X obj 103 138 < 200;
#X obj 103 176 s \$0-load;
#X text 36 16 ** LÊ SLOT ATUAL QUANDO RECEBE DUPLO CLIQUE (< 200ms)
, f 30;
#X connect 0 0 1 0;
#X connect 1 0 2 0;
#X connect 1 1 2 1;
#X connect 2 0 4 0;
#X connect 3 0 5 0;
#X connect 4 0 3 0;
#X restore 540 569 pd 2_CLICK;
#X obj 445 551 t b b b b b;
#X msg 740 588 const 0;
#X obj 740 607 s \$0-activeSlot;
#X obj 665 645 array set \$0-activeSlot;
#X msg 665 588 1;
#X obj 645 664 s \$0-setColor;
#X obj 695 607 t f f;
#X obj 722 626 s \$0-slot;
#N canvas 2 109 273 229 2_CLICK 0;
#X obj 103 71 inlet;
#X obj 103 100 t b b;
#X obj 103 119 timer;
#X obj 103 157 sel 1;
#X obj 103 138 < 200;
#X obj 103 176 s \$0-load;
#X text 36 16 ** LÊ SLOT ATUAL QUANDO RECEBE DUPLO CLIQUE (< 200ms)
, f 30;
#X connect 0 0 1 0;
#X connect 1 0 2 0;
#X connect 1 1 2 1;
#X connect 2 0 4 0;
#X connect 3 0 5 0;
#X connect 4 0 3 0;
#X restore 740 569 pd 2_CLICK;
#X obj 645 551 t b b b b b;
#X obj 45 212 r \$0-click4;
#X obj 245 212 r \$0-click5;
#X obj 445 212 r \$0-click6;
#X obj 645 212 r \$0-click7;
#X obj 45 372 r \$0-click8;
#X obj 245 372 r \$0-click9;
#X obj 445 372 r \$0-click10;
#X obj 645 372 r \$0-click11;
#X obj 45 532 r \$0-click12;
#X obj 245 532 r \$0-click13;
#X obj 445 532 r \$0-click14;
#X obj 645 532 r \$0-click15;
#X obj 95 268 f 4;
#X obj 295 268 f 5;
#X obj 495 268 f 6;
#X obj 695 268 f 7;
#X obj 95 428 f 8;
#X obj 295 428 f 9;
#X obj 495 428 f 10;
#X obj 695 428 f 11;
#X obj 95 588 f 12;
#X obj 295 588 f 13;
#X obj 495 588 f 14;
#X obj 695 588 f 15;
#X connect 0 0 11 0;
#X connect 1 0 2 0;
#X connect 4 0 7 0;
#X connect 5 0 3 0;
#X connect 7 0 3 1;
#X connect 7 1 8 0;
#X connect 11 0 6 0;
#X connect 11 1 5 0;
#X connect 11 2 4 0;
#X connect 11 3 1 0;
#X connect 11 4 10 0;
#X connect 12 0 13 0;
#X connect 15 0 14 0;
#X connect 17 0 14 1;
#X connect 17 1 18 0;
#X connect 20 0 16 0;
#X connect 20 1 15 0;
#X connect 20 2 42 0;
#X connect 20 3 12 0;
#X connect 20 4 19 0;
#X connect 21 0 22 0;
#X connect 24 0 23 0;
#X connect 26 0 23 1;
#X connect 26 1 27 0;
#X connect 29 0 25 0;
#X connect 29 1 24 0;
#X connect 29 2 43 0;
#X connect 29 3 21 0;
#X connect 29 4 28 0;
#X connect 30 0 31 0;
#X connect 33 0 32 0;
#X connect 35 0 32 1;
#X connect 35 1 36 0;
#X connect 38 0 34 0;
#X connect 38 1 33 0;
#X connect 38 2 44 0;
#X connect 38 3 30 0;
#X connect 38 4 37 0;
#X connect 39 0 20 0;
#X connect 40 0 29 0;
#X connect 41 0 38 0;
#X connect 42 0 17 0;
#X connect 43 0 26 0;
#X connect 44 0 35 0;
#X connect 45 0 46 0;
#X connect 48 0 47 0;
#X connect 50 0 47 1;
#X connect 50 1 51 0;
#X connect 53 0 49 0;
#X connect 53 1 48 0;
#X connect 53 2 165 0;
#X connect 53 3 45 0;
#X connect 53 4 52 0;
#X connect 54 0 55 0;
#X connect 57 0 56 0;
#X connect 59 0 56 1;
#X connect 59 1 60 0;
#X connect 62 0 58 0;
#X connect 62 1 57 0;
#X connect 62 2 166 0;
#X connect 62 3 54 0;
#X connect 62 4 61 0;
#X connect 63 0 64 0;
#X connect 66 0 65 0;
#X connect 68 0 65 1;
#X connect 68 1 69 0;
#X connect 71 0 67 0;
#X connect 71 1 66 0;
#X connect 71 2 167 0;
#X connect 71 3 63 0;
#X connect 71 4 70 0;
#X connect 72 0 73 0;
#X connect 75 0 74 0;
#X connect 77 0 74 1;
#X connect 77 1 78 0;
#X connect 80 0 76 0;
#X connect 80 1 75 0;
#X connect 80 2 168 0;
#X connect 80 3 72 0;
#X connect 80 4 79 0;
#X connect 81 0 82 0;
#X connect 84 0 83 0;
#X connect 86 0 83 1;
#X connect 86 1 87 0;
#X connect 89 0 85 0;
#X connect 89 1 84 0;
#X connect 89 2 169 0;
#X connect 89 3 81 0;
#X connect 89 4 88 0;
#X connect 90 0 91 0;
#X connect 93 0 92 0;
#X connect 95 0 92 1;
#X connect 95 1 96 0;
#X connect 98 0 94 0;
#X connect 98 1 93 0;
#X connect 98 2 170 0;
#X connect 98 3 90 0;
#X connect 98 4 97 0;
#X connect 99 0 100 0;
#X connect 102 0 101 0;
#X connect 104 0 101 1;
#X connect 104 1 105 0;
#X connect 107 0 103 0;
#X connect 107 1 102 0;
#X connect 107 2 171 0;
#X connect 107 3 99 0;
#X connect 107 4 106 0;
#X connect 108 0 109 0;
#X connect 111 0 110 0;
#X connect 113 0 110 1;
#X connect 113 1 114 0;
#X connect 116 0 112 0;
#X connect 116 1 111 0;
#X connect 116 2 172 0;
#X connect 116 3 108 0;
#X connect 116 4 115 0;
#X connect 117 0 118 0;
#X connect 120 0 119 0;
#X connect 122 0 119 1;
#X connect 122 1 123 0;
#X connect 125 0 121 0;
#X connect 125 1 120 0;
#X connect 125 2 173 0;
#X connect 125 3 117 0;
#X connect 125 4 124 0;
#X connect 126 0 127 0;
#X connect 129 0 128 0;
#X connect 131 0 128 1;
#X connect 131 1 132 0;
#X connect 134 0 130 0;
#X connect 134 1 129 0;
#X connect 134 2 174 0;
#X connect 134 3 126 0;
#X connect 134 4 133 0;
#X connect 135 0 136 0;
#X connect 138 0 137 0;
#X connect 140 0 137 1;
#X connect 140 1 141 0;
#X connect 143 0 139 0;
#X connect 143 1 138 0;
#X connect 143 2 175 0;
#X connect 143 3 135 0;
#X connect 143 4 142 0;
#X connect 144 0 145 0;
#X connect 147 0 146 0;
#X connect 149 0 146 1;
#X connect 149 1 150 0;
#X connect 152 0 148 0;
#X connect 152 1 147 0;
#X connect 152 2 176 0;
#X connect 152 3 144 0;
#X connect 152 4 151 0;
#X connect 153 0 53 0;
#X connect 154 0 62 0;
#X connect 155 0 71 0;
#X connect 156 0 80 0;
#X connect 157 0 89 0;
#X connect 158 0 98 0;
#X connect 159 0 107 0;
#X connect 160 0 116 0;
#X connect 161 0 125 0;
#X connect 162 0 134 0;
#X connect 163 0 143 0;
#X connect 164 0 152 0;
#X connect 165 0 50 0;
#X connect 166 0 59 0;
#X connect 167 0 68 0;
#X connect 168 0 77 0;
#X connect 169 0 86 0;
#X connect 170 0 95 0;
#X connect 171 0 104 0;
#X connect 172 0 113 0;
#X connect 173 0 122 0;
#X connect 174 0 131 0;
#X connect 175 0 140 0;
#X connect 176 0 149 0;
#X restore 50 109 pd SLOTS_0-15;
#N canvas 2 53 895 725 SLOTS_16-31 0;
#X msg 140 108 const 0;
#X obj 140 127 s \$0-activeSlot;
#X obj 65 165 array set \$0-activeSlot;
#X msg 65 108 1;
#X obj 45 184 s \$0-setColor;
#X obj 95 127 t f f;
#X obj 122 146 s \$0-slot;
#X text 43 29 CLIQUES NA INTERFACE;
#N canvas 2 109 273 229 2_CLICK 0;
#X obj 103 71 inlet;
#X obj 103 100 t b b;
#X obj 103 119 timer;
#X obj 103 157 sel 1;
#X obj 103 138 < 200;
#X obj 103 176 s \$0-load;
#X text 36 16 ** LÊ SLOT ATUAL QUANDO RECEBE DUPLO CLIQUE (< 200ms)
, f 30;
#X connect 0 0 1 0;
#X connect 1 0 2 0;
#X connect 1 1 2 1;
#X connect 2 0 4 0;
#X connect 3 0 5 0;
#X connect 4 0 3 0;
#X restore 140 89 pd 2_CLICK;
#X obj 45 71 t b b b b b;
#X msg 340 108 const 0;
#X obj 340 127 s \$0-activeSlot;
#X obj 265 165 array set \$0-activeSlot;
#X msg 265 108 1;
#X obj 245 184 s \$0-setColor;
#X obj 295 127 t f f;
#X obj 322 146 s \$0-slot;
#N canvas 2 109 273 229 2_CLICK 0;
#X obj 103 71 inlet;
#X obj 103 100 t b b;
#X obj 103 119 timer;
#X obj 103 157 sel 1;
#X obj 103 138 < 200;
#X obj 103 176 s \$0-load;
#X text 36 16 ** LÊ SLOT ATUAL QUANDO RECEBE DUPLO CLIQUE (< 200ms)
, f 30;
#X connect 0 0 1 0;
#X connect 1 0 2 0;
#X connect 1 1 2 1;
#X connect 2 0 4 0;
#X connect 3 0 5 0;
#X connect 4 0 3 0;
#X restore 340 89 pd 2_CLICK;
#X obj 245 71 t b b b b b;
#X msg 540 108 const 0;
#X obj 540 127 s \$0-activeSlot;
#X obj 465 165 array set \$0-activeSlot;
#X msg 465 108 1;
#X obj 445 184 s \$0-setColor;
#X obj 495 127 t f f;
#X obj 522 146 s \$0-slot;
#N canvas 2 109 273 229 2_CLICK 0;
#X obj 103 71 inlet;
#X obj 103 100 t b b;
#X obj 103 119 timer;
#X obj 103 157 sel 1;
#X obj 103 138 < 200;
#X obj 103 176 s \$0-load;
#X text 36 16 ** LÊ SLOT ATUAL QUANDO RECEBE DUPLO CLIQUE (< 200ms)
, f 30;
#X connect 0 0 1 0;
#X connect 1 0 2 0;
#X connect 1 1 2 1;
#X connect 2 0 4 0;
#X connect 3 0 5 0;
#X connect 4 0 3 0;
#X restore 540 89 pd 2_CLICK;
#X obj 445 71 t b b b b b;
#X msg 740 108 const 0;
#X obj 740 127 s \$0-activeSlot;
#X obj 665 165 array set \$0-activeSlot;
#X msg 665 108 1;
#X obj 645 184 s \$0-setColor;
#X obj 695 127 t f f;
#X obj 722 146 s \$0-slot;
#N canvas 2 109 273 229 2_CLICK 0;
#X obj 103 71 inlet;
#X obj 103 100 t b b;
#X obj 103 119 timer;
#X obj 103 157 sel 1;
#X obj 103 138 < 200;
#X obj 103 176 s \$0-load;
#X text 36 16 ** LÊ SLOT ATUAL QUANDO RECEBE DUPLO CLIQUE (< 200ms)
, f 30;
#X connect 0 0 1 0;
#X connect 1 0 2 0;
#X connect 1 1 2 1;
#X connect 2 0 4 0;
#X connect 3 0 5 0;
#X connect 4 0 3 0;
#X restore 740 89 pd 2_CLICK;
#X obj 645 71 t b b b b b;
#X msg 140 268 const 0;
#X obj 140 287 s \$0-activeSlot;
#X obj 65 325 array set \$0-activeSlot;
#X msg 65 268 1;
#X obj 45 344 s \$0-setColor;
#X obj 95 287 t f f;
#X obj 122 306 s \$0-slot;
#N canvas 2 109 273 229 2_CLICK 0;
#X obj 103 71 inlet;
#X obj 103 100 t b b;
#X obj 103 119 timer;
#X obj 103 157 sel 1;
#X obj 103 138 < 200;
#X obj 103 176 s \$0-load;
#X text 36 16 ** LÊ SLOT ATUAL QUANDO RECEBE DUPLO CLIQUE (< 200ms)
, f 30;
#X connect 0 0 1 0;
#X connect 1 0 2 0;
#X connect 1 1 2 1;
#X connect 2 0 4 0;
#X connect 3 0 5 0;
#X connect 4 0 3 0;
#X restore 140 249 pd 2_CLICK;
#X obj 45 231 t b b b b b;
#X msg 340 268 const 0;
#X obj 340 287 s \$0-activeSlot;
#X obj 265 325 array set \$0-activeSlot;
#X msg 265 268 1;
#X obj 245 344 s \$0-setColor;
#X obj 295 287 t f f;
#X obj 322 306 s \$0-slot;
#N canvas 2 109 273 229 2_CLICK 0;
#X obj 103 71 inlet;
#X obj 103 100 t b b;
#X obj 103 119 timer;
#X obj 103 157 sel 1;
#X obj 103 138 < 200;
#X obj 103 176 s \$0-load;
#X text 36 16 ** LÊ SLOT ATUAL QUANDO RECEBE DUPLO CLIQUE (< 200ms)
, f 30;
#X connect 0 0 1 0;
#X connect 1 0 2 0;
#X connect 1 1 2 1;
#X connect 2 0 4 0;
#X connect 3 0 5 0;
#X connect 4 0 3 0;
#X restore 340 249 pd 2_CLICK;
#X obj 245 231 t b b b b b;
#X msg 540 268 const 0;
#X obj 540 287 s \$0-activeSlot;
#X obj 465 325 array set \$0-activeSlot;
#X msg 465 268 1;
#X obj 445 344 s \$0-setColor;
#X obj 495 287 t f f;
#X obj 522 306 s \$0-slot;
#N canvas 2 109 273 229 2_CLICK 0;
#X obj 103 71 inlet;
#X obj 103 100 t b b;
#X obj 103 119 timer;
#X obj 103 157 sel 1;
#X obj 103 138 < 200;
#X obj 103 176 s \$0-load;
#X text 36 16 ** LÊ SLOT ATUAL QUANDO RECEBE DUPLO CLIQUE (< 200ms)
, f 30;
#X connect 0 0 1 0;
#X connect 1 0 2 0;
#X connect 1 1 2 1;
#X connect 2 0 4 0;
#X connect 3 0 5 0;
#X connect 4 0 3 0;
#X restore 540 249 pd 2_CLICK;
#X obj 445 231 t b b b b b;
#X msg 740 268 const 0;
#X obj 740 287 s \$0-activeSlot;
#X obj 665 325 array set \$0-activeSlot;
#X msg 665 268 1;
#X obj 645 344 s \$0-setColor;
#X obj 695 287 t f f;
#X obj 722 306 s \$0-slot;
#N canvas 2 109 273 229 2_CLICK 0;
#X obj 103 71 inlet;
#X obj 103 100 t b b;
#X obj 103 119 timer;
#X obj 103 157 sel 1;
#X obj 103 138 < 200;
#X obj 103 176 s \$0-load;
#X text 36 16 ** LÊ SLOT ATUAL QUANDO RECEBE DUPLO CLIQUE (< 200ms)
, f 30;
#X connect 0 0 1 0;
#X connect 1 0 2 0;
#X connect 1 1 2 1;
#X connect 2 0 4 0;
#X connect 3 0 5 0;
#X connect 4 0 3 0;
#X restore 740 249 pd 2_CLICK;
#X obj 645 231 t b b b b b;
#X msg 140 428 const 0;
#X obj 140 447 s \$0-activeSlot;
#X obj 65 485 array set \$0-activeSlot;
#X msg 65 428 1;
#X obj 45 504 s \$0-setColor;
#X obj 95 447 t f f;
#X obj 122 466 s \$0-slot;
#N canvas 2 109 273 229 2_CLICK 0;
#X obj 103 71 inlet;
#X obj 103 100 t b b;
#X obj 103 119 timer;
#X obj 103 157 sel 1;
#X obj 103 138 < 200;
#X obj 103 176 s \$0-load;
#X text 36 16 ** LÊ SLOT ATUAL QUANDO RECEBE DUPLO CLIQUE (< 200ms)
, f 30;
#X connect 0 0 1 0;
#X connect 1 0 2 0;
#X connect 1 1 2 1;
#X connect 2 0 4 0;
#X connect 3 0 5 0;
#X connect 4 0 3 0;
#X restore 140 409 pd 2_CLICK;
#X obj 45 391 t b b b b b;
#X msg 340 428 const 0;
#X obj 340 447 s \$0-activeSlot;
#X obj 265 485 array set \$0-activeSlot;
#X msg 265 428 1;
#X obj 245 504 s \$0-setColor;
#X obj 295 447 t f f;
#X obj 322 466 s \$0-slot;
#N canvas 2 109 273 229 2_CLICK 0;
#X obj 103 71 inlet;
#X obj 103 100 t b b;
#X obj 103 119 timer;
#X obj 103 157 sel 1;
#X obj 103 138 < 200;
#X obj 103 176 s \$0-load;
#X text 36 16 ** LÊ SLOT ATUAL QUANDO RECEBE DUPLO CLIQUE (< 200ms)
, f 30;
#X connect 0 0 1 0;
#X connect 1 0 2 0;
#X connect 1 1 2 1;
#X connect 2 0 4 0;
#X connect 3 0 5 0;
#X connect 4 0 3 0;
#X restore 340 409 pd 2_CLICK;
#X obj 245 391 t b b b b b;
#X msg 540 428 const 0;
#X obj 540 447 s \$0-activeSlot;
#X obj 465 485 array set \$0-activeSlot;
#X msg 465 428 1;
#X obj 445 504 s \$0-setColor;
#X obj 495 447 t f f;
#X obj 522 466 s \$0-slot;
#N canvas 2 137 273 229 2_CLICK 0;
#X obj 103 71 inlet;
#X obj 103 100 t b b;
#X obj 103 119 timer;
#X obj 103 157 sel 1;
#X obj 103 138 < 200;
#X obj 103 176 s \$0-load;
#X text 36 16 ** LÊ SLOT ATUAL QUANDO RECEBE DUPLO CLIQUE (< 200ms)
, f 30;
#X connect 0 0 1 0;
#X connect 1 0 2 0;
#X connect 1 1 2 1;
#X connect 2 0 4 0;
#X connect 3 0 5 0;
#X connect 4 0 3 0;
#X restore 540 409 pd 2_CLICK;
#X obj 445 391 t b b b b b;
#X msg 740 428 const 0;
#X obj 740 447 s \$0-activeSlot;
#X obj 665 485 array set \$0-activeSlot;
#X msg 665 428 1;
#X obj 645 504 s \$0-setColor;
#X obj 695 447 t f f;
#X obj 722 466 s \$0-slot;
#N canvas 2 109 273 229 2_CLICK 0;
#X obj 103 71 inlet;
#X obj 103 100 t b b;
#X obj 103 119 timer;
#X obj 103 157 sel 1;
#X obj 103 138 < 200;
#X obj 103 176 s \$0-load;
#X text 36 16 ** LÊ SLOT ATUAL QUANDO RECEBE DUPLO CLIQUE (< 200ms)
, f 30;
#X connect 0 0 1 0;
#X connect 1 0 2 0;
#X connect 1 1 2 1;
#X connect 2 0 4 0;
#X connect 3 0 5 0;
#X connect 4 0 3 0;
#X restore 740 409 pd 2_CLICK;
#X obj 645 391 t b b b b b;
#X msg 140 588 const 0;
#X obj 140 607 s \$0-activeSlot;
#X obj 65 645 array set \$0-activeSlot;
#X msg 65 588 1;
#X obj 45 664 s \$0-setColor;
#X obj 95 607 t f f;
#X obj 122 626 s \$0-slot;
#N canvas 2 109 273 229 2_CLICK 0;
#X obj 103 71 inlet;
#X obj 103 100 t b b;
#X obj 103 119 timer;
#X obj 103 157 sel 1;
#X obj 103 138 < 200;
#X obj 103 176 s \$0-load;
#X text 36 16 ** LÊ SLOT ATUAL QUANDO RECEBE DUPLO CLIQUE (< 200ms)
, f 30;
#X connect 0 0 1 0;
#X connect 1 0 2 0;
#X connect 1 1 2 1;
#X connect 2 0 4 0;
#X connect 3 0 5 0;
#X connect 4 0 3 0;
#X restore 140 569 pd 2_CLICK;
#X obj 45 551 t b b b b b;
#X msg 340 588 const 0;
#X obj 340 607 s \$0-activeSlot;
#X obj 265 645 array set \$0-activeSlot;
#X msg 265 588 1;
#X obj 245 664 s \$0-setColor;
#X obj 295 607 t f f;
#X obj 322 626 s \$0-slot;
#N canvas 2 109 273 229 2_CLICK 0;
#X obj 103 71 inlet;
#X obj 103 100 t b b;
#X obj 103 119 timer;
#X obj 103 157 sel 1;
#X obj 103 138 < 200;
#X obj 103 176 s \$0-load;
#X text 36 16 ** LÊ SLOT ATUAL QUANDO RECEBE DUPLO CLIQUE (< 200ms)
, f 30;
#X connect 0 0 1 0;
#X connect 1 0 2 0;
#X connect 1 1 2 1;
#X connect 2 0 4 0;
#X connect 3 0 5 0;
#X connect 4 0 3 0;
#X restore 340 569 pd 2_CLICK;
#X obj 245 551 t b b b b b;
#X msg 540 588 const 0;
#X obj 540 607 s \$0-activeSlot;
#X obj 465 645 array set \$0-activeSlot;
#X msg 465 588 1;
#X obj 445 664 s \$0-setColor;
#X obj 495 607 t f f;
#X obj 522 626 s \$0-slot;
#N canvas 2 109 273 229 2_CLICK 0;
#X obj 103 71 inlet;
#X obj 103 100 t b b;
#X obj 103 119 timer;
#X obj 103 157 sel 1;
#X obj 103 138 < 200;
#X obj 103 176 s \$0-load;
#X text 36 16 ** LÊ SLOT ATUAL QUANDO RECEBE DUPLO CLIQUE (< 200ms)
, f 30;
#X connect 0 0 1 0;
#X connect 1 0 2 0;
#X connect 1 1 2 1;
#X connect 2 0 4 0;
#X connect 3 0 5 0;
#X connect 4 0 3 0;
#X restore 540 569 pd 2_CLICK;
#X obj 445 551 t b b b b b;
#X msg 740 588 const 0;
#X obj 740 607 s \$0-activeSlot;
#X obj 665 645 array set \$0-activeSlot;
#X msg 665 588 1;
#X obj 645 664 s \$0-setColor;
#X obj 695 607 t f f;
#X obj 722 626 s \$0-slot;
#N canvas 2 109 273 229 2_CLICK 0;
#X obj 103 71 inlet;
#X obj 103 100 t b b;
#X obj 103 119 timer;
#X obj 103 157 sel 1;
#X obj 103 138 < 200;
#X obj 103 176 s \$0-load;
#X text 36 16 ** LÊ SLOT ATUAL QUANDO RECEBE DUPLO CLIQUE (< 200ms)
, f 30;
#X connect 0 0 1 0;
#X connect 1 0 2 0;
#X connect 1 1 2 1;
#X connect 2 0 4 0;
#X connect 3 0 5 0;
#X connect 4 0 3 0;
#X restore 740 569 pd 2_CLICK;
#X obj 645 551 t b b b b b;
#X obj 45 52 r \$0-click16;
#X obj 95 108 f 16;
#X obj 245 52 r \$0-click17;
#X obj 295 108 f 17;
#X obj 445 52 r \$0-click18;
#X obj 495 108 f 18;
#X obj 645 52 r \$0-click19;
#X obj 695 108 f 19;
#X obj 45 212 r \$0-click20;
#X obj 95 268 f 20;
#X obj 245 212 r \$0-click21;
#X obj 295 268 f 21;
#X obj 445 212 r \$0-click22;
#X obj 495 268 f 22;
#X obj 645 212 r \$0-click23;
#X obj 695 268 f 23;
#X obj 45 372 r \$0-click24;
#X obj 95 428 f 24;
#X obj 245 372 r \$0-click25;
#X obj 295 428 f 25;
#X obj 445 372 r \$0-click26;
#X obj 495 428 f 26;
#X obj 645 372 r \$0-click27;
#X obj 695 428 f 27;
#X obj 45 532 r \$0-click28;
#X obj 95 588 f 28;
#X obj 245 532 r \$0-click29;
#X obj 295 588 f 29;
#X obj 445 532 r \$0-click30;
#X obj 495 588 f 30;
#X obj 645 532 r \$0-click31;
#X obj 695 588 f 31;
#X connect 0 0 1 0;
#X connect 3 0 2 0;
#X connect 5 0 2 1;
#X connect 5 1 6 0;
#X connect 9 0 4 0;
#X connect 9 1 3 0;
#X connect 9 2 146 0;
#X connect 9 3 0 0;
#X connect 9 4 8 0;
#X connect 10 0 11 0;
#X connect 13 0 12 0;
#X connect 15 0 12 1;
#X connect 15 1 16 0;
#X connect 18 0 14 0;
#X connect 18 1 13 0;
#X connect 18 2 148 0;
#X connect 18 3 10 0;
#X connect 18 4 17 0;
#X connect 19 0 20 0;
#X connect 22 0 21 0;
#X connect 24 0 21 1;
#X connect 24 1 25 0;
#X connect 27 0 23 0;
#X connect 27 1 22 0;
#X connect 27 2 150 0;
#X connect 27 3 19 0;
#X connect 27 4 26 0;
#X connect 28 0 29 0;
#X connect 31 0 30 0;
#X connect 33 0 30 1;
#X connect 33 1 34 0;
#X connect 36 0 32 0;
#X connect 36 1 31 0;
#X connect 36 2 152 0;
#X connect 36 3 28 0;
#X connect 36 4 35 0;
#X connect 37 0 38 0;
#X connect 40 0 39 0;
#X connect 42 0 39 1;
#X connect 42 1 43 0;
#X connect 45 0 41 0;
#X connect 45 1 40 0;
#X connect 45 2 154 0;
#X connect 45 3 37 0;
#X connect 45 4 44 0;
#X connect 46 0 47 0;
#X connect 49 0 48 0;
#X connect 51 0 48 1;
#X connect 51 1 52 0;
#X connect 54 0 50 0;
#X connect 54 1 49 0;
#X connect 54 2 156 0;
#X connect 54 3 46 0;
#X connect 54 4 53 0;
#X connect 55 0 56 0;
#X connect 58 0 57 0;
#X connect 60 0 57 1;
#X connect 60 1 61 0;
#X connect 63 0 59 0;
#X connect 63 1 58 0;
#X connect 63 2 158 0;
#X connect 63 3 55 0;
#X connect 63 4 62 0;
#X connect 64 0 65 0;
#X connect 67 0 66 0;
#X connect 69 0 66 1;
#X connect 69 1 70 0;
#X connect 72 0 68 0;
#X connect 72 1 67 0;
#X connect 72 2 160 0;
#X connect 72 3 64 0;
#X connect 72 4 71 0;
#X connect 73 0 74 0;
#X connect 76 0 75 0;
#X connect 78 0 75 1;
#X connect 78 1 79 0;
#X connect 81 0 77 0;
#X connect 81 1 76 0;
#X connect 81 2 162 0;
#X connect 81 3 73 0;
#X connect 81 4 80 0;
#X connect 82 0 83 0;
#X connect 85 0 84 0;
#X connect 87 0 84 1;
#X connect 87 1 88 0;
#X connect 90 0 86 0;
#X connect 90 1 85 0;
#X connect 90 2 164 0;
#X connect 90 3 82 0;
#X connect 90 4 89 0;
#X connect 91 0 92 0;
#X connect 94 0 93 0;
#X connect 96 0 93 1;
#X connect 96 1 97 0;
#X connect 99 0 95 0;
#X connect 99 1 94 0;
#X connect 99 2 166 0;
#X connect 99 3 91 0;
#X connect 99 4 98 0;
#X connect 100 0 101 0;
#X connect 103 0 102 0;
#X connect 105 0 102 1;
#X connect 105 1 106 0;
#X connect 108 0 104 0;
#X connect 108 1 103 0;
#X connect 108 2 168 0;
#X connect 108 3 100 0;
#X connect 108 4 107 0;
#X connect 109 0 110 0;
#X connect 112 0 111 0;
#X connect 114 0 111 1;
#X connect 114 1 115 0;
#X connect 117 0 113 0;
#X connect 117 1 112 0;
#X connect 117 2 170 0;
#X connect 117 3 109 0;
#X connect 117 4 116 0;
#X connect 118 0 119 0;
#X connect 121 0 120 0;
#X connect 123 0 120 1;
#X connect 123 1 124 0;
#X connect 126 0 122 0;
#X connect 126 1 121 0;
#X connect 126 2 172 0;
#X connect 126 3 118 0;
#X connect 126 4 125 0;
#X connect 127 0 128 0;
#X connect 130 0 129 0;
#X connect 132 0 129 1;
#X connect 132 1 133 0;
#X connect 135 0 131 0;
#X connect 135 1 130 0;
#X connect 135 2 174 0;
#X connect 135 3 127 0;
#X connect 135 4 134 0;
#X connect 136 0 137 0;
#X connect 139 0 138 0;
#X connect 141 0 138 1;
#X connect 141 1 142 0;
#X connect 144 0 140 0;
#X connect 144 1 139 0;
#X connect 144 2 176 0;
#X connect 144 3 136 0;
#X connect 144 4 143 0;
#X connect 145 0 9 0;
#X connect 146 0 5 0;
#X connect 147 0 18 0;
#X connect 148 0 15 0;
#X connect 149 0 27 0;
#X connect 150 0 24 0;
#X connect 151 0 36 0;
#X connect 152 0 33 0;
#X connect 153 0 45 0;
#X connect 154 0 42 0;
#X connect 155 0 54 0;
#X connect 156 0 51 0;
#X connect 157 0 63 0;
#X connect 158 0 60 0;
#X connect 159 0 72 0;
#X connect 160 0 69 0;
#X connect 161 0 81 0;
#X connect 162 0 78 0;
#X connect 163 0 90 0;
#X connect 164 0 87 0;
#X connect 165 0 99 0;
#X connect 166 0 96 0;
#X connect 167 0 108 0;
#X connect 168 0 105 0;
#X connect 169 0 117 0;
#X connect 170 0 114 0;
#X connect 171 0 126 0;
#X connect 172 0 123 0;
#X connect 173 0 135 0;
#X connect 174 0 132 0;
#X connect 175 0 144 0;
#X connect 176 0 141 0;
#X restore 50 128 pd SLOTS_16-31;
#N canvas 2 53 895 725 SLOTS_32-47 0;
#X msg 140 108 const 0;
#X obj 140 127 s \$0-activeSlot;
#X obj 65 165 array set \$0-activeSlot;
#X msg 65 108 1;
#X obj 45 184 s \$0-setColor;
#X obj 95 127 t f f;
#X obj 122 146 s \$0-slot;
#X text 43 29 CLIQUES NA INTERFACE;
#N canvas 2 109 273 229 2_CLICK 0;
#X obj 103 71 inlet;
#X obj 103 100 t b b;
#X obj 103 119 timer;
#X obj 103 157 sel 1;
#X obj 103 138 < 200;
#X obj 103 176 s \$0-load;
#X text 36 16 ** LÊ SLOT ATUAL QUANDO RECEBE DUPLO CLIQUE (< 200ms)
, f 30;
#X connect 0 0 1 0;
#X connect 1 0 2 0;
#X connect 1 1 2 1;
#X connect 2 0 4 0;
#X connect 3 0 5 0;
#X connect 4 0 3 0;
#X restore 140 89 pd 2_CLICK;
#X obj 45 71 t b b b b b;
#X msg 340 108 const 0;
#X obj 340 127 s \$0-activeSlot;
#X obj 265 165 array set \$0-activeSlot;
#X msg 265 108 1;
#X obj 245 184 s \$0-setColor;
#X obj 295 127 t f f;
#X obj 322 146 s \$0-slot;
#N canvas 2 109 273 229 2_CLICK 0;
#X obj 103 71 inlet;
#X obj 103 100 t b b;
#X obj 103 119 timer;
#X obj 103 157 sel 1;
#X obj 103 138 < 200;
#X obj 103 176 s \$0-load;
#X text 36 16 ** LÊ SLOT ATUAL QUANDO RECEBE DUPLO CLIQUE (< 200ms)
, f 30;
#X connect 0 0 1 0;
#X connect 1 0 2 0;
#X connect 1 1 2 1;
#X connect 2 0 4 0;
#X connect 3 0 5 0;
#X connect 4 0 3 0;
#X restore 340 89 pd 2_CLICK;
#X obj 245 71 t b b b b b;
#X msg 540 108 const 0;
#X obj 540 127 s \$0-activeSlot;
#X obj 465 165 array set \$0-activeSlot;
#X msg 465 108 1;
#X obj 445 184 s \$0-setColor;
#X obj 495 127 t f f;
#X obj 522 146 s \$0-slot;
#N canvas 2 109 273 229 2_CLICK 0;
#X obj 103 71 inlet;
#X obj 103 100 t b b;
#X obj 103 119 timer;
#X obj 103 157 sel 1;
#X obj 103 138 < 200;
#X obj 103 176 s \$0-load;
#X text 36 16 ** LÊ SLOT ATUAL QUANDO RECEBE DUPLO CLIQUE (< 200ms)
, f 30;
#X connect 0 0 1 0;
#X connect 1 0 2 0;
#X connect 1 1 2 1;
#X connect 2 0 4 0;
#X connect 3 0 5 0;
#X connect 4 0 3 0;
#X restore 540 89 pd 2_CLICK;
#X obj 445 71 t b b b b b;
#X msg 740 108 const 0;
#X obj 740 127 s \$0-activeSlot;
#X obj 665 165 array set \$0-activeSlot;
#X msg 665 108 1;
#X obj 645 184 s \$0-setColor;
#X obj 695 127 t f f;
#X obj 722 146 s \$0-slot;
#N canvas 2 109 273 229 2_CLICK 0;
#X obj 103 71 inlet;
#X obj 103 100 t b b;
#X obj 103 119 timer;
#X obj 103 157 sel 1;
#X obj 103 138 < 200;
#X obj 103 176 s \$0-load;
#X text 36 16 ** LÊ SLOT ATUAL QUANDO RECEBE DUPLO CLIQUE (< 200ms)
, f 30;
#X connect 0 0 1 0;
#X connect 1 0 2 0;
#X connect 1 1 2 1;
#X connect 2 0 4 0;
#X connect 3 0 5 0;
#X connect 4 0 3 0;
#X restore 740 89 pd 2_CLICK;
#X obj 645 71 t b b b b b;
#X msg 140 268 const 0;
#X obj 140 287 s \$0-activeSlot;
#X obj 65 325 array set \$0-activeSlot;
#X msg 65 268 1;
#X obj 45 344 s \$0-setColor;
#X obj 95 287 t f f;
#X obj 122 306 s \$0-slot;
#N canvas 2 109 273 229 2_CLICK 0;
#X obj 103 71 inlet;
#X obj 103 100 t b b;
#X obj 103 119 timer;
#X obj 103 157 sel 1;
#X obj 103 138 < 200;
#X obj 103 176 s \$0-load;
#X text 36 16 ** LÊ SLOT ATUAL QUANDO RECEBE DUPLO CLIQUE (< 200ms)
, f 30;
#X connect 0 0 1 0;
#X connect 1 0 2 0;
#X connect 1 1 2 1;
#X connect 2 0 4 0;
#X connect 3 0 5 0;
#X connect 4 0 3 0;
#X restore 140 249 pd 2_CLICK;
#X obj 45 231 t b b b b b;
#X msg 340 268 const 0;
#X obj 340 287 s \$0-activeSlot;
#X obj 265 325 array set \$0-activeSlot;
#X msg 265 268 1;
#X obj 245 344 s \$0-setColor;
#X obj 295 287 t f f;
#X obj 322 306 s \$0-slot;
#N canvas 2 109 273 229 2_CLICK 0;
#X obj 103 71 inlet;
#X obj 103 100 t b b;
#X obj 103 119 timer;
#X obj 103 157 sel 1;
#X obj 103 138 < 200;
#X obj 103 176 s \$0-load;
#X text 36 16 ** LÊ SLOT ATUAL QUANDO RECEBE DUPLO CLIQUE (< 200ms)
, f 30;
#X connect 0 0 1 0;
#X connect 1 0 2 0;
#X connect 1 1 2 1;
#X connect 2 0 4 0;
#X connect 3 0 5 0;
#X connect 4 0 3 0;
#X restore 340 249 pd 2_CLICK;
#X obj 245 231 t b b b b b;
#X msg 540 268 const 0;
#X obj 540 287 s \$0-activeSlot;
#X obj 465 325 array set \$0-activeSlot;
#X msg 465 268 1;
#X obj 445 344 s \$0-setColor;
#X obj 495 287 t f f;
#X obj 522 306 s \$0-slot;
#N canvas 2 109 273 229 2_CLICK 0;
#X obj 103 71 inlet;
#X obj 103 100 t b b;
#X obj 103 119 timer;
#X obj 103 157 sel 1;
#X obj 103 138 < 200;
#X obj 103 176 s \$0-load;
#X text 36 16 ** LÊ SLOT ATUAL QUANDO RECEBE DUPLO CLIQUE (< 200ms)
, f 30;
#X connect 0 0 1 0;
#X connect 1 0 2 0;
#X connect 1 1 2 1;
#X connect 2 0 4 0;
#X connect 3 0 5 0;
#X connect 4 0 3 0;
#X restore 540 249 pd 2_CLICK;
#X obj 445 231 t b b b b b;
#X msg 740 268 const 0;
#X obj 740 287 s \$0-activeSlot;
#X obj 665 325 array set \$0-activeSlot;
#X msg 665 268 1;
#X obj 645 344 s \$0-setColor;
#X obj 695 287 t f f;
#X obj 722 306 s \$0-slot;
#N canvas 2 109 273 229 2_CLICK 0;
#X obj 103 71 inlet;
#X obj 103 100 t b b;
#X obj 103 119 timer;
#X obj 103 157 sel 1;
#X obj 103 138 < 200;
#X obj 103 176 s \$0-load;
#X text 36 16 ** LÊ SLOT ATUAL QUANDO RECEBE DUPLO CLIQUE (< 200ms)
, f 30;
#X connect 0 0 1 0;
#X connect 1 0 2 0;
#X connect 1 1 2 1;
#X connect 2 0 4 0;
#X connect 3 0 5 0;
#X connect 4 0 3 0;
#X restore 740 249 pd 2_CLICK;
#X obj 645 231 t b b b b b;
#X msg 140 428 const 0;
#X obj 140 447 s \$0-activeSlot;
#X obj 65 485 array set \$0-activeSlot;
#X msg 65 428 1;
#X obj 45 504 s \$0-setColor;
#X obj 95 447 t f f;
#X obj 122 466 s \$0-slot;
#N canvas 2 109 273 229 2_CLICK 0;
#X obj 103 71 inlet;
#X obj 103 100 t b b;
#X obj 103 119 timer;
#X obj 103 157 sel 1;
#X obj 103 138 < 200;
#X obj 103 176 s \$0-load;
#X text 36 16 ** LÊ SLOT ATUAL QUANDO RECEBE DUPLO CLIQUE (< 200ms)
, f 30;
#X connect 0 0 1 0;
#X connect 1 0 2 0;
#X connect 1 1 2 1;
#X connect 2 0 4 0;
#X connect 3 0 5 0;
#X connect 4 0 3 0;
#X restore 140 409 pd 2_CLICK;
#X obj 45 391 t b b b b b;
#X msg 340 428 const 0;
#X obj 340 447 s \$0-activeSlot;
#X obj 265 485 array set \$0-activeSlot;
#X msg 265 428 1;
#X obj 245 504 s \$0-setColor;
#X obj 295 447 t f f;
#X obj 322 466 s \$0-slot;
#N canvas 2 109 273 229 2_CLICK 0;
#X obj 103 71 inlet;
#X obj 103 100 t b b;
#X obj 103 119 timer;
#X obj 103 157 sel 1;
#X obj 103 138 < 200;
#X obj 103 176 s \$0-load;
#X text 36 16 ** LÊ SLOT ATUAL QUANDO RECEBE DUPLO CLIQUE (< 200ms)
, f 30;
#X connect 0 0 1 0;
#X connect 1 0 2 0;
#X connect 1 1 2 1;
#X connect 2 0 4 0;
#X connect 3 0 5 0;
#X connect 4 0 3 0;
#X restore 340 409 pd 2_CLICK;
#X obj 245 391 t b b b b b;
#X msg 540 428 const 0;
#X obj 540 447 s \$0-activeSlot;
#X obj 465 485 array set \$0-activeSlot;
#X msg 465 428 1;
#X obj 445 504 s \$0-setColor;
#X obj 495 447 t f f;
#X obj 522 466 s \$0-slot;
#N canvas 2 137 273 229 2_CLICK 0;
#X obj 103 71 inlet;
#X obj 103 100 t b b;
#X obj 103 119 timer;
#X obj 103 157 sel 1;
#X obj 103 138 < 200;
#X obj 103 176 s \$0-load;
#X text 36 16 ** LÊ SLOT ATUAL QUANDO RECEBE DUPLO CLIQUE (< 200ms)
, f 30;
#X connect 0 0 1 0;
#X connect 1 0 2 0;
#X connect 1 1 2 1;
#X connect 2 0 4 0;
#X connect 3 0 5 0;
#X connect 4 0 3 0;
#X restore 540 409 pd 2_CLICK;
#X obj 445 391 t b b b b b;
#X msg 740 428 const 0;
#X obj 740 447 s \$0-activeSlot;
#X obj 665 485 array set \$0-activeSlot;
#X msg 665 428 1;
#X obj 645 504 s \$0-setColor;
#X obj 695 447 t f f;
#X obj 722 466 s \$0-slot;
#N canvas 2 109 273 229 2_CLICK 0;
#X obj 103 71 inlet;
#X obj 103 100 t b b;
#X obj 103 119 timer;
#X obj 103 157 sel 1;
#X obj 103 138 < 200;
#X obj 103 176 s \$0-load;
#X text 36 16 ** LÊ SLOT ATUAL QUANDO RECEBE DUPLO CLIQUE (< 200ms)
, f 30;
#X connect 0 0 1 0;
#X connect 1 0 2 0;
#X connect 1 1 2 1;
#X connect 2 0 4 0;
#X connect 3 0 5 0;
#X connect 4 0 3 0;
#X restore 740 409 pd 2_CLICK;
#X obj 645 391 t b b b b b;
#X msg 140 588 const 0;
#X obj 140 607 s \$0-activeSlot;
#X obj 65 645 array set \$0-activeSlot;
#X msg 65 588 1;
#X obj 45 664 s \$0-setColor;
#X obj 95 607 t f f;
#X obj 122 626 s \$0-slot;
#N canvas 2 109 273 229 2_CLICK 0;
#X obj 103 71 inlet;
#X obj 103 100 t b b;
#X obj 103 119 timer;
#X obj 103 157 sel 1;
#X obj 103 138 < 200;
#X obj 103 176 s \$0-load;
#X text 36 16 ** LÊ SLOT ATUAL QUANDO RECEBE DUPLO CLIQUE (< 200ms)
, f 30;
#X connect 0 0 1 0;
#X connect 1 0 2 0;
#X connect 1 1 2 1;
#X connect 2 0 4 0;
#X connect 3 0 5 0;
#X connect 4 0 3 0;
#X restore 140 569 pd 2_CLICK;
#X obj 45 551 t b b b b b;
#X msg 340 588 const 0;
#X obj 340 607 s \$0-activeSlot;
#X obj 265 645 array set \$0-activeSlot;
#X msg 265 588 1;
#X obj 245 664 s \$0-setColor;
#X obj 295 607 t f f;
#X obj 322 626 s \$0-slot;
#N canvas 2 109 273 229 2_CLICK 0;
#X obj 103 71 inlet;
#X obj 103 100 t b b;
#X obj 103 119 timer;
#X obj 103 157 sel 1;
#X obj 103 138 < 200;
#X obj 103 176 s \$0-load;
#X text 36 16 ** LÊ SLOT ATUAL QUANDO RECEBE DUPLO CLIQUE (< 200ms)
, f 30;
#X connect 0 0 1 0;
#X connect 1 0 2 0;
#X connect 1 1 2 1;
#X connect 2 0 4 0;
#X connect 3 0 5 0;
#X connect 4 0 3 0;
#X restore 340 569 pd 2_CLICK;
#X obj 245 551 t b b b b b;
#X msg 540 588 const 0;
#X obj 540 607 s \$0-activeSlot;
#X obj 465 645 array set \$0-activeSlot;
#X msg 465 588 1;
#X obj 445 664 s \$0-setColor;
#X obj 495 607 t f f;
#X obj 522 626 s \$0-slot;
#N canvas 2 109 273 229 2_CLICK 0;
#X obj 103 71 inlet;
#X obj 103 100 t b b;
#X obj 103 119 timer;
#X obj 103 157 sel 1;
#X obj 103 138 < 200;
#X obj 103 176 s \$0-load;
#X text 36 16 ** LÊ SLOT ATUAL QUANDO RECEBE DUPLO CLIQUE (< 200ms)
, f 30;
#X connect 0 0 1 0;
#X connect 1 0 2 0;
#X connect 1 1 2 1;
#X connect 2 0 4 0;
#X connect 3 0 5 0;
#X connect 4 0 3 0;
#X restore 540 569 pd 2_CLICK;
#X obj 445 551 t b b b b b;
#X msg 740 588 const 0;
#X obj 740 607 s \$0-activeSlot;
#X obj 665 645 array set \$0-activeSlot;
#X msg 665 588 1;
#X obj 645 664 s \$0-setColor;
#X obj 695 607 t f f;
#X obj 722 626 s \$0-slot;
#N canvas 2 109 273 229 2_CLICK 0;
#X obj 103 71 inlet;
#X obj 103 100 t b b;
#X obj 103 119 timer;
#X obj 103 157 sel 1;
#X obj 103 138 < 200;
#X obj 103 176 s \$0-load;
#X text 36 16 ** LÊ SLOT ATUAL QUANDO RECEBE DUPLO CLIQUE (< 200ms)
, f 30;
#X connect 0 0 1 0;
#X connect 1 0 2 0;
#X connect 1 1 2 1;
#X connect 2 0 4 0;
#X connect 3 0 5 0;
#X connect 4 0 3 0;
#X restore 740 569 pd 2_CLICK;
#X obj 645 551 t b b b b b;
#X obj 45 52 r \$0-click32;
#X obj 95 108 f 32;
#X obj 245 52 r \$0-click33;
#X obj 295 108 f 33;
#X obj 445 52 r \$0-click34;
#X obj 495 108 f 34;
#X obj 645 52 r \$0-click35;
#X obj 695 108 f 35;
#X obj 45 212 r \$0-click36;
#X obj 245 212 r \$0-click37;
#X obj 95 268 f 36;
#X obj 295 268 f 37;
#X obj 445 212 r \$0-click38;
#X obj 495 268 f 38;
#X obj 645 212 r \$0-click39;
#X obj 695 268 f 39;
#X obj 45 372 r \$0-click40;
#X obj 95 428 f 40;
#X obj 245 372 r \$0-click41;
#X obj 295 428 f 41;
#X obj 445 372 r \$0-click42;
#X obj 495 428 f 42;
#X obj 645 372 r \$0-click43;
#X obj 695 428 f 43;
#X obj 45 532 r \$0-click44;
#X obj 95 588 f 44;
#X obj 245 532 r \$0-click45;
#X obj 295 588 f 45;
#X obj 445 532 r \$0-click46;
#X obj 495 588 f 46;
#X obj 645 532 r \$0-click47;
#X obj 695 588 f 47;
#X connect 0 0 1 0;
#X connect 3 0 2 0;
#X connect 5 0 2 1;
#X connect 5 1 6 0;
#X connect 9 0 4 0;
#X connect 9 1 3 0;
#X connect 9 2 146 0;
#X connect 9 3 0 0;
#X connect 9 4 8 0;
#X connect 10 0 11 0;
#X connect 13 0 12 0;
#X connect 15 0 12 1;
#X connect 15 1 16 0;
#X connect 18 0 14 0;
#X connect 18 1 13 0;
#X connect 18 2 148 0;
#X connect 18 3 10 0;
#X connect 18 4 17 0;
#X connect 19 0 20 0;
#X connect 22 0 21 0;
#X connect 24 0 21 1;
#X connect 24 1 25 0;
#X connect 27 0 23 0;
#X connect 27 1 22 0;
#X connect 27 2 150 0;
#X connect 27 3 19 0;
#X connect 27 4 26 0;
#X connect 28 0 29 0;
#X connect 31 0 30 0;
#X connect 33 0 30 1;
#X connect 33 1 34 0;
#X connect 36 0 32 0;
#X connect 36 1 31 0;
#X connect 36 2 152 0;
#X connect 36 3 28 0;
#X connect 36 4 35 0;
#X connect 37 0 38 0;
#X connect 40 0 39 0;
#X connect 42 0 39 1;
#X connect 42 1 43 0;
#X connect 45 0 41 0;
#X connect 45 1 40 0;
#X connect 45 2 155 0;
#X connect 45 3 37 0;
#X connect 45 4 44 0;
#X connect 46 0 47 0;
#X connect 49 0 48 0;
#X connect 51 0 48 1;
#X connect 51 1 52 0;
#X connect 54 0 50 0;
#X connect 54 1 49 0;
#X connect 54 2 156 0;
#X connect 54 3 46 0;
#X connect 54 4 53 0;
#X connect 55 0 56 0;
#X connect 58 0 57 0;
#X connect 60 0 57 1;
#X connect 60 1 61 0;
#X connect 63 0 59 0;
#X connect 63 1 58 0;
#X connect 63 2 158 0;
#X connect 63 3 55 0;
#X connect 63 4 62 0;
#X connect 64 0 65 0;
#X connect 67 0 66 0;
#X connect 69 0 66 1;
#X connect 69 1 70 0;
#X connect 72 0 68 0;
#X connect 72 1 67 0;
#X connect 72 2 160 0;
#X connect 72 3 64 0;
#X connect 72 4 71 0;
#X connect 73 0 74 0;
#X connect 76 0 75 0;
#X connect 78 0 75 1;
#X connect 78 1 79 0;
#X connect 81 0 77 0;
#X connect 81 1 76 0;
#X connect 81 2 162 0;
#X connect 81 3 73 0;
#X connect 81 4 80 0;
#X connect 82 0 83 0;
#X connect 85 0 84 0;
#X connect 87 0 84 1;
#X connect 87 1 88 0;
#X connect 90 0 86 0;
#X connect 90 1 85 0;
#X connect 90 2 164 0;
#X connect 90 3 82 0;
#X connect 90 4 89 0;
#X connect 91 0 92 0;
#X connect 94 0 93 0;
#X connect 96 0 93 1;
#X connect 96 1 97 0;
#X connect 99 0 95 0;
#X connect 99 1 94 0;
#X connect 99 2 166 0;
#X connect 99 3 91 0;
#X connect 99 4 98 0;
#X connect 100 0 101 0;
#X connect 103 0 102 0;
#X connect 105 0 102 1;
#X connect 105 1 106 0;
#X connect 108 0 104 0;
#X connect 108 1 103 0;
#X connect 108 2 168 0;
#X connect 108 3 100 0;
#X connect 108 4 107 0;
#X connect 109 0 110 0;
#X connect 112 0 111 0;
#X connect 114 0 111 1;
#X connect 114 1 115 0;
#X connect 117 0 113 0;
#X connect 117 1 112 0;
#X connect 117 2 170 0;
#X connect 117 3 109 0;
#X connect 117 4 116 0;
#X connect 118 0 119 0;
#X connect 121 0 120 0;
#X connect 123 0 120 1;
#X connect 123 1 124 0;
#X connect 126 0 122 0;
#X connect 126 1 121 0;
#X connect 126 2 172 0;
#X connect 126 3 118 0;
#X connect 126 4 125 0;
#X connect 127 0 128 0;
#X connect 130 0 129 0;
#X connect 132 0 129 1;
#X connect 132 1 133 0;
#X connect 135 0 131 0;
#X connect 135 1 130 0;
#X connect 135 2 174 0;
#X connect 135 3 127 0;
#X connect 135 4 134 0;
#X connect 136 0 137 0;
#X connect 139 0 138 0;
#X connect 141 0 138 1;
#X connect 141 1 142 0;
#X connect 144 0 140 0;
#X connect 144 1 139 0;
#X connect 144 2 176 0;
#X connect 144 3 136 0;
#X connect 144 4 143 0;
#X connect 145 0 9 0;
#X connect 146 0 5 0;
#X connect 147 0 18 0;
#X connect 148 0 15 0;
#X connect 149 0 27 0;
#X connect 150 0 24 0;
#X connect 151 0 36 0;
#X connect 152 0 33 0;
#X connect 153 0 45 0;
#X connect 154 0 54 0;
#X connect 155 0 42 0;
#X connect 156 0 51 0;
#X connect 157 0 63 0;
#X connect 158 0 60 0;
#X connect 159 0 72 0;
#X connect 160 0 69 0;
#X connect 161 0 81 0;
#X connect 162 0 78 0;
#X connect 163 0 90 0;
#X connect 164 0 87 0;
#X connect 165 0 99 0;
#X connect 166 0 96 0;
#X connect 167 0 108 0;
#X connect 168 0 105 0;
#X connect 169 0 117 0;
#X connect 170 0 114 0;
#X connect 171 0 126 0;
#X connect 172 0 123 0;
#X connect 173 0 135 0;
#X connect 174 0 132 0;
#X connect 175 0 144 0;
#X connect 176 0 141 0;
#X restore 50 147 pd SLOTS_32-47;
#N canvas 2 53 895 725 SLOTS_48-63 0;
#X msg 140 108 const 0;
#X obj 140 127 s \$0-activeSlot;
#X obj 65 165 array set \$0-activeSlot;
#X msg 65 108 1;
#X obj 45 184 s \$0-setColor;
#X obj 95 127 t f f;
#X obj 122 146 s \$0-slot;
#X text 43 29 CLIQUES NA INTERFACE;
#N canvas 2 109 273 229 2_CLICK 0;
#X obj 103 71 inlet;
#X obj 103 100 t b b;
#X obj 103 119 timer;
#X obj 103 157 sel 1;
#X obj 103 138 < 200;
#X obj 103 176 s \$0-load;
#X text 36 16 ** LÊ SLOT ATUAL QUANDO RECEBE DUPLO CLIQUE (< 200ms)
, f 30;
#X connect 0 0 1 0;
#X connect 1 0 2 0;
#X connect 1 1 2 1;
#X connect 2 0 4 0;
#X connect 3 0 5 0;
#X connect 4 0 3 0;
#X restore 140 89 pd 2_CLICK;
#X obj 45 71 t b b b b b;
#X msg 340 108 const 0;
#X obj 340 127 s \$0-activeSlot;
#X obj 265 165 array set \$0-activeSlot;
#X msg 265 108 1;
#X obj 245 184 s \$0-setColor;
#X obj 295 127 t f f;
#X obj 322 146 s \$0-slot;
#N canvas 2 109 273 229 2_CLICK 0;
#X obj 103 71 inlet;
#X obj 103 100 t b b;
#X obj 103 119 timer;
#X obj 103 157 sel 1;
#X obj 103 138 < 200;
#X obj 103 176 s \$0-load;
#X text 36 16 ** LÊ SLOT ATUAL QUANDO RECEBE DUPLO CLIQUE (< 200ms)
, f 30;
#X connect 0 0 1 0;
#X connect 1 0 2 0;
#X connect 1 1 2 1;
#X connect 2 0 4 0;
#X connect 3 0 5 0;
#X connect 4 0 3 0;
#X restore 340 89 pd 2_CLICK;
#X obj 245 71 t b b b b b;
#X msg 540 108 const 0;
#X obj 540 127 s \$0-activeSlot;
#X obj 465 165 array set \$0-activeSlot;
#X msg 465 108 1;
#X obj 445 184 s \$0-setColor;
#X obj 495 127 t f f;
#X obj 522 146 s \$0-slot;
#N canvas 2 109 273 229 2_CLICK 0;
#X obj 103 71 inlet;
#X obj 103 100 t b b;
#X obj 103 119 timer;
#X obj 103 157 sel 1;
#X obj 103 138 < 200;
#X obj 103 176 s \$0-load;
#X text 36 16 ** LÊ SLOT ATUAL QUANDO RECEBE DUPLO CLIQUE (< 200ms)
, f 30;
#X connect 0 0 1 0;
#X connect 1 0 2 0;
#X connect 1 1 2 1;
#X connect 2 0 4 0;
#X connect 3 0 5 0;
#X connect 4 0 3 0;
#X restore 540 89 pd 2_CLICK;
#X obj 445 71 t b b b b b;
#X msg 740 108 const 0;
#X obj 740 127 s \$0-activeSlot;
#X obj 665 165 array set \$0-activeSlot;
#X msg 665 108 1;
#X obj 645 184 s \$0-setColor;
#X obj 695 127 t f f;
#X obj 722 146 s \$0-slot;
#N canvas 2 109 273 229 2_CLICK 0;
#X obj 103 71 inlet;
#X obj 103 100 t b b;
#X obj 103 119 timer;
#X obj 103 157 sel 1;
#X obj 103 138 < 200;
#X obj 103 176 s \$0-load;
#X text 36 16 ** LÊ SLOT ATUAL QUANDO RECEBE DUPLO CLIQUE (< 200ms)
, f 30;
#X connect 0 0 1 0;
#X connect 1 0 2 0;
#X connect 1 1 2 1;
#X connect 2 0 4 0;
#X connect 3 0 5 0;
#X connect 4 0 3 0;
#X restore 740 89 pd 2_CLICK;
#X obj 645 71 t b b b b b;
#X msg 140 268 const 0;
#X obj 140 287 s \$0-activeSlot;
#X obj 65 325 array set \$0-activeSlot;
#X msg 65 268 1;
#X obj 45 344 s \$0-setColor;
#X obj 95 287 t f f;
#X obj 122 306 s \$0-slot;
#N canvas 2 109 273 229 2_CLICK 0;
#X obj 103 71 inlet;
#X obj 103 100 t b b;
#X obj 103 119 timer;
#X obj 103 157 sel 1;
#X obj 103 138 < 200;
#X obj 103 176 s \$0-load;
#X text 36 16 ** LÊ SLOT ATUAL QUANDO RECEBE DUPLO CLIQUE (< 200ms)
, f 30;
#X connect 0 0 1 0;
#X connect 1 0 2 0;
#X connect 1 1 2 1;
#X connect 2 0 4 0;
#X connect 3 0 5 0;
#X connect 4 0 3 0;
#X restore 140 249 pd 2_CLICK;
#X obj 45 231 t b b b b b;
#X msg 340 268 const 0;
#X obj 340 287 s \$0-activeSlot;
#X obj 265 325 array set \$0-activeSlot;
#X msg 265 268 1;
#X obj 245 344 s \$0-setColor;
#X obj 295 287 t f f;
#X obj 322 306 s \$0-slot;
#N canvas 2 109 273 229 2_CLICK 0;
#X obj 103 71 inlet;
#X obj 103 100 t b b;
#X obj 103 119 timer;
#X obj 103 157 sel 1;
#X obj 103 138 < 200;
#X obj 103 176 s \$0-load;
#X text 36 16 ** LÊ SLOT ATUAL QUANDO RECEBE DUPLO CLIQUE (< 200ms)
, f 30;
#X connect 0 0 1 0;
#X connect 1 0 2 0;
#X connect 1 1 2 1;
#X connect 2 0 4 0;
#X connect 3 0 5 0;
#X connect 4 0 3 0;
#X restore 340 249 pd 2_CLICK;
#X obj 245 231 t b b b b b;
#X msg 540 268 const 0;
#X obj 540 287 s \$0-activeSlot;
#X obj 465 325 array set \$0-activeSlot;
#X msg 465 268 1;
#X obj 445 344 s \$0-setColor;
#X obj 495 287 t f f;
#X obj 522 306 s \$0-slot;
#N canvas 2 109 273 229 2_CLICK 0;
#X obj 103 71 inlet;
#X obj 103 100 t b b;
#X obj 103 119 timer;
#X obj 103 157 sel 1;
#X obj 103 138 < 200;
#X obj 103 176 s \$0-load;
#X text 36 16 ** LÊ SLOT ATUAL QUANDO RECEBE DUPLO CLIQUE (< 200ms)
, f 30;
#X connect 0 0 1 0;
#X connect 1 0 2 0;
#X connect 1 1 2 1;
#X connect 2 0 4 0;
#X connect 3 0 5 0;
#X connect 4 0 3 0;
#X restore 540 249 pd 2_CLICK;
#X obj 445 231 t b b b b b;
#X msg 740 268 const 0;
#X obj 740 287 s \$0-activeSlot;
#X obj 665 325 array set \$0-activeSlot;
#X msg 665 268 1;
#X obj 645 344 s \$0-setColor;
#X obj 695 287 t f f;
#X obj 722 306 s \$0-slot;
#N canvas 2 109 273 229 2_CLICK 0;
#X obj 103 71 inlet;
#X obj 103 100 t b b;
#X obj 103 119 timer;
#X obj 103 157 sel 1;
#X obj 103 138 < 200;
#X obj 103 176 s \$0-load;
#X text 36 16 ** LÊ SLOT ATUAL QUANDO RECEBE DUPLO CLIQUE (< 200ms)
, f 30;
#X connect 0 0 1 0;
#X connect 1 0 2 0;
#X connect 1 1 2 1;
#X connect 2 0 4 0;
#X connect 3 0 5 0;
#X connect 4 0 3 0;
#X restore 740 249 pd 2_CLICK;
#X obj 645 231 t b b b b b;
#X msg 140 428 const 0;
#X obj 140 447 s \$0-activeSlot;
#X obj 65 485 array set \$0-activeSlot;
#X msg 65 428 1;
#X obj 45 504 s \$0-setColor;
#X obj 95 447 t f f;
#X obj 122 466 s \$0-slot;
#N canvas 2 109 273 229 2_CLICK 0;
#X obj 103 71 inlet;
#X obj 103 100 t b b;
#X obj 103 119 timer;
#X obj 103 157 sel 1;
#X obj 103 138 < 200;
#X obj 103 176 s \$0-load;
#X text 36 16 ** LÊ SLOT ATUAL QUANDO RECEBE DUPLO CLIQUE (< 200ms)
, f 30;
#X connect 0 0 1 0;
#X connect 1 0 2 0;
#X connect 1 1 2 1;
#X connect 2 0 4 0;
#X connect 3 0 5 0;
#X connect 4 0 3 0;
#X restore 140 409 pd 2_CLICK;
#X obj 45 391 t b b b b b;
#X msg 340 428 const 0;
#X obj 340 447 s \$0-activeSlot;
#X obj 265 485 array set \$0-activeSlot;
#X msg 265 428 1;
#X obj 245 504 s \$0-setColor;
#X obj 295 447 t f f;
#X obj 322 466 s \$0-slot;
#N canvas 2 109 273 229 2_CLICK 0;
#X obj 103 71 inlet;
#X obj 103 100 t b b;
#X obj 103 119 timer;
#X obj 103 157 sel 1;
#X obj 103 138 < 200;
#X obj 103 176 s \$0-load;
#X text 36 16 ** LÊ SLOT ATUAL QUANDO RECEBE DUPLO CLIQUE (< 200ms)
, f 30;
#X connect 0 0 1 0;
#X connect 1 0 2 0;
#X connect 1 1 2 1;
#X connect 2 0 4 0;
#X connect 3 0 5 0;
#X connect 4 0 3 0;
#X restore 340 409 pd 2_CLICK;
#X obj 245 391 t b b b b b;
#X msg 540 428 const 0;
#X obj 540 447 s \$0-activeSlot;
#X obj 465 485 array set \$0-activeSlot;
#X msg 465 428 1;
#X obj 445 504 s \$0-setColor;
#X obj 495 447 t f f;
#X obj 522 466 s \$0-slot;
#N canvas 2 137 273 229 2_CLICK 0;
#X obj 103 71 inlet;
#X obj 103 100 t b b;
#X obj 103 119 timer;
#X obj 103 157 sel 1;
#X obj 103 138 < 200;
#X obj 103 176 s \$0-load;
#X text 36 16 ** LÊ SLOT ATUAL QUANDO RECEBE DUPLO CLIQUE (< 200ms)
, f 30;
#X connect 0 0 1 0;
#X connect 1 0 2 0;
#X connect 1 1 2 1;
#X connect 2 0 4 0;
#X connect 3 0 5 0;
#X connect 4 0 3 0;
#X restore 540 409 pd 2_CLICK;
#X obj 445 391 t b b b b b;
#X msg 740 428 const 0;
#X obj 740 447 s \$0-activeSlot;
#X obj 665 485 array set \$0-activeSlot;
#X msg 665 428 1;
#X obj 645 504 s \$0-setColor;
#X obj 695 447 t f f;
#X obj 722 466 s \$0-slot;
#N canvas 2 109 273 229 2_CLICK 0;
#X obj 103 71 inlet;
#X obj 103 100 t b b;
#X obj 103 119 timer;
#X obj 103 157 sel 1;
#X obj 103 138 < 200;
#X obj 103 176 s \$0-load;
#X text 36 16 ** LÊ SLOT ATUAL QUANDO RECEBE DUPLO CLIQUE (< 200ms)
, f 30;
#X connect 0 0 1 0;
#X connect 1 0 2 0;
#X connect 1 1 2 1;
#X connect 2 0 4 0;
#X connect 3 0 5 0;
#X connect 4 0 3 0;
#X restore 740 409 pd 2_CLICK;
#X obj 645 391 t b b b b b;
#X msg 140 588 const 0;
#X obj 140 607 s \$0-activeSlot;
#X obj 65 645 array set \$0-activeSlot;
#X msg 65 588 1;
#X obj 45 664 s \$0-setColor;
#X obj 95 607 t f f;
#X obj 122 626 s \$0-slot;
#N canvas 2 109 273 229 2_CLICK 0;
#X obj 103 71 inlet;
#X obj 103 100 t b b;
#X obj 103 119 timer;
#X obj 103 157 sel 1;
#X obj 103 138 < 200;
#X obj 103 176 s \$0-load;
#X text 36 16 ** LÊ SLOT ATUAL QUANDO RECEBE DUPLO CLIQUE (< 200ms)
, f 30;
#X connect 0 0 1 0;
#X connect 1 0 2 0;
#X connect 1 1 2 1;
#X connect 2 0 4 0;
#X connect 3 0 5 0;
#X connect 4 0 3 0;
#X restore 140 569 pd 2_CLICK;
#X obj 45 551 t b b b b b;
#X msg 340 588 const 0;
#X obj 340 607 s \$0-activeSlot;
#X obj 265 645 array set \$0-activeSlot;
#X msg 265 588 1;
#X obj 245 664 s \$0-setColor;
#X obj 295 607 t f f;
#X obj 322 626 s \$0-slot;
#N canvas 2 109 273 229 2_CLICK 0;
#X obj 103 71 inlet;
#X obj 103 100 t b b;
#X obj 103 119 timer;
#X obj 103 157 sel 1;
#X obj 103 138 < 200;
#X obj 103 176 s \$0-load;
#X text 36 16 ** LÊ SLOT ATUAL QUANDO RECEBE DUPLO CLIQUE (< 200ms)
, f 30;
#X connect 0 0 1 0;
#X connect 1 0 2 0;
#X connect 1 1 2 1;
#X connect 2 0 4 0;
#X connect 3 0 5 0;
#X connect 4 0 3 0;
#X restore 340 569 pd 2_CLICK;
#X obj 245 551 t b b b b b;
#X msg 540 588 const 0;
#X obj 540 607 s \$0-activeSlot;
#X obj 465 645 array set \$0-activeSlot;
#X msg 465 588 1;
#X obj 445 664 s \$0-setColor;
#X obj 495 607 t f f;
#X obj 522 626 s \$0-slot;
#N canvas 2 109 273 229 2_CLICK 0;
#X obj 103 71 inlet;
#X obj 103 100 t b b;
#X obj 103 119 timer;
#X obj 103 157 sel 1;
#X obj 103 138 < 200;
#X obj 103 176 s \$0-load;
#X text 36 16 ** LÊ SLOT ATUAL QUANDO RECEBE DUPLO CLIQUE (< 200ms)
, f 30;
#X connect 0 0 1 0;
#X connect 1 0 2 0;
#X connect 1 1 2 1;
#X connect 2 0 4 0;
#X connect 3 0 5 0;
#X connect 4 0 3 0;
#X restore 540 569 pd 2_CLICK;
#X obj 445 551 t b b b b b;
#X msg 740 588 const 0;
#X obj 740 607 s \$0-activeSlot;
#X obj 665 645 array set \$0-activeSlot;
#X msg 665 588 1;
#X obj 645 664 s \$0-setColor;
#X obj 695 607 t f f;
#X obj 722 626 s \$0-slot;
#N canvas 2 109 273 229 2_CLICK 0;
#X obj 103 71 inlet;
#X obj 103 100 t b b;
#X obj 103 119 timer;
#X obj 103 157 sel 1;
#X obj 103 138 < 200;
#X obj 103 176 s \$0-load;
#X text 36 16 ** LÊ SLOT ATUAL QUANDO RECEBE DUPLO CLIQUE (< 200ms)
, f 30;
#X connect 0 0 1 0;
#X connect 1 0 2 0;
#X connect 1 1 2 1;
#X connect 2 0 4 0;
#X connect 3 0 5 0;
#X connect 4 0 3 0;
#X restore 740 569 pd 2_CLICK;
#X obj 645 551 t b b b b b;
#X obj 45 52 r \$0-click48;
#X obj 95 108 f 48;
#X obj 245 52 r \$0-click49;
#X obj 295 108 f 49;
#X obj 445 52 r \$0-click50;
#X obj 495 108 f 50;
#X obj 645 52 r \$0-click51;
#X obj 695 108 f 51;
#X obj 45 212 r \$0-click52;
#X obj 95 268 f 52;
#X obj 245 212 r \$0-click53;
#X obj 295 268 f 53;
#X obj 445 212 r \$0-click54;
#X obj 495 268 f 54;
#X obj 645 212 r \$0-click55;
#X obj 695 268 f 55;
#X obj 45 372 r \$0-click56;
#X obj 95 428 f 56;
#X obj 245 372 r \$0-click57;
#X obj 295 428 f 57;
#X obj 445 372 r \$0-click58;
#X obj 495 428 f 58;
#X obj 645 372 r \$0-click59;
#X obj 695 428 f 59;
#X obj 45 532 r \$0-click60;
#X obj 95 588 f 60;
#X obj 245 532 r \$0-click61;
#X obj 295 588 f 61;
#X obj 445 532 r \$0-click62;
#X obj 495 588 f 62;
#X obj 645 532 r \$0-click63;
#X obj 695 588 f 63;
#X connect 0 0 1 0;
#X connect 3 0 2 0;
#X connect 5 0 2 1;
#X connect 5 1 6 0;
#X connect 9 0 4 0;
#X connect 9 1 3 0;
#X connect 9 2 146 0;
#X connect 9 3 0 0;
#X connect 9 4 8 0;
#X connect 10 0 11 0;
#X connect 13 0 12 0;
#X connect 15 0 12 1;
#X connect 15 1 16 0;
#X connect 18 0 14 0;
#X connect 18 1 13 0;
#X connect 18 2 148 0;
#X connect 18 3 10 0;
#X connect 18 4 17 0;
#X connect 19 0 20 0;
#X connect 22 0 21 0;
#X connect 24 0 21 1;
#X connect 24 1 25 0;
#X connect 27 0 23 0;
#X connect 27 1 22 0;
#X connect 27 2 150 0;
#X connect 27 3 19 0;
#X connect 27 4 26 0;
#X connect 28 0 29 0;
#X connect 31 0 30 0;
#X connect 33 0 30 1;
#X connect 33 1 34 0;
#X connect 36 0 32 0;
#X connect 36 1 31 0;
#X connect 36 2 152 0;
#X connect 36 3 28 0;
#X connect 36 4 35 0;
#X connect 37 0 38 0;
#X connect 40 0 39 0;
#X connect 42 0 39 1;
#X connect 42 1 43 0;
#X connect 45 0 41 0;
#X connect 45 1 40 0;
#X connect 45 2 154 0;
#X connect 45 3 37 0;
#X connect 45 4 44 0;
#X connect 46 0 47 0;
#X connect 49 0 48 0;
#X connect 51 0 48 1;
#X connect 51 1 52 0;
#X connect 54 0 50 0;
#X connect 54 1 49 0;
#X connect 54 2 156 0;
#X connect 54 3 46 0;
#X connect 54 4 53 0;
#X connect 55 0 56 0;
#X connect 58 0 57 0;
#X connect 60 0 57 1;
#X connect 60 1 61 0;
#X connect 63 0 59 0;
#X connect 63 1 58 0;
#X connect 63 2 158 0;
#X connect 63 3 55 0;
#X connect 63 4 62 0;
#X connect 64 0 65 0;
#X connect 67 0 66 0;
#X connect 69 0 66 1;
#X connect 69 1 70 0;
#X connect 72 0 68 0;
#X connect 72 1 67 0;
#X connect 72 2 160 0;
#X connect 72 3 64 0;
#X connect 72 4 71 0;
#X connect 73 0 74 0;
#X connect 76 0 75 0;
#X connect 78 0 75 1;
#X connect 78 1 79 0;
#X connect 81 0 77 0;
#X connect 81 1 76 0;
#X connect 81 2 162 0;
#X connect 81 3 73 0;
#X connect 81 4 80 0;
#X connect 82 0 83 0;
#X connect 85 0 84 0;
#X connect 87 0 84 1;
#X connect 87 1 88 0;
#X connect 90 0 86 0;
#X connect 90 1 85 0;
#X connect 90 2 164 0;
#X connect 90 3 82 0;
#X connect 90 4 89 0;
#X connect 91 0 92 0;
#X connect 94 0 93 0;
#X connect 96 0 93 1;
#X connect 96 1 97 0;
#X connect 99 0 95 0;
#X connect 99 1 94 0;
#X connect 99 2 166 0;
#X connect 99 3 91 0;
#X connect 99 4 98 0;
#X connect 100 0 101 0;
#X connect 103 0 102 0;
#X connect 105 0 102 1;
#X connect 105 1 106 0;
#X connect 108 0 104 0;
#X connect 108 1 103 0;
#X connect 108 2 168 0;
#X connect 108 3 100 0;
#X connect 108 4 107 0;
#X connect 109 0 110 0;
#X connect 112 0 111 0;
#X connect 114 0 111 1;
#X connect 114 1 115 0;
#X connect 117 0 113 0;
#X connect 117 1 112 0;
#X connect 117 2 170 0;
#X connect 117 3 109 0;
#X connect 117 4 116 0;
#X connect 118 0 119 0;
#X connect 121 0 120 0;
#X connect 123 0 120 1;
#X connect 123 1 124 0;
#X connect 126 0 122 0;
#X connect 126 1 121 0;
#X connect 126 2 172 0;
#X connect 126 3 118 0;
#X connect 126 4 125 0;
#X connect 127 0 128 0;
#X connect 130 0 129 0;
#X connect 132 0 129 1;
#X connect 132 1 133 0;
#X connect 135 0 131 0;
#X connect 135 1 130 0;
#X connect 135 2 174 0;
#X connect 135 3 127 0;
#X connect 135 4 134 0;
#X connect 136 0 137 0;
#X connect 139 0 138 0;
#X connect 141 0 138 1;
#X connect 141 1 142 0;
#X connect 144 0 140 0;
#X connect 144 1 139 0;
#X connect 144 2 176 0;
#X connect 144 3 136 0;
#X connect 144 4 143 0;
#X connect 145 0 9 0;
#X connect 146 0 5 0;
#X connect 147 0 18 0;
#X connect 148 0 15 0;
#X connect 149 0 27 0;
#X connect 150 0 24 0;
#X connect 151 0 36 0;
#X connect 152 0 33 0;
#X connect 153 0 45 0;
#X connect 154 0 42 0;
#X connect 155 0 54 0;
#X connect 156 0 51 0;
#X connect 157 0 63 0;
#X connect 158 0 60 0;
#X connect 159 0 72 0;
#X connect 160 0 69 0;
#X connect 161 0 81 0;
#X connect 162 0 78 0;
#X connect 163 0 90 0;
#X connect 164 0 87 0;
#X connect 165 0 99 0;
#X connect 166 0 96 0;
#X connect 167 0 108 0;
#X connect 168 0 105 0;
#X connect 169 0 117 0;
#X connect 170 0 114 0;
#X connect 171 0 126 0;
#X connect 172 0 123 0;
#X connect 173 0 135 0;
#X connect 174 0 132 0;
#X connect 175 0 144 0;
#X connect 176 0 141 0;
#X restore 50 166 pd SLOTS_48-63;
#X connect 0 0 23 0;
#X connect 1 0 2 0;
#X connect 4 0 6 0;
#X connect 5 0 6 1;
#X connect 6 0 8 0;
#X connect 7 0 8 1;
#X connect 8 0 9 0;
#X connect 9 0 24 0;
#X connect 10 0 11 0;
#X connect 11 0 14 0;
#X connect 11 1 16 0;
#X connect 14 0 12 0;
#X connect 16 0 18 0;
#X connect 17 0 10 0;
#X connect 17 1 14 1;
#X connect 17 2 18 1;
#X connect 18 0 9 0;
#X connect 23 0 1 0;
#X connect 24 0 17 0;
#X restore 51 379 pd SLOT_CLICK_SET_NEXT;
#N canvas 423 158 683 453 DEFINE_EDIT_READ_WRITE 0;
#X obj 40 206 text define \$0-listBox;
#X msg 40 77 click;
#X text 80 77 EDITAR;
#X obj 169 134 s \$0-setColor;
#X obj 40 58 r \$0-edit;
#X obj 331 77 savepanel;
#X msg 331 115 write \$1;
#X obj 331 58 r \$0-write;
#X obj 396 58 r \$0-writeFile;
#X obj 169 77 openpanel;
#X msg 203 115 read \$1;
#X obj 169 58 r \$0-read;
#X obj 228 58 r \$0-readFile;
#X text 126 14 ** DEFINE [text] \, GERENCIA EDIÇÃO MANUAL E ESCRITA/LEITURA
EM ARQUIVO, f 69;
#N canvas 30 53 577 778 FILENAME 0;
#X obj 43 88 list fromsymbol;
#X obj 181 135 list split 1;
#X obj 215 154 list;
#X obj 196 298 f;
#X obj 219 298 + 1;
#X obj 43 363 list split;
#X obj 100 135 list length;
#X obj 100 335 -;
#X obj 43 40 inlet PATH;
#X obj 43 69 symbol;
#X msg 211 279 1;
#X obj 181 183 sel 47;
#X obj 196 260 spigot;
#X msg 256 241 0;
#X msg 229 241 1;
#X obj 181 202 t b b;
#X obj 181 317 f;
#X obj 216 202 t b;
#X obj 43 107 t l l l b b;
#X text 227 182 PROCURA PELO CARACTERE 47 "/";
#X text 247 299 CONTA QUANTOS CARACTERES ATÉ A PRIMEIRA "/";
#X text 263 135 DESEMPACOTA LISTA 1 POR 1;
#X text 128 336 DIMINUI DO TOTAL DE CARACTERES PARA DEFINIR PONTO DE
CORTE DO PATH, f 66;
#X text 112 364 SEPARA CONJUNTO DE CARACTERES ATÉ A PRIMEIRA "/" DO
PATH INTEIRO, f 64;
#X text 239 261 TERMINA CONTAGEM QUANDO ACHA A PRIMEIRA "/" DO FIM
PRO COMEÇO, f 43;
#X obj 71 738 outlet FILENAME;
#X text 142 88 CONVERTE PRA LISTA DE CARACTERES ASCII;
#X obj 128 410 list length;
#X obj 71 392 t l l;
#X obj 71 558 spigot;
#X obj 171 558 spigot;
#X obj 263 662 t l;
#X obj 192 662 list append;
#X obj 171 681 list;
#X obj 171 577 t b l b l b;
#X obj 128 522 <= 22;
#X obj 228 522 > 22;
#X obj 218 643 list split 7;
#X obj 192 605 list split 9;
#X text 204 411 TESTA POR NÚMERO DE CARACTERES;
#X obj 71 699 list tosymbol;
#X text 159 700 CONVERTE LISTA DE CARACTERES ASCII EM SYMBOL;
#X obj 128 429 t l l l;
#X obj 203 474 sel 0;
#X obj 230 493 t f f f;
#X text 325 517 CASO MAIS CARACTERES DO QUE PONTO DE CORTE \, SEPARA
EM INICIO...FIM DO NOME, f 27;
#X msg 202 624 46 46 46;
#X text 260 622 ... (ASCII);
#X text 154 16 ** SEPARA NOME DE ARQUIVO DO CAMINHO COMPLETO E CORTA
PARA EXIBIÇÃO SE NECESSÁRIO, f 47;
#X text 237 455 LIMITE;
#X obj 203 455 f 18;
#X obj 287 522 - 5;
#X obj 261 577 - 9;
#X obj 203 436 r \$0-lb;
#X connect 0 0 18 0;
#X connect 1 0 11 0;
#X connect 1 1 2 0;
#X connect 2 0 1 0;
#X connect 3 0 4 0;
#X connect 3 0 16 1;
#X connect 4 0 3 1;
#X connect 5 1 28 0;
#X connect 6 0 7 0;
#X connect 7 0 5 1;
#X connect 8 0 9 0;
#X connect 9 0 0 0;
#X connect 10 0 3 1;
#X connect 11 0 15 0;
#X connect 11 1 17 0;
#X connect 12 0 3 0;
#X connect 13 0 12 1;
#X connect 14 0 12 1;
#X connect 15 0 16 0;
#X connect 15 1 13 0;
#X connect 16 0 7 1;
#X connect 17 0 12 0;
#X connect 18 0 5 0;
#X connect 18 1 6 0;
#X connect 18 2 1 0;
#X connect 18 3 10 0;
#X connect 18 4 14 0;
#X connect 27 0 42 0;
#X connect 28 0 30 0;
#X connect 28 0 29 0;
#X connect 28 1 27 0;
#X connect 29 0 40 0;
#X connect 30 0 34 0;
#X connect 31 0 32 1;
#X connect 32 0 31 0;
#X connect 32 0 33 1;
#X connect 33 0 40 0;
#X connect 34 0 33 0;
#X connect 34 1 38 0;
#X connect 34 2 46 0;
#X connect 34 3 37 0;
#X connect 34 4 32 1;
#X connect 35 0 29 1;
#X connect 36 0 30 1;
#X connect 37 1 32 0;
#X connect 38 0 32 0;
#X connect 40 0 25 0;
#X connect 42 0 35 0;
#X connect 42 1 36 0;
#X connect 42 2 51 0;
#X connect 43 1 44 0;
#X connect 44 0 35 1;
#X connect 44 1 36 1;
#X connect 44 2 52 0;
#X connect 46 0 32 0;
#X connect 50 0 43 0;
#X connect 51 0 37 1;
#X connect 52 0 38 1;
#X connect 53 0 50 0;
#X restore 412 114 pd FILENAME;
#X obj 331 96 t s s;
#X obj 412 133 s \$0-fileName;
#X obj 169 96 t b b s s;
#X obj 186 247 text size \$0-listBox;
#X obj 186 304 abs;
#X obj 186 323 until;
#X obj 401 322 text delete \$0-listBox;
#X obj 374 284 t b b;
#X obj 374 341 text size \$0-listBox;
#X obj 374 379 sel 1;
#X obj 416 397 t b;
#X text 435 275 SE FOR MAIOR QUE NÚMERO DE SLOTS \, ENTRA EM LOOP
APAGANDO AS LINHAS EXCEDENTES, f 33;
#X text 184 366 SE FOR MENOR QUE NÚMERO DE SLOTS \, INSERE LINHAS
VAZIAS NO FIM DO [text] ATÉ IGUALAR SLOTS, f 27;
#X obj 186 342 text set \$0-listBox 1e+06;
#X text 166 158 ATUALIZA CORES APÓS LEITURA DE ARQUIVO, f 19;
#X obj 186 266 moses 65;
#X msg 401 303 64;
#X obj 374 360 > 64;
#X obj 186 285 - 64;
#X connect 1 0 0 0;
#X connect 4 0 1 0;
#X connect 5 0 15 0;
#X connect 6 0 0 0;
#X connect 7 0 5 0;
#X connect 8 0 15 0;
#X connect 9 0 17 0;
#X connect 10 0 0 0;
#X connect 11 0 9 0;
#X connect 12 0 17 0;
#X connect 14 0 16 0;
#X connect 15 0 6 0;
#X connect 15 1 14 0;
#X connect 17 0 3 0;
#X connect 17 1 18 0;
#X connect 17 2 10 0;
#X connect 17 3 14 0;
#X connect 18 0 30 0;
#X connect 19 0 20 0;
#X connect 20 0 28 0;
#X connect 22 0 23 0;
#X connect 22 1 31 0;
#X connect 23 0 32 0;
#X connect 24 0 25 0;
#X connect 25 0 22 0;
#X connect 30 0 33 0;
#X connect 30 1 22 0;
#X connect 31 0 21 0;
#X connect 32 0 24 0;
#X connect 33 0 19 0;
#X restore 51 360 pd DEFINE_EDIT_READ_WRITE;
#N canvas 2 53 500 348 INFO 0;
#X text 50 43 RECURSOS;
#X text 50 73 - [list trim] interno ON/OFF - na saída da lista;
#X text 50 183 - DUMP - envia todas as listas existentes em sequência
;
#X text 50 93 - Auto-Write ON/OFF - escreve slot atual assim que entra
uma lista;
#X text 50 153 - Auto-Next ON/OFF - vai para próximo slot vazio assim
que escreve slot atual;
#X text 50 123 - Auto-Read ON/OFF - lê o slot assim que é selecionado
com clique \, se tiver conteúdo;
#X text 50 203 - [send] interno na saída - opcional \, declarável
como 5 argumento (symbol), f 65;
#X text 50 233 - Copy/Move - comando externo para copiar ou mover uma
lista entre os slots - Sintaxe: comando origem destino(s) - ex:;
#X msg 52 269 cp 2 4;
#X msg 102 269 cp 2 5 6 7;
#X msg 182 269 cp 0 all;
#X msg 262 269 mv 2 4;
#X msg 312 269 mv 2 5 6 7;
#X msg 392 269 mv 0 all;
#X restore 361 123 pd INFO;
#N canvas 2 53 1157 276 EXTERNAL_CONTROL 0;
#X obj 44 28 inlet;
#X obj 44 105 s \$0-write;
#X obj 44 86 route bang;
#X obj 109 86 symbol;
#X obj 208 86 route bang;
#X obj 273 86 symbol;
#X obj 208 105 s \$0-read;
#X obj 273 105 s \$0-readFile;
#X obj 109 105 s \$0-writeFile;
#X text 439 18 ** GERENCIA ENTRADA DE CONTROLES EXTERNOS;
#X obj 366 105 s \$0-slotSet;
#X obj 283 228 s \$0-autoNext_set;
#X obj 44 228 s \$0-autoWrite_set;
#X obj 167 228 s \$0-autoRead_set;
#X obj 44 67 route write read slot load save clear reset edit dump
trim;
#X obj 453 105 s \$0-load_set;
#X obj 546 105 s \$0-save_set;
#X obj 639 105 s \$0-clear_set;
#X obj 738 105 s \$0-reset_set;
#X obj 837 105 s \$0-edit_set;
#X obj 930 105 s \$0-dump_set;
#X obj 1023 124 s \$0-trim_set;
#X obj 1023 86 clip 0 1;
#X obj 800 22 loadbang;
#X obj 800 41 s \$0-lb;
#X obj 44 171 route autoWrite autoRead autoNext cp mv next;
#X obj 44 190 clip 0 1;
#X obj 167 190 clip 0 1;
#X obj 283 190 clip 0 1;
#X obj 1023 105 int;
#X obj 44 209 int;
#X obj 167 209 int;
#X obj 283 209 int;
#X obj 400 228 s \$0-cp;
#X obj 457 228 s \$0-mv;
#X obj 514 228 s \$0-next;
#X obj 373 134 r \$0-lb;
#X obj 373 153 pack \$2 \$3 \$4;
#X obj 373 172 unpack f f f;
#X obj 1023 38 r \$0-lb;
#X obj 1023 57 f \$1;
#X obj 366 28 inlet;
#X obj 608 189 s \$0-list;
#X text 673 189 O QUE NÃO FOR COMANDO INTERNO É LISTA PARA MEMÓRIA
;
#X obj 109 28 r \$5-;
#X text 150 28 ENTRADA REMOTA ( 5_ARG - );
#X connect 0 0 14 0;
#X connect 2 0 1 0;
#X connect 2 1 3 0;
#X connect 3 0 8 0;
#X connect 4 0 6 0;
#X connect 4 1 5 0;
#X connect 5 0 7 0;
#X connect 14 0 2 0;
#X connect 14 1 4 0;
#X connect 14 2 10 0;
#X connect 14 3 15 0;
#X connect 14 4 16 0;
#X connect 14 5 17 0;
#X connect 14 6 18 0;
#X connect 14 7 19 0;
#X connect 14 8 20 0;
#X connect 14 9 22 0;
#X connect 14 10 25 0;
#X connect 22 0 29 0;
#X connect 23 0 24 0;
#X connect 25 0 26 0;
#X connect 25 1 27 0;
#X connect 25 2 28 0;
#X connect 25 3 33 0;
#X connect 25 4 34 0;
#X connect 25 5 35 0;
#X connect 25 6 42 0;
#X connect 26 0 30 0;
#X connect 27 0 31 0;
#X connect 28 0 32 0;
#X connect 29 0 21 0;
#X connect 30 0 12 0;
#X connect 31 0 13 0;
#X connect 32 0 11 0;
#X connect 36 0 37 0;
#X connect 37 0 38 0;
#X connect 38 0 26 0;
#X connect 38 1 27 0;
#X connect 38 2 28 0;
#X connect 39 0 40 0;
#X connect 40 0 22 0;
#X connect 41 0 10 0;
#X connect 44 0 14 0;
#X restore 51 54 pd EXTERNAL_CONTROL;
#X text 256 125 AUTO WRITE;
#X text 256 145 AUTO READ;
#X text 256 165 AUTO NEXT;
#X obj 197 511 r \$0-lb;
#N canvas 282 184 574 468 COPY 0;
#X obj 106 282 text get \$0-listBox;
#X obj 106 301 route bang;
#X obj 226 395 text set \$0-listBox;
#X obj 199 414 s \$0-setColor;
#X obj 199 376 t b l;
#X obj 79 86 list split 1;
#X obj 142 225 list split 1;
#X text 62 22 ** MECANISMO PARA COPIAR UM SLOT PARA OUTRO(S);
#X obj 142 338 list;
#X obj 142 244 t b f b;
#X obj 181 263 list;
#X obj 142 161 route all;
#X obj 142 142 list trim;
#X obj 142 123 list;
#X obj 79 105 t b f;
#X obj 106 320 t b;
#X obj 142 357 route bang;
#X obj 79 67 r \$0-cp;
#X msg 142 180 0 1 2 3 4 5 6 7 8 9 10 11 12 13 14 15 16 17 18 19 20
21 22 23 24 25 26 27 28 29 30 31 32 33 34 35 36 37 38 39 40 41 42 43
44 45 46 47 48 49 50 51 52 53 54 55 56 57 58 59 60 61 62 63, f 61
;
#X connect 0 0 1 0;
#X connect 1 0 15 0;
#X connect 1 1 8 1;
#X connect 4 0 3 0;
#X connect 4 1 2 0;
#X connect 5 0 14 0;
#X connect 5 1 13 1;
#X connect 6 0 9 0;
#X connect 6 1 10 1;
#X connect 8 0 16 0;
#X connect 9 0 8 0;
#X connect 9 1 2 1;
#X connect 9 2 10 0;
#X connect 10 0 6 0;
#X connect 11 0 18 0;
#X connect 11 1 6 0;
#X connect 12 0 11 0;
#X connect 13 0 12 0;
#X connect 14 0 13 0;
#X connect 14 1 0 0;
#X connect 15 0 8 1;
#X connect 16 1 4 0;
#X connect 17 0 5 0;
#X connect 18 0 6 0;
#X restore 329 379 pd COPY;
#N canvas 344 193 558 488 MOVE 0;
#X text 43 22 ** MECANISMO PARA MOVER UM SLOT (COPIA CONTEÚDO E APAGA
SLOT DE ORIGEM), f 71;
#X obj 78 279 text get \$0-listBox;
#X obj 78 298 route bang;
#X obj 59 83 list split 1;
#X obj 114 222 list split 1;
#X obj 114 335 list;
#X obj 114 241 t b f b;
#X obj 153 260 list;
#X obj 210 392 text set \$0-listBox;
#X obj 171 430 s \$0-setColor;
#X obj 171 373 t b b l;
#X obj 190 411 text set \$0-listBox;
#X obj 114 120 list;
#X obj 59 102 t b f f;
#X obj 78 317 t b;
#X obj 114 354 route bang;
#X obj 114 158 route all;
#X obj 114 139 list trim;
#X obj 59 64 r \$0-mv;
#X msg 114 177 0 1 2 3 4 5 6 7 8 9 10 11 12 13 14 15 16 17 18 19 20
21 22 23 24 25 26 27 28 29 30 31 32 33 34 35 36 37 38 39 40 41 42 43
44 45 46 47 48 49 50 51 52 53 54 55 56 57 58 59 60 61 62 63, f 61
;
#X connect 1 0 2 0;
#X connect 2 0 14 0;
#X connect 2 1 5 1;
#X connect 3 0 13 0;
#X connect 3 1 12 1;
#X connect 4 0 6 0;
#X connect 4 1 7 1;
#X connect 5 0 15 0;
#X connect 6 0 5 0;
#X connect 6 1 8 1;
#X connect 6 2 7 0;
#X connect 7 0 4 0;
#X connect 10 0 9 0;
#X connect 10 1 11 0;
#X connect 10 2 8 0;
#X connect 12 0 17 0;
#X connect 13 0 12 0;
#X connect 13 1 1 0;
#X connect 13 2 11 1;
#X connect 14 0 5 1;
#X connect 15 1 10 0;
#X connect 16 0 19 0;
#X connect 16 1 4 0;
#X connect 17 0 16 0;
#X connect 18 0 3 0;
#X connect 19 0 4 0;
#X restore 329 398 pd MOVE;
#X text 359 21 ARGUMENTOS:;
#X text 359 51 2 - Auto-Write (0-1);
#X text 359 65 3 - Auto-Read (0-1);
#X text 359 79 4 - Auto-Next (0-1);
#X text 359 93 5 - Internal [send] (symbol);
#X obj 197 530 symbol \$5;
#X text 359 37 1 - [list trim] interno (0-1);
#X obj 51 25 inlet LIST_EXTERNAL_CONTROL;
#X obj 76 173 bng 15 250 50 0 \$0-click9 \$0-click9_set empty 17 7
0 10 -262144 -1 -1;
#X obj 96 173 bng 15 250 50 0 \$0-click10 \$0-click10_set empty 17
7 0 10 -262144 -1 -1;
#X obj 116 173 bng 15 250 50 0 \$0-click11 \$0-click11_set empty 17
7 0 10 -262144 -1 -1;
#X obj 136 173 bng 15 250 50 0 \$0-click12 \$0-click12_set empty 17
7 0 10 -262144 -1 -1;
#X obj 156 173 bng 15 250 50 0 \$0-click13 \$0-click13_set empty 17
7 0 10 -262144 -1 -1;
#X obj 176 173 bng 15 250 50 0 \$0-click14 \$0-click14_set empty 17
7 0 10 -262144 -1 -1;
#X obj 196 173 bng 15 250 50 0 \$0-click15 \$0-click15_set empty 17
7 0 10 -262144 -1 -1;
#X obj 56 173 bng 15 250 50 0 \$0-click8 \$0-click8_set empty 17 7
0 10 -262144 -1 -1;
#X obj 56 173 cnv 15 15 15 \$0-canvas8 \$0-canvas8_set 8 5 8 0 10 -262144
-66577 0;
#X obj 76 173 cnv 15 15 15 \$0-canvas9 \$0-canvas9_set 9 5 8 0 10 -262144
-66577 0;
#X obj 96 173 cnv 15 15 15 \$0-canvas10 \$0-canvas10_set 10 2 8 0 10
-262144 -66577 0;
#X obj 116 173 cnv 15 15 15 \$0-canvas11 \$0-canvas11_set 11 2 8 0
10 -262144 -66577 0;
#X obj 136 173 cnv 15 15 15 \$0-canvas12 \$0-canvas12_set 12 2 8 0
10 -262144 -66577 0;
#X obj 156 173 cnv 15 15 15 \$0-canvas13 \$0-canvas13_set 13 2 8 0
10 -262144 -66577 0;
#X obj 176 173 cnv 15 15 15 \$0-canvas14 \$0-canvas14_set 14 2 8 0
10 -262144 -66577 0;
#X obj 196 173 cnv 15 15 15 \$0-canvas15 \$0-canvas15_set 15 2 8 0
10 -262144 -66577 0;
#X obj 76 193 bng 15 250 50 0 \$0-click17 \$0-click17_set empty 17
7 0 10 -262144 -1 -1;
#X obj 96 193 bng 15 250 50 0 \$0-click18 \$0-click18_set empty 17
7 0 10 -262144 -1 -1;
#X obj 116 193 bng 15 250 50 0 \$0-click19 \$0-click19_set empty 17
7 0 10 -262144 -1 -1;
#X obj 136 193 bng 15 250 50 0 \$0-click20 \$0-click20_set empty 17
7 0 10 -262144 -1 -1;
#X obj 156 193 bng 15 250 50 0 \$0-click21 \$0-click21_set empty 17
7 0 10 -262144 -1 -1;
#X obj 176 193 bng 15 250 50 0 \$0-click22 \$0-click22_set empty 17
7 0 10 -262144 -1 -1;
#X obj 196 193 bng 15 250 50 0 \$0-click23 \$0-click23_set empty 17
7 0 10 -262144 -1 -1;
#X obj 56 193 bng 15 250 50 0 \$0-click16 \$0-click16_set empty 17
7 0 10 -262144 -1 -1;
#X obj 56 193 cnv 15 15 15 \$0-canvas16 \$0-canvas16_set 16 2 8 0 10
-262144 -66577 0;
#X obj 76 193 cnv 15 15 15 \$0-canvas17 \$0-canvas17_set 17 2 8 0 10
-262144 -66577 0;
#X obj 96 193 cnv 15 15 15 \$0-canvas18 \$0-canvas18_set 18 2 8 0 10
-262144 -66577 0;
#X obj 116 193 cnv 15 15 15 \$0-canvas19 \$0-canvas19_set 19 2 8 0
10 -262144 -66577 0;
#X obj 136 193 cnv 15 15 15 \$0-canvas20 \$0-canvas20_set 20 2 8 0
10 -262144 -66577 0;
#X obj 156 193 cnv 15 15 15 \$0-canvas21 \$0-canvas21_set 21 2 8 0
10 -262144 -66577 0;
#X obj 176 193 cnv 15 15 15 \$0-canvas22 \$0-canvas22_set 22 2 8 0
10 -262144 -66577 0;
#X obj 196 193 cnv 15 15 15 \$0-canvas23 \$0-canvas23_set 23 2 8 0
10 -262144 -66577 0;
#X obj 76 213 bng 15 250 50 0 \$0-click25 \$0-click25_set empty 17
7 0 10 -262144 -1 -1;
#X obj 96 213 bng 15 250 50 0 \$0-click26 \$0-click26_set empty 17
7 0 10 -262144 -1 -1;
#X obj 116 213 bng 15 250 50 0 \$0-click27 \$0-click27_set empty 17
7 0 10 -262144 -1 -1;
#X obj 136 213 bng 15 250 50 0 \$0-click28 \$0-click28_set empty 17
7 0 10 -262144 -1 -1;
#X obj 156 213 bng 15 250 50 0 \$0-click29 \$0-click29_set empty 17
7 0 10 -262144 -1 -1;
#X obj 176 213 bng 15 250 50 0 \$0-click30 \$0-click30_set empty 17
7 0 10 -262144 -1 -1;
#X obj 196 213 bng 15 250 50 0 \$0-click31 \$0-click31_set empty 17
7 0 10 -262144 -1 -1;
#X obj 56 213 bng 15 250 50 0 \$0-click24 \$0-click24_set empty 17
7 0 10 -262144 -1 -1;
#X obj 56 213 cnv 15 15 15 \$0-canvas24 \$0-canvas24_set 24 2 8 0 10
-262144 -66577 0;
#X obj 76 213 cnv 15 15 15 \$0-canvas25 \$0-canvas25_set 25 2 8 0 10
-262144 -66577 0;
#X obj 96 213 cnv 15 15 15 \$0-canvas26 \$0-canvas26_set 26 2 8 0 10
-262144 -66577 0;
#X obj 116 213 cnv 15 15 15 \$0-canvas27 \$0-canvas27_set 27 2 8 0
10 -262144 -66577 0;
#X obj 136 213 cnv 15 15 15 \$0-canvas28 \$0-canvas28_set 28 2 8 0
10 -262144 -66577 0;
#X obj 156 213 cnv 15 15 15 \$0-canvas29 \$0-canvas29_set 29 2 8 0
10 -262144 -66577 0;
#X obj 176 213 cnv 15 15 15 \$0-canvas30 \$0-canvas30_set 30 2 8 0
10 -262144 -66577 0;
#X obj 196 213 cnv 15 15 15 \$0-canvas31 \$0-canvas31_set 31 2 8 0
10 -262144 -66577 0;
#X obj 76 233 bng 15 250 50 0 \$0-click33 \$0-click33_set empty 17
7 0 10 -262144 -1 -1;
#X obj 96 233 bng 15 250 50 0 \$0-click34 \$0-click34_set empty 17
7 0 10 -262144 -1 -1;
#X obj 116 233 bng 15 250 50 0 \$0-click35 \$0-click35_set empty 17
7 0 10 -262144 -1 -1;
#X obj 136 233 bng 15 250 50 0 \$0-click36 \$0-click36_set empty 17
7 0 10 -262144 -1 -1;
#X obj 156 233 bng 15 250 50 0 \$0-click37 \$0-click37_set empty 17
7 0 10 -262144 -1 -1;
#X obj 176 233 bng 15 250 50 0 \$0-click38 \$0-click38_set empty 17
7 0 10 -262144 -1 -1;
#X obj 196 233 bng 15 250 50 0 \$0-click39 \$0-click39_set empty 17
7 0 10 -262144 -1 -1;
#X obj 56 233 bng 15 250 50 0 \$0-click32 \$0-click32_set empty 17
7 0 10 -262144 -1 -1;
#X obj 56 233 cnv 15 15 15 \$0-canvas32 \$0-canvas32_set 32 2 8 0 10
-262144 -66577 0;
#X obj 76 233 cnv 15 15 15 \$0-canvas33 \$0-canvas33_set 33 2 8 0 10
-262144 -66577 0;
#X obj 96 233 cnv 15 15 15 \$0-canvas34 \$0-canvas34_set 34 2 8 0 10
-262144 -66577 0;
#X obj 116 233 cnv 15 15 15 \$0-canvas35 \$0-canvas35_set 35 2 8 0
10 -262144 -66577 0;
#X obj 136 233 cnv 15 15 15 \$0-canvas36 \$0-canvas36_set 36 2 8 0
10 -262144 -66577 0;
#X obj 156 233 cnv 15 15 15 \$0-canvas37 \$0-canvas37_set 37 2 8 0
10 -262144 -66577 0;
#X obj 176 233 cnv 15 15 15 \$0-canvas38 \$0-canvas38_set 38 2 8 0
10 -262144 -66577 0;
#X obj 196 233 cnv 15 15 15 \$0-canvas39 \$0-canvas39_set 39 2 8 0
10 -262144 -66577 0;
#X obj 76 253 bng 15 250 50 0 \$0-click41 \$0-click41_set empty 17
7 0 10 -262144 -1 -1;
#X obj 96 253 bng 15 250 50 0 \$0-click42 \$0-click42_set empty 17
7 0 10 -262144 -1 -1;
#X obj 116 253 bng 15 250 50 0 \$0-click43 \$0-click43_set empty 17
7 0 10 -262144 -1 -1;
#X obj 136 253 bng 15 250 50 0 \$0-click44 \$0-click44_set empty 17
7 0 10 -262144 -1 -1;
#X obj 156 253 bng 15 250 50 0 \$0-click45 \$0-click45_set empty 17
7 0 10 -262144 -1 -1;
#X obj 176 253 bng 15 250 50 0 \$0-click46 \$0-click46_set empty 17
7 0 10 -262144 -1 -1;
#X obj 196 253 bng 15 250 50 0 \$0-click47 \$0-click47_set empty 17
7 0 10 -262144 -1 -1;
#X obj 56 253 bng 15 250 50 0 \$0-click40 \$0-click40_set empty 17
7 0 10 -262144 -1 -1;
#X obj 56 253 cnv 15 15 15 \$0-canvas40 \$0-canvas40_set 40 2 8 0 10
-262144 -66577 0;
#X obj 76 253 cnv 15 15 15 \$0-canvas41 \$0-canvas41_set 41 2 8 0 10
-262144 -66577 0;
#X obj 96 253 cnv 15 15 15 \$0-canvas42 \$0-canvas42_set 42 2 8 0 10
-262144 -66577 0;
#X obj 116 253 cnv 15 15 15 \$0-canvas43 \$0-canvas43_set 43 2 8 0
10 -262144 -66577 0;
#X obj 136 253 cnv 15 15 15 \$0-canvas44 \$0-canvas44_set 44 2 8 0
10 -262144 -66577 0;
#X obj 156 253 cnv 15 15 15 \$0-canvas45 \$0-canvas45_set 45 2 8 0
10 -262144 -66577 0;
#X obj 176 253 cnv 15 15 15 \$0-canvas46 \$0-canvas46_set 46 2 8 0
10 -262144 -66577 0;
#X obj 196 253 cnv 15 15 15 \$0-canvas47 \$0-canvas47_set 47 2 8 0
10 -262144 -66577 0;
#X obj 76 273 bng 15 250 50 0 \$0-click49 \$0-click49_set empty 17
7 0 10 -262144 -1 -1;
#X obj 96 273 bng 15 250 50 0 \$0-click50 \$0-click50_set empty 17
7 0 10 -262144 -1 -1;
#X obj 116 273 bng 15 250 50 0 \$0-click51 \$0-click51_set empty 17
7 0 10 -262144 -1 -1;
#X obj 136 273 bng 15 250 50 0 \$0-click52 \$0-click52_set empty 17
7 0 10 -262144 -1 -1;
#X obj 156 273 bng 15 250 50 0 \$0-click53 \$0-click53_set empty 17
7 0 10 -262144 -1 -1;
#X obj 176 273 bng 15 250 50 0 \$0-click54 \$0-click54_set empty 17
7 0 10 -262144 -1 -1;
#X obj 196 273 bng 15 250 50 0 \$0-click55 \$0-click55_set empty 17
7 0 10 -262144 -1 -1;
#X obj 56 273 bng 15 250 50 0 \$0-click48 \$0-click48_set empty 17
7 0 10 -262144 -1 -1;
#X obj 56 273 cnv 15 15 15 \$0-canvas48 \$0-canvas48_set 48 2 8 0 10
-262144 -66577 0;
#X obj 76 273 cnv 15 15 15 \$0-canvas49 \$0-canvas49_set 49 2 8 0 10
-262144 -66577 0;
#X obj 96 273 cnv 15 15 15 \$0-canvas50 \$0-canvas50_set 50 2 8 0 10
-262144 -66577 0;
#X obj 116 273 cnv 15 15 15 \$0-canvas51 \$0-canvas51_set 51 2 8 0
10 -262144 -66577 0;
#X obj 136 273 cnv 15 15 15 \$0-canvas52 \$0-canvas52_set 52 2 8 0
10 -262144 -66577 0;
#X obj 156 273 cnv 15 15 15 \$0-canvas53 \$0-canvas53_set 53 2 8 0
10 -262144 -66577 0;
#X obj 176 273 cnv 15 15 15 \$0-canvas54 \$0-canvas54_set 54 2 8 0
10 -262144 -66577 0;
#X obj 196 273 cnv 15 15 15 \$0-canvas55 \$0-canvas55_set 55 2 8 0
10 -262144 -66577 0;
#X obj 76 293 bng 15 250 50 0 \$0-click57 \$0-click57_set empty 17
7 0 10 -262144 -1 -1;
#X obj 96 293 bng 15 250 50 0 \$0-click58 \$0-click58_set empty 17
7 0 10 -262144 -1 -1;
#X obj 116 293 bng 15 250 50 0 \$0-click59 \$0-click59_set empty 17
7 0 10 -262144 -1 -1;
#X obj 136 293 bng 15 250 50 0 \$0-click60 \$0-click60_set empty 17
7 0 10 -262144 -1 -1;
#X obj 156 293 bng 15 250 50 0 \$0-click61 \$0-click61_set empty 17
7 0 10 -262144 -1 -1;
#X obj 176 293 bng 15 250 50 0 \$0-click62 \$0-click62_set empty 17
7 0 10 -262144 -1 -1;
#X obj 196 293 bng 15 250 50 0 \$0-click63 \$0-click63_set empty 17
7 0 10 -262144 -1 -1;
#X obj 56 293 bng 15 250 50 0 \$0-click56 \$0-click56_set empty 17
7 0 10 -262144 -1 -1;
#X obj 56 293 cnv 15 15 15 \$0-canvas56 \$0-canvas56_set 56 2 8 0 10
-262144 -66577 0;
#X obj 76 293 cnv 15 15 15 \$0-canvas57 \$0-canvas57_set 57 2 8 0 10
-262144 -66577 0;
#X obj 96 293 cnv 15 15 15 \$0-canvas58 \$0-canvas58_set 58 2 8 0 10
-262144 -66577 0;
#X obj 116 293 cnv 15 15 15 \$0-canvas59 \$0-canvas59_set 59 2 8 0
10 -262144 -66577 0;
#X obj 136 293 cnv 15 15 15 \$0-canvas60 \$0-canvas60_set 60 2 8 0
10 -262144 -66577 0;
#X obj 156 293 cnv 15 15 15 \$0-canvas61 \$0-canvas61_set 61 2 8 0
10 -262144 -66577 0;
#X obj 176 293 cnv 15 15 15 \$0-canvas62 \$0-canvas62_set 62 2 8 0
10 -262144 -66577 0;
#X obj 196 293 cnv 15 15 15 \$0-canvas63 \$0-canvas63_set 63 2 8 0
10 -262144 -66577 0;
#X obj 237 212 bng 25 250 50 0 empty empty empty 17 7 0 10 -4160 -1
-1;
#X obj 237 238 s \$0-setColor;
#X text 234 262 ATUALIZA CORES APÓS EDIÇÃO MANUAL DA MEMÓRIA,
f 24;
#X connect 28 0 29 0;
#X connect 29 0 30 0;
#X connect 29 1 31 0;
#X connect 30 0 35 0;
#X connect 31 0 34 0;
#X connect 32 0 33 0;
#X connect 32 0 31 1;
#X connect 33 0 30 1;
#X connect 34 0 35 0;
#X connect 35 0 39 0;
#X connect 35 0 49 0;
#X connect 38 0 40 0;
#X connect 41 0 55 1;
#X connect 47 0 40 0;
#X connect 59 0 67 0;
#X connect 67 0 49 1;
#X connect 69 0 55 0;
#X connect 182 0 183 0;
#X coords 0 -1 1 1 167 225 1 50 110;
