#N canvas 702 76 562 440 10;
#X obj 88 131 vu 10 120 \$0-vu empty -1 -8 0 8 -66577 -1 1 0;
#X obj 69 131 vsl 12 119 0 1 0 0 \$0-vol_gui \$0-vol_gui_set empty
0 -9 0 10 -262144 -1 -1 11800 1;
#X obj 222 36 inlet~;
#X obj 419 36 inlet;
#X obj 63 91 hsl 57 12 0 1 0 0 \$0-pan_gui \$0-pan_gui_set panL:0 2
6 0 10 -262144 -1 -1 2800 1;
#N canvas 272 550 183 232 mute 0;
#X obj 40 33 inlet~;
#X obj 40 204 outlet~;
#X obj 56 70 r \$0-mute;
#X obj 56 92 == 0;
#X obj 40 167 *~;
#X obj 56 136 line~;
#X obj 56 114 pack 0 5;
#X connect 0 0 4 0;
#X connect 2 0 3 0;
#X connect 3 0 6 0;
#X connect 4 0 1 0;
#X connect 5 0 4 1;
#X connect 6 0 5 0;
#X restore 223 141 pd mute;
#N canvas 242 333 549 401 solo 0;
#X obj 69 42 inlet~;
#X obj 69 338 outlet~;
#X obj 296 96 r \$0-solo;
#X obj 296 120 t b f;
#X obj 296 230 f;
#X obj 296 256 sel 1;
#X obj 85 136 sel 0;
#X obj 131 210 f;
#X msg 85 210 1;
#X obj 131 163 t b;
#X text 293 33 inspirado em [mixstrip1.mmb~];
#X obj 85 271 line~;
#X obj 85 249 pack 0 5;
#X obj 69 298 *~;
#X obj 213 193 loadbang;
#X obj 296 149 s \$1-mix_solo_trig;
#X obj 296 190 r \$1-mix_solo_ping;
#X obj 296 285 s \$1-mix_solo_pong;
#X obj 85 96 r \$1-mix_solo_state;
#X connect 0 0 13 0;
#X connect 2 0 3 0;
#X connect 3 0 15 0;
#X connect 3 1 4 1;
#X connect 3 1 7 1;
#X connect 4 0 5 0;
#X connect 5 0 17 0;
#X connect 6 0 8 0;
#X connect 6 1 9 0;
#X connect 7 0 12 0;
#X connect 8 0 12 0;
#X connect 9 0 7 0;
#X connect 11 0 13 1;
#X connect 12 0 11 0;
#X connect 13 0 1 0;
#X connect 14 0 8 0;
#X connect 16 0 4 0;
#X connect 18 0 6 0;
#X restore 223 172 pd solo;
#X obj 286 268 line~;
#X obj 286 226 r \$0-pan;
#X obj 442 330 r \$0-throw;
#X obj 69 348 *~ 1;
#X obj 381 348 *~ 1;
#X obj 70 392 throw~ \$1-mixmaster_L;
#X obj 381 392 throw~ \$1-mixmaster_R;
#N canvas 542 203 356 280 vu_meter 0;
#X obj 128 226 s \$0-vu;
#X obj 73 39 catch~ \$0-pref;
#X obj 183 39 catch~ \$0-posf;
#X obj 73 135 *~ 0;
#X obj 183 135 *~ 1;
#X obj 204 87 r \$0-pre;
#X obj 204 109 == 0;
#X obj 208 173 r \$0-analyse;
#X obj 128 191 bit_peaks~;
#X connect 1 0 3 0;
#X connect 2 0 4 0;
#X connect 3 0 8 0;
#X connect 4 0 8 0;
#X connect 5 0 6 0;
#X connect 5 0 3 1;
#X connect 6 0 4 1;
#X connect 7 0 8 2;
#X connect 8 0 0 0;
#X restore 419 133 pd vu_meter;
#X obj 299 83 throw~ \$0-pref;
#X obj 299 189 throw~ \$0-posf;
#X obj 87 103 bng 8 250 50 0 \$0-resetPan_gui \$0-resetPan_gui_set
empty 17 7 0 10 -262144 -1 -1;
#X floatatom 69 259 5 0 0 0 - #0-db_gui_set #0-db_gui, f 5;
#X text 103 259 db;
#N canvas 919 483 415 301 volume 0;
#X obj 70 32 inlet~;
#X obj 86 170 line~;
#X obj 70 192 *~;
#X obj 86 67 r \$0-vol;
#X msg 151 147 set \$1;
#X obj 151 126 - 100;
#X obj 151 105 rmstodb;
#X obj 266 89 + 100;
#X obj 70 252 outlet~;
#X obj 70 222 hip~ 5;
#X obj 266 111 dbtorms;
#X obj 266 133 sqrt;
#X obj 86 88 pow 2;
#X msg 86 149 \$1 10;
#X obj 151 170 s \$0-db_gui_set;
#X obj 266 170 s \$0-vol_gui_set;
#X obj 266 67 r \$0-db_gui;
#X connect 0 0 2 0;
#X connect 1 0 2 1;
#X connect 2 0 9 0;
#X connect 3 0 12 0;
#X connect 4 0 14 0;
#X connect 5 0 4 0;
#X connect 6 0 5 0;
#X connect 7 0 10 0;
#X connect 9 0 8 0;
#X connect 10 0 11 0;
#X connect 11 0 15 0;
#X connect 12 0 13 0;
#X connect 12 0 6 0;
#X connect 13 0 1 0;
#X connect 16 0 7 0;
#X restore 222 110 pd volume;
#X obj 222 392 outlet~ L;
#X obj 292 392 outlet~ R;
#X floatatom 66 71 3 0 12 0 - #0-gain_gui_set #0-gain_gui, f 3;
#X text 88 71 gain;
#N canvas 656 253 261 316 ganho 0;
#X obj 106 200 line~;
#X msg 106 179 \$1 10;
#X obj 106 78 r \$0-gain;
#X obj 92 41 inlet~;
#X obj 92 271 outlet~;
#X obj 92 233 *~;
#X obj 106 130 + 100;
#X obj 106 152 dbtorms;
#X obj 106 110 clip 0 12;
#X connect 0 0 5 1;
#X connect 1 0 0 0;
#X connect 2 0 8 0;
#X connect 3 0 5 0;
#X connect 5 0 4 0;
#X connect 6 0 7 0;
#X connect 7 0 1 0;
#X connect 8 0 6 0;
#X restore 222 66 pd ganho;
#N canvas 53 92 633 392 controles 0;
#X obj 41 31 inlet;
#X obj 236 142 > 0;
#X obj 269 142 > 0;
#X obj 302 142 > 0;
#X obj 110 142 clip 0 1;
#X obj 173 142 clip 0 1;
#X obj 335 142 > 0;
#X obj 401 142 t b;
#X obj 41 142 clip 0 12;
#X obj 117 51 r \$1-mix_ctl;
#X obj 117 70 route \$2;
#X obj 180 70 route global;
#X obj 401 163 s \$0-reset;
#X text 403 220 array de memória local;
#X obj 319 262 loadbang;
#X obj 319 281 f \$0;
#X msg 319 303 \$1-memo;
#X text 317 345 envia nome do array para [arraymemo];
#X obj 405 271 s \$0-memo-load;
#X text 403 290 atualiza com valores da memória;
#X obj 289 262 t b;
#X obj 405 249 r \$1-memo-load;
#X obj 289 243 r \$1-memo-get;
#X obj 319 325 s \$1-memo-arrays;
#X obj 41 105 route gain vol pan solo mute analyse pre throw reset
;
#X obj 368 142 > 0;
#X obj 403 204 array define \$0-memo 8;
#X obj 41 181 bit_param \$0 gain \$0-memo 0 0 \$3-\$2;
#X obj 41 201 bit_param \$0 vol \$0-memo 1 1 \$3-\$2;
#X obj 41 221 bit_param \$0 pan \$0-memo 2 0.5 \$3-\$2;
#X obj 41 241 bit_param \$0 solo \$0-memo 3 0 \$3-\$2;
#X obj 41 261 bit_param \$0 mute \$0-memo 4 0 \$3-\$2;
#X obj 41 281 bit_param \$0 analyse \$0-memo 5 1 \$3-\$2;
#X obj 41 301 bit_param \$0 pre \$0-memo 6 0 \$3-\$2;
#X obj 41 321 bit_param \$0 throw \$0-memo 7 1 \$3-\$2;
#X connect 0 0 24 0;
#X connect 1 0 30 0;
#X connect 2 0 31 0;
#X connect 3 0 32 0;
#X connect 4 0 28 0;
#X connect 5 0 29 0;
#X connect 6 0 33 0;
#X connect 7 0 12 0;
#X connect 8 0 27 0;
#X connect 9 0 10 0;
#X connect 9 0 11 0;
#X connect 10 0 24 0;
#X connect 11 0 24 0;
#X connect 14 0 15 0;
#X connect 15 0 16 0;
#X connect 16 0 23 0;
#X connect 20 0 15 0;
#X connect 21 0 18 0;
#X connect 22 0 20 0;
#X connect 24 0 8 0;
#X connect 24 1 4 0;
#X connect 24 2 5 0;
#X connect 24 3 1 0;
#X connect 24 4 2 0;
#X connect 24 5 3 0;
#X connect 24 6 6 0;
#X connect 24 7 25 0;
#X connect 24 8 7 0;
#X connect 25 0 34 0;
#X restore 419 64 pd controles;
#X msg 286 247 \$1 10;
#X obj 56 279 tgl 15 0 \$0-solo_gui \$0-solo_gui_set S 5 8 0 10 -262144
-262144 -24198 0 1;
#X obj 77 279 tgl 15 0 \$0-mute_gui \$0-mute_gui_set M 5 8 0 10 -262144
-262144 -258699 0 1;
#X obj 114 282 tgl 12 0 \$0-pre_gui \$0-pre_gui_set P 4 7 0 8 -262144
-262144 -62784 0 1;
#X obj 99 282 tgl 12 0 \$0-analyse_gui \$0-analyse_gui_set A 4 7 0
8 -250685 -250685 -262144 1 1;
#N canvas 35 191 1201 339 gui_reset 0;
#X obj 152 71 sel 0 1;
#X msg 152 124 color 0 0 13;
#X obj 318 71 sel 0 1;
#X msg 318 124 color 0 0 16;
#X obj 32 124 i;
#X obj 152 30 r \$0-mute;
#X obj 318 30 r \$0-solo;
#X obj 32 72 * 200;
#X obj 32 94 - 100;
#X obj 653 71 sel 0 1;
#X obj 653 30 r \$0-pre;
#X msg 653 124 color 0 0 18;
#X msg 382 159 color 16 16 0;
#X msg 216 159 color 13 13 0;
#X msg 717 159 color 18 18 0;
#X msg 32 152 label panL:\$1;
#X msg 838 267 0.5;
#X msg 838 82 1;
#X msg 949 82 0;
#X obj 485 71 sel 0 1;
#X obj 485 30 r \$0-analyse;
#X msg 485 124 color 0 0 19;
#X msg 549 159 color 19 19 0;
#X obj 838 104 s \$0-vol_gui_set;
#X obj 949 104 s \$0-gain_gui_set;
#X obj 152 202 s \$0-mute_gui_set;
#X obj 318 202 s \$0-solo_gui_set;
#X obj 485 202 s \$0-analyse_gui_set;
#X obj 653 202 s \$0-pre_gui_set;
#X obj 838 245 r \$0-resetPan_gui;
#X obj 838 30 r \$0-reset;
#X msg 838 133 0;
#X obj 838 155 s \$0-solo_gui_set;
#X obj 955 155 s \$0-mute_gui_set;
#X msg 955 133 0;
#X msg 973 184 0;
#X obj 838 206 s \$0-analyse_gui_set;
#X msg 838 184 1;
#X obj 973 206 s \$0-pre_gui_set;
#X obj 32 30 r \$0-pan;
#X obj 32 202 s \$0-pan_gui_set;
#X obj 838 289 s \$0-pan_gui_set;
#X obj 1066 104 s \$0-pan_gui_set;
#X msg 1066 82 0.5;
#X obj 838 52 t b b b b b b b;
#X connect 0 0 1 0;
#X connect 0 1 13 0;
#X connect 1 0 25 0;
#X connect 2 0 3 0;
#X connect 2 1 12 0;
#X connect 3 0 26 0;
#X connect 4 0 15 0;
#X connect 5 0 0 0;
#X connect 6 0 2 0;
#X connect 7 0 8 0;
#X connect 8 0 4 0;
#X connect 9 0 11 0;
#X connect 9 1 14 0;
#X connect 10 0 9 0;
#X connect 11 0 28 0;
#X connect 12 0 26 0;
#X connect 13 0 25 0;
#X connect 14 0 28 0;
#X connect 15 0 40 0;
#X connect 16 0 41 0;
#X connect 17 0 23 0;
#X connect 18 0 24 0;
#X connect 19 0 21 0;
#X connect 19 1 22 0;
#X connect 20 0 19 0;
#X connect 21 0 27 0;
#X connect 22 0 27 0;
#X connect 29 0 16 0;
#X connect 30 0 44 0;
#X connect 31 0 32 0;
#X connect 34 0 33 0;
#X connect 35 0 38 0;
#X connect 37 0 36 0;
#X connect 39 0 7 0;
#X connect 43 0 42 0;
#X connect 44 0 17 0;
#X connect 44 1 18 0;
#X connect 44 2 43 0;
#X connect 44 3 31 0;
#X connect 44 4 34 0;
#X connect 44 5 37 0;
#X connect 44 6 35 0;
#X restore 419 104 pd gui_reset;
#X obj 223 296 bit_cospan~;
#X connect 2 0 25 0;
#X connect 3 0 26 0;
#X connect 5 0 6 0;
#X connect 6 0 16 0;
#X connect 6 0 33 0;
#X connect 7 0 33 1;
#X connect 8 0 27 0;
#X connect 9 0 11 1;
#X connect 9 0 10 1;
#X connect 10 0 12 0;
#X connect 11 0 13 0;
#X connect 20 0 5 0;
#X connect 25 0 20 0;
#X connect 25 0 15 0;
#X connect 27 0 7 0;
#X connect 33 0 10 0;
#X connect 33 0 21 0;
#X connect 33 1 11 0;
#X connect 33 1 22 0;
#X coords 0 -1 1 1 82 250 1 50 50;
