#N canvas 93 109 358 413 10;
#X obj 50 218 samphold~;
#X obj 50 288 *~;
#X obj 50 63 sig~;
#X obj 50 368 outlet~;
#X obj 50 248 vd~ \$1;
#X obj 167 217 samphold~;
#X obj 167 287 *~;
#X obj 167 247 vd~ \$1;
#N canvas 0 0 450 300 cosenv 0;
#X obj 92 107 cos~;
#X obj 92 128 *~ 0.5;
#X obj 93 148 +~ 0.5;
#X obj 93 60 -~ 0.5;
#X obj 92 82 wrap~;
#X obj 93 37 inlet~;
#X obj 94 184 outlet~;
#X connect 0 0 1 0;
#X connect 1 0 2 0;
#X connect 2 0 6 0;
#X connect 3 0 4 0;
#X connect 4 0 0 0;
#X connect 5 0 3 0;
#X restore 163 186 pd cosenv;
#X obj 248 138 +~ 0.5;
#X obj 247 161 wrap~;
#N canvas 0 0 450 300 cosenv 0;
#X obj 92 107 cos~;
#X obj 92 128 *~ 0.5;
#X obj 93 148 +~ 0.5;
#X obj 93 60 -~ 0.5;
#X obj 92 82 wrap~;
#X obj 93 37 inlet~;
#X obj 94 184 outlet~;
#X connect 0 0 1 0;
#X connect 1 0 2 0;
#X connect 2 0 6 0;
#X connect 3 0 4 0;
#X connect 4 0 0 0;
#X connect 5 0 3 0;
#X restore 247 187 pd cosenv;
#X obj 50 33 inlet;
#X obj 164 58 swap 1000;
#X obj 164 77 /;
#X obj 164 96 phasor~ 5;
#X msg 164 39 50;
#X obj 164 20 loadbang;
#X connect 0 0 4 0;
#X connect 1 0 3 0;
#X connect 2 0 0 0;
#X connect 2 0 5 0;
#X connect 4 0 1 0;
#X connect 5 0 7 0;
#X connect 6 0 3 0;
#X connect 7 0 6 0;
#X connect 8 0 1 1;
#X connect 9 0 10 0;
#X connect 10 0 5 1;
#X connect 10 0 11 0;
#X connect 11 0 6 1;
#X connect 12 0 2 0;
#X connect 13 0 14 0;
#X connect 13 1 14 1;
#X connect 14 0 15 0;
#X connect 15 0 0 1;
#X connect 15 0 8 0;
#X connect 15 0 9 0;
#X connect 16 0 13 0;
#X connect 17 0 16 0;
