#N canvas 53 208 855 432 10;
#X obj 50 140 ofTranslate;
#X obj 50 34 inlet RENDER_CHAIN;
#X obj 50 327 ofPopMatrix;
#X obj 50 346 ofPopStyle;
#X obj 557 178 -;
#X obj 557 121 t f f;
#X obj 584 159 t f f;
#X obj 557 197 / 2;
#X obj 50 63 ofPushStyle;
#X obj 50 82 ofPushMatrix;
#X obj 50 375 outlet;
#X obj 317 102 r \$1-width;
#X text 626 149 CÁLCULOS DOS VALORES Y LOCAIS;
#X text 389 102 LARGURA TOTAL;
#N canvas 417 215 706 469 CONTROLS 0;
#X obj 307 246 loadbang;
#X text 117 380 DEFINE VARIÁVEIS DO SISTEMA OFELIA, f 19;
#X obj 50 350 ofDefine \; @posX \; @posY \; @sizeX \; @sizeY \; @value
\;;
#X obj 50 25 inlet;
#X text 434 133 MEMÓRIA LOCAL;
#X text 285 169 PROPORÇÃO 0-1 DA LARGURA;
#X text 285 188 PROPORÇÃO 0-1 DA ALTURA;
#X obj 50 93 bit_param v\$0_posX \$0-memo 0 0;
#X obj 50 112 bit_param v\$0_posY \$0-memo 1 0;
#X obj 50 131 bit_param v\$0_sizeX \$0-memo 2 1;
#X obj 50 150 bit_param v\$0_sizeY \$0-memo 3 1;
#X obj 50 207 bit_param v\$0_value \$0-memo 6 \$2;
#X obj 50 226 bit_param v\$0_drawPath \$0-memo 7 1;
#X obj 50 283 bit_param v\$0_bgColor \$0-memo 10;
#X obj 50 302 bit_param v\$0_bgColor2 \$0-memo 11;
#X obj 50 321 bit_param v\$0_actColor \$0-memo 12;
#X obj 307 133 bit_memo \$0-memo 13;
#X obj 50 54 route posX posY sizeX sizeY handlerX handlerY value drawPath
drawPNG touch bgColor bgColor2 actColor, f 100;
#X msg 307 265 118 126 133 255;
#X obj 50 245 bit_param v\$0_drawPNG \$0-memo 8 0;
#X obj 50 264 bit_param v\$0_touch \$0-memo 9 0;
#X msg 307 284 110 107 175 255;
#X msg 307 303 212 219 229 255;
#X obj 50 188 bit_param v\$0_handlerY \$0-memo 5 0.7;
#X obj 50 169 bit_param v\$0_handlerX \$0-memo 4 0.07;
#X connect 0 0 21 0;
#X connect 0 0 22 0;
#X connect 0 0 18 0;
#X connect 3 0 17 0;
#X connect 17 0 7 0;
#X connect 17 1 8 0;
#X connect 17 2 9 0;
#X connect 17 3 10 0;
#X connect 17 4 24 0;
#X connect 17 5 23 0;
#X connect 17 6 11 0;
#X connect 17 7 12 0;
#X connect 17 8 19 0;
#X connect 17 9 20 0;
#X connect 17 10 13 0;
#X connect 17 11 14 0;
#X connect 17 12 15 0;
#X connect 18 0 13 0;
#X connect 21 0 14 0;
#X connect 22 0 15 0;
#X restore 317 63 pd CONTROLS;
#X obj 317 34 inlet EXTERNAL_CONTROL;
#X text 636 102 ALTURA DO CABEÇALHO;
#X text 694 288 FUNDO - INTERAÇÃO;
#X text 265 288 HANDLER;
#X obj 317 121 t f f;
#X text 392 140 PORCENTAGEM DA LARGURA;
#X obj 71 121 ofRcv @posX;
#X obj 152 121 ofRcv @posY;
#X text 366 188 PORCENTAGEM DA LARGURA;
#X obj 317 207 ofSnd @posX-;
#X obj 344 159 ofSnd @sizeX-;
#X obj 611 178 ofSnd @sizeY-;
#X obj 557 216 ofSnd @posY-;
#X obj 557 102 r \$1-h_head;
#X obj 351 356 ofRcv @value;
#X obj 351 375 outlet VALUE;
#N canvas 652 279 577 497 INTERACTION 0;
#X obj 162 73 unpack f f f;
#X msg 222 92 0;
#X msg 252 92 1;
#X obj 189 111 spigot;
#X obj 162 92 t f f;
#X obj 56 73 sel 1;
#X text 237 111 CAPTURA PRIMEIRO VALOR X DO MOVIMENTO;
#X obj 189 130 t b f b;
#X obj 56 34 inlet TOUCH;
#X obj 162 34 inlet MOVE;
#X obj 162 149 -;
#X obj 162 289 +;
#X obj 162 346 t f f;
#X obj 189 271 f;
#X obj 162 327 clip 0 100;
#X obj 355 251 ofRcv @sizeX;
#X text 171 192 ** VER SE SERÁ PRECISO IMPLEMENTAR MÓDULO PRA AJUSTAR
MOVIMENTO ÀS DIMENSÕES REAIS DA TELA NOS DISPOSITIVOS - O ESQUEMA
DO MÓDULO É O MESMO USADO NO [gui_number], f 53;
#X obj 355 289 -;
#X obj 370 34 inlet HANDLER_SIZE_X;
#X obj 370 270 t b f;
#X text 234 327 LIMITES DO MOVIMENTO;
#X text 118 150 DELTA;
#X text 58 290 APLICA DELTA NO ÚLTIMO VALOR, f 15;
#X obj 162 365 change -1;
#X obj 162 168 int;
#X obj 162 431 outlet HANDLER_POS_X;
#X obj 162 384 t f f;
#X obj 359 402 /;
#X text 389 403 GERA VALOR 0 - 1;
#X obj 359 431 ofSnd @value-;
#X obj 335 308 t f f f;
#X obj 235 289 *;
#X obj 235 251 ofRcv @value;
#X obj 235 270 clip 0 1;
#X connect 0 0 4 0;
#X connect 1 0 3 1;
#X connect 2 0 3 1;
#X connect 3 0 7 0;
#X connect 4 0 10 0;
#X connect 4 1 3 0;
#X connect 5 0 2 0;
#X connect 7 0 13 0;
#X connect 7 1 10 1;
#X connect 7 2 1 0;
#X connect 8 0 5 0;
#X connect 9 0 0 0;
#X connect 10 0 24 0;
#X connect 11 0 14 0;
#X connect 12 0 23 0;
#X connect 12 1 13 1;
#X connect 13 0 11 1;
#X connect 14 0 12 0;
#X connect 15 0 17 0;
#X connect 17 0 30 0;
#X connect 18 0 19 0;
#X connect 19 0 17 0;
#X connect 19 1 17 1;
#X connect 23 0 26 0;
#X connect 24 0 11 0;
#X connect 26 0 25 0;
#X connect 26 1 27 0;
#X connect 27 0 29 0;
#X connect 30 0 31 1;
#X connect 30 1 14 2;
#X connect 30 2 27 1;
#X connect 31 0 14 0;
#X connect 32 0 33 0;
#X connect 33 0 31 0;
#X restore 541 307 pd INTERACTION;
#N canvas 64 156 791 292 CONTROL 0;
#X msg 47 191 posX \$1;
#X msg 369 191 posY \$1;
#X msg 173 191 sizeX \$1;
#X obj 47 238 outlet CONTROLS;
#X obj 188 49 ofRcv @handlerX;
#X obj 173 87 *;
#X obj 188 68 t b f;
#X obj 173 30 ofRcv @sizeX;
#X obj 369 48 ofRcv @sizeY;
#X obj 476 30 ofRcv @handlerY;
#X msg 463 191 sizeY \$1;
#X obj 369 143 -;
#X obj 369 86 t f f;
#X obj 396 124 t f f;
#X obj 396 105 * 0.9;
#X obj 369 162 / 2;
#X obj 476 49 t b f;
#X obj 369 67 f;
#X obj 173 106 t f f;
#X obj 47 30 inlet POS_X;
#X obj 200 238 outlet SIZE_X_HANDLER;
#X obj 632 68 ofRcv @drawPath;
#X msg 632 87 drawPath \$1;
#X obj 632 220 t a;
#X obj 632 106 ofRcv @drawPNG;
#X msg 632 125 drawPNG \$1;
#X obj 632 144 ofRcv @bgColor2;
#X obj 632 182 ofRcv @actColor;
#X msg 632 201 actColor \$1 \$2 \$3 \$4;
#X msg 632 163 bgColor \$1 \$2 \$3 \$4;
#X connect 0 0 3 0;
#X connect 1 0 3 0;
#X connect 2 0 3 0;
#X connect 4 0 6 0;
#X connect 5 0 18 0;
#X connect 6 0 5 0;
#X connect 6 1 5 1;
#X connect 7 0 5 0;
#X connect 8 0 17 0;
#X connect 9 0 16 0;
#X connect 10 0 3 0;
#X connect 11 0 15 0;
#X connect 12 0 11 0;
#X connect 12 1 14 0;
#X connect 13 0 11 1;
#X connect 13 1 10 0;
#X connect 14 0 13 0;
#X connect 15 0 1 0;
#X connect 16 0 17 0;
#X connect 16 1 14 1;
#X connect 17 0 12 0;
#X connect 18 0 2 0;
#X connect 18 1 20 0;
#X connect 19 0 0 0;
#X connect 21 0 22 0;
#X connect 22 0 23 0;
#X connect 23 0 3 0;
#X connect 24 0 25 0;
#X connect 25 0 23 0;
#X connect 26 0 29 0;
#X connect 27 0 28 0;
#X connect 28 0 23 0;
#X connect 29 0 23 0;
#X restore 193 269 pd CONTROL;
#N canvas 259 246 420 300 CONTROL 0;
#X msg 59 70 sizeX \$1;
#X msg 159 70 sizeY \$1;
#X obj 59 239 outlet CONTROLS;
#X obj 59 31 ofRcv @sizeX;
#X obj 159 31 ofRcv @sizeY;
#X obj 242 221 t a;
#X obj 242 145 ofRcv @touch;
#X msg 242 164 touch \$1;
#X obj 242 183 ofRcv @bgColor;
#X msg 242 202 bgColor \$1 \$2 \$3 \$4;
#X connect 0 0 2 0;
#X connect 1 0 2 0;
#X connect 3 0 0 0;
#X connect 4 0 1 0;
#X connect 5 0 2 0;
#X connect 6 0 7 0;
#X connect 7 0 5 0;
#X connect 8 0 9 0;
#X connect 9 0 5 0;
#X restore 622 269 pd CONTROL;
#X obj 67 288 gui_button \$1 0 0 1 1 0 1 1 0 0;
#X obj 344 140 * 0.26;
#X obj 317 188 * 0.71;
#X obj 50 169 t b b b b;
#X text 435 258 TRILHA DO SLIDER;
#N canvas 2 109 259 282 SLIDER_TRAIL 0;
#N canvas 64 156 562 230 CONTROL 0;
#X obj 98 60 ofRcv @handlerX;
#X obj 83 98 *;
#X obj 98 79 t b f;
#X obj 53 41 ofRcv @sizeX;
#X obj 326 41 ofRcv @sizeY;
#X obj 326 117 -;
#X obj 326 60 t f f;
#X obj 353 98 t f f;
#X obj 326 136 / 2;
#X obj 53 60 t f f;
#X obj 53 133 -;
#X obj 83 117 t f f;
#X obj 110 136 / 2;
#X obj 213 172 outlet SIZE_X;
#X obj 110 172 outlet POS_X;
#X obj 353 79 * 0.05;
#X obj 429 172 outlet SIZE_Y;
#X obj 326 172 outlet POS_Y;
#X connect 0 0 2 0;
#X connect 1 0 11 0;
#X connect 2 0 1 0;
#X connect 2 1 1 1;
#X connect 3 0 9 0;
#X connect 4 0 6 0;
#X connect 5 0 8 0;
#X connect 6 0 5 0;
#X connect 6 1 15 0;
#X connect 7 0 5 1;
#X connect 7 1 16 0;
#X connect 8 0 17 0;
#X connect 9 0 10 0;
#X connect 9 1 1 0;
#X connect 10 0 13 0;
#X connect 11 0 10 1;
#X connect 11 1 12 0;
#X connect 12 0 14 0;
#X connect 15 0 7 0;
#X restore 91 122 pd CONTROL;
#X obj 70 141 ofTranslate;
#X obj 70 179 ofRectRounded 1 1 4;
#X obj 70 160 ofSetColor 0 0 0;
#X obj 70 44 inlet RENDER_CHAIN;
#X obj 70 83 ofPushMatrix;
#X obj 70 218 ofPopMatrix;
#X connect 0 0 1 1;
#X connect 0 1 2 1;
#X connect 0 2 1 2;
#X connect 0 3 2 2;
#X connect 1 0 3 0;
#X connect 2 0 6 0;
#X connect 3 0 2 0;
#X connect 4 0 5 0;
#X connect 5 0 1 0;
#X restore 332 258 pd SLIDER_TRAIL;
#X obj 496 288 gui_button \$1 0 0 1 1 0 0 0 0 0;
#X obj 584 140 * 0.65;
#X connect 0 0 37 0;
#X connect 1 0 8 0;
#X connect 2 0 3 0;
#X connect 3 0 10 0;
#X connect 4 0 7 0;
#X connect 5 0 4 0;
#X connect 5 1 41 0;
#X connect 6 0 4 1;
#X connect 6 1 26 0;
#X connect 7 0 27 0;
#X connect 8 0 9 0;
#X connect 9 0 0 0;
#X connect 11 0 19 0;
#X connect 15 0 14 0;
#X connect 19 0 36 0;
#X connect 19 1 35 0;
#X connect 21 0 0 1;
#X connect 22 0 0 2;
#X connect 28 0 5 0;
#X connect 29 0 30 0;
#X connect 31 0 32 0;
#X connect 32 0 34 3;
#X connect 32 1 31 2;
#X connect 33 0 40 3;
#X connect 35 0 25 0;
#X connect 36 0 24 0;
#X connect 37 0 2 0;
#X connect 37 1 34 0;
#X connect 37 2 39 0;
#X connect 37 3 40 0;
#X connect 40 1 31 0;
#X connect 40 1 34 2;
#X connect 40 2 31 1;
#X connect 41 0 6 0;
