#N canvas 138 53 1240 821 10;
#X obj 374 422 ofLoadPath2d \; @grid \;;
#X obj 667 657 ofSetFillMode FILLED;
#X obj 667 676 ofDrawPath2d @grid;
#X msg 398 403 clear;
#X obj 967 676 ofRectangle;
#X obj 385 213 /;
#X obj 374 318 pack f f f;
#X obj 348 107 t f f;
#X obj 250 108 until;
#X obj 250 146 f;
#X obj 273 146 + 1;
#X msg 265 127 0;
#X obj 250 281 * 1;
#X msg 374 375 add moveTo \$1 0 \, add rectangle \$2 \$3;
#X obj 348 175 - 1;
#X obj 315 194 sel 15;
#X obj 250 165 t f f f;
#X msg 250 375 add moveTo \$1 0;
#X obj 269 195 mod 2;
#X obj 269 214 t f f;
#X obj 250 356 spigot;
#X obj 283 337 == 0;
#X obj 374 356 spigot;
#X obj 250 300 t f f;
#X obj 407 337 == 1;
#X obj 521 319 == 0;
#X text 464 428 DEFINE PATH PARA DIVISÕES;
#X obj 431 107 t f f;
#X obj 57 179 ofTranslate;
#X text 423 15 ** GERA VISUALIZAÇÃO DAS DIVISÕES DE CADA CAMADA
DE ÁUDIO;
#X obj 57 50 inlet RENDER_CHAIN;
#X obj 395 676 ofTranslate;
#X obj 395 541 ofSetLineWidth 4;
#X obj 482 262 r \$0-type;
#X obj 482 300 s \$0-refresh;
#X obj 482 281 t b f f;
#X obj 250 50 r \$0-refresh;
#X obj 967 657 ofSetColor;
#X obj 667 638 ofSetColor;
#X obj 497 619 r \$0-range;
#X obj 497 668 *;
#X obj 416 638 *;
#X obj 416 619 r \$0-offset;
#X obj 348 50 r \$0-div;
#X obj 516 50 r \$0-sizeY;
#X obj 431 50 r \$0-sizeX;
#X obj 78 160 r \$0-posX;
#X obj 147 160 r \$0-posY;
#X obj 385 194 pack f f;
#X obj 385 175 f;
#X obj 250 89 t b b b b;
#X obj 395 590 ofSetColor;
#X obj 1093 620 list prepend set;
#X obj 1093 639 list trim;
#X obj 805 601 list prepend set;
#X obj 805 620 list trim;
#X obj 516 553 list prepend set;
#X obj 516 572 list trim;
#X obj 520 638 t b f;
#X obj 439 638 t b f;
#X msg 348 88 1;
#X obj 348 69 moses 1;
#X obj 431 69 moses 1;
#X obj 516 69 moses 1;
#X msg 431 88 1;
#X msg 516 88 1;
#X obj 57 744 ofPopMatrix;
#X obj 57 763 ofPopStyle;
#X obj 57 127 ofSetDepthTest 0;
#X obj 694 215 r \$1-h_tracks;
#X obj 694 291 -;
#X obj 694 234 t f f;
#X obj 721 272 t f f;
#X obj 721 253 * 0.9;
#X obj 694 310 / 2;
#X obj 748 291 s \$0-sizeY-;
#X obj 694 329 s \$0-posY-;
#X obj 395 522 ofSetFillMode 1;
#X obj 57 79 ofPushStyle;
#X obj 57 98 ofPushMatrix;
#X obj 57 792 outlet;
#N canvas 512 196 926 571 CONTROLS 0;
#X obj 307 331 loadbang;
#X obj 50 493 s \$0-refresh;
#X obj 50 474 bang;
#X text 47 517 ATUALIZA GRÁFICOS QUANDO MUDA PARÂMETROS VISUAIS,
f 24;
#X obj 50 25 inlet;
#X text 434 163 MEMÓRIA LOCAL;
#X obj 50 93 bit_param2 \$0-posX \$0-memo 0 0;
#X obj 50 112 bit_param2 \$0-posY \$0-memo 1 0;
#X obj 50 131 bit_param2 \$0-sizeX \$0-memo 2 1;
#X obj 50 150 bit_param2 \$0-sizeY \$0-memo 3 1;
#X obj 50 169 bit_param2 \$0-div \$0-memo 4 \$2;
#X obj 50 188 bit_param2 \$0-type \$0-memo 5 \$3;
#X obj 50 207 bit_param2 \$0-range \$0-memo 6 \$4;
#X obj 50 226 bit_param2 \$0-offset \$0-memo 7 \$5;
#X obj 307 163 bit_memo \$0-memo 19;
#X obj 50 245 bit_param2 \$0-active \$0-memo 8 \$6;
#X obj 50 264 bit_param2 \$0-touch \$0-memo 9 \$7;
#X obj 50 378 bit_param2 \$0-color0 \$0-memo 15;
#X obj 50 397 bit_param2 \$0-color1 \$0-memo 16;
#X obj 50 416 bit_param2 \$0-color2 \$0-memo 17;
#X obj 50 435 bit_param2 \$0-color3 \$0-memo 18;
#X obj 50 283 bit_param2 \$0-drawBG \$0-memo 10 1;
#X obj 50 302 bit_param2 \$0-drawGrid \$0-memo 11 1;
#X obj 50 321 bit_param2 \$0-drawRange \$0-memo 12 1;
#X obj 50 54 route posX posY sizeX sizeY div type range offset active
touch drawBG drawGrid drawRange drawActive fillRange color0 color1
color2 color3, f 137;
#X obj 50 340 bit_param2 \$0-drawActive \$0-memo 13 0;
#X obj 50 359 bit_param2 \$0-fillRange \$0-memo 14 0;
#X msg 307 398 110 106 174 150;
#X msg 307 360 0 0 0 76;
#X msg 307 379 0 0 0 155;
#X msg 307 417 235 38 74 255;
#X connect 0 0 27 0;
#X connect 0 0 28 0;
#X connect 0 0 30 0;
#X connect 0 0 29 0;
#X connect 2 0 1 0;
#X connect 4 0 24 0;
#X connect 6 0 2 0;
#X connect 7 0 2 0;
#X connect 8 0 2 0;
#X connect 9 0 2 0;
#X connect 10 0 2 0;
#X connect 11 0 2 0;
#X connect 24 0 6 0;
#X connect 24 1 7 0;
#X connect 24 2 8 0;
#X connect 24 3 9 0;
#X connect 24 4 10 0;
#X connect 24 5 11 0;
#X connect 24 6 12 0;
#X connect 24 7 13 0;
#X connect 24 8 15 0;
#X connect 24 9 16 0;
#X connect 24 10 21 0;
#X connect 24 11 22 0;
#X connect 24 12 23 0;
#X connect 24 13 25 0;
#X connect 24 14 26 0;
#X connect 24 15 17 0;
#X connect 24 16 18 0;
#X connect 24 17 19 0;
#X connect 24 18 20 0;
#X connect 27 0 19 0;
#X connect 28 0 17 0;
#X connect 29 0 18 0;
#X connect 30 0 20 0;
#X restore 694 79 pd CONTROLS;
#X obj 694 50 inlet EXTERNAL_CONTROL;
#X obj 694 138 r \$1-width;
#X obj 694 157 * 0.125;
#X obj 869 138 r \$1-w_main;
#X text 785 215 ALTURA DAS TRACKS;
#X text 773 262 CÁLCULOS DOS VALORES Y LOCAIS;
#X text 766 138 LARGURA TOTAL;
#X text 947 138 LARGURA DA ÁREA PRINCIPAL;
#X obj 869 157 s \$0-sizeX-;
#X obj 694 176 s \$0-posX-;
#X obj 967 638 spigot 1;
#X obj 1012 619 r \$0-drawBG;
#X obj 667 619 spigot 1;
#X obj 712 600 r \$0-drawGrid;
#X obj 805 582 r \$0-color1;
#X obj 516 534 r \$0-color2;
#X obj 482 503 r \$0-fillRange;
#X obj 395 503 spigot 1;
#X obj 440 484 r \$0-drawRange;
#X obj 84 713 ofRectangle;
#X obj 84 590 ofSetColor;
#X obj 244 553 list prepend set;
#X obj 244 572 list trim;
#X obj 84 571 spigot 1;
#X obj 244 534 r \$0-color3;
#X obj 129 552 r \$0-drawActive;
#X obj 84 694 ofTranslate;
#X text 476 232 TAMANHO SLICE;
#X obj 516 107 t f f f f;
#X obj 105 656 *;
#X obj 128 656 t b f;
#X obj 385 232 t f f f f f f;
#X obj 105 637 r \$0-active;
#X obj 395 695 ofRectangle;
#X text 163 713 SLICE ATIVO;
#X text 474 695 RANGE;
#X text 788 676 GRID;
#X text 1046 676 FUNDO;
#X obj 1093 601 r \$0-color0;
#X obj 84 485 ofSepMatrix 4;
#X obj 57 245 t b b;
#X obj 105 675 +;
#X obj 416 657 t f f;
#X obj 395 714 ofSetFillMode 1;
#X connect 1 0 2 0;
#X connect 3 0 0 0;
#X connect 5 0 113 0;
#X connect 6 0 22 0;
#X connect 7 0 14 0;
#X connect 7 1 48 1;
#X connect 8 0 9 0;
#X connect 9 0 10 0;
#X connect 9 0 16 0;
#X connect 10 0 9 1;
#X connect 11 0 9 1;
#X connect 12 0 23 0;
#X connect 13 0 0 0;
#X connect 14 0 15 1;
#X connect 15 0 8 1;
#X connect 16 0 12 0;
#X connect 16 1 18 0;
#X connect 16 2 15 0;
#X connect 17 0 0 0;
#X connect 18 0 19 0;
#X connect 19 0 21 0;
#X connect 19 1 24 0;
#X connect 20 0 17 0;
#X connect 21 0 20 1;
#X connect 22 0 13 0;
#X connect 23 0 20 0;
#X connect 23 1 6 0;
#X connect 24 0 22 1;
#X connect 25 0 24 1;
#X connect 27 0 4 1;
#X connect 27 1 49 1;
#X connect 28 0 122 0;
#X connect 30 0 78 0;
#X connect 31 0 115 0;
#X connect 32 0 51 0;
#X connect 33 0 35 0;
#X connect 35 0 34 0;
#X connect 35 1 21 1;
#X connect 35 2 25 0;
#X connect 36 0 50 0;
#X connect 37 0 4 0;
#X connect 38 0 1 0;
#X connect 39 0 40 0;
#X connect 40 0 115 1;
#X connect 41 0 124 0;
#X connect 42 0 41 0;
#X connect 43 0 61 0;
#X connect 44 0 63 0;
#X connect 45 0 62 0;
#X connect 46 0 28 1;
#X connect 47 0 28 2;
#X connect 48 0 5 0;
#X connect 49 0 48 0;
#X connect 50 0 8 0;
#X connect 50 1 11 0;
#X connect 50 2 3 0;
#X connect 50 3 49 0;
#X connect 51 0 31 0;
#X connect 52 0 53 0;
#X connect 53 0 37 0;
#X connect 54 0 55 0;
#X connect 55 0 38 0;
#X connect 56 0 57 0;
#X connect 57 0 51 0;
#X connect 58 0 40 0;
#X connect 58 1 40 1;
#X connect 59 0 41 0;
#X connect 59 1 41 1;
#X connect 60 0 7 0;
#X connect 61 0 60 0;
#X connect 61 1 7 0;
#X connect 62 0 64 0;
#X connect 62 1 27 0;
#X connect 63 0 65 0;
#X connect 63 1 110 0;
#X connect 64 0 27 0;
#X connect 65 0 110 0;
#X connect 66 0 67 0;
#X connect 67 0 80 0;
#X connect 68 0 28 0;
#X connect 69 0 71 0;
#X connect 70 0 74 0;
#X connect 71 0 70 0;
#X connect 71 1 73 0;
#X connect 72 0 70 1;
#X connect 72 1 75 0;
#X connect 73 0 72 0;
#X connect 74 0 76 0;
#X connect 77 0 32 0;
#X connect 78 0 79 0;
#X connect 79 0 68 0;
#X connect 82 0 81 0;
#X connect 83 0 84 0;
#X connect 84 0 91 0;
#X connect 85 0 90 0;
#X connect 92 0 37 0;
#X connect 93 0 92 1;
#X connect 94 0 38 0;
#X connect 95 0 94 1;
#X connect 96 0 54 0;
#X connect 97 0 56 0;
#X connect 98 0 77 1;
#X connect 99 0 77 0;
#X connect 100 0 99 1;
#X connect 102 0 108 0;
#X connect 103 0 104 0;
#X connect 104 0 102 0;
#X connect 105 0 102 0;
#X connect 106 0 103 0;
#X connect 107 0 105 1;
#X connect 108 0 101 0;
#X connect 110 0 4 2;
#X connect 110 1 115 2;
#X connect 110 2 6 2;
#X connect 110 3 101 2;
#X connect 111 0 123 0;
#X connect 112 0 111 0;
#X connect 112 1 111 1;
#X connect 113 0 12 1;
#X connect 113 1 6 1;
#X connect 113 2 112 0;
#X connect 113 3 101 1;
#X connect 113 4 59 0;
#X connect 113 5 58 0;
#X connect 114 0 111 0;
#X connect 115 0 125 0;
#X connect 120 0 52 0;
#X connect 121 0 105 0;
#X connect 121 1 99 0;
#X connect 121 2 94 0;
#X connect 121 3 92 0;
#X connect 122 0 66 0;
#X connect 122 1 121 0;
#X connect 123 0 108 1;
#X connect 124 0 123 1;
#X connect 124 1 31 1;
