#N canvas 135 111 1163 748 10;
#X obj 51 177 ofTranslate;
#X obj 51 30 inlet RENDER_CHAIN;
#X obj 51 700 outlet RENDER_CHAIN;
#X text 905 183 CARREGA FONTE;
#X obj 829 177 ofLoadFont \; @font \;;
#X msg 829 158 load ../fonts/Sansation.ttf \$1;
#X obj 51 525 ofSetTextMode CENTER MIDDLE;
#X obj 87 554 / 2;
#X obj 95 573 / 2;
#X obj 51 592 ofTranslate;
#X msg 194 593 text \$1;
#X floatatom 194 575 5 0 0 0 - - -, f 5;
#X obj 51 611 ofDrawText @font[0] 0;
#X obj 280 294 ofLoadPath2d \; @lButton \;;
#X obj 459 294 ofLoadPath2d \; @visor \;;
#X obj 709 294 ofLoadPath2d \; @rButton \;;
#X obj 280 256 pack f f f;
#X obj 505 218 +;
#X obj 459 256 pack f f f f;
#X obj 709 256 pack f f f f;
#X obj 51 343 ofDrawPath2d @lButton;
#X obj 51 410 ofDrawPath2d @visor;
#X obj 51 477 ofDrawPath2d @rButton;
#X obj 72 573 +;
#X text 325 140 FONTE;
#X text 325 127 RAIO DOS CANTOS E ESPAÇAMENTO;
#X obj 567 159 t f f f f f;
#X text 325 114 LARGURA VISOR;
#X text 325 101 LARGURA BOTÕES;
#X text 325 88 ALTURA;
#X msg 459 275 load moveTo \$3 0 rectRounded \$2 \$1 \$4;
#X obj 770 199 * 2;
#X obj 755 218 +;
#X obj 755 237 +;
#X msg 709 275 load moveTo \$3 0 rectRounded \$2 \$1 \$4;
#X msg 280 275 load rectRounded \$2 \$1 \$3;
#X obj 367 159 t f f f f;
#X obj 482 159 t f f f;
#X obj 280 159 t f f f f;
#X obj 505 237 t f f;
#X obj 199 30 r \$0-refresh;
#X obj 358 520 ofIsPointInsidePath2d @lButton;
#X obj 325 406 unpack f f f;
#X obj 239 159 t f f;
#X obj 358 482 pack f f;
#X obj 358 463 -;
#X obj 381 463 -;
#X obj 600 520 ofIsPointInsidePath2d @visor;
#X obj 850 520 ofIsPointInsidePath2d @rButton;
#N canvas 17 520 460 218 COLOR 0;
#X msg 48 129 set \$1 \$2 \$3 \$4;
#X obj 48 33 ofRcv @lButtonState;
#X obj 48 168 outlet;
#X obj 48 52 sel 0 1 2;
#X obj 48 100 list;
#X obj 168 100 list;
#X obj 295 100 list;
#X obj 316 81 ofRcv @actColor2;
#X obj 69 81 ofRcv @bgColor;
#X obj 189 81 ofRcv @actColor;
#X connect 0 0 2 0;
#X connect 1 0 3 0;
#X connect 3 0 4 0;
#X connect 3 1 5 0;
#X connect 3 2 6 0;
#X connect 4 0 0 0;
#X connect 5 0 0 0;
#X connect 6 0 0 0;
#X connect 7 0 6 1;
#X connect 8 0 4 1;
#X connect 9 0 5 1;
#X restore 123 305 pd COLOR;
#X obj 325 635 ofSnd @lButtonState;
#X obj 627 596 ofSnd @visorState;
#X obj 817 635 ofSnd @rButtonState;
#N canvas 277 279 650 431 OPERATIONS 0;
#X obj 46 209 bng 15 250 50 0 empty empty empty 17 7 0 10 -262144 -1
-1;
#X obj 46 256 t f;
#X obj 46 31 ofRcv @lButtonState;
#X obj 195 31 ofRcv @rButtonState;
#X obj 46 117 spigot;
#X obj 46 136 t b b;
#X msg 109 98 0;
#X msg 79 98 1;
#X obj 46 60 sel 0 1 2;
#X obj 109 79 t b b;
#X obj 195 117 spigot;
#X obj 195 136 t b b;
#X msg 258 98 0;
#X msg 228 98 1;
#X obj 195 60 sel 0 1 2;
#X obj 258 79 t b b;
#X obj 195 209 bng 15 250 50 0 empty empty empty 17 7 0 10 -262144
-1 -1;
#X obj 346 209 bng 15 250 50 0 empty empty empty 17 7 0 10 -262144
-1 -1;
#X obj 496 209 bng 15 250 50 0 empty empty empty 17 7 0 10 -262144
-1 -1;
#X obj 46 295 int;
#X obj 46 314 clip 0 128;
#X obj 213 351 ofValue @value;
#X text 76 295 RESTRINGE A INTEIROS;
#X text 119 314 LIMITES;
#X obj 346 31 ofRcv @visorState;
#X obj 483 31 ofRcv @visorScroll;
#X obj 483 60 ofExpr \; $o1 = @value + $i1 \;;
#X obj 483 111 t f f;
#X obj 346 174 f;
#X obj 46 225 ofExpr \; $o1 = @value - 1 \;;
#X obj 195 225 ofExpr \; $o1 = @value + 1 \;;
#X obj 346 225 ofExpr \; $o1 = @value / 2 \;;
#X obj 496 225 ofExpr \; $o1 = @value * 2 \;;
#X obj 483 92 clip 0 128;
#X text 556 92 LIMITES;
#X text 377 174 ATUALIZA VALOR SÓ NO RELEASE;
#X obj 346 136 spigot;
#X obj 346 60 sel 0 1;
#X obj 346 155 t b b;
#X msg 379 117 1;
#X msg 406 117 0;
#X text 430 278 RECEBE VALOR PELO INLET;
#X obj 46 386 outlet VISOR;
#X obj 213 386 outlet VALUE;
#X obj 379 79 t b b;
#X msg 406 98 0;
#X obj 346 277 ofRcv @value;
#X obj 46 333 t f b f f;
#X obj 419 351 s v\$0_value_set;
#X text 211 328 ATUALIZA VALOR PARA CÁLCULOS;
#X text 417 328 ENVIA VALOR PARA MEMÓRIA;
#X connect 0 0 29 0;
#X connect 1 0 19 0;
#X connect 2 0 8 0;
#X connect 3 0 14 0;
#X connect 4 0 5 0;
#X connect 5 0 29 0;
#X connect 5 1 6 0;
#X connect 6 0 4 1;
#X connect 7 0 4 1;
#X connect 8 0 4 0;
#X connect 8 1 7 0;
#X connect 8 2 9 0;
#X connect 9 0 6 0;
#X connect 9 1 31 0;
#X connect 10 0 11 0;
#X connect 11 0 30 0;
#X connect 11 1 12 0;
#X connect 12 0 10 1;
#X connect 13 0 10 1;
#X connect 14 0 10 0;
#X connect 14 1 13 0;
#X connect 14 2 15 0;
#X connect 15 0 12 0;
#X connect 15 1 32 0;
#X connect 16 0 30 0;
#X connect 17 0 31 0;
#X connect 18 0 32 0;
#X connect 19 0 20 0;
#X connect 20 0 47 0;
#X connect 21 0 43 0;
#X connect 24 0 37 0;
#X connect 25 0 26 0;
#X connect 26 0 33 0;
#X connect 27 0 28 1;
#X connect 27 1 42 0;
#X connect 28 0 1 0;
#X connect 29 0 1 0;
#X connect 30 0 1 0;
#X connect 31 0 1 0;
#X connect 32 0 1 0;
#X connect 33 0 27 0;
#X connect 36 0 38 0;
#X connect 37 0 36 0;
#X connect 37 1 44 0;
#X connect 38 0 28 0;
#X connect 38 1 40 0;
#X connect 39 0 36 1;
#X connect 40 0 36 1;
#X connect 44 0 39 0;
#X connect 44 1 45 0;
#X connect 45 0 26 0;
#X connect 46 0 19 0;
#X connect 47 0 42 0;
#X connect 47 1 21 0;
#X connect 47 2 21 0;
#X connect 47 3 48 0;
#X restore 194 556 pd OPERATIONS;
#X obj 325 568 t b b;
#X msg 353 606 1;
#X msg 325 606 2;
#X msg 382 569 stop;
#X obj 325 539 spigot;
#X obj 325 587 del 300;
#X obj 432 551 t b b;
#X msg 459 570 0;
#X obj 817 568 t b b;
#X msg 845 606 1;
#X msg 817 606 2;
#X msg 874 569 stop;
#X obj 817 539 spigot;
#X obj 817 587 del 300;
#X obj 919 551 t b b;
#X msg 946 570 0;
#X obj 325 425 t b b f f;
#X obj 567 606 spigot;
#X obj 567 625 -;
#X obj 510 462 unpack f f;
#X text 583 462 TOMA APENAS Y;
#X text 571 443 SOMENTE MOVIMENTO DO TOQUE LOCAL;
#X obj 358 501 t l l l;
#X obj 394 425 t f f;
#X obj 567 644 * -1;
#X text 604 644 INVERTE DIREÇÃO;
#X text 597 626 COMPARA COM POSIÇÃO Y INICIAL;
#X text 946 443 SOMENTE RELEASE DO TOQUE LOCAL;
#X obj 600 539 t f f;
#X obj 627 558 sel 1;
#X msg 627 577 1;
#X msg 657 577 0;
#X obj 567 663 div 10;
#X text 616 663 UMA UNIDADE A CADA 10 PIXELS;
#X obj 567 682 change;
#X text 615 682 EVITA REPETIR OPERAÇÃO;
#X obj 567 711 ofSnd @visorScroll;
#X obj 510 443 route -1;
#X obj 885 443 route -1;
#X obj 269 700 outlet VALUE;
#X obj 51 506 ofSetColor 0 0 0 255;
#X obj 78 253 ofGetTranslate;
#X obj 78 272 unpack f f;
#X obj 51 196 t b b;
#X obj 485 30 inlet posX;
#X obj 560 30 inlet posY;
#X obj 635 30 inlet size;
#X obj 710 30 inlet value;
#N canvas 657 324 449 348 CONTROLS 0;
#X obj 287 124 loadbang;
#X obj 50 28 inlet posX;
#X obj 120 28 inlet posY;
#X obj 190 28 inlet size;
#X obj 260 28 inlet value;
#X obj 50 86 bit_param2 v\$0_posX \$0-memo 0 \$2;
#X obj 50 105 bit_param2 v\$0_posY \$0-memo 1 \$3;
#X obj 50 124 bit_param2 v\$0_size \$0-memo 2 \$4;
#X obj 50 143 bit_param2 v\$0_value \$0-memo 3 \$5;
#X obj 50 162 bit_param2 v\$0_bgColor \$0-memo 4;
#X msg 287 162 118 126 133 255;
#X msg 287 181 62 75 86 255;
#X obj 287 86 bit_memo \$0-memo 7;
#X obj 50 258 s \$0-refresh;
#X obj 50 239 bang;
#X obj 237 239 ofDefine \; @posX \; @posY \; @size \; @value \;;
#X text 304 259 DEFINE VARIÁVEIS DO SISTEMA OFELIA, f 19;
#X obj 50 181 bit_param2 v\$0_actColor \$0-memo 5;
#X obj 50 200 bit_param2 v\$0_actColor2 \$0-memo 6;
#X text 47 282 ATUALIZA GRÁFICOS QUANDO MUDA PARÂMETROS VISUAIS,
f 24;
#X msg 287 143 213 220 230 200;
#X connect 0 0 20 0;
#X connect 0 0 10 0;
#X connect 0 0 11 0;
#X connect 1 0 5 0;
#X connect 2 0 6 0;
#X connect 3 0 7 0;
#X connect 4 0 8 0;
#X connect 5 0 14 0;
#X connect 6 0 14 0;
#X connect 7 0 14 0;
#X connect 9 0 14 0;
#X connect 10 0 17 0;
#X connect 11 0 18 0;
#X connect 14 0 13 0;
#X connect 17 0 14 0;
#X connect 18 0 14 0;
#X connect 20 0 9 0;
#X restore 485 59 pd CONTROLS;
#N canvas 17 520 460 218 COLOR 0;
#X msg 48 129 set \$1 \$2 \$3 \$4;
#X obj 48 168 outlet;
#X obj 48 52 sel 0 1 2;
#X obj 48 100 list;
#X obj 168 100 list;
#X obj 295 100 list;
#X obj 316 81 ofRcv @actColor2;
#X obj 69 81 ofRcv @bgColor;
#X obj 189 81 ofRcv @actColor;
#X obj 48 33 ofRcv @rButtonState;
#X connect 0 0 1 0;
#X connect 2 0 3 0;
#X connect 2 1 4 0;
#X connect 2 2 5 0;
#X connect 3 0 0 0;
#X connect 4 0 0 0;
#X connect 5 0 0 0;
#X connect 6 0 5 1;
#X connect 7 0 3 1;
#X connect 8 0 4 1;
#X connect 9 0 2 0;
#X restore 123 439 pd COLOR;
#N canvas 379 526 328 247 COLOR 0;
#X msg 48 139 set \$1 \$2 \$3 \$4;
#X obj 48 178 outlet;
#X obj 48 110 list;
#X obj 168 110 list;
#X obj 69 91 ofRcv @bgColor;
#X obj 189 91 ofRcv @actColor;
#X obj 48 43 ofRcv @visorState;
#X obj 48 62 sel 0 1;
#X connect 0 0 1 0;
#X connect 2 0 0 0;
#X connect 3 0 0 0;
#X connect 4 0 2 1;
#X connect 5 0 3 1;
#X connect 6 0 7 0;
#X connect 7 0 2 0;
#X connect 7 1 3 0;
#X restore 123 372 pd COLOR;
#X text 657 92 ** IMPLEMENTAR NOVA CONDUTA: DOIS CLIQUES NO CENTRO
RETORNAM PARA VALOR ANTERIOR (UNDO 1 STEP) OU PRA VALOR DA SEQUÊNCIA
MASTER NO COMPASSO ATUAL;
#X obj 199 49 ofExpr \; $o1 = @posX \; $o2 = @posY \; $o3 = @size *
1 \; $o4 = @size * 0.4 \; $o5 = @size * 1.2 \; $o6 = @size * 0.2 \;
$o7 = @size * 0.5 \;;
#X msg 936 481 -1;
#X obj 885 462 t b b b b;
#X obj 936 500 t f f;
#X obj 199 159 t b f;
#X obj 78 215 spigot;
#X obj 78 234 t b b;
#X msg 111 196 0;
#X msg 141 196 1;
#X obj 325 368 r \$1-touchDown;
#X obj 510 368 r \$1-touchMove;
#X obj 885 368 r \$1-touchUp;
#X obj 325 387 spigot;
#X obj 510 387 spigot;
#X obj 885 387 spigot;
#X obj 801 30 inlet touch;
#X obj 801 369 t f f f;
#X obj 51 100 ofPushStyle;
#X obj 51 119 ofPushMatrix;
#X obj 51 669 ofPopStyle;
#X obj 51 650 ofPopMatrix;
#X obj 51 324 ofSetColor 213 220 230 200;
#X obj 51 391 ofSetColor 213 220 230 200;
#X obj 51 458 ofSetColor 213 220 230 200;
#X connect 0 0 97 0;
#X connect 1 0 123 0;
#X connect 5 0 4 0;
#X connect 6 0 9 0;
#X connect 7 0 23 1;
#X connect 8 0 9 2;
#X connect 9 0 12 0;
#X connect 10 0 12 0;
#X connect 11 0 10 0;
#X connect 12 0 126 0;
#X connect 16 0 35 0;
#X connect 17 0 39 0;
#X connect 18 0 30 0;
#X connect 19 0 34 0;
#X connect 20 0 128 0;
#X connect 21 0 129 0;
#X connect 22 0 94 0;
#X connect 23 0 9 1;
#X connect 26 0 17 1;
#X connect 26 1 31 0;
#X connect 26 2 16 2;
#X connect 26 3 18 3;
#X connect 26 4 19 3;
#X connect 30 0 14 0;
#X connect 31 0 32 1;
#X connect 32 0 33 0;
#X connect 33 0 19 2;
#X connect 34 0 15 0;
#X connect 35 0 13 0;
#X connect 36 0 16 1;
#X connect 36 1 17 0;
#X connect 36 2 19 1;
#X connect 36 3 32 0;
#X connect 37 0 18 1;
#X connect 37 1 33 1;
#X connect 37 2 7 0;
#X connect 38 0 16 0;
#X connect 38 1 18 0;
#X connect 38 2 19 0;
#X connect 38 3 8 0;
#X connect 39 0 18 2;
#X connect 39 1 23 0;
#X connect 40 0 106 0;
#X connect 41 0 58 1;
#X connect 42 0 70 0;
#X connect 42 1 45 0;
#X connect 42 2 77 0;
#X connect 43 0 0 2;
#X connect 44 0 76 0;
#X connect 45 0 44 0;
#X connect 46 0 44 1;
#X connect 47 0 82 0;
#X connect 48 0 66 1;
#X connect 49 0 127 0;
#X connect 53 0 11 0;
#X connect 53 1 93 0;
#X connect 54 0 59 0;
#X connect 54 1 55 0;
#X connect 55 0 50 0;
#X connect 56 0 50 0;
#X connect 57 0 59 0;
#X connect 58 0 54 0;
#X connect 59 0 56 0;
#X connect 60 0 57 0;
#X connect 60 1 61 0;
#X connect 61 0 50 0;
#X connect 62 0 67 0;
#X connect 62 1 63 0;
#X connect 63 0 52 0;
#X connect 64 0 52 0;
#X connect 65 0 67 0;
#X connect 66 0 62 0;
#X connect 67 0 64 0;
#X connect 68 0 65 0;
#X connect 68 1 69 0;
#X connect 69 0 52 0;
#X connect 70 0 58 0;
#X connect 70 1 66 0;
#X connect 70 2 91 1;
#X connect 70 3 92 1;
#X connect 71 0 72 0;
#X connect 72 0 78 0;
#X connect 73 1 71 0;
#X connect 76 0 41 0;
#X connect 76 1 47 0;
#X connect 76 2 48 0;
#X connect 77 0 46 0;
#X connect 77 1 72 1;
#X connect 78 0 86 0;
#X connect 82 0 71 1;
#X connect 82 1 83 0;
#X connect 83 0 84 0;
#X connect 84 0 51 0;
#X connect 85 0 51 0;
#X connect 86 0 88 0;
#X connect 88 0 90 0;
#X connect 91 0 73 0;
#X connect 92 0 108 0;
#X connect 94 0 6 0;
#X connect 95 0 96 0;
#X connect 96 0 45 1;
#X connect 96 1 46 1;
#X connect 97 0 127 0;
#X connect 97 1 111 0;
#X connect 98 0 102 0;
#X connect 99 0 102 1;
#X connect 100 0 102 2;
#X connect 101 0 102 3;
#X connect 103 0 129 0;
#X connect 104 0 128 0;
#X connect 106 0 110 0;
#X connect 106 1 43 0;
#X connect 106 2 38 0;
#X connect 106 3 36 0;
#X connect 106 4 37 0;
#X connect 106 5 26 0;
#X connect 106 6 5 0;
#X connect 107 0 109 0;
#X connect 108 0 60 0;
#X connect 108 1 85 0;
#X connect 108 2 68 0;
#X connect 108 3 107 0;
#X connect 109 0 91 1;
#X connect 109 1 92 1;
#X connect 110 0 114 0;
#X connect 110 1 0 1;
#X connect 111 0 112 0;
#X connect 112 0 95 0;
#X connect 112 1 113 0;
#X connect 113 0 111 1;
#X connect 114 0 111 1;
#X connect 115 0 118 0;
#X connect 116 0 119 0;
#X connect 117 0 120 0;
#X connect 118 0 42 0;
#X connect 119 0 91 0;
#X connect 120 0 92 0;
#X connect 121 0 122 0;
#X connect 122 0 118 1;
#X connect 122 1 119 1;
#X connect 122 2 120 1;
#X connect 123 0 124 0;
#X connect 124 0 0 0;
#X connect 125 0 2 0;
#X connect 126 0 125 0;
#X connect 127 0 20 0;
#X connect 128 0 21 0;
#X connect 129 0 22 0;
