#N canvas 188 80 939 669 10;
#X obj 51 301 ofTranslate;
#X obj 51 30 inlet RENDER_CHAIN;
#X obj 51 621 outlet RENDER_CHAIN;
#X obj 51 446 ofSetTextMode CENTER MIDDLE;
#X obj 51 513 ofTranslate;
#X msg 144 513 text \$1;
#X floatatom 144 495 5 0 0 0 - - -, f 5;
#X obj 201 30 r \$0-refresh;
#N canvas 249 167 768 482 OPERATIONS 0;
#X obj 46 209 bng 15 250 50 0 empty empty empty 17 7 0 10 -262144 -1
-1;
#X obj 46 256 t f;
#X obj 46 31 ofRcv @lButtonState;
#X obj 195 31 ofRcv @rButtonState;
#X obj 46 117 spigot;
#X obj 46 136 t b b;
#X msg 109 98 0;
#X msg 79 98 1;
#X obj 46 60 sel 0 1 2;
#X obj 109 79 t b b;
#X obj 195 117 spigot;
#X obj 195 136 t b b;
#X msg 258 98 0;
#X msg 228 98 1;
#X obj 195 60 sel 0 1 2;
#X obj 258 79 t b b;
#X obj 195 209 bng 15 250 50 0 empty empty empty 17 7 0 10 -262144
-1 -1;
#X obj 346 209 bng 15 250 50 0 empty empty empty 17 7 0 10 -262144
-1 -1;
#X obj 496 209 bng 15 250 50 0 empty empty empty 17 7 0 10 -262144
-1 -1;
#X obj 46 305 int;
#X obj 46 364 clip 0 128;
#X obj 213 401 ofValue @value;
#X text 76 305 RESTRINGE A INTEIROS;
#X text 119 364 LIMITES;
#X obj 346 31 ofRcv @visorState;
#X obj 483 31 ofRcv @visorScroll;
#X obj 483 66 ofExpr \; $o1 = @value + $i1 \;;
#X obj 483 156 t f f;
#X obj 346 174 f;
#X obj 46 225 ofExpr \; $o1 = @value - 1 \;;
#X obj 195 225 ofExpr \; $o1 = @value + 1 \;;
#X obj 346 225 ofExpr \; $o1 = @value / 2 \;;
#X obj 496 225 ofExpr \; $o1 = @value * 2 \;;
#X obj 483 137 clip 0 128;
#X text 556 137 LIMITES;
#X text 377 174 ATUALIZA VALOR SÓ NO RELEASE;
#X obj 346 136 spigot;
#X obj 346 60 sel 0 1;
#X obj 346 155 t b b;
#X msg 379 117 1;
#X msg 406 117 0;
#X text 406 288 RECEBE VALOR PELO INLET;
#X obj 46 436 outlet VISOR;
#X obj 213 436 outlet VALUE;
#X obj 379 79 t b b;
#X msg 406 98 0;
#X obj 322 287 ofRcv @value;
#X obj 46 383 t f b f f;
#X obj 419 401 s v\$0_value_set;
#X text 211 378 ATUALIZA VALOR PARA CÁLCULOS;
#X text 417 378 ENVIA VALOR PARA MEMÓRIA;
#X obj 636 31 ofRcv @limit;
#X obj 74 345 unpack f f;
#X obj 636 60 t b l l;
#X obj 511 118 unpack f f;
#X text 690 60 LIMITES;
#X connect 0 0 29 0;
#X connect 1 0 19 0;
#X connect 2 0 8 0;
#X connect 3 0 14 0;
#X connect 4 0 5 0;
#X connect 5 0 29 0;
#X connect 5 1 6 0;
#X connect 6 0 4 1;
#X connect 7 0 4 1;
#X connect 8 0 4 0;
#X connect 8 1 7 0;
#X connect 8 2 9 0;
#X connect 9 0 6 0;
#X connect 9 1 31 0;
#X connect 10 0 11 0;
#X connect 11 0 30 0;
#X connect 11 1 12 0;
#X connect 12 0 10 1;
#X connect 13 0 10 1;
#X connect 14 0 10 0;
#X connect 14 1 13 0;
#X connect 14 2 15 0;
#X connect 15 0 12 0;
#X connect 15 1 32 0;
#X connect 16 0 30 0;
#X connect 17 0 31 0;
#X connect 18 0 32 0;
#X connect 19 0 20 0;
#X connect 20 0 47 0;
#X connect 21 0 43 0;
#X connect 24 0 37 0;
#X connect 25 0 26 0;
#X connect 26 0 33 0;
#X connect 27 0 28 1;
#X connect 27 1 42 0;
#X connect 28 0 1 0;
#X connect 29 0 1 0;
#X connect 30 0 1 0;
#X connect 31 0 1 0;
#X connect 32 0 1 0;
#X connect 33 0 27 0;
#X connect 36 0 38 0;
#X connect 37 0 36 0;
#X connect 37 1 44 0;
#X connect 38 0 28 0;
#X connect 38 1 40 0;
#X connect 39 0 36 1;
#X connect 40 0 36 1;
#X connect 44 0 39 0;
#X connect 44 1 45 0;
#X connect 45 0 26 0;
#X connect 46 0 19 0;
#X connect 47 0 42 0;
#X connect 47 1 21 0;
#X connect 47 2 21 0;
#X connect 47 3 48 0;
#X connect 51 0 53 0;
#X connect 52 0 20 1;
#X connect 52 1 20 2;
#X connect 53 0 19 0;
#X connect 53 1 54 0;
#X connect 53 2 52 0;
#X connect 54 0 33 1;
#X connect 54 1 33 2;
#X restore 144 476 pd OPERATIONS;
#X obj 219 621 outlet VALUE;
#X text 541 205 ** IMPLEMENTAR NOVA CONDUTA: DOIS CLIQUES NO CENTRO
RETORNAM PARA VALOR ANTERIOR (UNDO 1 STEP) OU PRA VALOR DA SEQUÊNCIA
MASTER NO COMPASSO ATUAL;
#X obj 51 100 ofPushStyle;
#X obj 51 119 ofPushMatrix;
#X obj 51 590 ofPopStyle;
#X obj 51 571 ofPopMatrix;
#N canvas 272 190 615 450 CONTROLS 0;
#X obj 307 208 loadbang;
#X obj 50 93 bit_param2 v\$0_posX \$0-memo 0 \$2;
#X obj 50 112 bit_param2 v\$0_posY \$0-memo 1 \$3;
#X obj 50 370 s \$0-refresh;
#X obj 50 351 bang;
#X text 304 371 DEFINE VARIÁVEIS DO SISTEMA OFELIA, f 19;
#X text 47 394 ATUALIZA GRÁFICOS QUANDO MUDA PARÂMETROS VISUAIS,
f 24;
#X obj 237 341 ofDefine \; @posX \; @posY \; @sizeX \; @sizeY \; @value
\;;
#X obj 50 131 bit_param2 v\$0_sizeX \$0-memo 2 \$4;
#X obj 50 150 bit_param2 v\$0_sizeY \$0-memo 3 \$5;
#X msg 307 265 110 107 175 255;
#X msg 307 284 62 75 86 255;
#X obj 50 25 inlet;
#X obj 50 169 bit_param2 v\$0_value \$0-memo 4 \$6;
#X obj 50 188 bit_param2 v\$0_drawPath \$0-memo 5 \$7;
#X obj 50 207 bit_param2 v\$0_drawPNG \$0-memo 6 \$8;
#X text 434 133 MEMÓRIA LOCAL;
#X msg 307 246 118 126 133 255;
#X obj 50 264 bit_param2 v\$0_bgColor \$0-memo 9;
#X obj 50 283 bit_param2 v\$0_actColor \$0-memo 10;
#X obj 50 302 bit_param2 v\$0_actColor2 \$0-memo 11;
#X obj 307 133 bit_memo \$0-memo 12;
#X obj 50 245 bit_param2 v\$0_limit \$0-memo 8;
#X obj 50 54 route posX posY sizeX sizeY value drawPath drawPNG touch
limit bgColor actColor actColor2, f 89;
#X obj 50 226 bit_param2 v\$0_touch \$0-memo 7 \$9;
#X msg 307 227 0 500;
#X connect 0 0 10 0;
#X connect 0 0 11 0;
#X connect 0 0 17 0;
#X connect 0 0 25 0;
#X connect 1 0 4 0;
#X connect 2 0 4 0;
#X connect 4 0 3 0;
#X connect 8 0 4 0;
#X connect 9 0 4 0;
#X connect 10 0 19 0;
#X connect 11 0 20 0;
#X connect 12 0 23 0;
#X connect 17 0 18 0;
#X connect 23 0 1 0;
#X connect 23 1 2 0;
#X connect 23 2 8 0;
#X connect 23 3 9 0;
#X connect 23 4 13 0;
#X connect 23 5 14 0;
#X connect 23 6 15 0;
#X connect 23 7 24 0;
#X connect 23 8 22 0;
#X connect 23 9 18 0;
#X connect 23 10 19 0;
#X connect 23 11 20 0;
#X connect 25 0 22 0;
#X restore 624 59 pd CONTROLS;
#X obj 624 30 inlet EXTERNAL_CONTROL;
#X obj 51 330 t b b b b;
#N canvas 327 582 446 194 POS_SIZE 0;
#X msg 40 83 posX \$1;
#X msg 130 83 posY \$1;
#X msg 230 83 sizeX \$1;
#X msg 330 83 sizeY \$1;
#X obj 40 122 outlet CONTROLS;
#X obj 330 44 inlet sizeY;
#X obj 40 44 inlet posX;
#X obj 130 44 inlet posY;
#X obj 230 44 inlet sizeX;
#X connect 0 0 4 0;
#X connect 1 0 4 0;
#X connect 2 0 4 0;
#X connect 3 0 4 0;
#X connect 5 0 3 0;
#X connect 6 0 0 0;
#X connect 7 0 1 0;
#X connect 8 0 2 0;
#X restore 188 350 pd POS_SIZE;
#N canvas 327 582 446 194 POS_SIZE 0;
#X msg 40 83 posX \$1;
#X msg 130 83 posY \$1;
#X msg 230 83 sizeX \$1;
#X msg 330 83 sizeY \$1;
#X obj 40 122 outlet CONTROLS;
#X obj 330 44 inlet sizeY;
#X obj 40 44 inlet posX;
#X obj 130 44 inlet posY;
#X obj 230 44 inlet sizeX;
#X connect 0 0 4 0;
#X connect 1 0 4 0;
#X connect 2 0 4 0;
#X connect 3 0 4 0;
#X connect 5 0 3 0;
#X connect 6 0 0 0;
#X connect 7 0 1 0;
#X connect 8 0 2 0;
#X restore 418 350 pd POS_SIZE;
#N canvas 327 582 446 194 POS_SIZE 0;
#X msg 40 83 posX \$1;
#X msg 130 83 posY \$1;
#X msg 230 83 sizeX \$1;
#X msg 330 83 sizeY \$1;
#X obj 40 122 outlet CONTROLS;
#X obj 330 44 inlet sizeY;
#X obj 40 44 inlet posX;
#X obj 130 44 inlet posY;
#X obj 230 44 inlet sizeX;
#X connect 0 0 4 0;
#X connect 1 0 4 0;
#X connect 2 0 4 0;
#X connect 3 0 4 0;
#X connect 5 0 3 0;
#X connect 6 0 0 0;
#X connect 7 0 1 0;
#X connect 8 0 2 0;
#X restore 648 350 pd POS_SIZE;
#X obj 499 302 t f f f;
#X obj 433 302 t f f;
#X obj 51 532 ofDrawTextAsShapes \$1-font[0] 10 0;
#X obj 68 369 gui_button \$1 0 0 1 1 0 1 0 0 1;
#X obj 298 369 gui_button \$1 0 0 1 1 0 1 0 0 1;
#X obj 528 369 gui_button \$1 0 0 1 1 0 1 0 0 1;
#X text 514 101 PORCENTAGEM TOTAL DE ESPAÇAMENTO, f 17;
#X obj 51 427 ofSetColor 0 0 0;
#N canvas 2 137 335 276 INTERACTION 0;
#X obj 53 107 t b b;
#X msg 81 161 1;
#X msg 53 161 2;
#X msg 98 124 stop;
#X obj 53 142 del 300;
#X obj 98 106 t b b;
#X msg 125 161 0;
#X obj 53 88 sel 1;
#X obj 53 199 ofSnd @lButtonState;
#X obj 53 180 t f f;
#X obj 53 49 inlet TOUCH;
#X obj 212 199 outlet VALUE;
#X connect 0 0 4 0;
#X connect 0 1 1 0;
#X connect 1 0 9 0;
#X connect 2 0 9 0;
#X connect 3 0 4 0;
#X connect 4 0 2 0;
#X connect 5 0 3 0;
#X connect 5 1 6 0;
#X connect 6 0 9 0;
#X connect 7 0 0 0;
#X connect 7 1 5 0;
#X connect 9 0 8 0;
#X connect 9 1 11 0;
#X connect 10 0 7 0;
#X restore 113 388 pd INTERACTION;
#N canvas 2 109 335 276 INTERACTION 0;
#X obj 53 107 t b b;
#X msg 81 161 1;
#X msg 53 161 2;
#X msg 98 124 stop;
#X obj 53 142 del 300;
#X obj 98 106 t b b;
#X msg 125 161 0;
#X obj 53 88 sel 1;
#X obj 53 180 t f f;
#X obj 53 49 inlet TOUCH;
#X obj 212 199 outlet VALUE;
#X obj 53 199 ofSnd @rButtonState;
#X connect 0 0 4 0;
#X connect 0 1 1 0;
#X connect 1 0 8 0;
#X connect 2 0 8 0;
#X connect 3 0 4 0;
#X connect 4 0 2 0;
#X connect 5 0 3 0;
#X connect 5 1 6 0;
#X connect 6 0 8 0;
#X connect 7 0 0 0;
#X connect 7 1 5 0;
#X connect 8 0 11 0;
#X connect 8 1 10 0;
#X connect 9 0 7 0;
#X restore 573 388 pd INTERACTION;
#N canvas 2 109 585 364 INTERACTION 0;
#X obj 43 39 inlet TOUCH;
#X obj 70 144 outlet VALUE;
#X obj 210 162 -;
#X obj 210 181 * -1;
#X text 247 181 INVERTE DIREÇÃO;
#X text 240 163 COMPARA COM POSIÇÃO Y INICIAL;
#X obj 43 68 sel 1;
#X msg 43 106 1;
#X msg 83 106 0;
#X obj 210 272 div 10;
#X obj 210 291 change;
#X text 258 291 EVITA REPETIR OPERAÇÃO;
#X obj 210 320 ofSnd @visorScroll;
#X obj 164 39 inlet MOVE;
#X obj 164 86 unpack f f f;
#X obj 225 124 spigot;
#X msg 258 105 0;
#X msg 288 105 1;
#X obj 225 143 t f b;
#X text 268 143 ATUALIZA POSIÇÃO INICIAL DO TOQUE APENAS 1 VEZ;
#X obj 198 105 t f f;
#X obj 243 215 r \$1-height;
#X obj 243 234 / 64;
#X text 280 234 UNIDADE DE MOVIMENTO = 1/64 ALTURA DA TELA;
#X text 259 272 UNIDADE DE MOVIMENTO;
#X obj 243 253 int;
#X obj 43 87 t b b;
#X obj 43 183 ofSnd @visorState;
#X obj 43 125 t f f;
#X connect 0 0 6 0;
#X connect 2 0 3 0;
#X connect 3 0 9 0;
#X connect 6 0 26 0;
#X connect 6 1 8 0;
#X connect 7 0 28 0;
#X connect 8 0 28 0;
#X connect 9 0 10 0;
#X connect 10 0 12 0;
#X connect 13 0 14 0;
#X connect 14 1 20 0;
#X connect 15 0 18 0;
#X connect 16 0 15 1;
#X connect 17 0 15 1;
#X connect 18 0 2 1;
#X connect 18 1 16 0;
#X connect 20 0 2 0;
#X connect 20 1 15 0;
#X connect 21 0 22 0;
#X connect 22 0 25 0;
#X connect 25 0 9 1;
#X connect 26 0 7 0;
#X connect 26 1 17 0;
#X connect 28 0 27 0;
#X connect 28 1 1 0;
#X restore 343 388 pd INTERACTION;
#X text 268 532 DESENHA VALOR;
#X text 235 476 CÁLCULOS;
#X obj 202 49 ofExpr \; _centerX = int(@sizeX / 2) \; _centerY = int(@sizeY
/ 2) \; _font = int(@sizeY * 0.5) \; _space = int(@sizeX * 0.1) \;
_visorW = int(@sizeX * 0.45) \; _buttonW = int((@sizeX - (_visorW +
_space)) / 2) \; _offset1 = int(_buttonW + (_space / 2)) \; _offset2
= int(_offset1 + _visorW + (_space / 2)) \; $o1 = @posX \; $o2 = @posY
\; $o3 = _centerX \; $o4 = _centerY \; $o5 = _font \; $o6 = _offset1
\; $o7 = _offset2 \; $o8 = _buttonW \; $o9 = _visorW \; $o10 = @sizeY
\;;
#X obj 763 332 ofRcv @touch;
#X msg 763 351 touch \$1;
#X text 760 309 TOUCH ON/OFF;
#X connect 0 0 17 0;
#X connect 1 0 11 0;
#X connect 3 0 4 0;
#X connect 4 0 23 0;
#X connect 5 0 23 0;
#X connect 6 0 5 0;
#X connect 7 0 34 0;
#X connect 8 0 6 0;
#X connect 8 1 9 0;
#X connect 11 0 12 0;
#X connect 12 0 0 0;
#X connect 13 0 2 0;
#X connect 14 0 13 0;
#X connect 16 0 15 0;
#X connect 17 0 28 0;
#X connect 17 1 24 0;
#X connect 17 2 25 0;
#X connect 17 3 26 0;
#X connect 18 0 24 3;
#X connect 19 0 25 3;
#X connect 20 0 26 3;
#X connect 21 0 18 3;
#X connect 21 1 19 3;
#X connect 21 2 20 3;
#X connect 22 0 18 2;
#X connect 22 1 20 2;
#X connect 23 0 14 0;
#X connect 24 1 29 0;
#X connect 25 1 31 0;
#X connect 25 2 31 1;
#X connect 26 1 30 0;
#X connect 28 0 3 0;
#X connect 29 0 24 2;
#X connect 30 0 26 2;
#X connect 31 0 25 2;
#X connect 34 0 0 1;
#X connect 34 1 0 2;
#X connect 34 2 4 1;
#X connect 34 3 4 2;
#X connect 34 4 23 1;
#X connect 34 5 19 0;
#X connect 34 6 20 0;
#X connect 34 7 22 0;
#X connect 34 8 19 2;
#X connect 34 9 21 0;
#X connect 35 0 36 0;
#X connect 36 0 26 3;
#X connect 36 0 25 3;
#X connect 36 0 24 3;
