#N canvas 37 353 1378 403 10;
#X obj 32 30 inlet RENDER_CHAIN;
#X obj 140 243 loadbang;
#N canvas 2 133 466 243 POS_SIZE 0;
#X obj 236 124 r \$0-w_button;
#X msg 40 143 posX \$1;
#X msg 133 143 posY \$1;
#X msg 236 143 sizeX \$1;
#X msg 339 143 sizeY \$1;
#X obj 40 182 outlet CONTROLS;
#X obj 339 124 r \$0-h_button;
#X obj 331 41 inlet ID;
#X obj 331 60 t f;
#X obj 133 124 r \$0-h_offset;
#X obj 125 41 r \$0-w_offset;
#X obj 125 96 +;
#X obj 228 78 *;
#X obj 40 41 r \$1-width;
#X obj 40 60 * 0.125;
#X obj 40 114 +;
#X obj 228 41 r \$0-w_main/6;
#X connect 0 0 3 0;
#X connect 1 0 5 0;
#X connect 2 0 5 0;
#X connect 3 0 5 0;
#X connect 4 0 5 0;
#X connect 6 0 4 0;
#X connect 7 0 8 0;
#X connect 8 0 12 1;
#X connect 9 0 2 0;
#X connect 10 0 11 0;
#X connect 11 0 15 1;
#X connect 12 0 11 1;
#X connect 13 0 14 0;
#X connect 14 0 15 0;
#X connect 15 0 1 0;
#X connect 16 0 12 0;
#X restore 140 299 pd POS_SIZE;
#X msg 140 280 0;
#X obj 231 318 gui_button \$1 0 0 1 1 0 1 1 0;
#X obj 430 318 gui_button \$1 0 0 1 1 0 1 1 0;
#X obj 629 318 gui_button \$1 0 0 1 1 0 1 1 0;
#X obj 1027 318 gui_button \$1 0 0 1 1 0 1 1 0;
#X obj 310 30 r \$1-h_tracks;
#X text 401 30 RECEBE ALTURA DAS TRACKS;
#X obj 982 40 inlet TOUCH_ON;
#X obj 630 30 r \$1-w_main;
#X text 709 30 RECEBE LARGURA DA ÁREA PRINCIPAL;
#X obj 337 68 * 0.7;
#X text 380 68 ALTURA DOS BOTÕES DE ÁUDIO;
#X text 454 106 ENVIA LOCALMENTE;
#X obj 630 174 -;
#X text 767 164 TAMANHO DE CADA BOTÃO;
#X obj 630 193 / 2;
#X text 721 212 DESLOCAMENTO X RELATIVO À SUB-ÁREA;
#X obj 630 78 t f f f;
#X text 760 97 TAMANHO DA SUB-ÁREA;
#X obj 649 145 t f f;
#X obj 676 164 s \$0-w_button;
#X obj 630 212 s \$0-w_offset;
#X obj 364 106 s \$0-h_button;
#X obj 310 49 t f f;
#X obj 337 87 t f f;
#X obj 310 105 -;
#X obj 310 124 / 2;
#X obj 310 143 s \$0-h_offset;
#X text 401 143 DESLOCAMENTO Y RELATIVO À PISTA;
#X obj 140 262 t b b b b b b b b;
#N canvas 2 133 466 243 POS_SIZE 0;
#X obj 236 124 r \$0-w_button;
#X msg 40 143 posX \$1;
#X msg 133 143 posY \$1;
#X msg 236 143 sizeX \$1;
#X msg 339 143 sizeY \$1;
#X obj 40 182 outlet CONTROLS;
#X obj 339 124 r \$0-h_button;
#X obj 331 41 inlet ID;
#X obj 331 60 t f;
#X obj 133 124 r \$0-h_offset;
#X obj 125 41 r \$0-w_offset;
#X obj 125 96 +;
#X obj 228 78 *;
#X obj 40 41 r \$1-width;
#X obj 40 60 * 0.125;
#X obj 40 114 +;
#X obj 228 41 r \$0-w_main/6;
#X connect 0 0 3 0;
#X connect 1 0 5 0;
#X connect 2 0 5 0;
#X connect 3 0 5 0;
#X connect 4 0 5 0;
#X connect 6 0 4 0;
#X connect 7 0 8 0;
#X connect 8 0 12 1;
#X connect 9 0 2 0;
#X connect 10 0 11 0;
#X connect 11 0 15 1;
#X connect 12 0 11 1;
#X connect 13 0 14 0;
#X connect 14 0 15 0;
#X connect 15 0 1 0;
#X connect 16 0 12 0;
#X restore 339 299 pd POS_SIZE;
#N canvas 2 133 466 243 POS_SIZE 0;
#X obj 236 124 r \$0-w_button;
#X msg 40 143 posX \$1;
#X msg 133 143 posY \$1;
#X msg 236 143 sizeX \$1;
#X msg 339 143 sizeY \$1;
#X obj 40 182 outlet CONTROLS;
#X obj 339 124 r \$0-h_button;
#X obj 331 41 inlet ID;
#X obj 331 60 t f;
#X obj 133 124 r \$0-h_offset;
#X obj 125 41 r \$0-w_offset;
#X obj 125 96 +;
#X obj 228 78 *;
#X obj 40 41 r \$1-width;
#X obj 40 60 * 0.125;
#X obj 40 114 +;
#X obj 228 41 r \$0-w_main/6;
#X connect 0 0 3 0;
#X connect 1 0 5 0;
#X connect 2 0 5 0;
#X connect 3 0 5 0;
#X connect 4 0 5 0;
#X connect 6 0 4 0;
#X connect 7 0 8 0;
#X connect 8 0 12 1;
#X connect 9 0 2 0;
#X connect 10 0 11 0;
#X connect 11 0 15 1;
#X connect 12 0 11 1;
#X connect 13 0 14 0;
#X connect 14 0 15 0;
#X connect 15 0 1 0;
#X connect 16 0 12 0;
#X restore 538 299 pd POS_SIZE;
#N canvas 2 133 466 243 POS_SIZE 0;
#X obj 236 124 r \$0-w_button;
#X msg 40 143 posX \$1;
#X msg 133 143 posY \$1;
#X msg 236 143 sizeX \$1;
#X msg 339 143 sizeY \$1;
#X obj 40 182 outlet CONTROLS;
#X obj 339 124 r \$0-h_button;
#X obj 331 41 inlet ID;
#X obj 331 60 t f;
#X obj 133 124 r \$0-h_offset;
#X obj 125 41 r \$0-w_offset;
#X obj 125 96 +;
#X obj 228 78 *;
#X obj 40 41 r \$1-width;
#X obj 40 60 * 0.125;
#X obj 40 114 +;
#X obj 228 41 r \$0-w_main/6;
#X connect 0 0 3 0;
#X connect 1 0 5 0;
#X connect 2 0 5 0;
#X connect 3 0 5 0;
#X connect 4 0 5 0;
#X connect 6 0 4 0;
#X connect 7 0 8 0;
#X connect 8 0 12 1;
#X connect 9 0 2 0;
#X connect 10 0 11 0;
#X connect 11 0 15 1;
#X connect 12 0 11 1;
#X connect 13 0 14 0;
#X connect 14 0 15 0;
#X connect 15 0 1 0;
#X connect 16 0 12 0;
#X restore 737 299 pd POS_SIZE;
#N canvas 2 133 466 243 POS_SIZE 0;
#X obj 236 124 r \$0-w_button;
#X msg 40 143 posX \$1;
#X msg 133 143 posY \$1;
#X msg 236 143 sizeX \$1;
#X msg 339 143 sizeY \$1;
#X obj 40 182 outlet CONTROLS;
#X obj 339 124 r \$0-h_button;
#X obj 331 41 inlet ID;
#X obj 331 60 t f;
#X obj 133 124 r \$0-h_offset;
#X obj 125 41 r \$0-w_offset;
#X obj 125 96 +;
#X obj 228 78 *;
#X obj 40 41 r \$1-width;
#X obj 40 60 * 0.125;
#X obj 40 114 +;
#X obj 228 41 r \$0-w_main/6;
#X connect 0 0 3 0;
#X connect 1 0 5 0;
#X connect 2 0 5 0;
#X connect 3 0 5 0;
#X connect 4 0 5 0;
#X connect 6 0 4 0;
#X connect 7 0 8 0;
#X connect 8 0 12 1;
#X connect 9 0 2 0;
#X connect 10 0 11 0;
#X connect 11 0 15 1;
#X connect 12 0 11 1;
#X connect 13 0 14 0;
#X connect 14 0 15 0;
#X connect 15 0 1 0;
#X connect 16 0 12 0;
#X restore 936 299 pd POS_SIZE;
#N canvas 2 133 466 243 POS_SIZE 0;
#X obj 236 124 r \$0-w_button;
#X msg 40 143 posX \$1;
#X msg 133 143 posY \$1;
#X msg 236 143 sizeX \$1;
#X msg 339 143 sizeY \$1;
#X obj 40 182 outlet CONTROLS;
#X obj 339 124 r \$0-h_button;
#X obj 331 41 inlet ID;
#X obj 331 60 t f;
#X obj 133 124 r \$0-h_offset;
#X obj 125 41 r \$0-w_offset;
#X obj 125 96 +;
#X obj 228 78 *;
#X obj 40 41 r \$1-width;
#X obj 40 60 * 0.125;
#X obj 40 114 +;
#X obj 228 41 r \$0-w_main/6;
#X connect 0 0 3 0;
#X connect 1 0 5 0;
#X connect 2 0 5 0;
#X connect 3 0 5 0;
#X connect 4 0 5 0;
#X connect 6 0 4 0;
#X connect 7 0 8 0;
#X connect 8 0 12 1;
#X connect 9 0 2 0;
#X connect 10 0 11 0;
#X connect 11 0 15 1;
#X connect 12 0 11 1;
#X connect 13 0 14 0;
#X connect 14 0 15 0;
#X connect 15 0 1 0;
#X connect 16 0 12 0;
#X restore 1135 299 pd POS_SIZE;
#X msg 339 280 1;
#X msg 538 280 2;
#X msg 737 280 3;
#X msg 936 280 4;
#X msg 1135 280 5;
#X msg 1241 281 touch \$1;
#X obj 828 318 gui_button \$1 0 0 1 1 0 1 1 0;
#X obj 630 59 / 6;
#X text 660 59 6 SUB-ÁREAS;
#X obj 669 97 s \$0-w_main/6;
#X obj 1241 300 t a a a a a a;
#X obj 32 180 t b b b b b b;
#X obj 649 126 * 0.62;
#X text 698 126 62% DA SUB-ÁREA;
#N canvas 621 188 567 300 INTERACTION 0;
#X obj 45 42 inlet TOUCH_RELEASE;
#X obj 199 186 f 0;
#X obj 199 205 == 0;
#X obj 45 243 outlet VALUE;
#X obj 214 42 inlet COLD_VALUE;
#X text 230 186 ARMAZENA VALOR ATUAL;
#X text 130 243 ATUALIZA VALOR DO OBJETO;
#X obj 199 167 sel 1;
#X obj 45 108 spigot 1;
#X obj 90 89 == 0;
#X obj 199 108 spigot;
#X obj 45 71 t f f;
#X text 57 129 MODO MOMENTÂNEO - FUNCIONA ENQUANTO PRESSIONADO, f
17;
#X text 235 205 INVERTE VALOR;
#X text 210 129 MODO CHAVE - ALTERNA ENTRE LIGADO E DESLIGADO, f 24
;
#X obj 354 42 r \$0-mode;
#X text 352 19 MODO MOMENTÂNEO / CHAVE;
#X msg 393 225 0;
#X text 403 172 DESLIGA QUANDO MUDA PARA MOMENTÂNEO, f 19;
#X obj 354 71 t f f f;
#X obj 393 206 sel 0;
#X connect 0 0 11 0;
#X connect 1 0 2 0;
#X connect 2 0 3 0;
#X connect 4 0 1 1;
#X connect 7 0 1 0;
#X connect 8 0 3 0;
#X connect 9 0 8 1;
#X connect 10 0 7 0;
#X connect 11 0 8 0;
#X connect 11 1 10 0;
#X connect 15 0 19 0;
#X connect 17 0 3 0;
#X connect 19 0 9 0;
#X connect 19 1 10 1;
#X connect 19 2 20 0;
#X connect 20 0 17 0;
#X restore 273 337 pd INTERACTION;
#N canvas 621 188 366 297 INTERACTION_MODE 0;
#X obj 45 35 inlet TOUCH_RELEASE;
#X obj 45 126 f 0;
#X obj 45 145 == 0;
#X obj 214 35 inlet COLD_VALUE;
#X text 76 126 ARMAZENA VALOR ATUAL;
#X obj 45 107 sel 1;
#X text 81 145 INVERTE VALOR;
#X text 56 69 MODO CHAVE - ALTERNA ENTRE LIGADO E DESLIGADO, f 24
;
#X obj 72 193 s \$0-mode;
#X text 138 193 ENVIA MODO (MOMENTÂNEO / CHAVE) PARA DEMAIS SELETORES
, f 31;
#X obj 45 164 t f f;
#X obj 45 242 outlet VALUE;
#X text 130 243 ATUALIZA VALOR DO OBJETO;
#X connect 0 0 5 0;
#X connect 1 0 2 0;
#X connect 2 0 10 0;
#X connect 3 0 1 1;
#X connect 5 0 1 0;
#X connect 10 0 11 0;
#X connect 10 1 8 0;
#X restore 74 337 pd INTERACTION_MODE;
#N canvas 621 188 567 300 INTERACTION 0;
#X obj 45 42 inlet TOUCH_RELEASE;
#X obj 199 186 f 0;
#X obj 199 205 == 0;
#X obj 45 243 outlet VALUE;
#X obj 214 42 inlet COLD_VALUE;
#X text 230 186 ARMAZENA VALOR ATUAL;
#X text 130 243 ATUALIZA VALOR DO OBJETO;
#X obj 199 167 sel 1;
#X obj 45 108 spigot 1;
#X obj 90 89 == 0;
#X obj 199 108 spigot;
#X obj 45 71 t f f;
#X text 57 129 MODO MOMENTÂNEO - FUNCIONA ENQUANTO PRESSIONADO, f
17;
#X text 235 205 INVERTE VALOR;
#X text 210 129 MODO CHAVE - ALTERNA ENTRE LIGADO E DESLIGADO, f 24
;
#X obj 354 42 r \$0-mode;
#X text 352 19 MODO MOMENTÂNEO / CHAVE;
#X msg 393 225 0;
#X text 403 172 DESLIGA QUANDO MUDA PARA MOMENTÂNEO, f 19;
#X obj 354 71 t f f f;
#X obj 393 206 sel 0;
#X connect 0 0 11 0;
#X connect 1 0 2 0;
#X connect 2 0 3 0;
#X connect 4 0 1 1;
#X connect 7 0 1 0;
#X connect 8 0 3 0;
#X connect 9 0 8 1;
#X connect 10 0 7 0;
#X connect 11 0 8 0;
#X connect 11 1 10 0;
#X connect 15 0 19 0;
#X connect 17 0 3 0;
#X connect 19 0 9 0;
#X connect 19 1 10 1;
#X connect 19 2 20 0;
#X connect 20 0 17 0;
#X restore 472 337 pd INTERACTION;
#N canvas 621 188 567 300 INTERACTION 0;
#X obj 45 42 inlet TOUCH_RELEASE;
#X obj 199 186 f 0;
#X obj 199 205 == 0;
#X obj 45 243 outlet VALUE;
#X obj 214 42 inlet COLD_VALUE;
#X text 230 186 ARMAZENA VALOR ATUAL;
#X text 130 243 ATUALIZA VALOR DO OBJETO;
#X obj 199 167 sel 1;
#X obj 45 108 spigot 1;
#X obj 90 89 == 0;
#X obj 199 108 spigot;
#X obj 45 71 t f f;
#X text 57 129 MODO MOMENTÂNEO - FUNCIONA ENQUANTO PRESSIONADO, f
17;
#X text 235 205 INVERTE VALOR;
#X text 210 129 MODO CHAVE - ALTERNA ENTRE LIGADO E DESLIGADO, f 24
;
#X obj 354 42 r \$0-mode;
#X text 352 19 MODO MOMENTÂNEO / CHAVE;
#X msg 393 225 0;
#X text 403 172 DESLIGA QUANDO MUDA PARA MOMENTÂNEO, f 19;
#X obj 354 71 t f f f;
#X obj 393 206 sel 0;
#X connect 0 0 11 0;
#X connect 1 0 2 0;
#X connect 2 0 3 0;
#X connect 4 0 1 1;
#X connect 7 0 1 0;
#X connect 8 0 3 0;
#X connect 9 0 8 1;
#X connect 10 0 7 0;
#X connect 11 0 8 0;
#X connect 11 1 10 0;
#X connect 15 0 19 0;
#X connect 17 0 3 0;
#X connect 19 0 9 0;
#X connect 19 1 10 1;
#X connect 19 2 20 0;
#X connect 20 0 17 0;
#X restore 671 337 pd INTERACTION;
#N canvas 621 188 567 300 INTERACTION 0;
#X obj 45 42 inlet TOUCH_RELEASE;
#X obj 199 186 f 0;
#X obj 199 205 == 0;
#X obj 45 243 outlet VALUE;
#X obj 214 42 inlet COLD_VALUE;
#X text 230 186 ARMAZENA VALOR ATUAL;
#X text 130 243 ATUALIZA VALOR DO OBJETO;
#X obj 199 167 sel 1;
#X obj 45 108 spigot 1;
#X obj 90 89 == 0;
#X obj 199 108 spigot;
#X obj 45 71 t f f;
#X text 57 129 MODO MOMENTÂNEO - FUNCIONA ENQUANTO PRESSIONADO, f
17;
#X text 235 205 INVERTE VALOR;
#X text 210 129 MODO CHAVE - ALTERNA ENTRE LIGADO E DESLIGADO, f 24
;
#X obj 354 42 r \$0-mode;
#X text 352 19 MODO MOMENTÂNEO / CHAVE;
#X msg 393 225 0;
#X text 403 172 DESLIGA QUANDO MUDA PARA MOMENTÂNEO, f 19;
#X obj 354 71 t f f f;
#X obj 393 206 sel 0;
#X connect 0 0 11 0;
#X connect 1 0 2 0;
#X connect 2 0 3 0;
#X connect 4 0 1 1;
#X connect 7 0 1 0;
#X connect 8 0 3 0;
#X connect 9 0 8 1;
#X connect 10 0 7 0;
#X connect 11 0 8 0;
#X connect 11 1 10 0;
#X connect 15 0 19 0;
#X connect 17 0 3 0;
#X connect 19 0 9 0;
#X connect 19 1 10 1;
#X connect 19 2 20 0;
#X connect 20 0 17 0;
#X restore 870 337 pd INTERACTION;
#N canvas 621 188 567 300 INTERACTION 0;
#X obj 45 42 inlet TOUCH_RELEASE;
#X obj 199 186 f 0;
#X obj 199 205 == 0;
#X obj 45 243 outlet VALUE;
#X obj 214 42 inlet COLD_VALUE;
#X text 230 186 ARMAZENA VALOR ATUAL;
#X text 130 243 ATUALIZA VALOR DO OBJETO;
#X obj 199 167 sel 1;
#X obj 45 108 spigot 1;
#X obj 90 89 == 0;
#X obj 199 108 spigot;
#X obj 45 71 t f f;
#X text 57 129 MODO MOMENTÂNEO - FUNCIONA ENQUANTO PRESSIONADO, f
17;
#X text 235 205 INVERTE VALOR;
#X text 210 129 MODO CHAVE - ALTERNA ENTRE LIGADO E DESLIGADO, f 24
;
#X obj 354 42 r \$0-mode;
#X text 352 19 MODO MOMENTÂNEO / CHAVE;
#X msg 393 225 0;
#X text 403 172 DESLIGA QUANDO MUDA PARA MOMENTÂNEO, f 19;
#X obj 354 71 t f f f;
#X obj 393 206 sel 0;
#X connect 0 0 11 0;
#X connect 1 0 2 0;
#X connect 2 0 3 0;
#X connect 4 0 1 1;
#X connect 7 0 1 0;
#X connect 8 0 3 0;
#X connect 9 0 8 1;
#X connect 10 0 7 0;
#X connect 11 0 8 0;
#X connect 11 1 10 0;
#X connect 15 0 19 0;
#X connect 17 0 3 0;
#X connect 19 0 9 0;
#X connect 19 1 10 1;
#X connect 19 2 20 0;
#X connect 20 0 17 0;
#X restore 1069 337 pd INTERACTION;
#X obj 32 318 gui_button \$1 0 0 1 1 0 1 1 0;
#X connect 0 0 49 0;
#X connect 1 0 32 0;
#X connect 2 0 58 3;
#X connect 3 0 2 0;
#X connect 4 1 52 0;
#X connect 4 4 52 1;
#X connect 5 1 54 0;
#X connect 5 4 54 1;
#X connect 6 1 55 0;
#X connect 6 4 55 1;
#X connect 7 1 57 0;
#X connect 7 4 57 1;
#X connect 8 0 26 0;
#X connect 10 0 43 0;
#X connect 11 0 45 0;
#X connect 13 0 27 0;
#X connect 16 0 18 0;
#X connect 18 0 24 0;
#X connect 20 0 16 0;
#X connect 20 1 50 0;
#X connect 20 2 47 0;
#X connect 22 0 16 1;
#X connect 22 1 23 0;
#X connect 26 0 28 0;
#X connect 26 1 13 0;
#X connect 27 0 28 1;
#X connect 27 1 25 0;
#X connect 28 0 29 0;
#X connect 29 0 30 0;
#X connect 32 0 3 0;
#X connect 32 1 38 0;
#X connect 32 2 39 0;
#X connect 32 3 40 0;
#X connect 32 4 41 0;
#X connect 32 5 42 0;
#X connect 33 0 4 3;
#X connect 34 0 5 3;
#X connect 35 0 6 3;
#X connect 36 0 44 3;
#X connect 37 0 7 3;
#X connect 38 0 33 0;
#X connect 39 0 34 0;
#X connect 40 0 35 0;
#X connect 41 0 36 0;
#X connect 42 0 37 0;
#X connect 43 0 48 0;
#X connect 44 1 56 0;
#X connect 44 4 56 1;
#X connect 45 0 20 0;
#X connect 48 0 58 3;
#X connect 48 1 4 3;
#X connect 48 2 5 3;
#X connect 48 3 6 3;
#X connect 48 4 44 3;
#X connect 48 5 7 3;
#X connect 49 0 58 0;
#X connect 49 1 4 0;
#X connect 49 2 5 0;
#X connect 49 3 6 0;
#X connect 49 4 44 0;
#X connect 49 5 7 0;
#X connect 50 0 22 0;
#X connect 52 0 4 2;
#X connect 53 0 58 2;
#X connect 54 0 5 2;
#X connect 55 0 6 2;
#X connect 56 0 44 2;
#X connect 57 0 7 2;
#X connect 58 1 53 0;
#X connect 58 4 53 1;
