#N canvas 66 82 1068 382 10;
#X obj 32 30 inlet RENDER_CHAIN;
#X obj 822 30 inlet TOUCH_ON;
#X msg 822 139 touch \$1;
#X obj 32 119 t b b b;
#X obj 152 101 loadbang;
#N canvas 303 255 552 230 POS_SIZE 0;
#X msg 40 145 posX \$1;
#X msg 133 145 posY \$1;
#X msg 236 145 sizeX \$1;
#X msg 339 145 sizeY \$1;
#X obj 40 184 outlet CONTROLS;
#X obj 346 31 inlet ID;
#X obj 133 126 r \$0-h_offset;
#X obj 140 31 r \$0-w_offset;
#X obj 140 86 +;
#X obj 243 68 *;
#X obj 243 31 r \$0-w_main/3;
#X obj 236 126 r \$0-w_number;
#X obj 339 126 r \$0-h_number;
#X obj 40 31 r \$1-width;
#X obj 40 50 * 0.125;
#X obj 40 104 +;
#X obj 346 50 t f b;
#X msg 445 145 limit 1 128;
#X connect 0 0 4 0;
#X connect 1 0 4 0;
#X connect 2 0 4 0;
#X connect 3 0 4 0;
#X connect 5 0 16 0;
#X connect 6 0 1 0;
#X connect 7 0 8 0;
#X connect 8 0 15 1;
#X connect 9 0 8 1;
#X connect 10 0 9 0;
#X connect 11 0 2 0;
#X connect 12 0 3 0;
#X connect 13 0 14 0;
#X connect 14 0 15 0;
#X connect 15 0 0 0;
#X connect 16 0 9 1;
#X connect 16 1 17 0;
#X connect 17 0 4 0;
#X restore 152 157 pd POS_SIZE;
#X msg 152 138 0;
#X obj 822 158 t a a a;
#N canvas 2 133 554 257 POS_SIZE 0;
#X msg 40 145 posX \$1;
#X msg 133 145 posY \$1;
#X msg 236 145 sizeX \$1;
#X msg 339 145 sizeY \$1;
#X obj 40 184 outlet CONTROLS;
#X obj 346 31 inlet ID;
#X obj 133 126 r \$0-h_offset;
#X obj 140 31 r \$0-w_offset;
#X obj 140 86 +;
#X obj 243 68 *;
#X obj 243 31 r \$0-w_main/3;
#X obj 236 126 r \$0-w_number;
#X obj 339 126 r \$0-h_number;
#X obj 40 31 r \$1-width;
#X obj 40 50 * 0.125;
#X obj 40 104 +;
#X msg 445 145 limit 1 128;
#X obj 346 50 t f b;
#X connect 0 0 4 0;
#X connect 1 0 4 0;
#X connect 2 0 4 0;
#X connect 3 0 4 0;
#X connect 5 0 17 0;
#X connect 6 0 1 0;
#X connect 7 0 8 0;
#X connect 8 0 15 1;
#X connect 9 0 8 1;
#X connect 10 0 9 0;
#X connect 11 0 2 0;
#X connect 12 0 3 0;
#X connect 13 0 14 0;
#X connect 14 0 15 0;
#X connect 15 0 0 0;
#X connect 16 0 4 0;
#X connect 17 0 9 1;
#X connect 17 1 16 0;
#X restore 422 157 pd POS_SIZE;
#N canvas 2 133 552 254 POS_SIZE 0;
#X msg 40 145 posX \$1;
#X msg 133 145 posY \$1;
#X msg 236 145 sizeX \$1;
#X msg 339 145 sizeY \$1;
#X obj 40 184 outlet CONTROLS;
#X obj 346 31 inlet ID;
#X obj 133 126 r \$0-h_offset;
#X obj 140 31 r \$0-w_offset;
#X obj 140 86 +;
#X obj 243 68 *;
#X obj 243 31 r \$0-w_main/3;
#X obj 236 126 r \$0-w_number;
#X obj 339 126 r \$0-h_number;
#X obj 40 31 r \$1-width;
#X obj 40 50 * 0.125;
#X obj 40 104 +;
#X obj 346 50 t f b;
#X msg 445 145 limit 0 127;
#X connect 0 0 4 0;
#X connect 1 0 4 0;
#X connect 2 0 4 0;
#X connect 3 0 4 0;
#X connect 5 0 16 0;
#X connect 6 0 1 0;
#X connect 7 0 8 0;
#X connect 8 0 15 1;
#X connect 9 0 8 1;
#X connect 10 0 9 0;
#X connect 11 0 2 0;
#X connect 12 0 3 0;
#X connect 13 0 14 0;
#X connect 14 0 15 0;
#X connect 15 0 0 0;
#X connect 16 0 9 1;
#X connect 16 1 17 0;
#X connect 17 0 4 0;
#X restore 693 157 pd POS_SIZE;
#X msg 422 138 1;
#X msg 692 138 2;
#X obj 215 324 outlet SLICES;
#X obj 485 324 outlet RANGE;
#X obj 755 324 outlet OFFSET;
#X obj 152 120 t b b b;
#X text 56 153 SLICES;
#X text 326 153 RANGE;
#X text 596 153 OFFSET;
#X obj 215 214 t f f f;
#X msg 376 289 limit \$1 \$2;
#X obj 406 251 t b f;
#X msg 646 289 limit \$1 \$2;
#X obj 676 232 t b f;
#X obj 376 270 pack 1 128;
#X obj 646 270 pack 0 127;
#X obj 703 251 - 1;
#X obj 406 232 -;
#X obj 406 213 t b f;
#X obj 755 195 t f f;
#X obj 485 195 t f;
#X obj 215 285 change -1;
#X obj 485 285 change -1;
#X obj 755 285 change -1;
#X text 821 285 EVITA REPETIÇÕES;
#X text 252 248 RELAÇÕES ENTRE VALORES;
#N canvas 2 53 712 285 POS_SIZE_CALCS 0;
#X obj 41 40 r \$1-h_tracks;
#X text 132 40 RECEBE ALTURA DAS TRACKS;
#X obj 361 40 r \$1-w_main;
#X text 440 40 RECEBE LARGURA DA ÁREA PRINCIPAL;
#X text 185 116 ENVIA LOCALMENTE;
#X obj 361 184 -;
#X obj 361 203 / 2;
#X text 452 222 DESLOCAMENTO X RELATIVO À SUB-ÁREA;
#X obj 361 88 t f f f;
#X text 491 107 TAMANHO DA SUB-ÁREA;
#X obj 380 155 t f f;
#X obj 361 222 s \$0-w_offset;
#X obj 41 59 t f f;
#X obj 68 97 t f f;
#X obj 41 115 -;
#X obj 41 134 / 2;
#X obj 41 153 s \$0-h_offset;
#X text 132 153 DESLOCAMENTO Y RELATIVO À PISTA;
#X text 111 78 ALTURA DAS CAIXAS DE NÚMERO;
#X obj 95 116 s \$0-h_number;
#X obj 361 69 / 3;
#X text 391 69 3 SUB-ÁREAS;
#X obj 400 107 s \$0-w_main/3;
#X obj 407 174 s \$0-w_number;
#X text 498 174 LARGURA DAS CAIXAS DE NÚMERO;
#X obj 68 78 * 0.65;
#X obj 380 136 * 0.7;
#X text 423 136 70% DA SUB-ÁREA;
#X connect 0 0 12 0;
#X connect 2 0 20 0;
#X connect 5 0 6 0;
#X connect 6 0 11 0;
#X connect 8 0 5 0;
#X connect 8 1 26 0;
#X connect 8 2 22 0;
#X connect 10 0 5 1;
#X connect 10 1 23 0;
#X connect 12 0 14 0;
#X connect 12 1 25 0;
#X connect 13 0 14 1;
#X connect 13 1 19 0;
#X connect 14 0 15 0;
#X connect 15 0 16 0;
#X connect 20 0 8 0;
#X connect 25 0 13 0;
#X connect 26 0 10 0;
#X restore 177 30 pd POS_SIZE_CALCS;
#X obj 815 229 r \$0-changeReset;
#X msg 815 248 set -1;
#X obj 815 267 t a a a;
#X text 922 227 REINICIA SISTEMA ANTI-REPETIÇÕES, f 16;
#X obj 352 30 inlet SLICES_CTL;
#X obj 485 30 inlet RANGE_CTL;
#X obj 625 30 inlet OFFSET_CTL;
#X obj 32 176 gui_number \$1 0 0 1 1 8 0 1 0 1;
#X obj 302 176 gui_number \$1 0 0 1 1 8 0 1 0 1;
#X obj 572 176 gui_number \$1 0 0 1 1 0 0 1 0 1;
#X connect 0 0 3 0;
#X connect 1 0 2 0;
#X connect 2 0 7 0;
#X connect 3 0 44 0;
#X connect 3 1 45 0;
#X connect 3 2 46 0;
#X connect 4 0 15 0;
#X connect 5 0 44 1;
#X connect 6 0 5 0;
#X connect 7 0 44 1;
#X connect 7 1 45 1;
#X connect 7 2 46 1;
#X connect 8 0 45 1;
#X connect 9 0 46 1;
#X connect 10 0 8 0;
#X connect 11 0 9 0;
#X connect 15 0 6 0;
#X connect 15 1 10 0;
#X connect 15 2 11 0;
#X connect 19 0 31 0;
#X connect 19 1 27 0;
#X connect 19 2 23 0;
#X connect 20 0 45 1;
#X connect 21 0 24 0;
#X connect 21 1 24 1;
#X connect 22 0 46 1;
#X connect 23 0 25 0;
#X connect 23 1 26 0;
#X connect 24 0 20 0;
#X connect 25 0 22 0;
#X connect 26 0 25 1;
#X connect 27 0 21 0;
#X connect 28 0 27 0;
#X connect 28 1 27 1;
#X connect 29 0 33 0;
#X connect 29 1 28 0;
#X connect 30 0 32 0;
#X connect 31 0 12 0;
#X connect 32 0 13 0;
#X connect 33 0 14 0;
#X connect 37 0 38 0;
#X connect 38 0 39 0;
#X connect 39 0 31 0;
#X connect 39 1 32 0;
#X connect 39 2 33 0;
#X connect 41 0 44 1;
#X connect 42 0 45 1;
#X connect 43 0 46 1;
#X connect 44 1 19 0;
#X connect 45 1 30 0;
#X connect 46 1 29 0;
