#N canvas 475 193 842 635 10;
#X obj 51 212 ofTranslate;
#X obj 51 50 inlet RENDER_CHAIN;
#X obj 51 564 outlet RENDER_CHAIN;
#X text 322 130 ALTURA;
#X obj 189 72 r \$0-refresh;
#X obj 269 564 outlet VALUE;
#X obj 51 416 ofSetColor 213 220 230 255;
#X obj 78 298 ofGetTranslate;
#X obj 405 50 inlet posX;
#X obj 480 50 inlet posY;
#X obj 715 50 inlet value;
#N canvas 379 350 913 511 CONTROLS 0;
#X obj 287 162 loadbang;
#X obj 50 28 inlet posX;
#X obj 120 28 inlet posY;
#X obj 342 28 inlet value;
#X obj 50 86 bit_param2 v\$0_posX \$0-memo 0 \$2;
#X obj 50 105 bit_param2 v\$0_posY \$0-memo 1 \$3;
#X obj 50 308 s \$0-refresh;
#X obj 50 289 bang;
#X text 304 309 DEFINE VARIÁVEIS DO SISTEMA OFELIA, f 19;
#X text 47 332 ATUALIZA GRÁFICOS QUANDO MUDA PARÂMETROS VISUAIS,
f 24;
#X obj 190 28 inlet sizeX;
#X obj 266 28 inlet sizeY;
#X obj 50 124 bit_param2 v\$0_sizeX \$0-memo 2 \$4;
#X obj 50 143 bit_param2 v\$0_sizeY \$0-memo 3 \$5;
#X msg 287 200 110 107 175 255;
#X msg 287 219 62 75 86 255;
#X obj 237 279 ofDefine \; @posX \; @posY \; @sizeX \; @sizeY \; @id
\; @value \;;
#X obj 50 162 bit_param2 v\$0_id \$0-memo 4 \$6;
#X obj 50 181 bit_param2 v\$0_value \$0-memo 5 0;
#X obj 50 200 bit_param2 v\$0_bgColor \$0-memo 6;
#X obj 50 219 bit_param2 v\$0_actColor \$0-memo 7;
#X obj 50 238 bit_param2 v\$0_actColor2 \$0-memo 8;
#X obj 287 86 bit_memo \$0-memo 9;
#X text 652 28 RECEBE TAMANHO X/Y DO SELETOR;
#X obj 476 154 -;
#X obj 476 97 t f f;
#X obj 503 135 t f f;
#X obj 503 116 * 0.9;
#X obj 476 192 / 2;
#X obj 476 173 t f f;
#X obj 544 339 s v\$0_posX-;
#X obj 461 339 s v\$0_posY-;
#X text 545 125 CÁLCULOS DOS VALORES LOCAIS;
#X obj 530 154 s v\$0_sizeY-;
#X obj 573 76 * 0.9;
#X obj 573 95 s v\$0_sizeX-;
#X obj 461 234 ofRcv @id;
#X obj 461 310 + 0;
#X obj 544 310 + 0;
#X obj 461 253 t f f;
#X text 527 234 CALCULA DESLOCAMENTO DE CADA SELETOR, f 20;
#X obj 461 291 *;
#X obj 544 291 *;
#X obj 461 272 mod 2;
#X obj 544 272 div 2;
#X obj 554 47 t b f f;
#X obj 457 47 t b f f;
#X obj 457 28 r \$1-sizeY/2;
#X obj 554 28 r \$1-sizeX/2;
#X msg 287 181 118 126 133 150;
#X connect 0 0 49 0;
#X connect 0 0 14 0;
#X connect 0 0 15 0;
#X connect 1 0 4 0;
#X connect 2 0 5 0;
#X connect 3 0 18 0;
#X connect 4 0 7 0;
#X connect 5 0 7 0;
#X connect 7 0 6 0;
#X connect 10 0 12 0;
#X connect 11 0 13 0;
#X connect 12 0 7 0;
#X connect 13 0 7 0;
#X connect 14 0 20 0;
#X connect 15 0 21 0;
#X connect 17 0 7 0;
#X connect 19 0 7 0;
#X connect 20 0 7 0;
#X connect 21 0 7 0;
#X connect 24 0 29 0;
#X connect 25 0 24 0;
#X connect 25 1 27 0;
#X connect 26 0 24 1;
#X connect 26 1 33 0;
#X connect 27 0 26 0;
#X connect 28 0 37 1;
#X connect 29 0 28 0;
#X connect 29 1 38 1;
#X connect 34 0 35 0;
#X connect 36 0 39 0;
#X connect 37 0 31 0;
#X connect 38 0 30 0;
#X connect 39 0 43 0;
#X connect 39 1 44 0;
#X connect 41 0 37 0;
#X connect 42 0 38 0;
#X connect 43 0 41 0;
#X connect 44 0 42 0;
#X connect 45 0 17 0;
#X connect 45 1 34 0;
#X connect 45 2 42 1;
#X connect 46 1 25 0;
#X connect 46 2 41 1;
#X connect 47 0 46 0;
#X connect 48 0 45 0;
#X connect 49 0 19 0;
#X restore 405 79 pd CONTROLS;
#N canvas 426 566 328 247 COLOR 0;
#X msg 48 139 set \$1 \$2 \$3 \$4;
#X obj 48 178 outlet;
#X obj 48 110 list;
#X obj 168 110 list;
#X obj 69 91 ofRcv @bgColor;
#X obj 189 91 ofRcv @actColor;
#X obj 48 62 sel 0 1;
#X obj 48 43 ofRcv @value;
#X connect 0 0 1 0;
#X connect 2 0 0 0;
#X connect 3 0 0 0;
#X connect 4 0 2 1;
#X connect 5 0 3 1;
#X connect 6 0 2 0;
#X connect 6 1 3 0;
#X connect 7 0 6 0;
#X restore 159 397 pd COLOR;
#X text 322 156 RAIO DOS CANTOS;
#X obj 358 194 t f;
#X obj 387 194 t f;
#X obj 330 261 ofLoadPath2d \; @button \;;
#X obj 51 455 ofDrawPath2d @button;
#X obj 330 194 t f;
#X obj 330 223 pack f f f;
#X text 322 143 LARGURA;
#X obj 51 397 ofSetFillMode 1;
#N canvas 486 53 706 817 TOUCH 0;
#X obj 59 19 r \$1-touchDown;
#X obj 59 105 unpack f f f;
#X obj 203 19 r \$1-touchMove;
#X obj 353 19 r \$1-touchUp;
#X obj 199 68 r \$0-getTranslate;
#X obj 199 87 unpack f f;
#X obj 93 143 pack f f;
#X obj 93 124 -;
#X obj 138 124 -;
#X obj 93 162 ofIsPointInsidePath2d @button;
#X obj 93 181 sel 1;
#X obj 73 183 bng 15 250 50 0 empty empty empty 17 7 0 10 -262144 -1
-1;
#X obj 112 688 ofValue @value;
#X obj 112 755 ofSnd @value;
#X text 209 688 OBTÉM VALOR ATUAL;
#X text 196 755 ATUALIZA VALOR;
#X obj 44 228 f;
#X text 75 229 ARMAZENA ID DO TOQUE;
#X text 279 162 INDENTIFICA TOQUE LOCAL;
#X obj 44 247 t f f;
#X obj 203 265 route -1;
#X obj 353 265 route -1;
#X obj 203 447 s \$1-buttonSlide;
#X text 311 446 ENVIA MOVIMENTO APÓS TOQUE LOCAL PARA DEMAIS BOTÕES
DA MESMA FAMÍLIA, f 35;
#X msg 353 284 -1;
#X obj 203 487 r \$1-buttonSlide;
#X msg 248 517 0;
#X msg 278 517 1;
#X obj 93 200 t b b b;
#X obj 203 536 spigot 1;
#X obj 353 303 t b f f;
#X text 417 284 REINICIA SISTEMA LOCAL QUANDO LIBERA TOQUE, f 22;
#X text 263 536 FILTRA APENAS MOVIMENTOS VINDOS DE OUTRO BOTÃO;
#X text 313 68 RECEBE POSIÇÃO LOCAL;
#X obj 203 593 pack f f;
#X obj 203 574 -;
#X obj 248 574 -;
#X obj 203 612 ofIsPointInsidePath2d @button;
#X obj 203 555 unpack f f;
#X text 389 612 INDENTIFICA MOVIMENTO SOBRE O BOTÃO LOCAL;
#X obj 203 631 change;
#X text 251 632 FILTRA REPETIÇÃO;
#X obj 203 650 sel 1;
#X obj 203 284 t a a;
#X obj 199 106 t f f f;
#X obj 256 106 t f f f;
#X obj 230 341 pack f f;
#X obj 230 322 -;
#X obj 275 322 -;
#X obj 230 360 ofIsPointInsidePath2d @button;
#X obj 230 303 unpack f f;
#X text 416 360 INDENTIFICA MOVIMENTO SOBRE O BOTÃO LOCAL;
#X obj 230 379 change;
#X text 278 380 FILTRA REPETIÇÃO;
#X obj 230 398 sel 0;
#X text 273 398 QUANDO SAI DA ÁREA ATIVA SENSIBILIDADE DO BOTÃO AO
MOVIMENTO;
#X obj 112 717 sel 0;
#X text 155 717 ACIONA SE ESTIVER DESLIGADO \, SE ESTIVER LIGADO NÃO
FAZ NADA;
#X msg 112 736 1;
#X connect 0 0 1 0;
#X connect 1 0 16 1;
#X connect 1 1 7 0;
#X connect 1 2 8 0;
#X connect 2 0 20 0;
#X connect 3 0 21 0;
#X connect 4 0 5 0;
#X connect 5 0 44 0;
#X connect 5 1 45 0;
#X connect 6 0 9 0;
#X connect 7 0 6 0;
#X connect 8 0 6 1;
#X connect 9 0 10 0;
#X connect 10 0 11 0;
#X connect 10 0 28 0;
#X connect 12 0 56 0;
#X connect 16 0 19 0;
#X connect 19 0 20 1;
#X connect 19 1 21 1;
#X connect 20 0 43 0;
#X connect 21 0 24 0;
#X connect 24 0 30 0;
#X connect 25 0 29 0;
#X connect 26 0 29 1;
#X connect 27 0 29 1;
#X connect 28 0 16 0;
#X connect 28 1 12 0;
#X connect 28 2 26 0;
#X connect 29 0 38 0;
#X connect 30 0 27 0;
#X connect 30 1 20 1;
#X connect 30 2 21 1;
#X connect 34 0 37 0;
#X connect 35 0 34 0;
#X connect 36 0 34 1;
#X connect 37 0 40 0;
#X connect 38 0 35 0;
#X connect 38 1 36 0;
#X connect 40 0 42 0;
#X connect 42 0 12 0;
#X connect 43 0 22 0;
#X connect 43 1 50 0;
#X connect 44 0 7 1;
#X connect 44 1 35 1;
#X connect 44 2 47 1;
#X connect 45 0 8 1;
#X connect 45 1 36 1;
#X connect 45 2 48 1;
#X connect 46 0 49 0;
#X connect 47 0 46 0;
#X connect 48 0 46 1;
#X connect 49 0 52 0;
#X connect 50 0 47 0;
#X connect 50 1 48 0;
#X connect 52 0 54 0;
#X connect 54 0 27 0;
#X connect 56 0 58 0;
#X connect 58 0 13 0;
#X restore 405 108 pd TOUCH;
#X text 421 266 CARREGA BOTÃO;
#X text 183 455 DESENHA BOTÃO;
#X obj 189 194 t b f;
#X obj 233 194 t b f;
#X obj 78 317 s \$0-getTranslate;
#X text 165 14 ** BOTÃO COM TAMANHO X E Y SETÁVEL E 2 MODOS - TOGGLE
E MOMENTARY, f 65;
#X obj 51 231 t b b;
#X obj 78 260 spigot;
#X obj 78 279 t b b;
#X msg 111 241 0;
#X msg 141 241 1;
#X text 76 341 OBTÉM POSIÇÃO LOCAL CADA VEZ QUE É ATUALIZADA,
f 24;
#X obj 51 488 ofPopMatrix;
#X obj 51 507 ofPopStyle;
#X obj 189 91 ofExpr \; $o1 = @posX \; $o2 = @posY \; $o3 = @sizeX
\; $o4 = @sizeY \; $o5 = @sizeX * 0.15 \;;
#X msg 330 242 load rectRounded \$1 \$2 \$3;
#X obj 269 525 ofRcv @value;
#X obj 555 50 inlet sizeX;
#X obj 635 50 inlet sizeY;
#X obj 51 117 ofPushStyle;
#X obj 51 136 ofPushMatrix;
#X connect 0 0 29 0;
#X connect 1 0 42 0;
#X connect 4 0 37 0;
#X connect 6 0 17 0;
#X connect 7 0 27 0;
#X connect 8 0 11 0;
#X connect 9 0 11 1;
#X connect 10 0 11 4;
#X connect 12 0 6 0;
#X connect 14 0 19 1;
#X connect 15 0 19 2;
#X connect 17 0 35 0;
#X connect 18 0 19 0;
#X connect 19 0 38 0;
#X connect 21 0 6 0;
#X connect 25 0 33 0;
#X connect 25 1 0 1;
#X connect 26 0 33 0;
#X connect 26 1 0 2;
#X connect 29 0 21 0;
#X connect 29 1 30 0;
#X connect 30 0 31 0;
#X connect 31 0 7 0;
#X connect 31 1 32 0;
#X connect 32 0 30 1;
#X connect 33 0 30 1;
#X connect 35 0 36 0;
#X connect 36 0 2 0;
#X connect 37 0 25 0;
#X connect 37 1 26 0;
#X connect 37 2 18 0;
#X connect 37 3 14 0;
#X connect 37 4 15 0;
#X connect 38 0 16 0;
#X connect 39 0 5 0;
#X connect 40 0 11 2;
#X connect 41 0 11 3;
#X connect 42 0 43 0;
#X connect 43 0 0 0;
