#N canvas 614 200 806 637 10;
#X obj 51 202 ofTranslate;
#X obj 51 50 inlet RENDER_CHAIN;
#X obj 51 593 outlet RENDER_CHAIN;
#X text 262 142 ALTURA;
#X obj 141 84 r \$0-refresh;
#X obj 354 477 ofSetColor 213 220 230 255;
#X obj 78 288 ofGetTranslate;
#N canvas 780 299 658 455 CONTROLS 0;
#X obj 307 227 loadbang;
#X obj 50 371 s \$0-refresh;
#X obj 50 352 bang;
#X text 304 372 DEFINE VARIÁVEIS DO SISTEMA OFELIA, f 19;
#X text 47 395 ATUALIZA GRÁFICOS QUANDO MUDA PARÂMETROS VISUAIS,
f 24;
#X obj 237 342 ofDefine \; @posX \; @posY \; @sizeX \; @sizeY \; @value
\;;
#X msg 307 265 110 107 175 255;
#X msg 307 284 62 75 86 255;
#X obj 50 25 inlet;
#X obj 307 133 bit_memo \$0-memo 12;
#X obj 50 54 route posX posY sizeX sizeY value drawPath drawPNG pngOffset
touch bgColor actColor actColor2, f 93;
#X text 434 133 MEMÓRIA LOCAL;
#X msg 307 246 118 126 133 255;
#X obj 50 93 bit_param v\$0_posX \$0-memo 0 \$2;
#X obj 50 112 bit_param v\$0_posY \$0-memo 1 \$3;
#X obj 50 131 bit_param v\$0_sizeX \$0-memo 2 \$4;
#X obj 50 150 bit_param v\$0_sizeY \$0-memo 3 \$5;
#X obj 50 169 bit_param v\$0_value \$0-memo 4 \$6;
#X obj 50 188 bit_param v\$0_drawPath \$0-memo 5 \$7;
#X obj 50 207 bit_param v\$0_drawPNG \$0-memo 6 \$8;
#X obj 50 226 bit_param v\$0_pngOffset \$0-memo 7 \$9;
#X obj 50 245 bit_param v\$0_touch \$0-memo 8 \$10;
#X obj 50 264 bit_param v\$0_bgColor \$0-memo 9;
#X obj 50 283 bit_param v\$0_actColor \$0-memo 10;
#X obj 50 302 bit_param v\$0_actColor2 \$0-memo 11;
#X connect 0 0 6 0;
#X connect 0 0 7 0;
#X connect 0 0 12 0;
#X connect 2 0 1 0;
#X connect 6 0 23 0;
#X connect 7 0 24 0;
#X connect 8 0 10 0;
#X connect 10 0 13 0;
#X connect 10 1 14 0;
#X connect 10 2 15 0;
#X connect 10 3 16 0;
#X connect 10 4 17 0;
#X connect 10 5 18 0;
#X connect 10 6 19 0;
#X connect 10 7 20 0;
#X connect 10 8 21 0;
#X connect 10 9 22 0;
#X connect 10 10 23 0;
#X connect 10 11 24 0;
#X connect 12 0 22 0;
#X connect 13 0 2 0;
#X connect 14 0 2 0;
#X connect 15 0 2 0;
#X connect 16 0 2 0;
#X connect 22 0 2 0;
#X connect 23 0 2 0;
#X connect 24 0 2 0;
#X restore 624 79 pd CONTROLS;
#N canvas 368 391 439 249 COLOR 0;
#X msg 38 139 set \$1 \$2 \$3 \$4;
#X obj 38 178 outlet;
#X obj 38 110 list;
#X obj 158 110 list;
#X obj 59 91 ofRcv @bgColor;
#X obj 179 91 ofRcv @actColor;
#X obj 38 43 inlet VALUE;
#X obj 288 110 list;
#X obj 38 62 sel 0 1 2;
#X obj 309 91 ofRcv @actColor2;
#X connect 0 0 1 0;
#X connect 2 0 0 0;
#X connect 3 0 0 0;
#X connect 4 0 2 1;
#X connect 5 0 3 1;
#X connect 6 0 8 0;
#X connect 7 0 0 0;
#X connect 8 0 2 0;
#X connect 8 1 3 0;
#X connect 8 2 7 0;
#X connect 9 0 7 1;
#X restore 462 458 pd COLOR;
#X text 261 155 LARGURA;
#X obj 354 458 ofSetFillMode 1;
#X obj 141 184 t b f;
#X obj 185 184 t b f;
#X obj 78 307 s \$0-getTranslate;
#X obj 51 221 t b b;
#X obj 78 250 spigot;
#X obj 78 269 t b b;
#X msg 111 231 0;
#X msg 141 231 1;
#X text 76 331 OBTÉM POSIÇÃO LOCAL CADA VEZ QUE É ATUALIZADA,
f 24;
#X obj 51 535 ofPopMatrix;
#X obj 51 554 ofPopStyle;
#X text 511 496 DESENHA PATH;
#X obj 529 421 ofRcv @value;
#X obj 230 203 pack f f;
#X obj 230 184 t f f;
#X text 262 116 POS. X;
#X text 262 129 POS. Y;
#X obj 70 458 ofSetColor 255 255 255 255;
#X obj 51 89 ofPushStyle;
#X obj 51 108 ofPushMatrix;
#X text 526 398 GESTÃO DO VALOR;
#X obj 624 50 inlet EXTERNAL_CONTROL;
#X obj 354 429 spigot;
#X obj 387 410 ofRcv @drawPath;
#X obj 70 429 spigot;
#X obj 103 410 ofRcv @drawPNG;
#X obj 51 376 t b b b;
#X text 321 246 CARREGA PATH;
#X text 253 498 DESENHA PNG;
#N canvas 2 193 322 205 PNG_READ 0;
#X obj 52 97 +;
#X text 83 97 9 ARGUMENTO (PNG OFFSET) DEFINE QUAL IMAGENS LER DO BANCO
, f 31;
#X obj 52 39 inlet VALUE;
#X obj 52 146 outlet PNG_INDEX;
#X obj 67 78 ofRcv @pngOffset;
#X connect 0 0 3 0;
#X connect 2 0 0 0;
#X connect 4 0 0 1;
#X restore 90 477 pd PNG_READ;
#X msg 230 222 load rect \$1 \$2;
#X obj 70 496 ofDrawImage \$1-pngBank[0] 1 0;
#X obj 275 184 t f f;
#X obj 141 103 ofExpr \; $o1 = int(@posX) \; $o2 = int(@posY) \; $o3
= int(@sizeX) \; $o4 = int(@sizeY) \;;
#X obj 230 241 ofLoadPath2d \; @multitouch \;;
#X obj 354 496 ofDrawPath2d @multitouch;
#X text 538 139 GESTÃO DE INTERAÇÕES COM ÁREA MULTITOQUES, f 20
;
#X obj 453 139 ofRcv @touch;
#X obj 453 177 t f f;
#X obj 305 50 inlet SLICES;
#X obj 305 69 s \$0-slices;
#X obj 402 50 inlet RANGE;
#X obj 499 50 inlet OFFSET;
#X obj 402 69 s \$0-range;
#X obj 499 69 s \$0-offset;
#X obj 546 330 outlet OFFSET;
#X obj 453 330 outlet RANGE;
#X obj 453 234 t f f f;
#X obj 529 440 t f f;
#X text 213 12 ** ÁREA INTERATIVA MULTITOQUES PARA CONTROLE DE RANGE
E OFFSET, f 62;
#N canvas 459 136 917 587 TOUCH_0 0;
#X obj 49 29 r \$1-touchDown;
#X obj 49 145 unpack f f f;
#X obj 327 29 r \$1-touchMove;
#X obj 597 29 r \$1-touchUp;
#X obj 350 108 r \$0-getTranslate;
#X obj 350 127 unpack f f;
#X obj 83 183 pack f f;
#X obj 83 164 -;
#X obj 128 164 -;
#X text 294 221 INDENTIFICA TOQUE LOCAL;
#X obj 327 335 route -1;
#X obj 597 335 route -1;
#X msg 597 354 -1;
#X text 681 354 REINICIA SISTEMA LOCAL QUANDO LIBERA TOQUE, f 22;
#X text 465 108 RECEBE POSIÇÃO LOCAL;
#X obj 327 354 t a a;
#X obj 402 410 pack f f;
#X obj 402 391 -;
#X obj 447 391 -;
#X obj 402 372 unpack f f;
#X obj 402 448 change;
#X text 450 449 FILTRA REPETIÇÃO;
#X text 447 29 INTERAÇÕES GLOBAIS;
#X obj 327 467 list append 0;
#X obj 327 526 outlet MOVE;
#X text 340 503 X / Y / 0-1 (DENTRO/FORA);
#X obj 49 66 spigot;
#X text 790 29 TOUCH ON/OFF;
#X obj 49 240 spigot;
#X obj 83 221 ofIsPointInsidePath2d @multitouch;
#X obj 402 429 ofIsPointInsidePath2d @multitouch;
#X text 613 429 INDENTIFICA MOVIMENTO LOCAL SOBRE A ÁREA;
#X obj 350 146 t f f;
#X obj 407 146 t f f;
#X msg 49 487 1;
#X msg 79 487 0;
#X obj 711 29 inlet TOUCH;
#X obj 83 202 t l l;
#X obj 148 487 list;
#X obj 49 317 t b b f f;
#X obj 49 526 outlet TOUCH;
#X obj 148 526 outlet TOUCH_POSITION;
#X obj 49 269 spigot 1;
#X msg 94 250 0;
#X msg 124 250 1;
#X obj 49 288 t f b;
#X text 110 269 GARANTE APENAS 1 TOQUE LOCAL;
#X obj 597 373 t b b f f;
#X obj 711 48 t f f;
#X obj 738 67 sel 0;
#X obj 557 296 r \$0-forceRelease;
#X text 672 296 3 TOQUE FORÇA RELEASE;
#X connect 0 0 26 0;
#X connect 1 0 28 0;
#X connect 1 1 7 0;
#X connect 1 2 8 0;
#X connect 2 0 10 0;
#X connect 3 0 11 0;
#X connect 4 0 5 0;
#X connect 5 0 32 0;
#X connect 5 1 33 0;
#X connect 6 0 37 0;
#X connect 7 0 6 0;
#X connect 8 0 6 1;
#X connect 10 0 15 0;
#X connect 11 0 12 0;
#X connect 12 0 47 0;
#X connect 15 0 23 0;
#X connect 15 1 19 0;
#X connect 16 0 30 0;
#X connect 17 0 16 0;
#X connect 18 0 16 1;
#X connect 19 0 17 0;
#X connect 19 1 18 0;
#X connect 20 0 23 1;
#X connect 23 0 24 0;
#X connect 26 0 1 0;
#X connect 28 0 42 0;
#X connect 29 0 28 1;
#X connect 30 0 20 0;
#X connect 32 0 7 1;
#X connect 32 1 17 1;
#X connect 33 0 8 1;
#X connect 33 1 18 1;
#X connect 34 0 40 0;
#X connect 35 0 40 0;
#X connect 36 0 48 0;
#X connect 37 0 29 0;
#X connect 37 1 38 1;
#X connect 38 0 41 0;
#X connect 39 0 34 0;
#X connect 39 1 38 0;
#X connect 39 2 10 1;
#X connect 39 3 11 1;
#X connect 42 0 45 0;
#X connect 43 0 42 1;
#X connect 44 0 42 1;
#X connect 45 0 39 0;
#X connect 45 1 43 0;
#X connect 47 0 35 0;
#X connect 47 1 44 0;
#X connect 47 2 10 1;
#X connect 47 3 11 1;
#X connect 48 0 26 1;
#X connect 48 1 49 0;
#X connect 49 0 12 0;
#X connect 50 0 12 0;
#X restore 453 158 pd TOUCH_0;
#N canvas 484 148 917 587 TOUCH_1 0;
#X obj 49 29 r \$1-touchDown;
#X obj 49 145 unpack f f f;
#X obj 327 29 r \$1-touchMove;
#X obj 597 29 r \$1-touchUp;
#X obj 350 108 r \$0-getTranslate;
#X obj 350 127 unpack f f;
#X obj 83 183 pack f f;
#X obj 83 164 -;
#X obj 128 164 -;
#X text 294 221 INDENTIFICA TOQUE LOCAL;
#X obj 327 335 route -1;
#X obj 597 335 route -1;
#X msg 597 354 -1;
#X text 681 354 REINICIA SISTEMA LOCAL QUANDO LIBERA TOQUE, f 22;
#X text 465 108 RECEBE POSIÇÃO LOCAL;
#X obj 327 354 t a a;
#X obj 402 410 pack f f;
#X obj 402 391 -;
#X obj 447 391 -;
#X obj 402 372 unpack f f;
#X obj 402 448 change;
#X text 450 449 FILTRA REPETIÇÃO;
#X text 447 29 INTERAÇÕES GLOBAIS;
#X obj 327 467 list append 0;
#X obj 327 526 outlet MOVE;
#X text 340 503 X / Y / 0-1 (DENTRO/FORA);
#X obj 49 66 spigot;
#X text 790 29 TOUCH ON/OFF;
#X obj 49 240 spigot;
#X obj 83 221 ofIsPointInsidePath2d @multitouch;
#X obj 402 429 ofIsPointInsidePath2d @multitouch;
#X text 613 429 INDENTIFICA MOVIMENTO LOCAL SOBRE A ÁREA;
#X obj 350 146 t f f;
#X obj 407 146 t f f;
#X msg 49 487 1;
#X msg 79 487 0;
#X obj 711 29 inlet TOUCH;
#X obj 83 202 t l l;
#X obj 148 487 list;
#X obj 49 317 t b b f f;
#X obj 49 526 outlet TOUCH;
#X obj 148 526 outlet TOUCH_POSITION;
#X obj 49 269 spigot 1;
#X msg 94 250 0;
#X msg 124 250 1;
#X obj 49 288 t f b;
#X text 110 269 GARANTE APENAS 1 TOQUE LOCAL;
#X obj 597 373 t b b f f;
#X obj 711 48 t f f;
#X obj 738 67 sel 0;
#X obj 557 296 r \$0-forceRelease;
#X text 672 296 3 TOQUE FORÇA RELEASE;
#X connect 0 0 26 0;
#X connect 1 0 28 0;
#X connect 1 1 7 0;
#X connect 1 2 8 0;
#X connect 2 0 10 0;
#X connect 3 0 11 0;
#X connect 4 0 5 0;
#X connect 5 0 32 0;
#X connect 5 1 33 0;
#X connect 6 0 37 0;
#X connect 7 0 6 0;
#X connect 8 0 6 1;
#X connect 10 0 15 0;
#X connect 11 0 12 0;
#X connect 12 0 47 0;
#X connect 15 0 23 0;
#X connect 15 1 19 0;
#X connect 16 0 30 0;
#X connect 17 0 16 0;
#X connect 18 0 16 1;
#X connect 19 0 17 0;
#X connect 19 1 18 0;
#X connect 20 0 23 1;
#X connect 23 0 24 0;
#X connect 26 0 1 0;
#X connect 28 0 42 0;
#X connect 29 0 28 1;
#X connect 30 0 20 0;
#X connect 32 0 7 1;
#X connect 32 1 17 1;
#X connect 33 0 8 1;
#X connect 33 1 18 1;
#X connect 34 0 40 0;
#X connect 35 0 40 0;
#X connect 36 0 48 0;
#X connect 37 0 29 0;
#X connect 37 1 38 1;
#X connect 38 0 41 0;
#X connect 39 0 34 0;
#X connect 39 1 38 0;
#X connect 39 2 10 1;
#X connect 39 3 11 1;
#X connect 42 0 45 0;
#X connect 43 0 42 1;
#X connect 44 0 42 1;
#X connect 45 0 39 0;
#X connect 45 1 43 0;
#X connect 47 0 35 0;
#X connect 47 1 44 0;
#X connect 47 2 10 1;
#X connect 47 3 11 1;
#X connect 48 0 26 1;
#X connect 48 1 49 0;
#X connect 49 0 12 0;
#X connect 50 0 12 0;
#X restore 453 215 pd TOUCH_1;
#N canvas 484 148 917 587 TOUCH_2 0;
#X obj 49 29 r \$1-touchDown;
#X obj 49 145 unpack f f f;
#X obj 327 29 r \$1-touchMove;
#X obj 597 29 r \$1-touchUp;
#X obj 350 108 r \$0-getTranslate;
#X obj 350 127 unpack f f;
#X obj 83 183 pack f f;
#X obj 83 164 -;
#X obj 128 164 -;
#X text 294 221 INDENTIFICA TOQUE LOCAL;
#X obj 327 335 route -1;
#X obj 597 335 route -1;
#X msg 597 354 -1;
#X text 681 354 REINICIA SISTEMA LOCAL QUANDO LIBERA TOQUE, f 22;
#X text 465 108 RECEBE POSIÇÃO LOCAL;
#X obj 327 354 t a a;
#X obj 402 410 pack f f;
#X obj 402 391 -;
#X obj 447 391 -;
#X obj 402 372 unpack f f;
#X obj 402 448 change;
#X text 450 449 FILTRA REPETIÇÃO;
#X text 447 29 INTERAÇÕES GLOBAIS;
#X obj 327 467 list append 0;
#X obj 327 526 outlet MOVE;
#X text 340 503 X / Y / 0-1 (DENTRO/FORA);
#X obj 49 66 spigot;
#X text 790 29 TOUCH ON/OFF;
#X obj 49 240 spigot;
#X obj 83 221 ofIsPointInsidePath2d @multitouch;
#X obj 402 429 ofIsPointInsidePath2d @multitouch;
#X text 613 429 INDENTIFICA MOVIMENTO LOCAL SOBRE A ÁREA;
#X obj 350 146 t f f;
#X obj 407 146 t f f;
#X msg 49 487 1;
#X msg 79 487 0;
#X obj 711 29 inlet TOUCH;
#X obj 83 202 t l l;
#X obj 148 487 list;
#X obj 49 317 t b b f f;
#X obj 49 526 outlet TOUCH;
#X obj 148 526 outlet TOUCH_POSITION;
#X obj 49 269 spigot 1;
#X msg 94 250 0;
#X msg 124 250 1;
#X obj 49 288 t f b;
#X text 110 269 GARANTE APENAS 1 TOQUE LOCAL;
#X obj 597 373 t b b f f;
#X obj 711 48 t f f;
#X obj 738 67 sel 0;
#X obj 557 296 r \$0-forceRelease;
#X text 672 296 3 TOQUE FORÇA RELEASE;
#X connect 0 0 26 0;
#X connect 1 0 28 0;
#X connect 1 1 7 0;
#X connect 1 2 8 0;
#X connect 2 0 10 0;
#X connect 3 0 11 0;
#X connect 4 0 5 0;
#X connect 5 0 32 0;
#X connect 5 1 33 0;
#X connect 6 0 37 0;
#X connect 7 0 6 0;
#X connect 8 0 6 1;
#X connect 10 0 15 0;
#X connect 11 0 12 0;
#X connect 12 0 47 0;
#X connect 15 0 23 0;
#X connect 15 1 19 0;
#X connect 16 0 30 0;
#X connect 17 0 16 0;
#X connect 18 0 16 1;
#X connect 19 0 17 0;
#X connect 19 1 18 0;
#X connect 20 0 23 1;
#X connect 23 0 24 0;
#X connect 26 0 1 0;
#X connect 28 0 42 0;
#X connect 29 0 28 1;
#X connect 30 0 20 0;
#X connect 32 0 7 1;
#X connect 32 1 17 1;
#X connect 33 0 8 1;
#X connect 33 1 18 1;
#X connect 34 0 40 0;
#X connect 35 0 40 0;
#X connect 36 0 48 0;
#X connect 37 0 29 0;
#X connect 37 1 38 1;
#X connect 38 0 41 0;
#X connect 39 0 34 0;
#X connect 39 1 38 0;
#X connect 39 2 10 1;
#X connect 39 3 11 1;
#X connect 42 0 45 0;
#X connect 43 0 42 1;
#X connect 44 0 42 1;
#X connect 45 0 39 0;
#X connect 45 1 43 0;
#X connect 47 0 35 0;
#X connect 47 1 44 0;
#X connect 47 2 10 1;
#X connect 47 3 11 1;
#X connect 48 0 26 1;
#X connect 48 1 49 0;
#X connect 49 0 12 0;
#X connect 50 0 12 0;
#X restore 453 272 pd TOUCH_2;
#N canvas 462 80 837 632 INTERACTION_0 0;
#X obj 42 26 inlet TOUCH;
#X obj 373 26 inlet MOVE;
#X obj 173 26 inlet TOUCH_POSITION;
#X obj 173 45 unpack f f;
#X obj 42 49 tgl 15 0 empty empty empty 17 7 0 10 -262144 -1 -1 0 1
;
#X obj 188 93 r \$1-w_main;
#X obj 173 131 /;
#X obj 188 112 t f f;
#X obj 188 160 r \$0-slices;
#X text 204 131 NORMALIZA 0 - 1;
#X obj 173 198 *;
#X obj 173 217 int;
#X obj 373 45 unpack f f;
#X obj 373 300 -;
#X text 404 301 DELTA;
#X obj 388 64 r \$0-getTranslate;
#X obj 388 83 unpack f f;
#X obj 373 102 -;
#X obj 373 131 /;
#X obj 373 198 *;
#X obj 373 217 int;
#X obj 373 491 +;
#X obj 388 472 f;
#X text 445 424 LIMITES DO MOVIMENTO;
#X obj 437 160 r \$0-offset;
#X text 204 198 MULTIPLICA POS SLICES;
#X obj 373 424 clip 0 255;
#X text 516 160 OFFSET ATUAL, f 6;
#X obj 437 348 * -1;
#X text 452 367 LIMITE MÁXIMO DE DESLOCAMENTO PARA ESQUERDA, f 17
;
#X obj 422 367 f;
#X obj 583 160 r \$0-range;
#X obj 610 386 +;
#X obj 610 405 -;
#X obj 610 424 abs;
#X text 640 404 LIMITE MÁXIMO DE DESLOCAMENTO PARA DIREITA, f 17
;
#X obj 207 577 outlet OFFSET;
#X obj 388 281 t f b b b;
#X obj 610 367 f;
#N canvas 316 608 273 229 2_CLICK 0;
#X obj 93 80 t b b;
#X obj 93 99 timer;
#X obj 93 137 sel 1;
#X text 46 17 ** IDENTIFICA CLIQUE DUPLO;
#X obj 93 51 inlet BANG;
#X obj 93 166 outlet BANG;
#X obj 93 118 < 250;
#X connect 0 0 1 0;
#X connect 0 1 1 1;
#X connect 1 0 6 0;
#X connect 2 0 5 0;
#X connect 4 0 0 0;
#X connect 6 0 2 0;
#X restore 173 274 pd 2_CLICK;
#X obj 173 293 f;
#X text 74 274 CLIQUE DUPLO - FORÇA OFFSET, f 14;
#X obj 373 510 t f f;
#X text 405 492 APLICA DELTA NO ÚLTIMO VALOR INICIAL;
#X text 635 294 CLIQUE E MOVIMENTO - DESLOCA OFFSET, f 20;
#X obj 173 331 t b b f f;
#X obj 173 312 clip 0 255;
#X obj 610 348 t b f;
#X obj 583 179 t f f;
#X obj 245 274 t b f;
#X obj 230 293 -;
#X text 245 312 LIMITA OFFSET;
#X obj 173 236 change -1;
#X obj 373 236 change -1;
#X obj 42 69 sel 0;
#X msg 42 88 set -1;
#X obj 42 107 t a a;
#X text 40 131 RESETA [change] NO RELEASE, f 15;
#X obj 373 443 t f f;
#X obj 649 577 outlet DELTA_SLICES;
#X obj 583 26 inlet TOUCH_2;
#X obj 252 539 == 0;
#X obj 207 558 spigot 1;
#X obj 482 577 outlet POSITION_SLICES;
#X text 480 541 PASSA POSIÇÃO ATUAL DO TOQUE ADIANTE, f 19;
#X obj 173 255 t b f f f;
#X text 647 554 PASSA DELTA DO MOVIMENTO;
#X obj 323 577 outlet TOUCH_SLICES;
#X text 321 554 PASSA POSIÇÃO DO TOQUE;
#X obj 188 179 t f f f f f;
#X obj 437 329 t f f f;
#X obj 373 255 t f f;
#X connect 0 0 4 0;
#X connect 0 0 54 0;
#X connect 1 0 12 0;
#X connect 2 0 3 0;
#X connect 3 0 6 0;
#X connect 5 0 7 0;
#X connect 6 0 10 0;
#X connect 7 0 6 1;
#X connect 7 1 18 1;
#X connect 8 0 69 0;
#X connect 10 0 11 0;
#X connect 11 0 52 0;
#X connect 12 0 17 0;
#X connect 13 0 26 0;
#X connect 15 0 16 0;
#X connect 16 0 17 1;
#X connect 17 0 18 0;
#X connect 18 0 19 0;
#X connect 19 0 20 0;
#X connect 20 0 53 0;
#X connect 21 0 42 0;
#X connect 22 0 21 1;
#X connect 24 0 70 0;
#X connect 26 0 58 0;
#X connect 28 0 30 1;
#X connect 30 0 26 1;
#X connect 31 0 48 0;
#X connect 32 0 33 0;
#X connect 33 0 34 0;
#X connect 34 0 26 2;
#X connect 37 0 13 1;
#X connect 37 1 22 0;
#X connect 37 2 30 0;
#X connect 37 3 38 0;
#X connect 38 0 32 0;
#X connect 39 0 40 0;
#X connect 40 0 46 0;
#X connect 42 0 62 0;
#X connect 42 1 22 1;
#X connect 45 0 30 0;
#X connect 45 1 38 0;
#X connect 45 2 62 0;
#X connect 45 3 22 0;
#X connect 46 0 45 0;
#X connect 47 0 38 0;
#X connect 47 1 32 1;
#X connect 48 0 49 0;
#X connect 48 1 47 0;
#X connect 49 0 50 0;
#X connect 49 1 50 1;
#X connect 50 0 46 2;
#X connect 52 0 65 0;
#X connect 53 0 71 0;
#X connect 54 0 55 0;
#X connect 55 0 56 0;
#X connect 56 0 52 0;
#X connect 56 1 53 0;
#X connect 58 0 21 0;
#X connect 58 1 59 0;
#X connect 60 0 61 0;
#X connect 61 0 62 1;
#X connect 62 0 36 0;
#X connect 65 0 39 0;
#X connect 65 1 40 1;
#X connect 65 2 37 0;
#X connect 65 3 67 0;
#X connect 69 0 10 1;
#X connect 69 1 19 1;
#X connect 69 2 50 0;
#X connect 69 3 33 1;
#X connect 70 0 28 0;
#X connect 70 1 38 1;
#X connect 70 2 22 1;
#X connect 71 0 13 0;
#X connect 71 1 63 0;
#X restore 480 196 pd INTERACTION_0;
#N canvas 205 177 1151 568 INTERACTION_1 0;
#X obj 36 26 inlet TOUCH;
#X obj 347 26 inlet MOVE;
#X obj 147 26 inlet TOUCH_POSITION;
#X obj 147 45 unpack f f;
#X obj 91 45 tgl 15 0 empty empty empty 17 7 0 10 -262144 -1 -1 0 1
;
#X obj 162 83 r \$1-w_main;
#X obj 147 121 /;
#X obj 162 102 t f f;
#X obj 162 150 r \$0-slices;
#X text 178 121 NORMALIZA 0 - 1;
#X obj 147 188 *;
#X obj 147 207 int;
#X obj 347 45 unpack f f;
#X obj 347 274 -;
#X obj 362 64 r \$0-getTranslate;
#X obj 362 83 unpack f f;
#X obj 347 102 -;
#X obj 347 121 /;
#X obj 347 188 *;
#X obj 347 207 int;
#X obj 617 404 r \$0-offset;
#X text 178 188 MULTIPLICA POS SLICES;
#X obj 377 443 r \$0-range;
#X obj 587 510 outlet OFFSET;
#X obj 162 169 t f f f f;
#X obj 36 75 sel 0;
#X msg 36 94 set -1;
#X obj 36 113 t a a;
#X text 34 137 RESETA [change] NO RELEASE, f 15;
#X obj 147 226 change -1;
#X obj 347 226 change -1;
#X obj 347 510 outlet RANGE;
#X obj 593 274 -;
#X obj 871 26 inlet DELTA_SLICES_1;
#X obj 602 423 f;
#X text 378 275 DELTA 2 TOQUE;
#X obj 362 462 f;
#X obj 347 481 +;
#X obj 587 442 +;
#X obj 347 367 spigot;
#X obj 417 367 spigot;
#X obj 450 348 == 0;
#X obj 423 329 t f f;
#X obj 347 321 t f f;
#X obj 517 367 spigot;
#X obj 587 367 spigot;
#X obj 550 348 == 0;
#X obj 593 331 t f f;
#X obj 517 321 t f f;
#X obj 593 312 t f f;
#X obj 593 293 > 0;
#X text 623 273 IDENTIFICA SE 2 TOQUE É MAIOR DO QUE 1, f 21;
#X obj 147 258 t f f b b f;
#X obj 808 312 f;
#X obj 808 274 t b f;
#X obj 808 293 del 1000;
#X msg 871 261 stop;
#X obj 871 91 t b f;
#X obj 808 350 min;
#X obj 873 350 max;
#X obj 861 331 t f f;
#X obj 808 331 t f f;
#X obj 808 369 t f f;
#X obj 858 385 -;
#X obj 858 404 abs;
#X obj 347 245 t f b;
#X text 636 334 DISTRIBUI DELTA DA ESQUERDA NA ÁREA PARA OFFSET E
DA DIREITA PARA O RANGE, f 20;
#X text 904 308 DETERMINA RANGE E OFFSET INSTANTANEAMENTE QUANDO SEGURA
2 TOQUES DURANTE 1 SEGUNDO SEM MOVIMENTAR - SE MOVIMENTA ANTES CONTROLA
OFFSET E RANGE COM OS TOQUES INDEPENDENTES, f 31;
#X obj 683 26 inlet POSITION_SLICES_1;
#X obj 508 26 inlet TOUCH_SLICES_1;
#X obj 36 56 t f f;
#X obj 871 72 spigot;
#X obj 508 45 t f f;
#X obj 808 407 t f f;
#X obj 858 442 t f f;
#X obj 858 423 + 1;
#X obj 891 232 r \$0-forceRelease;
#X text 1006 232 3 TOQUE FORÇA RELEASE, f 13;
#X connect 0 0 4 0;
#X connect 0 0 70 0;
#X connect 1 0 12 0;
#X connect 2 0 3 0;
#X connect 3 0 6 0;
#X connect 5 0 7 0;
#X connect 6 0 10 0;
#X connect 7 0 6 1;
#X connect 7 1 17 1;
#X connect 8 0 24 0;
#X connect 10 0 11 0;
#X connect 11 0 29 0;
#X connect 12 0 16 0;
#X connect 13 0 43 0;
#X connect 14 0 15 0;
#X connect 15 0 16 1;
#X connect 16 0 17 0;
#X connect 17 0 18 0;
#X connect 18 0 19 0;
#X connect 19 0 30 0;
#X connect 20 0 34 1;
#X connect 22 0 36 1;
#X connect 24 0 10 1;
#X connect 24 1 18 1;
#X connect 25 0 26 0;
#X connect 26 0 27 0;
#X connect 27 0 29 0;
#X connect 27 1 30 0;
#X connect 29 0 52 0;
#X connect 30 0 65 0;
#X connect 32 0 50 0;
#X connect 33 0 71 0;
#X connect 34 0 38 1;
#X connect 36 0 37 1;
#X connect 37 0 31 0;
#X connect 38 0 23 0;
#X connect 39 0 37 0;
#X connect 40 0 38 0;
#X connect 41 0 40 1;
#X connect 42 0 39 1;
#X connect 42 1 41 0;
#X connect 43 0 39 0;
#X connect 43 1 40 0;
#X connect 44 0 37 0;
#X connect 45 0 38 0;
#X connect 46 0 44 1;
#X connect 47 0 46 0;
#X connect 47 1 45 1;
#X connect 48 0 44 0;
#X connect 48 1 45 0;
#X connect 49 0 47 0;
#X connect 49 1 42 0;
#X connect 50 0 49 0;
#X connect 52 0 13 1;
#X connect 52 1 32 0;
#X connect 52 2 36 0;
#X connect 52 3 34 0;
#X connect 52 4 54 0;
#X connect 53 0 61 0;
#X connect 54 0 55 0;
#X connect 54 1 53 1;
#X connect 55 0 53 0;
#X connect 56 0 55 0;
#X connect 57 0 56 0;
#X connect 57 1 48 0;
#X connect 58 0 62 0;
#X connect 59 0 63 1;
#X connect 60 0 58 1;
#X connect 60 1 59 1;
#X connect 61 0 58 0;
#X connect 61 1 59 0;
#X connect 62 0 73 0;
#X connect 62 1 63 0;
#X connect 63 0 64 0;
#X connect 64 0 75 0;
#X connect 65 0 13 0;
#X connect 65 1 56 0;
#X connect 68 0 60 0;
#X connect 69 0 72 0;
#X connect 70 0 25 0;
#X connect 70 1 71 1;
#X connect 71 0 57 0;
#X connect 72 0 32 1;
#X connect 72 1 60 0;
#X connect 73 0 34 0;
#X connect 73 1 23 0;
#X connect 74 0 36 0;
#X connect 74 1 31 0;
#X connect 75 0 74 0;
#X connect 76 0 56 0;
#X restore 472 253 pd INTERACTION_1;
#N canvas 624 127 383 224 INTERACTION_2 0;
#X obj 46 36 inlet TOUCH;
#X obj 156 181 outlet OFFSET;
#X obj 46 181 outlet RANGE;
#X obj 61 133 r \$0-slices;
#X obj 46 65 sel 1;
#X obj 46 152 f;
#X msg 156 152 0;
#X text 135 31 NO TERCEIRO TOQUE IMEDIATAMENTE SETA RANGE PARA NÚMERO
DE SLICES E OFFSET PARA 0, f 32;
#X obj 46 84 t b b b;
#X obj 208 100 s \$0-forceRelease;
#X text 206 124 FORÇA RELEASE EM TODOS TOQUES LOCAIS, f 19;
#X connect 0 0 4 0;
#X connect 3 0 5 1;
#X connect 4 0 8 0;
#X connect 5 0 2 0;
#X connect 6 0 1 0;
#X connect 8 0 5 0;
#X connect 8 1 6 0;
#X connect 8 2 9 0;
#X restore 453 291 pd INTERACTION_2;
#X connect 0 0 14 0;
#X connect 1 0 29 0;
#X connect 4 0 44 0;
#X connect 5 0 46 0;
#X connect 6 0 13 0;
#X connect 8 0 5 0;
#X connect 10 0 5 0;
#X connect 11 0 18 0;
#X connect 11 1 0 1;
#X connect 12 0 18 0;
#X connect 12 1 0 2;
#X connect 14 0 37 0;
#X connect 14 1 15 0;
#X connect 15 0 16 0;
#X connect 16 0 6 0;
#X connect 16 1 17 0;
#X connect 17 0 15 1;
#X connect 18 0 15 1;
#X connect 20 0 21 0;
#X connect 21 0 2 0;
#X connect 23 0 59 0;
#X connect 24 0 41 0;
#X connect 25 0 24 0;
#X connect 25 1 42 1;
#X connect 28 0 42 0;
#X connect 29 0 30 0;
#X connect 30 0 0 0;
#X connect 32 0 7 0;
#X connect 33 0 10 0;
#X connect 34 0 33 1;
#X connect 35 0 28 0;
#X connect 36 0 35 1;
#X connect 37 0 20 0;
#X connect 37 1 35 0;
#X connect 37 2 33 0;
#X connect 40 0 42 0;
#X connect 41 0 45 0;
#X connect 43 0 24 1;
#X connect 43 1 42 2;
#X connect 44 0 11 0;
#X connect 44 1 12 0;
#X connect 44 2 25 0;
#X connect 44 3 43 0;
#X connect 48 0 61 0;
#X connect 49 0 62 0;
#X connect 49 1 64 0;
#X connect 50 0 51 0;
#X connect 52 0 54 0;
#X connect 53 0 55 0;
#X connect 58 0 63 0;
#X connect 58 1 65 0;
#X connect 58 2 64 3;
#X connect 59 0 40 0;
#X connect 59 1 8 0;
#X connect 61 0 49 0;
#X connect 61 1 64 1;
#X connect 61 2 64 2;
#X connect 62 0 58 0;
#X connect 62 1 65 1;
#X connect 62 2 65 2;
#X connect 63 0 66 0;
#X connect 64 0 56 0;
#X connect 64 1 65 3;
#X connect 64 2 65 4;
#X connect 64 3 65 5;
#X connect 65 0 57 0;
#X connect 65 1 56 0;
#X connect 66 0 57 0;
#X connect 66 1 56 0;
