#N canvas 584 347 830 485 10;
#X obj 57 156 ofTranslate;
#X obj 57 50 inlet RENDER_CHAIN;
#X obj 57 373 ofPopMatrix;
#X obj 57 392 ofPopStyle;
#X obj 534 194 -;
#X obj 534 137 t f f;
#X obj 561 175 t f f;
#X obj 534 213 / 2;
#X obj 57 79 ofPushStyle;
#X obj 57 98 ofPushMatrix;
#X obj 57 421 outlet;
#X obj 304 118 r \$1-width;
#X text 603 165 CÁLCULOS DOS VALORES Y LOCAIS;
#X text 376 118 LARGURA TOTAL;
#N canvas 732 135 706 469 CONTROLS 0;
#X obj 307 246 loadbang;
#X text 117 380 DEFINE VARIÁVEIS DO SISTEMA OFELIA, f 19;
#X obj 50 350 ofDefine \; @posX \; @posY \; @sizeX \; @sizeY \; @value
\;;
#X obj 50 25 inlet;
#X text 434 133 MEMÓRIA LOCAL;
#X text 285 169 PROPORÇÃO 0-1 DA LARGURA;
#X text 285 188 PROPORÇÃO 0-1 DA ALTURA;
#X obj 50 93 bit_param2 v\$0_posX \$0-memo 0 0;
#X obj 50 112 bit_param2 v\$0_posY \$0-memo 1 0;
#X obj 50 131 bit_param2 v\$0_sizeX \$0-memo 2 1;
#X obj 50 150 bit_param2 v\$0_sizeY \$0-memo 3 1;
#X obj 50 169 bit_param2 v\$0_handlerX \$0-memo 4 0.1;
#X obj 50 188 bit_param2 v\$0_handlerY \$0-memo 5 0.8;
#X obj 50 207 bit_param2 v\$0_value \$0-memo 6 \$2;
#X obj 50 226 bit_param2 v\$0_drawPath \$0-memo 7 1;
#X obj 50 264 bit_param2 v\$0_touch \$0-memo 9 1;
#X obj 50 283 bit_param2 v\$0_bgColor \$0-memo 10;
#X obj 50 302 bit_param2 v\$0_bgColor2 \$0-memo 11;
#X obj 50 321 bit_param2 v\$0_actColor \$0-memo 12;
#X obj 307 133 bit_memo \$0-memo 13;
#X obj 50 54 route posX posY sizeX sizeY handlerX handlerY value drawPath
drawPNG touch bgColor bgColor2 actColor, f 100;
#X msg 307 265 118 126 133 255;
#X obj 50 245 bit_param2 v\$0_drawPNG \$0-memo 8 0;
#X msg 307 303 110 107 175 255;
#X msg 307 284 62 75 86 255;
#X connect 0 0 24 0;
#X connect 0 0 23 0;
#X connect 0 0 21 0;
#X connect 3 0 20 0;
#X connect 20 0 7 0;
#X connect 20 1 8 0;
#X connect 20 2 9 0;
#X connect 20 3 10 0;
#X connect 20 4 11 0;
#X connect 20 5 12 0;
#X connect 20 6 13 0;
#X connect 20 7 14 0;
#X connect 20 8 22 0;
#X connect 20 9 15 0;
#X connect 20 10 16 0;
#X connect 20 11 17 0;
#X connect 20 12 18 0;
#X connect 21 0 16 0;
#X connect 23 0 18 0;
#X connect 24 0 17 0;
#X restore 304 79 pd CONTROLS;
#X obj 304 50 inlet EXTERNAL_CONTROL;
#X text 613 118 ALTURA DO CABEÇALHO;
#X text 545 314 FUNDO - INTERAÇÃO;
#X text 274 314 HANDLER;
#X obj 57 185 t b b b;
#X obj 304 137 t f f;
#X text 379 156 PORCENTAGEM DA LARGURA;
#X obj 78 137 ofRcv @posX;
#X obj 159 137 ofRcv @posY;
#X text 347 204 PORCENTAGEM DA LARGURA;
#X obj 304 223 ofSnd @posX-;
#X obj 331 175 ofSnd @sizeX-;
#X obj 588 194 ofSnd @sizeY-;
#X obj 534 232 ofSnd @posY-;
#X obj 534 118 r \$1-h_head;
#X obj 358 402 ofRcv @value;
#X obj 358 421 outlet VALUE;
#X obj 347 314 gui_button \$1 0 0 1 1 0 1 0 0 1;
#N canvas 652 279 577 497 INTERACTION 0;
#X obj 162 73 unpack f f f;
#X msg 222 92 0;
#X msg 252 92 1;
#X obj 189 111 spigot;
#X obj 162 92 t f f;
#X obj 56 73 sel 1;
#X text 237 111 CAPTURA PRIMEIRO VALOR X DO MOVIMENTO;
#X obj 189 130 t b f b;
#X obj 56 34 inlet TOUCH;
#X obj 162 34 inlet MOVE;
#X obj 162 149 -;
#X obj 162 289 +;
#X obj 162 346 t f f;
#X obj 189 271 f;
#X obj 162 327 clip 0 100;
#X obj 355 251 ofRcv @sizeX;
#X text 171 192 ** VER SE SERÁ PRECISO IMPLEMENTAR MÓDULO PRA AJUSTAR
MOVIMENTO ÀS DIMENSÕES REAIS DA TELA NOS DISPOSITIVOS - O ESQUEMA
DO MÓDULO É O MESMO USADO NO [gui_number], f 53;
#X obj 355 289 -;
#X obj 370 34 inlet HANDLER_SIZE_X;
#X obj 370 270 t b f;
#X text 234 327 LIMITES DO MOVIMENTO;
#X text 118 150 DELTA;
#X text 58 290 APLICA DELTA NO ÚLTIMO VALOR, f 15;
#X obj 162 365 change -1;
#X obj 162 168 int;
#X obj 162 431 outlet HANDLER_POS_X;
#X obj 162 384 t f f;
#X obj 359 402 /;
#X text 389 403 GERA VALOR 0 - 1;
#X obj 359 431 ofSnd @value-;
#X obj 335 308 t f f f;
#X obj 235 289 *;
#X obj 235 251 ofRcv @value;
#X obj 235 270 clip 0 1;
#X connect 0 0 4 0;
#X connect 1 0 3 1;
#X connect 2 0 3 1;
#X connect 3 0 7 0;
#X connect 4 0 10 0;
#X connect 4 1 3 0;
#X connect 5 0 2 0;
#X connect 7 0 13 0;
#X connect 7 1 10 1;
#X connect 7 2 1 0;
#X connect 8 0 5 0;
#X connect 9 0 0 0;
#X connect 10 0 24 0;
#X connect 11 0 14 0;
#X connect 12 0 23 0;
#X connect 12 1 13 1;
#X connect 13 0 11 1;
#X connect 14 0 12 0;
#X connect 15 0 17 0;
#X connect 17 0 30 0;
#X connect 18 0 19 0;
#X connect 19 0 17 0;
#X connect 19 1 17 1;
#X connect 23 0 26 0;
#X connect 24 0 11 0;
#X connect 26 0 25 0;
#X connect 26 1 27 0;
#X connect 27 0 29 0;
#X connect 30 0 31 1;
#X connect 30 1 14 2;
#X connect 30 2 27 1;
#X connect 31 0 14 0;
#X connect 32 0 33 0;
#X connect 33 0 31 0;
#X restore 392 333 pd INTERACTION;
#N canvas 64 156 791 292 CONTROL 0;
#X msg 47 191 posX \$1;
#X msg 369 191 posY \$1;
#X msg 173 191 sizeX \$1;
#X obj 47 238 outlet CONTROLS;
#X obj 188 49 ofRcv @handlerX;
#X obj 173 87 *;
#X obj 188 68 t b f;
#X obj 173 30 ofRcv @sizeX;
#X obj 369 48 ofRcv @sizeY;
#X obj 476 30 ofRcv @handlerY;
#X msg 463 191 sizeY \$1;
#X obj 369 143 -;
#X obj 369 86 t f f;
#X obj 396 124 t f f;
#X obj 396 105 * 0.9;
#X obj 369 162 / 2;
#X obj 476 49 t b f;
#X obj 369 67 f;
#X obj 173 106 t f f;
#X obj 47 30 inlet POS_X;
#X obj 200 238 outlet SIZE_X_HANDLER;
#X obj 632 68 ofRcv @drawPath;
#X msg 632 87 drawPath \$1;
#X obj 632 220 t a;
#X obj 632 106 ofRcv @drawPNG;
#X msg 632 125 drawPNG \$1;
#X obj 632 144 ofRcv @bgColor2;
#X obj 632 182 ofRcv @actColor;
#X msg 632 201 actColor \$1 \$2 \$3 \$4;
#X msg 632 163 bgColor \$1 \$2 \$3 \$4;
#X connect 0 0 3 0;
#X connect 1 0 3 0;
#X connect 2 0 3 0;
#X connect 4 0 6 0;
#X connect 5 0 18 0;
#X connect 6 0 5 0;
#X connect 6 1 5 1;
#X connect 7 0 5 0;
#X connect 8 0 17 0;
#X connect 9 0 16 0;
#X connect 10 0 3 0;
#X connect 11 0 15 0;
#X connect 12 0 11 0;
#X connect 12 1 14 0;
#X connect 13 0 11 1;
#X connect 13 1 10 0;
#X connect 14 0 13 0;
#X connect 15 0 1 0;
#X connect 16 0 17 0;
#X connect 16 1 14 1;
#X connect 17 0 12 0;
#X connect 18 0 2 0;
#X connect 18 1 20 0;
#X connect 19 0 0 0;
#X connect 21 0 22 0;
#X connect 22 0 23 0;
#X connect 23 0 3 0;
#X connect 24 0 25 0;
#X connect 25 0 23 0;
#X connect 26 0 29 0;
#X connect 27 0 28 0;
#X connect 28 0 23 0;
#X connect 29 0 23 0;
#X restore 202 295 pd CONTROL;
#N canvas 259 246 456 300 CONTROL 0;
#X msg 59 70 sizeX \$1;
#X msg 159 70 sizeY \$1;
#X obj 59 239 outlet CONTROLS;
#X obj 59 31 ofRcv @sizeX;
#X obj 159 31 ofRcv @sizeY;
#X obj 282 69 ofRcv @drawPath;
#X msg 282 88 drawPath \$1;
#X obj 282 221 t a;
#X obj 282 107 ofRcv @drawPNG;
#X msg 282 126 drawPNG \$1;
#X obj 282 145 ofRcv @touch;
#X msg 282 164 touch \$1;
#X obj 282 183 ofRcv @bgColor;
#X msg 282 202 bgColor \$1 \$2 \$3 \$4;
#X connect 0 0 2 0;
#X connect 1 0 2 0;
#X connect 3 0 0 0;
#X connect 4 0 1 0;
#X connect 5 0 6 0;
#X connect 6 0 7 0;
#X connect 7 0 2 0;
#X connect 8 0 9 0;
#X connect 9 0 7 0;
#X connect 10 0 11 0;
#X connect 11 0 7 0;
#X connect 12 0 13 0;
#X connect 13 0 7 0;
#X restore 473 295 pd CONTROL;
#X obj 76 314 gui_button \$1 0 0 1 1 0 1 1 0 0;
#X obj 331 156 * 0.25;
#X obj 561 156 * 0.6;
#X obj 304 204 * 0.7;
#X connect 0 0 19 0;
#X connect 1 0 8 0;
#X connect 2 0 3 0;
#X connect 3 0 10 0;
#X connect 4 0 7 0;
#X connect 5 0 4 0;
#X connect 5 1 38 0;
#X connect 6 0 4 1;
#X connect 6 1 27 0;
#X connect 7 0 28 0;
#X connect 8 0 9 0;
#X connect 9 0 0 0;
#X connect 11 0 20 0;
#X connect 15 0 14 0;
#X connect 19 0 2 0;
#X connect 19 1 36 0;
#X connect 19 2 32 0;
#X connect 20 0 39 0;
#X connect 20 1 37 0;
#X connect 22 0 0 1;
#X connect 23 0 0 2;
#X connect 29 0 5 0;
#X connect 30 0 31 0;
#X connect 32 1 33 0;
#X connect 32 1 36 2;
#X connect 32 2 33 1;
#X connect 33 0 34 0;
#X connect 34 0 36 3;
#X connect 34 1 33 2;
#X connect 35 0 32 3;
#X connect 37 0 26 0;
#X connect 38 0 6 0;
#X connect 39 0 25 0;
