#N canvas 172 80 1129 682 10;
#X obj 273 470 pack f f;
#X obj 383 584 pack;
#X obj 252 584 pack;
#X obj 273 489 unpack f f;
#X obj 404 489 unpack f f;
#X obj 404 470 pack f f;
#X obj 252 622 ofLoadPath2d \; @path \;;
#X msg 507 603 clear;
#X msg 383 603 add vertex \$1 \$2;
#X msg 252 603 add vertex \$1 \$2;
#X msg 175 603 add close;
#X obj 318 451 int;
#X obj 449 451 int;
#X obj 252 243 until;
#X obj 252 262 f;
#X obj 275 262 + 1;
#X obj 273 432 *;
#X obj 273 451 int;
#X obj 252 413 t f f;
#X obj 404 432 *;
#X obj 404 451 int;
#X obj 383 413 t f f;
#X msg 303 244 0;
#X obj 383 375 abs;
#X obj 383 394 - 1;
#X obj 303 338 t f f f f;
#X obj 337 357 - 1;
#X text 370 294 GERA UM PIXEL A MAIS NA DIREITA DUPLICANDO ÚLTIMOS
VALORES DO Y EM CIMA E EM BAIXO, f 31;
#X obj 273 546 * 100;
#X obj 404 546 * 100;
#X obj 50 31 inlet;
#X obj 252 224 f 200;
#X obj 383 356 - 200;
#X obj 225 126 / 100;
#X obj 252 281 moses 100;
#X obj 303 300 sel 100;
#X obj 303 319 f 100;
#X obj 425 127 * 2;
#X obj 425 146 t f f;
#X obj 225 88 array size;
#X obj 404 508 array min;
#X obj 273 508 array max;
#X obj 282 50 r \$0-array;
#X obj 50 433 outlet;
#X obj 50 375 ofPopMatrix;
#X obj 50 394 ofPopStyle;
#X obj 362 89 r \$0-sizeX;
#X obj 484 89 r \$0-sizeY;
#X obj 484 127 / 2;
#X obj 282 69 t s s s;
#X obj 225 31 r \$0-refresh;
#X obj 362 108 t f f f f f;
#X obj 404 565 -;
#X obj 273 565 -;
#X obj 551 490 t b f;
#X obj 536 509 * 1;
#X obj 536 528 t f f;
#X obj 484 108 t f f;
#X obj 551 471 r \$0-scale;
#X obj 484 146 t f f f;
#X obj 273 527 * -1;
#X obj 404 527 * -1;
#X text 440 527 INVERTE VALOR;
#X obj 225 145 t b b b f f f f b b;
#X obj 50 163 ofTranslate 0 0 0;
#X obj 83 106 r \$0-posX;
#X obj 116 125 r \$0-posY;
#X obj 116 144 +;
#X obj 178 126 t b f;
#X obj 50 336 ofDrawPath2d @path;
#X obj 50 297 ofSetLineWidth 1;
#X obj 50 278 ofSetFillMode 1;
#X obj 80 192 r \$0-color;
#X obj 80 211 list prepend set;
#X obj 80 230 list trim;
#X obj 137 259 r \$0-fill;
#X obj 50 259 ofSetColor;
#X obj 1020 50 symbol;
#X obj 652 89 bit_param2 \$0-posX \$0-memo 0 \$2;
#X obj 652 108 bit_param2 \$0-posY \$0-memo 1 \$3;
#X obj 652 127 bit_param2 \$0-sizeX \$0-memo 2 \$4;
#X obj 652 146 bit_param2 \$0-sizeY \$0-memo 3 \$5;
#X obj 652 165 bit_param2 \$0-color \$0-memo 4;
#X obj 869 127 loadbang;
#X obj 652 184 bit_param2 \$0-fill \$0-memo 5 1;
#X obj 652 31 inlet posX;
#X obj 722 31 inlet posY;
#X obj 792 31 inlet sizeX;
#X obj 868 31 inlet sizeY;
#X obj 1020 31 inlet array;
#X obj 652 262 bang;
#X obj 652 281 s \$0-refresh;
#X obj 652 203 bit_param2 \$0-scale \$0-memo 6 1;
#X obj 869 183 bit_memo \$0-memo 8;
#X obj 944 31 inlet scale;
#X msg 869 146 213 220 230 220;
#X obj 652 222 bit_param2 \$0-array \$0-memo 7 \$0-dummy;
#X obj 225 107 moses 100;
#X obj 652 338 r \$1-h_tracks;
#X obj 652 414 -;
#X obj 652 357 t f f;
#X obj 679 395 t f f;
#X obj 679 376 * 0.9;
#X obj 652 433 / 2;
#X text 743 338 RECEBE ALTURA DAS TRACKS;
#X text 649 315 CÁLCULOS DOS VALORES LOCAIS;
#X obj 706 414 s \$0-sizeY-;
#X obj 652 452 s \$0-posY-;
#X obj 50 79 ofPushMatrix;
#X obj 50 60 ofPushStyle;
#X obj 929 222 table \$0-dummy 1;
#X obj 652 491 r \$1-width;
#X obj 652 510 * 0.125;
#X obj 652 529 s \$0-posX-;
#X obj 882 491 r \$1-w_main;
#X text 724 491 RECEBE LARGURA TOTAL;
#X text 961 491 RECEBE LARGURA DA ÁREA PRINCIPAL, f 17;
#X obj 882 510 s \$0-sizeX-;
#X text 737 281 ATUALIZA QUANDO ALTERA PARÂMETROS;
#X obj 225 50 t b;
#X connect 0 0 3 0;
#X connect 1 0 8 0;
#X connect 2 0 9 0;
#X connect 3 0 41 0;
#X connect 3 1 41 1;
#X connect 4 0 40 0;
#X connect 4 1 40 1;
#X connect 5 0 4 0;
#X connect 7 0 6 0;
#X connect 8 0 6 0;
#X connect 9 0 6 0;
#X connect 10 0 6 0;
#X connect 11 0 0 1;
#X connect 12 0 5 1;
#X connect 13 0 14 0;
#X connect 14 0 15 0;
#X connect 14 0 34 0;
#X connect 15 0 14 1;
#X connect 16 0 17 0;
#X connect 17 0 0 0;
#X connect 18 0 2 0;
#X connect 18 1 16 0;
#X connect 19 0 20 0;
#X connect 20 0 5 0;
#X connect 21 0 1 0;
#X connect 21 1 19 0;
#X connect 22 0 14 1;
#X connect 23 0 24 0;
#X connect 24 0 21 0;
#X connect 25 0 32 0;
#X connect 25 1 1 0;
#X connect 25 2 26 0;
#X connect 25 3 2 0;
#X connect 26 0 19 0;
#X connect 28 0 53 0;
#X connect 29 0 52 0;
#X connect 30 0 109 0;
#X connect 31 0 13 0;
#X connect 32 0 23 0;
#X connect 33 0 63 0;
#X connect 34 0 18 0;
#X connect 34 1 35 0;
#X connect 35 0 36 0;
#X connect 35 1 32 0;
#X connect 36 0 25 0;
#X connect 37 0 38 0;
#X connect 38 0 31 1;
#X connect 38 1 32 1;
#X connect 39 0 97 0;
#X connect 40 0 61 0;
#X connect 41 0 60 0;
#X connect 42 0 49 0;
#X connect 44 0 45 0;
#X connect 45 0 43 0;
#X connect 46 0 51 0;
#X connect 47 0 57 0;
#X connect 48 0 59 0;
#X connect 49 0 39 1;
#X connect 49 1 41 2;
#X connect 49 2 40 2;
#X connect 50 0 119 0;
#X connect 51 0 33 1;
#X connect 51 1 34 1;
#X connect 51 2 35 1;
#X connect 51 3 36 1;
#X connect 51 4 37 0;
#X connect 52 0 1 1;
#X connect 53 0 2 1;
#X connect 54 0 55 0;
#X connect 54 1 55 1;
#X connect 55 0 56 0;
#X connect 56 0 28 1;
#X connect 56 1 29 1;
#X connect 57 0 48 0;
#X connect 57 1 68 0;
#X connect 58 0 54 0;
#X connect 59 0 53 1;
#X connect 59 1 52 1;
#X connect 59 2 55 0;
#X connect 60 0 28 0;
#X connect 61 0 29 0;
#X connect 63 1 10 0;
#X connect 63 2 31 0;
#X connect 63 3 11 0;
#X connect 63 4 12 0;
#X connect 63 5 16 1;
#X connect 63 6 19 1;
#X connect 63 7 22 0;
#X connect 63 8 7 0;
#X connect 64 0 76 0;
#X connect 65 0 64 1;
#X connect 66 0 67 0;
#X connect 67 0 64 2;
#X connect 68 0 67 0;
#X connect 68 1 67 1;
#X connect 69 0 44 0;
#X connect 70 0 69 0;
#X connect 71 0 70 0;
#X connect 72 0 73 0;
#X connect 73 0 74 0;
#X connect 74 0 76 0;
#X connect 75 0 71 1;
#X connect 76 0 71 0;
#X connect 77 0 96 0;
#X connect 78 0 90 0;
#X connect 79 0 90 0;
#X connect 80 0 90 0;
#X connect 81 0 90 0;
#X connect 83 0 95 0;
#X connect 85 0 78 0;
#X connect 86 0 79 0;
#X connect 87 0 80 0;
#X connect 88 0 81 0;
#X connect 89 0 77 0;
#X connect 90 0 91 0;
#X connect 92 0 90 0;
#X connect 94 0 92 0;
#X connect 95 0 82 0;
#X connect 96 0 90 0;
#X connect 97 1 33 0;
#X connect 98 0 100 0;
#X connect 99 0 103 0;
#X connect 100 0 99 0;
#X connect 100 1 102 0;
#X connect 101 0 99 1;
#X connect 101 1 106 0;
#X connect 102 0 101 0;
#X connect 103 0 107 0;
#X connect 108 0 64 0;
#X connect 109 0 108 0;
#X connect 111 0 112 0;
#X connect 112 0 113 0;
#X connect 114 0 117 0;
#X connect 119 0 39 0;
