#N canvas 337 129 732 651 10;
#X obj 51 202 ofTranslate;
#X obj 51 50 inlet RENDER_CHAIN;
#X obj 51 593 outlet RENDER_CHAIN;
#X text 232 142 ALTURA;
#X obj 141 84 r \$0-refresh;
#X obj 571 593 outlet VALUE;
#X obj 354 477 ofSetColor 213 220 230 255;
#X obj 78 288 ofGetTranslate;
#N canvas 272 190 658 455 CONTROLS 0;
#X obj 307 227 loadbang;
#X obj 50 93 bit_param2 v\$0_posX \$0-memo 0 \$2;
#X obj 50 112 bit_param2 v\$0_posY \$0-memo 1 \$3;
#X obj 50 371 s \$0-refresh;
#X obj 50 352 bang;
#X text 304 372 DEFINE VARIÁVEIS DO SISTEMA OFELIA, f 19;
#X text 47 395 ATUALIZA GRÁFICOS QUANDO MUDA PARÂMETROS VISUAIS,
f 24;
#X obj 237 342 ofDefine \; @posX \; @posY \; @sizeX \; @sizeY \; @value
\;;
#X obj 50 131 bit_param2 v\$0_sizeX \$0-memo 2 \$4;
#X obj 50 150 bit_param2 v\$0_sizeY \$0-memo 3 \$5;
#X msg 307 265 110 107 175 255;
#X msg 307 284 62 75 86 255;
#X obj 50 25 inlet;
#X obj 50 169 bit_param2 v\$0_value \$0-memo 4 \$6;
#X obj 50 188 bit_param2 v\$0_drawPath \$0-memo 5 \$7;
#X obj 50 207 bit_param2 v\$0_drawPNG \$0-memo 6 \$8;
#X obj 50 226 bit_param2 v\$0_pngOffset \$0-memo 7 \$9;
#X obj 307 133 bit_memo \$0-memo 12;
#X obj 50 54 route posX posY sizeX sizeY value drawPath drawPNG pngOffset
touch bgColor actColor actColor2, f 93;
#X obj 50 264 bit_param2 v\$0_bgColor \$0-memo 9;
#X obj 50 283 bit_param2 v\$0_actColor \$0-memo 10;
#X obj 50 302 bit_param2 v\$0_actColor2 \$0-memo 11;
#X obj 50 245 bit_param2 v\$0_touch \$0-memo 8 \$10;
#X text 434 133 MEMÓRIA LOCAL;
#X msg 307 246 118 126 133 255;
#X connect 0 0 10 0;
#X connect 0 0 11 0;
#X connect 0 0 24 0;
#X connect 1 0 4 0;
#X connect 2 0 4 0;
#X connect 4 0 3 0;
#X connect 8 0 4 0;
#X connect 9 0 4 0;
#X connect 10 0 20 0;
#X connect 11 0 21 0;
#X connect 12 0 18 0;
#X connect 18 0 1 0;
#X connect 18 1 2 0;
#X connect 18 2 8 0;
#X connect 18 3 9 0;
#X connect 18 4 13 0;
#X connect 18 5 14 0;
#X connect 18 6 15 0;
#X connect 18 7 16 0;
#X connect 18 8 22 0;
#X connect 18 9 19 0;
#X connect 18 10 20 0;
#X connect 18 11 21 0;
#X connect 19 0 4 0;
#X connect 20 0 4 0;
#X connect 21 0 4 0;
#X connect 24 0 19 0;
#X restore 554 79 pd CONTROLS;
#N canvas 368 391 439 249 COLOR 0;
#X msg 38 139 set \$1 \$2 \$3 \$4;
#X obj 38 178 outlet;
#X obj 38 110 list;
#X obj 158 110 list;
#X obj 59 91 ofRcv @bgColor;
#X obj 179 91 ofRcv @actColor;
#X obj 38 43 inlet VALUE;
#X obj 288 110 list;
#X obj 38 62 sel 0 1 2;
#X obj 309 91 ofRcv @actColor2;
#X connect 0 0 1 0;
#X connect 2 0 0 0;
#X connect 3 0 0 0;
#X connect 4 0 2 1;
#X connect 5 0 3 1;
#X connect 6 0 8 0;
#X connect 7 0 0 0;
#X connect 8 0 2 0;
#X connect 8 1 3 0;
#X connect 8 2 7 0;
#X connect 9 0 7 1;
#X restore 462 458 pd COLOR;
#X obj 230 241 ofLoadPath2d \; @button \;;
#X obj 354 496 ofDrawPath2d @button;
#X text 231 155 LARGURA;
#X obj 354 458 ofSetFillMode 1;
#X obj 141 184 t b f;
#X obj 185 184 t b f;
#X obj 78 307 s \$0-getTranslate;
#X obj 51 221 t b b;
#X obj 78 250 spigot;
#X obj 78 269 t b b;
#X msg 111 231 0;
#X msg 141 231 1;
#X text 76 331 OBTÉM POSIÇÃO LOCAL CADA VEZ QUE É ATUALIZADA,
f 24;
#X obj 51 535 ofPopMatrix;
#X obj 51 554 ofPopStyle;
#X obj 141 103 ofExpr \; $o1 = @posX \; $o2 = @posY \; $o3 = @sizeX
\; $o4 = @sizeY \;;
#X text 486 496 DESENHA PATH;
#X obj 532 324 ofRcv @value;
#X obj 532 343 t f f f;
#X obj 230 203 pack f f;
#X obj 230 184 t f f;
#X obj 275 184 t f f;
#X text 232 116 POS. X;
#X text 232 129 POS. Y;
#X obj 70 458 ofSetColor 255 255 255 255;
#X obj 51 89 ofPushStyle;
#X obj 51 108 ofPushMatrix;
#X obj 190 593 outlet TOUCH_RELEASE;
#X obj 426 593 outlet EXTERNAL_MOVE;
#X obj 335 593 outlet MOVE;
#X text 529 301 GESTÃO DO VALOR;
#X obj 554 50 inlet EXTERNAL_CONTROL;
#X obj 295 50 inlet EXT_INTERACTION;
#N canvas 97 53 879 700 INTERACTION 0;
#X obj 49 29 r \$1-touchDown;
#X obj 49 165 unpack f f f;
#X obj 267 29 r \$1-touchMove;
#X obj 537 29 r \$1-touchUp;
#X obj 290 128 r \$0-getTranslate;
#X obj 290 147 unpack f f;
#X obj 83 203 pack f f;
#X obj 83 184 -;
#X obj 128 184 -;
#X obj 83 222 ofIsPointInsidePath2d @button;
#X obj 83 241 sel 1;
#X obj 63 243 bng 15 250 50 0 empty empty empty 17 7 0 10 -262144 -1
-1;
#X obj 34 288 f;
#X text 65 289 ARMAZENA ID DO TOQUE;
#X text 269 222 INDENTIFICA TOQUE LOCAL;
#X obj 34 307 t f f;
#X obj 267 325 route -1;
#X obj 537 325 route -1;
#X msg 537 344 -1;
#X obj 83 260 t b b b;
#X obj 537 363 t b f f;
#X text 601 344 REINICIA SISTEMA LOCAL QUANDO LIBERA TOQUE, f 22;
#X text 405 128 RECEBE POSIÇÃO LOCAL;
#X obj 267 344 t a a;
#X obj 342 400 pack f f;
#X obj 342 381 -;
#X obj 387 381 -;
#X obj 342 419 ofIsPointInsidePath2d @button;
#X obj 342 362 unpack f f;
#X obj 342 438 change;
#X text 390 439 FILTRA REPETIÇÃO;
#X obj 102 629 outlet TOUCH_RELEASE;
#X msg 102 600 1;
#X msg 132 600 0;
#X text 387 29 INTERAÇÕES GLOBAIS;
#X obj 471 629 outlet EXTERNAL_MOVE;
#X obj 471 485 inlet EXTERNAL_MOVE;
#X obj 471 552 pack f f;
#X obj 471 533 -;
#X obj 516 533 -;
#X obj 471 571 ofIsPointInsidePath2d @button;
#X obj 471 514 unpack f f;
#X obj 471 590 change;
#X obj 290 166 t f f f;
#X obj 347 166 t f f f;
#X text 530 419 INDENTIFICA MOVIMENTO LOCAL SOBRE O BOTÃO;
#X text 657 571 INDENTIFICA MOVIMENTO EXTERNO SOBRE O BOTÃO, f 21
;
#X text 598 485 ENTRADA PARA MOVIMENTO EXTERNO;
#X obj 267 457 list append 0;
#X obj 267 629 outlet MOVE;
#X text 280 606 X / Y / 0-1 (DENTRO/FORA);
#X obj 49 66 spigot;
#X obj 267 66 spigot;
#X obj 537 66 spigot;
#X obj 651 29 ofRcv @touch;
#X obj 651 48 t f f f;
#X text 736 29 TOUCH ON/OFF;
#X connect 0 0 51 0;
#X connect 1 0 12 1;
#X connect 1 1 7 0;
#X connect 1 2 8 0;
#X connect 2 0 52 0;
#X connect 3 0 53 0;
#X connect 4 0 5 0;
#X connect 5 0 43 0;
#X connect 5 1 44 0;
#X connect 6 0 9 0;
#X connect 7 0 6 0;
#X connect 8 0 6 1;
#X connect 9 0 10 0;
#X connect 10 0 11 0;
#X connect 10 0 19 0;
#X connect 12 0 15 0;
#X connect 15 0 16 1;
#X connect 15 1 17 1;
#X connect 16 0 23 0;
#X connect 17 0 18 0;
#X connect 18 0 20 0;
#X connect 19 0 12 0;
#X connect 19 1 32 0;
#X connect 20 0 33 0;
#X connect 20 1 16 1;
#X connect 20 2 17 1;
#X connect 23 0 48 0;
#X connect 23 1 28 0;
#X connect 24 0 27 0;
#X connect 25 0 24 0;
#X connect 26 0 24 1;
#X connect 27 0 29 0;
#X connect 28 0 25 0;
#X connect 28 1 26 0;
#X connect 29 0 48 1;
#X connect 32 0 31 0;
#X connect 33 0 31 0;
#X connect 36 0 41 0;
#X connect 37 0 40 0;
#X connect 38 0 37 0;
#X connect 39 0 37 1;
#X connect 40 0 42 0;
#X connect 41 0 38 0;
#X connect 41 1 39 0;
#X connect 42 0 35 0;
#X connect 43 0 7 1;
#X connect 43 1 25 1;
#X connect 43 2 38 1;
#X connect 44 0 8 1;
#X connect 44 1 26 1;
#X connect 44 2 39 1;
#X connect 48 0 49 0;
#X connect 51 0 1 0;
#X connect 52 0 16 0;
#X connect 53 0 17 0;
#X connect 54 0 55 0;
#X connect 55 0 51 1;
#X connect 55 1 52 1;
#X connect 55 2 53 1;
#X restore 295 337 pd INTERACTION;
#X text 309 301 GESTÃO DE INTERAÇÕES COM OBJETO, f 20;
#X obj 354 429 spigot;
#X obj 387 410 ofRcv @drawPath;
#X obj 70 429 spigot;
#X obj 103 410 ofRcv @drawPNG;
#X obj 51 376 t b b b;
#X text 321 246 CARREGA PATH;
#X text 245 14 ** BOTÃO COM GESTÃO DE INTERAÇÕES;
#X obj 446 50 inlet VALUE;
#X obj 446 79 ofSnd @value-;
#X obj 70 496 ofDrawImage \$1-pngBank[0];
#X text 233 497 DESENHA PNG;
#N canvas 2 137 322 205 PNG_READ 0;
#X obj 52 97 +;
#X obj 67 78 r @pngOffset;
#X text 83 97 9 ARGUMENTO (PNG OFFSET) DEFINE QUAL IMAGENS LER DO BANCO
, f 31;
#X obj 52 39 inlet VALUE;
#X obj 52 146 outlet PNG_INDEX;
#X connect 0 0 4 0;
#X connect 1 0 0 1;
#X connect 3 0 0 0;
#X restore 90 477 pd PNG_READ;
#X msg 230 222 load rect \$1 \$2;
#X connect 0 0 17 0;
#X connect 1 0 35 0;
#X connect 4 0 25 0;
#X connect 6 0 11 0;
#X connect 7 0 16 0;
#X connect 9 0 6 0;
#X connect 13 0 6 0;
#X connect 14 0 21 0;
#X connect 14 1 0 1;
#X connect 15 0 21 0;
#X connect 15 1 0 2;
#X connect 17 0 49 0;
#X connect 17 1 18 0;
#X connect 18 0 19 0;
#X connect 19 0 7 0;
#X connect 19 1 20 0;
#X connect 20 0 18 1;
#X connect 21 0 18 1;
#X connect 23 0 24 0;
#X connect 24 0 2 0;
#X connect 25 0 14 0;
#X connect 25 1 15 0;
#X connect 25 2 30 0;
#X connect 25 3 31 0;
#X connect 27 0 28 0;
#X connect 28 0 56 0;
#X connect 28 1 9 0;
#X connect 28 2 5 0;
#X connect 29 0 57 0;
#X connect 30 0 29 0;
#X connect 30 1 54 1;
#X connect 31 0 29 1;
#X connect 31 1 54 2;
#X connect 34 0 54 0;
#X connect 35 0 36 0;
#X connect 36 0 0 0;
#X connect 41 0 8 0;
#X connect 42 0 43 0;
#X connect 43 0 37 0;
#X connect 43 1 39 0;
#X connect 43 2 38 0;
#X connect 45 0 13 0;
#X connect 46 0 45 1;
#X connect 47 0 34 0;
#X connect 48 0 47 1;
#X connect 49 0 23 0;
#X connect 49 1 47 0;
#X connect 49 2 45 0;
#X connect 52 0 53 0;
#X connect 56 0 54 0;
#X connect 57 0 10 0;
