#N canvas 78 255 1179 631 10;
#X obj 661 259 loadbang;
#X msg 763 47 \; pd dsp 1;
#N canvas 58 63 450 497 NOTAS 0;
#X text 40 78 - ADICIONADO MIXER COM SITEMA DE MEMÓRIA;
#X text 40 29 LOG;
#X text 40 819 TO DO;
#X text 40 838 - MECANISMO DE CUTOFF GLOBAL PARA PLAY/STOP \, MUDANÇAS
DE CENAS MACRO \, ETC.;
#X text 40 128 - ADICIONADO MECANISMO DE VELOCIDADE RELATIVA POR CAMADA
;
#X text 40 148 - DEFINIDOS PARÂMETROS DE CADA UNIDADE DE ÁUDIO;
#X text 40 168 - PADRONIZAÇÃO DAS VARIÁVEIS;
#X text 40 208 - DESENVOLVIDO GUI PARA ABSTRAÇÃO DAS UNIDADES DE
REPRODUÇÃO;
#X text 40 228 - AMPLIADO BANCO DE ÁUDIOS PARA 8 POR CANAL - 24 TODO
;
#X text 40 188 - IMPLEMENTADO SISTEMA DE PARÂMETROS NAS UNIDADES;
#X text 40 248 - IMPLEMENTADO SISTEMA DE MEMÓRIA - TRACKS;
#X text 40 58 06/06/2018;
#X text 40 108 07/06/2018;
#X text 40 268 - SISTEMA DE CONTAGEM DO COMPASSO ATUAL;
#X text 40 298 08/06/2018;
#X text 40 318 - INICIADO DESENVOLVIMENTO DA PARTE DE EFEITOS;
#X text 40 348 09/06/2018;
#X text 40 368 - DESENVOLVIMENTO DA PARTE DE EFEITOS - SISTEMA DE GESTÃO
DE PARÂMETROS E MEMÓRIA;
#X text 40 428 19/06/2018;
#X text 40 448 - REUNIÃO DE TRABALHO COM CRISTIANO;
#X text 40 478 21 e 22/06/2018;
#X text 40 498 - PESQUISA E DESENVOLVIMENTO DOS EFEITOS - FILTRO \,
BITCRUSHER \, REVERB, f 62;
#X text 40 548 25/06/2018;
#X text 40 608 26/06/2018;
#X text 40 568 - INSTALAÇÃO DE SISTEMAS OPERACIONAIS E OFELIA - MUITO
TRAMPO, f 61;
#X text 40 658 - INÍCIO DO DESENVOLVIMENTO DA INTERFACE NO PD DROID
PARTY;
#X text 40 628 - TERMINADA PARTE DE EFEITOS - INTERFACE \, PARAMETRIZAÇÃO
E SISTEMA DE MEMÓRIA;
#X text 40 698 27/06/2018;
#X text 40 718 - INTERFACE PD DROID PARTY;
#X text 40 778 - INTERFACE PD DROID PARTY;
#X text 40 758 28/06/2018;
#X restore 904 80 pd NOTAS;
#N canvas 384 53 613 804 MASTER_PHASE 0;
#X obj 132 85 t b f;
#X obj 132 123 /;
#X msg 132 104 1000;
#X obj 132 66 * 4;
#X floatatom 132 142 5 0 0 0 - - -, f 5;
#X obj 132 421 phasor~;
#X obj 132 219 / 4;
#X obj 155 219 t b f;
#X text 188 421 GERADOR DE FASE PRINCIPAL;
#X text 244 200 NÚMERO DE COMPASSOS NO LOOP;
#X floatatom 132 238 5 0 0 0 - - -, f 5;
#X text 174 239 FREQUÊNCIA DE 1 LOOP (4 BARS PADRÂO);
#X text 172 143 FREQUÊNCIA DE 1 COMPASSO (4 BEATS PADRÂO), f 24
;
#X obj 132 372 f;
#X msg 171 402 0;
#X obj 30 335 sel 0 1;
#X msg 30 403 0;
#X obj 30 285 tgl 30 0 empty empty empty 17 7 0 10 -262144 -1 -1 1
1;
#X obj 30 316 t f f;
#X obj 132 28 r \$0-beatMs;
#X obj 147 47 r \$0-beats/bar;
#X obj 155 200 r \$0-loopBars;
#X obj 208 555 wrap~;
#X obj 185 555 -~;
#X obj 185 574 samphold~;
#X obj 185 536 *~ 1;
#X obj 185 612 snapshot~;
#X obj 209 593 bang~;
#X obj 217 479 r \$0-beats/bar;
#X obj 206 460 r \$0-loopBars;
#X obj 217 498 t b f;
#X obj 206 517 * 1;
#X floatatom 185 631 5 0 0 0 - - -, f 5;
#X text 217 536 TOTAL DE BATIMENTOS (BEATS) NO LOOP;
#X text 222 631 BEAT ATUAL;
#X obj 212 687 s \$0-currentBeat;
#X obj 132 322 t f f;
#X obj 132 341 spigot;
#X text 176 341 SÓ ATUALIZA DIRETO COM REPRODUÇÃO LIGADA;
#X obj 132 303 * 1;
#X obj 171 285 t b f;
#X text 214 285 MULTIPLICADOR DA VELOCIDADE PADRÃO;
#X obj 185 668 t b f;
#X text 320 687 ENVIA BEAT ATUAL PARA SEQUENCIADOR MASTER;
#X obj 49 354 t b b b;
#X obj 185 649 change -1;
#X obj 338 636 s \$0-changeReset;
#X text 336 660 REINICIA FILTROS DE REPETIÇÃO NAS PISTAS;
#X obj 311 617 t b b;
#X obj 311 588 r \$0-refreshTracks;
#X text 432 588 ATUALIZA PARÂMETROS DAS PISTAS, f 19;
#X obj 185 716 s \$1-beatBang;
#X text 275 716 ENVIA BANG PARA SISTEMA DE QUANTIZAÇÃO DOS PARÂMETROS
NAS PISTAS DE ÁUDIO E GUI, f 40;
#X obj 302 28 inlet BPM_SLIDE;
#X obj 132 760 outlet~ MASTER_PHASE;
#X obj 30 28 inlet ON/OFF;
#X connect 0 0 2 0;
#X connect 0 1 1 1;
#X connect 1 0 4 0;
#X connect 2 0 1 0;
#X connect 3 0 0 0;
#X connect 4 0 6 0;
#X connect 5 0 25 0;
#X connect 5 0 54 0;
#X connect 6 0 10 0;
#X connect 7 0 6 0;
#X connect 7 1 6 1;
#X connect 10 0 39 0;
#X connect 13 0 5 0;
#X connect 14 0 5 1;
#X connect 15 0 16 0;
#X connect 15 1 44 0;
#X connect 16 0 5 0;
#X connect 17 0 18 0;
#X connect 18 0 15 0;
#X connect 18 1 37 1;
#X connect 19 0 3 0;
#X connect 20 0 3 1;
#X connect 21 0 7 0;
#X connect 22 0 23 1;
#X connect 22 0 24 1;
#X connect 23 0 24 0;
#X connect 24 0 26 0;
#X connect 25 0 22 0;
#X connect 25 0 23 0;
#X connect 26 0 32 0;
#X connect 27 0 26 0;
#X connect 28 0 30 0;
#X connect 29 0 31 0;
#X connect 30 0 31 0;
#X connect 30 1 31 1;
#X connect 31 0 25 1;
#X connect 32 0 45 0;
#X connect 36 0 37 0;
#X connect 36 1 13 1;
#X connect 37 0 13 0;
#X connect 39 0 36 0;
#X connect 40 0 39 0;
#X connect 40 1 39 1;
#X connect 42 0 51 0;
#X connect 42 1 35 0;
#X connect 44 0 13 0;
#X connect 44 1 14 0;
#X connect 44 2 48 0;
#X connect 45 0 42 0;
#X connect 48 0 51 0;
#X connect 48 1 46 0;
#X connect 49 0 48 0;
#X connect 53 0 40 0;
#X connect 55 0 17 0;
#X restore 45 120 pd MASTER_PHASE;
#X obj 45 89 tgl 30 0 empty empty empty 17 7 0 10 -262144 -1 -1 1 1
;
#N canvas 749 361 623 441 BPM_BAR_CALCS 0;
#X msg 175 161 60000;
#X obj 175 180 /;
#X floatatom 175 199 8 0 0 0 - - -, f 8;
#X obj 156 37 loadbang;
#X floatatom 175 124 5 0 0 0 - - -, f 5;
#X obj 357 265 * 44.1;
#X obj 390 227 samplerate~;
#X obj 357 351 * 4;
#X obj 357 284 t f f;
#N canvas 596 565 367 259 BLOCKSIZE_MSEC 0;
#X obj 118 53 loadbang;
#X obj 118 72 bng 15 250 50 0 empty empty empty 17 7 0 10 -262144 -1
-1;
#X obj 118 88 samplerate~;
#X obj 118 107 / 1000;
#X msg 209 89 64;
#X text 237 90 BLOCK SIZE;
#X obj 118 126 pack f 64;
#X obj 118 145 swap;
#X obj 118 164 /;
#X floatatom 178 182 8 0 0 0 - - -, f 8;
#X text 232 183 MSEC / BLOCK;
#X msg 63 89 44100;
#X msg 23 89 48000;
#X text 31 19 ** CALCULA TEMPO EM MSEG DE 1 BLOCO DE ÁUDIO;
#X obj 209 108 t b f;
#X obj 181 53 inlet;
#X obj 118 213 s \$0-blockMs;
#X connect 0 0 1 0;
#X connect 1 0 2 0;
#X connect 2 0 3 0;
#X connect 3 0 6 0;
#X connect 4 0 14 0;
#X connect 6 0 7 0;
#X connect 7 0 8 0;
#X connect 7 1 8 1;
#X connect 8 0 9 0;
#X connect 8 0 16 0;
#X connect 11 0 3 0;
#X connect 12 0 3 0;
#X connect 14 0 6 0;
#X connect 14 1 6 1;
#X connect 15 0 1 0;
#X restore 279 53 pd BLOCKSIZE_MSEC;
#X msg 471 227 44100;
#X floatatom 64 114 5 0 0 0 - - -, f 5;
#X msg 64 95 4;
#X obj 279 37 bng 15 250 50 0 empty empty empty 17 7 0 10 -262144 -1
-1;
#X obj 156 56 t b b b;
#X obj 390 246 / 1000;
#X obj 372 332 r \$0-beats/bar;
#X obj 64 132 s \$0-beats/bar;
#X obj 357 370 s \$0-barSamples;
#X obj 384 303 s \$0-beatSamples;
#X text 490 303 NÃO USADO!;
#X obj 194 256 s \$0-beatMs;
#X obj 175 217 t f f f;
#X obj 175 356 s \$0-FX-beatMs;
#X text 173 376 BEAT EM MS PARA MÓDULO DE EFEITOS - DELAY, f 22;
#X obj 190 299 r \$0-bpmSlide;
#X obj 175 337 * 1;
#X obj 190 318 t b f;
#X msg 175 95 140;
#X msg 206 95 125;
#X obj 264 179 s \$0-rootBPM;
#X text 348 179 ENVIA LOCALMENTE BPM DO PROJETO;
#X obj 175 142 t b f f f;
#X text 348 160 ENVIA REMOTAMENTE BPM DO PROJETO;
#X obj 264 160 s \$1-rootBPM;
#X obj 70 19 r \$1-done;
#X obj 70 38 bang;
#X connect 0 0 1 0;
#X connect 1 0 2 0;
#X connect 2 0 22 0;
#X connect 3 0 14 0;
#X connect 4 0 32 0;
#X connect 5 0 8 0;
#X connect 6 0 15 0;
#X connect 7 0 18 0;
#X connect 8 0 7 0;
#X connect 8 1 19 0;
#X connect 10 0 15 0;
#X connect 11 0 17 0;
#X connect 12 0 11 0;
#X connect 13 0 9 0;
#X connect 14 0 12 0;
#X connect 14 1 28 0;
#X connect 14 2 6 0;
#X connect 15 0 5 1;
#X connect 16 0 7 1;
#X connect 22 0 26 0;
#X connect 22 1 21 0;
#X connect 22 2 5 0;
#X connect 25 0 27 0;
#X connect 26 0 23 0;
#X connect 27 0 26 0;
#X connect 27 1 26 1;
#X connect 28 0 4 0;
#X connect 29 0 4 0;
#X connect 32 0 0 0;
#X connect 32 1 1 1;
#X connect 32 2 30 0;
#X connect 32 3 34 0;
#X connect 35 0 36 0;
#X connect 36 0 14 0;
#X restore 308 65 pd BPM_BAR_CALCS;
#N canvas 339 53 814 802 AUDIO_LOAD 0;
#X obj 421 716 moses 32;
#X msg 466 735 32;
#N canvas 116 106 705 249 TABLES 0;
#X obj 205 74 table \$0-audio_1_1 100;
#X obj 205 93 table \$0-audio_1_2 100;
#X obj 205 112 table \$0-audio_1_3 100;
#X obj 205 131 table \$0-audio_1_4 100;
#X obj 205 150 table \$0-audio_1_5 100;
#X obj 205 169 table \$0-audio_1_6 100;
#X text 291 18 ** BANCO DE ÁUDIOS;
#X obj 362 74 table \$0-audio_2_1 100;
#X obj 362 93 table \$0-audio_2_2 100;
#X obj 362 112 table \$0-audio_2_3 100;
#X obj 362 131 table \$0-audio_2_4 100;
#X obj 362 150 table \$0-audio_2_5 100;
#X obj 362 169 table \$0-audio_2_6 100;
#X obj 205 55 table \$0-audio_1_0 100;
#X obj 362 55 table \$0-audio_2_0 100;
#X obj 48 55 table \$0-audio_0_0 100;
#X obj 48 74 table \$0-audio_0_1 100;
#X obj 48 93 table \$0-audio_0_2 100;
#X obj 48 112 table \$0-audio_0_3 100;
#X obj 48 131 table \$0-audio_0_4 100;
#X obj 48 150 table \$0-audio_0_5 100;
#X obj 48 169 table \$0-audio_0_6 100;
#X obj 48 188 table \$0-audio_0_7 100;
#X obj 205 188 table \$0-audio_1_7 100;
#X obj 362 188 table \$0-audio_2_7 100;
#X obj 519 55 table \$0-audio_3_0 100;
#X obj 519 74 table \$0-audio_3_1 100;
#X obj 519 93 table \$0-audio_3_2 100;
#X obj 519 112 table \$0-audio_3_3 100;
#X obj 519 131 table \$0-audio_3_4 100;
#X obj 519 150 table \$0-audio_3_5 100;
#X obj 519 169 table \$0-audio_3_6 100;
#X obj 519 188 table \$0-audio_3_7 100;
#X restore 465 212 pd TABLES;
#X obj 198 145 bng 25 250 50 0 empty empty empty 17 7 0 10 -262144
-1 -1;
#X obj 198 171 t b b;
#X msg 225 190 0;
#X obj 198 208 f;
#X obj 221 208 + 1;
#X obj 177 193 bng 15 250 50 0 empty empty empty 17 7 0 10 -262144
-1 -1;
#X obj 294 183 text define \$0-audioList;
#X msg 404 165 clear;
#X obj 281 246 text get \$0-audioList;
#X obj 281 265 symbol;
#X obj 198 343 soundfiler;
#X obj 198 400 /;
#X obj 198 419 int;
#X obj 198 438 t b f;
#X obj 177 523 spigot;
#X obj 225 457 array set \$0-barList;
#X obj 358 523 sel 0;
#X obj 231 505 t f f;
#X floatatom 383 675 5 0 0 0 - - -, f 5;
#X obj 447 474 array get \$0-barList;
#X obj 447 493 print;
#X obj 358 542 del 50;
#X obj 89 41 bng 15 250 50 0 empty empty empty 17 7 0 10 -262144 -1
-1;
#X obj 213 381 r \$0-barSamples;
#X obj 421 754 s \$0-loopBars;
#X text 467 456 DEBUG PRINT;
#X obj 198 246 div 8;
#X obj 233 246 mod 8;
#X obj 447 458 bng 15 250 50 0 empty empty empty 17 7 0 10 -262144
-1 -1;
#X obj 198 305 pack f f \$0 s s;
#X obj 198 227 t f f f f f;
#X msg 198 324 read -resize -maxsize 2.88e+06 \$5/\$4 \$3-audio_\$1_\$2
;
#X obj 89 57 t b b b b b b;
#X obj 249 41 bng 15 250 50 0 empty empty empty 17 7 0 10 -262144 -1
-1;
#X obj 249 57 t b b b b b b;
#X obj 89 22 r \$1-cena0;
#X obj 249 22 r \$1-cena1;
#X msg 294 116 read -c AUDIOS0/audioFiles;
#X msg 294 135 read -c AUDIOS1/audioFiles;
#X msg 479 116 symbol AUDIOS0;
#X msg 479 135 symbol AUDIOS1;
#X obj 177 542 del 100;
#X text 49 542 ATRASO DE SEGURANÇA;
#X obj 294 212 array define \$0-barList 32;
#X obj 231 486 < 31;
#X text 222 524 32 ÁUDIOS;
#X msg 237 560 0;
#X msg 266 560 1;
#X obj 222 579 f;
#X obj 222 598 s \$1-done;
#X obj 198 362 + 100;
#X obj 45 619 s \$0-refreshTracks;
#X text 43 643 ATUALIZA PARÂMETROS NAS PISTAS QUANDO CARREGA NOVA
SESSÃO, f 19;
#X text 476 657 ANALISA DURAÇÃO EM COMPASSOS DOS ÁUDIOS E TOMA MENOR
MÚLTIPLO COMUM (LCM) COMO DURAÇÃO DO LOOP GLOBAL - ISSO FAZ A FASE
GLOBAL REINICIAR SEMPRE NUM MOMENTO QUE NÃO CORTA NENHUM ÁUDIO,
f 48;
#X obj 421 638 array get \$0-barList;
#X obj 421 657 bit_lcm;
#X text 344 306 -maxsize 60 SEG. A 48khz;
#X text 256 423 ARMAZENA TAMANHO DOS ÁUDIOS EM COMPASSOS, f 20;
#X text 316 381 RECEBE TAMANHO DO COMPASSO EM SAMPLES;
#X text 482 716 MÁXIMO 32 COMPASSOS;
#X obj 45 698 f \$0;
#X obj 45 717 s \$1-audioDolar;
#X text 147 717 ENVIA \$0 LOCAL (BASE DO NOME DAS TABELAS DOS ÁUDIOS)
PARA [gui_waveforms] NO [gui_track], f 28;
#X obj 358 599 s \$0-masterPhase;
#X msg 358 580 1;
#X obj 358 561 t b b b b b;
#X connect 0 0 27 0;
#X connect 0 1 1 0;
#X connect 1 0 27 0;
#X connect 3 0 4 0;
#X connect 4 0 6 0;
#X connect 4 1 5 0;
#X connect 5 0 6 1;
#X connect 6 0 7 0;
#X connect 6 0 33 0;
#X connect 7 0 6 1;
#X connect 8 0 6 0;
#X connect 10 0 9 0;
#X connect 11 0 12 0;
#X connect 12 0 32 3;
#X connect 13 0 53 0;
#X connect 14 0 15 0;
#X connect 15 0 16 0;
#X connect 16 0 17 0;
#X connect 16 1 18 0;
#X connect 17 0 44 0;
#X connect 19 0 24 0;
#X connect 20 0 17 1;
#X connect 20 1 19 0;
#X connect 22 0 23 0;
#X connect 24 0 68 0;
#X connect 25 0 35 0;
#X connect 26 0 14 1;
#X connect 29 0 32 0;
#X connect 30 0 32 1;
#X connect 31 0 22 0;
#X connect 32 0 34 0;
#X connect 33 0 29 0;
#X connect 33 1 30 0;
#X connect 33 2 11 0;
#X connect 33 3 18 1;
#X connect 33 4 47 0;
#X connect 34 0 13 0;
#X connect 35 1 49 0;
#X connect 35 2 3 0;
#X connect 35 3 40 0;
#X connect 35 4 42 0;
#X connect 36 0 37 0;
#X connect 37 1 50 0;
#X connect 37 2 3 0;
#X connect 37 3 41 0;
#X connect 37 4 43 0;
#X connect 38 0 25 0;
#X connect 39 0 36 0;
#X connect 40 0 9 0;
#X connect 41 0 9 0;
#X connect 42 0 32 4;
#X connect 43 0 32 4;
#X connect 44 0 8 0;
#X connect 47 0 20 0;
#X connect 49 0 51 1;
#X connect 50 0 51 1;
#X connect 51 0 52 0;
#X connect 53 0 14 0;
#X connect 57 0 58 0;
#X connect 58 0 21 0;
#X connect 58 0 0 0;
#X connect 63 0 64 0;
#X connect 67 0 66 0;
#X connect 68 0 67 0;
#X connect 68 1 54 0;
#X connect 68 2 63 0;
#X connect 68 3 51 0;
#X connect 68 4 57 0;
#X restore 308 36 pd AUDIO_LOAD;
#X obj 577 596 dac~;
#N canvas 425 245 833 607 MASTER_SEQ 0;
#X floatatom 58 477 5 0 0 0 - - -, f 5;
#X msg 58 495 slot \$1 \, load;
#X obj 58 442 hradio 15 1 0 16 empty empty empty 0 -8 0 10 -262144
-1 -1 15;
#X obj 58 523 s \$0-TM-;
#X obj 58 561 s \$0-MM-;
#X floatatom 58 44 5 0 0 0 - - -, f 5;
#X obj 58 82 % 4;
#X obj 58 101 sel 0;
#X floatatom 82 83 5 0 0 0 - - -, f 5;
#X obj 58 25 r \$0-currentBeat;
#X obj 58 542 s \$0-FX-;
#X obj 58 458 change -1;
#X msg 79 243 0 0 0 0 1 1 2 2 3 3 4 5 6 6 7 8 9 9 9 10 11 12 13 13
14 14 15 15;
#X obj 58 294 list split 1;
#X obj 58 275 list;
#X obj 94 327 route bang;
#X obj 121 384 s \$0-masterPhase;
#X msg 121 365 0;
#X obj 94 403 s \$1-tela0_set;
#X obj 91 128 r \$1-seq;
#X text 149 128 LIGA SEQUÊNCIA MASTER NO GUI;
#X obj 58 147 spigot;
#X msg 469 257 0 0 1 2 3 3 4 5 6 6 7 8 9 9 10 10 11 12 13 14 15 15
;
#X obj 362 9 r \$1-cena0;
#X obj 362 106 s \$1-seq_set;
#X msg 362 87 1;
#X obj 452 106 s \$1-seq_set;
#X msg 452 87 1;
#X obj 452 9 r \$1-cena1;
#X obj 58 166 t b b;
#X obj 116 184 f;
#X obj 146 184 + 1;
#X msg 131 165 1;
#X obj 116 203 s \$1-bar_set;
#X obj 371 144 r \$1-resetSeq;
#X obj 452 68 t b b b b;
#X obj 362 68 t b b b b;
#X msg 413 163 0;
#X msg 442 163 1;
#X obj 398 182 f;
#X obj 371 163 t b b;
#X obj 398 201 sel 0 1;
#X obj 232 383 s \$1-seq_set;
#X msg 232 364 0;
#X msg 321 364 1;
#X obj 94 346 t b b b b;
#X text 198 203 VISOR DE BAR ATIVO;
#X connect 0 0 1 0;
#X connect 1 0 3 0;
#X connect 1 0 4 0;
#X connect 1 0 10 0;
#X connect 2 0 11 0;
#X connect 5 0 6 0;
#X connect 6 0 7 0;
#X connect 7 0 21 0;
#X connect 8 0 6 1;
#X connect 9 0 5 0;
#X connect 11 0 0 0;
#X connect 12 0 14 1;
#X connect 13 0 2 0;
#X connect 13 1 15 0;
#X connect 14 0 13 0;
#X connect 15 0 45 0;
#X connect 15 1 14 1;
#X connect 17 0 16 0;
#X connect 19 0 21 1;
#X connect 21 0 29 0;
#X connect 22 0 14 1;
#X connect 25 0 24 0;
#X connect 27 0 26 0;
#X connect 29 0 14 0;
#X connect 29 1 30 0;
#X connect 30 0 31 0;
#X connect 30 0 33 0;
#X connect 31 0 30 1;
#X connect 32 0 30 1;
#X connect 34 0 40 0;
#X connect 35 0 27 0;
#X connect 35 1 22 0;
#X connect 35 2 32 0;
#X connect 35 3 38 0;
#X connect 36 0 25 0;
#X connect 36 1 12 0;
#X connect 36 2 32 0;
#X connect 36 3 37 0;
#X connect 37 0 39 1;
#X connect 38 0 39 1;
#X connect 39 0 41 0;
#X connect 40 0 32 0;
#X connect 40 1 39 0;
#X connect 41 0 12 0;
#X connect 41 1 22 0;
#X connect 43 0 42 0;
#X connect 44 0 30 0;
#X connect 45 0 18 0;
#X connect 45 1 17 0;
#X connect 45 2 43 0;
#X connect 45 3 44 0;
#X restore 429 36 pd MASTER_SEQ;
#N canvas 279 421 761 426 MEMO_SEQ 0;
#X obj 73 359 del 50;
#X obj 73 340 / 10;
#X obj 94 75 bng 15 250 50 0 empty empty empty 17 7 0 10 -262144 -1
-1;
#X text 113 73 REFRESH ARRAY LIST;
#X obj 94 91 t b b b;
#X obj 73 177 list;
#X obj 48 152 bng 25 250 50 0 empty empty empty 17 7 0 10 -258113 -1
-1;
#X obj 94 56 loadbang;
#X obj 94 158 bit_listmaker;
#X obj 73 196 bit_arraypack;
#X obj 73 321 bit_arrayunpack;
#X obj 113 120 s \$0-memo-get;
#X obj 119 139 r \$0-memo-arrays;
#X obj 73 378 s \$0-memo-load;
#X obj 533 359 del 50;
#X obj 533 340 / 10;
#X obj 554 75 bng 15 250 50 0 empty empty empty 17 7 0 10 -262144 -1
-1;
#X text 573 73 REFRESH ARRAY LIST;
#X obj 554 91 t b b b;
#X obj 533 177 list;
#X obj 508 152 bng 25 250 50 0 empty empty empty 17 7 0 10 -258113
-1 -1;
#X obj 554 56 loadbang;
#X obj 573 120 s \$0-M-memo-get;
#X obj 579 139 r \$0-M-memo-arrays;
#X obj 554 158 bit_listmaker;
#X obj 533 196 bit_arraypack;
#X obj 533 378 s \$0-M-memo-load;
#X obj 533 321 bit_arrayunpack;
#X obj 303 359 del 50;
#X obj 303 340 / 10;
#X obj 324 75 bng 15 250 50 0 empty empty empty 17 7 0 10 -262144 -1
-1;
#X text 343 73 REFRESH ARRAY LIST;
#X obj 324 91 t b b b;
#X obj 303 177 list;
#X obj 278 152 bng 25 250 50 0 empty empty empty 17 7 0 10 -258113
-1 -1;
#X obj 324 56 loadbang;
#X obj 324 158 bit_listmaker;
#X obj 303 196 bit_arraypack;
#X obj 303 321 bit_arrayunpack;
#X obj 343 120 s \$0-FX-memo-get;
#X obj 303 378 s \$0-FX-memo-load;
#X obj 349 139 r \$0-FX-memo-arrays;
#X obj 73 215 bit_listbox2 1 1 0 1 \$0-TM;
#X obj 303 215 bit_listbox2 1 1 0 1 \$0-FX;
#X obj 533 215 bit_listbox2 1 1 0 1 \$0-MM;
#X obj 259 12 inlet SNAPSHOT;
#X obj 259 31 t b b b;
#N canvas 48 181 1009 300 MEMO 0;
#X obj 58 37 r \$1-cena0;
#X obj 58 95 t b b b;
#X msg 58 168 write memo/tracks_memo0;
#X msg 58 187 read memo/tracks_memo0;
#X msg 218 168 write memo/fx_memo0;
#X msg 218 187 read memo/fx_memo0;
#X msg 358 168 write memo/mix_memo0;
#X msg 358 187 read memo/mix_memo0;
#X obj 58 246 outlet;
#X obj 218 246 outlet;
#X obj 358 246 outlet;
#X obj 538 95 t b b b;
#X obj 538 37 r \$1-cena1;
#X msg 538 168 write memo/tracks_memo1;
#X msg 538 187 read memo/tracks_memo1;
#X msg 698 168 write memo/fx_memo1;
#X msg 698 187 read memo/fx_memo1;
#X msg 838 168 write memo/mix_memo1;
#X msg 838 187 read memo/mix_memo1;
#X obj 58 56 del 100;
#X obj 538 56 del 100;
#X obj 235 39 inlet SAVE_FILE;
#X obj 235 58 sel 0 1;
#X obj 235 77 t b b b;
#X obj 312 77 t b b b;
#X connect 0 0 19 0;
#X connect 1 0 3 0;
#X connect 1 1 5 0;
#X connect 1 2 7 0;
#X connect 2 0 8 0;
#X connect 3 0 8 0;
#X connect 4 0 9 0;
#X connect 5 0 9 0;
#X connect 6 0 10 0;
#X connect 7 0 10 0;
#X connect 11 0 14 0;
#X connect 11 1 16 0;
#X connect 11 2 18 0;
#X connect 12 0 20 0;
#X connect 13 0 8 0;
#X connect 14 0 8 0;
#X connect 15 0 9 0;
#X connect 16 0 9 0;
#X connect 17 0 10 0;
#X connect 18 0 10 0;
#X connect 19 0 1 0;
#X connect 20 0 11 0;
#X connect 21 0 22 0;
#X connect 22 0 23 0;
#X connect 22 1 24 0;
#X connect 23 0 2 0;
#X connect 23 1 4 0;
#X connect 23 2 6 0;
#X connect 24 0 13 0;
#X connect 24 1 15 0;
#X connect 24 2 17 0;
#X restore 494 31 pd MEMO;
#X obj 494 12 inlet SAVE_FILE;
#X obj 378 12 inlet SLOT;
#X obj 378 31 t f f f;
#X connect 0 0 13 0;
#X connect 1 0 0 0;
#X connect 2 0 4 0;
#X connect 4 0 8 0;
#X connect 4 1 11 0;
#X connect 4 2 8 2;
#X connect 5 0 9 0;
#X connect 6 0 5 0;
#X connect 7 0 2 0;
#X connect 8 0 5 1;
#X connect 8 0 10 1;
#X connect 9 0 42 0;
#X connect 10 0 1 0;
#X connect 12 0 8 1;
#X connect 14 0 26 0;
#X connect 15 0 14 0;
#X connect 16 0 18 0;
#X connect 18 0 24 0;
#X connect 18 1 22 0;
#X connect 18 2 24 2;
#X connect 19 0 25 0;
#X connect 20 0 19 0;
#X connect 21 0 16 0;
#X connect 23 0 24 1;
#X connect 24 0 19 1;
#X connect 24 0 27 1;
#X connect 25 0 44 0;
#X connect 27 0 15 0;
#X connect 28 0 40 0;
#X connect 29 0 28 0;
#X connect 30 0 32 0;
#X connect 32 0 36 0;
#X connect 32 1 39 0;
#X connect 32 2 36 2;
#X connect 33 0 37 0;
#X connect 34 0 33 0;
#X connect 35 0 30 0;
#X connect 36 0 33 1;
#X connect 36 0 38 1;
#X connect 37 0 43 0;
#X connect 38 0 29 0;
#X connect 41 0 36 1;
#X connect 42 0 10 0;
#X connect 43 0 38 0;
#X connect 44 0 27 0;
#X connect 45 0 46 0;
#X connect 46 0 6 0;
#X connect 46 1 34 0;
#X connect 46 2 20 0;
#X connect 47 0 42 0;
#X connect 47 1 43 0;
#X connect 47 2 44 0;
#X connect 48 0 47 0;
#X connect 49 0 50 0;
#X connect 50 0 42 1;
#X connect 50 1 43 1;
#X connect 50 2 44 1;
#X restore 562 62 pd MEMO_SEQ;
#X obj 45 139 bit_track \$0 0 \$1;
#X obj 577 335 bit_mixbus~ \$0-M \$1;
#X obj 562 36 bng 25 250 50 0 empty empty empty 17 7 0 10 -258113 -1
-1;
#X obj 316 139 bit_track \$0 1 \$1;
#X obj 587 139 bit_track \$0 2 \$1;
#X obj 132 68 bng 15 250 50 0 empty empty empty 17 7 0 10 -262144 -1
-1;
#X floatatom 593 44 5 0 0 0 - - -, f 5;
#X obj 858 139 bit_track \$0 3 \$1;
#N canvas 2 53 680 418 MIXER 0;
#X obj 51 99 bit_mix1~ \$0-M 0 \$1;
#X obj 170 99 bit_mix1~ \$0-M 1 \$1;
#X obj 289 99 bit_mix1~ \$0-M 2 \$1;
#X obj 408 99 bit_mix1~ \$0-M 3 \$1;
#X obj 51 43 inlet~;
#X obj 170 43 inlet~;
#X obj 289 43 inlet~;
#X obj 408 43 inlet~;
#X obj 341 370 outlet~ DUMMY;
#X obj 444 370 outlet~ DUMMY;
#X obj 548 81 t a a a a;
#X obj 548 43 inlet ANALYSE;
#X connect 4 0 0 0;
#X connect 5 0 1 0;
#X connect 6 0 2 0;
#X connect 7 0 3 0;
#X connect 10 0 0 1;
#X connect 10 1 1 1;
#X connect 10 2 2 1;
#X connect 10 3 3 1;
#X connect 11 0 10 0;
#X coords 0 -1 1 1 477 270 1 50 80;
#X restore 45 316 pd MIXER;
#X msg 661 278 0;
#X obj 763 28 loadbang;
#X msg 661 297 analyse \$1;
#X msg 688 278 1;
#X obj 661 316 t a a;
#N canvas 816 80 567 168 TRACK_MODE 0;
#X obj 52 35 r \$1-0-trackMode;
#X obj 52 113 outlet TRACK_0;
#X obj 172 113 outlet TRACK_1;
#X obj 292 113 outlet TRACK_2;
#X obj 412 113 outlet TRACK_3;
#X obj 172 35 r \$1-1-trackMode;
#X obj 292 35 r \$1-2-trackMode;
#X obj 412 35 r \$1-3-trackMode;
#X msg 52 64 on \$1;
#X msg 172 64 on \$1;
#X msg 292 64 on \$1;
#X msg 412 64 on \$1;
#X connect 0 0 8 0;
#X connect 5 0 9 0;
#X connect 6 0 10 0;
#X connect 7 0 11 0;
#X connect 8 0 1 0;
#X connect 9 0 2 0;
#X connect 10 0 3 0;
#X connect 11 0 4 0;
#X restore 308 120 pd TRACK_MODE;
#X obj 45 31 r \$0-masterPhase;
#N canvas 565 186 620 602 BPM_CONTROL 0;
#X obj 51 344 * 2;
#X obj 51 478 t f f;
#X obj 78 497 s \$0-bpmSlide;
#X obj 51 382 expr rint($f1);
#X obj 51 363 * 140;
#X obj 51 459 / 140;
#X text 148 382 ARREDONDA BPM;
#X text 94 459 ESCALA DENOVO PARA 0 - 2;
#X obj 51 401 t f f;
#X obj 78 420 s \$1-bpm_set;
#X obj 327 172 r \$0-rootBPM;
#X obj 51 28 r \$1-speed;
#X text 113 229 ORIGINAL PB_SPEED;
#X msg 86 229 0.5;
#X obj 86 210 r \$1-resetSpeed;
#X obj 86 162 r \$1-done;
#X obj 86 181 bang;
#X obj 86 133 inlet RESET;
#X obj 269 333 s \$1-speed_set;
#X text 267 357 ENVIA FEEDBACK PARA INTERFACE, f 14;
#X obj 54 289 hsl 128 15 0 1 0 0 empty empty empty -2 -8 0 10 -262144
-1 -1 6350 0;
#X obj 51 315 t f f;
#X text 82 344 0 - 2;
#X text 162 420 ENVIA FEEDBACK PARA CAIXA DE NÚMEROS DO BPM NA INTERFACE
, f 28;
#X text 168 497 ENVIA FATOR PARA FX - DEL (FORA DE USO TEMPORARIAMENTE)
, f 29;
#X obj 51 556 outlet BPM_SLIDE;
#X obj 315 76 r \$1-bpm;
#X obj 300 210 / 140;
#X obj 327 191 t f f f;
#X text 153 162 BANG QUANDO TERMINA DE CARREGAR CENA, f 19;
#X text 375 76 RECEBE BPM DA INTERFACE;
#X text 411 172 RECEBE BPM ORIGINAL DO PROJETO, f 11;
#X obj 51 247 t a;
#X obj 300 229 / 2;
#X text 123 28 RECEBE SLIDER DE DESVIO DE BPM DA INTERFACE;
#X obj 300 95 f;
#X obj 300 57 r \$1-beatBang;
#X text 391 57 RECEBE BANG QUANTIZADO NO BEAT;
#X obj 300 143 change -1;
#X msg 344 124 set -1;
#X obj 344 105 r \$1-changeReset;
#X text 396 124 SISTEMA PARA RESETAR FILTROS DE REPETIÇÃO, f 20
;
#X connect 0 0 4 0;
#X connect 1 0 25 0;
#X connect 1 1 2 0;
#X connect 3 0 8 0;
#X connect 4 0 3 0;
#X connect 5 0 1 0;
#X connect 8 0 5 0;
#X connect 8 1 9 0;
#X connect 10 0 28 0;
#X connect 11 0 32 0;
#X connect 13 0 32 0;
#X connect 14 0 13 0;
#X connect 15 0 16 0;
#X connect 16 0 13 0;
#X connect 17 0 13 0;
#X connect 20 0 21 0;
#X connect 21 0 0 0;
#X connect 21 1 18 0;
#X connect 26 0 35 1;
#X connect 27 0 33 0;
#X connect 28 0 27 1;
#X connect 28 1 4 1;
#X connect 28 2 5 1;
#X connect 32 0 20 0;
#X connect 33 0 32 0;
#X connect 35 0 38 0;
#X connect 36 0 35 0;
#X connect 38 0 27 0;
#X connect 39 0 38 0;
#X connect 40 0 39 0;
#X coords 0 -1 1 1 135 35 1 50 270;
#X restore 132 84 pd BPM_CONTROL;
#X text 151 66 RESET BPM;
#X connect 0 0 19 0;
#X connect 3 0 10 0;
#X connect 3 0 13 0;
#X connect 3 0 14 0;
#X connect 3 0 17 0;
#X connect 4 0 3 0;
#X connect 10 0 18 0;
#X connect 11 0 7 0;
#X connect 11 1 7 1;
#X connect 12 0 9 0;
#X connect 13 0 18 1;
#X connect 14 0 18 2;
#X connect 15 0 26 0;
#X connect 16 0 9 1;
#X connect 17 0 18 3;
#X connect 18 1 11 0;
#X connect 19 0 21 0;
#X connect 20 0 1 0;
#X connect 21 0 23 0;
#X connect 22 0 21 0;
#X connect 23 0 18 4;
#X connect 23 1 11 2;
#X connect 24 0 10 1;
#X connect 24 1 13 1;
#X connect 24 2 14 1;
#X connect 24 3 17 1;
#X connect 25 0 4 0;
#X connect 26 0 3 1;
