#N canvas 233 221 1205 631 10;
#X obj 661 259 loadbang;
#X msg 1093 49 \; pd dsp 1;
#N canvas 58 63 450 497 NOTAS 0;
#X text 40 78 - ADICIONADO MIXER COM SITEMA DE MEMÓRIA;
#X text 40 29 LOG;
#X text 40 819 TO DO;
#X text 40 838 - MECANISMO DE CUTOFF GLOBAL PARA PLAY/STOP \, MUDANÇAS
DE CENAS MACRO \, ETC.;
#X text 40 128 - ADICIONADO MECANISMO DE VELOCIDADE RELATIVA POR CAMADA
;
#X text 40 148 - DEFINIDOS PARÂMETROS DE CADA UNIDADE DE ÁUDIO;
#X text 40 168 - PADRONIZAÇÃO DAS VARIÁVEIS;
#X text 40 208 - DESENVOLVIDO GUI PARA ABSTRAÇÃO DAS UNIDADES DE
REPRODUÇÃO;
#X text 40 228 - AMPLIADO BANCO DE ÁUDIOS PARA 8 POR CANAL - 24 TODO
;
#X text 40 188 - IMPLEMENTADO SISTEMA DE PARÂMETROS NAS UNIDADES;
#X text 40 248 - IMPLEMENTADO SISTEMA DE MEMÓRIA - TRACKS;
#X text 40 58 06/06/2018;
#X text 40 108 07/06/2018;
#X text 40 268 - SISTEMA DE CONTAGEM DO COMPASSO ATUAL;
#X text 40 298 08/06/2018;
#X text 40 318 - INICIADO DESENVOLVIMENTO DA PARTE DE EFEITOS;
#X text 40 348 09/06/2018;
#X text 40 368 - DESENVOLVIMENTO DA PARTE DE EFEITOS - SISTEMA DE GESTÃO
DE PARÂMETROS E MEMÓRIA;
#X text 40 428 19/06/2018;
#X text 40 448 - REUNIÃO DE TRABALHO COM CRISTIANO;
#X text 40 478 21 e 22/06/2018;
#X text 40 498 - PESQUISA E DESENVOLVIMENTO DOS EFEITOS - FILTRO \,
BITCRUSHER \, REVERB, f 62;
#X text 40 548 25/06/2018;
#X text 40 608 26/06/2018;
#X text 40 568 - INSTALAÇÃO DE SISTEMAS OPERACIONAIS E OFELIA - MUITO
TRAMPO, f 61;
#X text 40 658 - INÍCIO DO DESENVOLVIMENTO DA INTERFACE NO PD DROID
PARTY;
#X text 40 628 - TERMINADA PARTE DE EFEITOS - INTERFACE \, PARAMETRIZAÇÃO
E SISTEMA DE MEMÓRIA;
#X text 40 698 27/06/2018;
#X text 40 718 - INTERFACE PD DROID PARTY;
#X text 40 778 - INTERFACE PD DROID PARTY;
#X text 40 758 28/06/2018;
#X restore 1093 91 pd NOTAS;
#N canvas 384 53 613 804 MASTER_PHASE 0;
#X obj 132 85 t b f;
#X obj 132 123 /;
#X msg 132 104 1000;
#X obj 132 66 * 4;
#X floatatom 132 142 5 0 0 0 - - -;
#X obj 132 421 phasor~;
#X obj 132 219 / 4;
#X obj 155 219 t b f;
#X text 188 421 GERADOR DE FASE PRINCIPAL;
#X text 244 200 NÚMERO DE COMPASSOS NO LOOP;
#X floatatom 132 238 5 0 0 0 - - -;
#X text 174 239 FREQUÊNCIA DE 1 LOOP (4 BARS PADRÂO);
#X text 172 143 FREQUÊNCIA DE 1 COMPASSO (4 BEATS PADRÂO), f 24
;
#X obj 132 372 f;
#X msg 171 402 0;
#X obj 30 335 sel 0 1;
#X msg 30 403 0;
#X obj 30 285 tgl 30 0 empty empty empty 17 7 0 10 -262144 -1 -1 1
1;
#X obj 30 316 t f f;
#X obj 132 28 r \$0-beatMs;
#X obj 147 47 r \$0-beats/bar;
#X obj 155 200 r \$0-loopBars;
#X obj 208 555 wrap~;
#X obj 185 555 -~;
#X obj 185 574 samphold~;
#X obj 185 536 *~ 1;
#X obj 185 612 snapshot~;
#X obj 209 593 bang~;
#X obj 217 479 r \$0-beats/bar;
#X obj 206 460 r \$0-loopBars;
#X obj 217 498 t b f;
#X obj 206 517 * 1;
#X floatatom 185 631 5 0 0 0 - - -;
#X text 217 536 TOTAL DE BATIMENTOS (BEATS) NO LOOP;
#X text 222 631 BEAT ATUAL;
#X obj 212 687 s \$0-currentBeat;
#X obj 132 322 t f f;
#X obj 132 341 spigot;
#X text 176 341 SÓ ATUALIZA DIRETO COM REPRODUÇÃO LIGADA;
#X obj 132 303 * 1;
#X obj 171 285 t b f;
#X text 214 285 MULTIPLICADOR DA VELOCIDADE PADRÃO;
#X obj 185 668 t b f;
#X text 320 687 ENVIA BEAT ATUAL PARA SEQUENCIADOR MASTER;
#X obj 49 354 t b b b;
#X obj 185 649 change -1;
#X obj 338 636 s \$0-changeReset;
#X text 336 660 REINICIA FILTROS DE REPETIÇÃO NAS PISTAS;
#X obj 311 617 t b b;
#X obj 311 588 r \$0-refreshTracks;
#X text 432 588 ATUALIZA PARÂMETROS DAS PISTAS, f 19;
#X obj 185 716 s \$1-beatBang;
#X text 275 716 ENVIA BANG PARA SISTEMA DE QUANTIZAÇÃO DOS PARÂMETROS
NAS PISTAS DE ÁUDIO E GUI, f 40;
#X obj 302 28 inlet BPM_SLIDE;
#X obj 132 760 outlet~ MASTER_PHASE;
#X obj 30 28 inlet ON/OFF;
#X connect 0 0 2 0;
#X connect 0 1 1 1;
#X connect 1 0 4 0;
#X connect 2 0 1 0;
#X connect 3 0 0 0;
#X connect 4 0 6 0;
#X connect 5 0 25 0;
#X connect 5 0 54 0;
#X connect 6 0 10 0;
#X connect 7 0 6 0;
#X connect 7 1 6 1;
#X connect 10 0 39 0;
#X connect 13 0 5 0;
#X connect 14 0 5 1;
#X connect 15 0 16 0;
#X connect 15 1 44 0;
#X connect 16 0 5 0;
#X connect 17 0 18 0;
#X connect 18 0 15 0;
#X connect 18 1 37 1;
#X connect 19 0 3 0;
#X connect 20 0 3 1;
#X connect 21 0 7 0;
#X connect 22 0 23 1;
#X connect 22 0 24 1;
#X connect 23 0 24 0;
#X connect 24 0 26 0;
#X connect 25 0 22 0;
#X connect 25 0 23 0;
#X connect 26 0 32 0;
#X connect 27 0 26 0;
#X connect 28 0 30 0;
#X connect 29 0 31 0;
#X connect 30 0 31 0;
#X connect 30 1 31 1;
#X connect 31 0 25 1;
#X connect 32 0 45 0;
#X connect 36 0 37 0;
#X connect 36 1 13 1;
#X connect 37 0 13 0;
#X connect 39 0 36 0;
#X connect 40 0 39 0;
#X connect 40 1 39 1;
#X connect 42 0 51 0;
#X connect 42 1 35 0;
#X connect 44 0 13 0;
#X connect 44 1 14 0;
#X connect 44 2 48 0;
#X connect 45 0 42 0;
#X connect 48 0 51 0;
#X connect 48 1 46 0;
#X connect 49 0 48 0;
#X connect 53 0 40 0;
#X connect 55 0 17 0;
#X restore 45 122 pd MASTER_PHASE;
#X obj 45 91 tgl 30 0 empty empty empty 17 7 0 10 -262144 -1 -1 1 1
;
#X obj 577 596 dac~;
#N canvas 425 245 833 607 MASTER_SEQ 0;
#X floatatom 58 477 5 0 0 0 - - -;
#X msg 58 495 slot \$1 \, load;
#X obj 58 442 hradio 15 1 0 16 empty empty empty 0 -8 0 10 -262144
-1 -1 15;
#X obj 58 523 s \$0-TM-;
#X obj 58 561 s \$0-MM-;
#X floatatom 58 44 5 0 0 0 - - -;
#X obj 58 82 % 4;
#X obj 58 101 sel 0;
#X floatatom 82 83 5 0 0 0 - - -;
#X obj 58 25 r \$0-currentBeat;
#X obj 58 542 s \$0-FX-;
#X obj 58 458 change -1;
#X msg 79 243 0 0 0 0 1 1 2 2 3 3 4 5 6 6 7 8 9 9 9 10 11 12 13 13
14 14 15 15;
#X obj 58 294 list split 1;
#X obj 58 275 list;
#X obj 94 327 route bang;
#X obj 121 384 s \$0-masterPhase;
#X msg 121 365 0;
#X obj 94 403 s \$1-tela0_set;
#X obj 91 128 r \$1-seq;
#X text 149 128 LIGA SEQUÊNCIA MASTER NO GUI;
#X obj 58 147 spigot;
#X msg 469 257 0 0 1 2 3 3 4 5 6 6 7 8 9 9 10 10 11 12 13 14 15 15
;
#X obj 362 9 r \$1-cena0;
#X obj 362 106 s \$1-seq_set;
#X msg 362 87 1;
#X obj 452 106 s \$1-seq_set;
#X msg 452 87 1;
#X obj 452 9 r \$1-cena1;
#X obj 58 166 t b b;
#X obj 116 184 f;
#X obj 146 184 + 1;
#X msg 131 165 1;
#X obj 116 203 s \$1-bar_set;
#X obj 371 144 r \$1-resetSeq;
#X obj 452 68 t b b b b;
#X obj 362 68 t b b b b;
#X msg 413 163 0;
#X msg 442 163 1;
#X obj 398 182 f;
#X obj 371 163 t b b;
#X obj 398 201 sel 0 1;
#X obj 232 383 s \$1-seq_set;
#X msg 232 364 0;
#X msg 321 364 1;
#X obj 94 346 t b b b b;
#X text 198 203 VISOR DE BAR ATIVO;
#X connect 0 0 1 0;
#X connect 1 0 3 0;
#X connect 1 0 4 0;
#X connect 1 0 10 0;
#X connect 2 0 11 0;
#X connect 5 0 6 0;
#X connect 6 0 7 0;
#X connect 7 0 21 0;
#X connect 8 0 6 1;
#X connect 9 0 5 0;
#X connect 11 0 0 0;
#X connect 12 0 14 1;
#X connect 13 0 2 0;
#X connect 13 1 15 0;
#X connect 14 0 13 0;
#X connect 15 0 45 0;
#X connect 15 1 14 1;
#X connect 17 0 16 0;
#X connect 19 0 21 1;
#X connect 21 0 29 0;
#X connect 22 0 14 1;
#X connect 25 0 24 0;
#X connect 27 0 26 0;
#X connect 29 0 14 0;
#X connect 29 1 30 0;
#X connect 30 0 31 0;
#X connect 30 0 33 0;
#X connect 31 0 30 1;
#X connect 32 0 30 1;
#X connect 34 0 40 0;
#X connect 35 0 27 0;
#X connect 35 1 22 0;
#X connect 35 2 32 0;
#X connect 35 3 38 0;
#X connect 36 0 25 0;
#X connect 36 1 12 0;
#X connect 36 2 32 0;
#X connect 36 3 37 0;
#X connect 37 0 39 1;
#X connect 38 0 39 1;
#X connect 39 0 41 0;
#X connect 40 0 32 0;
#X connect 40 1 39 0;
#X connect 41 0 12 0;
#X connect 41 1 22 0;
#X connect 43 0 42 0;
#X connect 44 0 30 0;
#X connect 45 0 18 0;
#X connect 45 1 17 0;
#X connect 45 2 43 0;
#X connect 45 3 44 0;
#X restore 439 90 pd MASTER_SEQ;
#X obj 577 335 bit_mixbus~ \$0-M \$1;
#X obj 326 139 bit_track \$0 1 \$1;
#X obj 607 139 bit_track \$0 2 \$1;
#X obj 132 70 bng 15 250 50 0 empty empty empty 17 7 0 10 -262144 -1
-1;
#X obj 888 139 bit_track \$0 3 \$1;
#N canvas 2 53 680 418 MIXER 0;
#X obj 51 99 bit_mix1~ \$0-M 0 \$1;
#X obj 170 99 bit_mix1~ \$0-M 1 \$1;
#X obj 289 99 bit_mix1~ \$0-M 2 \$1;
#X obj 408 99 bit_mix1~ \$0-M 3 \$1;
#X obj 51 43 inlet~;
#X obj 170 43 inlet~;
#X obj 289 43 inlet~;
#X obj 408 43 inlet~;
#X obj 341 370 outlet~ DUMMY;
#X obj 444 370 outlet~ DUMMY;
#X obj 548 81 t a a a a;
#X obj 548 43 inlet ANALYSE;
#X connect 4 0 0 0;
#X connect 5 0 1 0;
#X connect 6 0 2 0;
#X connect 7 0 3 0;
#X connect 10 0 0 1;
#X connect 10 1 1 1;
#X connect 10 2 2 1;
#X connect 10 3 3 1;
#X connect 11 0 10 0;
#X coords 0 -1 1 1 477 270 1 50 80;
#X restore 45 316 pd MIXER;
#X msg 661 278 0;
#X obj 1093 30 loadbang;
#X msg 661 297 analyse \$1;
#X msg 688 278 1;
#X obj 661 316 t a a;
#X obj 45 31 r \$0-masterPhase;
#N canvas 576 80 630 643 BPM_CONTROL 0;
#X obj 51 526 t f f;
#X obj 78 545 s \$0-bpmSlide;
#X obj 51 353 expr rint($f1);
#X obj 51 488 / 140;
#X text 94 488 ESCALA DENOVO PARA 0 - 2;
#X obj 51 430 t f f;
#X obj 78 449 s \$1-bpm_set;
#X obj 327 178 r \$0-rootBPM;
#X obj 51 28 r \$1-speed;
#X text 113 229 ORIGINAL PB_SPEED;
#X msg 86 229 0.5;
#X obj 86 210 r \$1-resetSpeed;
#X obj 86 162 r \$1-done;
#X obj 86 181 bang;
#X obj 86 133 inlet RESET;
#X obj 339 331 s \$1-speed_set;
#X text 337 355 ENVIA FEEDBACK PARA INTERFACE, f 14;
#X obj 54 289 hsl 128 15 0 1 0 0 empty empty empty -2 -8 0 10 -262144
-1 -1 8636 0;
#X obj 51 315 t f f;
#X text 162 449 ENVIA FEEDBACK PARA CAIXA DE NÚMEROS DO BPM NA INTERFACE
, f 28;
#X text 168 545 ENVIA FATOR PARA FX - DEL (FORA DE USO TEMPORARIAMENTE)
, f 29;
#X obj 51 584 outlet BPM_SLIDE;
#X obj 315 82 r \$1-bpm;
#X obj 300 216 / 140;
#X text 153 162 BANG QUANDO TERMINA DE CARREGAR CENA, f 19;
#X text 375 82 RECEBE BPM DA INTERFACE;
#X text 411 178 RECEBE BPM ORIGINAL DO PROJETO, f 11;
#X obj 51 247 t a;
#X obj 300 235 / 2;
#X text 123 28 RECEBE SLIDER DE DESVIO DE BPM DA INTERFACE;
#X obj 300 101 f;
#X obj 300 63 r \$1-beatBang;
#X text 391 63 RECEBE BANG QUANTIZADO NO BEAT;
#X obj 300 149 change -1;
#X msg 344 130 set -1;
#X obj 344 111 r \$1-changeReset;
#X text 396 130 SISTEMA PARA RESETAR FILTROS DE REPETIÇÃO, f 20
;
#X obj 51 401 * 1;
#X obj 51 334 * 400;
#X text 108 382 QUANTIZA BPM ORIGINAL;
#X text 148 353 ARREDONDA 400 UNIDADES;
#X text 94 334 0 - 400;
#X obj 66 382 / 400;
#X obj 354 216 * 2;
#X obj 327 197 t f f;
#X obj 354 235 t f f;
#X msg 300 273 set \$1;
#X obj 300 254 t f f f;
#X obj 51 507 * 2;
#X connect 0 0 21 0;
#X connect 0 1 1 0;
#X connect 2 0 37 0;
#X connect 3 0 48 0;
#X connect 5 0 3 0;
#X connect 5 1 6 0;
#X connect 7 0 44 0;
#X connect 8 0 27 0;
#X connect 10 0 27 0;
#X connect 11 0 10 0;
#X connect 12 0 13 0;
#X connect 13 0 10 0;
#X connect 14 0 10 0;
#X connect 17 0 18 0;
#X connect 18 0 38 0;
#X connect 18 1 15 0;
#X connect 22 0 30 1;
#X connect 23 0 28 0;
#X connect 27 0 17 0;
#X connect 28 0 47 0;
#X connect 30 0 33 0;
#X connect 31 0 30 0;
#X connect 33 0 23 0;
#X connect 34 0 33 0;
#X connect 35 0 34 0;
#X connect 37 0 5 0;
#X connect 38 0 2 0;
#X connect 42 0 37 1;
#X connect 43 0 45 0;
#X connect 44 0 23 1;
#X connect 44 1 43 0;
#X connect 45 0 42 0;
#X connect 45 1 3 1;
#X connect 46 0 17 0;
#X connect 47 0 46 0;
#X connect 47 1 48 0;
#X connect 47 2 15 0;
#X connect 48 0 0 0;
#X coords 0 -1 1 1 135 35 1 50 270;
#X restore 132 86 pd BPM_CONTROL;
#X text 151 68 RESET BPM;
#X obj 45 139 bit_track \$0 0 \$1;
#N canvas 753 463 516 406 MEMO 0;
#X obj 57 93 bng 20 250 50 0 empty empty empty 17 7 0 10 -191407 -1
-1;
#X obj 97 98 bng 15 250 50 0 empty empty empty 17 7 0 10 -262144 -1
-1;
#X obj 57 133 bit_listbox 1 1 0 1;
#N canvas 743 393 449 294 TRACKS_MEMO 0;
#X obj 46 187 list;
#X msg 225 45 reset;
#X obj 46 45 inlet SAVE;
#X obj 73 93 t b b b;
#X obj 129 75 loadbang;
#X obj 46 74 t b b;
#X obj 282 187 list;
#X obj 46 235 outlet TO_LISTBOX;
#X obj 225 168 inlet FROM_LISTBOX;
#X obj 73 169 t l l;
#X obj 46 26 r \$0-dump_slot;
#N canvas 2 53 377 407 GLOBAL_MEMO 0;
#X obj 198 179 makefilename %s/%%s;
#X msg 198 198 set \$1;
#X obj 179 265 makefilename;
#X obj 198 160 symbol;
#X obj 179 246 symbol;
#X obj 231 141 r \$0-memoDir;
#X obj 231 122 s \$0-memoDir_load;
#X obj 47 312 symbol;
#X obj 179 104 t b b b;
#X obj 179 284 t s s;
#X obj 152 312 symbol;
#X msg 47 331 read \$1;
#X msg 152 331 write \$1;
#X obj 47 40 r \$0-globalRead;
#X obj 47 59 t b b;
#X obj 152 59 t b b;
#X obj 152 40 r \$0-globalWrite;
#X obj 47 360 outlet;
#X obj 212 227 r \$0-fsmFile;
#X connect 0 0 1 0;
#X connect 1 0 2 0;
#X connect 2 0 9 0;
#X connect 3 0 0 0;
#X connect 4 0 2 0;
#X connect 5 0 3 1;
#X connect 7 0 11 0;
#X connect 8 0 4 0;
#X connect 8 1 3 0;
#X connect 8 2 6 0;
#X connect 9 0 7 1;
#X connect 9 1 10 1;
#X connect 10 0 12 0;
#X connect 11 0 17 0;
#X connect 12 0 17 0;
#X connect 13 0 14 0;
#X connect 14 0 7 0;
#X connect 14 1 8 0;
#X connect 15 0 10 0;
#X connect 15 1 8 0;
#X connect 16 0 15 0;
#X connect 18 0 4 1;
#X restore 225 123 pd GLOBAL_MEMO;
#X text 223 100 CONTROLES DA MEMÓRIA GLOBAL;
#X obj 73 150 bit_listmaker;
#X obj 46 206 bit_memopack;
#X obj 225 206 bit_memounpack;
#X obj 92 112 s \$0-memo_flush;
#X obj 98 131 r \$0-memo_list;
#X obj 225 64 s \$0-global;
#X obj 225 26 inlet RESET;
#X text 272 45 RESETA TODAS AS TRACKS;
#X connect 0 0 14 0;
#X connect 1 0 18 0;
#X connect 2 0 5 0;
#X connect 3 0 13 0;
#X connect 3 1 16 0;
#X connect 3 2 13 2;
#X connect 4 0 3 0;
#X connect 5 0 0 0;
#X connect 5 1 3 0;
#X connect 6 0 15 1;
#X connect 8 0 15 0;
#X connect 9 0 0 1;
#X connect 9 1 6 0;
#X connect 10 0 5 0;
#X connect 11 0 7 0;
#X connect 13 0 9 0;
#X connect 14 0 7 0;
#X connect 17 0 13 1;
#X connect 19 0 1 0;
#X restore 57 114 pd TRACKS_MEMO;
#X obj 295 93 bng 20 250 50 0 empty empty empty 17 7 0 10 -191407 -1
-1;
#X obj 332 98 bng 15 250 50 0 empty empty empty 17 7 0 10 -262144 -1
-1;
#X obj 295 133 bit_listbox 1 1 0 1;
#N canvas 743 393 449 294 MIXER_MEMO 0;
#X obj 46 187 list;
#X msg 225 45 reset;
#X obj 46 45 inlet SAVE;
#X obj 73 93 t b b b;
#X obj 129 75 loadbang;
#X obj 46 74 t b b;
#X obj 282 187 list;
#X obj 46 235 outlet TO_LISTBOX;
#X obj 225 168 inlet FROM_LISTBOX;
#X obj 73 169 t l l;
#X obj 46 26 r \$0-dump_slot;
#N canvas 2 53 377 407 GLOBAL_MEMO 0;
#X obj 198 179 makefilename %s/%%s;
#X msg 198 198 set \$1;
#X obj 179 265 makefilename;
#X obj 198 160 symbol;
#X obj 179 246 symbol;
#X obj 231 141 r \$0-memoDir;
#X obj 231 122 s \$0-memoDir_load;
#X obj 47 312 symbol;
#X obj 179 104 t b b b;
#X obj 179 284 t s s;
#X obj 152 312 symbol;
#X msg 47 331 read \$1;
#X msg 152 331 write \$1;
#X obj 47 40 r \$0-globalRead;
#X obj 47 59 t b b;
#X obj 152 59 t b b;
#X obj 152 40 r \$0-globalWrite;
#X obj 47 360 outlet;
#X obj 212 227 r \$0-fsmFile;
#X connect 0 0 1 0;
#X connect 1 0 2 0;
#X connect 2 0 9 0;
#X connect 3 0 0 0;
#X connect 4 0 2 0;
#X connect 5 0 3 1;
#X connect 7 0 11 0;
#X connect 8 0 4 0;
#X connect 8 1 3 0;
#X connect 8 2 6 0;
#X connect 9 0 7 1;
#X connect 9 1 10 1;
#X connect 10 0 12 0;
#X connect 11 0 17 0;
#X connect 12 0 17 0;
#X connect 13 0 14 0;
#X connect 14 0 7 0;
#X connect 14 1 8 0;
#X connect 15 0 10 0;
#X connect 15 1 8 0;
#X connect 16 0 15 0;
#X connect 18 0 4 1;
#X restore 225 123 pd GLOBAL_MEMO;
#X text 223 100 CONTROLES DA MEMÓRIA GLOBAL;
#X obj 73 150 bit_listmaker;
#X obj 46 206 bit_memopack;
#X obj 225 206 bit_memounpack;
#X obj 225 26 inlet RESET;
#X obj 92 112 s \$0-M-memo_flush;
#X obj 98 131 r \$0-M-memo_list;
#X text 272 45 RESETA O MIXER;
#X obj 225 64 s \$0-M-global;
#X connect 0 0 14 0;
#X connect 1 0 20 0;
#X connect 2 0 5 0;
#X connect 3 0 13 0;
#X connect 3 1 17 0;
#X connect 3 2 13 2;
#X connect 4 0 3 0;
#X connect 5 0 0 0;
#X connect 5 1 3 0;
#X connect 6 0 15 1;
#X connect 8 0 15 0;
#X connect 9 0 0 1;
#X connect 9 1 6 0;
#X connect 10 0 5 0;
#X connect 11 0 7 0;
#X connect 13 0 9 0;
#X connect 14 0 7 0;
#X connect 16 0 1 0;
#X connect 18 0 13 1;
#X restore 295 114 pd MIXER_MEMO;
#X floatatom 190 54 5 0 0 0 - - -;
#X msg 190 72 slot \$1 \, load;
#X obj 190 91 t a a;
#X obj 57 35 inlet SAVE;
#X obj 190 35 inlet LOAD_SLOT;
#X obj 57 74 t b b;
#X connect 0 0 3 0;
#X connect 1 0 3 1;
#X connect 2 0 3 2;
#X connect 3 0 2 0;
#X connect 4 0 7 0;
#X connect 5 0 7 1;
#X connect 6 0 7 2;
#X connect 7 0 6 0;
#X connect 8 0 9 0;
#X connect 9 0 10 0;
#X connect 10 0 2 0;
#X connect 10 1 6 0;
#X connect 11 0 13 0;
#X connect 12 0 8 0;
#X connect 13 0 0 0;
#X connect 13 1 4 0;
#X restore 439 61 pd MEMO;
#X obj 439 40 bng 20 250 50 0 empty empty empty 17 7 0 10 -258113 -1
-1;
#N canvas 47 68 998 795 LOAD_SCENE 0;
#X obj 357 623 moses 32;
#X msg 402 642 32;
#X obj 68 161 t b b;
#X msg 95 180 0;
#X obj 68 198 f;
#X obj 91 198 + 1;
#X obj 47 183 bng 15 250 50 0 empty empty empty 17 7 0 10 -262144 -1
-1;
#X obj 161 252 symbol;
#X obj 68 313 soundfiler;
#X obj 68 370 /;
#X obj 68 389 int;
#X obj 68 408 t b f;
#X obj 47 493 spigot;
#X obj 95 427 array set \$0-barList;
#X obj 198 491 sel 0;
#X obj 101 475 t f f;
#X floatatom 371 593 5 0 0 0 - - -;
#X obj 797 84 array get \$0-barList;
#X obj 797 103 print;
#X obj 198 510 del 50;
#X obj 68 39 bng 15 250 50 0 empty empty empty 17 7 0 10 -262144 -1
-1;
#X obj 83 351 r \$0-barSamples;
#X obj 357 661 s \$0-loopBars;
#X text 817 66 DEBUG PRINT;
#X obj 68 236 div 8;
#X obj 103 236 mod 8;
#X obj 797 68 bng 15 250 50 0 empty empty empty 17 7 0 10 -262144 -1
-1;
#X obj 68 275 pack f f \$0 s s;
#X obj 68 217 t f f f f f;
#X obj 138 39 bng 15 250 50 0 empty empty empty 17 7 0 10 -262144 -1
-1;
#X obj 68 20 r \$1-cena0;
#X obj 138 20 r \$1-cena1;
#X msg 68 55 symbol AUDIOS0;
#X msg 68 74 symbol AUDIOS1;
#X obj 47 512 del 100;
#X text 102 512 ATRASO DE SEGURANÇA, f 9;
#X obj 616 83 array define \$0-barList 32;
#X obj 101 456 < 31;
#X text 92 494 32 ÁUDIOS;
#X obj 245 558 s \$1-done;
#X obj 68 332 + 100;
#X obj 96 695 s \$0-refreshTracks;
#X text 93 719 ATUALIZA PARÂMETROS NAS PISTAS QUANDO CARREGA NOVA
SESSÃO, f 19;
#X text 412 564 ANALISA DURAÇÃO EM COMPASSOS DOS ÁUDIOS E TOMA MENOR
MÚLTIPLO COMUM (LCM) COMO DURAÇÃO DO LOOP GLOBAL - ISSO FAZ A FASE
GLOBAL REINICIAR SEMPRE NUM MOMENTO QUE NÃO CORTA NENHUM ÁUDIO,
f 48;
#X obj 357 545 array get \$0-barList;
#X obj 357 564 bit_lcm;
#X text 126 393 ARMAZENA TAMANHO DOS ÁUDIOS EM COMPASSOS, f 20;
#X text 186 351 RECEBE TAMANHO DO COMPASSO EM SAMPLES;
#X text 418 623 MÁXIMO 32 COMPASSOS;
#X obj 229 676 f \$0;
#X obj 229 695 s \$1-audioDolar;
#X text 331 695 ENVIA \$0 LOCAL (BASE DO NOME DAS TABELAS DOS ÁUDIOS)
PARA [gui_waveforms] NO [gui_track], f 28;
#X obj 96 594 s \$0-masterPhase;
#X msg 96 575 1;
#X obj 198 529 t b b b b b;
#X obj 279 516 bng 15 250 50 0 empty empty empty 17 7 0 10 -262144
-1 -1;
#X obj 142 148 text define \$0-meta;
#X msg 142 129 read -c \$1/meta;
#X text 269 148 ARMAZENA METADADOS;
#X obj 68 93 symbol;
#X text 249 129 LÊ ARQUIVO DE METADADOS;
#X text 242 582 ENVIA SINAL DE CARREGADO PARA INTERFACE, f 14;
#X obj 551 166 text get \$0-meta;
#X msg 532 128 0;
#X obj 161 233 text get \$0-meta;
#X text 614 107 TABELA COM DURAÇÕES EM COMPASSOS DOS ÁUDIOS, f
22;
#X text 719 54 ÁUDIOS;
#N canvas 116 106 705 249 AUDIO_TABLES 0;
#X obj 205 74 table \$0-audio_1_1 100;
#X obj 205 93 table \$0-audio_1_2 100;
#X obj 205 112 table \$0-audio_1_3 100;
#X obj 205 131 table \$0-audio_1_4 100;
#X obj 205 150 table \$0-audio_1_5 100;
#X obj 205 169 table \$0-audio_1_6 100;
#X text 291 18 ** BANCO DE ÁUDIOS;
#X obj 362 74 table \$0-audio_2_1 100;
#X obj 362 93 table \$0-audio_2_2 100;
#X obj 362 112 table \$0-audio_2_3 100;
#X obj 362 131 table \$0-audio_2_4 100;
#X obj 362 150 table \$0-audio_2_5 100;
#X obj 362 169 table \$0-audio_2_6 100;
#X obj 205 55 table \$0-audio_1_0 100;
#X obj 362 55 table \$0-audio_2_0 100;
#X obj 48 55 table \$0-audio_0_0 100;
#X obj 48 74 table \$0-audio_0_1 100;
#X obj 48 93 table \$0-audio_0_2 100;
#X obj 48 112 table \$0-audio_0_3 100;
#X obj 48 131 table \$0-audio_0_4 100;
#X obj 48 150 table \$0-audio_0_5 100;
#X obj 48 169 table \$0-audio_0_6 100;
#X obj 48 188 table \$0-audio_0_7 100;
#X obj 205 188 table \$0-audio_1_7 100;
#X obj 362 188 table \$0-audio_2_7 100;
#X obj 519 55 table \$0-audio_3_0 100;
#X obj 519 74 table \$0-audio_3_1 100;
#X obj 519 93 table \$0-audio_3_2 100;
#X obj 519 112 table \$0-audio_3_3 100;
#X obj 519 131 table \$0-audio_3_4 100;
#X obj 519 150 table \$0-audio_3_5 100;
#X obj 519 169 table \$0-audio_3_6 100;
#X obj 519 188 table \$0-audio_3_7 100;
#X restore 616 54 pd AUDIO_TABLES;
#X obj 551 185 unpack f f;
#X msg 551 251 60000;
#X obj 551 270 /;
#X floatatom 551 204 5 0 0 0 - - -;
#X obj 723 375 * 44.1;
#X obj 756 337 samplerate~;
#X obj 723 461 * 4;
#X obj 723 394 t f f;
#N canvas 596 565 370 259 BLOCKSIZE_MSEC 0;
#X obj 93 53 loadbang;
#X obj 93 88 samplerate~;
#X obj 93 107 / 1000;
#X msg 184 89 64;
#X text 212 90 BLOCK SIZE;
#X obj 93 126 pack f 64;
#X obj 93 145 swap;
#X obj 93 164 /;
#X floatatom 153 180 8 0 0 0 - - -;
#X text 207 181 MSEC / BLOCK;
#X text 39 19 ** CALCULA TEMPO EM MSEG DE 1 BLOCO DE ÁUDIO;
#X obj 184 108 t b f;
#X obj 93 213 s \$0-blockMs;
#X connect 0 0 1 0;
#X connect 1 0 2 0;
#X connect 2 0 5 0;
#X connect 3 0 11 0;
#X connect 5 0 6 0;
#X connect 6 0 7 0;
#X connect 6 1 7 1;
#X connect 7 0 8 0;
#X connect 7 0 12 0;
#X connect 11 0 5 0;
#X connect 11 1 5 1;
#X restore 757 308 pd BLOCKSIZE_MSEC;
#X floatatom 640 204 5 0 0 0 - - -;
#X obj 756 356 / 1000;
#X obj 738 442 r \$0-beats/bar;
#X obj 640 222 s \$0-beats/bar;
#X obj 723 480 s \$0-barSamples;
#X obj 750 413 s \$0-beatSamples;
#X text 856 413 NÃO USADO!;
#X obj 570 336 s \$0-beatMs;
#X obj 551 307 t f f f;
#X obj 551 422 s \$0-FX-beatMs;
#X text 549 442 BEAT EM MS PARA MÓDULO DE EFEITOS - DELAY, f 22;
#X obj 566 365 r \$0-bpmSlide;
#X obj 551 403 * 1;
#X obj 566 384 t b f;
#X obj 551 222 t b f f f;
#X text 724 251 ENVIA REMOTAMENTE BPM DO PROJETO;
#X obj 640 251 s \$1-rootBPM;
#X obj 640 270 s \$0-rootBPM;
#X text 724 270 ENVIA LOCALMENTE BPM DO PROJETO;
#X obj 532 489 text delete \$0-meta;
#X text 530 513 DEPOIS DE LER DADOS DE BPM E DIVISÃO DELETA PRIMEIRA
LINHA E DEIXA SÓ OS ÁUDIOS, f 43;
#X obj 68 112 t b b s s;
#N canvas 395 193 263 175 AUDIO_TEST 0;
#X obj 35 117 tabwrite~ \$0-audio_0_0;
#X obj 35 79 osc~ 440;
#X obj 35 98 *~ 0.5;
#X msg 100 98 bang;
#X text 32 26 ** SOBREPÕE ÁUDIO DA TABELA 0_0 COM SINEWAVE PRA TESTE
, f 31;
#X connect 1 0 2 0;
#X connect 2 0 0 0;
#X connect 3 0 0 0;
#X restore 616 25 pd AUDIO_TEST;
#X text 659 166 LÊ PRIMEIRA LINHA COM METADADOS DE BPM E DIV;
#X text 825 480 COMPASSO EM SAMPLES;
#X text 592 204 BPM;
#X text 680 204 DIVISÃO DO COMPASSO;
#X obj 532 147 t f f b;
#X text 649 336 BEAT EM MS;
#X text 872 308 BLOCO EM MS;
#X text 270 233 OBTÉM NOMES DOS ÁUDIOS;
#X msg 68 294 read -resize -maxsize 5.292e+06 \$5/\$4 \$3-audio_\$1_\$2
;
#X text 215 276 -maxsize 120 SEG. A 44100 hz;
#X text 121 198 LOOP DE LEITURA DOS ÁUDIOS;
#X text 241 491 QUANDO TERMINA A LEITURA DOS ARQUIVOS;
#X text 93 618 LIGA FASE MASTER;
#X connect 0 0 22 0;
#X connect 0 1 1 0;
#X connect 1 0 22 0;
#X connect 2 0 4 0;
#X connect 2 1 3 0;
#X connect 3 0 4 1;
#X connect 4 0 5 0;
#X connect 4 0 28 0;
#X connect 5 0 4 1;
#X connect 6 0 4 0;
#X connect 7 0 27 3;
#X connect 8 0 40 0;
#X connect 9 0 10 0;
#X connect 10 0 11 0;
#X connect 11 0 12 0;
#X connect 11 1 13 0;
#X connect 12 0 34 0;
#X connect 14 0 19 0;
#X connect 15 0 12 1;
#X connect 15 1 14 0;
#X connect 17 0 18 0;
#X connect 19 0 54 0;
#X connect 20 0 32 0;
#X connect 21 0 9 1;
#X connect 24 0 27 0;
#X connect 25 0 27 1;
#X connect 26 0 17 0;
#X connect 27 0 108 0;
#X connect 28 0 24 0;
#X connect 28 1 25 0;
#X connect 28 2 64 0;
#X connect 28 3 13 1;
#X connect 28 4 37 0;
#X connect 29 0 33 0;
#X connect 30 0 20 0;
#X connect 31 0 29 0;
#X connect 32 0 59 0;
#X connect 33 0 59 0;
#X connect 34 0 6 0;
#X connect 37 0 15 0;
#X connect 40 0 9 0;
#X connect 44 0 45 0;
#X connect 45 0 16 0;
#X connect 45 0 0 0;
#X connect 49 0 50 0;
#X connect 53 0 52 0;
#X connect 54 0 53 0;
#X connect 54 1 41 0;
#X connect 54 2 49 0;
#X connect 54 3 39 0;
#X connect 54 4 44 0;
#X connect 55 0 54 0;
#X connect 57 0 56 0;
#X connect 59 0 98 0;
#X connect 62 0 68 0;
#X connect 63 0 104 0;
#X connect 64 0 7 0;
#X connect 68 0 71 0;
#X connect 68 1 77 0;
#X connect 69 0 70 0;
#X connect 70 0 85 0;
#X connect 71 0 91 0;
#X connect 72 0 75 0;
#X connect 73 0 78 0;
#X connect 74 0 81 0;
#X connect 75 0 74 0;
#X connect 75 1 82 0;
#X connect 77 0 80 0;
#X connect 78 0 72 1;
#X connect 79 0 74 1;
#X connect 85 0 89 0;
#X connect 85 1 84 0;
#X connect 85 2 72 0;
#X connect 88 0 90 0;
#X connect 89 0 86 0;
#X connect 90 0 89 0;
#X connect 90 1 89 1;
#X connect 91 0 69 0;
#X connect 91 1 70 1;
#X connect 91 2 94 0;
#X connect 91 3 93 0;
#X connect 98 0 2 0;
#X connect 98 1 63 0;
#X connect 98 2 57 0;
#X connect 98 3 27 4;
#X connect 104 0 96 0;
#X connect 104 1 62 0;
#X connect 104 2 73 0;
#X connect 108 0 8 0;
#X restore 316 61 pd LOAD_SCENE;
#X floatatom 478 43 5 0 0 0 - - -;
#X floatatom 308 95 5 0 0 0 - - -;
#X obj 308 117 bng 15 250 50 0 empty empty empty 17 7 0 10 -262144
-1 -1;
#X connect 0 0 13 0;
#X connect 3 0 21 0;
#X connect 3 0 8 0;
#X connect 3 0 9 0;
#X connect 3 0 11 0;
#X connect 4 0 3 0;
#X connect 7 0 5 0;
#X connect 7 1 5 1;
#X connect 8 0 12 1;
#X connect 9 0 12 2;
#X connect 10 0 19 0;
#X connect 11 0 12 3;
#X connect 12 1 7 0;
#X connect 13 0 15 0;
#X connect 14 0 1 0;
#X connect 15 0 17 0;
#X connect 16 0 15 0;
#X connect 17 0 12 4;
#X connect 17 1 7 2;
#X connect 18 0 4 0;
#X connect 19 0 3 1;
#X connect 19 0 26 0;
#X connect 21 0 12 0;
#X connect 23 0 22 0;
#X connect 25 0 22 1;
#X connect 26 0 27 0;
