#N canvas 358 66 754 809 10;
#X obj 137 515 pack f f;
#X obj 257 629 pack;
#X obj 116 629 pack;
#X obj 137 534 unpack f f;
#X obj 278 534 unpack f f;
#X obj 278 515 pack f f;
#X msg 391 648 clear;
#X msg 257 648 add vertex \$1 \$2;
#X msg 116 648 add vertex \$1 \$2;
#X msg 39 648 add close;
#X obj 182 496 int;
#X obj 323 496 int;
#X obj 116 250 f;
#X obj 139 250 + 1;
#X obj 137 477 *;
#X obj 137 496 int;
#X obj 116 458 t f f;
#X obj 278 477 *;
#X obj 278 496 int;
#X obj 257 458 t f f;
#X msg 131 231 0;
#X obj 257 420 abs;
#X obj 257 439 - 1;
#X obj 167 383 t f f f f;
#X obj 201 402 - 1;
#X text 234 339 GERA UM PIXEL A MAIS NA DIREITA DUPLICANDO ÚLTIMOS
VALORES DO Y EM CIMA E EM BAIXO, f 31;
#X obj 137 591 * 100;
#X obj 278 591 * 100;
#X obj 257 401 - 200;
#X obj 116 181 / 100;
#X obj 116 326 moses 100;
#X obj 167 345 sel 100;
#X obj 167 364 f 100;
#X obj 366 182 * 2;
#X obj 366 201 t f f;
#X obj 116 143 array size;
#X obj 278 553 array min;
#X obj 137 553 array max;
#X obj 425 182 / 2;
#X obj 173 124 t s s s;
#X obj 303 163 t f f f f f;
#X obj 278 610 -;
#X obj 137 610 -;
#X obj 452 535 t b f;
#X obj 437 554 * 1;
#X obj 437 573 t f f;
#X obj 452 516 r \$0-scale;
#X obj 425 201 t f f f;
#X obj 137 572 * -1;
#X obj 278 572 * -1;
#X text 314 572 INVERTE VALOR;
#X obj 116 162 moses 100;
#X obj 425 163 * 0.9;
#X obj 364 31 r \$1-dataBus;
#X obj 364 50 route w_main h_tracks;
#X text 503 51 RECEBE LARGURA DA ÁREA PRINCIPAL E ALTURA DAS TRACKS
PARA CALCULAR O TAMANHO DA FORMA DE ONDA DESENHADA, f 34;
#X text 449 31 RECEBE DADOS DA INTERFACE;
#X text 468 163 REDUÇÃO EM RELAÇÃO À ALTURA TOTAL DA TRACK, f
21;
#X text 524 516 FATOR DE ESCALA DO DESENHO - NÃO USADO POR ENQUANTO
, f 28;
#X obj 116 667 t a;
#X text 236 686 ÍNDICE DO ÁUDIO;
#X obj 116 705 list prepend waveform;
#X obj 116 724 list trim;
#X obj 116 753 s \$1-dataBus_set;
#X text 225 753 ENVIA DADOS PARA DESENHO NA INTERFACE;
#X obj 173 67 loadbang;
#X msg 173 105 symbol \$1-audio_\$2_\$3;
#X text 318 105 NOME DO ARRAY;
#X obj 56 107 &&;
#X obj 56 126 sel 1;
#X text 147 31 RECEBE ORDEM PARA DESENHAR;
#X obj 56 50 t f f;
#X obj 56 69 div 8;
#X obj 101 69 mod 8;
#X obj 56 31 r \$2-drawWave;
#X obj 173 86 pack \$2 \$3 \$4;
#X obj 56 88 == \$3;
#X obj 101 88 == \$4;
#X obj 116 686 list prepend \$3 \$4;
#X obj 116 288 moses 200;
#X obj 116 269 t f f;
#X obj 90 307 t b f;
#X text 21 355 ATRASO DE SEGURANÇA, f 9;
#X text 182 288 LIMITE DO LOOP;
#X obj 116 200 t b f f f f b b;
#X obj 90 355 del 0;
#X connect 0 0 3 0;
#X connect 1 0 7 0;
#X connect 2 0 8 0;
#X connect 3 0 37 0;
#X connect 3 1 37 1;
#X connect 4 0 36 0;
#X connect 4 1 36 1;
#X connect 5 0 4 0;
#X connect 6 0 59 0;
#X connect 7 0 59 0;
#X connect 8 0 59 0;
#X connect 9 0 59 0;
#X connect 10 0 0 1;
#X connect 11 0 5 1;
#X connect 12 0 80 0;
#X connect 13 0 12 1;
#X connect 14 0 15 0;
#X connect 15 0 0 0;
#X connect 16 0 2 0;
#X connect 16 1 14 0;
#X connect 17 0 18 0;
#X connect 18 0 5 0;
#X connect 19 0 1 0;
#X connect 19 1 17 0;
#X connect 20 0 12 1;
#X connect 21 0 22 0;
#X connect 22 0 19 0;
#X connect 23 0 28 0;
#X connect 23 1 1 0;
#X connect 23 2 24 0;
#X connect 23 3 2 0;
#X connect 24 0 17 0;
#X connect 26 0 42 0;
#X connect 27 0 41 0;
#X connect 28 0 21 0;
#X connect 29 0 84 0;
#X connect 30 0 16 0;
#X connect 30 1 31 0;
#X connect 31 0 32 0;
#X connect 31 1 28 0;
#X connect 32 0 23 0;
#X connect 33 0 34 0;
#X connect 34 0 79 1;
#X connect 34 1 28 1;
#X connect 35 0 51 0;
#X connect 36 0 49 0;
#X connect 37 0 48 0;
#X connect 38 0 47 0;
#X connect 39 0 35 1;
#X connect 39 1 37 2;
#X connect 39 2 36 2;
#X connect 40 0 29 1;
#X connect 40 1 30 1;
#X connect 40 2 31 1;
#X connect 40 3 32 1;
#X connect 40 4 33 0;
#X connect 41 0 1 1;
#X connect 42 0 2 1;
#X connect 43 0 44 0;
#X connect 43 1 44 1;
#X connect 44 0 45 0;
#X connect 45 0 26 1;
#X connect 45 1 27 1;
#X connect 46 0 43 0;
#X connect 47 0 42 1;
#X connect 47 1 41 1;
#X connect 47 2 44 0;
#X connect 48 0 26 0;
#X connect 49 0 27 0;
#X connect 51 1 29 0;
#X connect 52 0 38 0;
#X connect 53 0 54 0;
#X connect 54 0 40 0;
#X connect 54 1 52 0;
#X connect 59 0 78 0;
#X connect 61 0 62 0;
#X connect 62 0 63 0;
#X connect 65 0 75 0;
#X connect 66 0 39 0;
#X connect 68 0 69 0;
#X connect 69 0 35 0;
#X connect 71 0 72 0;
#X connect 71 1 73 0;
#X connect 72 0 76 0;
#X connect 73 0 77 0;
#X connect 74 0 71 0;
#X connect 75 0 66 0;
#X connect 76 0 68 0;
#X connect 77 0 68 1;
#X connect 78 0 61 0;
#X connect 79 0 81 0;
#X connect 79 1 9 0;
#X connect 80 0 79 0;
#X connect 80 1 13 0;
#X connect 81 0 85 0;
#X connect 81 1 30 0;
#X connect 84 0 12 0;
#X connect 84 1 10 0;
#X connect 84 2 11 0;
#X connect 84 3 14 1;
#X connect 84 4 17 1;
#X connect 84 5 20 0;
#X connect 84 6 6 0;
#X connect 85 0 12 0;
