#N canvas 120 260 562 440 10;
#X obj 88 131 vu 10 120 \$0-vu empty -1 -8 0 8 -66577 -1 1 0;
#X obj 69 131 vsl 12 119 0 1 0 0 \$0-vol_gui \$0-vol_gui_set empty
0 -9 0 10 -262144 -1 -1 5600 1;
#X obj 222 36 inlet~;
#X obj 419 36 inlet;
#X obj 63 91 hsl 57 12 0 1 0 0 \$0-pan_gui \$0-pan_gui_set panL:-100
2 6 0 10 -262144 -1 -1 0 1;
#N canvas 272 550 183 232 mute 0;
#X obj 40 33 inlet~;
#X obj 40 204 outlet~;
#X obj 56 70 r \$0-mute;
#X obj 56 92 == 0;
#X obj 40 167 *~;
#X obj 56 136 line~;
#X obj 56 114 pack 0 5;
#X connect 0 0 4 0;
#X connect 2 0 3 0;
#X connect 3 0 6 0;
#X connect 4 0 1 0;
#X connect 5 0 4 1;
#X connect 6 0 5 0;
#X restore 223 141 pd mute;
#N canvas 242 333 549 401 solo 0;
#X obj 69 42 inlet~;
#X obj 69 338 outlet~;
#X obj 296 96 r \$0-solo;
#X obj 296 120 t b f;
#X obj 296 230 f;
#X obj 296 256 sel 1;
#X obj 85 136 sel 0;
#X obj 131 210 f;
#X msg 85 210 1;
#X obj 131 163 t b;
#X text 293 33 inspirado em [mixstrip1.mmb~];
#X obj 85 271 line~;
#X obj 85 249 pack 0 5;
#X obj 69 298 *~;
#X obj 213 193 loadbang;
#X obj 296 149 s \$1-mix_solo_trig;
#X obj 296 190 r \$1-mix_solo_ping;
#X obj 296 285 s \$1-mix_solo_pong;
#X obj 85 96 r \$1-mix_solo_state;
#X connect 0 0 13 0;
#X connect 2 0 3 0;
#X connect 3 0 15 0;
#X connect 3 1 4 1;
#X connect 3 1 7 1;
#X connect 4 0 5 0;
#X connect 5 0 17 0;
#X connect 6 0 8 0;
#X connect 6 1 9 0;
#X connect 7 0 12 0;
#X connect 8 0 12 0;
#X connect 9 0 7 0;
#X connect 11 0 13 1;
#X connect 12 0 11 0;
#X connect 13 0 1 0;
#X connect 14 0 8 0;
#X connect 16 0 4 0;
#X connect 18 0 6 0;
#X restore 223 172 pd solo;
#X obj 286 268 line~;
#X obj 286 226 r \$0-pan;
#X obj 442 330 r \$0-throw;
#X obj 69 348 *~ 1;
#X obj 381 348 *~ 1;
#X obj 70 392 throw~ \$1-mixmaster_L;
#X obj 381 392 throw~ \$1-mixmaster_R;
#N canvas 542 203 356 280 vu_meter 0;
#X obj 128 226 s \$0-vu;
#X obj 73 39 catch~ \$0-pref;
#X obj 183 39 catch~ \$0-posf;
#X obj 73 135 *~ 0;
#X obj 183 135 *~ 1;
#X obj 204 87 r \$0-pre;
#X obj 204 109 == 0;
#X obj 208 173 r \$0-analyse;
#X obj 128 191 bit_peaks~;
#X connect 1 0 3 0;
#X connect 2 0 4 0;
#X connect 3 0 8 0;
#X connect 4 0 8 0;
#X connect 5 0 6 0;
#X connect 5 0 3 1;
#X connect 6 0 4 1;
#X connect 7 0 8 2;
#X connect 8 0 0 0;
#X restore 419 133 pd vu_meter;
#X obj 299 83 throw~ \$0-pref;
#X obj 299 189 throw~ \$0-posf;
#X obj 87 103 bng 8 250 50 0 \$0-resetPan_gui \$0-resetPan_gui_set
empty 17 7 0 10 -262144 -1 -1;
#X floatatom 69 259 5 0 0 0 - #0-db_gui_set #0-db_gui;
#X text 103 259 db;
#N canvas 919 483 415 301 volume 0;
#X obj 70 32 inlet~;
#X obj 86 170 line~;
#X obj 70 192 *~;
#X obj 86 67 r \$0-vol;
#X msg 151 147 set \$1;
#X obj 151 126 - 100;
#X obj 151 105 rmstodb;
#X obj 266 89 + 100;
#X obj 70 252 outlet~;
#X obj 70 222 hip~ 5;
#X obj 266 111 dbtorms;
#X obj 266 133 sqrt;
#X obj 86 88 pow 2;
#X msg 86 149 \$1 10;
#X obj 151 170 s \$0-db_gui_set;
#X obj 266 170 s \$0-vol_gui_set;
#X obj 266 67 r \$0-db_gui;
#X connect 0 0 2 0;
#X connect 1 0 2 1;
#X connect 2 0 9 0;
#X connect 3 0 12 0;
#X connect 4 0 14 0;
#X connect 5 0 4 0;
#X connect 6 0 5 0;
#X connect 7 0 10 0;
#X connect 9 0 8 0;
#X connect 10 0 11 0;
#X connect 11 0 15 0;
#X connect 12 0 13 0;
#X connect 12 0 6 0;
#X connect 13 0 1 0;
#X connect 16 0 7 0;
#X restore 222 110 pd volume;
#X obj 222 392 outlet~ L;
#X obj 292 392 outlet~ R;
#X floatatom 66 71 3 0 12 0 - #0-gain_gui_set #0-gain_gui;
#X text 88 71 gain;
#N canvas 656 281 261 316 ganho 0;
#X obj 106 200 line~;
#X msg 106 179 \$1 10;
#X obj 106 78 r \$0-gain;
#X obj 92 41 inlet~;
#X obj 92 271 outlet~;
#X obj 92 233 *~;
#X obj 106 130 + 100;
#X obj 106 152 dbtorms;
#X obj 106 110 clip 0 12;
#X connect 0 0 5 1;
#X connect 1 0 0 0;
#X connect 2 0 8 0;
#X connect 3 0 5 0;
#X connect 5 0 4 0;
#X connect 6 0 7 0;
#X connect 7 0 1 0;
#X connect 8 0 6 0;
#X restore 222 66 pd ganho;
#N canvas 88 119 672 452 controles 0;
#X obj 41 31 inlet;
#X obj 236 142 > 0;
#X obj 269 142 > 0;
#X obj 302 142 > 0;
#X obj 110 142 clip 0 1;
#X obj 173 142 clip 0 1;
#X obj 335 142 > 0;
#X obj 401 142 t b;
#X obj 41 142 clip 0 12;
#X obj 397 70 r \$1-mix_ctl;
#X obj 397 89 route \$2;
#X obj 460 89 route global;
#X obj 41 105 route gain vol pan solo mute analyse pre throw reset
;
#X obj 368 142 > 0;
#X obj 41 181 bit_param \$0-gain \$0-memo 0 0;
#X obj 41 201 bit_param \$0-vol \$0-memo 1 1;
#X obj 41 221 bit_param \$0-pan \$0-memo 2 0.5;
#X obj 41 241 bit_param \$0-solo \$0-memo 3 0;
#X obj 41 261 bit_param \$0-mute \$0-memo 4 0;
#X obj 41 281 bit_param \$0-analyse \$0-memo 5 1;
#X obj 41 301 bit_param \$0-pre \$0-memo 6 0;
#X obj 41 321 bit_param \$0-throw \$0-memo 7 1;
#X text 295 215 MEMÓRIA LOCAL;
#X msg 401 176 reset;
#X obj 296 389 s \$0-memo_bang;
#X obj 296 370 r \$1-refreshTracks;
#X text 417 370 REENVIA PARÂMETROS ATUAIS QUANDO TERMINA DE CARREGAR
UMA CENA, f 32;
#X obj 296 254 loadbang;
#X obj 296 273 f \$0;
#X msg 296 292 symbol \$1-memo;
#X obj 296 311 s \$1-memo_list;
#X text 294 335 ENVIA NOME DA MEMÓRIA LOCAL PARA [memopack];
#X obj 359 254 r \$1-memo_flush;
#X obj 296 195 bit_memo \$0-memo 8;
#X obj 397 41 r \$1-global;
#X connect 0 0 12 0;
#X connect 1 0 17 0;
#X connect 2 0 18 0;
#X connect 3 0 19 0;
#X connect 4 0 15 0;
#X connect 5 0 16 0;
#X connect 6 0 20 0;
#X connect 7 0 23 0;
#X connect 8 0 14 0;
#X connect 9 0 10 0;
#X connect 9 0 11 0;
#X connect 10 0 12 0;
#X connect 11 0 12 0;
#X connect 12 0 8 0;
#X connect 12 1 4 0;
#X connect 12 2 5 0;
#X connect 12 3 1 0;
#X connect 12 4 2 0;
#X connect 12 5 3 0;
#X connect 12 6 6 0;
#X connect 12 7 13 0;
#X connect 12 8 7 0;
#X connect 13 0 21 0;
#X connect 23 0 33 1;
#X connect 25 0 24 0;
#X connect 27 0 28 0;
#X connect 28 0 29 0;
#X connect 29 0 30 0;
#X connect 32 0 28 0;
#X connect 34 0 12 0;
#X restore 419 64 pd controles;
#X msg 286 247 \$1 10;
#X obj 56 279 tgl 15 0 \$0-solo_gui \$0-solo_gui_set S 5 8 0 10 -24198
-24198 -262144 1 1;
#X obj 77 279 tgl 15 0 \$0-mute_gui \$0-mute_gui_set M 5 8 0 10 -258699
-258699 -262144 1 1;
#X obj 114 282 tgl 12 0 \$0-pre_gui \$0-pre_gui_set P 4 7 0 8 -262144
-262144 -62784 0 1;
#X obj 99 282 tgl 12 0 \$0-analyse_gui \$0-analyse_gui_set A 4 7 0
8 -250685 -250685 -262144 1 1;
#X obj 223 296 bit_cospan~;
#N canvas 35 191 948 276 colors_labels 0;
#X obj 162 71 sel 0 1;
#X msg 162 124 color 0 0 13;
#X obj 328 71 sel 0 1;
#X msg 328 124 color 0 0 16;
#X obj 42 124 i;
#X obj 162 30 r \$0-mute;
#X obj 328 30 r \$0-solo;
#X obj 42 72 * 200;
#X obj 42 94 - 100;
#X obj 663 71 sel 0 1;
#X obj 663 30 r \$0-pre;
#X msg 663 124 color 0 0 18;
#X msg 392 159 color 16 16 0;
#X msg 226 159 color 13 13 0;
#X msg 727 159 color 18 18 0;
#X msg 42 152 label panL:\$1;
#X msg 776 52 0.5;
#X obj 495 71 sel 0 1;
#X obj 495 30 r \$0-analyse;
#X msg 495 124 color 0 0 19;
#X msg 559 159 color 19 19 0;
#X obj 162 202 s \$0-mute_gui_set;
#X obj 328 202 s \$0-solo_gui_set;
#X obj 495 202 s \$0-analyse_gui_set;
#X obj 663 202 s \$0-pre_gui_set;
#X obj 776 30 r \$0-resetPan_gui;
#X obj 42 30 r \$0-pan;
#X obj 42 202 s \$0-pan_gui_set;
#X obj 776 74 s \$0-pan_gui_set;
#X connect 0 0 1 0;
#X connect 0 1 13 0;
#X connect 1 0 21 0;
#X connect 2 0 3 0;
#X connect 2 1 12 0;
#X connect 3 0 22 0;
#X connect 4 0 15 0;
#X connect 5 0 0 0;
#X connect 6 0 2 0;
#X connect 7 0 8 0;
#X connect 8 0 4 0;
#X connect 9 0 11 0;
#X connect 9 1 14 0;
#X connect 10 0 9 0;
#X connect 11 0 24 0;
#X connect 12 0 22 0;
#X connect 13 0 21 0;
#X connect 14 0 24 0;
#X connect 15 0 27 0;
#X connect 16 0 28 0;
#X connect 17 0 19 0;
#X connect 17 1 20 0;
#X connect 18 0 17 0;
#X connect 19 0 23 0;
#X connect 20 0 23 0;
#X connect 25 0 16 0;
#X connect 26 0 7 0;
#X restore 419 104 pd colors_labels;
#X connect 2 0 25 0;
#X connect 3 0 26 0;
#X connect 5 0 6 0;
#X connect 6 0 16 0;
#X connect 6 0 32 0;
#X connect 7 0 32 1;
#X connect 8 0 27 0;
#X connect 9 0 11 1;
#X connect 9 0 10 1;
#X connect 10 0 12 0;
#X connect 11 0 13 0;
#X connect 20 0 5 0;
#X connect 25 0 20 0;
#X connect 25 0 15 0;
#X connect 27 0 7 0;
#X connect 32 0 10 0;
#X connect 32 0 21 0;
#X connect 32 1 11 0;
#X connect 32 1 22 0;
#X coords 0 -1 1 1 82 250 1 50 50;
