#N canvas 518 90 859 806 10;
#X obj 219 669 *~;
#X obj 264 653 line~;
#X obj 219 550 +~ 1;
#X obj 219 612 *~;
#X obj 219 569 +~;
#X obj 258 552 samphold~;
#X obj 219 512 samphold~;
#X obj 219 531 *~;
#X obj 379 557 -~ 0.5;
#X obj 379 576 *~ 0.5;
#X obj 379 595 cos~;
#X obj 219 631 +~;
#X obj 597 377 /;
#X obj 582 435 phasor~;
#X obj 639 451 +~ 0.5;
#X obj 639 470 wrap~;
#X obj 219 445 t f f;
#X obj 690 41 s \$0-lb;
#X obj 690 22 loadbang;
#X obj 499 550 +~ 1;
#X obj 499 612 *~;
#X obj 499 569 +~;
#X obj 538 552 samphold~;
#X obj 499 512 samphold~;
#X obj 499 531 *~;
#X obj 659 557 -~ 0.5;
#X obj 659 576 *~ 0.5;
#X obj 659 595 cos~;
#X obj 222 362 hsl 100 15 0 1 0 0 empty empty empty -2 -8 0 10 -262144
-1 -1 619 1;
#X obj 266 464 / 44100;
#X obj 219 426 *;
#X obj 431 407 hsl 100 15 0 1 0 0 empty empty empty -2 -8 0 10 -262144
-1 -1 4851 0;
#X obj 428 423 *;
#X obj 214 161 s \$0-point;
#X obj 309 161 s \$0-amp;
#X obj 264 615 r \$0-amp;
#X obj 428 388 r \$0-point;
#X obj 264 634 pack 0 50;
#X obj 219 488 sig~;
#X text 688 451 GERADOR DAS 2 FASES DE LEITURA, f 19;
#X text 217 320 TAMANHO DO SLICE;
#X obj 305 426 r \$0-lb;
#X obj 305 445 samplerate~;
#X obj 266 483 s \$0-chunkSize;
#X obj 597 320 r \$0-chunkSize;
#N canvas 448 227 400 448 SAMPLE 0;
#X msg 49 252 set \$1-audio_\$2_\$3;
#X obj 49 373 outlet;
#X obj 49 156 change -1;
#X msg 63 137 set -1;
#X text 115 137 SISTEMA PARA RESETAR FILTROS DE REPETIÇÃO, f 20
;
#N canvas 444 331 191 230 CUTOFF_NOW 0;
#X obj 47 47 inlet;
#X obj 47 162 outlet;
#X obj 74 95 s \$0-cutoff;
#X obj 68 114 r \$1-blockMs;
#X obj 47 76 t f b;
#X obj 47 133 pipe;
#X connect 0 0 4 0;
#X connect 3 0 5 1;
#X connect 4 0 5 0;
#X connect 4 1 2 0;
#X connect 5 0 1 0;
#X restore 49 185 pd CUTOFF_NOW;
#X text 140 185 DESLIGA ÁUDIO PARA ATUALIZAR VALOR, f 18;
#X obj 49 214 t b f;
#X obj 116 344 array size;
#X obj 116 287 route set;
#X obj 49 271 t a a;
#X obj 116 306 symbol;
#X obj 116 325 t b s;
#X obj 116 373 s \$0-size;
#X text 189 344 OBTÉM TAMANHO DO ÁUDIO EM SAMPLES, f 16;
#X obj 49 79 route sample;
#X text 134 79 ROTEIA SAMPLE;
#X obj 49 233 pack \$2 \$3 0;
#X obj 63 118 r \$2-changeReset;
#X obj 49 60 route \$3;
#X obj 49 41 r \$1-trackBus_set;
#X text 164 41 RECEBE CONTROLES DA [bit_track];
#X text 110 60 ROTEIA POR CANAL;
#X connect 0 0 10 0;
#X connect 2 0 5 0;
#X connect 3 0 2 0;
#X connect 5 0 7 0;
#X connect 7 0 17 0;
#X connect 7 1 17 2;
#X connect 8 0 13 0;
#X connect 9 0 11 0;
#X connect 10 0 1 0;
#X connect 10 1 9 0;
#X connect 11 0 12 0;
#X connect 12 0 8 0;
#X connect 12 1 8 1;
#X connect 15 0 2 0;
#X connect 17 0 0 0;
#X connect 18 0 3 0;
#X connect 19 0 15 0;
#X connect 20 0 19 0;
#X restore 297 569 pd SAMPLE;
#X obj 219 755 outlet~ GRAIN;
#X text 109 50 ROTEIA POR CAMADA;
#X text 109 69 ROTEIA POR TOQUE;
#X obj 48 142 change -1;
#X obj 48 88 unpack f f f f;
#X obj 219 343 r \$0-chunk;
#X obj 234 388 r \$0-size;
#X text 301 388 TAMANHO DO ÁUDIO EM SAMPLES, f 16;
#X obj 234 407 t f f;
#X obj 402 161 s \$0-chunk;
#X obj 219 726 hip~ 5;
#N canvas 65 561 315 269 CUTOFF 0;
#X obj 49 175 *~;
#X obj 112 156 vline~;
#X obj 112 99 f;
#X obj 112 80 t b;
#X obj 49 31 inlet~ SIGNAL;
#X obj 49 214 outlet~;
#X obj 86 86 bng 15 250 50 0 empty empty empty 17 7 0 10 -262144 -1
-1;
#X obj 112 61 r \$0-cutoff;
#X obj 193 61 r \$1-blockMs;
#X obj 112 118 pack f f;
#X obj 193 80 t f f;
#X obj 220 99 * 2;
#X msg 112 137 0 \$1 \, 1 \$1 \$2;
#X connect 0 0 5 0;
#X connect 1 0 0 1;
#X connect 2 0 9 0;
#X connect 3 0 2 0;
#X connect 4 0 0 0;
#X connect 6 0 2 0;
#X connect 7 0 3 0;
#X connect 8 0 10 0;
#X connect 9 0 12 0;
#X connect 10 0 2 1;
#X connect 10 1 11 0;
#X connect 11 0 9 1;
#X connect 12 0 1 0;
#X restore 219 688 pd CUTOFF;
#N canvas 303 580 192 226 DSP_CUTOFF 0;
#X obj 42 41 inlet~;
#X obj 42 118 *~;
#X obj 57 99 vline~;
#X obj 42 157 outlet~;
#X obj 57 80 r \$0-dspCutoff;
#X connect 0 0 1 0;
#X connect 1 0 3 0;
#X connect 2 0 1 1;
#X connect 4 0 2 0;
#X restore 219 707 pd DSP_CUTOFF;
#X obj 48 50 route \$3;
#X obj 48 69 route \$4;
#X text 79 123 ACTIVE;
#X text 426 365 PONTO DE LEITURA;
#X obj 219 588 tabread4~ \$2-audio_0_0;
#X obj 499 588 tabread4~ \$2-audio_0_0;
#X obj 219 650 *~ 1;
#X msg 567 107 set -1;
#X obj 214 142 change -1;
#X obj 309 142 change -1;
#X obj 402 142 change -1;
#X text 692 387 ACELERA FASE PARA ATUALIZAR PONTO DE LEITURA, f 18
;
#X text 565 150 REINICIA [change], f 8;
#X msg 621 416 0;
#X obj 428 442 sig~;
#X text 634 359 CALCULA FASE DO GRÃO;
#X msg 646 387 10000;
#X obj 402 104 f;
#X text 433 104 CHUNK;
#X obj 309 104 f;
#X text 340 104 AMP;
#X text 244 104 POINT;
#X msg 48 450 0;
#X obj 48 469 switch~;
#X text 46 493 DSP INTERNO;
#X obj 48 209 sel 0 1;
#X msg 597 358 1;
#X obj 48 123 f;
#X obj 597 339 t b f;
#X obj 582 416 f;
#X obj 582 301 t b b;
#X obj 145 247 t b b b;
#X obj 145 285 t b b;
#X obj 214 104 f;
#X obj 214 123 spigot;
#X obj 309 123 spigot;
#X obj 402 123 spigot;
#X msg 511 88 1;
#X msg 481 88 0;
#X obj 481 107 t f f f;
#X msg 79 450 1;
#X msg 56 383 stop;
#X obj 460 59 t b b b b;
#X obj 63 343 s \$0-dspCutoff;
#X msg 78 250 stop;
#X obj 145 266 del 5;
#X msg 63 314 0 20;
#X msg 145 314 1 20;
#X obj 48 402 del 22;
#X obj 145 228 t b b b b;
#X obj 48 228 t b b b b b b;
#X obj 48 421 t b b;
#X obj 48 190 spigot 1;
#X msg 93 171 1;
#X msg 123 171 0;
#X text 109 190 ENQUANTO ESTIVER DESLIGANDO NÃO RECEBE NOVOS TOQUES
, f 27;
#X obj 567 126 t a a a;
#X obj 48 31 r \$1-granularBus;
#X text 157 31 RECEBE CONTROLES DA INTERFACE;
#X obj 567 88 r \$2-changeReset;
#X connect 0 0 57 0;
#X connect 1 0 0 1;
#X connect 2 0 4 0;
#X connect 3 0 11 0;
#X connect 4 0 63 0;
#X connect 5 0 4 1;
#X connect 6 0 7 0;
#X connect 7 0 2 0;
#X connect 8 0 9 0;
#X connect 9 0 10 0;
#X connect 10 0 3 1;
#X connect 11 0 65 0;
#X connect 12 0 88 1;
#X connect 13 0 14 0;
#X connect 13 0 6 1;
#X connect 13 0 7 1;
#X connect 13 0 8 0;
#X connect 13 0 5 1;
#X connect 14 0 15 0;
#X connect 15 0 23 1;
#X connect 15 0 24 1;
#X connect 15 0 25 0;
#X connect 15 0 22 1;
#X connect 16 0 38 0;
#X connect 16 1 29 0;
#X connect 18 0 17 0;
#X connect 19 0 21 0;
#X connect 20 0 11 1;
#X connect 21 0 64 0;
#X connect 22 0 21 1;
#X connect 23 0 24 0;
#X connect 24 0 19 0;
#X connect 25 0 26 0;
#X connect 26 0 27 0;
#X connect 27 0 20 1;
#X connect 28 0 30 0;
#X connect 29 0 43 0;
#X connect 30 0 16 0;
#X connect 31 0 32 0;
#X connect 32 0 73 0;
#X connect 35 0 37 0;
#X connect 36 0 31 0;
#X connect 37 0 1 0;
#X connect 38 0 6 0;
#X connect 38 0 23 0;
#X connect 41 0 42 0;
#X connect 42 0 29 1;
#X connect 44 0 87 0;
#X connect 45 0 64 0;
#X connect 45 0 63 0;
#X connect 49 0 111 0;
#X connect 50 0 86 0;
#X connect 50 1 92 0;
#X connect 50 2 78 0;
#X connect 50 3 76 0;
#X connect 51 0 28 0;
#X connect 52 0 54 0;
#X connect 54 0 30 1;
#X connect 54 1 32 1;
#X connect 56 0 46 0;
#X connect 57 0 58 0;
#X connect 58 0 56 0;
#X connect 59 0 60 0;
#X connect 60 0 50 0;
#X connect 63 0 3 0;
#X connect 64 0 20 0;
#X connect 65 0 0 0;
#X connect 66 0 115 0;
#X connect 67 0 33 0;
#X connect 68 0 34 0;
#X connect 69 0 55 0;
#X connect 72 0 13 1;
#X connect 73 0 5 0;
#X connect 73 0 22 0;
#X connect 75 0 88 0;
#X connect 76 0 95 0;
#X connect 78 0 94 0;
#X connect 81 0 82 0;
#X connect 84 0 109 0;
#X connect 84 1 108 0;
#X connect 85 0 12 0;
#X connect 86 0 49 0;
#X connect 87 0 85 0;
#X connect 87 1 12 1;
#X connect 88 0 13 0;
#X connect 89 0 88 0;
#X connect 89 1 72 0;
#X connect 90 0 104 0;
#X connect 90 1 101 0;
#X connect 90 2 75 0;
#X connect 91 0 106 0;
#X connect 91 1 89 0;
#X connect 92 0 93 0;
#X connect 93 0 67 0;
#X connect 94 0 68 0;
#X connect 95 0 69 0;
#X connect 96 0 98 0;
#X connect 97 0 98 0;
#X connect 98 0 93 1;
#X connect 98 1 94 1;
#X connect 98 2 95 1;
#X connect 99 0 82 0;
#X connect 100 0 107 0;
#X connect 101 0 92 0;
#X connect 101 1 78 0;
#X connect 101 2 76 0;
#X connect 101 3 96 0;
#X connect 103 0 104 0;
#X connect 104 0 91 0;
#X connect 105 0 102 0;
#X connect 106 0 102 0;
#X connect 107 0 110 0;
#X connect 108 0 90 0;
#X connect 108 1 100 0;
#X connect 108 2 99 0;
#X connect 108 3 103 0;
#X connect 109 0 107 0;
#X connect 109 1 105 0;
#X connect 109 2 103 0;
#X connect 109 3 66 0;
#X connect 109 4 97 0;
#X connect 109 5 113 0;
#X connect 110 0 81 0;
#X connect 110 1 112 0;
#X connect 111 0 84 0;
#X connect 112 0 111 1;
#X connect 113 0 111 1;
#X connect 115 0 67 0;
#X connect 115 1 68 0;
#X connect 115 2 69 0;
#X connect 116 0 59 0;
#X connect 118 0 66 0;
