#N canvas 207 150 1097 836 10;
#X obj 180 394 wrap~;
#X obj 44 981 *~ 1;
#X obj 180 375 *~;
#X obj 180 591 *~;
#X obj 180 668 +~;
#X obj 370 392 wrap~;
#X obj 347 392 -~;
#X obj 347 613 *~;
#X obj 488 613 *~;
#X obj 362 546 samphold~;
#X obj 847 248 tgl 15 0 \$0-random_gui \$0-random_gui_set empty 17
7 0 10 -262144 -1 -1 0 1;
#X text 867 247 RANDOM;
#X obj 503 575 -~ 1;
#X obj 503 594 abs~;
#X text 140 592 CHUNK;
#X obj 347 632 samphold~;
#X obj 398 613 *~;
#X obj 347 430 /~;
#X text 787 226 SLICES;
#X obj 45 1134 hip~ 5;
#X obj 45 1077 *~;
#N canvas 64 306 425 406 ENVELOPE_GENERATOR 0;
#X obj 53 305 min~;
#X obj 53 324 clip~ 0 1;
#X obj 53 363 outlet~;
#X obj 53 267 -~ 1;
#X text 52 41 * BASEADO EM J06.enveloping.pd;
#X floatatom 138 250 5 0 0 0 - - -;
#X obj 92 267 * -1;
#X obj 53 248 +~;
#X msg 351 195 20;
#X msg 261 176 100;
#X msg 222 157 500;
#X obj 53 77 inlet~ PHASE;
#X obj 53 286 *~ -20;
#X obj 111 286 *~ 20;
#X text 51 23 ** ENVELOPE COM RAMPAS VARIÁVEIS;
#X obj 222 119 r \$0-slcs;
#X obj 222 138 moses 8;
#X obj 261 157 moses 16;
#X obj 306 176 moses 32;
#X msg 306 195 50;
#X obj 222 213 f;
#X obj 138 175 sel 0 1;
#X msg 138 213 500;
#X obj 138 194 t b b;
#X obj 222 232 spigot;
#X msg 255 213 1;
#X msg 282 213 0;
#X obj 173 194 t b b;
#X obj 138 156 r \$0-mode;
#X connect 0 0 1 0;
#X connect 1 0 2 0;
#X connect 3 0 12 0;
#X connect 5 0 6 0;
#X connect 5 0 13 1;
#X connect 6 0 12 1;
#X connect 7 0 3 0;
#X connect 7 0 13 0;
#X connect 8 0 20 0;
#X connect 9 0 20 0;
#X connect 10 0 20 0;
#X connect 11 0 7 0;
#X connect 12 0 0 0;
#X connect 13 0 0 1;
#X connect 15 0 16 0;
#X connect 16 0 10 0;
#X connect 16 1 17 0;
#X connect 17 0 9 0;
#X connect 17 1 18 0;
#X connect 18 0 19 0;
#X connect 18 1 8 0;
#X connect 19 0 20 0;
#X connect 20 0 24 0;
#X connect 21 0 23 0;
#X connect 21 1 27 0;
#X connect 22 0 5 0;
#X connect 23 0 22 0;
#X connect 23 1 26 0;
#X connect 24 0 5 0;
#X connect 25 0 24 1;
#X connect 26 0 24 1;
#X connect 27 0 20 0;
#X connect 27 1 25 0;
#X connect 28 0 21 0;
#X restore 60 1058 pd ENVELOPE_GENERATOR;
#X obj 847 228 hradio 15 1 0 8 \$0-sample_gui \$0-sample_gui_set empty
0 -8 0 10 -262144 -1 -1 6;
#X obj 44 109 wrap~;
#X text 971 226 SAMPLE;
#X obj 195 649 samphold~;
#X text 134 668 OFFSET;
#X obj 44 90 *~ 1;
#N canvas 833 567 255 208 LOOP/BARS 0;
#X obj 53 69 pack f f;
#X obj 53 88 swap;
#X obj 53 107 /;
#X floatatom 53 126 5 0 0 0 - - -;
#X obj 53 154 outlet;
#X obj 122 51 t b f;
#X obj 53 32 r \$0-bars;
#X obj 122 32 r \$1-loopBars;
#X connect 0 0 1 0;
#X connect 1 0 2 0;
#X connect 1 1 2 1;
#X connect 2 0 3 0;
#X connect 3 0 4 0;
#X connect 5 0 0 0;
#X connect 5 1 0 1;
#X connect 6 0 0 0;
#X connect 7 0 5 0;
#X restore 65 52 pd LOOP/BARS;
#N canvas 2 687 245 209 TOTAL_SAMPLES 0;
#X obj 71 99 *;
#X obj 71 136 outlet;
#X floatatom 71 118 8 0 0 0 - - -;
#X obj 86 80 t b f;
#X obj 71 42 r \$0-bars;
#X obj 86 61 r \$1-barSamples;
#X connect 0 0 2 0;
#X connect 2 0 1 0;
#X connect 3 0 0 0;
#X connect 3 1 0 1;
#X connect 4 0 0 0;
#X connect 5 0 3 0;
#X restore 65 962 pd TOTAL_SAMPLES;
#X floatatom 757 226 4 1 128 0 - #0-slices_gui_set #0-slices_gui;
#X obj 44 857 *~;
#X obj 44 914 +~;
#X obj 44 876 wrap~;
#X obj 44 895 /~;
#X obj 44 933 wrap~;
#X obj 180 464 -~;
#X obj 180 483 abs~;
#N canvas 65 421 315 269 CUTOFF 0;
#X obj 49 175 *~;
#X obj 112 156 vline~;
#X obj 112 99 f;
#X obj 112 80 t b;
#X obj 49 31 inlet~ SIGNAL;
#X obj 49 214 outlet~;
#X obj 86 86 bng 15 250 50 0 empty empty empty 17 7 0 10 -262144 -1
-1;
#X obj 112 61 r \$0-cutoff;
#X obj 193 61 r \$1-blockMs;
#X obj 112 214 outlet BANG;
#X obj 112 118 pack f f;
#X obj 193 80 t f f;
#X obj 220 99 * 2;
#X msg 112 137 0 \$1 \, 1 \$1 \$2;
#X connect 0 0 5 0;
#X connect 1 0 0 1;
#X connect 2 0 10 0;
#X connect 3 0 2 0;
#X connect 3 0 9 0;
#X connect 4 0 0 0;
#X connect 6 0 2 0;
#X connect 7 0 3 0;
#X connect 8 0 11 0;
#X connect 10 0 13 0;
#X connect 11 0 2 1;
#X connect 11 1 12 0;
#X connect 12 0 10 1;
#X connect 13 0 1 0;
#X restore 45 1096 pd CUTOFF;
#X obj 196 877 expr 1/$f1;
#X obj 195 572 expr 1/$f1;
#X obj 213 1099 bng 15 250 50 0 empty empty empty 17 7 0 10 -262144
-1 -1;
#X obj 213 1115 tabplay~;
#X obj 213 1134 dac~;
#X obj 258 1134 spigot;
#X obj 291 1118 tgl 15 0 empty empty empty 17 7 0 10 -262144 -1 -1
0 1;
#X obj 44 341 -~;
#X obj 44 360 abs~;
#X obj 181 896 *;
#X obj 59 838 /;
#X obj 59 819 t b f;
#X obj 44 22 inlet~ PHASE;
#X obj 45 1153 outlet~;
#X obj 44 1010 tabread4~ \$1-audio_0_0;
#N canvas 65 601 256 206 RELATIVE_SPEED 0;
#X obj 60 36 inlet;
#X obj 60 121 * 1;
#X obj 60 150 outlet;
#X obj 95 103 t b f;
#X obj 95 65 r \$0-speed;
#N canvas 329 295 387 429 QUANTIZE_SLICE 0;
#X obj 72 94 inlet;
#X obj 57 55 bang;
#X text 115 94 ENTRADA DO VALOR;
#N canvas 444 387 191 230 CUTOFF_NOW 0;
#X obj 47 47 inlet;
#X obj 47 162 outlet;
#X obj 74 95 s \$0-cutoff;
#X obj 68 114 r \$1-blockMs;
#X obj 47 76 t f b;
#X obj 47 133 pipe;
#X connect 0 0 4 0;
#X connect 3 0 5 1;
#X connect 4 0 5 0;
#X connect 4 1 2 0;
#X connect 5 0 1 0;
#X restore 57 317 pd CUTOFF_NOW;
#X text 148 317 DESLIGA ÁUDIO PARA ATUALIZAR VALOR, f 18;
#X obj 57 36 r \$0-sliceBang;
#X text 154 36 SISTEMA LOCAL DE QUANTIZAÇÃO NO SLICE, f 20;
#X obj 111 124 r \$1-quantize;
#X obj 57 230 spigot;
#X msg 90 211 0;
#X msg 120 211 1;
#X obj 57 249 t b b;
#X obj 72 182 t f b;
#X obj 57 288 f;
#N canvas 170 698 275 198 GATE 0;
#X obj 158 41 inlet GATE;
#X obj 52 41 inlet DATA;
#X obj 52 60 t a a;
#X obj 152 107 spigot;
#X obj 158 60 t f f;
#X obj 52 136 outlet DATA;
#X obj 152 136 outlet DATA;
#X obj 185 88 == 0;
#X obj 52 107 spigot 1;
#X connect 0 0 4 0;
#X connect 1 0 2 0;
#X connect 2 0 8 0;
#X connect 2 1 3 0;
#X connect 3 0 6 0;
#X connect 4 0 8 1;
#X connect 4 1 7 0;
#X connect 7 0 3 1;
#X connect 8 0 5 0;
#X restore 72 143 pd GATE;
#X text 202 124 RECEBE CONTROLE PARA DESLIGAR QUANTIZAÇÃO QUANDO
O DADO VEM DA MEMÓRIA DOS MOMENTOS, f 20;
#X text 106 231 PASSA DADO UMA VEZ QUANDO RECEBE BANG QUANTIZADO,
f 18;
#X obj 57 366 outlet VALUE;
#X connect 0 0 14 0;
#X connect 1 0 8 0;
#X connect 3 0 17 0;
#X connect 5 0 1 0;
#X connect 7 0 14 1;
#X connect 8 0 11 0;
#X connect 9 0 8 1;
#X connect 10 0 8 1;
#X connect 11 0 13 0;
#X connect 11 1 9 0;
#X connect 12 0 13 1;
#X connect 12 1 10 0;
#X connect 13 0 3 0;
#X connect 14 0 12 0;
#X connect 14 1 13 0;
#X restore 95 84 pd QUANTIZE_SLICE;
#X connect 0 0 1 0;
#X connect 1 0 2 0;
#X connect 3 0 1 0;
#X connect 3 1 1 1;
#X connect 4 0 5 0;
#X connect 5 0 3 0;
#X restore 65 71 pd RELATIVE_SPEED;
#X text 233 1097 DEBUG AUDIO;
#N canvas 244 686 343 210 PHASE_MODE 0;
#X obj 175 127 *~;
#X obj 46 127 *~;
#X obj 175 61 inlet~ PHASE_SLICER;
#X obj 46 61 inlet~ PHASE_LINEAR;
#X obj 46 166 outlet~;
#X text 42 21 ** DEIXA PASSAR A FASE LINEAR OU RECORTADA;
#X obj 61 108 == 0;
#X obj 190 92 r \$0-mode;
#X connect 0 0 4 0;
#X connect 1 0 4 0;
#X connect 2 0 0 0;
#X connect 3 0 1 0;
#X connect 6 0 1 1;
#X connect 7 0 0 1;
#X connect 7 0 6 0;
#X restore 44 685 pd PHASE_MODE;
#N canvas 244 686 343 210 PHASE_MODE 0;
#X obj 175 127 *~;
#X obj 46 127 *~;
#X obj 175 61 inlet~ PHASE_SLICER;
#X obj 46 61 inlet~ PHASE_LINEAR;
#X obj 46 166 outlet~;
#X text 42 21 ** DEIXA PASSAR A FASE LINEAR OU RECORTADA;
#X obj 61 108 == 0;
#X obj 190 92 r \$0-mode;
#X connect 0 0 4 0;
#X connect 1 0 4 0;
#X connect 2 0 0 0;
#X connect 3 0 1 0;
#X connect 6 0 1 1;
#X connect 7 0 0 1;
#X connect 7 0 6 0;
#X restore 60 1039 pd PHASE_MODE;
#N canvas 626 115 915 828 CONTROL_MEMORY 0;
#X obj 58 22 inlet EXTERNAL_CONTROL;
#X obj 58 166 clip 0 7;
#X obj 58 233 f;
#X obj 58 185 int;
#X text 495 266 MEMÓRIA LOCAL;
#X msg 607 227 reset;
#X obj 496 295 loadbang;
#X obj 496 314 f \$0;
#X msg 496 333 symbol \$1-memo;
#X obj 496 352 s \$1-memo_list;
#X text 494 376 ENVIA NOME DA MEMÓRIA LOCAL PARA [memopack];
#X obj 559 295 r \$1-memo_flush;
#N canvas 2 53 373 233 CHECK_ARGUMENT_2 0;
#X obj 34 27 loadbang;
#X obj 34 122 sel symbol;
#X obj 34 84 t b f;
#X obj 109 103 makefilename $%d-;
#X obj 91 141 bang;
#X obj 91 189 outlet;
#X obj 117 28 inlet RESET;
#X obj 34 46 del 5;
#X text 224 103 VERIFICA SE O ARGUMENTO EXISTE, f 16;
#X text 188 152 INICIALIZA PARÂMETRO COM ARGUMENTO SE EXISTIR, f
24;
#X text 62 65 ARGUMENTO;
#X msg 34 65 2;
#X obj 34 103 symbol \$2-;
#X obj 91 160 list append \$2;
#X connect 0 0 7 0;
#X connect 1 1 4 0;
#X connect 2 0 12 0;
#X connect 2 1 3 0;
#X connect 3 0 1 1;
#X connect 4 0 13 0;
#X connect 6 0 7 0;
#X connect 7 0 11 0;
#X connect 11 0 2 0;
#X connect 12 0 1 0;
#X connect 13 0 5 0;
#X restore 674 108 pd CHECK_ARGUMENT_2;
#X obj 647 89 t b b;
#X text 800 108 EXEMPLO;
#X obj 58 99 clip 0 1;
#X obj 58 118 int;
#X obj 58 310 int;
#X obj 58 377 int;
#X obj 58 444 int;
#X obj 58 502 clip 0 1;
#X obj 58 521 int;
#X obj 58 569 clip 0 1;
#X obj 58 588 int;
#X obj 58 636 clip 0 1;
#X obj 58 655 int;
#X obj 58 703 clip 0 1;
#X obj 58 722 int;
#X obj 58 770 clip 0 1;
#X obj 58 789 int;
#X obj 58 837 clip 0 1;
#X obj 58 856 int;
#X obj 58 204 bit_param \$0-sample \$0-memo 1 0;
#X obj 58 252 bit_param \$0-speed \$0-memo 2 1;
#X obj 58 540 bit_param \$0-random \$0-memo 6 0;
#X obj 58 607 bit_param \$0-pattern \$0-memo 7 0;
#X obj 58 674 bit_param \$0-freeze \$0-memo 8 0;
#X obj 58 741 bit_param \$0-invertRange \$0-memo 9 0;
#X obj 58 808 bit_param \$0-invertSlice \$0-memo 10 0;
#X obj 58 875 bit_param \$0-toggle \$0-memo 11 0;
#X obj 496 246 bit_memo \$0-memo 12;
#X obj 58 137 bit_param \$0-dsp \$0-memo 0 0;
#X obj 58 329 bit_param \$0-slices \$0-memo 3 16;
#X obj 58 396 bit_param \$0-range \$0-memo 4 16;
#X obj 58 463 bit_param \$0-offset \$0-memo 5 0;
#X obj 265 22 r \$1-global;
#X obj 496 697 s \$0-memo_bang;
#X obj 496 678 r \$1-refreshTracks;
#X text 617 678 REENVIA PARÂMETROS ATUAIS QUANDO TERMINA DE CARREGAR
UMA CENA, f 32;
#X obj 462 475 list fromsymbol;
#X obj 462 456 list split 1;
#X obj 462 494 list split 5;
#X obj 496 513 list tosymbol;
#X obj 496 532 list append;
#X obj 496 570 list trim;
#X obj 462 427 r \$0-memo_bus;
#X text 553 427 BYPASS PARÂMETROS / VALORES;
#X text 546 494 CORTA \$0- (XXXX-) DO NOME DO PARÂMETRO;
#X obj 58 291 clip 1 256;
#X obj 58 358 clip 1 256;
#X obj 58 425 clip 0 255;
#X obj 58 70 route trackMode sample speed slices range offset random
pattern freeze invertRange invertSlice toggle reset, f 107;
#X obj 386 22 r \$3-trackBus;
#X obj 386 41 route \$2;
#X text 447 41 ROTEIA POR CAMADA;
#X text 477 22 RECEBE CONTROLES DA INTERFACE;
#X obj 496 551 list prepend \$2;
#X text 599 551 INCLUI CAMADA;
#X obj 496 599 s \$3-trackBus_set;
#X text 493 623 ENVIA CONTROLES PARA GUI;
#X obj 317 535 list prepend activeSlice;
#X obj 317 516 r \$0-activeSlice;
#X text 315 493 ENVIA SLICE ATIVO;
#X text 361 747 ** PROBLEMA - O COMEMO ESTÁ DESEMPACOTANDO AS MENSAGENS
NA ORDEM CONTRÁRIA DA MEMÓRIA< PRECISO CORRIGIR ISSO;
#X connect 0 0 61 0;
#X connect 1 0 3 0;
#X connect 2 0 33 0;
#X connect 3 0 32 0;
#X connect 5 0 40 1;
#X connect 6 0 7 0;
#X connect 7 0 8 0;
#X connect 8 0 9 0;
#X connect 11 0 7 0;
#X connect 13 0 5 0;
#X connect 13 1 12 0;
#X connect 15 0 16 0;
#X connect 16 0 41 0;
#X connect 17 0 42 0;
#X connect 18 0 43 0;
#X connect 19 0 44 0;
#X connect 20 0 21 0;
#X connect 21 0 34 0;
#X connect 22 0 23 0;
#X connect 23 0 35 0;
#X connect 24 0 25 0;
#X connect 25 0 36 0;
#X connect 26 0 27 0;
#X connect 27 0 37 0;
#X connect 28 0 29 0;
#X connect 29 0 38 0;
#X connect 30 0 31 0;
#X connect 31 0 39 0;
#X connect 45 0 61 0;
#X connect 47 0 46 0;
#X connect 49 0 51 0;
#X connect 50 0 49 0;
#X connect 50 1 53 1;
#X connect 51 1 52 0;
#X connect 52 0 53 0;
#X connect 53 0 66 0;
#X connect 54 0 68 0;
#X connect 55 0 50 0;
#X connect 58 0 17 0;
#X connect 59 0 18 0;
#X connect 60 0 19 0;
#X connect 61 0 15 0;
#X connect 61 1 1 0;
#X connect 61 2 2 0;
#X connect 61 3 58 0;
#X connect 61 4 59 0;
#X connect 61 5 60 0;
#X connect 61 6 20 0;
#X connect 61 7 22 0;
#X connect 61 8 24 0;
#X connect 61 9 26 0;
#X connect 61 10 28 0;
#X connect 61 11 30 0;
#X connect 61 12 13 0;
#X connect 62 0 63 0;
#X connect 63 0 61 0;
#X connect 66 0 54 0;
#X connect 70 0 66 0;
#X connect 71 0 70 0;
#X restore 892 52 pd CONTROL_MEMORY;
#X obj 892 22 inlet EXTERNAL_CONTROL;
#X obj 59 800 clip 1 8;
#X obj 181 848 clip 0 7;
#X obj 226 829 - 1;
#X obj 415 781 s \$0-slcs;
#X obj 328 724 r \$0-slices;
#X obj 195 356 r \$0-slcs;
#X obj 195 553 r \$0-slcs;
#X obj 362 411 r \$0-slcs;
#X floatatom 757 246 4 1 128 0 - #0-range_gui_set #0-range_gui;
#X text 788 246 RANGE;
#X text 787 266 OFFSET;
#X floatatom 757 266 4 0 127 0 - #0-offset_gui_set #0-offset_gui;
#X obj 59 724 r \$0-range;
#X obj 181 724 r \$0-offset;
#X obj 847 288 tgl 15 0 \$0-freeze_gui \$0-freeze_gui_set empty 17
7 0 10 -262144 -1 -1 0 1;
#X floatatom 757 286 4 0 0 0 - #0-speed_gui_set #0-speed_gui;
#X obj 927 248 tgl 15 0 \$0-invertRange_gui \$0-invertRange_gui_set
empty 17 7 0 10 -262144 -1 -1 0 1;
#X text 787 287 SPEED;
#N canvas 287 250 549 327 ACTIVE_SLICE 0;
#X obj 230 164 snapshot~;
#X text 343 56 BANG DA CADEIA DE RENDER \, NA MESMA FRAMERATE DO GUI
, f 25;
#X text 117 20 ** CALCULA E ENVIA SLICE ATIVO NA TAXA DE MENSAGEM;
#X text 338 270 ENVIA LOCALMENTE;
#X obj 49 114 *~;
#X obj 72 133 wrap~;
#X obj 49 133 -~;
#X obj 64 95 r \$0-slcs;
#X obj 49 56 inlet~ FINAL_PHASE;
#X text 131 96 MULTIPLICA PELOS SLICES, f 12;
#X text 115 133 APENAS INTEIROS;
#X obj 230 231 change -1;
#X msg 244 212 set -1;
#X obj 244 193 r \$1-changeReset;
#X text 296 212 SISTEMA PARA RESETAR FILTROS DE REPETIÇÃO, f 20
;
#X obj 230 56 r \$3-dataBus;
#X obj 230 75 route renderBang;
#X obj 230 94 bang;
#X obj 230 270 s \$0-activeSlice;
#X connect 0 0 11 0;
#X connect 4 0 6 0;
#X connect 4 0 5 0;
#X connect 5 0 6 1;
#X connect 6 0 0 0;
#X connect 7 0 4 1;
#X connect 8 0 4 0;
#X connect 11 0 18 0;
#X connect 12 0 11 0;
#X connect 13 0 12 0;
#X connect 15 0 16 0;
#X connect 16 0 17 0;
#X connect 17 0 0 0;
#X restore 213 949 pd ACTIVE_SLICE;
#X obj 341 165 switch~;
#X text 339 189 DSP INTERNO;
#N canvas 305 556 243 256 DSP_CUTOFF 0;
#X obj 50 41 inlet~;
#X obj 50 158 *~;
#X obj 65 139 vline~;
#X obj 50 197 outlet~;
#X obj 111 41 inlet DSP;
#X obj 111 60 moses 1;
#X obj 65 120 pack 0 50;
#X obj 134 120 pack 0 20;
#X connect 0 0 1 0;
#X connect 1 0 3 0;
#X connect 2 0 1 1;
#X connect 4 0 5 0;
#X connect 5 0 6 0;
#X connect 5 1 7 0;
#X connect 6 0 2 0;
#X connect 7 0 2 0;
#X restore 45 1115 pd DSP_CUTOFF;
#X obj 341 79 moses 1;
#X obj 341 98 t f f;
#X obj 418 165 f;
#N canvas 183 331 666 449 SAMPLE 0;
#X msg 39 115 set \$1-audio_\$2_\$3;
#X obj 39 77 t b f f;
#X obj 39 96 pack \$1 \$2 0;
#X obj 39 39 r \$0-sample;
#X obj 39 154 outlet;
#X floatatom 178 132 5 0 0 0 - - -;
#X obj 218 95 + 0;
#X obj 233 38 loadbang;
#X obj 233 57 f \$2;
#X obj 218 114 array get \$1-barList 0 1;
#X obj 218 393 s \$0-bars;
#X obj 233 76 * 8;
#X text 375 113 OBTÉM NÚMERO DE COMPASSOS DA LISTA GERADA NA ABERTURA
DE UMA CENA, f 34;
#X text 269 57 INICIALIZA BANCO 0/1/2/3;
#X obj 218 153 t f f;
#X obj 300 243 r \$3-beats/bar;
#X text 397 243 RECEBE DIVISÃO DO COMPASSO NO PROJETO;
#X obj 285 262 * 4;
#X text 284 393 ENVIA NÚMERO DE COMPASSOS PARA [pd LOOP/BARS];
#X obj 285 281 t b f f;
#X obj 285 174 spigot;
#X obj 318 158 tgl 15 0 empty empty empty 17 7 0 10 -262144 -1 -1 0
1;
#X text 342 195 - BLOQUEAR QUANDO RECEBE PRESET DE UM MOMENTO;
#X obj 324 300 s \$0-slices_gui;
#X obj 304 319 s \$0-range_gui;
#X msg 285 300 0;
#X obj 285 338 s \$0-offset_gui;
#X text 342 155 - NOVO [param] sampleReset;
#X text 342 175 - ACIONADO COM 2 CLIQUES NO SELETOR;
#N canvas 329 295 387 429 QUANTIZE_SLICE 0;
#X obj 72 94 inlet;
#X obj 57 55 bang;
#X text 115 94 ENTRADA DO VALOR;
#N canvas 444 387 191 230 CUTOFF_NOW 0;
#X obj 47 47 inlet;
#X obj 47 162 outlet;
#X obj 74 95 s \$0-cutoff;
#X obj 68 114 r \$1-blockMs;
#X obj 47 76 t f b;
#X obj 47 133 pipe;
#X connect 0 0 4 0;
#X connect 3 0 5 1;
#X connect 4 0 5 0;
#X connect 4 1 2 0;
#X connect 5 0 1 0;
#X restore 57 317 pd CUTOFF_NOW;
#X text 148 317 DESLIGA ÁUDIO PARA ATUALIZAR VALOR, f 18;
#X obj 57 36 r \$0-sliceBang;
#X text 154 36 SISTEMA LOCAL DE QUANTIZAÇÃO NO SLICE, f 20;
#X obj 111 124 r \$1-quantize;
#X obj 57 230 spigot;
#X msg 90 211 0;
#X msg 120 211 1;
#X obj 57 249 t b b;
#X obj 72 182 t f b;
#X obj 57 288 f;
#N canvas 170 698 275 198 GATE 0;
#X obj 158 41 inlet GATE;
#X obj 52 41 inlet DATA;
#X obj 52 60 t a a;
#X obj 152 107 spigot;
#X obj 158 60 t f f;
#X obj 52 136 outlet DATA;
#X obj 152 136 outlet DATA;
#X obj 185 88 == 0;
#X obj 52 107 spigot 1;
#X connect 0 0 4 0;
#X connect 1 0 2 0;
#X connect 2 0 8 0;
#X connect 2 1 3 0;
#X connect 3 0 6 0;
#X connect 4 0 8 1;
#X connect 4 1 7 0;
#X connect 7 0 3 1;
#X connect 8 0 5 0;
#X restore 72 143 pd GATE;
#X text 202 124 RECEBE CONTROLE PARA DESLIGAR QUANTIZAÇÃO QUANDO
O DADO VEM DA MEMÓRIA DOS MOMENTOS, f 20;
#X text 106 231 PASSA DADO UMA VEZ QUANDO RECEBE BANG QUANTIZADO,
f 18;
#X obj 57 366 outlet VALUE;
#X connect 0 0 14 0;
#X connect 1 0 8 0;
#X connect 3 0 17 0;
#X connect 5 0 1 0;
#X connect 7 0 14 1;
#X connect 8 0 11 0;
#X connect 9 0 8 1;
#X connect 10 0 8 1;
#X connect 11 0 13 0;
#X connect 11 1 9 0;
#X connect 12 0 13 1;
#X connect 12 1 10 0;
#X connect 13 0 3 0;
#X connect 14 0 12 0;
#X connect 14 1 13 0;
#X restore 39 58 pd QUANTIZE_SLICE;
#X connect 0 0 4 0;
#X connect 1 0 2 0;
#X connect 1 1 2 2;
#X connect 1 2 6 0;
#X connect 2 0 0 0;
#X connect 3 0 29 0;
#X connect 6 0 9 0;
#X connect 7 0 8 0;
#X connect 8 0 11 0;
#X connect 9 0 5 0;
#X connect 9 0 14 0;
#X connect 11 0 6 1;
#X connect 14 0 10 0;
#X connect 14 1 20 0;
#X connect 15 0 17 1;
#X connect 17 0 19 0;
#X connect 19 0 25 0;
#X connect 19 1 24 0;
#X connect 19 2 23 0;
#X connect 20 0 17 0;
#X connect 21 0 20 1;
#X connect 25 0 26 0;
#X connect 29 0 1 0;
#X restore 213 994 pd SAMPLE;
#X obj 341 22 r \$0-dsp;
#X obj 484 22 r \$0-random;
#X obj 611 22 r \$0-pattern;
#X obj 484 60 * 1;
#X obj 611 79 * 2;
#X obj 484 98 +;
#X obj 484 79 t f f;
#X obj 484 136 f;
#X obj 484 117 sel 3;
#X text 514 136 LEMBRA ÚLTIMO BOTÃO ACIONADO QUANDO RANDOM E PATTERN
ESTÃO PRESSIONADOS, f 35;
#X text 524 166 MODO - 0/1/2 - NORMAL/RANDOM/PATTERN;
#X obj 638 391 tabread~ \$0-patternArray;
#X obj 247 295 wrap~;
#X obj 247 276 *~;
#X obj 262 257 r \$0-slcs;
#X obj 59 189 r \$0-invertRange;
#X obj 461 251 s \$0-mode;
#X obj 176 189 r \$0-invertSlice;
#X obj 59 227 * 1;
#X obj 176 227 * 2;
#X obj 59 265 +;
#X obj 59 246 t f f;
#X obj 176 246 t b f f;
#X obj 59 284 sel 0 1 2 3;
#X msg 59 303 0 0 0;
#X msg 99 303 1 1 1;
#X msg 139 303 0 1 1;
#X msg 179 303 1 0 0;
#X obj 59 322 unpack f f f;
#X text 867 287 FREEZE;
#X text 947 247 INVERT RANGE;
#X obj 927 268 tgl 15 0 \$0-invertSlice_gui \$0-invertSlice_gui_set
empty 17 7 0 10 -262144 -1 -1 0 1;
#X text 947 267 INVERT SLICE;
#X obj 847 268 tgl 15 0 \$0-pattern_gui \$0-pattern_gui_set empty 17
7 0 10 -262144 -1 -1 0 1;
#X text 867 267 PATTERN;
#X obj 927 288 tgl 15 0 \$0-toggle_gui \$0-toggle_gui_set empty 17
7 0 10 -262144 -1 -1 0 1;
#X text 947 287 TOGGLE;
#X text 80 360 INVERTE FASE;
#X text 216 483 INVERTE SLICE;
#N canvas 2 137 338 166 NOTE 0;
#X text 42 40 I1 - I2 - M;
#X text 43 54 0 - 0 - 0 = normal;
#X text 43 68 1 - 1 - 1 = range contr \, slices normal;
#X text 43 83 0 - 1 - 1 = range normal \, slices contr;
#X text 43 99 1 - 0 - 0 = contr total;
#X restore 171 280 pd NOTE;
#X obj 484 165 t f f;
#X obj 461 213 ||;
#X text 290 295 QUANTIZA AMOSTRAGEM NO SLICE, f 19;
#N canvas 2 305 284 238 SLICE_BANG 0;
#X obj 57 119 snapshot~;
#X obj 81 100 bang~;
#X obj 57 138 change -1;
#X obj 57 157 bang;
#X obj 57 176 s \$0-sliceBang;
#X obj 57 71 inlet~;
#X text 35 30 ** ENVIA BANG QUANTIZADO NO SLICE;
#X connect 0 0 2 0;
#X connect 1 0 0 0;
#X connect 2 0 3 0;
#X connect 3 0 4 0;
#X connect 5 0 0 0;
#X restore 247 409 pd SLICE_BANG;
#X obj 484 194 > 0;
#X msg 260 60 1;
#X msg 220 60 0;
#X obj 738 22 r \$0-freeze;
#X obj 413 594 == 0;
#X obj 484 232 t b f;
#X obj 461 232 ||;
#X obj 488 464 *~;
#X obj 638 464 *~;
#X obj 589 410 - 1;
#X text 486 336 RANDOM;
#X text 636 339 PATTERN;
#X text 413 632 FREEZE;
#N canvas 907 117 493 697 PATTERN_GENERATOR 0;
#X obj 126 513 t f f;
#X obj 144 313 list;
#X obj 81 227 random 100;
#X obj 81 246 moses 50;
#X obj 81 313 list;
#X obj 102 294 list append;
#X obj 81 332 route bang;
#X msg 81 351 0;
#X obj 138 351 t a a;
#X obj 165 370 list length;
#X obj 165 408 random;
#X obj 172 446 list split 1;
#X obj 165 389 t b f;
#X text 222 427 CORTA LISTA;
#X obj 138 427 list split 0;
#X text 257 446 TOMA PRIMEIRO ITEM DA LISTA RESTANTE, f 18;
#X text 218 389 GERA PONTO DE CORTE DA LISTA ENTRE 0 E (TAMANHO - 1)
, f 28;
#X text 153 332 CONVERTE LISTA VAZIA EM 0;
#X text 193 494 SORTEIA SLICE;
#X text 168 513 ENVIA PARA TABELA E PARA MEMÓRIA TEMPORÁRIA;
#X text 161 256 PORCENTAGEM DE CHANCE DE REPETIR UM DOS NÚMEROS DA
MEMÓRIA TEMPORÁRIA, f 35;
#X obj 126 265 bang;
#X obj 81 265 bang;
#X obj 156 230 + 25;
#X obj 81 179 f;
#X obj 104 179 + 1;
#X msg 96 160 0;
#X obj 156 567 array set \$0-patternArray;
#X text 318 567 ESCREVE NA TABELA;
#X obj 136 74 r \$0-slcs;
#X obj 126 532 /;
#X text 157 532 NORMALIZA DE 0 - 1 (DIVIDE POR SLICES);
#X obj 126 494 random 16;
#X obj 156 211 random 25;
#X text 219 210 RANDOMIZA PORCENTAGEM ENTRE 25-50%;
#X text 162 13 ** GERADOR DE PATTERN;
#X obj 81 45 inlet PATTERN_STATE;
#X obj 81 64 sel 1;
#X obj 136 93 t b f;
#X text 227 145 ARRAY DO PATTERN;
#X obj 99 551 t b f;
#X obj 39 163 t b;
#X obj 39 628 spigot 1;
#X obj 84 609 < 15;
#X text 121 609 SLICES - 1;
#X obj 105 590 - 1;
#X obj 81 112 f 16;
#X obj 81 198 t b f f;
#X obj 39 609 del 0;
#X obj 230 121 array define \$0-patternArray 256;
#X obj 81 131 t b b b b f f f;
#X text 36 652 LOOP A CADA BLOCO DE ÁUDIO - GARANTIDO PELO [del 0]
;
#X connect 0 0 30 0;
#X connect 0 1 5 0;
#X connect 1 0 5 1;
#X connect 2 0 3 0;
#X connect 3 0 22 0;
#X connect 3 1 21 0;
#X connect 4 0 6 0;
#X connect 5 0 1 0;
#X connect 5 0 4 1;
#X connect 6 0 7 0;
#X connect 6 1 8 0;
#X connect 7 0 0 0;
#X connect 8 0 14 0;
#X connect 8 1 9 0;
#X connect 9 0 12 0;
#X connect 10 0 14 1;
#X connect 11 0 0 0;
#X connect 12 0 10 0;
#X connect 12 1 10 1;
#X connect 14 1 11 0;
#X connect 21 0 32 0;
#X connect 22 0 4 0;
#X connect 23 0 3 1;
#X connect 24 0 25 0;
#X connect 24 0 47 0;
#X connect 25 0 24 1;
#X connect 26 0 24 1;
#X connect 29 0 38 0;
#X connect 30 0 40 0;
#X connect 32 0 0 0;
#X connect 33 0 23 0;
#X connect 36 0 37 0;
#X connect 37 0 46 0;
#X connect 38 0 46 0;
#X connect 38 1 46 1;
#X connect 40 0 48 0;
#X connect 40 1 27 0;
#X connect 41 0 24 0;
#X connect 42 0 41 0;
#X connect 43 0 42 1;
#X connect 45 0 43 1;
#X connect 46 0 50 0;
#X connect 47 0 2 0;
#X connect 47 1 27 1;
#X connect 47 2 43 0;
#X connect 48 0 42 0;
#X connect 50 0 24 0;
#X connect 50 1 26 0;
#X connect 50 2 33 0;
#X connect 50 3 5 1;
#X connect 50 4 30 1;
#X connect 50 5 32 1;
#X connect 50 6 45 0;
#X restore 638 362 pd PATTERN_GENERATOR;
#X obj 611 98 t b f f;
#X obj 611 60 t f f;
#X text 315 949 ENVIA SLICE ATIVO PARA GUI;
#X obj 362 527 sig~ 1;
#X obj 484 213 t b f f;
#X obj 362 508 == 0;
#X text 528 251 MODO DA FASE - NORMAL / SLICER;
#X obj 738 41 t f f;
#X obj 489 359 noise~;
#X obj 511 527 wrap~;
#X obj 488 527 -~;
#X obj 489 397 *~ 0.5;
#X obj 489 416 +~ 0.5;
#X obj 488 546 /~;
#X obj 488 508 *~;
#X obj 540 473 r \$0-slcs;
#X obj 540 492 t f f;
#X obj 562 391 sel 0;
#X obj 589 429 t f f;
#X obj 503 445 == 0;
#X obj 489 378 samphold~;
#X obj 341 136 pipe 50;
#X obj 220 22 r \$1-masterPhase;
#X obj 220 41 sel 0;
#X text 218 84 DESLIGA DSP QUANDO DESLIGA FASE GLOBAL, f 14;
#N canvas 329 295 387 429 QUANTIZE_SLICE 0;
#X obj 72 94 inlet;
#X obj 57 55 bang;
#X text 115 94 ENTRADA DO VALOR;
#N canvas 444 387 191 230 CUTOFF_NOW 0;
#X obj 47 47 inlet;
#X obj 47 162 outlet;
#X obj 74 95 s \$0-cutoff;
#X obj 68 114 r \$1-blockMs;
#X obj 47 76 t f b;
#X obj 47 133 pipe;
#X connect 0 0 4 0;
#X connect 3 0 5 1;
#X connect 4 0 5 0;
#X connect 4 1 2 0;
#X connect 5 0 1 0;
#X restore 57 317 pd CUTOFF_NOW;
#X text 148 317 DESLIGA ÁUDIO PARA ATUALIZAR VALOR, f 18;
#X obj 57 36 r \$0-sliceBang;
#X text 154 36 SISTEMA LOCAL DE QUANTIZAÇÃO NO SLICE, f 20;
#X obj 111 124 r \$1-quantize;
#X obj 57 230 spigot;
#X msg 90 211 0;
#X msg 120 211 1;
#X obj 57 249 t b b;
#X obj 72 182 t f b;
#X obj 57 288 f;
#N canvas 170 698 275 198 GATE 0;
#X obj 158 41 inlet GATE;
#X obj 52 41 inlet DATA;
#X obj 52 60 t a a;
#X obj 152 107 spigot;
#X obj 158 60 t f f;
#X obj 52 136 outlet DATA;
#X obj 152 136 outlet DATA;
#X obj 185 88 == 0;
#X obj 52 107 spigot 1;
#X connect 0 0 4 0;
#X connect 1 0 2 0;
#X connect 2 0 8 0;
#X connect 2 1 3 0;
#X connect 3 0 6 0;
#X connect 4 0 8 1;
#X connect 4 1 7 0;
#X connect 7 0 3 1;
#X connect 8 0 5 0;
#X restore 72 143 pd GATE;
#X text 202 124 RECEBE CONTROLE PARA DESLIGAR QUANTIZAÇÃO QUANDO
O DADO VEM DA MEMÓRIA DOS MOMENTOS, f 20;
#X text 106 231 PASSA DADO UMA VEZ QUANDO RECEBE BANG QUANTIZADO,
f 18;
#X obj 57 366 outlet VALUE;
#X connect 0 0 14 0;
#X connect 1 0 8 0;
#X connect 3 0 17 0;
#X connect 5 0 1 0;
#X connect 7 0 14 1;
#X connect 8 0 11 0;
#X connect 9 0 8 1;
#X connect 10 0 8 1;
#X connect 11 0 13 0;
#X connect 11 1 9 0;
#X connect 12 0 13 1;
#X connect 12 1 10 0;
#X connect 13 0 3 0;
#X connect 14 0 12 0;
#X connect 14 1 13 0;
#X restore 738 60 pd QUANTIZE_SLICE;
#N canvas 329 295 387 429 QUANTIZE_SLICE 0;
#X obj 72 94 inlet;
#X obj 57 55 bang;
#X text 115 94 ENTRADA DO VALOR;
#N canvas 444 387 191 230 CUTOFF_NOW 0;
#X obj 47 47 inlet;
#X obj 47 162 outlet;
#X obj 74 95 s \$0-cutoff;
#X obj 68 114 r \$1-blockMs;
#X obj 47 76 t f b;
#X obj 47 133 pipe;
#X connect 0 0 4 0;
#X connect 3 0 5 1;
#X connect 4 0 5 0;
#X connect 4 1 2 0;
#X connect 5 0 1 0;
#X restore 57 317 pd CUTOFF_NOW;
#X text 148 317 DESLIGA ÁUDIO PARA ATUALIZAR VALOR, f 18;
#X obj 57 36 r \$0-sliceBang;
#X text 154 36 SISTEMA LOCAL DE QUANTIZAÇÃO NO SLICE, f 20;
#X obj 111 124 r \$1-quantize;
#X obj 57 230 spigot;
#X msg 90 211 0;
#X msg 120 211 1;
#X obj 57 249 t b b;
#X obj 72 182 t f b;
#X obj 57 288 f;
#N canvas 170 698 275 198 GATE 0;
#X obj 158 41 inlet GATE;
#X obj 52 41 inlet DATA;
#X obj 52 60 t a a;
#X obj 152 107 spigot;
#X obj 158 60 t f f;
#X obj 52 136 outlet DATA;
#X obj 152 136 outlet DATA;
#X obj 185 88 == 0;
#X obj 52 107 spigot 1;
#X connect 0 0 4 0;
#X connect 1 0 2 0;
#X connect 2 0 8 0;
#X connect 2 1 3 0;
#X connect 3 0 6 0;
#X connect 4 0 8 1;
#X connect 4 1 7 0;
#X connect 7 0 3 1;
#X connect 8 0 5 0;
#X restore 72 143 pd GATE;
#X text 202 124 RECEBE CONTROLE PARA DESLIGAR QUANTIZAÇÃO QUANDO
O DADO VEM DA MEMÓRIA DOS MOMENTOS, f 20;
#X text 106 231 PASSA DADO UMA VEZ QUANDO RECEBE BANG QUANTIZADO,
f 18;
#X obj 57 366 outlet VALUE;
#X connect 0 0 14 0;
#X connect 1 0 8 0;
#X connect 3 0 17 0;
#X connect 5 0 1 0;
#X connect 7 0 14 1;
#X connect 8 0 11 0;
#X connect 9 0 8 1;
#X connect 10 0 8 1;
#X connect 11 0 13 0;
#X connect 11 1 9 0;
#X connect 12 0 13 1;
#X connect 12 1 10 0;
#X connect 13 0 3 0;
#X connect 14 0 12 0;
#X connect 14 1 13 0;
#X restore 611 41 pd QUANTIZE_SLICE;
#N canvas 329 295 387 429 QUANTIZE_SLICE 0;
#X obj 72 94 inlet;
#X obj 57 55 bang;
#X text 115 94 ENTRADA DO VALOR;
#N canvas 444 387 191 230 CUTOFF_NOW 0;
#X obj 47 47 inlet;
#X obj 47 162 outlet;
#X obj 74 95 s \$0-cutoff;
#X obj 68 114 r \$1-blockMs;
#X obj 47 76 t f b;
#X obj 47 133 pipe;
#X connect 0 0 4 0;
#X connect 3 0 5 1;
#X connect 4 0 5 0;
#X connect 4 1 2 0;
#X connect 5 0 1 0;
#X restore 57 317 pd CUTOFF_NOW;
#X text 148 317 DESLIGA ÁUDIO PARA ATUALIZAR VALOR, f 18;
#X obj 57 36 r \$0-sliceBang;
#X text 154 36 SISTEMA LOCAL DE QUANTIZAÇÃO NO SLICE, f 20;
#X obj 111 124 r \$1-quantize;
#X obj 57 230 spigot;
#X msg 90 211 0;
#X msg 120 211 1;
#X obj 57 249 t b b;
#X obj 72 182 t f b;
#X obj 57 288 f;
#N canvas 170 698 275 198 GATE 0;
#X obj 158 41 inlet GATE;
#X obj 52 41 inlet DATA;
#X obj 52 60 t a a;
#X obj 152 107 spigot;
#X obj 158 60 t f f;
#X obj 52 136 outlet DATA;
#X obj 152 136 outlet DATA;
#X obj 185 88 == 0;
#X obj 52 107 spigot 1;
#X connect 0 0 4 0;
#X connect 1 0 2 0;
#X connect 2 0 8 0;
#X connect 2 1 3 0;
#X connect 3 0 6 0;
#X connect 4 0 8 1;
#X connect 4 1 7 0;
#X connect 7 0 3 1;
#X connect 8 0 5 0;
#X restore 72 143 pd GATE;
#X text 202 124 RECEBE CONTROLE PARA DESLIGAR QUANTIZAÇÃO QUANDO
O DADO VEM DA MEMÓRIA DOS MOMENTOS, f 20;
#X text 106 231 PASSA DADO UMA VEZ QUANDO RECEBE BANG QUANTIZADO,
f 18;
#X obj 57 366 outlet VALUE;
#X connect 0 0 14 0;
#X connect 1 0 8 0;
#X connect 3 0 17 0;
#X connect 5 0 1 0;
#X connect 7 0 14 1;
#X connect 8 0 11 0;
#X connect 9 0 8 1;
#X connect 10 0 8 1;
#X connect 11 0 13 0;
#X connect 11 1 9 0;
#X connect 12 0 13 1;
#X connect 12 1 10 0;
#X connect 13 0 3 0;
#X connect 14 0 12 0;
#X connect 14 1 13 0;
#X restore 484 41 pd QUANTIZE_SLICE;
#N canvas 329 295 387 429 QUANTIZE_SLICE 0;
#X obj 72 94 inlet;
#X obj 57 55 bang;
#X text 115 94 ENTRADA DO VALOR;
#N canvas 444 387 191 230 CUTOFF_NOW 0;
#X obj 47 47 inlet;
#X obj 47 162 outlet;
#X obj 74 95 s \$0-cutoff;
#X obj 68 114 r \$1-blockMs;
#X obj 47 76 t f b;
#X obj 47 133 pipe;
#X connect 0 0 4 0;
#X connect 3 0 5 1;
#X connect 4 0 5 0;
#X connect 4 1 2 0;
#X connect 5 0 1 0;
#X restore 57 317 pd CUTOFF_NOW;
#X text 148 317 DESLIGA ÁUDIO PARA ATUALIZAR VALOR, f 18;
#X obj 57 36 r \$0-sliceBang;
#X text 154 36 SISTEMA LOCAL DE QUANTIZAÇÃO NO SLICE, f 20;
#X obj 111 124 r \$1-quantize;
#X obj 57 230 spigot;
#X msg 90 211 0;
#X msg 120 211 1;
#X obj 57 249 t b b;
#X obj 72 182 t f b;
#X obj 57 288 f;
#N canvas 170 698 275 198 GATE 0;
#X obj 158 41 inlet GATE;
#X obj 52 41 inlet DATA;
#X obj 52 60 t a a;
#X obj 152 107 spigot;
#X obj 158 60 t f f;
#X obj 52 136 outlet DATA;
#X obj 152 136 outlet DATA;
#X obj 185 88 == 0;
#X obj 52 107 spigot 1;
#X connect 0 0 4 0;
#X connect 1 0 2 0;
#X connect 2 0 8 0;
#X connect 2 1 3 0;
#X connect 3 0 6 0;
#X connect 4 0 8 1;
#X connect 4 1 7 0;
#X connect 7 0 3 1;
#X connect 8 0 5 0;
#X restore 72 143 pd GATE;
#X text 202 124 RECEBE CONTROLE PARA DESLIGAR QUANTIZAÇÃO QUANDO
O DADO VEM DA MEMÓRIA DOS MOMENTOS, f 20;
#X text 106 231 PASSA DADO UMA VEZ QUANDO RECEBE BANG QUANTIZADO,
f 18;
#X obj 57 366 outlet VALUE;
#X connect 0 0 14 0;
#X connect 1 0 8 0;
#X connect 3 0 17 0;
#X connect 5 0 1 0;
#X connect 7 0 14 1;
#X connect 8 0 11 0;
#X connect 9 0 8 1;
#X connect 10 0 8 1;
#X connect 11 0 13 0;
#X connect 11 1 9 0;
#X connect 12 0 13 1;
#X connect 12 1 10 0;
#X connect 13 0 3 0;
#X connect 14 0 12 0;
#X connect 14 1 13 0;
#X restore 176 208 pd QUANTIZE_SLICE;
#N canvas 329 295 387 429 QUANTIZE_SLICE 0;
#X obj 72 94 inlet;
#X obj 57 55 bang;
#X text 115 94 ENTRADA DO VALOR;
#N canvas 444 387 191 230 CUTOFF_NOW 0;
#X obj 47 47 inlet;
#X obj 47 162 outlet;
#X obj 74 95 s \$0-cutoff;
#X obj 68 114 r \$1-blockMs;
#X obj 47 76 t f b;
#X obj 47 133 pipe;
#X connect 0 0 4 0;
#X connect 3 0 5 1;
#X connect 4 0 5 0;
#X connect 4 1 2 0;
#X connect 5 0 1 0;
#X restore 57 317 pd CUTOFF_NOW;
#X text 148 317 DESLIGA ÁUDIO PARA ATUALIZAR VALOR, f 18;
#X obj 57 36 r \$0-sliceBang;
#X text 154 36 SISTEMA LOCAL DE QUANTIZAÇÃO NO SLICE, f 20;
#X obj 111 124 r \$1-quantize;
#X obj 57 230 spigot;
#X msg 90 211 0;
#X msg 120 211 1;
#X obj 57 249 t b b;
#X obj 72 182 t f b;
#X obj 57 288 f;
#N canvas 170 698 275 198 GATE 0;
#X obj 158 41 inlet GATE;
#X obj 52 41 inlet DATA;
#X obj 52 60 t a a;
#X obj 152 107 spigot;
#X obj 158 60 t f f;
#X obj 52 136 outlet DATA;
#X obj 152 136 outlet DATA;
#X obj 185 88 == 0;
#X obj 52 107 spigot 1;
#X connect 0 0 4 0;
#X connect 1 0 2 0;
#X connect 2 0 8 0;
#X connect 2 1 3 0;
#X connect 3 0 6 0;
#X connect 4 0 8 1;
#X connect 4 1 7 0;
#X connect 7 0 3 1;
#X connect 8 0 5 0;
#X restore 72 143 pd GATE;
#X text 202 124 RECEBE CONTROLE PARA DESLIGAR QUANTIZAÇÃO QUANDO
O DADO VEM DA MEMÓRIA DOS MOMENTOS, f 20;
#X text 106 231 PASSA DADO UMA VEZ QUANDO RECEBE BANG QUANTIZADO,
f 18;
#X obj 57 366 outlet VALUE;
#X connect 0 0 14 0;
#X connect 1 0 8 0;
#X connect 3 0 17 0;
#X connect 5 0 1 0;
#X connect 7 0 14 1;
#X connect 8 0 11 0;
#X connect 9 0 8 1;
#X connect 10 0 8 1;
#X connect 11 0 13 0;
#X connect 11 1 9 0;
#X connect 12 0 13 1;
#X connect 12 1 10 0;
#X connect 13 0 3 0;
#X connect 14 0 12 0;
#X connect 14 1 13 0;
#X restore 59 208 pd QUANTIZE_SLICE;
#X msg 419 117 clear;
#X obj 380 98 t f f b;
#N canvas 329 295 387 429 QUANTIZE_SLICE 0;
#X obj 72 94 inlet;
#X obj 57 55 bang;
#X text 115 94 ENTRADA DO VALOR;
#N canvas 444 387 191 230 CUTOFF_NOW 0;
#X obj 47 47 inlet;
#X obj 47 162 outlet;
#X obj 74 95 s \$0-cutoff;
#X obj 68 114 r \$1-blockMs;
#X obj 47 76 t f b;
#X obj 47 133 pipe;
#X connect 0 0 4 0;
#X connect 3 0 5 1;
#X connect 4 0 5 0;
#X connect 4 1 2 0;
#X connect 5 0 1 0;
#X restore 57 317 pd CUTOFF_NOW;
#X text 148 317 DESLIGA ÁUDIO PARA ATUALIZAR VALOR, f 18;
#X obj 57 36 r \$0-sliceBang;
#X text 154 36 SISTEMA LOCAL DE QUANTIZAÇÃO NO SLICE, f 20;
#X obj 111 124 r \$1-quantize;
#X obj 57 230 spigot;
#X msg 90 211 0;
#X msg 120 211 1;
#X obj 57 249 t b b;
#X obj 72 182 t f b;
#X obj 57 288 f;
#N canvas 170 698 275 198 GATE 0;
#X obj 158 41 inlet GATE;
#X obj 52 41 inlet DATA;
#X obj 52 60 t a a;
#X obj 152 107 spigot;
#X obj 158 60 t f f;
#X obj 52 136 outlet DATA;
#X obj 152 136 outlet DATA;
#X obj 185 88 == 0;
#X obj 52 107 spigot 1;
#X connect 0 0 4 0;
#X connect 1 0 2 0;
#X connect 2 0 8 0;
#X connect 2 1 3 0;
#X connect 3 0 6 0;
#X connect 4 0 8 1;
#X connect 4 1 7 0;
#X connect 7 0 3 1;
#X connect 8 0 5 0;
#X restore 72 143 pd GATE;
#X text 202 124 RECEBE CONTROLE PARA DESLIGAR QUANTIZAÇÃO QUANDO
O DADO VEM DA MEMÓRIA DOS MOMENTOS, f 20;
#X text 106 231 PASSA DADO UMA VEZ QUANDO RECEBE BANG QUANTIZADO,
f 18;
#X obj 57 366 outlet VALUE;
#X connect 0 0 14 0;
#X connect 1 0 8 0;
#X connect 3 0 17 0;
#X connect 5 0 1 0;
#X connect 7 0 14 1;
#X connect 8 0 11 0;
#X connect 9 0 8 1;
#X connect 10 0 8 1;
#X connect 11 0 13 0;
#X connect 11 1 9 0;
#X connect 12 0 13 1;
#X connect 12 1 10 0;
#X connect 13 0 3 0;
#X connect 14 0 12 0;
#X connect 14 1 13 0;
#X restore 328 743 pd QUANTIZE_SLICE;
#N canvas 329 295 387 429 QUANTIZE_SLICE 0;
#X obj 72 94 inlet;
#X obj 57 55 bang;
#X text 115 94 ENTRADA DO VALOR;
#N canvas 444 387 191 230 CUTOFF_NOW 0;
#X obj 47 47 inlet;
#X obj 47 162 outlet;
#X obj 74 95 s \$0-cutoff;
#X obj 68 114 r \$1-blockMs;
#X obj 47 76 t f b;
#X obj 47 133 pipe;
#X connect 0 0 4 0;
#X connect 3 0 5 1;
#X connect 4 0 5 0;
#X connect 4 1 2 0;
#X connect 5 0 1 0;
#X restore 57 317 pd CUTOFF_NOW;
#X text 148 317 DESLIGA ÁUDIO PARA ATUALIZAR VALOR, f 18;
#X obj 57 36 r \$0-sliceBang;
#X text 154 36 SISTEMA LOCAL DE QUANTIZAÇÃO NO SLICE, f 20;
#X obj 111 124 r \$1-quantize;
#X obj 57 230 spigot;
#X msg 90 211 0;
#X msg 120 211 1;
#X obj 57 249 t b b;
#X obj 72 182 t f b;
#X obj 57 288 f;
#N canvas 170 698 275 198 GATE 0;
#X obj 158 41 inlet GATE;
#X obj 52 41 inlet DATA;
#X obj 52 60 t a a;
#X obj 152 107 spigot;
#X obj 158 60 t f f;
#X obj 52 136 outlet DATA;
#X obj 152 136 outlet DATA;
#X obj 185 88 == 0;
#X obj 52 107 spigot 1;
#X connect 0 0 4 0;
#X connect 1 0 2 0;
#X connect 2 0 8 0;
#X connect 2 1 3 0;
#X connect 3 0 6 0;
#X connect 4 0 8 1;
#X connect 4 1 7 0;
#X connect 7 0 3 1;
#X connect 8 0 5 0;
#X restore 72 143 pd GATE;
#X text 202 124 RECEBE CONTROLE PARA DESLIGAR QUANTIZAÇÃO QUANDO
O DADO VEM DA MEMÓRIA DOS MOMENTOS, f 20;
#X text 106 231 PASSA DADO UMA VEZ QUANDO RECEBE BANG QUANTIZADO,
f 18;
#X obj 57 366 outlet VALUE;
#X connect 0 0 14 0;
#X connect 1 0 8 0;
#X connect 3 0 17 0;
#X connect 5 0 1 0;
#X connect 7 0 14 1;
#X connect 8 0 11 0;
#X connect 9 0 8 1;
#X connect 10 0 8 1;
#X connect 11 0 13 0;
#X connect 11 1 9 0;
#X connect 12 0 13 1;
#X connect 12 1 10 0;
#X connect 13 0 3 0;
#X connect 14 0 12 0;
#X connect 14 1 13 0;
#X restore 181 743 pd QUANTIZE_SLICE;
#N canvas 329 295 387 429 QUANTIZE_SLICE 0;
#X obj 72 94 inlet;
#X obj 57 55 bang;
#X text 115 94 ENTRADA DO VALOR;
#N canvas 444 387 191 230 CUTOFF_NOW 0;
#X obj 47 47 inlet;
#X obj 47 162 outlet;
#X obj 74 95 s \$0-cutoff;
#X obj 68 114 r \$1-blockMs;
#X obj 47 76 t f b;
#X obj 47 133 pipe;
#X connect 0 0 4 0;
#X connect 3 0 5 1;
#X connect 4 0 5 0;
#X connect 4 1 2 0;
#X connect 5 0 1 0;
#X restore 57 317 pd CUTOFF_NOW;
#X text 148 317 DESLIGA ÁUDIO PARA ATUALIZAR VALOR, f 18;
#X obj 57 36 r \$0-sliceBang;
#X text 154 36 SISTEMA LOCAL DE QUANTIZAÇÃO NO SLICE, f 20;
#X obj 111 124 r \$1-quantize;
#X obj 57 230 spigot;
#X msg 90 211 0;
#X msg 120 211 1;
#X obj 57 249 t b b;
#X obj 72 182 t f b;
#X obj 57 288 f;
#N canvas 170 698 275 198 GATE 0;
#X obj 158 41 inlet GATE;
#X obj 52 41 inlet DATA;
#X obj 52 60 t a a;
#X obj 152 107 spigot;
#X obj 158 60 t f f;
#X obj 52 136 outlet DATA;
#X obj 152 136 outlet DATA;
#X obj 185 88 == 0;
#X obj 52 107 spigot 1;
#X connect 0 0 4 0;
#X connect 1 0 2 0;
#X connect 2 0 8 0;
#X connect 2 1 3 0;
#X connect 3 0 6 0;
#X connect 4 0 8 1;
#X connect 4 1 7 0;
#X connect 7 0 3 1;
#X connect 8 0 5 0;
#X restore 72 143 pd GATE;
#X text 202 124 RECEBE CONTROLE PARA DESLIGAR QUANTIZAÇÃO QUANDO
O DADO VEM DA MEMÓRIA DOS MOMENTOS, f 20;
#X text 106 231 PASSA DADO UMA VEZ QUANDO RECEBE BANG QUANTIZADO,
f 18;
#X obj 57 366 outlet VALUE;
#X connect 0 0 14 0;
#X connect 1 0 8 0;
#X connect 3 0 17 0;
#X connect 5 0 1 0;
#X connect 7 0 14 1;
#X connect 8 0 11 0;
#X connect 9 0 8 1;
#X connect 10 0 8 1;
#X connect 11 0 13 0;
#X connect 11 1 9 0;
#X connect 12 0 13 1;
#X connect 12 1 10 0;
#X connect 13 0 3 0;
#X connect 14 0 12 0;
#X connect 14 1 13 0;
#X restore 59 743 pd QUANTIZE_SLICE;
#N canvas 1055 114 383 391 QUANTIZE_BEAT/4 0;
#X obj 72 94 inlet;
#X obj 57 55 bang;
#X text 115 94 ENTRADA DO VALOR;
#X obj 111 124 r \$1-quantize;
#X obj 57 230 spigot;
#X msg 90 211 0;
#X msg 120 211 1;
#X obj 57 249 t b b;
#X obj 72 182 t f b;
#X obj 57 288 f;
#N canvas 170 698 275 198 GATE 0;
#X obj 158 41 inlet GATE;
#X obj 52 41 inlet DATA;
#X obj 52 60 t a a;
#X obj 152 107 spigot;
#X obj 158 60 t f f;
#X obj 52 136 outlet DATA;
#X obj 152 136 outlet DATA;
#X obj 185 88 == 0;
#X obj 52 107 spigot 1;
#X connect 0 0 4 0;
#X connect 1 0 2 0;
#X connect 2 0 8 0;
#X connect 2 1 3 0;
#X connect 3 0 6 0;
#X connect 4 0 8 1;
#X connect 4 1 7 0;
#X connect 7 0 3 1;
#X connect 8 0 5 0;
#X restore 72 143 pd GATE;
#X text 202 124 RECEBE CONTROLE PARA DESLIGAR QUANTIZAÇÃO QUANDO
O DADO VEM DA MEMÓRIA DOS MOMENTOS, f 20;
#X text 106 231 PASSA DADO UMA VEZ QUANDO RECEBE BANG QUANTIZADO,
f 18;
#X obj 57 327 outlet VALUE;
#X obj 57 36 r \$1-quarterBeatBang;
#X text 190 36 SISTEMA LOCAL DE QUANTIZAÇÃO NO BEAT/4, f 21;
#X connect 0 0 10 0;
#X connect 1 0 4 0;
#X connect 3 0 10 1;
#X connect 4 0 7 0;
#X connect 5 0 4 1;
#X connect 6 0 4 1;
#X connect 7 0 9 0;
#X connect 7 1 5 0;
#X connect 8 0 9 1;
#X connect 8 1 6 0;
#X connect 9 0 13 0;
#X connect 10 0 8 0;
#X connect 10 1 9 0;
#X connect 14 0 1 0;
#X restore 341 41 pd QUANTIZE_BEAT/4;
#X obj 59 781 f;
#X obj 181 781 f;
#X obj 328 762 t b b f f f f f;
#X connect 0 0 36 0;
#X connect 0 0 57 1;
#X connect 1 0 53 0;
#X connect 2 0 0 0;
#X connect 2 0 6 0;
#X connect 2 0 5 0;
#X connect 2 0 97 0;
#X connect 3 0 4 0;
#X connect 4 0 56 1;
#X connect 5 0 6 1;
#X connect 6 0 17 0;
#X connect 6 0 129 0;
#X connect 7 0 15 0;
#X connect 8 0 15 0;
#X connect 9 0 12 0;
#X connect 9 0 7 1;
#X connect 12 0 13 0;
#X connect 13 0 8 1;
#X connect 15 0 25 0;
#X connect 16 0 15 1;
#X connect 17 0 7 0;
#X connect 19 0 52 0;
#X connect 20 0 38 0;
#X connect 21 0 20 1;
#X connect 23 0 46 0;
#X connect 23 0 99 0;
#X connect 25 0 4 1;
#X connect 27 0 23 0;
#X connect 28 0 54 0;
#X connect 29 0 1 1;
#X connect 31 0 33 0;
#X connect 32 0 35 0;
#X connect 33 0 34 0;
#X connect 33 0 57 0;
#X connect 34 0 32 0;
#X connect 35 0 1 0;
#X connect 35 0 78 0;
#X connect 36 0 37 0;
#X connect 37 0 3 0;
#X connect 38 0 81 0;
#X connect 39 0 48 1;
#X connect 40 0 3 1;
#X connect 41 0 42 0;
#X connect 42 0 43 0;
#X connect 42 0 43 1;
#X connect 42 1 44 0;
#X connect 44 0 41 0;
#X connect 45 0 44 1;
#X connect 46 0 47 0;
#X connect 47 0 2 0;
#X connect 47 0 56 0;
#X connect 48 0 32 1;
#X connect 49 0 31 1;
#X connect 49 0 34 1;
#X connect 50 0 49 0;
#X connect 50 1 49 1;
#X connect 51 0 27 0;
#X connect 53 0 20 0;
#X connect 54 0 27 1;
#X connect 56 0 31 0;
#X connect 57 0 21 0;
#X connect 59 0 58 0;
#X connect 60 0 50 0;
#X connect 61 0 48 0;
#X connect 62 0 61 2;
#X connect 64 0 176 0;
#X connect 65 0 2 1;
#X connect 66 0 40 0;
#X connect 67 0 17 1;
#X connect 72 0 178 0;
#X connect 73 0 177 0;
#X connect 81 0 19 0;
#X connect 82 0 83 0;
#X connect 82 1 175 0;
#X connect 83 0 165 0;
#X connect 83 1 84 0;
#X connect 84 0 81 1;
#X connect 85 0 53 0;
#X connect 85 0 42 0;
#X connect 86 0 179 0;
#X connect 87 0 171 0;
#X connect 88 0 170 0;
#X connect 89 0 92 0;
#X connect 90 0 144 0;
#X connect 91 0 94 0;
#X connect 92 0 91 0;
#X connect 92 1 93 1;
#X connect 93 0 126 0;
#X connect 94 0 93 0;
#X connect 94 1 126 0;
#X connect 97 0 138 0;
#X connect 98 0 25 1;
#X connect 98 0 16 0;
#X connect 98 0 9 1;
#X connect 98 0 164 1;
#X connect 99 0 98 0;
#X connect 100 0 99 1;
#X connect 101 0 173 0;
#X connect 103 0 172 0;
#X connect 104 0 107 0;
#X connect 105 0 108 0;
#X connect 106 0 109 0;
#X connect 107 0 106 0;
#X connect 108 0 106 0;
#X connect 108 1 106 1;
#X connect 109 0 110 0;
#X connect 109 1 111 0;
#X connect 109 2 112 0;
#X connect 109 3 113 0;
#X connect 110 0 114 0;
#X connect 111 0 114 0;
#X connect 112 0 114 0;
#X connect 113 0 114 0;
#X connect 114 0 46 1;
#X connect 114 1 36 1;
#X connect 114 2 127 0;
#X connect 126 0 130 0;
#X connect 126 1 161 0;
#X connect 127 0 136 0;
#X connect 130 0 148 0;
#X connect 131 0 82 0;
#X connect 132 0 82 0;
#X connect 133 0 151 0;
#X connect 134 0 16 1;
#X connect 135 0 136 0;
#X connect 135 1 136 1;
#X connect 136 0 102 0;
#X connect 137 0 158 0;
#X connect 138 0 158 0;
#X connect 139 0 162 0;
#X connect 144 0 91 0;
#X connect 144 1 91 1;
#X connect 144 2 93 1;
#X connect 145 0 90 0;
#X connect 145 1 143 0;
#X connect 147 0 9 0;
#X connect 148 0 127 0;
#X connect 148 1 127 1;
#X connect 148 2 149 0;
#X connect 149 0 147 0;
#X connect 151 0 169 0;
#X connect 151 1 134 0;
#X connect 152 0 164 0;
#X connect 153 0 154 1;
#X connect 154 0 157 0;
#X connect 155 0 156 0;
#X connect 156 0 137 0;
#X connect 157 0 8 0;
#X connect 158 0 153 0;
#X connect 158 0 154 0;
#X connect 159 0 160 0;
#X connect 160 0 158 1;
#X connect 160 1 157 1;
#X connect 161 1 139 0;
#X connect 162 0 163 0;
#X connect 162 1 138 1;
#X connect 163 0 137 1;
#X connect 164 0 155 0;
#X connect 165 0 79 0;
#X connect 166 0 167 0;
#X connect 167 0 132 0;
#X connect 169 0 135 0;
#X connect 170 0 145 0;
#X connect 171 0 89 0;
#X connect 172 0 105 0;
#X connect 173 0 104 0;
#X connect 174 0 165 0;
#X connect 175 0 84 0;
#X connect 175 1 79 0;
#X connect 175 2 174 0;
#X connect 176 0 182 0;
#X connect 177 0 181 0;
#X connect 178 0 180 0;
#X connect 179 0 82 0;
#X connect 180 0 60 0;
#X connect 181 0 61 0;
#X connect 182 0 180 0;
#X connect 182 1 181 0;
#X connect 182 2 60 2;
#X connect 182 3 49 0;
#X connect 182 4 62 0;
#X connect 182 5 39 0;
#X connect 182 6 63 0;
#X coords 0 -1 1 1 280 110 1 750 200;
