#N canvas 45 200 662 561 16;
#X obj 48 168 list split 1;
#X obj 48 232 list;
#X obj 48 264 list split 1;
#X obj 242 102 inlet ARRAY_LIST;
#X obj 168 370 list;
#X obj 48 102 inlet LIST;
#X obj 168 402 list split 1;
#X obj 168 434 t s;
#X obj 81 504 array set;
#X obj 69 296 list;
#X msg 212 434 symbol;
#X obj 264 504 outlet ARRAY_SIZE;
#X text 261 478 TAMANHO DE CADA ARRAY DESEMPACOTADO;
#X obj 48 336 t b l b;
#X obj 48 200 t b f f f;
#X obj 48 370 delay 10;
#X obj 135 336 / 1000;
#X obj 205 158 list;
#X obj 48 134 t l b b;
#X text 255 157 ARMAZENA LISTA DE ARRAYS;
#X text 44 31 ** RECEBE LISTA GERADA POR [bit_arraypack] E LISTA DOS
ARRAYS PARA ONDE MANDAR OS CONTEÚDOS DESEMPACOTADOS;
#X connect 0 0 14 0;
#X connect 0 1 1 1;
#X connect 1 0 2 0;
#X connect 2 0 13 0;
#X connect 2 1 9 1;
#X connect 3 0 17 1;
#X connect 4 0 6 0;
#X connect 5 0 18 0;
#X connect 6 0 7 0;
#X connect 6 1 4 1;
#X connect 7 0 8 2;
#X connect 9 0 0 0;
#X connect 10 0 8 2;
#X connect 13 0 15 0;
#X connect 13 1 8 0;
#X connect 13 2 4 0;
#X connect 14 0 1 0;
#X connect 14 1 2 1;
#X connect 14 2 16 0;
#X connect 14 3 11 0;
#X connect 15 0 9 0;
#X connect 16 0 15 1;
#X connect 17 0 4 1;
#X connect 18 0 0 0;
#X connect 18 1 10 0;
#X connect 18 2 17 0;
