#N canvas 159 329 1306 796 10;
#X obj 1519 494 spigot 1;
#X obj 1117 494 spigot;
#X obj 50 217 ofTranslate 0 0 0;
#X obj 176 182 * 1;
#X obj 176 201 + 1;
#X obj 176 163 f \$2;
#X obj 176 144 t b f;
#X text 155 325 LARGURA;
#X text 297 183 CABEÇALHO;
#X obj 83 325 r \$1-width;
#X obj 219 183 r \$1-h_head;
#X obj 176 125 r \$1-h_tracks;
#X obj 83 344 * 0.125;
#X obj 50 401 ofTranslate 0 0 0;
#X obj 83 382 +;
#X obj 50 420 gui_select \$1;
#X obj 50 30 r \$1-LB;
#X text 105 30 SISTEMA DE INICIALIZAÇÃO;
#X obj 50 68 f \$2;
#X obj 50 87 + 20;
#X text 87 87 OFFSET NA CADEIA DE RENDERIZAÇÃO;
#X obj 50 49 sel \$2;
#X obj 50 144 ofHead 20 0;
#X obj 316 30 inlet;
#N canvas 459 172 871 671 INTERACTION 0;
#X obj 45 36 inlet TOUCH_RELEASE;
#X obj 224 36 inlet MOVE;
#X obj 389 36 inlet EXTERNAL_MOVE;
#X obj 45 247 f 0;
#X obj 45 266 == 0;
#X obj 45 609 outlet VALUE;
#X obj 578 36 inlet COLD_VALUE;
#X text 76 247 ARMAZENA VALOR ATUAL;
#X text 81 266 INVERTE VALOR (MODO TOGGLE), f 13;
#X obj 224 65 unpack f f f;
#X obj 224 140 spigot;
#X obj 257 121 == 0;
#X text 273 140 SÓ PASSA MOVIMENTO QUANDO SAI DO OBJETO, f 20;
#X obj 224 84 pack f f;
#X obj 224 452 s \$1-TRACK_MODE_SLIDE;
#X obj 302 532 r \$1-TRACK_MODE_SLIDE;
#X obj 347 561 == 0;
#X text 222 476 ENVIA MOVIMENTO DO TOQUE LOCAL PARA SISTEMA REMOTO
, f 25;
#X obj 224 379 spigot 1;
#X text 285 380 BLOQUEIA ENVIO LOCAL QUANDO SISTEMA FOR ATIVADO POR
OUTRO BOTÃO, f 20;
#X obj 269 341 t f f;
#X obj 45 85 t f f;
#X obj 45 104 sel 1 0;
#X msg 525 453 0;
#X obj 525 434 spigot;
#X obj 389 65 sel 1;
#X obj 302 609 outlet EXTERNAL_MOVE;
#X text 449 264 SISTEMA QUE PERMITE MOVIMENTO APENAS DO PRIMEIRO TOQUE
NO CONJUNTO, f 36;
#X text 362 580 IMPEDE LOOP LOCAL;
#X text 130 609 ATUALIZA VALOR DO OBJETO;
#X obj 269 322 spigot 1;
#X msg 314 303 0;
#X msg 344 303 1;
#X obj 458 359 f;
#X text 501 378 SE SISTEMA ESTIVER INATIVO \, REGISTRA ATIVIDADE;
#X obj 458 378 sel 0;
#X msg 458 397 1;
#X obj 269 360 == 0;
#X text 375 304 IMPEDE LOOP LOCAL;
#X text 571 453 DESLIGA REGISTRO NO RELEASE DO TOQUE LOCAL;
#X text 432 65 MOVIMENTO EXTERNO FUNCIONA COMO TOUCH;
#X obj 269 264 r \$1-TRACK_MODE_SLIDE_SYSTEM;
#X obj 458 491 s \$1-TRACK_MODE_SLIDE_SYSTEM;
#X obj 632 415 loadbang;
#X obj 293 84 change -1;
#X obj 458 169 t b b b;
#X obj 458 150 sel 0 1;
#X obj 293 103 t f f;
#X obj 477 229 spigot;
#X obj 525 472 t f f f b;
#X text 692 415 INICIALIZA SISTEMA;
#X msg 541 210 1;
#X msg 510 210 0;
#X text 516 150 QUANDO MOVIMENTO SAI DO OBJETO ATIVA SISTEMA DE INTERAÇÃO
DO CONJUNTO - QUANDO RETORNA MOVIMENTO PARA OBJETO ATUA NOVAMENTE COMO
TOUCH LOCAL, f 36;
#X obj 64 123 t b b;
#X obj 302 580 spigot 1;
#X text 435 609 PASSA MOVIMENTO DO SISTEMA REMOTO PARA OBJETO LOCAL
;
#X obj 458 416 t f f;
#X msg 80 565 2;
#X connect 0 0 21 0;
#X connect 1 0 9 0;
#X connect 2 0 25 0;
#X connect 3 0 4 0;
#X connect 4 0 5 0;
#X connect 6 0 3 1;
#X connect 9 0 13 0;
#X connect 9 1 13 1;
#X connect 9 2 44 0;
#X connect 10 0 18 0;
#X connect 11 0 10 1;
#X connect 13 0 10 0;
#X connect 15 0 55 0;
#X connect 16 0 55 1;
#X connect 18 0 14 0;
#X connect 20 0 37 0;
#X connect 20 1 33 1;
#X connect 21 0 22 0;
#X connect 21 1 16 0;
#X connect 22 0 3 0;
#X connect 22 1 54 0;
#X connect 23 0 49 0;
#X connect 24 0 23 0;
#X connect 25 0 3 0;
#X connect 30 0 20 0;
#X connect 31 0 30 1;
#X connect 32 0 30 1;
#X connect 33 0 35 0;
#X connect 35 0 36 0;
#X connect 36 0 57 0;
#X connect 37 0 18 1;
#X connect 41 0 30 0;
#X connect 43 0 23 0;
#X connect 44 0 47 0;
#X connect 45 0 33 0;
#X connect 45 1 31 0;
#X connect 45 2 51 0;
#X connect 46 0 45 0;
#X connect 46 1 48 0;
#X connect 47 0 11 0;
#X connect 47 1 46 0;
#X connect 48 0 3 0;
#X connect 49 0 42 0;
#X connect 49 1 24 1;
#X connect 49 3 32 0;
#X connect 51 0 48 1;
#X connect 52 0 48 1;
#X connect 54 0 24 0;
#X connect 54 1 52 0;
#X connect 55 0 26 0;
#X connect 57 0 42 0;
#X connect 57 1 24 1;
#X connect 58 0 5 0;
#X restore 105 294 pd INTERACTION;
#X text 266 125 ALTURA TRACKS;
#X obj 1117 553 gui_numbers \$1;
#X obj 98 363 r \$1-w_main;
#X obj 967 552 gui_audios \$1;
#X obj 1150 456 == 1;
#X obj 967 494 spigot;
#X obj 1000 475 t f f;
#X obj 1000 456 == 2;
#X obj 409 494 spigot;
#X obj 442 475 t f f;
#X obj 442 456 == 3;
#X text 473 419 FORMA ONDA / NÚMEROS / ÁUDIOS / OPERADORES;
#X obj 409 552 gui_operators \$1;
#N canvas 216 299 947 276 PARAMS 0;
#X obj 434 227 outlet;
#X obj 434 40 inlet SLICES;
#X msg 434 155 div \$1;
#X obj 524 40 inlet RANGE;
#X msg 524 155 range \$1;
#X obj 614 40 inlet OFFSET;
#X msg 614 155 offset \$1;
#X msg 724 155 active \$1;
#N canvas 345 586 295 255 QUANTIZE 0;
#X obj 96 76 inlet;
#X obj 41 200 outlet;
#X obj 41 94 f;
#X obj 41 55 bang;
#X text 139 76 ENTRADA DO VALOR;
#X text 132 36 SISTEMA LOCAL DE QUANTIZAÇÃO NO BEAT, f 19;
#X obj 41 161 change -1;
#X msg 55 142 set -1;
#X obj 55 123 r \$1-changeReset;
#X text 107 142 SISTEMA PARA RESETAR FILTROS DE REPETIÇÃO, f 20
;
#X obj 41 36 r \$0-beatBang;
#X connect 0 0 2 1;
#X connect 2 0 6 0;
#X connect 3 0 2 0;
#X connect 6 0 1 0;
#X connect 7 0 6 0;
#X connect 8 0 7 0;
#X connect 10 0 3 0;
#X restore 44 59 pd QUANTIZE;
#X text 735 61 RECEBE DO SISTEMA DE ÁUDIO O SLICE ATIVO NA CAMADA
, f 26;
#X obj 44 40 inlet TRACK_MODE;
#X obj 236 40 inlet FUNCTION;
#X obj 236 59 sel 0 1 2 3;
#X msg 236 78 1;
#X msg 266 78 0;
#X obj 275 227 outlet;
#X obj 275 126 == 0;
#X obj 236 97 t f f f;
#X obj 44 78 t f f;
#X msg 44 155 drawActive \$1;
#X msg 144 155 fillRange \$1;
#X msg 255 155 drawBG \$1 \, drawGrid \$1;
#X obj 144 136 &&;
#X obj 159 117 t b f;
#X obj 724 40 inlet ACTIVE_SLICE;
#X connect 1 0 2 0;
#X connect 2 0 0 0;
#X connect 3 0 4 0;
#X connect 4 0 0 0;
#X connect 5 0 6 0;
#X connect 6 0 0 0;
#X connect 7 0 0 0;
#X connect 8 0 18 0;
#X connect 10 0 8 0;
#X connect 11 0 12 0;
#X connect 12 0 13 0;
#X connect 12 1 13 0;
#X connect 12 2 14 0;
#X connect 12 3 13 0;
#X connect 13 0 17 0;
#X connect 14 0 17 0;
#X connect 16 0 15 0;
#X connect 17 0 23 0;
#X connect 17 1 21 0;
#X connect 17 2 16 0;
#X connect 18 0 19 0;
#X connect 18 1 22 0;
#X connect 19 0 0 0;
#X connect 20 0 0 0;
#X connect 21 0 0 0;
#X connect 22 0 20 0;
#X connect 23 0 22 0;
#X connect 23 1 22 1;
#X connect 24 0 7 0;
#X restore 1615 598 pd PARAMS;
#X text 414 351 ENVIA BOTÂO DE MODO;
#X obj 967 571 t f f;
#X obj 1519 553 gui_waveforms \$1 \$2;
#X obj 1132 524 t b f b;
#X obj 1205 524 t b f b;
#X obj 1278 524 t b f b;
#X text 1344 611 EVITA LOOP QUANDO RECEBE PARÂMETROS DO PATCH/MEMÓRIA
DO [ESMERIL], f 17;
#X obj 1117 630 spigot 1;
#X msg 1132 611 1;
#X msg 1162 611 0;
#X obj 1190 630 spigot 1;
#X msg 1205 611 1;
#X msg 1235 611 0;
#X obj 1263 630 spigot 1;
#X msg 1278 611 1;
#X msg 1308 611 0;
#X obj 994 630 spigot 1;
#X msg 1009 611 1;
#X msg 1039 611 0;
#X obj 1009 524 t b f b;
#N canvas 2 53 534 422 BACKGROUND 0;
#X obj 40 313 ofRect 1 1;
#X obj 40 352 ofPopMatrix;
#X obj 40 371 ofPopStyle;
#X obj 40 150 ofPushStyle;
#X obj 40 169 ofPushMatrix;
#X obj 40 53 inlet RENDER_CHAIN;
#X obj 233 133 r \$1-h_tracks;
#X obj 233 209 -;
#X obj 233 152 t f f;
#X obj 260 190 t f f;
#X obj 260 171 * 0.9;
#X obj 233 228 / 2;
#X obj 61 208 r \$1-width;
#X obj 61 227 * 0.125;
#X obj 68 294 r \$1-w_main;
#X text 324 133 ALTURA DAS TRACKS;
#X text 302 172 CÁLCULOS DOS VALORES Y LOCAIS;
#X text 133 208 LARGURA TOTAL;
#X text 146 294 LARGURA DA ÁREA PRINCIPAL;
#X obj 40 246 ofTranslate;
#X text 138 16 ** DESENHA CAMADA PARA ESCURECER FUNDO;
#X obj 40 111 spigot;
#X obj 200 53 inlet ON/OFF;
#X obj 40 265 ofSetColor 0 0 0 180;
#X connect 0 0 1 0;
#X connect 1 0 2 0;
#X connect 3 0 4 0;
#X connect 4 0 19 0;
#X connect 5 0 21 0;
#X connect 6 0 8 0;
#X connect 7 0 11 0;
#X connect 8 0 7 0;
#X connect 8 1 10 0;
#X connect 9 0 7 1;
#X connect 9 1 0 2;
#X connect 10 0 9 0;
#X connect 11 0 19 2;
#X connect 12 0 13 0;
#X connect 13 0 19 1;
#X connect 14 0 0 1;
#X connect 19 0 23 0;
#X connect 21 0 3 0;
#X connect 22 0 21 1;
#X connect 23 0 0 0;
#X restore 1519 615 pd BACKGROUND;
#X obj 1564 475 t f f;
#X obj 1564 456 >= 0;
#X obj 50 236 t b b b;
#X obj 1519 634 gui_grid \$1 16 1 16 0 0 1;
#X msg 1117 649 slices \$1;
#X msg 1190 649 range \$1;
#X msg 1263 649 offset \$1;
#X text 500 726 ENVIA CONTROLES PARA [ESMERIL] / [bit_track];
#X msg 994 649 sample \$1;
#X obj 409 630 spigot 1;
#X msg 424 611 1;
#X msg 454 611 0;
#X obj 424 524 t b f b;
#X obj 489 630 spigot 1;
#X msg 504 611 1;
#X msg 534 611 0;
#X obj 504 524 t b f b;
#X obj 569 630 spigot 1;
#X msg 584 611 1;
#X msg 614 611 0;
#X obj 584 524 t b f b;
#X obj 649 630 spigot 1;
#X msg 664 611 1;
#X msg 694 611 0;
#X obj 664 524 t b f b;
#X obj 749 630 spigot 1;
#X msg 764 611 1;
#X msg 794 611 0;
#X obj 764 524 t b f b;
#X obj 849 630 spigot 1;
#X msg 864 611 1;
#X msg 894 611 0;
#X obj 864 524 t b f b;
#X msg 409 649 random \$1;
#X msg 489 649 pattern \$1;
#X msg 569 649 freeze \$1;
#X msg 649 649 invertRange \$1;
#X msg 749 649 invertSlice \$1;
#X msg 849 649 toggle \$1;
#X obj 269 332 spigot 1;
#X msg 284 313 1;
#X msg 314 313 0;
#X obj 284 259 t b f b;
#X obj 1519 517 spigot 1;
#X obj 1150 475 t f f f;
#X obj 1582 499 == 0;
#X obj 1492 596 t b b;
#X obj 1190 582 t f f f;
#X obj 1263 582 t f f f;
#N canvas 651 185 621 503 WAVE_TOUCH 0;
#X obj 40 433 ofPopMatrix;
#X obj 40 452 ofPopStyle;
#X obj 40 200 ofPushStyle;
#X obj 40 219 ofPushMatrix;
#X obj 40 53 inlet RENDER_CHAIN;
#X obj 243 185 r \$1-h_tracks;
#X obj 243 261 -;
#X obj 243 204 t f f;
#X obj 270 242 t f f;
#X obj 270 223 * 0.9;
#X obj 243 280 / 2;
#X obj 61 258 r \$1-width;
#X obj 61 277 * 0.125;
#X obj 133 307 r \$1-w_main;
#X text 334 185 ALTURA DAS TRACKS;
#X text 312 224 CÁLCULOS DOS VALORES Y LOCAIS;
#X text 133 258 LARGURA TOTAL;
#X text 211 307 LARGURA DA ÁREA PRINCIPAL;
#X obj 40 296 ofTranslate;
#X obj 40 161 spigot;
#X obj 458 53 inlet ON/OFF;
#X msg 476 326 touch \$1;
#X msg 133 326 sizeX \$1;
#X msg 297 261 sizeY \$1;
#X text 118 16 ** ÁREA MULTITOQUES DE INTERAÇÂO SOBRE A FORMA DE
ONDA;
#X obj 173 53 inlet SLICES;
#X obj 270 53 inlet RANGE;
#X obj 361 53 inlet OFFSET;
#X text 273 384 SAÍDA DE CONTROLES;
#X obj 182 384 outlet OFFSET;
#X obj 86 384 outlet RANGE;
#X obj 40 345 gui_wavetouch \$1;
#X obj 476 278 r \$1-mainState;
#X text 473 255 CONTROLE DE TOQUE;
#X obj 476 307 &&;
#X obj 458 72 t f b f;
#X connect 0 0 1 0;
#X connect 2 0 3 0;
#X connect 3 0 18 0;
#X connect 4 0 19 0;
#X connect 5 0 7 0;
#X connect 6 0 10 0;
#X connect 7 0 6 0;
#X connect 7 1 9 0;
#X connect 8 0 6 1;
#X connect 8 1 23 0;
#X connect 9 0 8 0;
#X connect 10 0 18 2;
#X connect 11 0 12 0;
#X connect 12 0 18 1;
#X connect 13 0 22 0;
#X connect 18 0 31 0;
#X connect 19 0 2 0;
#X connect 20 0 35 0;
#X connect 21 0 31 4;
#X connect 22 0 31 4;
#X connect 23 0 31 4;
#X connect 25 0 31 1;
#X connect 26 0 31 2;
#X connect 27 0 31 3;
#X connect 31 0 0 0;
#X connect 31 1 30 0;
#X connect 31 2 29 0;
#X connect 32 0 34 0;
#X connect 34 0 21 0;
#X connect 35 0 19 1;
#X connect 35 1 34 0;
#X connect 35 2 34 1;
#X restore 1362 537 pd WAVE_TOUCH;
#N canvas 398 171 539 472 GRANULAR_TOUCH 0;
#X obj 40 394 ofPopMatrix;
#X obj 40 413 ofPopStyle;
#X obj 40 210 ofPushStyle;
#X obj 40 229 ofPushMatrix;
#X obj 40 53 inlet RENDER_CHAIN;
#X obj 243 195 r \$1-h_tracks;
#X obj 243 271 -;
#X obj 243 214 t f f;
#X obj 270 252 t f f;
#X obj 270 233 * 0.9;
#X obj 243 290 / 2;
#X obj 61 268 r \$1-width;
#X obj 61 287 * 0.125;
#X obj 175 317 r \$1-w_main;
#X text 334 195 ALTURA DAS TRACKS;
#X text 312 234 CÁLCULOS DOS VALORES Y LOCAIS;
#X text 133 268 LARGURA TOTAL;
#X text 253 317 LARGURA DA ÁREA PRINCIPAL;
#X obj 40 306 ofTranslate;
#X obj 270 53 inlet ON/OFF;
#X msg 357 151 touch \$1;
#X msg 175 336 sizeX \$1;
#X msg 297 271 sizeY \$1;
#X obj 173 53 inlet SLICES;
#X text 126 16 ** ÁREA MULTITOQUES PARA MODO MULTIGRANULAR;
#X obj 40 355 gui_granulartouch \$1 \$2;
#X obj 40 171 spigot 0;
#X obj 357 103 r \$1-mainState;
#X text 354 80 CONTROLE DE TOQUE;
#X obj 357 132 &&;
#X obj 270 72 t f b f;
#X connect 0 0 1 0;
#X connect 2 0 3 0;
#X connect 3 0 18 0;
#X connect 4 0 26 0;
#X connect 5 0 7 0;
#X connect 6 0 10 0;
#X connect 7 0 6 0;
#X connect 7 1 9 0;
#X connect 8 0 6 1;
#X connect 8 1 22 0;
#X connect 9 0 8 0;
#X connect 10 0 18 2;
#X connect 11 0 12 0;
#X connect 12 0 18 1;
#X connect 13 0 21 0;
#X connect 18 0 25 0;
#X connect 19 0 30 0;
#X connect 20 0 25 2;
#X connect 21 0 25 2;
#X connect 22 0 25 2;
#X connect 23 0 25 1;
#X connect 25 0 0 0;
#X connect 26 0 2 0;
#X connect 27 0 29 0;
#X connect 29 0 20 0;
#X connect 30 0 26 1;
#X connect 30 1 29 0;
#X connect 30 2 29 1;
#X restore 1365 428 pd GRANULAR_TOUCH;
#X obj 409 262 t b b b b b b b;
#X obj 1493 374 == 0;
#X obj 1464 390 == 0;
#X obj 1464 409 &&;
#X obj 252 294 t f f f f;
#X obj 1117 582 t f f f f;
#X obj 442 437 t f f f f f f;
#X obj 1437 371 t f f;
#X obj 1466 502 t b f;
#X obj 1437 518 &&;
#X obj 50 106 t b f b;
#X msg 442 418 0;
#X obj 1493 393 t b f f;
#X obj 409 688 list prepend \$2;
#X obj 409 707 list trim;
#X obj 409 726 s \$1-trackBus;
#X obj 503 152 r \$1-trackBus_set;
#X text 618 152 RECEBE CONTROLES DO RESPECTIVO [bit_track];
#X obj 584 250 route \$2;
#X obj 269 351 list prepend trackMode;
#X obj 503 200 s \$0-beatBang;
#X text 594 200 RECEBE SISTEMA DE QUANTIZAÇÃO NO BEAT E ENVIA LOCALMENTE
, f 19;
#X obj 503 181 route beatBang;
#X text 645 250 ROTEIA DEMAIS CONTROLES POR CAMADA;
#X obj 584 492 route dsp random pattern freeze invertRange invertSlice
toggle sample slices range offset activeSlice;
#X msg 50 125 0;
#X obj 69 275 gui_button \$1 0 0 1 1 0 0 1 1 1;
#N canvas 754 184 655 288 PARAMS 1;
#X obj 54 111 -;
#X obj 54 55 t f f;
#X obj 81 74 * 0.9;
#X text 146 36 RECEBE ALTURA DAS TRACKS;
#X text 124 74 90% DA ALTURA DA TRACK;
#X msg 54 197 posX \$1;
#X msg 120 197 posY \$1;
#X msg 190 197 sizeX \$1;
#X msg 260 197 sizeY \$1;
#X obj 54 236 outlet CONTROLS;
#X obj 54 36 r \$1-h_tracks;
#X obj 81 93 t f f f;
#X obj 54 149 t f f;
#X obj 54 130 / 2;
#X text 181 168 ALTERA POSIÇÃO LOCAL DE ACORDO COM DISPOSITIVO;
#N canvas 937 129 453 213 CORRECT_POSITION 0;
#X obj 58 63 r \$1-ratio;
#X text 130 63 RECEBE PROPORÇÃO DA TELA;
#X obj 43 120 * 1;
#X msg 58 101 1;
#X obj 58 82 sel 0 1;
#X obj 43 34 inlet;
#X obj 43 149 outlet;
#X text 113 82 ALTERA POSIÇÃO LOCAL DE ACORDO COM DISPOSITIVO;
#X msg 88 101 2;
#X connect 0 0 4 0;
#X connect 2 0 6 0;
#X connect 3 0 2 1;
#X connect 4 0 3 0;
#X connect 4 1 8 0;
#X connect 5 0 2 0;
#X connect 8 0 2 1;
#X restore 54 168 pd CORRECT_POSITION;
#X obj 507 168 r \$1-mainState;
#X msg 507 197 touch \$1;
#X text 504 145 CONTROLE DE TOQUE;
#X connect 0 0 13 0;
#X connect 1 0 0 0;
#X connect 1 1 2 0;
#X connect 2 0 11 0;
#X connect 5 0 9 0;
#X connect 6 0 9 0;
#X connect 7 0 9 0;
#X connect 8 0 9 0;
#X connect 10 0 1 0;
#X connect 11 0 0 1;
#X connect 11 1 7 0;
#X connect 11 2 8 0;
#X connect 12 0 15 0;
#X connect 12 1 6 0;
#X connect 13 0 12 0;
#X connect 15 0 5 0;
#X connect 16 0 17 0;
#X connect 17 0 9 0;
#X restore 201 256 pd PARAMS;
#X text 359 30 RENDER;
#X obj 316 49 moses 1;
#X obj 316 68 t f f;
#X text 359 68 DESLIGA TODOS OS [bit_track] QUANDO SAI DO ESTÁGIO
3 [ESMERIL], f 33;
#X connect 0 0 103 0;
#X connect 1 0 26 0;
#X connect 2 0 62 0;
#X connect 3 0 4 0;
#X connect 4 0 2 2;
#X connect 5 0 3 0;
#X connect 6 0 5 0;
#X connect 6 1 3 1;
#X connect 9 0 12 0;
#X connect 10 0 4 1;
#X connect 11 0 6 0;
#X connect 12 0 14 0;
#X connect 13 0 15 0;
#X connect 14 0 13 1;
#X connect 15 0 117 0;
#X connect 16 0 21 0;
#X connect 18 0 19 0;
#X connect 19 0 121 0;
#X connect 21 0 18 0;
#X connect 22 0 2 0;
#X connect 23 0 140 0;
#X connect 24 0 137 2;
#X connect 24 1 137 1;
#X connect 26 0 116 0;
#X connect 26 1 107 0;
#X connect 26 2 108 0;
#X connect 27 0 14 1;
#X connect 28 0 40 0;
#X connect 29 0 104 0;
#X connect 30 0 28 0;
#X connect 31 0 30 1;
#X connect 31 1 28 2;
#X connect 32 0 31 0;
#X connect 33 0 37 0;
#X connect 34 0 33 1;
#X connect 34 1 37 7;
#X connect 35 0 34 0;
#X connect 37 0 69 0;
#X connect 37 1 73 0;
#X connect 37 2 77 0;
#X connect 37 3 81 0;
#X connect 37 4 85 0;
#X connect 37 5 89 0;
#X connect 38 0 59 1;
#X connect 38 1 63 1;
#X connect 40 0 41 1;
#X connect 40 1 55 0;
#X connect 42 0 47 0;
#X connect 42 1 26 1;
#X connect 42 2 48 0;
#X connect 43 0 50 0;
#X connect 43 1 26 2;
#X connect 43 2 51 0;
#X connect 44 0 53 0;
#X connect 44 1 26 3;
#X connect 44 2 54 0;
#X connect 46 0 64 0;
#X connect 47 0 46 1;
#X connect 48 0 46 1;
#X connect 49 0 65 0;
#X connect 50 0 49 1;
#X connect 51 0 49 1;
#X connect 52 0 66 0;
#X connect 53 0 52 1;
#X connect 54 0 52 1;
#X connect 55 0 68 0;
#X connect 56 0 55 1;
#X connect 57 0 55 1;
#X connect 58 0 56 0;
#X connect 58 1 28 1;
#X connect 58 2 57 0;
#X connect 60 0 0 1;
#X connect 61 0 60 0;
#X connect 62 0 13 0;
#X connect 62 1 137 0;
#X connect 62 2 111 0;
#X connect 64 0 124 0;
#X connect 65 0 124 0;
#X connect 66 0 124 0;
#X connect 68 0 124 0;
#X connect 69 0 93 0;
#X connect 70 0 69 1;
#X connect 71 0 69 1;
#X connect 72 0 70 0;
#X connect 72 1 37 1;
#X connect 72 2 71 0;
#X connect 73 0 94 0;
#X connect 74 0 73 1;
#X connect 75 0 73 1;
#X connect 76 0 74 0;
#X connect 76 1 37 2;
#X connect 76 2 75 0;
#X connect 77 0 95 0;
#X connect 78 0 77 1;
#X connect 79 0 77 1;
#X connect 80 0 78 0;
#X connect 80 1 37 3;
#X connect 80 2 79 0;
#X connect 81 0 96 0;
#X connect 82 0 81 1;
#X connect 83 0 81 1;
#X connect 84 0 82 0;
#X connect 84 1 37 4;
#X connect 84 2 83 0;
#X connect 85 0 97 0;
#X connect 86 0 85 1;
#X connect 87 0 85 1;
#X connect 88 0 86 0;
#X connect 88 1 37 5;
#X connect 88 2 87 0;
#X connect 89 0 98 0;
#X connect 90 0 89 1;
#X connect 91 0 89 1;
#X connect 92 0 90 0;
#X connect 92 1 37 6;
#X connect 92 2 91 0;
#X connect 93 0 124 0;
#X connect 94 0 124 0;
#X connect 95 0 124 0;
#X connect 96 0 124 0;
#X connect 97 0 124 0;
#X connect 98 0 124 0;
#X connect 99 0 130 0;
#X connect 100 0 99 1;
#X connect 101 0 99 1;
#X connect 102 0 100 0;
#X connect 102 1 137 2;
#X connect 102 2 101 0;
#X connect 103 0 41 0;
#X connect 104 0 1 1;
#X connect 104 1 26 4;
#X connect 104 2 105 0;
#X connect 105 0 103 1;
#X connect 106 0 63 0;
#X connect 106 1 59 0;
#X connect 107 0 49 0;
#X connect 107 1 38 3;
#X connect 107 2 109 2;
#X connect 108 0 52 0;
#X connect 108 1 38 4;
#X connect 108 2 109 3;
#X connect 109 0 26 2;
#X connect 109 1 26 3;
#X connect 111 0 33 0;
#X connect 111 1 30 0;
#X connect 111 2 1 0;
#X connect 111 3 0 0;
#X connect 111 4 109 0;
#X connect 111 5 110 0;
#X connect 111 6 106 0;
#X connect 112 0 123 0;
#X connect 113 0 114 0;
#X connect 114 0 110 2;
#X connect 115 0 24 3;
#X connect 115 1 99 0;
#X connect 115 2 38 0;
#X connect 115 3 118 0;
#X connect 116 0 46 0;
#X connect 116 1 38 2;
#X connect 116 2 109 1;
#X connect 116 3 110 1;
#X connect 117 0 35 0;
#X connect 117 1 32 0;
#X connect 117 2 29 0;
#X connect 117 3 61 0;
#X connect 117 4 38 1;
#X connect 117 5 112 0;
#X connect 118 0 120 0;
#X connect 118 1 113 0;
#X connect 119 0 120 0;
#X connect 119 1 120 1;
#X connect 120 0 109 4;
#X connect 121 0 136 0;
#X connect 121 1 22 1;
#X connect 121 2 122 0;
#X connect 122 0 117 0;
#X connect 123 0 114 0;
#X connect 123 1 114 1;
#X connect 123 2 119 0;
#X connect 124 0 125 0;
#X connect 125 0 126 0;
#X connect 127 0 133 0;
#X connect 129 0 135 0;
#X connect 130 0 124 0;
#X connect 133 0 131 0;
#X connect 133 1 129 0;
#X connect 135 0 102 0;
#X connect 135 1 72 0;
#X connect 135 2 76 0;
#X connect 135 3 80 0;
#X connect 135 4 84 0;
#X connect 135 5 88 0;
#X connect 135 6 92 0;
#X connect 135 7 58 0;
#X connect 135 8 42 0;
#X connect 135 9 43 0;
#X connect 135 10 44 0;
#X connect 135 11 38 5;
#X connect 136 0 22 0;
#X connect 137 1 24 0;
#X connect 137 3 24 1;
#X connect 137 4 24 2;
#X connect 137 5 115 0;
#X connect 138 0 137 3;
#X connect 140 0 141 0;
#X connect 140 1 22 0;
#X connect 141 0 22 0;
#X connect 141 1 137 2;
