#N canvas 526 224 488 538 10;
#X obj 51 200 ofTranslate;
#X obj 51 50 inlet RENDER_CHAIN;
#X obj 51 480 outlet RENDER_CHAIN;
#X obj 158 113 r \$0-refresh;
#N canvas 111 201 546 332 CONTROLS 0;
#X obj 50 246 s \$0-refresh;
#X obj 50 227 bang;
#X text 304 247 DEFINE VARIÁVEIS DO SISTEMA OFELIA, f 19;
#X text 47 270 ATUALIZA GRÁFICOS QUANDO MUDA PARÂMETROS VISUAIS,
f 24;
#X obj 50 25 inlet;
#X text 408 93 MEMÓRIA LOCAL;
#X obj 237 227 ofDefine \; @posX \; @posY \; @sizeX \; @sizeY \;;
#X obj 50 93 bit_param v\$0_posX \$0-memo 0 0;
#X obj 50 112 bit_param v\$0_posY \$0-memo 1 0;
#X obj 287 131 loadbang;
#X msg 287 150 234 37 74;
#X obj 50 169 bit_param v\$0_color \$0-memo 4;
#X obj 50 54 route posX posY sizeX sizeY color progress;
#X obj 50 188 bit_param v\$0_progress \$0-memo 5 1;
#X obj 287 93 bit_memo \$0-memo 6;
#X obj 50 131 bit_param v\$0_sizeX \$0-memo 2 1;
#X obj 50 150 bit_param v\$0_sizeY \$0-memo 3 1;
#X connect 1 0 0 0;
#X connect 4 0 12 0;
#X connect 7 0 1 0;
#X connect 8 0 1 0;
#X connect 9 0 10 0;
#X connect 10 0 11 0;
#X connect 12 0 7 0;
#X connect 12 1 8 0;
#X connect 12 2 15 0;
#X connect 12 3 16 0;
#X connect 12 4 11 0;
#X connect 12 5 13 0;
#X connect 15 0 1 0;
#X connect 16 0 1 0;
#X restore 294 79 pd CONTROLS;
#X obj 51 422 ofPopMatrix;
#X obj 51 441 ofPopStyle;
#X text 339 145 POS. X;
#X text 339 158 POS. Y;
#X obj 51 89 ofPushStyle;
#X obj 51 108 ofPushMatrix;
#X obj 294 50 inlet EXTERNAL_CONTROL;
#X obj 51 219 t b b;
#X text 338 184 ALTURA;
#X text 338 171 LARGURA;
#X text 135 14 ** VISUALIZAÇÃO DE PROGRESSO;
#X obj 78 238 ofSetFillMode FILLED;
#X obj 78 383 ofSector 0 0 -90 -90;
#X obj 231 291 ofRcv @progress;
#X obj 231 348 * 360;
#X obj 231 367 - 90;
#X obj 78 334 ofSetColor;
#X obj 100 277 ofRcv @color;
#X obj 100 296 list prepend set;
#X obj 100 315 list trim;
#X obj 158 132 ofExpr \; $o1 = int(@posX+(@sizeX/2)) \; $o2 = int(@posY+(@sizeY/2))
\; $o3 = int(@sizeX/2) \; $o4 = int(@sizeY/2) \;;
#X obj 231 310 moses 1e-06;
#X msg 231 329 1e-06;
#X connect 0 0 12 0;
#X connect 1 0 9 0;
#X connect 3 0 25 0;
#X connect 5 0 6 0;
#X connect 6 0 2 0;
#X connect 9 0 10 0;
#X connect 10 0 0 0;
#X connect 11 0 4 0;
#X connect 12 0 5 0;
#X connect 12 1 16 0;
#X connect 16 0 21 0;
#X connect 18 0 26 0;
#X connect 19 0 20 0;
#X connect 20 0 17 4;
#X connect 21 0 17 0;
#X connect 22 0 23 0;
#X connect 23 0 24 0;
#X connect 24 0 21 0;
#X connect 25 0 0 1;
#X connect 25 1 0 2;
#X connect 25 2 17 1;
#X connect 25 3 17 2;
#X connect 26 0 27 0;
#X connect 26 1 19 0;
#X connect 27 0 19 0;
