#N canvas 333 143 824 658 10;
#X obj 51 202 ofTranslate;
#X obj 51 50 inlet RENDER_CHAIN;
#X obj 51 611 outlet RENDER_CHAIN;
#X text 262 142 ALTURA;
#X obj 141 84 r \$0-refresh;
#X obj 515 440 ofSetColor 213 220 230 255;
#X obj 78 288 ofGetTranslate;
#N canvas 780 299 658 455 CONTROLS 0;
#X obj 307 227 loadbang;
#X obj 50 371 s \$0-refresh;
#X obj 50 352 bang;
#X text 304 372 DEFINE VARIÁVEIS DO SISTEMA OFELIA, f 19;
#X text 47 395 ATUALIZA GRÁFICOS QUANDO MUDA PARÂMETROS VISUAIS,
f 24;
#X obj 237 342 ofDefine \; @posX \; @posY \; @sizeX \; @sizeY \; @value
\;;
#X msg 307 265 110 107 175 255;
#X msg 307 284 62 75 86 255;
#X obj 50 25 inlet;
#X obj 307 133 bit_memo \$0-memo 12;
#X obj 50 54 route posX posY sizeX sizeY value drawPath drawPNG pngOffset
touch bgColor actColor actColor2, f 93;
#X text 434 133 MEMÓRIA LOCAL;
#X obj 50 264 bit_param v\$0_bgColor \$0-memo 9;
#X obj 50 283 bit_param v\$0_actColor \$0-memo 10;
#X obj 50 302 bit_param v\$0_actColor2 \$0-memo 11;
#X obj 50 93 bit_param v\$0_posX \$0-memo 0 0;
#X obj 50 112 bit_param v\$0_posY \$0-memo 1 0;
#X obj 50 131 bit_param v\$0_sizeX \$0-memo 2 1;
#X obj 50 150 bit_param v\$0_sizeY \$0-memo 3 1;
#X obj 50 169 bit_param v\$0_value \$0-memo 4 0;
#X obj 50 188 bit_param v\$0_drawPath \$0-memo 5 0;
#X obj 50 207 bit_param v\$0_drawPNG \$0-memo 6 0;
#X obj 50 226 bit_param v\$0_pngOffset \$0-memo 7 0;
#X obj 50 245 bit_param v\$0_touch \$0-memo 8 0;
#X msg 307 246 176 51 86 255;
#X connect 0 0 6 0;
#X connect 0 0 7 0;
#X connect 0 0 24 0;
#X connect 2 0 1 0;
#X connect 6 0 13 0;
#X connect 7 0 14 0;
#X connect 8 0 10 0;
#X connect 10 0 15 0;
#X connect 10 1 16 0;
#X connect 10 2 17 0;
#X connect 10 3 18 0;
#X connect 10 4 19 0;
#X connect 10 5 20 0;
#X connect 10 6 21 0;
#X connect 10 7 22 0;
#X connect 10 8 23 0;
#X connect 10 9 12 0;
#X connect 10 10 13 0;
#X connect 10 11 14 0;
#X connect 12 0 2 0;
#X connect 13 0 2 0;
#X connect 14 0 2 0;
#X connect 15 0 2 0;
#X connect 16 0 2 0;
#X connect 17 0 2 0;
#X connect 18 0 2 0;
#X connect 24 0 12 0;
#X restore 584 69 pd CONTROLS;
#N canvas 368 391 439 249 COLOR 0;
#X msg 38 139 set \$1 \$2 \$3 \$4;
#X obj 38 178 outlet;
#X obj 38 110 list;
#X obj 158 110 list;
#X obj 59 91 ofRcv @bgColor;
#X obj 179 91 ofRcv @actColor;
#X obj 38 43 inlet VALUE;
#X obj 288 110 list;
#X obj 38 62 sel 0 1 2;
#X obj 309 91 ofRcv @actColor2;
#X connect 0 0 1 0;
#X connect 2 0 0 0;
#X connect 3 0 0 0;
#X connect 4 0 2 1;
#X connect 5 0 3 1;
#X connect 6 0 8 0;
#X connect 7 0 0 0;
#X connect 8 0 2 0;
#X connect 8 1 3 0;
#X connect 8 2 7 0;
#X connect 9 0 7 1;
#X restore 623 421 pd COLOR;
#X text 261 155 LARGURA;
#X obj 515 421 ofSetFillMode 1;
#X obj 141 184 t b f;
#X obj 185 184 t b f;
#X obj 78 307 s \$0-getTranslate;
#X obj 51 221 t b b;
#X obj 78 250 spigot;
#X obj 78 269 t b b;
#X msg 111 231 0;
#X msg 141 231 1;
#X text 76 331 OBTÉM POSIÇÃO LOCAL CADA VEZ QUE É ATUALIZADA,
f 24;
#X obj 51 553 ofPopMatrix;
#X obj 51 572 ofPopStyle;
#X obj 670 383 ofRcv @value;
#X obj 230 203 pack f f;
#X obj 230 184 t f f;
#X text 262 116 POS. X;
#X text 262 129 POS. Y;
#X obj 51 89 ofPushStyle;
#X obj 51 108 ofPushMatrix;
#X text 667 360 GESTÃO DO VALOR;
#X obj 584 50 inlet EXTERNAL_CONTROL;
#X obj 515 392 spigot;
#X obj 548 373 ofRcv @drawPath;
#X text 321 246 CARREGA PATH;
#X msg 230 222 load rect \$1 \$2;
#X obj 275 184 t f f;
#X obj 141 103 ofExpr \; $o1 = int(@posX) \; $o2 = int(@posY) \; $o3
= int(@sizeX) \; $o4 = int(@sizeY) \;;
#X obj 230 241 ofLoadPath2d \; @multitouch \;;
#X obj 515 459 ofDrawPath2d @multitouch;
#X obj 415 50 inlet SLICES;
#X obj 415 69 s \$0-slices;
#X obj 670 402 t f f;
#X text 225 14 ** ÁREA INTERATIVA MULTITOQUES PARA MODO MULTIGRANULAR
;
#N canvas 620 154 678 723 GRAIN 0;
#X obj 50 39 inlet RENDER_CHAIN;
#X obj 50 123 ofPushMatrix;
#X obj 177 60 tgl 15 0 empty empty empty 17 7 0 10 -262144 -1 -1 0
1;
#N canvas 2 114 917 587 TOUCH 0;
#X obj 49 29 r \$1-touchDown;
#X obj 49 145 unpack f f f;
#X obj 327 29 r \$1-touchMove;
#X obj 597 29 r \$1-touchUp;
#X obj 350 108 r \$0-getTranslate;
#X obj 350 127 unpack f f;
#X obj 83 183 pack f f;
#X obj 83 164 -;
#X obj 128 164 -;
#X text 294 221 INDENTIFICA TOQUE LOCAL;
#X obj 327 335 route -1;
#X obj 597 335 route -1;
#X msg 597 354 -1;
#X text 681 354 REINICIA SISTEMA LOCAL QUANDO LIBERA TOQUE, f 22;
#X text 465 108 RECEBE POSIÇÃO LOCAL;
#X obj 327 354 t a a;
#X obj 402 410 pack f f;
#X obj 402 391 -;
#X obj 447 391 -;
#X obj 402 372 unpack f f;
#X obj 402 448 change;
#X text 450 449 FILTRA REPETIÇÃO;
#X text 447 29 INTERAÇÕES GLOBAIS;
#X obj 327 467 list append 0;
#X obj 327 526 outlet MOVE;
#X text 340 503 X / Y / 0-1 (DENTRO/FORA);
#X obj 49 66 spigot;
#X text 790 29 TOUCH ON/OFF;
#X obj 49 240 spigot;
#X obj 83 221 ofIsPointInsidePath2d @multitouch;
#X obj 402 429 ofIsPointInsidePath2d @multitouch;
#X text 613 429 INDENTIFICA MOVIMENTO LOCAL SOBRE A ÁREA;
#X obj 350 146 t f f;
#X obj 407 146 t f f;
#X msg 49 487 1;
#X msg 79 487 0;
#X obj 711 29 inlet TOUCH;
#X obj 83 202 t l l;
#X obj 148 487 list;
#X obj 49 317 t b b f f;
#X obj 49 526 outlet TOUCH;
#X obj 148 526 outlet TOUCH_POSITION;
#X obj 49 269 spigot 1;
#X msg 94 250 0;
#X msg 124 250 1;
#X obj 49 288 t f b;
#X text 110 269 GARANTE APENAS 1 TOQUE LOCAL;
#X obj 597 373 t b b f f;
#X obj 557 296 r \$0-forceRelease;
#X obj 711 48 t f;
#X connect 0 0 26 0;
#X connect 1 0 28 0;
#X connect 1 1 7 0;
#X connect 1 2 8 0;
#X connect 2 0 10 0;
#X connect 3 0 11 0;
#X connect 4 0 5 0;
#X connect 5 0 32 0;
#X connect 5 1 33 0;
#X connect 6 0 37 0;
#X connect 7 0 6 0;
#X connect 8 0 6 1;
#X connect 10 0 15 0;
#X connect 11 0 12 0;
#X connect 12 0 47 0;
#X connect 15 0 23 0;
#X connect 15 1 19 0;
#X connect 16 0 30 0;
#X connect 17 0 16 0;
#X connect 18 0 16 1;
#X connect 19 0 17 0;
#X connect 19 1 18 0;
#X connect 20 0 23 1;
#X connect 23 0 24 0;
#X connect 26 0 1 0;
#X connect 28 0 42 0;
#X connect 29 0 28 1;
#X connect 30 0 20 0;
#X connect 32 0 7 1;
#X connect 32 1 17 1;
#X connect 33 0 8 1;
#X connect 33 1 18 1;
#X connect 34 0 40 0;
#X connect 35 0 40 0;
#X connect 36 0 49 0;
#X connect 37 0 29 0;
#X connect 37 1 38 1;
#X connect 38 0 41 0;
#X connect 39 0 34 0;
#X connect 39 1 38 0;
#X connect 39 2 10 1;
#X connect 39 3 11 1;
#X connect 42 0 45 0;
#X connect 43 0 42 1;
#X connect 44 0 42 1;
#X connect 45 0 39 0;
#X connect 45 1 43 0;
#X connect 47 0 35 0;
#X connect 47 1 44 0;
#X connect 47 2 10 1;
#X connect 47 3 11 1;
#X connect 48 0 12 0;
#X connect 49 0 26 1;
#X restore 193 58 pd TOUCH;
#X obj 50 94 spigot;
#X obj 417 166 ofRcv @sizeY;
#X obj 417 185 int;
#X obj 50 521 ofSetColor 213 220 230 255;
#X obj 50 502 ofSetFillMode 1;
#X obj 50 560 ofRectangle;
#X obj 101 203 r \$0-slices;
#X obj 320 185 int;
#X obj 320 166 ofRcv @sizeX;
#X obj 101 220 pack f f;
#X text 180 203 NÚMERO DE SLICES;
#X text 317 143 TAMANHO DA ÁREA;
#X obj 101 239 swap;
#X obj 101 258 /;
#X text 131 258 TAMANHO DO GRÃO = 1 SLICE;
#X msg 211 505 set \$1 \$2 \$3 \$4;
#X obj 211 486 ofRcv @bgColor;
#X obj 50 411 ofTranslate;
#X obj 50 599 ofPopMatrix;
#X obj 425 61 r \$0-getTranslate;
#X obj 425 80 unpack f f;
#X obj 255 77 unpack f f;
#X obj 330 96 -;
#X obj 330 77 unpack f f;
#X obj 71 353 clip 0 600;
#X obj 255 112 t f;
#X obj 128 296 pack f f;
#X obj 128 315 swap;
#X obj 128 334 -;
#X text 274 58 GERENCIA TOQUE;
#X obj 193 39 inlet TOUCH;
#X obj 212 667 outlet TOUCH;
#X obj 71 372 t f f;
#X obj 344 388 /;
#X obj 344 600 list prepend 0;
#X obj 344 638 list trim;
#X text 375 388 POSIÇÃO X NORMALIZADA 0 - 1;
#X obj 387 96 -;
#X obj 387 115 t f;
#X obj 417 204 t f f;
#X obj 390 457 /;
#X text 421 457 POSIÇÃO Y NORMALIZADA 0 - 1;
#X obj 390 495 t f f;
#X text 441 600 ID DO TOQUE;
#X obj 417 533 * 255;
#X text 459 533 CONVERTE Y EM OPACIDADE;
#X obj 344 581 pack f f f f;
#X obj 320 204 t f f f f;
#X obj 101 277 t f f f;
#X obj 413 562 /;
#X text 444 563 TAMANHO DO SLICE ENTRE 0 - 1;
#X text 538 514 CURVA EXPONENCIAL;
#X obj 344 619 list prepend \$2;
#X text 446 619 CAMADA;
#X obj 390 476 clip 0 1;
#X obj 344 407 t b f;
#X obj 344 426 spigot;
#X obj 193 77 t f f f f;
#X obj 344 667 s \$1-granularBus;
#X text 453 666 ENVIA PARA MECANISMO DE ÁUDIO;
#X obj 417 514 expr pow($f1 \, 0.5);
#X connect 0 0 4 0;
#X connect 1 0 21 0;
#X connect 3 0 2 0;
#X connect 3 0 61 0;
#X connect 3 1 25 0;
#X connect 3 2 27 0;
#X connect 4 0 1 0;
#X connect 5 0 6 0;
#X connect 6 0 43 0;
#X connect 7 0 9 0;
#X connect 8 0 7 0;
#X connect 9 0 22 0;
#X connect 10 0 13 0;
#X connect 11 0 51 0;
#X connect 12 0 11 0;
#X connect 13 0 16 0;
#X connect 16 0 17 0;
#X connect 16 1 17 1;
#X connect 17 0 52 0;
#X connect 19 0 7 0;
#X connect 20 0 19 0;
#X connect 21 0 8 0;
#X connect 23 0 24 0;
#X connect 24 0 26 1;
#X connect 24 1 41 1;
#X connect 25 0 29 0;
#X connect 25 1 42 0;
#X connect 26 0 29 0;
#X connect 27 0 26 0;
#X connect 27 1 41 0;
#X connect 28 0 36 0;
#X connect 29 0 28 0;
#X connect 30 0 31 0;
#X connect 31 0 32 0;
#X connect 31 1 32 1;
#X connect 32 0 28 2;
#X connect 34 0 3 0;
#X connect 36 0 21 1;
#X connect 36 1 37 0;
#X connect 37 0 59 0;
#X connect 38 0 56 0;
#X connect 39 0 62 0;
#X connect 41 0 42 0;
#X connect 42 0 44 0;
#X connect 43 0 9 2;
#X connect 43 1 44 1;
#X connect 44 0 58 0;
#X connect 46 0 50 2;
#X connect 46 1 64 0;
#X connect 48 0 7 4;
#X connect 50 0 38 0;
#X connect 51 0 13 1;
#X connect 51 1 30 1;
#X connect 51 2 37 1;
#X connect 51 3 53 1;
#X connect 52 0 9 1;
#X connect 52 1 30 0;
#X connect 52 2 53 0;
#X connect 53 0 50 3;
#X connect 56 0 39 0;
#X connect 58 0 46 0;
#X connect 59 0 60 0;
#X connect 59 1 50 1;
#X connect 60 0 50 0;
#X connect 61 0 4 1;
#X connect 61 1 35 0;
#X connect 61 2 60 1;
#X connect 61 3 50 0;
#X connect 64 0 48 0;
#X restore 68 514 pd GRAIN;
#X text 672 459 DESENHA ÁREA;
#X obj 68 395 t b b b b b b;
#X obj 241 421 ofSetColor 255 255 255 255;
#X obj 241 392 spigot;
#X obj 274 373 ofRcv @drawPNG;
#X text 424 461 DESENHA PNG;
#N canvas 2 193 322 205 PNG_READ 0;
#X obj 52 97 +;
#X text 83 97 9 ARGUMENTO (PNG OFFSET) DEFINE QUAL IMAGENS LER DO BANCO
, f 31;
#X obj 52 39 inlet VALUE;
#X obj 52 146 outlet PNG_INDEX;
#X obj 67 78 ofRcv @pngOffset;
#X connect 0 0 3 0;
#X connect 2 0 0 0;
#X connect 4 0 0 1;
#X restore 261 440 pd PNG_READ;
#X obj 241 459 ofDrawImage \$1-pngBank[0] 1 0;
#X obj 51 376 t b b b b;
#X obj 113 495 ofRcv @touch;
#X text 429 514 GERENCIA ATÉ 6 TOQUES POR CAMADA;
#N canvas 620 154 678 723 GRAIN 0;
#X obj 50 39 inlet RENDER_CHAIN;
#X obj 50 123 ofPushMatrix;
#X obj 177 60 tgl 15 0 empty empty empty 17 7 0 10 -262144 -1 -1 0
1;
#N canvas 2 114 917 587 TOUCH 0;
#X obj 49 29 r \$1-touchDown;
#X obj 49 145 unpack f f f;
#X obj 327 29 r \$1-touchMove;
#X obj 597 29 r \$1-touchUp;
#X obj 350 108 r \$0-getTranslate;
#X obj 350 127 unpack f f;
#X obj 83 183 pack f f;
#X obj 83 164 -;
#X obj 128 164 -;
#X text 294 221 INDENTIFICA TOQUE LOCAL;
#X obj 327 335 route -1;
#X obj 597 335 route -1;
#X msg 597 354 -1;
#X text 681 354 REINICIA SISTEMA LOCAL QUANDO LIBERA TOQUE, f 22;
#X text 465 108 RECEBE POSIÇÃO LOCAL;
#X obj 327 354 t a a;
#X obj 402 410 pack f f;
#X obj 402 391 -;
#X obj 447 391 -;
#X obj 402 372 unpack f f;
#X obj 402 448 change;
#X text 450 449 FILTRA REPETIÇÃO;
#X text 447 29 INTERAÇÕES GLOBAIS;
#X obj 327 467 list append 0;
#X obj 327 526 outlet MOVE;
#X text 340 503 X / Y / 0-1 (DENTRO/FORA);
#X obj 49 66 spigot;
#X text 790 29 TOUCH ON/OFF;
#X obj 49 240 spigot;
#X obj 83 221 ofIsPointInsidePath2d @multitouch;
#X obj 402 429 ofIsPointInsidePath2d @multitouch;
#X text 613 429 INDENTIFICA MOVIMENTO LOCAL SOBRE A ÁREA;
#X obj 350 146 t f f;
#X obj 407 146 t f f;
#X msg 49 487 1;
#X msg 79 487 0;
#X obj 711 29 inlet TOUCH;
#X obj 83 202 t l l;
#X obj 148 487 list;
#X obj 49 317 t b b f f;
#X obj 49 526 outlet TOUCH;
#X obj 148 526 outlet TOUCH_POSITION;
#X obj 49 269 spigot 1;
#X msg 94 250 0;
#X msg 124 250 1;
#X obj 49 288 t f b;
#X text 110 269 GARANTE APENAS 1 TOQUE LOCAL;
#X obj 597 373 t b b f f;
#X obj 557 296 r \$0-forceRelease;
#X obj 711 48 t f;
#X connect 0 0 26 0;
#X connect 1 0 28 0;
#X connect 1 1 7 0;
#X connect 1 2 8 0;
#X connect 2 0 10 0;
#X connect 3 0 11 0;
#X connect 4 0 5 0;
#X connect 5 0 32 0;
#X connect 5 1 33 0;
#X connect 6 0 37 0;
#X connect 7 0 6 0;
#X connect 8 0 6 1;
#X connect 10 0 15 0;
#X connect 11 0 12 0;
#X connect 12 0 47 0;
#X connect 15 0 23 0;
#X connect 15 1 19 0;
#X connect 16 0 30 0;
#X connect 17 0 16 0;
#X connect 18 0 16 1;
#X connect 19 0 17 0;
#X connect 19 1 18 0;
#X connect 20 0 23 1;
#X connect 23 0 24 0;
#X connect 26 0 1 0;
#X connect 28 0 42 0;
#X connect 29 0 28 1;
#X connect 30 0 20 0;
#X connect 32 0 7 1;
#X connect 32 1 17 1;
#X connect 33 0 8 1;
#X connect 33 1 18 1;
#X connect 34 0 40 0;
#X connect 35 0 40 0;
#X connect 36 0 49 0;
#X connect 37 0 29 0;
#X connect 37 1 38 1;
#X connect 38 0 41 0;
#X connect 39 0 34 0;
#X connect 39 1 38 0;
#X connect 39 2 10 1;
#X connect 39 3 11 1;
#X connect 42 0 45 0;
#X connect 43 0 42 1;
#X connect 44 0 42 1;
#X connect 45 0 39 0;
#X connect 45 1 43 0;
#X connect 47 0 35 0;
#X connect 47 1 44 0;
#X connect 47 2 10 1;
#X connect 47 3 11 1;
#X connect 48 0 12 0;
#X connect 49 0 26 1;
#X restore 193 58 pd TOUCH;
#X obj 50 94 spigot;
#X obj 417 166 ofRcv @sizeY;
#X obj 417 185 int;
#X obj 50 521 ofSetColor 213 220 230 255;
#X obj 50 502 ofSetFillMode 1;
#X obj 50 560 ofRectangle;
#X obj 101 203 r \$0-slices;
#X obj 320 185 int;
#X obj 320 166 ofRcv @sizeX;
#X obj 101 220 pack f f;
#X text 180 203 NÚMERO DE SLICES;
#X text 317 143 TAMANHO DA ÁREA;
#X obj 101 239 swap;
#X obj 101 258 /;
#X text 131 258 TAMANHO DO GRÃO = 1 SLICE;
#X msg 211 505 set \$1 \$2 \$3 \$4;
#X obj 211 486 ofRcv @bgColor;
#X obj 50 411 ofTranslate;
#X obj 50 599 ofPopMatrix;
#X obj 425 61 r \$0-getTranslate;
#X obj 425 80 unpack f f;
#X obj 255 77 unpack f f;
#X obj 330 96 -;
#X obj 330 77 unpack f f;
#X obj 71 353 clip 0 600;
#X obj 255 112 t f;
#X obj 128 296 pack f f;
#X obj 128 315 swap;
#X obj 128 334 -;
#X text 274 58 GERENCIA TOQUE;
#X obj 193 39 inlet TOUCH;
#X obj 212 667 outlet TOUCH;
#X obj 71 372 t f f;
#X obj 344 388 /;
#X obj 344 638 list trim;
#X text 375 388 POSIÇÃO X NORMALIZADA 0 - 1;
#X obj 387 96 -;
#X obj 387 115 t f;
#X obj 417 204 t f f;
#X obj 390 457 /;
#X text 421 457 POSIÇÃO Y NORMALIZADA 0 - 1;
#X obj 390 495 t f f;
#X text 441 600 ID DO TOQUE;
#X obj 417 533 * 255;
#X text 459 533 CONVERTE Y EM OPACIDADE;
#X obj 344 581 pack f f f f;
#X obj 320 204 t f f f f;
#X obj 101 277 t f f f;
#X obj 413 562 /;
#X text 444 563 TAMANHO DO SLICE ENTRE 0 - 1;
#X text 544 514 CURVA EXPONENCIAL;
#X obj 344 619 list prepend \$2;
#X text 446 619 CAMADA;
#X obj 390 476 clip 0 1;
#X obj 344 407 t b f;
#X obj 344 426 spigot;
#X obj 193 77 t f f f f;
#X obj 344 600 list prepend 1;
#X obj 344 667 s \$1-granularBus;
#X text 453 666 ENVIA PARA MECANISMO DE ÁUDIO;
#X obj 417 514 expr pow($f1 \, 0.5);
#X connect 0 0 4 0;
#X connect 1 0 21 0;
#X connect 3 0 2 0;
#X connect 3 0 60 0;
#X connect 3 1 25 0;
#X connect 3 2 27 0;
#X connect 4 0 1 0;
#X connect 5 0 6 0;
#X connect 6 0 42 0;
#X connect 7 0 9 0;
#X connect 8 0 7 0;
#X connect 9 0 22 0;
#X connect 10 0 13 0;
#X connect 11 0 50 0;
#X connect 12 0 11 0;
#X connect 13 0 16 0;
#X connect 16 0 17 0;
#X connect 16 1 17 1;
#X connect 17 0 51 0;
#X connect 19 0 7 0;
#X connect 20 0 19 0;
#X connect 21 0 8 0;
#X connect 23 0 24 0;
#X connect 24 0 26 1;
#X connect 24 1 40 1;
#X connect 25 0 29 0;
#X connect 25 1 41 0;
#X connect 26 0 29 0;
#X connect 27 0 26 0;
#X connect 27 1 40 0;
#X connect 28 0 36 0;
#X connect 29 0 28 0;
#X connect 30 0 31 0;
#X connect 31 0 32 0;
#X connect 31 1 32 1;
#X connect 32 0 28 2;
#X connect 34 0 3 0;
#X connect 36 0 21 1;
#X connect 36 1 37 0;
#X connect 37 0 58 0;
#X connect 38 0 62 0;
#X connect 40 0 41 0;
#X connect 41 0 43 0;
#X connect 42 0 9 2;
#X connect 42 1 43 1;
#X connect 43 0 57 0;
#X connect 45 0 49 2;
#X connect 45 1 64 0;
#X connect 47 0 7 4;
#X connect 49 0 61 0;
#X connect 50 0 13 1;
#X connect 50 1 30 1;
#X connect 50 2 37 1;
#X connect 50 3 52 1;
#X connect 51 0 9 1;
#X connect 51 1 30 0;
#X connect 51 2 52 0;
#X connect 52 0 49 3;
#X connect 55 0 38 0;
#X connect 57 0 45 0;
#X connect 58 0 59 0;
#X connect 58 1 49 1;
#X connect 59 0 49 0;
#X connect 60 0 4 1;
#X connect 60 1 35 0;
#X connect 60 2 59 1;
#X connect 60 3 49 0;
#X connect 61 0 55 0;
#X connect 64 0 47 0;
#X restore 128 514 pd GRAIN;
#N canvas 620 154 678 723 GRAIN 0;
#X obj 50 39 inlet RENDER_CHAIN;
#X obj 50 123 ofPushMatrix;
#X obj 177 60 tgl 15 0 empty empty empty 17 7 0 10 -262144 -1 -1 0
1;
#N canvas 2 114 917 587 TOUCH 0;
#X obj 49 29 r \$1-touchDown;
#X obj 49 145 unpack f f f;
#X obj 327 29 r \$1-touchMove;
#X obj 597 29 r \$1-touchUp;
#X obj 350 108 r \$0-getTranslate;
#X obj 350 127 unpack f f;
#X obj 83 183 pack f f;
#X obj 83 164 -;
#X obj 128 164 -;
#X text 294 221 INDENTIFICA TOQUE LOCAL;
#X obj 327 335 route -1;
#X obj 597 335 route -1;
#X msg 597 354 -1;
#X text 681 354 REINICIA SISTEMA LOCAL QUANDO LIBERA TOQUE, f 22;
#X text 465 108 RECEBE POSIÇÃO LOCAL;
#X obj 327 354 t a a;
#X obj 402 410 pack f f;
#X obj 402 391 -;
#X obj 447 391 -;
#X obj 402 372 unpack f f;
#X obj 402 448 change;
#X text 450 449 FILTRA REPETIÇÃO;
#X text 447 29 INTERAÇÕES GLOBAIS;
#X obj 327 467 list append 0;
#X obj 327 526 outlet MOVE;
#X text 340 503 X / Y / 0-1 (DENTRO/FORA);
#X obj 49 66 spigot;
#X text 790 29 TOUCH ON/OFF;
#X obj 49 240 spigot;
#X obj 83 221 ofIsPointInsidePath2d @multitouch;
#X obj 402 429 ofIsPointInsidePath2d @multitouch;
#X text 613 429 INDENTIFICA MOVIMENTO LOCAL SOBRE A ÁREA;
#X obj 350 146 t f f;
#X obj 407 146 t f f;
#X msg 49 487 1;
#X msg 79 487 0;
#X obj 711 29 inlet TOUCH;
#X obj 83 202 t l l;
#X obj 148 487 list;
#X obj 49 317 t b b f f;
#X obj 49 526 outlet TOUCH;
#X obj 148 526 outlet TOUCH_POSITION;
#X obj 49 269 spigot 1;
#X msg 94 250 0;
#X msg 124 250 1;
#X obj 49 288 t f b;
#X text 110 269 GARANTE APENAS 1 TOQUE LOCAL;
#X obj 597 373 t b b f f;
#X obj 557 296 r \$0-forceRelease;
#X obj 711 48 t f;
#X connect 0 0 26 0;
#X connect 1 0 28 0;
#X connect 1 1 7 0;
#X connect 1 2 8 0;
#X connect 2 0 10 0;
#X connect 3 0 11 0;
#X connect 4 0 5 0;
#X connect 5 0 32 0;
#X connect 5 1 33 0;
#X connect 6 0 37 0;
#X connect 7 0 6 0;
#X connect 8 0 6 1;
#X connect 10 0 15 0;
#X connect 11 0 12 0;
#X connect 12 0 47 0;
#X connect 15 0 23 0;
#X connect 15 1 19 0;
#X connect 16 0 30 0;
#X connect 17 0 16 0;
#X connect 18 0 16 1;
#X connect 19 0 17 0;
#X connect 19 1 18 0;
#X connect 20 0 23 1;
#X connect 23 0 24 0;
#X connect 26 0 1 0;
#X connect 28 0 42 0;
#X connect 29 0 28 1;
#X connect 30 0 20 0;
#X connect 32 0 7 1;
#X connect 32 1 17 1;
#X connect 33 0 8 1;
#X connect 33 1 18 1;
#X connect 34 0 40 0;
#X connect 35 0 40 0;
#X connect 36 0 49 0;
#X connect 37 0 29 0;
#X connect 37 1 38 1;
#X connect 38 0 41 0;
#X connect 39 0 34 0;
#X connect 39 1 38 0;
#X connect 39 2 10 1;
#X connect 39 3 11 1;
#X connect 42 0 45 0;
#X connect 43 0 42 1;
#X connect 44 0 42 1;
#X connect 45 0 39 0;
#X connect 45 1 43 0;
#X connect 47 0 35 0;
#X connect 47 1 44 0;
#X connect 47 2 10 1;
#X connect 47 3 11 1;
#X connect 48 0 12 0;
#X connect 49 0 26 1;
#X restore 193 58 pd TOUCH;
#X obj 50 94 spigot;
#X obj 417 166 ofRcv @sizeY;
#X obj 417 185 int;
#X obj 50 521 ofSetColor 213 220 230 255;
#X obj 50 502 ofSetFillMode 1;
#X obj 50 560 ofRectangle;
#X obj 101 203 r \$0-slices;
#X obj 320 185 int;
#X obj 320 166 ofRcv @sizeX;
#X obj 101 220 pack f f;
#X text 180 203 NÚMERO DE SLICES;
#X text 317 143 TAMANHO DA ÁREA;
#X obj 101 239 swap;
#X obj 101 258 /;
#X text 131 258 TAMANHO DO GRÃO = 1 SLICE;
#X msg 211 505 set \$1 \$2 \$3 \$4;
#X obj 211 486 ofRcv @bgColor;
#X obj 50 411 ofTranslate;
#X obj 50 599 ofPopMatrix;
#X obj 425 61 r \$0-getTranslate;
#X obj 425 80 unpack f f;
#X obj 255 77 unpack f f;
#X obj 330 96 -;
#X obj 330 77 unpack f f;
#X obj 71 353 clip 0 600;
#X obj 255 112 t f;
#X obj 128 296 pack f f;
#X obj 128 315 swap;
#X obj 128 334 -;
#X text 274 58 GERENCIA TOQUE;
#X obj 193 39 inlet TOUCH;
#X obj 212 667 outlet TOUCH;
#X obj 71 372 t f f;
#X obj 344 388 /;
#X obj 344 638 list trim;
#X text 375 388 POSIÇÃO X NORMALIZADA 0 - 1;
#X obj 387 96 -;
#X obj 387 115 t f;
#X obj 417 204 t f f;
#X obj 390 457 /;
#X text 421 457 POSIÇÃO Y NORMALIZADA 0 - 1;
#X obj 390 495 t f f;
#X text 441 600 ID DO TOQUE;
#X obj 417 533 * 255;
#X text 459 533 CONVERTE Y EM OPACIDADE;
#X obj 344 581 pack f f f f;
#X obj 320 204 t f f f f;
#X obj 101 277 t f f f;
#X obj 413 562 /;
#X text 444 563 TAMANHO DO SLICE ENTRE 0 - 1;
#X text 544 514 CURVA EXPONENCIAL;
#X obj 344 619 list prepend \$2;
#X text 446 619 CAMADA;
#X obj 390 476 clip 0 1;
#X obj 344 407 t b f;
#X obj 344 426 spigot;
#X obj 193 77 t f f f f;
#X obj 344 600 list prepend 2;
#X obj 344 667 s \$1-granularBus;
#X text 453 666 ENVIA PARA MECANISMO DE ÁUDIO;
#X obj 417 514 expr pow($f1 \, 0.5);
#X connect 0 0 4 0;
#X connect 1 0 21 0;
#X connect 3 0 2 0;
#X connect 3 0 60 0;
#X connect 3 1 25 0;
#X connect 3 2 27 0;
#X connect 4 0 1 0;
#X connect 5 0 6 0;
#X connect 6 0 42 0;
#X connect 7 0 9 0;
#X connect 8 0 7 0;
#X connect 9 0 22 0;
#X connect 10 0 13 0;
#X connect 11 0 50 0;
#X connect 12 0 11 0;
#X connect 13 0 16 0;
#X connect 16 0 17 0;
#X connect 16 1 17 1;
#X connect 17 0 51 0;
#X connect 19 0 7 0;
#X connect 20 0 19 0;
#X connect 21 0 8 0;
#X connect 23 0 24 0;
#X connect 24 0 26 1;
#X connect 24 1 40 1;
#X connect 25 0 29 0;
#X connect 25 1 41 0;
#X connect 26 0 29 0;
#X connect 27 0 26 0;
#X connect 27 1 40 0;
#X connect 28 0 36 0;
#X connect 29 0 28 0;
#X connect 30 0 31 0;
#X connect 31 0 32 0;
#X connect 31 1 32 1;
#X connect 32 0 28 2;
#X connect 34 0 3 0;
#X connect 36 0 21 1;
#X connect 36 1 37 0;
#X connect 37 0 58 0;
#X connect 38 0 62 0;
#X connect 40 0 41 0;
#X connect 41 0 43 0;
#X connect 42 0 9 2;
#X connect 42 1 43 1;
#X connect 43 0 57 0;
#X connect 45 0 49 2;
#X connect 45 1 64 0;
#X connect 47 0 7 4;
#X connect 49 0 61 0;
#X connect 50 0 13 1;
#X connect 50 1 30 1;
#X connect 50 2 37 1;
#X connect 50 3 52 1;
#X connect 51 0 9 1;
#X connect 51 1 30 0;
#X connect 51 2 52 0;
#X connect 52 0 49 3;
#X connect 55 0 38 0;
#X connect 57 0 45 0;
#X connect 58 0 59 0;
#X connect 58 1 49 1;
#X connect 59 0 49 0;
#X connect 60 0 4 1;
#X connect 60 1 35 0;
#X connect 60 2 59 1;
#X connect 60 3 49 0;
#X connect 61 0 55 0;
#X connect 64 0 47 0;
#X restore 188 514 pd GRAIN;
#N canvas 620 154 678 723 GRAIN 0;
#X obj 50 39 inlet RENDER_CHAIN;
#X obj 50 123 ofPushMatrix;
#X obj 177 60 tgl 15 0 empty empty empty 17 7 0 10 -262144 -1 -1 0
1;
#N canvas 2 114 917 587 TOUCH 0;
#X obj 49 29 r \$1-touchDown;
#X obj 49 145 unpack f f f;
#X obj 327 29 r \$1-touchMove;
#X obj 597 29 r \$1-touchUp;
#X obj 350 108 r \$0-getTranslate;
#X obj 350 127 unpack f f;
#X obj 83 183 pack f f;
#X obj 83 164 -;
#X obj 128 164 -;
#X text 294 221 INDENTIFICA TOQUE LOCAL;
#X obj 327 335 route -1;
#X obj 597 335 route -1;
#X msg 597 354 -1;
#X text 681 354 REINICIA SISTEMA LOCAL QUANDO LIBERA TOQUE, f 22;
#X text 465 108 RECEBE POSIÇÃO LOCAL;
#X obj 327 354 t a a;
#X obj 402 410 pack f f;
#X obj 402 391 -;
#X obj 447 391 -;
#X obj 402 372 unpack f f;
#X obj 402 448 change;
#X text 450 449 FILTRA REPETIÇÃO;
#X text 447 29 INTERAÇÕES GLOBAIS;
#X obj 327 467 list append 0;
#X obj 327 526 outlet MOVE;
#X text 340 503 X / Y / 0-1 (DENTRO/FORA);
#X obj 49 66 spigot;
#X text 790 29 TOUCH ON/OFF;
#X obj 49 240 spigot;
#X obj 83 221 ofIsPointInsidePath2d @multitouch;
#X obj 402 429 ofIsPointInsidePath2d @multitouch;
#X text 613 429 INDENTIFICA MOVIMENTO LOCAL SOBRE A ÁREA;
#X obj 350 146 t f f;
#X obj 407 146 t f f;
#X msg 49 487 1;
#X msg 79 487 0;
#X obj 711 29 inlet TOUCH;
#X obj 83 202 t l l;
#X obj 148 487 list;
#X obj 49 317 t b b f f;
#X obj 49 526 outlet TOUCH;
#X obj 148 526 outlet TOUCH_POSITION;
#X obj 49 269 spigot 1;
#X msg 94 250 0;
#X msg 124 250 1;
#X obj 49 288 t f b;
#X text 110 269 GARANTE APENAS 1 TOQUE LOCAL;
#X obj 597 373 t b b f f;
#X obj 557 296 r \$0-forceRelease;
#X obj 711 48 t f;
#X connect 0 0 26 0;
#X connect 1 0 28 0;
#X connect 1 1 7 0;
#X connect 1 2 8 0;
#X connect 2 0 10 0;
#X connect 3 0 11 0;
#X connect 4 0 5 0;
#X connect 5 0 32 0;
#X connect 5 1 33 0;
#X connect 6 0 37 0;
#X connect 7 0 6 0;
#X connect 8 0 6 1;
#X connect 10 0 15 0;
#X connect 11 0 12 0;
#X connect 12 0 47 0;
#X connect 15 0 23 0;
#X connect 15 1 19 0;
#X connect 16 0 30 0;
#X connect 17 0 16 0;
#X connect 18 0 16 1;
#X connect 19 0 17 0;
#X connect 19 1 18 0;
#X connect 20 0 23 1;
#X connect 23 0 24 0;
#X connect 26 0 1 0;
#X connect 28 0 42 0;
#X connect 29 0 28 1;
#X connect 30 0 20 0;
#X connect 32 0 7 1;
#X connect 32 1 17 1;
#X connect 33 0 8 1;
#X connect 33 1 18 1;
#X connect 34 0 40 0;
#X connect 35 0 40 0;
#X connect 36 0 49 0;
#X connect 37 0 29 0;
#X connect 37 1 38 1;
#X connect 38 0 41 0;
#X connect 39 0 34 0;
#X connect 39 1 38 0;
#X connect 39 2 10 1;
#X connect 39 3 11 1;
#X connect 42 0 45 0;
#X connect 43 0 42 1;
#X connect 44 0 42 1;
#X connect 45 0 39 0;
#X connect 45 1 43 0;
#X connect 47 0 35 0;
#X connect 47 1 44 0;
#X connect 47 2 10 1;
#X connect 47 3 11 1;
#X connect 48 0 12 0;
#X connect 49 0 26 1;
#X restore 193 58 pd TOUCH;
#X obj 50 94 spigot;
#X obj 417 166 ofRcv @sizeY;
#X obj 417 185 int;
#X obj 50 521 ofSetColor 213 220 230 255;
#X obj 50 502 ofSetFillMode 1;
#X obj 50 560 ofRectangle;
#X obj 101 203 r \$0-slices;
#X obj 320 185 int;
#X obj 320 166 ofRcv @sizeX;
#X obj 101 220 pack f f;
#X text 180 203 NÚMERO DE SLICES;
#X text 317 143 TAMANHO DA ÁREA;
#X obj 101 239 swap;
#X obj 101 258 /;
#X text 131 258 TAMANHO DO GRÃO = 1 SLICE;
#X msg 211 505 set \$1 \$2 \$3 \$4;
#X obj 211 486 ofRcv @bgColor;
#X obj 50 411 ofTranslate;
#X obj 50 599 ofPopMatrix;
#X obj 425 61 r \$0-getTranslate;
#X obj 425 80 unpack f f;
#X obj 255 77 unpack f f;
#X obj 330 96 -;
#X obj 330 77 unpack f f;
#X obj 71 353 clip 0 600;
#X obj 255 112 t f;
#X obj 128 296 pack f f;
#X obj 128 315 swap;
#X obj 128 334 -;
#X text 274 58 GERENCIA TOQUE;
#X obj 193 39 inlet TOUCH;
#X obj 212 667 outlet TOUCH;
#X obj 71 372 t f f;
#X obj 344 388 /;
#X obj 344 638 list trim;
#X text 375 388 POSIÇÃO X NORMALIZADA 0 - 1;
#X obj 387 96 -;
#X obj 387 115 t f;
#X obj 417 204 t f f;
#X obj 390 457 /;
#X text 421 457 POSIÇÃO Y NORMALIZADA 0 - 1;
#X obj 390 495 t f f;
#X text 441 600 ID DO TOQUE;
#X obj 417 533 * 255;
#X text 459 533 CONVERTE Y EM OPACIDADE;
#X obj 344 581 pack f f f f;
#X obj 320 204 t f f f f;
#X obj 101 277 t f f f;
#X obj 413 562 /;
#X text 444 563 TAMANHO DO SLICE ENTRE 0 - 1;
#X text 544 514 CURVA EXPONENCIAL;
#X obj 344 619 list prepend \$2;
#X text 446 619 CAMADA;
#X obj 390 476 clip 0 1;
#X obj 344 407 t b f;
#X obj 344 426 spigot;
#X obj 193 77 t f f f f;
#X obj 344 600 list prepend 3;
#X obj 344 667 s \$1-granularBus;
#X text 453 666 ENVIA PARA MECANISMO DE ÁUDIO;
#X obj 417 514 expr pow($f1 \, 0.5);
#X connect 0 0 4 0;
#X connect 1 0 21 0;
#X connect 3 0 2 0;
#X connect 3 0 60 0;
#X connect 3 1 25 0;
#X connect 3 2 27 0;
#X connect 4 0 1 0;
#X connect 5 0 6 0;
#X connect 6 0 42 0;
#X connect 7 0 9 0;
#X connect 8 0 7 0;
#X connect 9 0 22 0;
#X connect 10 0 13 0;
#X connect 11 0 50 0;
#X connect 12 0 11 0;
#X connect 13 0 16 0;
#X connect 16 0 17 0;
#X connect 16 1 17 1;
#X connect 17 0 51 0;
#X connect 19 0 7 0;
#X connect 20 0 19 0;
#X connect 21 0 8 0;
#X connect 23 0 24 0;
#X connect 24 0 26 1;
#X connect 24 1 40 1;
#X connect 25 0 29 0;
#X connect 25 1 41 0;
#X connect 26 0 29 0;
#X connect 27 0 26 0;
#X connect 27 1 40 0;
#X connect 28 0 36 0;
#X connect 29 0 28 0;
#X connect 30 0 31 0;
#X connect 31 0 32 0;
#X connect 31 1 32 1;
#X connect 32 0 28 2;
#X connect 34 0 3 0;
#X connect 36 0 21 1;
#X connect 36 1 37 0;
#X connect 37 0 58 0;
#X connect 38 0 62 0;
#X connect 40 0 41 0;
#X connect 41 0 43 0;
#X connect 42 0 9 2;
#X connect 42 1 43 1;
#X connect 43 0 57 0;
#X connect 45 0 49 2;
#X connect 45 1 64 0;
#X connect 47 0 7 4;
#X connect 49 0 61 0;
#X connect 50 0 13 1;
#X connect 50 1 30 1;
#X connect 50 2 37 1;
#X connect 50 3 52 1;
#X connect 51 0 9 1;
#X connect 51 1 30 0;
#X connect 51 2 52 0;
#X connect 52 0 49 3;
#X connect 55 0 38 0;
#X connect 57 0 45 0;
#X connect 58 0 59 0;
#X connect 58 1 49 1;
#X connect 59 0 49 0;
#X connect 60 0 4 1;
#X connect 60 1 35 0;
#X connect 60 2 59 1;
#X connect 60 3 49 0;
#X connect 61 0 55 0;
#X connect 64 0 47 0;
#X restore 248 514 pd GRAIN;
#N canvas 620 154 678 723 GRAIN 0;
#X obj 50 39 inlet RENDER_CHAIN;
#X obj 50 123 ofPushMatrix;
#X obj 177 60 tgl 15 0 empty empty empty 17 7 0 10 -262144 -1 -1 0
1;
#N canvas 2 114 917 587 TOUCH 0;
#X obj 49 29 r \$1-touchDown;
#X obj 49 145 unpack f f f;
#X obj 327 29 r \$1-touchMove;
#X obj 597 29 r \$1-touchUp;
#X obj 350 108 r \$0-getTranslate;
#X obj 350 127 unpack f f;
#X obj 83 183 pack f f;
#X obj 83 164 -;
#X obj 128 164 -;
#X text 294 221 INDENTIFICA TOQUE LOCAL;
#X obj 327 335 route -1;
#X obj 597 335 route -1;
#X msg 597 354 -1;
#X text 681 354 REINICIA SISTEMA LOCAL QUANDO LIBERA TOQUE, f 22;
#X text 465 108 RECEBE POSIÇÃO LOCAL;
#X obj 327 354 t a a;
#X obj 402 410 pack f f;
#X obj 402 391 -;
#X obj 447 391 -;
#X obj 402 372 unpack f f;
#X obj 402 448 change;
#X text 450 449 FILTRA REPETIÇÃO;
#X text 447 29 INTERAÇÕES GLOBAIS;
#X obj 327 467 list append 0;
#X obj 327 526 outlet MOVE;
#X text 340 503 X / Y / 0-1 (DENTRO/FORA);
#X obj 49 66 spigot;
#X text 790 29 TOUCH ON/OFF;
#X obj 49 240 spigot;
#X obj 83 221 ofIsPointInsidePath2d @multitouch;
#X obj 402 429 ofIsPointInsidePath2d @multitouch;
#X text 613 429 INDENTIFICA MOVIMENTO LOCAL SOBRE A ÁREA;
#X obj 350 146 t f f;
#X obj 407 146 t f f;
#X msg 49 487 1;
#X msg 79 487 0;
#X obj 711 29 inlet TOUCH;
#X obj 83 202 t l l;
#X obj 148 487 list;
#X obj 49 317 t b b f f;
#X obj 49 526 outlet TOUCH;
#X obj 148 526 outlet TOUCH_POSITION;
#X obj 49 269 spigot 1;
#X msg 94 250 0;
#X msg 124 250 1;
#X obj 49 288 t f b;
#X text 110 269 GARANTE APENAS 1 TOQUE LOCAL;
#X obj 597 373 t b b f f;
#X obj 557 296 r \$0-forceRelease;
#X obj 711 48 t f;
#X connect 0 0 26 0;
#X connect 1 0 28 0;
#X connect 1 1 7 0;
#X connect 1 2 8 0;
#X connect 2 0 10 0;
#X connect 3 0 11 0;
#X connect 4 0 5 0;
#X connect 5 0 32 0;
#X connect 5 1 33 0;
#X connect 6 0 37 0;
#X connect 7 0 6 0;
#X connect 8 0 6 1;
#X connect 10 0 15 0;
#X connect 11 0 12 0;
#X connect 12 0 47 0;
#X connect 15 0 23 0;
#X connect 15 1 19 0;
#X connect 16 0 30 0;
#X connect 17 0 16 0;
#X connect 18 0 16 1;
#X connect 19 0 17 0;
#X connect 19 1 18 0;
#X connect 20 0 23 1;
#X connect 23 0 24 0;
#X connect 26 0 1 0;
#X connect 28 0 42 0;
#X connect 29 0 28 1;
#X connect 30 0 20 0;
#X connect 32 0 7 1;
#X connect 32 1 17 1;
#X connect 33 0 8 1;
#X connect 33 1 18 1;
#X connect 34 0 40 0;
#X connect 35 0 40 0;
#X connect 36 0 49 0;
#X connect 37 0 29 0;
#X connect 37 1 38 1;
#X connect 38 0 41 0;
#X connect 39 0 34 0;
#X connect 39 1 38 0;
#X connect 39 2 10 1;
#X connect 39 3 11 1;
#X connect 42 0 45 0;
#X connect 43 0 42 1;
#X connect 44 0 42 1;
#X connect 45 0 39 0;
#X connect 45 1 43 0;
#X connect 47 0 35 0;
#X connect 47 1 44 0;
#X connect 47 2 10 1;
#X connect 47 3 11 1;
#X connect 48 0 12 0;
#X connect 49 0 26 1;
#X restore 193 58 pd TOUCH;
#X obj 50 94 spigot;
#X obj 417 166 ofRcv @sizeY;
#X obj 417 185 int;
#X obj 50 521 ofSetColor 213 220 230 255;
#X obj 50 502 ofSetFillMode 1;
#X obj 50 560 ofRectangle;
#X obj 101 203 r \$0-slices;
#X obj 320 185 int;
#X obj 320 166 ofRcv @sizeX;
#X obj 101 220 pack f f;
#X text 180 203 NÚMERO DE SLICES;
#X text 317 143 TAMANHO DA ÁREA;
#X obj 101 239 swap;
#X obj 101 258 /;
#X text 131 258 TAMANHO DO GRÃO = 1 SLICE;
#X msg 211 505 set \$1 \$2 \$3 \$4;
#X obj 211 486 ofRcv @bgColor;
#X obj 50 411 ofTranslate;
#X obj 50 599 ofPopMatrix;
#X obj 425 61 r \$0-getTranslate;
#X obj 425 80 unpack f f;
#X obj 255 77 unpack f f;
#X obj 330 96 -;
#X obj 330 77 unpack f f;
#X obj 71 353 clip 0 600;
#X obj 255 112 t f;
#X obj 128 296 pack f f;
#X obj 128 315 swap;
#X obj 128 334 -;
#X text 274 58 GERENCIA TOQUE;
#X obj 193 39 inlet TOUCH;
#X obj 212 667 outlet TOUCH;
#X obj 71 372 t f f;
#X obj 344 388 /;
#X obj 344 638 list trim;
#X text 375 388 POSIÇÃO X NORMALIZADA 0 - 1;
#X obj 387 96 -;
#X obj 387 115 t f;
#X obj 417 204 t f f;
#X obj 390 457 /;
#X text 421 457 POSIÇÃO Y NORMALIZADA 0 - 1;
#X obj 390 495 t f f;
#X text 441 600 ID DO TOQUE;
#X obj 417 533 * 255;
#X text 459 533 CONVERTE Y EM OPACIDADE;
#X obj 344 581 pack f f f f;
#X obj 320 204 t f f f f;
#X obj 101 277 t f f f;
#X obj 413 562 /;
#X text 444 563 TAMANHO DO SLICE ENTRE 0 - 1;
#X text 544 514 CURVA EXPONENCIAL;
#X obj 344 619 list prepend \$2;
#X text 446 619 CAMADA;
#X obj 390 476 clip 0 1;
#X obj 344 407 t b f;
#X obj 344 426 spigot;
#X obj 193 77 t f f f f;
#X obj 344 600 list prepend 4;
#X obj 344 667 s \$1-granularBus;
#X text 453 666 ENVIA PARA MECANISMO DE ÁUDIO;
#X obj 417 514 expr pow($f1 \, 0.5);
#X connect 0 0 4 0;
#X connect 1 0 21 0;
#X connect 3 0 2 0;
#X connect 3 0 60 0;
#X connect 3 1 25 0;
#X connect 3 2 27 0;
#X connect 4 0 1 0;
#X connect 5 0 6 0;
#X connect 6 0 42 0;
#X connect 7 0 9 0;
#X connect 8 0 7 0;
#X connect 9 0 22 0;
#X connect 10 0 13 0;
#X connect 11 0 50 0;
#X connect 12 0 11 0;
#X connect 13 0 16 0;
#X connect 16 0 17 0;
#X connect 16 1 17 1;
#X connect 17 0 51 0;
#X connect 19 0 7 0;
#X connect 20 0 19 0;
#X connect 21 0 8 0;
#X connect 23 0 24 0;
#X connect 24 0 26 1;
#X connect 24 1 40 1;
#X connect 25 0 29 0;
#X connect 25 1 41 0;
#X connect 26 0 29 0;
#X connect 27 0 26 0;
#X connect 27 1 40 0;
#X connect 28 0 36 0;
#X connect 29 0 28 0;
#X connect 30 0 31 0;
#X connect 31 0 32 0;
#X connect 31 1 32 1;
#X connect 32 0 28 2;
#X connect 34 0 3 0;
#X connect 36 0 21 1;
#X connect 36 1 37 0;
#X connect 37 0 58 0;
#X connect 38 0 62 0;
#X connect 40 0 41 0;
#X connect 41 0 43 0;
#X connect 42 0 9 2;
#X connect 42 1 43 1;
#X connect 43 0 57 0;
#X connect 45 0 49 2;
#X connect 45 1 64 0;
#X connect 47 0 7 4;
#X connect 49 0 61 0;
#X connect 50 0 13 1;
#X connect 50 1 30 1;
#X connect 50 2 37 1;
#X connect 50 3 52 1;
#X connect 51 0 9 1;
#X connect 51 1 30 0;
#X connect 51 2 52 0;
#X connect 52 0 49 3;
#X connect 55 0 38 0;
#X connect 57 0 45 0;
#X connect 58 0 59 0;
#X connect 58 1 49 1;
#X connect 59 0 49 0;
#X connect 60 0 4 1;
#X connect 60 1 35 0;
#X connect 60 2 59 1;
#X connect 60 3 49 0;
#X connect 61 0 55 0;
#X connect 64 0 47 0;
#X restore 308 514 pd GRAIN;
#N canvas 620 154 678 723 GRAIN 0;
#X obj 50 39 inlet RENDER_CHAIN;
#X obj 50 123 ofPushMatrix;
#X obj 177 60 tgl 15 0 empty empty empty 17 7 0 10 -262144 -1 -1 0
1;
#N canvas 2 114 917 587 TOUCH 0;
#X obj 49 29 r \$1-touchDown;
#X obj 49 145 unpack f f f;
#X obj 327 29 r \$1-touchMove;
#X obj 597 29 r \$1-touchUp;
#X obj 350 108 r \$0-getTranslate;
#X obj 350 127 unpack f f;
#X obj 83 183 pack f f;
#X obj 83 164 -;
#X obj 128 164 -;
#X text 294 221 INDENTIFICA TOQUE LOCAL;
#X obj 327 335 route -1;
#X obj 597 335 route -1;
#X msg 597 354 -1;
#X text 681 354 REINICIA SISTEMA LOCAL QUANDO LIBERA TOQUE, f 22;
#X text 465 108 RECEBE POSIÇÃO LOCAL;
#X obj 327 354 t a a;
#X obj 402 410 pack f f;
#X obj 402 391 -;
#X obj 447 391 -;
#X obj 402 372 unpack f f;
#X obj 402 448 change;
#X text 450 449 FILTRA REPETIÇÃO;
#X text 447 29 INTERAÇÕES GLOBAIS;
#X obj 327 467 list append 0;
#X obj 327 526 outlet MOVE;
#X text 340 503 X / Y / 0-1 (DENTRO/FORA);
#X obj 49 66 spigot;
#X text 790 29 TOUCH ON/OFF;
#X obj 49 240 spigot;
#X obj 83 221 ofIsPointInsidePath2d @multitouch;
#X obj 402 429 ofIsPointInsidePath2d @multitouch;
#X text 613 429 INDENTIFICA MOVIMENTO LOCAL SOBRE A ÁREA;
#X obj 350 146 t f f;
#X obj 407 146 t f f;
#X msg 49 487 1;
#X msg 79 487 0;
#X obj 711 29 inlet TOUCH;
#X obj 83 202 t l l;
#X obj 148 487 list;
#X obj 49 317 t b b f f;
#X obj 49 526 outlet TOUCH;
#X obj 148 526 outlet TOUCH_POSITION;
#X obj 49 269 spigot 1;
#X msg 94 250 0;
#X msg 124 250 1;
#X obj 49 288 t f b;
#X text 110 269 GARANTE APENAS 1 TOQUE LOCAL;
#X obj 597 373 t b b f f;
#X obj 557 296 r \$0-forceRelease;
#X obj 711 48 t f;
#X connect 0 0 26 0;
#X connect 1 0 28 0;
#X connect 1 1 7 0;
#X connect 1 2 8 0;
#X connect 2 0 10 0;
#X connect 3 0 11 0;
#X connect 4 0 5 0;
#X connect 5 0 32 0;
#X connect 5 1 33 0;
#X connect 6 0 37 0;
#X connect 7 0 6 0;
#X connect 8 0 6 1;
#X connect 10 0 15 0;
#X connect 11 0 12 0;
#X connect 12 0 47 0;
#X connect 15 0 23 0;
#X connect 15 1 19 0;
#X connect 16 0 30 0;
#X connect 17 0 16 0;
#X connect 18 0 16 1;
#X connect 19 0 17 0;
#X connect 19 1 18 0;
#X connect 20 0 23 1;
#X connect 23 0 24 0;
#X connect 26 0 1 0;
#X connect 28 0 42 0;
#X connect 29 0 28 1;
#X connect 30 0 20 0;
#X connect 32 0 7 1;
#X connect 32 1 17 1;
#X connect 33 0 8 1;
#X connect 33 1 18 1;
#X connect 34 0 40 0;
#X connect 35 0 40 0;
#X connect 36 0 49 0;
#X connect 37 0 29 0;
#X connect 37 1 38 1;
#X connect 38 0 41 0;
#X connect 39 0 34 0;
#X connect 39 1 38 0;
#X connect 39 2 10 1;
#X connect 39 3 11 1;
#X connect 42 0 45 0;
#X connect 43 0 42 1;
#X connect 44 0 42 1;
#X connect 45 0 39 0;
#X connect 45 1 43 0;
#X connect 47 0 35 0;
#X connect 47 1 44 0;
#X connect 47 2 10 1;
#X connect 47 3 11 1;
#X connect 48 0 12 0;
#X connect 49 0 26 1;
#X restore 193 58 pd TOUCH;
#X obj 50 94 spigot;
#X obj 417 166 ofRcv @sizeY;
#X obj 417 185 int;
#X obj 50 521 ofSetColor 213 220 230 255;
#X obj 50 502 ofSetFillMode 1;
#X obj 50 560 ofRectangle;
#X obj 101 203 r \$0-slices;
#X obj 320 185 int;
#X obj 320 166 ofRcv @sizeX;
#X obj 101 220 pack f f;
#X text 180 203 NÚMERO DE SLICES;
#X text 317 143 TAMANHO DA ÁREA;
#X obj 101 239 swap;
#X obj 101 258 /;
#X text 131 258 TAMANHO DO GRÃO = 1 SLICE;
#X msg 211 505 set \$1 \$2 \$3 \$4;
#X obj 211 486 ofRcv @bgColor;
#X obj 50 411 ofTranslate;
#X obj 50 599 ofPopMatrix;
#X obj 425 61 r \$0-getTranslate;
#X obj 425 80 unpack f f;
#X obj 255 77 unpack f f;
#X obj 330 96 -;
#X obj 330 77 unpack f f;
#X obj 71 353 clip 0 600;
#X obj 255 112 t f;
#X obj 128 296 pack f f;
#X obj 128 315 swap;
#X obj 128 334 -;
#X text 274 58 GERENCIA TOQUE;
#X obj 193 39 inlet TOUCH;
#X obj 212 667 outlet TOUCH;
#X obj 71 372 t f f;
#X obj 344 388 /;
#X obj 344 638 list trim;
#X text 375 388 POSIÇÃO X NORMALIZADA 0 - 1;
#X obj 387 96 -;
#X obj 387 115 t f;
#X obj 417 204 t f f;
#X obj 390 457 /;
#X text 421 457 POSIÇÃO Y NORMALIZADA 0 - 1;
#X obj 390 495 t f f;
#X text 441 600 ID DO TOQUE;
#X obj 417 533 * 255;
#X text 459 533 CONVERTE Y EM OPACIDADE;
#X obj 344 581 pack f f f f;
#X obj 320 204 t f f f f;
#X obj 101 277 t f f f;
#X obj 413 562 /;
#X text 444 563 TAMANHO DO SLICE ENTRE 0 - 1;
#X text 544 514 CURVA EXPONENCIAL;
#X obj 344 619 list prepend \$2;
#X text 446 619 CAMADA;
#X obj 390 476 clip 0 1;
#X obj 344 407 t b f;
#X obj 344 426 spigot;
#X obj 193 77 t f f f f;
#X obj 344 600 list prepend 5;
#X obj 344 667 s \$1-granularBus;
#X text 453 666 ENVIA PARA MECANISMO DE ÁUDIO;
#X obj 417 514 expr pow($f1 \, 0.5);
#X connect 0 0 4 0;
#X connect 1 0 21 0;
#X connect 3 0 2 0;
#X connect 3 0 60 0;
#X connect 3 1 25 0;
#X connect 3 2 27 0;
#X connect 4 0 1 0;
#X connect 5 0 6 0;
#X connect 6 0 42 0;
#X connect 7 0 9 0;
#X connect 8 0 7 0;
#X connect 9 0 22 0;
#X connect 10 0 13 0;
#X connect 11 0 50 0;
#X connect 12 0 11 0;
#X connect 13 0 16 0;
#X connect 16 0 17 0;
#X connect 16 1 17 1;
#X connect 17 0 51 0;
#X connect 19 0 7 0;
#X connect 20 0 19 0;
#X connect 21 0 8 0;
#X connect 23 0 24 0;
#X connect 24 0 26 1;
#X connect 24 1 40 1;
#X connect 25 0 29 0;
#X connect 25 1 41 0;
#X connect 26 0 29 0;
#X connect 27 0 26 0;
#X connect 27 1 40 0;
#X connect 28 0 36 0;
#X connect 29 0 28 0;
#X connect 30 0 31 0;
#X connect 31 0 32 0;
#X connect 31 1 32 1;
#X connect 32 0 28 2;
#X connect 34 0 3 0;
#X connect 36 0 21 1;
#X connect 36 1 37 0;
#X connect 37 0 58 0;
#X connect 38 0 62 0;
#X connect 40 0 41 0;
#X connect 41 0 43 0;
#X connect 42 0 9 2;
#X connect 42 1 43 1;
#X connect 43 0 57 0;
#X connect 45 0 49 2;
#X connect 45 1 64 0;
#X connect 47 0 7 4;
#X connect 49 0 61 0;
#X connect 50 0 13 1;
#X connect 50 1 30 1;
#X connect 50 2 37 1;
#X connect 50 3 52 1;
#X connect 51 0 9 1;
#X connect 51 1 30 0;
#X connect 51 2 52 0;
#X connect 52 0 49 3;
#X connect 55 0 38 0;
#X connect 57 0 45 0;
#X connect 58 0 59 0;
#X connect 58 1 49 1;
#X connect 59 0 49 0;
#X connect 60 0 4 1;
#X connect 60 1 35 0;
#X connect 60 2 59 1;
#X connect 60 3 49 0;
#X connect 61 0 55 0;
#X connect 64 0 47 0;
#X restore 368 514 pd GRAIN;
#X connect 0 0 14 0;
#X connect 1 0 27 0;
#X connect 4 0 36 0;
#X connect 5 0 38 0;
#X connect 6 0 13 0;
#X connect 8 0 5 0;
#X connect 10 0 5 0;
#X connect 11 0 18 0;
#X connect 11 1 0 1;
#X connect 12 0 18 0;
#X connect 12 1 0 2;
#X connect 14 0 52 0;
#X connect 14 1 15 0;
#X connect 15 0 16 0;
#X connect 16 0 6 0;
#X connect 16 1 17 0;
#X connect 17 0 15 1;
#X connect 18 0 15 1;
#X connect 20 0 21 0;
#X connect 21 0 2 0;
#X connect 22 0 41 0;
#X connect 23 0 34 0;
#X connect 24 0 23 0;
#X connect 27 0 28 0;
#X connect 28 0 0 0;
#X connect 30 0 7 0;
#X connect 31 0 10 0;
#X connect 32 0 31 1;
#X connect 34 0 37 0;
#X connect 35 0 23 1;
#X connect 36 0 11 0;
#X connect 36 1 12 0;
#X connect 36 2 24 0;
#X connect 36 3 35 0;
#X connect 39 0 40 0;
#X connect 41 0 50 0;
#X connect 41 1 8 0;
#X connect 43 0 55 1;
#X connect 45 0 43 0;
#X connect 45 1 55 0;
#X connect 45 2 56 0;
#X connect 45 3 57 0;
#X connect 45 4 58 0;
#X connect 45 5 59 0;
#X connect 46 0 51 0;
#X connect 47 0 46 0;
#X connect 48 0 47 1;
#X connect 50 0 51 0;
#X connect 52 0 20 0;
#X connect 52 1 45 0;
#X connect 52 2 47 0;
#X connect 52 3 31 0;
#X connect 53 0 43 1;
#X connect 55 0 56 1;
#X connect 56 0 57 1;
#X connect 57 0 58 1;
#X connect 58 0 59 1;
